<svg width="114" height="153" viewBox="0 0 114 153" fill="none" xmlns="http://www.w3.org/2000/svg">
<path d="M13.7626 11.4933C17.9758 5.84656 26.3124 4.1457 33.3569 3.09326C41.8821 1.81925 50.5998 1.65147 59.191 2.4579C67.8244 3.2676 76.3442 5.14929 84.4113 8.00034C88.0875 9.30041 91.7838 10.752 95.099 12.6891C97.8955 14.3232 100.712 16.5095 101.887 19.3817C104.634 26.0987 97.6042 31.6673 91.5364 34.3684C84.1254 37.6675 75.6771 38.5375 67.4891 38.5635C58.4434 38.5929 49.4508 37.5338 40.4124 37.3807C35.7521 37.3009 31.0863 37.4785 26.4773 38.1253C22.6435 38.6629 18.85 39.5394 15.3882 41.136C12.2398 42.5876 9.32223 44.7397 7.70771 47.5972C5.9869 50.6438 5.8312 54.1253 6.9106 57.3706C9.14454 64.0812 15.544 69.1055 22.4108 72.1178C38.1675 79.0337 56.0848 76.4595 72.503 73.1377C77.0186 72.2237 81.5176 71.2072 86.068 70.4301C90.217 69.7214 94.6152 69.2798 98.7495 70.2932C104.837 71.7838 108.55 76.5541 109.672 81.8863C110.841 87.4385 109.069 93.1064 105.068 97.4595C100.377 102.564 93.5926 105.786 86.5847 107.666C69.8457 112.158 51.7048 109.3 35.1693 114.735C28.0991 117.058 21.2965 120.845 17.1475 126.578C13.4328 131.711 11.8605 138.28 13.5153 144.254C14.329 147.191 15.9856 149.621 18.3075 151.8C19.5116 152.929 21.4284 151.222 20.2262 150.095C15.6337 145.786 15.117 139.086 16.8946 133.643C18.9544 127.337 24.1737 122.617 30.5622 119.533C46.2107 111.979 64.8043 114.424 81.7173 111.467C95.6011 109.04 111.134 101.492 112.886 87.7008C113.59 82.1698 111.862 76.1761 107.574 72.0266C105.237 69.7653 102.136 68.229 98.7752 67.5497C94.4283 66.6715 89.9329 67.0952 85.6025 67.8266C76.313 69.3923 67.2325 71.8001 57.8716 73.0595C49.6084 74.1706 41.0996 74.4036 32.9189 72.6832C25.561 71.1371 18.1939 67.9733 13.3668 62.6475C11.0486 60.0897 9.26362 56.8509 9.16466 53.5192C9.0712 50.375 10.6344 47.5891 13.255 45.5233C15.8866 43.4494 19.299 42.2227 22.66 41.4341C27.0765 40.3996 31.6635 40.0069 36.2175 39.9059C45.5107 39.7006 54.7543 40.7727 64.0346 40.96C72.3913 41.1295 81.021 40.6179 88.8975 37.9395C95.6818 35.6326 103.518 31.2469 104.85 24.3262C106.181 17.4218 99.9866 12.4137 93.7722 9.42586C86.2696 5.81888 77.8964 3.37185 69.5672 1.83066C61.02 0.250367 52.2345 -0.323088 43.5205 0.173808C39.2322 0.418183 34.9549 0.913434 30.7418 1.66448C27.0399 2.32429 23.4443 3.25787 20.0943 4.82839C17.0852 6.23925 14.4334 8.31962 12.7108 10.9409C12.3094 11.5535 13.332 12.07 13.7626 11.4933Z" fill="#7EAF15"/>
<path d="M19.4071 152.231C21.0729 150.482 22.6508 148.757 24.7949 147.444C25.8358 146.807 26.9299 146.239 28.0863 145.781C29.2683 145.313 30.6226 145.116 31.6159 144.35C32.2207 143.884 31.9127 142.873 31.1339 142.729C29.6898 142.462 28.2732 143.086 26.9886 143.619C25.6654 144.166 24.4119 144.844 23.2573 145.637C21.0307 147.167 18.9563 149.099 17.8714 151.436C17.5214 152.188 18.8335 152.832 19.4071 152.231Z" fill="#7EAF15"/>
<path d="M18.6539 151.965C18.0179 150.554 16.5133 149.306 15.3349 148.235C14.0265 147.046 12.6392 145.955 11.164 144.931C9.7199 143.931 8.23179 142.989 6.67591 142.133C5.08155 141.254 3.34975 140.222 1.46767 139.954C0.454243 139.809 -0.562853 140.898 0.364443 141.639C1.67475 142.688 3.32774 143.317 4.83964 144.101C6.40468 144.912 7.93306 145.792 9.40647 146.728C10.8341 147.636 12.225 148.605 13.572 149.606C14.25 150.111 14.9098 150.634 15.5806 151.147C16.244 151.653 16.8798 152.281 17.6568 152.646C18.126 152.867 18.8884 152.488 18.6539 151.965Z" fill="#7EAF15"/>
</svg>
