<svg width="414" height="135" viewBox="0 0 414 135" fill="none" xmlns="http://www.w3.org/2000/svg">
<path d="M198.197 88.6044C197.752 88.938 198.131 89.4659 199.46 89.1372L200.252 88.0068L198.197 88.6044Z" fill="#7EAF15"/>
<path d="M207.594 88.9577C209.103 88.2307 210.805 87.1053 209.629 86.3733C208.208 87.5634 207.758 87.2348 206.25 88.6191C204.915 88.9478 203.837 88.6838 204.005 88.2854C203.571 88.6141 201.868 88.405 201.244 89.1371C203.131 89.6101 205.36 89.2863 207.584 88.2904C208.121 88.4298 207.676 88.7635 207.594 88.9577Z" fill="#7EAF15"/>
<path d="M340.745 79.7117L339.886 79.6057C340.121 79.6663 340.418 79.6965 340.745 79.7117Z" fill="#7EAF15"/>
<path d="M408.477 96.9901C408.64 96.4722 408.625 96.2281 408.548 96.1733C408.436 96.6614 408.354 97.0698 408.477 96.9901Z" fill="#7EAF15"/>
<path d="M399.651 105.792C399.886 105.656 400.075 105.531 400.285 105.401C400.004 105.501 399.748 105.626 399.651 105.792Z" fill="#7EAF15"/>
<path d="M340.746 79.7102C341.482 79.8004 342.218 79.9007 342.954 80.0109C343.113 79.6852 341.825 79.7603 340.746 79.7102Z" fill="#7EAF15"/>
<path d="M225.495 83.9478C225.04 84.058 224.672 84.1984 224.34 84.3688C224.713 84.2735 225.071 84.1934 225.449 84.1132C225.46 84.053 225.47 84.0079 225.495 83.9478Z" fill="#7EAF15"/>
<path d="M304.341 81.5029L303.671 81.5378C303.482 81.6623 303.303 81.8067 303.135 81.966L304.341 81.5029Z" fill="#7EAF15"/>
<path d="M276.458 83.4203C277.092 83.4054 277.24 82.5538 277.455 82.1704C277.128 82.5439 276.673 82.743 276.126 82.8526C276.131 83.0119 276.228 83.1962 276.458 83.4203Z" fill="#7EAF15"/>
<path d="M232.193 86.4927L231.426 86.7132C231.625 86.648 231.963 86.5729 232.193 86.4927Z" fill="#7EAF15"/>
<path d="M324.344 80.9697C324.396 81.0955 324.498 81.2012 324.606 81.2666C324.606 81.161 324.498 81.0603 324.344 80.9697Z" fill="#7EAF15"/>
<path d="M243.871 21.5376C243.856 21.5979 243.892 21.6331 243.887 21.6884C244.041 21.5878 244.087 21.5225 243.871 21.5376Z" fill="#7EAF15"/>
<path d="M276.663 23.3452L276.218 23.42C276.178 23.5793 276.137 23.7387 276.147 23.898L276.663 23.3452Z" fill="#7EAF15"/>
<path d="M376.888 114.047C376.939 114.047 376.955 114.042 377.001 114.037C377.609 113.791 377.256 113.896 376.888 114.047Z" fill="#7EAF15"/>
<path d="M140.637 126.315C143.332 127.052 136.266 127.306 140.32 128.113C139.942 127.789 143.997 126.784 140.637 126.315Z" fill="#7EAF15"/>
<path d="M226.23 83.9591C226.603 83.899 226.986 83.8439 227.37 83.7988C226.848 83.8439 226.501 83.8889 226.23 83.9591Z" fill="#7EAF15"/>
<path d="M140.32 128.118V128.123L140.739 128.199C140.565 128.164 140.468 128.149 140.32 128.118Z" fill="#7EAF15"/>
<path d="M318.267 120.096C318.4 120.236 318.646 120.336 318.896 120.427C318.876 120.341 318.733 120.246 318.267 120.096Z" fill="#7EAF15"/>
<path d="M362.543 118.009L361.449 118.014C361.883 118.045 362.236 118.035 362.543 118.009Z" fill="#7EAF15"/>
<path d="M295.34 122.671C294.742 122.641 294.532 122.535 293.725 122.696C293.801 122.736 293.878 122.761 293.98 122.786C294.267 122.651 294.655 122.575 295.34 122.671Z" fill="#7EAF15"/>
<path d="M271.38 123.925C271.507 123.985 271.681 124.025 271.83 124.075C272.065 124.05 272.341 124.02 272.586 123.995L271.38 123.925Z" fill="#7EAF15"/>
<path d="M171.369 32.1735C171.932 32.308 172.305 32.5022 172.607 32.7064C172.126 32.1885 175.562 31.317 171.369 32.1735Z" fill="#7EAF15"/>
<path d="M225.577 84.4108C225.684 84.1817 225.873 84.0521 226.236 83.9575C225.965 84.0023 225.704 84.0571 225.449 84.1069C225.393 84.2414 225.398 84.361 225.577 84.4108Z" fill="#7EAF15"/>
<path d="M294.756 129.339L290.932 129.424C292.005 129.45 293.396 129.419 294.756 129.339Z" fill="#7EAF15"/>
<path d="M6.55042 85.009L7.22546 84.2571C6.92381 84.5011 6.67312 84.765 6.55042 85.009Z" fill="#7EAF15"/>
<path d="M279.624 130.15C278.928 129.886 278.197 129.751 277.446 129.677C277.292 129.751 277.113 129.811 277.016 129.916L279.624 130.15Z" fill="#7EAF15"/>
<path d="M172.617 32.7125C172.606 32.7125 172.606 32.707 172.606 32.707C172.606 32.707 172.606 32.7125 172.617 32.7125Z" fill="#7EAF15"/>
<path d="M197.139 26.4916C193.519 26.9995 195.615 27.8062 194.95 28.5431C190.707 29.564 192.829 28.0751 191.269 27.7614C188.631 28.5034 186.75 29.8479 184.745 30.1417C184.566 29.9874 184.162 29.9873 184.577 29.6885C183.237 30.3608 181.136 30.7244 178.978 31.1277C176.826 31.556 174.632 32.0538 173.093 32.9054C172.833 32.8556 172.689 32.7859 172.613 32.7162C173.252 33.1594 173.441 33.6972 173.41 34.1106C171.81 34.4342 170.573 35.3604 169.831 34.7678C170.818 34.6035 170.844 34.2998 171.258 33.991L169.642 34.6185C167.924 33.8865 171.866 33.8317 171.713 33.0797C168.497 34.0358 164.851 35.5945 162.285 35.7986C161.543 34.8873 168.088 34.3446 164.55 34.0956L168.517 33.7371C165.225 32.7312 170.905 33.3984 167.832 32.2382C165.24 32.5818 163.829 32.9802 162.423 33.3785C161.022 33.7968 159.626 34.2301 157.049 34.6235C156.027 35.4153 157.607 35.3604 156.584 36.1522C149.59 38.6769 150.326 34.8475 145.316 37.3274C144.099 38.3084 143.874 39.6828 139.952 39.8969L140.965 38.4828C136.021 39.5235 138.556 40.7435 133.229 41.1967C134.032 40.5443 136.997 39.9269 136.22 39.9667C132.666 39.8671 134.021 41.1518 131.465 41.7494L130.683 40.8879C125.514 42.3569 119.977 44.5431 114.276 46.2013C114.511 45.8228 115.411 45.2601 113.979 45.3149C106.903 47.8396 98.5028 49.4132 91.4114 51.0017L89.029 52.6351C88.4103 52.8093 87.7661 52.6002 88.3796 52.2367C85.5778 52.7346 88.4103 52.8094 87.219 53.5314C85.7056 54.0543 85.0357 53.6609 85.9254 53.1181C84.7954 53.6609 83.4048 54.2534 81.8965 54.9306C80.3883 55.5979 78.7421 56.2901 77.0753 56.9325C73.7418 58.2172 70.3059 59.3078 67.6626 59.6713L68.5471 59.1087C66.5429 59.5569 65.6174 60.3935 64.6971 61.1205C63.7768 61.8575 62.877 62.5248 60.9546 62.7588L61.5835 62.3754C59.4617 63.0128 57.3144 63.7398 55.1773 64.4868C54.1087 64.8652 53.0401 65.2387 51.9818 65.6122C50.9285 66.0056 49.8854 66.3939 48.8577 66.7774C44.7368 68.2962 40.8256 69.6159 37.4153 70.1736C36.6791 71.7721 29.0559 72.8627 29.2042 74.6952C26.6938 75.223 25.7378 75.2777 24.5567 75.462C23.9688 75.5566 23.3195 75.6811 22.394 75.9102C21.4686 76.1393 20.2621 76.473 18.5033 77.0705C16.6525 77.7976 16.2689 79.2516 14.1829 80.5563L13.6768 79.7795C13.2525 80.1928 12.8331 80.6011 12.4241 81.0393L11.8157 81.6817L11.2278 82.3489C10.5018 82.3639 9.78087 82.4336 9.0344 82.5133C8.71741 82.7772 8.42085 83.081 8.11919 83.3698C7.81754 83.6586 7.51589 83.9525 7.23469 84.2712C8.02717 83.6288 9.14678 83.2553 9.18768 83.5491C7.80723 84.8439 6.00256 86.3377 4.60166 87.757C4.2591 88.1155 3.9318 88.4541 3.62504 88.7579C3.3285 89.0716 3.07783 89.3654 2.84264 89.6044C2.36715 90.0775 2.0655 90.3813 1.9479 90.3564L1.51352 91.5415C1.39592 91.9498 1.2936 92.3631 1.18623 92.7714C1.06864 93.1798 1.00218 93.5932 0.940827 94.0065C0.884586 94.4198 0.797639 94.8332 0.7823 95.2465C0.63403 96.8997 0.761839 98.5231 1.0277 100.082C0.628907 99.9124 0.363132 98.309 0.225087 96.9694C0.306891 97.6317 0.368185 98.1446 0.419313 98.543C0.475553 98.9314 0.496074 99.2103 0.490962 99.4144C0.480736 99.8228 0.358029 99.9373 0.235322 100.042C0.117729 100.141 -0.00495829 100.236 0.000154488 100.595C0.0103801 100.948 0.10224 101.606 0.593067 102.711C0.664646 102.049 1.21677 102.925 1.42639 102.98C1.43662 104.145 1.85604 106.018 2.76101 107.88C3.65063 109.747 4.98494 111.595 6.33471 112.959L5.3531 112.79C5.62919 113.134 5.90012 113.487 6.19666 113.826C6.50342 114.154 6.81022 114.488 7.1221 114.817C7.77142 115.454 8.46165 116.101 9.16721 116.649C10.5783 117.785 12.1172 118.8 13.7175 119.682C16.9335 121.445 20.3746 122.724 23.7746 123.835C21.4278 122.729 22.3992 121.898 24.3727 122.446L24.8533 123.621C26.3105 123.442 22.9156 122.63 25.7481 122.739C28.2022 123.576 27.1184 124.293 25.5641 124.174C26.6224 124.373 27.6807 124.552 28.7288 124.711C28.8311 125.04 28.0742 125 27.7777 125.304C28.4935 125.184 29.7513 125.772 31.096 126.29C32.4356 126.793 33.8672 127.266 34.8949 126.962L35.0022 127.286C41.7511 128.77 44.8953 128.994 50.4325 129.821C50.6779 128.999 52.8048 129.542 54.5534 129.094C58.5618 129.91 63.0048 131.135 67.9335 131.509C71.4255 131.414 69.0072 130.896 70.6075 130.543C70.7864 131.339 75.7051 131.633 73.1129 131.992C74.5905 132.071 75.8021 132.136 76.9013 132.196C78.0057 132.236 78.9977 132.261 80.0407 132.276C82.1267 132.315 84.4069 132.256 88.1495 132.126C87.357 131.773 86.452 131.593 86.9377 131.354C88.2926 131.305 89.9953 131.802 89.7857 132.166L89.4277 132.231C93.6304 131.817 98.4262 132.525 103.028 133.097C107.624 133.685 112.021 134.163 115.344 133.381L114.971 133.456L121.858 132.649C125.023 132.788 119.961 133.222 122.298 133.7C129.716 132.41 134.021 133.889 140.126 132.998C142.493 134.113 146.691 134.048 151.093 133.879C155.495 133.695 160.097 133.396 163.302 134.083L162.929 133.555C164.57 133.018 164.928 133.839 166.145 133.944C165.966 133.535 164.351 133.486 165.368 133.187C179.331 132.355 194.219 133.476 208.561 133.575C213.806 133.56 211.449 130.737 218.091 131.812L216.25 132.853C226.783 131.364 237.867 132.186 248.169 130.767C247.561 131.021 247.556 131.315 246.549 131.349C248.762 131.987 254.632 131.061 254.642 130.468C256.258 130.463 255.041 130.981 256.043 131.235C258.257 131.563 261.498 130.079 262.7 130.742C262.904 130.851 262.097 131.001 261.698 131.075C263.109 130.672 268.355 130.866 266.949 130.099C270.85 130.304 274.352 129.372 277.471 129.711C279.439 128.695 284.138 129.811 284.705 128.471C284.501 129.836 291.567 129.193 293.985 128.431C293.188 128.884 296.143 128.735 295.212 129.353C298.009 129.168 300.56 128.77 300.028 128.108C305.284 129.427 310.305 126.205 313.342 128.083C321.609 126.848 329.258 125.832 336.702 125.005C336.534 126.37 328.455 125.697 328.875 127.087C335.925 126.061 339.928 124.612 346.974 124.423C348.809 124.472 345.987 125.08 345.389 125.354C352.404 124.288 359.127 124.502 365.421 123.013C365.421 123.138 364.746 123.367 364.112 123.531C365.359 123.352 367.062 123.372 366.837 122.784L365.635 123.103C364.577 122.784 365.769 122.172 367.226 121.574C368.683 120.972 370.406 120.339 370.477 120.095C369.562 121.111 371.137 121.016 372.568 120.927C373.995 120.852 375.304 120.857 373.816 122.241C374.624 121.997 375.6 121.504 375.335 121.136C376.577 121.007 377.017 121.166 375.871 121.868C376.981 121.559 377.702 121.315 378.223 121.091C378.745 120.857 379.062 120.668 379.374 120.494C379.68 120.319 379.982 120.155 380.452 119.976C380.687 119.886 380.969 119.796 381.316 119.697C381.659 119.587 382.073 119.463 382.569 119.328C382.636 119.617 381.859 119.951 381.531 120.399C382.477 119.841 383.418 119.284 384.543 118.781C385.1 118.507 385.708 118.243 386.388 117.994C387.068 117.75 387.825 117.526 388.669 117.267C388.531 117.506 389.001 117.585 388.009 117.944C388.72 117.67 389.389 117.386 390.039 117.097C390.361 116.953 390.683 116.809 390.99 116.654C391.297 116.49 391.598 116.326 391.895 116.161C392.483 115.823 393.066 115.494 393.643 115.165C394.211 114.822 394.758 114.443 395.315 114.09C397.565 112.675 399.728 111.112 402.616 109.478C402.197 110.569 402.724 110.35 403.491 109.882C404.273 109.439 405.209 108.707 405.735 109.01C406.185 108.562 406.594 108.084 407.018 107.621C407.427 107.143 407.821 106.65 408.215 106.167L406.768 106.864C407.923 105.734 408.767 104.444 409.503 103.184C409.861 102.547 410.209 101.924 410.557 101.307C410.879 100.674 411.267 100.102 411.63 99.4891C411.533 99.8924 411.426 100.291 411.288 100.674C411.155 101.063 411.027 101.456 410.879 101.845C411.901 100.067 412.719 98.1247 413.143 96.0481C412.918 96.6108 412.714 97.1736 412.428 97.6915L412.024 98.4733C411.886 98.7323 411.717 98.9713 411.569 99.2153C411.799 98.4235 411.748 97.9952 411.671 97.7711C411.584 97.547 411.436 97.5072 411.328 97.4475C411.083 97.318 411.114 97.1686 411.748 95.2215C411.727 95.6398 411.87 94.8879 412.095 93.8172C412.126 93.5434 412.162 93.2545 412.193 92.9558C412.223 92.657 412.295 92.3532 412.295 92.0494C412.31 91.7506 412.336 91.4518 412.371 91.173C412.387 91.0335 412.407 90.8992 412.433 90.7697C412.443 90.6452 412.453 90.5256 412.474 90.4111C412.474 90.4111 412.474 90.421 412.479 90.421C412.3 90.0476 412.126 89.6741 411.942 89.2857C411.717 88.9172 411.497 88.5438 411.288 88.1504C410.838 87.3785 410.337 86.527 409.743 85.5161C409.708 85.1576 410.025 85.0629 410.362 85.0131C410.694 84.9633 411.042 84.9583 411.011 84.7093C410.899 84.6545 410.781 84.5849 410.659 84.5002C410.531 84.4205 410.388 84.3309 410.245 84.2263C409.953 84.0221 409.646 83.7632 409.314 83.4794C408.956 83.2254 408.583 82.9416 408.194 82.6428C407.801 82.354 407.366 82.0999 406.942 81.8211C405.208 80.7704 403.271 80.143 402.187 80.2774C402.877 80.2824 403.133 79.7546 402.964 79.5604C402.453 79.6251 401.952 79.7495 401.461 79.8591C400.801 79.5155 400.413 79.3413 400.244 79.172C400.075 79.0076 400.116 78.8682 400.295 78.669C399.211 78.3453 398.736 78.3553 398.557 78.43C398.378 78.5146 398.49 78.7038 398.582 78.8681C398.669 79.0374 398.736 79.1869 398.475 79.1919C398.209 79.1919 397.621 79.0474 396.374 78.7038C396.783 78.7087 396.609 78.5643 397.468 78.5892C394.922 77.9867 392.406 77.8971 389.993 77.8871C387.605 77.9021 385.274 77.917 382.973 77.6332C381.654 76.458 387.028 77.5236 385.504 76.5127C378.816 76.4082 371.638 77.3693 365.196 76.951L366.397 77.1003C365.472 78.659 361.607 76.2439 358.324 76.946C359.127 76.8415 359.383 76.0795 359.168 76.2538C356.959 76.1044 354.694 76.1392 352.148 76.3384C349.602 76.5276 346.769 76.8116 343.421 77.0606L344.249 76.6522C341.641 76.2638 337.382 76.5077 334.565 76.3484C333.737 76.7667 332.126 76.7169 333.113 77.2996C324.381 75.1185 316.609 78.918 308.853 77.3095C309.773 77.2697 311.031 76.8663 310.3 76.8962C308.117 77.1103 305.939 77.2996 303.761 77.5535C304.313 78.2158 304.64 77.922 306.041 78.3951C305.233 78.8433 303.403 79.2615 301.782 79.3412C304.702 78.7287 301.7 78.2358 300.407 77.9171C300.632 78.1162 300.207 78.3751 300.33 78.5843C296.843 77.5385 299.834 80.0036 295.125 79.4209L295.35 79.0475C293.612 79.3114 292.037 79.9139 290.151 79.9289C289.317 79.1819 291.981 79.4359 292.063 78.7735C289.419 78.9927 286.95 80.626 284.501 79.9886C285.605 79.6948 287.221 79.5853 288.33 79.2915C285.661 78.5246 285.37 78.7835 283.422 78.7636L283.616 78.7735C282.113 78.7238 280.61 78.6989 279.107 78.679L280.267 78.8432C277.128 81.1837 273.559 79.7446 269.229 81.4725C273.437 79.8242 269.878 80.6658 270.129 79.7346C268.968 79.5802 267.214 79.4657 267.685 79.162C265.65 80.0832 264.111 78.913 261.248 80.2475C261.084 79.9687 258.993 80.4268 259.392 79.655C256.677 80.138 260.092 80.0981 259.898 80.4865C257.838 81.1638 255.337 81.1439 252.602 81.1688C249.872 81.2136 246.901 81.2783 243.957 82.324C238.808 83.5092 237.969 84.5799 233.209 85.6655C232.366 85.541 232.662 85.2372 233.173 84.9583C233.685 84.6794 234.406 84.4404 234.406 84.4404C231.722 84.3557 229.753 84.6994 227.324 85.3567C227.79 85.038 227.243 84.8937 226.445 84.6696C224.467 85.0082 225.264 85.8945 222.585 85.8198C222.989 85.4364 223.49 84.8488 224.405 84.4006C222.094 84.9634 219.865 85.8547 217.488 86.4622C216.767 86.0539 218.832 85.4862 219.64 85.0331C216.951 85.6555 212.656 86.5169 211.94 87.4332L213.73 87.4631C212.743 87.6474 213.111 86.8556 213.822 86.6016C216.056 85.6406 217.227 86.3876 217.401 86.6565L215.708 87.0946C217.738 88.5288 222.58 85.7949 226.077 85.4563L224.804 86.8805L228.219 85.3866C229.022 85.6057 229.636 86.2282 227.948 86.6365C230.52 86.9154 230.091 85.9044 232.32 86.3028C232.57 86.3775 232.473 86.4523 232.259 86.527L234.641 85.8447C234.201 86.1634 235.157 86.6564 233.644 86.6763C238.097 86.8506 240.567 84.9086 242.331 85.6456L241.973 85.7651C247.98 84.6297 242.443 84.779 246.871 83.1955L250.194 85.1077L250.69 84.1367C251.319 84.1018 252.566 84.042 252.377 84.4254C254.637 83.559 251.937 84.0719 253.226 83.3449C254.78 83.6038 256.846 83.2752 258.63 83.081C260.42 82.8967 261.923 82.8171 262.332 83.5093C263.349 82.7175 259.392 83.2453 262.567 82.4685C263.641 83.9375 266.269 81.8559 269.096 82.319C268.324 83.2004 265.676 83.0162 268.498 83.4794C270.037 81.9506 273.897 83.3399 276.198 82.8868C276.208 82.344 277.466 82.1298 279.204 81.9705C280.073 81.9008 281.06 81.8211 282.077 81.7365C283.095 81.6618 284.133 81.5672 285.104 81.4128C284.884 81.8062 292.502 81.4974 296.163 81.7065L296.066 81.8958C296.705 80.7654 300.473 80.7754 303.193 80.4069C303.122 81.0692 302.641 81.353 301.179 81.7215L303.745 81.5821C304.333 81.2036 305.126 80.9596 306.787 80.7704L306.179 81.6169C309.594 81.4377 313.025 80.382 317.448 80.7604C317.672 79.9886 313.863 78.7585 318.511 78.0863C318.7 78.4946 318.895 79.1968 317.678 79.401C318.076 79.3313 319.094 79.0176 319.902 79.172L318.061 79.9139C320.076 80.1679 319.094 79.3063 320.699 79.3312C320.684 79.9238 321.901 79.7196 321.686 80.1977C321.277 80.2674 320.28 79.9886 319.672 80.2376C321.482 80.2973 323.68 80.5911 324.411 81.0194C324.242 80.6858 324.391 80.2276 325.71 80.1131C329.13 79.9836 326.901 80.7904 328.9 81.0443C329.718 80.6011 331.912 81.0094 331.953 80.123C332.955 80.1131 333.149 80.5264 333.538 80.7555C335.301 80.3471 341.805 80.5413 339.801 79.63L339.346 79.5752C339.433 79.5553 339.53 79.5554 339.637 79.5355C339.622 79.5355 339.637 79.5355 339.622 79.5355H339.637C342.541 79.0425 345.563 79.2068 348.574 79.386C351.586 79.5703 354.592 79.8193 357.475 79.6899L357.465 79.9836C360.911 79.7047 365.124 79.8691 367.599 79.3164C368.616 79.3463 369.987 79.9189 369.542 80.2575C372.175 80.1081 372.482 79.7844 376.265 80.372C373.606 80.8152 377.16 80.8551 373.545 80.6758C376.95 81.0194 377.707 81.5074 381.398 80.86C380.12 81.5622 383.929 81.9157 385.56 81.7564L383.193 81.119C385.023 81.0841 386.613 81.2136 388.229 81.343L387.309 82.2992C388.173 82.4885 389.027 82.598 389.845 82.6677C390.642 82.7374 391.424 82.7673 392.181 82.7773C393.694 82.8022 395.152 82.7225 396.532 82.7623C397.918 82.7922 399.252 82.9018 400.449 83.2802C401.655 83.6338 402.713 84.2761 403.419 85.2272C403.828 85.2621 403.895 85.1575 403.762 84.9782C403.695 84.8886 403.588 84.7791 403.45 84.6596C403.306 84.5451 403.128 84.4354 402.954 84.3109C402.274 83.813 401.44 83.3898 402.315 83.2653C403.659 83.8778 404.738 84.9484 405.367 85.8946C405.975 86.8805 406.19 87.6822 406.41 87.9511C406.563 88.3146 406.763 88.5686 406.896 88.8276C407.029 89.0865 407.182 89.2907 407.341 89.47C407.612 89.8434 407.918 90.1223 408.24 90.426C408.373 90.5854 408.516 90.7497 408.654 90.9389C408.793 91.1282 408.946 91.3374 409.017 91.6013C409.099 91.8602 409.191 92.1541 409.227 92.5026C409.222 92.8562 409.227 93.2545 409.13 93.7077C409.355 93.4936 409.667 93.2745 409.999 93.4787C410.173 93.5832 410.306 93.8023 410.388 94.2007C410.429 94.3999 410.464 94.6439 410.48 94.9427C410.48 95.2365 410.434 95.5801 410.378 95.9835C410.28 96.347 410.117 96.6557 409.963 96.9246C409.81 97.1935 409.657 97.4226 409.503 97.6019C409.166 97.9604 408.859 98.1546 408.614 98.2044C408.123 98.309 407.872 97.8558 408.108 97.0241C408.297 96.4067 408.516 96.1528 408.624 96.2125C408.644 96.103 408.675 95.9933 408.69 95.8788C408.7 95.7643 408.711 95.6547 408.716 95.5452C408.731 95.3311 408.736 95.1418 408.716 95.0073C408.68 94.7384 408.547 94.7036 408.225 95.1418L408.491 95.5552C408.348 95.849 408.072 96.2673 407.857 96.7254C407.611 97.1786 407.315 97.6666 407.049 98.0799C406.752 98.4882 406.487 98.8268 406.292 98.9961C406.083 99.1604 405.95 99.1604 405.945 98.9015C405.52 99.8327 405.52 100.112 405.756 99.992C405.873 99.9323 406.052 99.773 406.262 99.5539C406.369 99.4443 406.487 99.3198 406.604 99.1854C406.712 99.0459 406.824 98.8916 406.942 98.7373C405.817 100.137 404.943 101.227 403.992 102.313C403.02 103.373 401.972 104.434 400.356 105.44C400.97 105.251 401.665 105.186 401.195 105.579C400.587 105.963 400.131 106.281 399.722 106.535C399.313 106.789 399.007 106.999 398.777 107.173C398.317 107.526 398.153 107.76 398.045 107.975C397.938 108.189 397.897 108.393 397.662 108.677C397.422 108.951 396.992 109.309 396.123 109.847C394.978 110.186 395.003 109.797 394.891 109.633C394.784 109.473 394.543 109.513 392.825 110.609C390.438 111.356 391.956 109.991 392.672 109.309C392.309 109.583 391.936 109.832 391.557 110.056C391.174 110.265 390.775 110.439 390.387 110.604C389.599 110.913 388.853 111.191 388.091 111.336C387.339 111.5 386.634 111.62 385.989 111.734C385.35 111.859 384.742 111.924 384.241 112.058C384.819 111.769 385.407 111.505 385.959 111.187C384.952 111.739 384.036 111.988 383.132 112.287L384.404 112.626C383.285 112.86 382.365 113.138 382.293 112.84C381.286 113.597 383.525 113.726 381.414 114.966C381.015 114.981 380.539 115.096 380.033 115.23C379.522 115.354 378.985 115.514 378.469 115.643C377.957 115.778 377.472 115.882 377.068 115.907C376.664 115.922 376.337 115.853 376.158 115.648C378.586 115.295 378.387 115.061 378.095 114.837C377.804 114.603 377.416 114.329 379.379 113.791C378.643 114.075 377.707 114.299 376.557 114.433C376.362 114.363 376.674 114.214 376.965 114.085C372.272 114.179 375.125 115.589 370.329 116.39C370.851 115.778 369.051 115.559 368.289 115.783C370.222 115.514 369.358 116.52 367.624 117.187C364.449 117.177 364.27 117.924 362.619 118.053C363.253 118.048 363.887 118.053 364.521 118.038C363.948 118.641 362.363 118.746 360.18 119.134C359.95 118.746 362.149 118.651 361.346 118.551C358.989 119.727 355.732 118.113 352.358 118.995C350.742 118.761 352.122 118.014 350.711 117.879C346.907 118.845 346.483 117.456 342.475 118.317C343.697 118.945 343.886 118.756 341.089 119.657L347.715 118.671L343.518 120.016C345.532 119.881 347.725 119.259 348.942 119.293C346.948 120.02 347.148 119.831 348.155 120.349C345.322 119.483 342.746 121.365 339.509 120.877L339.473 119.109C334.637 118.676 331.043 120.593 324.8 120.578L326.819 120.748C326.037 121.499 322.99 121.111 320.996 121.519C321.144 120.917 319.871 120.782 318.987 120.474C319.12 120.902 314.436 120.723 313.95 121.933L311.128 121.33C306.092 121.33 305.509 123.347 300.667 123.437C302.084 122.71 299.865 122.421 303.065 121.778C301.455 121.868 299.998 121.843 299.998 122.251C299.036 121.938 295.58 123.307 294.062 122.834C293.397 123.128 293.213 123.755 291.398 123.805C291.194 123.695 291.388 123.516 291.388 123.516C291.398 123.805 288.576 124.064 290.196 124.632C287.661 123.845 284.194 124.064 280.809 124.313C277.425 124.552 274.117 124.806 271.918 124.124C268.411 124.497 264.183 124.891 260.987 125.065C261.181 124.881 260.982 124.771 261.59 124.806C257.158 124.452 258.963 126.619 253.916 126.225C251.314 125.384 256.554 125.593 254.944 125.304C254.161 123.402 248.906 125.832 245.48 124.821L246.293 124.676C243.685 124.114 240.03 125.662 235.812 125.677C235.812 125.677 236.011 125.498 235.827 125.384C232.985 126.474 227.534 126.987 223.485 127.4C224.722 126.599 225.315 126.937 224.518 126.19C222.703 126.36 225.095 127.415 221.47 127.744C220.274 127.366 217.646 127.077 217.273 126.265L220.693 126.121C218.904 125.11 216.266 126.29 214.456 126.155L214.67 125.682C209.43 125.986 209.394 127.171 203.75 127.226L204.343 127.565C201.29 128.805 201.74 126.977 198.688 127.913L197.727 126.758C195.702 127.102 190.63 128.063 186.985 128.352C189.035 127.43 193.289 126.912 195.917 126.32C193.902 126.37 189.071 126.549 188.033 127.156C188.841 127.027 189.858 126.718 190.666 126.882C188.212 127.858 184.965 128.381 180.946 128.441C181.616 126.155 170.46 128.028 167.52 126.3C163.972 126.778 160.449 126.713 156.778 126.579C153.107 126.444 149.288 126.205 145.152 126.295C148.102 128.058 142.734 126.36 143.255 128.182C141.328 128.312 140.591 128.287 140.417 128.167L134.568 127.097C133.183 126.569 136.399 126.693 136.22 126.28C131.997 126.145 134.446 125.508 131.654 125.025C132.227 125.677 130.187 125.961 127.784 125.717L131.173 126.554C125.273 127.53 126.071 125.035 120.13 125.986L122.011 125.413C118.959 125.752 110.779 125.364 107.778 126.783C107.241 126.564 106.54 126.056 107.88 125.941C100.625 125.648 91.667 127.176 86.0736 125.986L86.6463 125.568C85.2914 125.628 84.2536 126.295 82.5868 125.757C82.684 125.578 83.1543 125.344 82.5356 125.279C81.8147 125.389 78.9055 125.842 77.1365 125.468L78.6961 125.065C76.9424 124.821 75.3983 124.681 73.9565 124.672C72.5147 124.657 71.1905 124.731 69.897 124.816C68.5983 124.911 67.3353 125.005 66.0264 125.105C64.7176 125.165 63.3576 125.184 61.88 125.095C62.0437 123.815 56.6191 122.7 53.94 122.082L54.0626 121.913C52.0584 121.549 50.1872 121.345 48.4028 121.126C46.6185 120.907 44.9056 120.782 43.2082 120.628C41.5107 120.474 39.8337 120.319 38.1056 120.16C36.3877 119.951 34.6186 119.722 32.7422 119.423C30.6511 118.163 26.8933 117.078 23.1405 115.529C21.2692 114.752 19.3877 113.866 17.7516 112.805C17.3477 112.536 16.9388 112.277 16.5655 111.993C16.3763 111.854 16.1922 111.714 16.0031 111.575C15.8292 111.425 15.6554 111.281 15.4815 111.137C14.7964 110.559 14.1828 109.932 13.7073 109.344C13.9629 109.747 13.7637 109.917 13.37 109.882C13.1757 109.862 12.9199 109.807 12.6745 109.693C12.4291 109.573 12.1735 109.414 11.9485 109.224C11.7236 108.911 11.4374 108.557 11.0897 108.238C10.7472 107.91 10.4149 107.561 10.1081 107.257C9.55595 106.61 9.22347 106.072 9.82678 105.878L10.0927 106.341C10.1438 106.142 10.1642 105.938 10.1488 105.719C10.1488 105.495 10.1233 105.266 10.0722 105.027C9.95459 104.558 9.81659 104.036 9.60185 103.508C9.22862 102.437 8.80419 101.247 8.63546 100.186C8.0884 100.156 7.53623 100.107 6.98405 100.047C7.35728 98.4235 7.63851 96.7901 8.16513 95.2016C8.70708 93.633 9.50983 92.0196 10.6346 90.5854C11.7748 89.1562 13.2013 87.9063 14.6073 87.0398C16.0235 86.1733 17.3733 85.6704 18.4726 85.7103C19.7866 84.6048 21.7704 83.7433 23.2428 82.7125L23.4932 83.5292C28.2021 81.8809 30.5796 81.0592 36.2395 78.5942L35.2986 79.6201C36.9296 79.0026 37.7171 78.0316 38.4738 77.0606C39.2305 76.0945 39.9718 75.1533 41.4699 74.5607L42.8502 75.3973C48.5611 73.261 54.7016 72.0958 59.9985 69.098C59.9678 69.3022 59.9269 69.7055 59.0168 70.079C61.7368 69.1677 69.7691 67.2405 68.2046 65.9458C68.6392 66.9467 74.2122 64.0934 77.1827 62.5945L76.9677 63.5406C79.2634 61.6732 79.2584 61.3695 82.8629 59.8905C83.773 59.7113 83.8393 60.2739 82.6123 60.4482C85.6646 59.9104 84.642 58.9742 88.3437 58.3119L87.1833 59.2182C90.2254 58.3667 89.8982 58.1675 91.3707 57.0769C93.1704 56.1855 97.1735 55.5482 97.8433 56.1358C98.1194 55.5831 99.5818 54.4625 101.448 54.1837C101.775 54.3878 101.172 54.7415 100.87 54.9158C106.116 54.0443 108.161 51.8781 111.893 51.6888C112.041 51.9328 112.308 52.0026 112.619 52.0026C108.575 53.1081 105.308 53.9696 105.594 53.8301C105.814 54.5671 109.112 53.7904 106.821 55.5283C109.27 54.2485 113.391 51.7736 116.679 51.2606C116.853 51.2905 117.026 51.3254 117.175 51.4101L116.868 51.5793C117.625 51.4648 118.269 51.2257 118.857 50.9419C119.91 50.8024 120.585 50.7278 121.567 50.4888C122.114 51.0067 125.417 49.8563 127.058 49.4679C126.705 48.6911 128.883 48.2728 126.7 48.1134C126.976 48.1035 126.419 48.2877 125.335 48.6014C125.094 48.6861 124.808 48.7757 124.66 48.8654C124.685 48.8355 124.716 48.8007 124.752 48.7658C123.683 49.0546 122.282 49.4331 120.698 49.8613C121.879 49.1193 123.136 48.4222 125.069 48.4123C125.769 47.6753 126.552 46.8984 127.007 46.515C128.28 46.7938 130.033 46.8137 131.567 46.8286C133.106 46.8685 134.425 46.9134 134.819 47.1923C137.268 46.3756 140.208 45.6087 142.882 44.7621C145.556 43.9155 147.964 42.9744 149.38 41.8888C150.771 41.3858 151.134 41.9784 151.727 42.1079C150.934 42.4365 149.943 42.6209 149.544 42.9396C152.325 41.9386 158.011 40.9825 158.466 39.7625C162.193 39.4836 156.645 41.1867 161.584 39.9567L160.986 40.4298C163.522 40.3202 165.756 39.9617 167.853 39.4139C169.949 38.8661 171.912 38.1541 173.916 37.4469C175.921 36.7498 177.956 36.0227 180.215 35.5447C182.475 35.0815 184.94 34.8027 187.777 34.9022C186.995 34.8923 186.606 34.8924 186.417 34.738C189.582 34.4591 192.757 33.986 195.942 33.4432C199.138 32.9602 202.344 32.3875 205.549 31.8348C211.945 30.6695 218.388 29.8628 224.676 29.8479C226.455 29.7881 227.416 29.5641 228.199 29.2703C228.981 28.9864 229.579 28.6129 230.627 28.2345L231.497 29.0511L235.065 27.6319C237.637 26.9796 239.963 27.2933 242.448 27.5075C243.067 27.5622 243.701 27.607 244.35 27.6319C245 27.6668 245.664 27.6816 246.354 27.6567C247.735 27.6069 249.207 27.4029 250.833 26.9049L249.923 26.3721C252.316 26.2874 257.439 25.3911 257.101 26.1181C257.337 25.9886 257.832 25.421 258.789 25.66L258.896 26.1231C260.823 25.6749 262.761 25.3213 264.694 24.9229C269.26 24.9826 264.116 26.8352 270.737 26.5215C273.181 26.1878 277.665 24.7188 276.729 24.4598C275.732 24.4996 274.173 24.3204 274.071 23.8523L276.315 23.4689C276.648 22.0546 278.319 20.5259 272.695 19.8984L268.866 20.984L267.572 20.3864L270.834 20.1424C268.943 19.6245 267.803 20.2569 266.514 20.72C266.177 20.3814 265.614 20.1623 264.837 20.0776L261.125 21.6364C260.624 21.1234 262.756 20.4561 260.174 20.3117C258.441 21.0686 261.974 21.3874 259.06 22.0348C257.158 21.5567 257.659 20.9989 255.527 21.716C255.189 21.3823 255.634 21.1185 256.483 20.8894C254.581 21.477 251.37 21.4969 250.439 22.3135C248.435 21.696 243.926 23.0555 243.987 21.7309C243.409 22.0945 240.684 23.1103 238.92 23.3444C241.998 21.4371 232.269 23.942 232.938 22.1742C231.819 23.0058 229.666 23.3842 227.279 23.7129C224.896 24.0913 222.268 24.42 220.203 25.0773C220.428 24.9379 220.862 24.649 221.246 24.6739C218.843 24.8582 218.091 24.5196 216.521 24.4449C216.373 25.6499 212.692 26.3671 210.795 27.3531C207.717 26.6609 212.37 25.7346 211.301 24.7984C211.577 25.6997 206.367 26.4766 207.472 27.109C205.14 26.7455 205.503 27.0543 204.205 26.2625C204.036 27.7664 202.164 26.8152 200.452 27.9755C197.113 27.7365 199.404 26.7405 195.927 27.7016C194.066 27.4676 197.139 26.4916 197.139 26.4916ZM114.337 46.4552C114.337 46.4452 114.332 46.4403 114.332 46.4403C115.038 46.2362 115.636 46.0619 116.019 45.9523C115.667 46.0569 115.181 46.1912 114.337 46.4552ZM107.46 48.3873C108.309 48.1832 109.352 47.8993 110.456 47.5856C110.779 47.7947 110.6 48.1582 109.905 48.3375C110.221 48.0437 108.555 48.3375 107.46 48.3873ZM123.581 50.1153C122.528 50.5087 122.119 50.4439 121.925 50.3144C122.436 50.17 123.029 49.9858 123.801 49.7318C123.826 49.692 123.878 49.6422 123.903 49.5974C123.837 49.7766 123.76 49.9559 123.581 50.1153Z" fill="#7EAF15"/>
<path d="M125.249 48.5488C125.402 48.4887 125.479 48.4335 125.683 48.3734C125.443 48.3583 125.213 48.3533 124.983 48.3583C124.875 48.4786 124.763 48.5989 124.666 48.7141C124.865 48.659 125.065 48.6039 125.249 48.5488Z" fill="#7EAF15"/>
<path d="M339.734 79.5876L339.883 79.6028C339.759 79.5724 339.641 79.537 339.564 79.4863C339.672 79.5269 339.672 79.5522 339.734 79.5876Z" fill="#7EAF15"/>
<path d="M13.5583 79.5853L13.6759 79.7647C13.8447 79.6053 14.0083 79.436 14.177 79.2866C13.9674 79.3812 13.7629 79.4907 13.5583 79.5853Z" fill="#7EAF15"/>
<path d="M300.36 77.8891C300.283 77.8189 300.13 77.7488 299.833 77.6987C299.859 77.7539 300.083 77.8189 300.36 77.8891Z" fill="#7EAF15"/>
<path d="M283.372 78.7264C282.564 78.681 281.756 78.6255 280.948 78.5952C282.001 78.676 282.763 78.7214 283.372 78.7264Z" fill="#7EAF15"/>
<path d="M270.298 79.3174C270.144 79.4784 270.109 79.594 270.073 79.6996C270.083 79.6996 270.088 79.6996 270.098 79.7047L270.298 79.3174Z" fill="#7EAF15"/>
<path d="M364.085 123.497C363.906 123.522 363.732 123.552 363.578 123.592C362.402 123.882 363.21 123.727 364.085 123.497Z" fill="#7EAF15"/>
<path d="M412.452 90.3915C412.626 90.7251 412.713 91.0686 412.82 91.4272C412.912 91.7807 413.05 92.1492 413.071 92.5277C413.101 91.3027 412.963 90.3267 412.452 90.3915Z" fill="#7EAF15"/>
<path d="M295.176 129.333C295.181 129.328 295.176 129.328 295.181 129.318C295.033 129.328 294.905 129.333 294.757 129.344L295.176 129.333Z" fill="#7EAF15"/>
<path d="M412.719 95.6701C412.939 95.1074 413.026 94.5446 413.108 94.0267C413.159 93.5039 413.113 93.0009 413.072 92.5278C413.021 93.0258 413.001 93.5737 412.914 94.1065C412.817 94.6343 412.776 95.1771 412.719 95.6701Z" fill="#7EAF15"/>
<path d="M213.935 85.5068L213.306 85.5619C213.327 85.617 213.296 85.6672 213.255 85.7072L213.935 85.5068Z" fill="#7EAF15"/>
<path d="M213.25 85.7061L212.575 85.9066C212.892 85.8615 213.168 85.8163 213.25 85.7061Z" fill="#7EAF15"/>
<path d="M211.148 86.3309L212.574 85.905C212.068 85.9802 211.444 86.0453 211.148 86.3309Z" fill="#7EAF15"/>
<path d="M231.142 83.5135L231.296 83.1814C231.199 83.2619 231.142 83.3676 231.142 83.5135Z" fill="#7EAF15"/>
<path d="M236.353 82.7678C235.096 82.8425 233.143 82.4939 231.43 82.9222L231.302 83.186C231.68 82.9071 232.662 82.962 233.695 83.0018C234.717 83.0516 235.791 83.0915 236.353 82.7678Z" fill="#7EAF15"/>
<path d="M258.574 84.0876L254.182 84.3017C254.98 84.5457 256.028 84.8745 254.054 85.1584C259.658 85.5418 252.837 84.5508 258.574 84.0876Z" fill="#7EAF15"/>
<path d="M272.174 83.3354C269.837 83.6691 272.246 83.8036 272.133 83.9928C273.6 83.5845 273.958 83.4799 272.174 83.3354Z" fill="#7EAF15"/>
<path d="M370.451 80.5317L370.195 81.2887C372.01 81.2289 370.216 80.9949 370.451 80.5317Z" fill="#7EAF15"/>
<path d="M389.437 77.2504L387.683 76.7075L386.809 77.3699L389.437 77.2504Z" fill="#7EAF15"/>
<path d="M399.378 84.0477L398.668 83.9829C399.113 84.0427 399.557 84.1074 399.982 84.202L400.631 84.3315C400.846 84.3763 401.045 84.4411 401.26 84.4909C400.662 84.3016 400.007 84.1921 399.378 84.0477Z" fill="#7EAF15"/>
<path d="M275.606 122.974L276.204 123.885C277.426 123.656 277.63 122.59 275.606 122.974Z" fill="#7EAF15"/>
<path d="M204.286 126.634C203.494 126.181 201.479 125.932 200.252 126.425C201.863 126.445 203.473 126.774 204.286 126.634Z" fill="#7EAF15"/>
<path d="M8.04285 97.1838C8.12465 97.5424 8.23204 97.896 8.31896 98.2346L8.22159 97.2585C8.22671 96.9348 8.22171 96.6111 8.2166 96.2825C8.16036 96.5813 8.1042 96.8801 8.04285 97.1838Z" fill="#7EAF15"/>
<path d="M227.408 0.159263C227.234 0.353472 226.902 0.841484 227.02 0.781727L227.643 0L227.408 0.159263Z" fill="#7EAF15"/>
<path d="M226.676 1.89699C227.024 1.54841 227.591 0.906133 228.087 0.134277C227.469 0.871275 227.683 0.537551 226.952 1.41896C226.829 1.47872 227.049 1.09529 227.274 0.806466C227.106 1.00067 227.32 0.572424 226.927 1.06044C226.543 1.7327 226.61 1.8174 227.075 1.35927C226.957 1.5485 226.789 1.7476 226.676 1.89699Z" fill="#7EAF15"/>
<path d="M231.068 6.58876L231.099 6.46875C231.068 6.52876 231.063 6.56376 231.068 6.58876Z" fill="#7EAF15"/>
<path d="M234.156 9.04834C234.121 9.05337 234.054 9.1339 234.008 9.20937C234.069 9.16912 234.121 9.12884 234.156 9.04834Z" fill="#7EAF15"/>
<path d="M234.182 10.3286C234.187 10.2936 234.182 10.2785 234.182 10.2485C234.152 10.3386 234.137 10.3886 234.182 10.3286Z" fill="#7EAF15"/>
<path d="M231.068 6.58813L230.986 6.91007C231.171 6.63839 231.073 6.67366 231.068 6.58813Z" fill="#7EAF15"/>
<path d="M228.785 0.41333C228.739 0.438485 228.672 0.50898 228.585 0.599539C228.626 0.574384 228.662 0.5542 228.687 0.539107C228.723 0.498858 228.749 0.45861 228.785 0.41333Z" fill="#7EAF15"/>
<path d="M229.151 6.3486L229.126 6.3335C229.054 6.42909 228.972 6.53972 228.879 6.66047L229.151 6.3486Z" fill="#7EAF15"/>
<path d="M227.943 5.75689C227.948 5.8017 228.434 5.10957 228.649 4.81079C228.439 5.08965 228.326 5.21409 228.265 5.25393C228.178 5.38838 228.071 5.54774 227.943 5.75689Z" fill="#7EAF15"/>
<path d="M227.035 3.37622L226.938 3.45118C226.969 3.42617 226.999 3.41122 227.035 3.37622Z" fill="#7EAF15"/>
<path d="M229.863 7.01172C229.796 7.11737 229.74 7.218 229.709 7.27334C229.765 7.18279 229.817 7.09725 229.863 7.01172Z" fill="#7EAF15"/>
<path d="M265.851 15.6514C265.836 15.7117 265.825 15.747 265.81 15.7973C265.841 15.7168 265.861 15.6564 265.851 15.6514Z" fill="#7EAF15"/>
<path d="M266.224 20.0532L266.193 20.093C266.153 20.2473 266.112 20.3968 266.071 20.5462L266.224 20.0532Z" fill="#7EAF15"/>
<path d="M234.732 11.8629C234.732 11.8522 234.732 11.8522 234.737 11.8469C234.656 11.9159 234.683 11.9106 234.732 11.8629Z" fill="#7EAF15"/>
<path d="M245.315 16.368C245.515 15.631 245.913 15.5712 246.082 14.7346C245.965 15.0434 245.371 15.86 245.315 16.368Z" fill="#7EAF15"/>
<path d="M228.747 0.52346C228.769 0.52346 228.79 0.528949 228.796 0.550796C228.79 0.507101 228.774 0.501612 228.747 0.52346Z" fill="#7EAF15"/>
<path d="M246.084 14.7357L246.09 14.7307L246.105 14.6501C246.095 14.6854 246.095 14.7055 246.084 14.7357Z" fill="#7EAF15"/>
<path d="M237.522 12.7815C237.588 12.6457 237.635 12.5401 237.676 12.4395C237.635 12.5149 237.588 12.6105 237.522 12.7815Z" fill="#7EAF15"/>
<path d="M236.22 10.7312L236.21 10.8562C236.23 10.7762 236.23 10.7462 236.22 10.7312Z" fill="#7EAF15"/>
<path d="M239.07 12.2402C239.065 12.3102 239.019 12.4204 239.105 12.3353C239.12 12.3003 239.131 12.2702 239.141 12.2402C239.08 12.3353 239.034 12.3753 239.07 12.2402Z" fill="#7EAF15"/>
<path d="M240.097 12.7498C240.118 12.6944 240.138 12.6442 240.159 12.5889C240.143 12.5989 240.123 12.6039 240.107 12.6139L240.097 12.7498Z" fill="#7EAF15"/>
<path d="M262.543 15.1533C262.497 15.3874 262.436 15.6413 262.369 15.8903C262.528 15.3127 262.743 15.1533 262.543 15.1533Z" fill="#7EAF15"/>
<path d="M228.508 0.804719C228.636 0.633662 228.708 0.548105 228.749 0.522949C228.734 0.522949 228.713 0.533026 228.692 0.538057C228.615 0.64371 228.544 0.739315 228.508 0.804719Z" fill="#7EAF15"/>
<path d="M242.256 6.38403L242.349 6.57528C242.349 6.47969 242.313 6.41422 242.256 6.38403Z" fill="#7EAF15"/>
<path d="M255.047 12.8187L255.119 12.7381C255.114 12.7129 255.088 12.7332 255.047 12.8187Z" fill="#7EAF15"/>
<path d="M242.869 6.69263C242.757 6.97149 242.705 7.13576 242.685 7.25029C242.721 7.19551 242.757 7.15076 242.803 7.06611L242.869 6.69263Z" fill="#7EAF15"/>
<path d="M264.041 14.2969C263.893 14.2272 263.657 15.3127 263.443 15.9103C263.161 16.1593 263.586 15.1036 263.683 14.5459C263.484 14.7949 263.095 15.741 263.023 15.6713C263.069 15.497 263.069 15.4272 263.156 15.2131C262.773 16.0198 262.773 15.1484 262.303 16.1643C262.318 16.0697 262.343 15.975 262.364 15.8954C262.226 16.4332 262.062 16.9709 261.94 17.3544C261.863 17.3494 261.597 17.9819 261.786 17.2847C261.827 17.3196 261.914 17.0406 262.001 16.8315L261.832 17.1104C262.072 16.0995 262.042 16.7967 262.267 16.0597C262.021 16.3386 261.592 17.1104 261.566 16.8017C261.847 15.8257 261.934 16.5527 262.052 15.6464L262.113 16.0647C262.456 14.4961 262.185 16.1991 262.573 14.5259C262.435 14.1774 262.164 14.9492 262.026 14.6006C261.807 15.1235 261.791 15.4024 261.571 15.9253C260.942 16.7917 262.093 13.4105 261.443 14.6255C261.178 15.253 260.758 16.468 260.799 15.7709L261.208 14.6953C261.024 14.521 260.574 16.229 260.585 15.4223C260.764 15.004 260.876 15.1135 260.886 14.9741C261.019 14.0628 260.579 15.5617 260.462 15.5269L260.753 14.5509C260.472 14.6305 259.981 15.2479 259.664 15.3475C259.777 15.0637 259.92 14.7749 259.956 14.4611C259.465 14.8446 259.296 14.1276 259.189 13.4504L258.785 14.2421C258.759 14.2221 258.862 13.8487 258.948 13.6993C258.938 13.3458 258.759 14.2222 258.591 14.5309C258.499 14.5658 258.667 14.023 258.795 13.7889C258.34 14.4214 257.65 15.0986 257.737 14.1375L257.87 13.9085C257.814 13.5151 257.062 15.5417 257.174 14.7101L257.256 14.5758C257 14.0878 256.295 14.7052 256.469 13.3507C255.973 14.5209 256.29 12.6885 255.651 14.3318C255.738 13.4354 255.911 13.1615 255.819 12.4992C255.768 12.3946 255.308 13.4851 255.14 13.6246L255.467 12.7631L254.986 13.6196L255.308 12.564L255.129 12.7531C255.15 12.8179 255.063 13.1715 254.961 13.4155C254.664 13.7541 254.833 12.6834 255.002 12.2452L254.367 12.8477C254.511 12.5041 254.618 12.4046 254.746 12.2005C254.219 13.0121 255.068 11.2841 254.582 12.0261C254.526 12.2303 254.367 12.5341 254.296 12.7084C254.413 12.1556 254.229 12.0759 253.999 12.2402L254.26 11.6576C254.066 11.4086 253.611 11.7323 253.33 11.6128C253.319 11.9265 252.885 12.9424 252.757 13.0071L253.089 12.0909C252.808 12.6287 253.038 12.4643 252.65 13.1067C252.583 12.9623 252.997 12.051 253.176 11.7771L252.916 12.0411C253.018 11.7672 253.105 11.6377 253.253 11.2941C252.972 11.8369 253.401 10.2981 252.926 11.2443L253.028 10.9705C252.747 10.851 252.486 11.1149 252.235 11.07C251.903 11.8469 251.888 11.6377 251.55 12.2402C251.484 11.9215 251.55 11.2344 251.32 11.2145C251.013 11.5431 250.998 11.8518 250.737 12.2901C251.029 11.578 250.794 11.5581 251.121 11.095C250.824 11.1099 250.748 11.1049 250.185 11.5531C250.093 11.8568 250.078 11.9962 249.955 12.2302C249.848 12.3199 249.955 11.8817 250.108 11.5481L250.155 11.4833C249.337 12.3896 250.252 9.10307 249.326 10.4526L249.372 10.3878L248.743 11.0252C248.667 10.8459 249.06 10.5322 249.158 10.0592C248.319 11.0949 248.748 9.67575 248.14 10.343C248.897 8.19677 247.373 10.1836 247.721 8.75441L247.506 9.24241C247.215 9.6856 247.552 8.92874 247.557 8.79927C247.389 9.17773 247.424 9.26733 247.261 9.51133C246.402 9.83999 246.407 8.25649 246.039 7.55933C245.89 7.33026 244.694 9.9795 244.985 8.70967L245.502 7.85816C244.536 8.72463 244.638 7.40997 243.758 8.09717C243.886 7.90794 244.024 7.63898 244.065 7.66388C244.306 6.97668 243.753 7.46963 243.482 7.9925C243.447 7.90286 243.712 7.51455 243.81 7.22572C243.917 6.80245 243.165 7.93277 243.447 7.27545C243.493 7.16589 243.579 7.08125 243.62 7.03643C243.401 7.3153 243.39 6.82734 243.063 7.58923C243.089 7.16098 242.588 7.76844 242.69 7.27046C242.174 8.05228 242.628 6.74261 241.984 7.89293C242.634 6.6978 242.219 6.79244 241.821 7.30037C242.046 6.95677 241.938 6.88205 242.245 6.39901C242.122 6.35918 241.903 6.52849 241.591 7.15096C242.158 5.61222 240.548 8.0822 241.427 6.18991C240.742 6.658 240.19 6.92689 239.735 7.0464C240.404 5.86621 240.134 7.10123 240.814 5.85132C240.261 6.19492 239.525 7.12111 239.397 6.68788C239.413 6.48869 239.73 6.19483 239.868 6.0056C239.305 6.34422 239.382 5.60234 238.763 6.10529C238.825 5.99574 238.922 5.89112 238.998 5.81643C238.927 5.82639 238.983 5.57733 238.681 6.12012L238.814 6.00061C238.451 6.82227 237.685 7.51449 237.439 7.91785C238.405 6.4339 237.408 7.39496 238.656 5.53255C238.564 5.6172 238.38 5.84632 238.18 6.20486C238.191 6.07539 238.298 5.8563 238.579 5.47784C238.232 5.67205 237.971 6.27454 237.812 6.16997C237.961 5.91102 238.053 5.83134 238.247 5.53753C237.874 5.99567 237.495 6.4538 237.485 6.16C237.582 6.01061 237.685 5.79652 237.725 5.8264C237.444 5.7766 236.539 6.94184 236.565 6.3144C237.301 5.23878 236.692 5.89608 237.255 4.92504L236.948 5.13415L236.723 5.63212C236.616 5.54746 236.089 6.18492 236.171 5.81144L236.498 5.46787L236.166 5.52258L236.074 5.96086C235.655 6.38413 235.358 7.18586 235.353 6.82732C235.445 6.74765 235.24 6.7426 235.517 6.14006C235.271 6.41394 235.016 6.69781 235.067 6.40898C235.23 6.09028 235.731 5.35824 235.839 5.14412C235.292 5.91099 235.424 5.20387 234.826 6.01557C234.975 5.83132 235.281 5.32844 235.338 5.21889L234.888 5.84135C234.959 5.60232 235.011 5.49277 235.266 5.09938C235.169 4.88525 234.576 6.34429 234.693 5.70689C234.739 5.66207 234.796 5.5625 234.888 5.48282C234.857 5.09441 234.244 5.67206 234.259 5.24381C234.801 4.25285 234.566 5.09929 235.005 4.25771C234.632 4.28261 233.742 5.0894 233.63 4.70596L233.61 4.84042C232.72 6.17001 233.84 4.05863 233.313 4.61636C233.41 4.53668 233.829 3.89422 233.727 4.03864C233.691 3.71495 233.165 4.15317 232.628 4.4171L232.884 4.09347C232.981 3.72497 232.73 3.7498 232.72 3.52571C232.464 3.84939 232.439 3.75478 232.152 4.27765C233.088 2.11148 230.808 4.93007 231.585 3.11248C231.621 3.1324 231.866 2.86846 231.841 2.84854L231.38 3.00294C231.012 3.59552 231.181 3.3764 230.936 3.85943C230.675 4.18312 230.424 4.40223 230.363 4.36239C230.736 4.05365 230.982 3.43114 231.15 3.07759C231.038 3.26183 230.895 3.44602 230.777 3.63027C231.334 2.51481 229.974 4.78067 230.255 3.96897L230.47 3.67014C230.297 3.7797 229.964 4.14318 229.949 4.00873C230.368 3.32153 230.23 3.74486 230.608 3.19709C230.48 3.17219 229.55 4.3325 229.908 3.60546C230.077 3.44611 230.143 3.48592 230.312 3.32657C230.741 2.48002 230.593 2.66929 230.603 2.495L230.598 2.51481L230.665 2.05174L230.562 2.29075C229.253 3.94402 230.087 2.44019 229.136 3.46103C230.041 2.49497 229.591 2.85851 230.117 2.11155C230.215 1.87252 230.312 1.59855 230.475 1.39936C229.974 1.95211 230.67 0.836657 229.944 1.64835C230.107 1.40434 229.872 1.56875 230.312 0.976161C230.077 1.10065 230.046 1.41436 229.826 1.70816C229.09 2.43022 230.143 0.458228 229.126 1.42927C228.599 1.75793 227.991 2.54475 227.52 2.81863C227.73 2.39038 228.19 1.97709 228.19 1.97709C228.338 1.55381 228.215 1.56868 227.924 1.77783C228.093 1.58362 228.2 1.38948 228.359 1.10065C228.236 1.11061 227.689 1.93717 227.837 1.51887C228.047 1.26491 228.369 0.851674 228.599 0.607668C228.354 0.767018 227.945 1.15539 227.699 1.30478C227.97 0.871544 228.21 0.712217 228.435 0.458252C228.195 0.577765 227.893 0.652422 227.387 1.28982L227.285 1.56872C227.224 1.5737 227.674 0.991135 227.786 0.886561C228.246 0.428427 227.75 1.20022 227.587 1.44423L227.408 1.55376C226.472 3.00286 227.837 1.50895 227.914 1.68324L227.132 2.66921L227.873 1.91229C227.715 2.19613 227.331 2.78372 227.152 2.88829C226.891 3.46096 227.495 2.58459 227.183 3.20208C227.132 3.29669 227.091 3.34156 227.055 3.37642L227.367 3.13728C227.198 3.34145 226.871 3.86934 226.917 3.6851C226.672 4.39221 227.735 3.10246 227.254 3.92411L227.193 3.97894C227.674 3.79469 227.745 3.24194 228.543 2.47506L227.362 4.4171L227.909 3.68011C227.914 3.72493 227.924 3.81462 227.704 4.10842C228.154 3.65527 227.919 3.76976 228.307 3.3166C227.944 4.08846 228.86 3.20704 228.052 4.43205C228.492 3.88428 228.241 3.9142 228.645 3.59549C227.786 4.91512 228.947 3.46594 228.645 4.13322C228.149 4.78058 228.292 4.36231 227.991 5.02959C228.834 3.93904 228.037 5.41799 228.277 5.25864C228.896 4.35731 228.737 5.0097 229.095 4.81052C228.88 5.1093 229.049 5.49771 228.977 5.92098L228.87 6.0704C229.514 5.16907 229.545 5.43797 229.785 5.31846C229.412 5.86622 229.248 6.07036 229.023 6.27951L229.131 6.33932C229.351 6.06046 229.489 5.92602 229.622 5.86129L229.141 6.53348C229.305 6.58327 229.954 5.90111 229.826 6.4688C230.261 5.8314 230.869 4.59137 231.334 4.27267C231.115 4.62623 230.726 5.22386 230.583 5.33839C230.629 5.30354 230.828 5.08435 230.767 5.25366L230.307 5.79649C230.22 6.10523 230.67 5.33338 230.7 5.42799C230.373 5.92597 230.516 5.81146 230.245 6.19987C230.199 6.23971 230.322 5.96079 230.169 6.14006C230.184 6.27451 230.077 6.6231 229.862 7.01649C230.041 6.72767 230.302 6.34428 230.394 6.3144C230.557 6.36419 230.051 6.94178 229.964 7.24554C230.225 6.92186 230.082 7.33526 230.568 6.58831C230.603 6.61818 230.389 6.96674 230.271 7.18086C230.557 6.89702 230.67 7.29043 231.099 6.44886L231.115 6.38406C231.13 6.36912 231.135 6.3742 231.145 6.35926C231.856 5.75671 231.36 7.08124 231.8 6.90197L231.641 7.15096C231.963 6.94679 232.06 7.17091 232.5 6.68788C232.541 6.71277 232.306 7.2057 232.101 7.49453C232.326 7.37003 232.515 7.09626 232.408 7.60419C232.024 7.98265 232.204 8.01739 232.096 7.86302C232.101 8.1618 231.881 8.5852 232.459 7.98265C232.004 8.60013 232.06 8.85905 232.244 8.70468L232.434 8.18677C232.567 8.13698 232.597 8.23161 232.628 8.32622L232.065 9.15779C231.718 10.3629 233.671 7.69379 232.827 9.56118C233.267 9.00843 232.924 9.04822 233.42 8.3909C233.482 8.58013 232.873 9.88983 232.914 9.9197C232.812 10.5023 233.84 8.76942 233.834 9.20265C233.993 8.88395 234.463 8.05236 234.775 7.84819C234.837 8.03742 234.167 9.22752 233.937 9.42173C233.891 9.42671 233.932 9.32218 233.998 9.21761C233.891 9.30226 233.753 9.40178 233.605 9.7653L233.804 9.47158C233.681 9.82016 233.886 9.89476 233.543 10.3728C233.819 10.1388 233.886 9.89483 233.906 9.69564C233.814 10.2384 234.162 9.8649 234.167 10.2633C234.239 10.079 234.428 9.70563 234.453 9.72056C234.489 10.2434 234.913 9.20262 235.169 9.16278C234.995 9.68565 234.474 10.2634 234.883 9.96955C234.806 10.348 234.428 10.8011 234.233 11.0252C234.745 10.5222 234.31 11.5829 234.341 11.7472L234.111 11.9465C234.249 11.827 234.29 11.8568 234.33 11.8817L234.642 11.2393C234.632 11.3737 234.673 11.3987 234.52 11.6576C234.806 11.2841 235.077 10.6118 235.501 10.1139C235.384 10.4624 235.9 9.88988 235.45 10.7215C235.399 10.3281 234.995 11.5581 234.739 11.5929C234.831 11.5133 234.872 11.5431 234.857 11.6776C234.811 11.7722 234.75 11.8418 234.709 11.8817C234.489 12.7282 235.338 11.0053 235.537 11.1397C235.246 11.5879 235.082 12.0461 235.174 11.9664C235.092 11.9116 235.578 11.1745 235.859 10.8608C235.788 11.2941 236.161 10.6716 236.207 10.7513L236.222 10.5372C236.514 10.089 236.544 10.1837 236.723 10.0891C236.524 10.4526 236.498 10.2932 236.442 10.4675C237.01 9.7106 236.197 11.4386 236.652 10.9705C236.539 11.324 236.166 11.8469 236.104 12.0909C236.606 11.578 235.926 12.8229 236.381 12.4145C236.682 11.7622 236.585 11.9115 237.05 11.3638L236.519 11.6576L237.209 10.841C237.127 10.7862 236.81 11.1397 236.815 11.0052C237.188 10.5421 237.091 10.6915 237.342 10.1488C236.933 11.1497 237.879 9.72053 237.659 10.4276L236.79 11.9763C236.611 12.773 237.598 11.3688 237.644 11.8966L237.705 11.583C238.083 10.9854 237.915 11.5829 238.14 11.3737C237.848 11.8916 237.797 12.1058 237.654 12.4494C237.858 12.061 237.828 12.5839 238.421 11.558L238.165 12.305C238.226 12.6984 239.213 10.9455 239.32 11.2293C238.952 11.7671 238.845 12.1855 238.492 12.5191C238.559 12.5589 238.569 12.6885 238.763 12.3249C238.625 12.6735 239.331 11.7173 239.126 12.2502C239.28 12.036 239.581 11.4933 239.633 11.578C239.586 11.6875 239.494 11.8369 239.494 11.8369C239.632 11.578 239.801 11.5481 240.041 10.9356C239.382 12.6735 240.691 11.1048 240.139 12.6037C240.384 12.5041 240.65 12.4196 240.808 12.4494C240.716 12.6038 240.67 12.7133 240.676 12.6436C240.609 13.2262 241.575 11.1896 241.504 11.8419C241.171 12.7482 241.151 12.2452 241.054 12.6037C240.19 14.3516 241.432 12.4943 241.059 13.5798L240.972 13.6645C240.783 14.3118 241.58 13.1415 241.698 13.3507C241.698 13.3507 241.611 13.5001 241.565 13.6146C242.138 12.788 242.521 12.6038 242.818 12.4395C242.424 13.0968 242.557 12.7631 242.245 13.4752C242.373 13.4154 242.782 12.3498 243.032 12.2302C242.894 12.6286 242.848 13.0071 242.49 13.7541L242.322 13.7242C241.918 14.7201 242.531 13.7789 242.526 13.9831L242.306 14.3965C242.603 14.3666 243.13 13.3109 243.334 13.5001L243.467 13.1715C244.111 12.1855 243.288 13.8138 243.804 13.0967L243.324 14.1824C243.539 13.9682 244.132 13.296 244.387 13.1665C243.917 13.9184 243.539 14.2371 243.191 14.6504C243.273 14.7002 243.528 14.7102 243.825 14.2023C243.738 14.287 243.569 14.5309 243.615 14.3516C244.127 13.5648 244.464 13.2163 244.628 13.3109C243.605 15.3675 244.827 14.0428 244.193 15.7061C244.868 15.0736 244.658 16.3086 245.088 16.3435C245.706 14.6653 245.216 16.3436 245.962 14.6704C246.095 14.6007 246.115 14.6405 246.074 14.755L245.875 15.8655C245.717 16.3784 245.625 16.1991 245.461 16.5775C245.589 16.7867 245.216 17.3196 245.139 17.8176C245.384 17.2101 245.594 16.9909 245.599 17.2648L245.799 16.4282C246.463 15.6514 245.389 17.9321 246.049 17.1652L245.727 17.6532C246.003 17.4042 246.228 17.8822 246.959 16.5875C246.898 16.7917 246.724 17.2647 246.611 17.3594C246.852 17.698 247.966 16.224 247.854 17.1552L247.649 17.5586C247.762 17.464 248.089 16.8266 247.987 17.2747C247.91 17.4441 247.782 17.6731 247.803 17.7129C247.895 17.5834 248.273 17.0556 248.253 17.3295L247.987 17.7628C248.074 18.435 248.958 16.8316 249.342 16.6573C248.825 17.8723 248.907 18.3752 248.953 18.6192L248.876 18.7886C249.188 19.0824 249.935 18.0267 250.471 17.6781C250.144 19.0874 250.973 18.5147 251.019 19.3911C251.054 19.1471 251.407 18.4399 251.52 18.3404C251.504 18.6192 252.077 17.5735 251.622 18.6939L251.601 18.6591C251.228 19.7845 251.509 19.5604 251.627 19.6351L252.225 18.1711C251.734 20.4419 253.421 17.7029 252.869 19.6948C253.094 19.3562 253.192 19.3961 253.417 19.0575L253.11 19.8492C253.263 20.1331 253.34 20.2774 253.698 20.1878L253.427 20.7356C253.57 20.8452 254.48 18.5147 254.644 18.5197L254.25 19.7247C254.531 19.8094 254.439 20.9447 255.109 19.9588C255.042 20.133 254.909 20.4717 254.848 20.5066C254.971 20.5813 255.073 21.4875 255.61 19.8343C255.232 20.8999 255.866 20.0335 256.177 19.6152L255.876 20.397C256.356 19.436 256.459 19.1571 256.735 18.938C256.74 19.0525 256.551 19.5803 256.566 19.3612C256.561 19.8194 256.934 18.6491 256.96 19.1272L256.719 19.6102C256.842 19.7198 256.924 19.4459 257.205 18.8832C257.404 18.5944 257.41 19.172 257.185 19.8941C257.353 19.4658 257.629 18.9081 257.645 19.1421C257.563 19.416 257.476 19.5754 257.435 19.6501C257.491 20.2676 258.105 18.8434 258.008 19.675C257.921 19.9389 257.89 20.0734 257.88 20.158C257.691 20.0783 257.553 19.9887 257.588 19.934C257.343 20.661 257.456 20.8401 256.99 21.8062C257.302 21.2983 257.921 20.168 257.957 20.5564C257.941 20.6311 257.926 20.7007 257.89 20.8153L257.849 20.89C257.86 20.9747 257.916 20.915 257.987 20.8004C257.998 20.9349 257.998 21.0344 258.039 21.0593C257.854 21.6668 258.11 21.4428 258.182 21.4925C258.437 20.6908 258.498 20.8502 258.621 20.163C258.616 20.2228 258.575 20.2526 258.514 20.2725C258.493 20.2925 258.478 20.3024 258.453 20.3472C258.463 20.3273 258.473 20.3024 258.483 20.2775C258.427 20.2825 258.35 20.2825 258.274 20.2725C258.468 19.8841 258.647 19.5654 258.585 20.0335C258.795 19.5405 259.01 19.0276 259.117 18.7786C258.856 19.9289 258.862 20.5963 258.667 21.2934C259.051 20.9199 259.327 21.1738 259.956 19.7098C260.084 19.5355 259.894 20.168 259.843 20.412C259.756 20.5514 259.715 20.5115 259.629 20.7257C259.884 20.3821 260.078 20.7008 260.441 19.6551C260.462 20.1829 260.043 20.5962 260.329 20.4966L260.196 20.8103C260.14 22.6279 261.776 18.3305 261.622 20.641C261.628 20.4966 261.628 20.4319 261.674 20.2526C261.975 21.373 263.131 19.6999 263.269 21.373C263.346 21.7216 263.555 21.0493 263.806 20.5613L263.596 21.4427L264.051 20.4817C264.496 19.8094 263.877 22.7276 264.573 21.4179L264.695 20.8202C264.777 20.9597 265.14 20.5663 264.936 21.2336C264.976 21.129 265.14 20.631 265.099 20.9497L264.982 21.4079L265.462 20.6957C265.585 21.0792 264.946 22.4985 265.227 22.6728C265.391 22.5284 265.907 21.4278 265.943 21.1091C265.902 21.0742 265.902 20.7954 266.02 20.3322L266.183 20.1231C266.556 18.7786 266.996 17.4192 266.996 16.4133L266.607 17.1901L266.725 16.5228L266.879 16.5178C266.96 15.8804 266.766 16.4133 266.607 16.7718C266.684 16.4232 266.725 16.1742 266.73 16.0348L266.219 17.2747C266.342 16.7419 266.577 16.249 266.541 15.9303C266.301 16.5079 266.301 17.1303 266.06 17.4888C266.142 16.8564 266.301 16.3634 266.065 16.8614C266.147 16.5128 266.224 16.2937 266.306 16.1543C266.106 16.5477 266.035 16.2688 265.795 16.9759C265.917 16.1991 265.452 17.0955 265.81 15.8257C265.697 16.1245 265.38 16.7868 265.288 16.8167C265.856 15.3327 265.017 16.6523 265.513 15.0289C265.022 16.3684 264.961 15.5368 264.557 16.2439C264.598 16.1393 264.685 15.9252 264.68 15.9999C264.608 15.8605 264.695 15.4422 264.7 15.1634C264.363 16.2888 264.123 16.4979 263.831 17.1652C264.021 16.0398 264.297 15.8655 264.557 14.8098C264.297 15.7261 264.066 15.6564 263.888 16.4282C263.985 15.7261 263.898 16.0796 264.123 15.1285C263.693 16.5327 263.959 15.3426 263.622 16.1842C263.683 15.4522 263.974 14.8546 263.693 15.238C263.755 14.7599 264.041 14.2969 264.041 14.2969ZM259.572 15.6115C259.572 15.6015 259.577 15.5965 259.577 15.5965C259.618 15.5866 259.649 15.5817 259.669 15.5767C259.649 15.5817 259.623 15.5916 259.572 15.6115ZM259.255 15.5269C259.281 15.5717 259.327 15.5916 259.383 15.6015C259.301 15.8804 259.194 16.1593 259.168 16.1344C259.245 15.9551 259.22 15.7759 259.255 15.5269ZM258.084 21.2735C257.992 21.3681 258.028 21.2088 258.074 21.0444C258.105 21.0394 258.141 21.0195 258.197 20.9746C258.207 20.9448 258.222 20.9099 258.238 20.8801C258.181 21.0294 258.13 21.1689 258.084 21.2735Z" fill="#7EAF15"/>
<path d="M258.525 20.2554C258.54 20.2403 258.556 20.205 258.566 20.205C258.576 20.1346 258.587 20.0743 258.597 20.0139C258.561 20.0994 258.53 20.1799 258.494 20.2604C258.504 20.2554 258.515 20.2604 258.525 20.2554Z" fill="#7EAF15"/>
<path d="M231.099 6.44911L231.094 6.46913C231.104 6.43913 231.119 6.40914 231.144 6.35913C231.129 6.39914 231.119 6.41911 231.099 6.44911Z" fill="#7EAF15"/>
<path d="M255.534 12.5486L255.463 12.7548L255.555 12.5838L255.534 12.5486Z" fill="#7EAF15"/>
<path d="M231.141 3.05456C231.182 2.98915 231.218 2.9238 231.243 2.8584C231.212 2.90368 231.176 2.97406 231.141 3.05456Z" fill="#7EAF15"/>
<path d="M230.587 2.47312L230.664 2.16113C230.607 2.33219 230.592 2.41778 230.587 2.47312Z" fill="#7EAF15"/>
<path d="M230.318 1.80249C230.226 1.92827 230.164 2.01384 230.103 2.09937V2.1044L230.318 1.80249Z" fill="#7EAF15"/>
<path d="M238.986 5.7963C238.996 5.7963 239.007 5.79127 239.027 5.77627C239.154 5.66125 239.088 5.69628 238.986 5.7963Z" fill="#7EAF15"/>
<path d="M235.517 6.12353C235.625 6.00781 235.727 5.89218 235.804 5.82677C235.789 5.74627 235.763 5.71098 235.517 6.12353Z" fill="#7EAF15"/>
<path d="M242.245 6.36401L242.24 6.37899C242.245 6.37899 242.25 6.38403 242.255 6.38906L242.245 6.36401Z" fill="#7EAF15"/>
<path d="M235.905 5.90744C235.946 5.73638 235.895 5.74649 235.797 5.82699C235.808 5.89742 235.802 5.998 235.905 5.90744Z" fill="#7EAF15"/>
<path d="M228.387 0.0556715L228.382 0.0107422C228.347 0.0557496 228.322 0.0907407 228.301 0.120746L228.387 0.0556715Z" fill="#7EAF15"/>
<path d="M228.303 0.119873L228.216 0.184817C228.231 0.189818 228.241 0.189876 228.303 0.119873Z" fill="#7EAF15"/>
<path d="M228.037 0.320122L228.216 0.184273C228.201 0.16918 228.191 0.128941 228.037 0.320122Z" fill="#7EAF15"/>
<path d="M228.813 0.813901L228.998 0.567383C228.957 0.617694 228.901 0.698186 228.813 0.813901Z" fill="#7EAF15"/>
<path d="M229.064 0.87656C229.059 0.786925 229.324 0.259071 229.145 0.373605L228.997 0.56776C229.294 0.2142 228.721 1.26996 229.064 0.87656Z" fill="#7EAF15"/>
<path d="M227.738 4.5562L227.702 4.23755C227.544 4.52637 227.334 4.91473 227.212 4.92469C226.874 5.87582 227.585 4.29725 227.738 4.5562Z" fill="#7EAF15"/>
<path d="M228.01 5.2981C227.831 5.36283 227.744 5.69154 227.631 5.84093C227.862 5.63178 227.918 5.57696 228.01 5.2981Z" fill="#7EAF15"/>
<path d="M231.984 7.77295L231.564 8.42034C231.697 8.37054 231.723 8.16635 231.984 7.77295Z" fill="#7EAF15"/>
<path d="M234.846 4.84522L235.031 4.39697L234.621 4.9747L234.846 4.84522Z" fill="#7EAF15"/>
<path d="M232.428 9.77583L232.336 9.85137L232.608 9.6853L232.428 9.77583Z" fill="#7EAF15"/>
<path d="M239.57 13.3156L239.989 12.469C239.851 12.5935 239.345 13.5248 239.57 13.3156Z" fill="#7EAF15"/>
<path d="M243.087 13.9433C242.913 14.3815 242.868 14.6952 243.123 14.3068C243.082 14.2122 243.179 13.8487 243.087 13.9433Z" fill="#7EAF15"/>
<path d="M251.975 19.3162L251.79 19.5929L252.011 19.3867L251.975 19.3162Z" fill="#7EAF15"/>
<path d="M210.844 56.4994C211.023 56.3051 211.314 55.7972 211.151 55.832L210.542 56.6288L210.844 56.4994Z" fill="#7EAF15"/>
<path d="M211.145 54.5222C210.762 54.8559 210.169 55.4882 209.755 56.3049C210.389 55.5729 210.205 55.9264 210.946 55.045C211.11 55.0101 210.951 55.4235 210.736 55.7223C210.91 55.5281 210.777 56.0062 211.171 55.5082C211.452 54.7762 211.299 54.6466 210.782 55.0799C210.859 54.8707 211.038 54.6716 211.145 54.5222Z" fill="#7EAF15"/>
<path d="M215.76 50.2544L215.638 50.1799C215.689 50.2346 215.724 50.2544 215.76 50.2544Z" fill="#7EAF15"/>
<path d="M222.596 47.6252C222.555 47.6705 222.581 47.7711 222.617 47.8516C222.638 47.7711 222.648 47.6957 222.596 47.6252Z" fill="#7EAF15"/>
<path d="M224.212 48.0741C224.176 48.0591 224.146 48.0542 224.115 48.0442C224.181 48.1142 224.232 48.1491 224.212 48.0741Z" fill="#7EAF15"/>
<path d="M215.762 50.2547L216.08 50.4509C215.946 50.1541 215.88 50.2799 215.762 50.2547Z" fill="#7EAF15"/>
<path d="M208.466 55.7093C208.528 55.6892 208.605 55.6287 208.697 55.5432C208.646 55.5633 208.6 55.5785 208.554 55.5835C208.523 55.6237 208.497 55.664 208.466 55.7093Z" fill="#7EAF15"/>
<path d="M213.216 52.3513L213.164 52.3765C213.2 52.4872 213.247 52.618 213.303 52.7639L213.216 52.3513Z" fill="#7EAF15"/>
<path d="M211.051 53.5463C211.117 53.5563 210.759 52.7893 210.611 52.4507C210.739 52.7744 210.775 52.9388 210.759 53.0184C210.831 53.1678 210.923 53.3322 211.051 53.5463Z" fill="#7EAF15"/>
<path d="M209.84 52.5355L209.962 52.4758C209.926 52.4907 209.881 52.5057 209.84 52.5355Z" fill="#7EAF15"/>
<path d="M214.892 51.7583C214.954 51.869 215.01 51.9646 215.046 52.0199C215 51.9294 214.948 51.8388 214.892 51.7583Z" fill="#7EAF15"/>
<path d="M265.594 28.2609C265.579 28.2005 265.569 28.1653 265.553 28.115C265.564 28.2005 265.574 28.2609 265.594 28.2609Z" fill="#7EAF15"/>
<path d="M261.663 25.0226L261.688 24.9678C261.647 24.8134 261.606 24.664 261.565 24.5146L261.663 25.0226Z" fill="#7EAF15"/>
<path d="M226.76 48.064C226.75 48.059 226.75 48.059 226.744 48.054C226.729 48.1646 226.755 48.1395 226.76 48.064Z" fill="#7EAF15"/>
<path d="M245.396 38.5573C244.844 37.9847 245.314 37.5265 244.614 36.929C244.793 37.2078 244.91 38.2436 245.396 38.5573Z" fill="#7EAF15"/>
<path d="M208.47 55.583C208.434 55.573 208.404 55.5631 208.378 55.5381C208.404 55.5831 208.429 55.598 208.47 55.583Z" fill="#7EAF15"/>
<path d="M244.617 36.9245L244.612 36.9195L244.545 36.8643C244.571 36.8894 244.592 36.9044 244.617 36.9245Z" fill="#7EAF15"/>
<path d="M231.279 45.3678C231.202 45.237 231.135 45.1465 231.063 45.0559C231.104 45.1314 231.166 45.2219 231.279 45.3678Z" fill="#7EAF15"/>
<path d="M227.205 45.9621L227.343 46.0225C227.277 45.9672 227.236 45.957 227.205 45.9621Z" fill="#7EAF15"/>
<path d="M232.581 43.4281C232.658 43.4634 232.725 43.5589 232.74 43.4281C232.714 43.3929 232.694 43.3677 232.673 43.3425C232.704 43.4582 232.699 43.5237 232.581 43.4281Z" fill="#7EAF15"/>
<path d="M234.495 42.5228C234.454 42.4675 234.423 42.4322 234.382 42.387C234.372 42.4071 234.357 42.4323 234.341 42.4575L234.495 42.5228Z" fill="#7EAF15"/>
<path d="M268.836 19.6694C268.985 19.8637 269.128 20.0828 269.261 20.3069C269.153 20.1127 269.107 19.9482 269.082 19.8287L271.485 25.9588C271.49 26.1032 271.485 26.1878 271.551 26.1928L268.974 19.6096C268.944 19.6047 268.903 19.6246 268.836 19.6694Z" fill="#7EAF15"/>
<path d="M208.723 55.3088C208.594 55.4849 208.523 55.5654 208.471 55.5856C208.497 55.5906 208.528 55.5856 208.558 55.5856C208.63 55.4799 208.692 55.3793 208.723 55.3088Z" fill="#7EAF15"/>
<path d="M229.689 37.4332L230.049 37.4024C229.931 37.3665 229.797 37.3819 229.689 37.4332Z" fill="#7EAF15"/>
<path d="M255.175 26.263L255.201 26.1379C255.165 26.1379 255.15 26.1679 255.175 26.263Z" fill="#7EAF15"/>
<path d="M230.896 36.8591C231.085 37.0982 231.218 37.2276 231.326 37.3023C231.31 37.2375 231.3 37.1828 231.264 37.0932L230.896 36.8591Z" fill="#7EAF15"/>
<path d="M269.266 20.3122L269.261 20.3015L269.266 20.3122Z" fill="#7EAF15"/>
<path d="M269.809 27.9504C270.126 27.8856 269.65 26.8698 269.538 26.2424C269.819 25.839 269.937 26.9744 270.223 27.4873C270.371 27.1437 270.264 26.1179 270.448 26.1129C270.509 26.2822 270.565 26.3369 270.586 26.566C270.586 25.6647 271.276 26.3071 271.271 25.2315L269.415 20.4958C269.42 20.5107 269.42 20.5257 269.425 20.5406C269.364 20.461 269.308 20.3812 269.267 20.3115C269.558 20.7895 269.819 21.2926 269.987 21.6561C269.865 21.7358 270.059 22.398 269.686 21.7706C269.773 21.7507 269.65 21.4868 269.589 21.2676L269.594 21.6112C269.006 20.7348 269.619 21.2029 269.277 20.5107C269.164 20.939 269.241 21.8552 268.904 21.6908C268.408 20.7995 269.226 21.158 268.551 20.4758L269.042 20.6751C268.086 19.3505 269.282 20.685 268.295 19.2508C267.748 19.1811 268.065 19.933 267.518 19.8633C267.677 20.4161 267.922 20.6004 268.086 21.1481C267.953 22.3383 266.48 19.0716 266.654 20.4908C266.848 21.1531 267.38 22.3283 266.766 21.8602L266.358 20.7796C265.908 20.8643 266.869 22.3731 266.102 21.8752C265.974 21.432 266.245 21.3822 266.122 21.2926C265.442 20.6054 266.224 21.9697 266.015 22.0693L265.514 21.178C265.161 21.5216 265.018 22.408 264.629 22.7964C264.522 22.5126 264.461 22.1888 264.21 21.9598C263.842 22.6968 262.881 22.4478 262.037 22.1788L262.211 23.0702C262.155 23.0852 261.94 22.7565 261.92 22.5772C261.546 22.383 262.16 23.0852 262.206 23.4437C262.104 23.5582 261.812 23.0703 261.777 22.7964C261.715 23.653 261.367 24.7684 260.534 24.121L260.498 23.8471C260.013 23.6828 260.938 25.6348 260.273 25.0422L260.263 24.8729C259.389 24.863 258.975 25.9536 257.84 25.0174C258.305 26.2026 256.889 24.838 257.635 26.4465C256.843 25.8489 256.817 25.5153 255.989 25.2514C255.799 25.2514 256.255 26.3469 256.152 26.6009L255.733 25.7743L255.912 26.7653L255.283 25.839L255.212 26.1328C255.304 26.1478 255.544 26.4365 255.651 26.6755C255.564 27.1785 254.695 26.4167 254.481 25.9934L254.184 26.9993C254.031 26.6607 254.082 26.4914 254.061 26.2424C254.138 27.2533 253.565 25.4008 253.632 26.322C253.77 26.4913 253.857 26.825 253.933 26.9993C253.524 26.571 253.166 26.7403 253.003 27.0739L252.768 26.4814C252.216 26.5611 251.893 27.2333 251.346 27.4773C251.673 27.6516 252.124 28.6625 252.011 28.8318L251.51 27.9853C251.679 28.5779 251.842 28.2393 251.96 29.0011C251.709 28.9962 251.326 28.0699 251.3 27.7313L251.208 28.1496C251.065 27.8957 251.05 27.7313 250.902 27.3877C251.07 27.9803 250.043 26.7104 250.365 27.7213L250.222 27.4674C249.68 27.7163 249.582 28.1297 249.168 28.3837C249.536 29.1456 249.281 29.0559 249.455 29.7282C249.01 29.6385 248.355 29.2152 248.002 29.4642C247.916 29.9672 248.243 30.1414 248.345 30.6493C247.982 29.9721 247.624 30.2162 247.578 29.6286C247.169 29.9622 247.052 30.0469 246.74 30.8885C246.944 31.1375 247.077 31.2271 247.159 31.481C247.108 31.6454 246.77 31.3067 246.622 30.9681L246.617 30.8835C246.469 32.228 244.086 29.5986 244.275 31.2868L244.27 31.2021L244.096 32.2081C243.785 32.2081 243.989 31.6204 243.59 31.2818C243.575 32.711 242.578 31.5557 242.471 32.5516C241.08 30.6992 241.208 33.3234 240.052 32.2677L240.318 32.7309C240.42 33.2638 240.021 32.5317 239.873 32.467C240.073 32.8305 240.231 32.8306 240.277 33.1293C239.454 34.2299 237.634 33.5178 236.279 33.6223C235.798 33.6921 237.276 36.2068 236.182 35.3154L235.89 34.3593C235.578 35.8234 234.152 35.1361 233.779 36.4308C233.728 36.2018 233.595 35.9378 233.676 35.903C233.18 35.3403 233.017 36.1769 233.278 36.7047C233.119 36.7047 233.012 36.2416 232.797 36.0125C232.434 35.7137 232.772 37.0434 232.358 36.4458C232.291 36.3512 232.301 36.2117 232.311 36.147C232.352 36.5155 231.744 36.3163 232.224 37.0084C231.739 36.7993 231.8 37.621 231.335 37.2973C231.591 38.2036 230.609 37.148 231.141 38.3481C230.558 37.1231 230.108 37.626 230.2 38.2883C230.082 37.8899 229.842 37.9895 229.663 37.4417C229.448 37.5662 229.356 37.8849 229.709 38.4924C228.574 37.2325 229.469 40.0561 228.308 38.2982C227.971 39.2643 227.582 39.9963 227.127 40.564C226.544 39.344 227.725 40.1307 227.066 38.8708C226.749 39.6377 226.943 40.8329 226.237 40.803C226.007 40.7034 226.058 40.2353 226.002 40.0062C225.685 40.7731 224.857 40.4146 224.683 41.311C224.627 41.1964 224.622 41.047 224.627 40.9325C224.545 41.0172 224.31 40.8628 224.596 41.4105L224.617 41.2164C225.174 41.9434 225.056 43.0737 225.251 43.502C224.632 41.8438 224.555 43.3377 223.829 41.2164C223.814 41.3508 223.865 41.6496 224.064 42.0131C223.916 41.9533 223.778 41.7492 223.666 41.2861C223.461 41.7541 223.88 42.282 223.553 42.4214C223.42 42.1525 223.436 42.0181 223.313 41.6894C223.41 42.287 223.507 42.8845 223.124 42.785C223.062 42.6156 222.924 42.4214 223.006 42.3866C222.582 42.6853 222.904 44.1494 222.142 43.8854C221.713 42.6555 221.779 43.5866 221.252 42.5957L221.125 43.024L221.477 43.4573C221.227 43.5519 221.38 44.3834 221.007 44.1544L220.982 43.6564L220.624 44.0598L221.068 44.3187C221.084 44.9512 221.728 45.5736 221.268 45.4491C221.283 45.3147 221.022 45.5487 220.598 45.0208C220.598 45.0208 220.598 45.0208 220.598 45.0159C220.639 45.3893 220.685 45.7877 220.383 45.6234C220.179 45.3246 219.867 44.498 219.729 44.2988C220.031 45.1952 219.279 44.7967 219.576 45.7628C219.519 45.5288 219.259 45.0009 219.192 44.9013L219.432 45.6283C219.212 45.464 219.141 45.3645 218.952 44.9362C218.553 44.9711 219.693 46.1562 219.023 45.7977C219.028 45.728 218.962 45.6333 218.977 45.4989C218.435 45.4043 218.42 46.2956 217.883 46.1363C217.27 45.1802 218.083 45.738 217.53 44.9462C217.091 45.3794 217.034 46.6741 216.406 46.6791L216.559 46.7438C217.198 48.2029 215.828 46.2209 215.9 47.0127C215.91 46.8783 215.588 46.1811 215.649 46.3504C215.184 46.2856 215.107 47.0426 214.795 47.7397L214.677 47.3413C214.309 47.1123 214.038 47.4111 213.732 47.3513C213.849 47.7497 213.691 47.7497 214.033 48.2427C212.305 46.4849 213.277 49.9856 211.799 48.5365C211.871 48.4967 211.814 48.1332 211.753 48.1581L211.4 48.7407C211.753 49.3432 211.656 49.0843 212.009 49.5175C212.126 49.9159 212.121 50.2694 211.993 50.3341C212.024 49.8113 211.492 49.3383 211.221 49.0395C211.334 49.2237 211.405 49.4478 211.507 49.637C210.684 48.661 212.085 50.9068 211.344 50.3391L211.201 50.0055C211.144 50.2396 211.231 50.7275 211.037 50.7076C210.618 50.0204 211.017 50.3043 210.73 49.7067C210.541 49.8461 210.991 51.2654 210.444 50.638C210.434 50.394 210.562 50.3292 210.551 50.0901C209.922 49.3432 210.004 49.5723 209.784 49.5076L209.81 49.5175L209.263 49.3034L209.468 49.4876C210.137 51.4845 209.099 50.0852 209.36 51.4795C209.125 50.1549 209.084 50.7823 208.701 49.9557C208.496 49.7714 208.23 49.5822 208.159 49.3382C208.317 50.0752 207.622 48.9548 207.862 50.0255C207.719 49.7665 207.668 50.0852 207.382 49.408C207.264 49.7167 207.663 49.8412 207.806 50.1749C207.872 50.8322 207.34 50.3939 206.962 50.3242L205.004 49.9557L206.747 54.3229C206.834 54.537 207.003 54.6316 207.458 54.298C208.159 54.059 208.762 53.2722 209.396 53.078C209.268 53.5461 208.721 53.9196 208.721 53.9196C208.685 54.4027 208.88 54.4275 209.248 54.2582C209.074 54.4524 208.992 54.6566 208.874 54.9703C209.069 54.9952 209.549 54.1287 209.519 54.6167C209.309 54.8707 208.982 55.2841 208.731 55.5181C209.053 55.3986 209.524 55.0449 209.851 54.9304C209.626 55.3885 209.324 55.5181 209.079 55.7571C209.411 55.6874 209.861 55.6923 210.362 55.0449L210.388 54.7213C210.485 54.7362 210.05 55.3288 209.917 55.4234C209.396 55.8517 209.815 55.0301 209.963 54.7761L210.194 54.6964C210.986 53.1626 209.519 54.6118 209.309 54.3678L210.091 53.3818L209.263 54.0939C209.38 53.7851 209.718 53.1726 209.948 53.0929C210.091 52.4555 209.539 53.3668 209.749 52.6895C209.79 52.59 209.831 52.5402 209.872 52.5103L209.488 52.7145C209.667 52.5153 209.933 51.9526 209.948 52.1718C210.004 51.3601 208.91 52.6398 209.294 51.7634L209.365 51.7135C208.68 51.7932 208.823 52.4606 207.898 53.1627L208.89 51.111L208.348 51.858C208.343 51.853 208.343 51.848 208.338 51.838L208.276 52.9585C208.343 52.9684 208.465 53.0082 208.598 53.312C208.506 52.6597 208.389 52.9685 208.23 52.3908C208.844 53.0233 208.721 51.7285 209.427 53.0083C209.202 52.346 208.956 52.6348 208.997 52.082C209.774 53.4515 209.176 51.6986 209.718 52.2414C210.015 52.9983 209.611 52.7145 210.153 53.2573C209.672 51.9676 210.715 53.322 210.787 52.9983C210.306 52.0173 210.986 52.4008 211.139 51.9278C211.283 52.2664 211.993 52.1867 212.464 52.4008L212.535 52.57C212.101 51.5542 212.494 51.5991 212.607 51.2953C212.893 51.8879 212.97 52.1418 212.985 52.4605L213.19 52.3609C213.082 52.0223 213.062 51.8232 213.138 51.6489L213.455 52.4108C213.706 52.2415 213.573 51.2803 214.171 51.609C213.849 50.9118 212.934 49.8263 213.077 49.1889C213.277 49.5524 213.609 50.1848 213.589 50.384C213.594 50.3193 213.547 50.0205 213.691 50.15L213.854 50.8471C214.151 51.0463 213.675 50.2844 213.834 50.2844C214.095 50.8173 214.115 50.6181 214.309 51.0463C214.304 51.1111 214.089 50.8819 214.141 51.111C214.335 51.1359 214.662 51.37 214.923 51.7434C214.759 51.4496 214.565 51.0264 214.637 50.9119C214.892 50.7426 215.051 51.5044 215.342 51.7036C215.224 51.3052 215.588 51.6041 215.199 50.8073C215.281 50.7725 215.48 51.1359 215.618 51.3351C215.587 50.9168 216.227 50.9218 215.649 50.1549L215.582 50.1151C215.582 50.0952 215.587 50.0901 215.587 50.0702C215.659 49.0643 216.774 50.0653 217.065 49.5076L217.198 49.7715C217.321 49.3383 217.719 49.3034 217.633 48.6411C217.714 48.6013 218.067 49.0345 218.19 49.3681C218.303 49.0693 218.175 48.7607 218.696 49.0545C218.717 49.6172 218.972 49.4279 218.65 49.4976C219.039 49.5972 219.31 49.9956 219.243 49.1291C219.483 49.8561 219.877 49.886 219.903 49.6221L219.468 49.2287C219.565 49.0594 219.724 49.0594 219.882 49.0594L220.261 49.9856C221.36 50.8072 220.342 47.6601 221.677 49.2785C221.513 48.5814 221.155 48.9798 220.92 48.188C221.237 48.188 222.142 49.3433 222.224 49.3084C222.822 49.6371 221.902 47.8443 222.439 48.0136C222.234 47.7198 221.764 46.8882 221.887 46.4549C222.204 46.45 222.868 47.6451 222.832 47.9738C222.786 48.0285 222.705 47.9439 222.653 47.8343C222.628 47.9887 222.587 48.1779 222.863 48.4767L222.735 48.1431C223.027 48.4071 223.359 48.2079 223.538 48.7706C223.579 48.3772 223.359 48.2078 223.134 48.1132C223.691 48.417 223.656 47.8842 224.146 48.0336C224.003 47.8842 223.768 47.5306 223.824 47.5107C224.52 47.67 223.742 46.8036 224.008 46.5048C224.443 46.8982 224.519 47.6999 224.652 47.1322C225.026 47.3613 225.118 47.9589 225.164 48.2576C225.164 47.4958 225.941 48.3872 226.176 48.417L226.14 48.7506C226.161 48.5514 226.242 48.5166 226.324 48.4817L225.915 47.8892C226.069 47.9539 226.151 47.9191 226.278 48.188C226.171 47.7249 225.675 47.1621 225.583 46.4998C225.875 46.7637 225.798 45.967 226.263 46.7936C225.721 46.694 226.733 47.6253 226.462 47.9191C226.478 47.7846 226.56 47.7548 226.713 47.8195C226.774 47.9091 226.784 47.9988 226.784 48.0635C227.546 48.6411 226.483 47.0226 226.892 46.8533C227.081 47.3563 227.434 47.7148 227.449 47.5804C227.286 47.6451 226.974 46.8185 226.938 46.3853C227.378 46.6343 227.076 45.9769 227.235 45.957L226.994 45.8524C226.81 45.3495 226.968 45.3545 227.071 45.1204C227.27 45.4839 227.035 45.454 227.183 45.5835C226.963 44.6523 228.063 46.2409 228.058 45.5437C228.344 45.8077 228.518 46.435 228.738 46.5994C228.738 45.8325 229.397 47.0974 229.469 46.4301C229.054 45.8326 229.116 45.9969 229.034 45.2648L228.727 45.9669L228.605 44.8714C228.441 44.9362 228.467 45.4341 228.318 45.3694C228.221 44.7668 228.283 44.9362 227.94 44.4432C228.64 45.2997 228.098 43.6764 228.676 44.2042L229.458 45.7927C230.195 46.3206 229.729 44.6574 230.425 44.8217L230.128 44.6224C229.883 43.9601 230.389 44.3885 230.425 44.0598C230.675 44.5976 230.87 44.742 231.105 45.0408C230.9 44.6524 231.488 44.9064 231.002 43.8258L231.57 44.4183C232.112 44.5129 231.274 42.6904 231.749 42.6904C231.923 43.3228 232.281 43.6166 232.23 44.1494C232.363 44.0946 232.526 44.1344 232.342 43.7659C232.582 44.0647 232.342 42.8846 232.71 43.3278C232.649 43.0688 232.388 42.506 232.557 42.4811C232.628 42.5807 232.685 42.7451 232.685 42.7451C232.557 42.4812 232.731 42.282 232.311 41.7541C233.533 43.2231 233.36 41.1117 234.413 42.3666C234.607 42.0579 234.857 41.7243 235.093 41.5649C235.154 41.7293 235.226 41.8289 235.149 41.799C235.747 42.1276 234.607 40.1756 235.282 40.5341C235.916 41.296 235.302 41.0968 235.589 41.3607C236.514 43.0787 235.952 40.8927 236.729 41.784L236.714 41.9185C237.215 42.4165 236.887 41.0221 237.286 40.9872C237.286 40.9872 237.347 41.1516 237.414 41.2512C237.199 40.2502 237.485 39.7524 237.69 39.354C237.93 40.086 237.726 39.7872 238.13 40.4495C238.227 40.2802 237.532 39.3539 237.726 39.0252C238.007 39.3539 238.38 39.583 238.774 40.3101L238.524 40.4793C239.142 41.3707 238.861 40.2801 239.086 40.3797L239.275 40.808C239.628 40.4744 239.106 39.4137 239.592 39.2792L239.388 38.9854C239.112 37.8251 239.889 39.4785 239.745 38.5821L240.349 39.6078C240.385 39.2742 240.405 38.3132 240.594 37.9746C240.824 38.8411 240.681 39.4038 240.706 39.9715C240.87 39.9017 241.213 39.6328 241.034 39.0701C241.018 39.2046 241.07 39.5033 240.921 39.3688C240.702 38.4426 240.758 37.9098 241.085 37.7753C242.056 39.8569 242.179 37.8998 243.207 39.3838C243.396 38.358 244.49 39.1746 245.093 38.7414C244.061 37.2524 245.262 38.607 244.403 36.9836C244.506 36.8044 244.577 36.8043 244.643 36.9039L245.6 37.6658C245.947 38.0941 245.635 38.0991 245.835 38.4576C246.234 38.4228 246.325 39.09 246.765 39.4187C246.428 38.851 246.464 38.5223 246.765 38.6568L246.116 38.0243C246.152 36.9288 247.21 39.2095 247.251 38.1189L247.358 38.7066C247.45 38.2883 248.263 38.2933 247.839 36.8591C247.977 37.0285 248.258 37.4516 248.212 37.6209C248.892 37.5462 248.805 35.6042 249.664 36.2018L249.823 36.625C249.874 36.4557 249.633 35.7784 249.971 36.122C250.048 36.2913 250.13 36.5454 250.191 36.5454C250.181 36.381 250.13 35.7037 250.39 35.8731L250.492 36.381C251.321 36.6399 250.815 34.8673 251.152 34.3693C251.74 35.5545 252.379 35.7237 252.696 35.8134L252.773 35.9827C253.504 35.8184 253.407 34.4738 253.785 33.7169C254.802 34.8224 255.339 33.6472 256.306 34.0754C256.106 33.9061 255.861 33.1443 255.912 32.9749C256.173 33.1443 255.897 31.969 256.418 33.0645L256.357 33.0695C256.996 34.0804 257.149 33.6621 257.395 33.5825L256.725 32.1433C258.356 33.921 257.921 30.6394 259.169 32.3325C259.138 31.9093 259.317 31.8295 259.287 31.4063L259.66 32.1732C260.161 32.1781 260.406 32.1782 260.81 31.7599L260.979 32.3525C261.286 32.2678 260.237 29.9921 260.473 29.8228L261.117 30.9232C261.598 30.6743 262.589 31.4362 262.559 30.1813C262.635 30.3506 262.784 30.6842 262.727 30.7688C262.973 30.6892 264.001 31.1175 263.142 29.5987C263.653 30.6096 263.694 29.4593 263.734 28.8866L264.067 29.6534C263.811 28.5927 263.689 28.3238 263.868 27.9155C263.99 27.9802 264.231 28.4832 264.036 28.3388C264.476 28.6127 263.873 27.537 264.369 27.796L264.496 28.3288C264.778 28.2691 264.629 28.0202 264.491 27.3977C264.501 27.0242 265.064 27.3579 265.442 28.0202C265.268 27.5919 265.136 26.9744 265.381 27.0989C265.529 27.3429 265.555 27.5321 265.565 27.6218C266.24 27.9305 265.759 26.4515 266.419 27.054C266.547 27.298 266.628 27.4126 266.69 27.4773C266.347 27.6168 266.056 27.7064 266.051 27.6367C266.393 28.3289 266.726 28.3189 266.986 29.3746C266.945 28.7522 266.751 27.4425 267.181 27.6417C267.227 27.7015 267.273 27.7612 267.334 27.8658L267.344 27.9554C267.441 27.9952 267.462 27.9056 267.457 27.7662C267.6 27.8409 267.692 27.9006 267.779 27.8707C268.096 28.4285 268.244 28.0301 268.392 27.9952C268.004 27.2433 268.244 27.2831 267.764 26.7354C267.815 26.7802 267.784 26.8399 267.707 26.9096C267.697 26.9395 267.682 26.9645 267.687 27.0142C267.682 26.9943 267.671 26.9694 267.661 26.9445C267.585 27.0092 267.477 27.079 267.349 27.1537C267.262 26.7205 267.216 26.3419 267.574 26.6905C267.4 26.1726 267.227 25.6349 267.155 25.3809C267.866 26.347 268.505 26.7503 268.878 27.3728C269.077 26.7553 269.711 26.6308 269.261 25.092C269.287 24.853 269.599 25.4357 269.752 25.6349C269.757 25.8091 269.665 25.824 269.732 26.0481C269.783 25.575 270.356 25.58 269.916 24.5592C270.438 24.8679 270.207 25.5501 270.529 25.1966L270.627 25.5253C271.439 26.1428 271.429 25.3061 271.481 24.5542L272.375 11.6069L270.028 20.8493C269.849 21.5465 269.635 22.149 268.863 21.2178C268.965 21.3323 269.016 21.3871 269.082 21.5614C267.722 20.8991 267.119 23.0752 265.606 21.8502C265.212 21.6261 265.376 22.3134 265.345 22.8811L265.028 22.0296L265.002 23.1201C264.767 23.9766 263.607 21.2029 263.443 22.7466L263.689 23.3093C263.453 23.2545 263.142 23.8322 262.983 23.15C262.993 23.2645 263.096 23.7774 262.927 23.4936L262.789 23.0405L262.513 23.9566C262.027 23.7375 262.047 22.139 261.454 22.2038C261.296 22.4378 261.24 23.6927 261.408 23.9716C261.5 23.9716 261.71 24.1957 261.848 24.6489L261.725 24.9376C262.078 26.2871 262.334 27.6965 263.08 28.5032L263.172 27.5919L263.469 28.2093L263.203 28.3288C263.54 28.8965 263.479 28.3288 263.484 27.9255C263.612 28.2641 263.73 28.4932 263.832 28.6027L263.781 27.2333C263.975 27.7462 263.939 28.3139 264.241 28.5429C264.22 27.9055 263.755 27.4076 263.888 26.9495C264.22 27.5122 264.322 28.0201 264.353 27.4524C264.481 27.791 264.507 28.0201 264.476 28.1944C264.522 27.7362 264.859 27.9005 264.737 27.1635C265.12 27.8707 265.238 26.815 265.591 28.0848C265.555 27.7661 265.591 27.0092 265.729 26.9146C265.892 28.5081 266.322 26.8449 266.721 28.4932C266.526 27.074 267.283 27.6815 267.426 26.825C267.436 26.9395 267.462 27.1686 267.411 27.1088C267.646 27.1636 267.825 27.5619 268.034 27.781C267.733 26.6456 267.973 26.3021 267.942 25.5601C268.51 26.576 268.178 26.9246 268.561 27.9454C268.28 27.0341 268.73 26.9146 268.423 26.1776C268.812 26.7951 268.684 26.4565 269.052 27.3628C268.674 25.9436 269.159 27.0739 269.067 26.1676C269.548 26.7851 269.522 27.4673 269.701 26.9544C269.931 27.3777 269.809 27.9504 269.809 27.9504ZM264.752 23.0454C264.747 23.0405 264.747 23.0355 264.747 23.0305C264.798 22.9857 264.839 22.9458 264.864 22.9209C264.839 22.9458 264.803 22.9807 264.752 23.0454ZM264.19 23.3292C264.271 23.3242 264.364 23.2894 264.45 23.2446C264.599 23.4936 264.711 23.7725 264.65 23.7874C264.593 23.5932 264.384 23.5085 264.19 23.3292ZM267.999 27.9952C267.963 28.1446 267.861 28.0102 267.769 27.8608C267.804 27.8259 267.84 27.7761 267.881 27.6964C267.871 27.6665 267.855 27.6317 267.845 27.5968C267.912 27.7462 267.968 27.8857 267.999 27.9952Z" fill="#7EAF15"/>
<path d="M267.667 26.9269C267.672 26.9017 267.662 26.8666 267.677 26.8515C267.626 26.7911 267.58 26.7458 267.539 26.7056C267.57 26.7911 267.595 26.8766 267.626 26.9622L267.667 26.9269Z" fill="#7EAF15"/>
<path d="M215.619 50.1706L215.639 50.1807C215.614 50.1555 215.588 50.1303 215.563 50.085C215.588 50.1202 215.598 50.1455 215.619 50.1706Z" fill="#7EAF15"/>
<path d="M255.62 25.5901L255.717 25.7864L255.687 25.5951L255.62 25.5901Z" fill="#7EAF15"/>
<path d="M211.197 49.0619C211.156 48.9965 211.11 48.9361 211.058 48.8857C211.089 48.9361 211.14 48.9965 211.197 49.0619Z" fill="#7EAF15"/>
<path d="M209.761 49.5293L209.433 49.3481C209.597 49.4639 209.695 49.5092 209.761 49.5293Z" fill="#7EAF15"/>
<path d="M208.538 49.6472C208.589 49.7881 208.636 49.8887 208.682 49.9843L208.687 49.9893L208.538 49.6472Z" fill="#7EAF15"/>
<path d="M224.61 40.9439C224.621 40.9339 224.631 40.9137 224.636 40.8885C224.657 40.6973 224.621 40.7829 224.61 40.9439Z" fill="#7EAF15"/>
<path d="M220.577 45.0308C220.561 44.8714 220.546 44.712 220.556 44.5975C220.439 44.5825 220.362 44.6025 220.577 45.0308Z" fill="#7EAF15"/>
<path d="M229.648 37.437C229.648 37.4424 229.653 37.4424 229.653 37.4531C229.664 37.4424 229.675 37.4424 229.691 37.437H229.648Z" fill="#7EAF15"/>
<path d="M220.792 44.5085C220.628 44.3978 220.572 44.4682 220.556 44.6041C220.654 44.6192 220.777 44.6594 220.792 44.5085Z" fill="#7EAF15"/>
<path d="M209.298 56.3056L209.328 56.3656C209.359 56.3156 209.384 56.2806 209.404 56.2556L209.298 56.3056Z" fill="#7EAF15"/>
<path d="M209.405 56.2504L209.511 56.2006C209.486 56.1857 209.46 56.1759 209.405 56.2504Z" fill="#7EAF15"/>
<path d="M209.735 56.0862L209.51 56.2019C209.551 56.227 209.581 56.2774 209.735 56.0862Z" fill="#7EAF15"/>
<path d="M208.21 55.1897L208.03 55.4413C208.071 55.3909 208.133 55.3104 208.21 55.1897Z" fill="#7EAF15"/>
<path d="M207.765 55.0249C207.821 55.1395 207.647 55.7221 207.882 55.6374L208.026 55.4382C207.724 55.7818 208.138 54.6415 207.765 55.0249Z" fill="#7EAF15"/>
<path d="M209.221 53.4169L208.761 53.3621C208.965 53.626 209.242 53.9796 209.119 54.124C209.998 54.7863 208.705 53.5165 209.221 53.4169Z" fill="#7EAF15"/>
<path d="M210.52 53.3274C210.397 53.5515 210.734 53.7508 210.806 53.9201C210.79 53.5964 210.786 53.5166 210.52 53.3274Z" fill="#7EAF15"/>
<path d="M218.369 49.6177L218.692 50.3148C218.789 50.1455 218.564 50.0459 218.369 49.6177Z" fill="#7EAF15"/>
<path d="M218.098 45.35L217.745 44.9915L217.991 45.6538L218.098 45.35Z" fill="#7EAF15"/>
<path d="M221.426 49.834L221.411 49.9598L221.529 49.5925L221.426 49.834Z" fill="#7EAF15"/>
<path d="M234.484 43.3476L234.019 42.521C233.999 42.7202 234.454 43.6812 234.484 43.3476Z" fill="#7EAF15"/>
<path d="M239.745 39.7921C240.016 40.1855 240.313 40.3846 240.205 39.9215C240.052 39.9215 239.755 39.6526 239.745 39.7921Z" fill="#7EAF15"/>
<path d="M257.503 33.0947L257.529 33.4368L257.626 33.0947H257.503Z" fill="#7EAF15"/>
</svg>
