<svg width="39" height="112" viewBox="0 0 39 112" fill="none" xmlns="http://www.w3.org/2000/svg">
<path d="M0.650734 1.78302C15.6942 4.20907 27.6456 16.6508 31.9539 30.8295C37.3167 48.4727 32.139 67.1825 23.5081 82.8763C18.5918 91.8159 12.5261 100.076 6.20377 108.076C4.57925 110.134 7.48151 113.065 9.13453 110.988C21.1522 95.8608 32.6662 79.4779 36.6135 60.2489C40.1856 42.8418 37.2833 23.8251 24.1826 10.9303C17.922 4.76602 9.68051 0.7966 0.892876 0.00365448C-0.118889 -0.090744 -0.365784 1.61782 0.650734 1.78302Z" fill="#7EAF15"/>
<path d="M10.1183 111.54C14.2556 110.134 18.4782 108.869 22.7342 107.873C27.0046 106.877 31.3744 106.297 35.6068 105.173C37.236 104.739 36.8987 102.266 35.2125 102.261C26.3583 102.242 17.1291 105.735 9.29627 109.596C8.218 110.134 8.96874 111.932 10.1183 111.54Z" fill="#7EAF15"/>
<path d="M9.25781 107.76C9.23881 100.293 7.92768 92.4248 4.27488 85.8216C3.51011 84.4433 1.59103 85.6564 2.19904 87.0299C5.18683 93.7794 7.63342 100.364 8.32218 107.765C8.37443 108.345 9.25781 108.369 9.25781 107.76Z" fill="#7EAF15"/>
</svg>
