<svg width="207" height="193" viewBox="0 0 207 193" fill="none" xmlns="http://www.w3.org/2000/svg">
<path d="M63.049 0C52.2241 0 42.8882 6.54857 35.5251 13.8588C27.7221 21.606 21.0501 30.5892 15.6094 40.1094C10.087 49.7668 5.80855 60.161 3.00653 70.9172C-0.0467994 82.6222 -1.36614 95.2012 1.90708 107.006C4.46408 116.233 10.0745 124.873 18.1413 130.241C27.3389 136.366 38.6349 136.715 49.0263 133.744C60.3475 130.51 70.5315 124.155 80.3072 117.794C90.4095 111.22 100.154 104.103 109.49 96.4935C114.195 92.6605 118.794 88.6964 123.28 84.6136C127.414 80.8493 131.504 77.0038 134.94 72.5839C136.58 70.4677 138.069 68.2327 139.275 65.848C140.532 63.3572 141.669 60.6353 141.813 57.8198C142.096 52.3575 137.397 48.6307 132.93 46.4083C123.889 41.9198 113.058 42.8188 103.986 46.7142C94.1916 50.9218 86.64 58.9749 80.7847 67.6335C77.7251 72.1532 75.0675 76.9288 72.5796 81.7794C69.8718 87.0483 67.3463 92.417 65.1223 97.9044C60.7182 108.798 57.5329 120.341 57.0994 132.121C56.7162 142.552 58.5507 153.171 63.0427 162.647C67.5033 172.043 74.7156 179.827 83.8442 184.915C92.9413 189.99 103.458 192.431 113.862 192.375C125.416 192.313 136.781 189.248 147.229 184.478C157.005 180.015 166.246 174.103 174.081 166.755C181.362 159.932 187.551 151.679 190.887 142.228C192.463 137.758 193.33 133.063 193.425 128.331C193.45 127.126 191.565 127.126 191.54 128.331C191.157 148.077 176.625 164.364 160.875 174.771C142.938 186.619 120.541 193.973 99.0481 188.804C89.2285 186.445 79.9553 181.575 73.0445 174.171C66.1902 166.824 62.0186 157.379 60.1338 147.609C55.8491 125.397 63.7841 103.223 73.7482 83.6272C78.479 74.3194 83.8253 65.0676 91.3581 57.6888C98.47 50.7219 107.599 45.8465 117.707 45.3158C122.495 45.0661 127.389 45.8089 131.724 47.9003C133.91 48.9553 136.052 50.2974 137.711 52.0766C139.696 54.1991 140.306 56.7836 139.665 59.5991C138.503 64.6994 135.273 69.4001 131.925 73.3268C128.381 77.4782 124.316 81.1675 120.264 84.8133C111.55 92.6354 102.428 100.002 92.935 106.863C83.6934 113.542 74.1251 120.041 64.0478 125.422C54.4921 130.529 43.5856 134.799 32.5283 133.538C22.6395 132.414 14.2963 126.384 8.98125 118.193C-3.30744 99.2528 2.28404 74.3506 10.3948 54.917C14.4785 45.1285 19.8438 35.858 26.252 27.3929C29.475 23.1416 32.968 19.059 36.7501 15.2884C40.438 11.6114 44.484 8.23407 49.064 5.71826C53.3676 3.35228 58.1109 1.86656 63.049 1.86656C64.2615 1.8728 64.2615 0 63.049 0Z" fill="#7EAF15"/>
<path d="M190.38 126.215C189.148 130.523 186.045 134.118 181.98 136.035C181.521 136.253 181.402 136.909 181.641 137.315C181.917 137.783 182.47 137.87 182.929 137.652C187.414 135.536 190.845 131.453 192.195 126.715C192.528 125.553 190.713 125.054 190.38 126.215Z" fill="#7EAF15"/>
<path d="M191.976 127.507C196.368 131.365 200.765 135.217 205.157 139.075C206.062 139.868 207.4 138.55 206.489 137.751C202.091 133.893 197.699 130.042 193.308 126.184C192.403 125.385 191.065 126.702 191.976 127.507Z" fill="#7EAF15"/>
</svg>
