<svg width="84" height="93" viewBox="0 0 84 93" fill="none" xmlns="http://www.w3.org/2000/svg">
<path d="M19.3855 0.880322C19.5542 0.822319 19.6928 0.937114 19.4174 1.21021C19.2469 1.23921 19.0896 1.27788 18.9247 1.31897C19.0558 1.16309 19.2301 1.02412 19.3855 0.880322Z" fill="#7EAF15"/>
<path d="M19.1156 3.03266C19.0688 3.11966 19.0107 3.21149 18.9489 3.29729C18.8927 3.38308 18.8327 3.46405 18.7653 3.52809C18.6304 3.65498 18.4712 3.7166 18.2894 3.59818C18.4524 3.39879 18.4955 3.284 18.5648 3.16316C18.5966 3.10395 18.6304 3.04353 18.6847 2.97465C18.7428 2.90578 18.8271 2.82964 18.9451 2.74022C19.0388 2.43933 18.962 2.1916 18.8121 2.22302C18.8796 2.17469 18.9039 2.05022 18.9545 1.92213C19.0181 1.79646 19.0968 1.66354 19.2542 1.61158C19.2917 2.06352 19.1324 2.51909 18.8683 3.04837C18.9451 3.16437 19.0444 3.05561 19.1156 3.03266Z" fill="#7EAF15"/>
<path d="M53.7949 20.0382L53.5139 19.9838C53.5963 19.9923 53.6918 20.0116 53.7949 20.0382Z" fill="#7EAF15"/>
<path d="M79.3764 27.4881C79.2265 27.3802 79.1852 27.3196 79.2021 27.299C79.3314 27.4069 79.4344 27.4978 79.3764 27.4881Z" fill="#7EAF15"/>
<path d="M82.3843 30.196C82.3372 30.1282 82.2957 30.0712 82.2542 30.0094C82.3277 30.0736 82.3881 30.1439 82.3843 30.196Z" fill="#7EAF15"/>
<path d="M53.7941 20.0378L54.5154 20.1747C54.5135 20.262 54.1351 20.1226 53.7941 20.0378Z" fill="#7EAF15"/>
<path d="M20.3316 7.13513C20.2436 7.04209 20.1949 6.95388 20.1593 6.86929C20.2249 6.94784 20.2867 7.02518 20.3635 7.09889C20.3522 7.10976 20.341 7.12063 20.3316 7.13513Z" fill="#7EAF15"/>
<path d="M43.0305 16.238L42.8339 16.1653C42.7964 16.1205 42.7682 16.072 42.7458 16.0199L43.0305 16.238Z" fill="#7EAF15"/>
<path d="M35.0144 13.0612C35.1998 13.1277 35.0912 13.3247 35.0855 13.4286C35.0556 13.3162 34.9563 13.2268 34.812 13.1482C34.842 13.1156 34.9038 13.0866 35.0144 13.0612Z" fill="#7EAF15"/>
<path d="M22.7123 7.65723L22.5596 7.51665C22.5973 7.55543 22.6709 7.61239 22.7123 7.65723Z" fill="#7EAF15"/>
<path d="M48.9891 18.2584C49.025 18.236 49.074 18.221 49.1174 18.2172C49.0985 18.2422 49.0514 18.2534 48.9891 18.2584Z" fill="#7EAF15"/>
<path d="M11.1166 76.0942C11.1221 76.1089 11.1092 76.1174 11.1092 76.1309C11.0612 76.1052 11.0464 76.0893 11.1166 76.0942Z" fill="#7EAF15"/>
<path d="M0.143794 75.8176L0.288968 75.8503C0.290853 75.8903 0.292728 75.9291 0.277645 75.9667L0.143794 75.8176Z" fill="#7EAF15"/>
<path d="M80.2408 36.2853C80.254 36.2755 80.2578 36.2719 80.2691 36.2621C80.4897 36.1609 80.3747 36.2243 80.2408 36.2853Z" fill="#7EAF15"/>
<path d="M15.6947 46.2219C15.2695 46.1276 15.4886 46.3101 15.6722 46.4744C15.8558 46.6376 16.002 46.785 15.3726 46.6122C15.4587 46.6037 15.292 46.4237 15.2339 46.2871C15.1758 46.1494 15.217 46.06 15.6947 46.2219Z" fill="#7EAF15"/>
<path d="M20.5208 7.25399C20.5976 7.3267 20.6857 7.39577 20.7756 7.46484C20.6501 7.37396 20.5695 7.30973 20.5208 7.25399Z" fill="#7EAF15"/>
<path d="M15.3718 46.612L15.3699 46.6133L15.2417 46.5732C15.2963 46.5895 15.3266 46.5982 15.3718 46.612Z" fill="#7EAF15"/>
<path d="M60.4168 40.2209C60.4505 40.1822 60.5235 40.1482 60.6022 40.1143C60.6003 40.1361 60.5591 40.1652 60.4168 40.2209Z" fill="#7EAF15"/>
<path d="M75.188 37.8269C75.0756 37.8681 74.9596 37.9057 74.8453 37.9457C74.9764 37.8924 75.0888 37.8584 75.188 37.8269Z" fill="#7EAF15"/>
<path d="M52.5729 40.5121C52.3724 40.5399 52.3087 40.5726 52.0277 40.5617C52.0521 40.5496 52.0764 40.5412 52.1083 40.5315C52.2132 40.5532 52.3481 40.5581 52.5729 40.5121Z" fill="#7EAF15"/>
<path d="M44.4339 40.8313C44.477 40.8141 44.5332 40.8019 44.582 40.786C44.6625 40.7872 44.758 40.7896 44.8405 40.7909L44.4339 40.8313Z" fill="#7EAF15"/>
<path d="M35.2923 75.9526C35.1331 76.0253 35.0394 76.0968 34.9682 76.1671C35.0563 76.012 33.8835 76.0653 35.2923 75.9526Z" fill="#7EAF15"/>
<path d="M20.4771 7.06826C20.4433 7.12522 20.4564 7.17853 20.522 7.25366C20.4658 7.20034 20.4133 7.14824 20.3627 7.09735C20.3852 7.06705 20.419 7.04766 20.4771 7.06826Z" fill="#7EAF15"/>
<path d="M52.0282 38.9304C51.6067 38.9679 51.1851 38.9957 50.7618 39.0259C51.1139 38.9884 51.5748 38.9606 52.0282 38.9304Z" fill="#7EAF15"/>
<path d="M63.9775 62.2301L64.2566 62.3044C64.1423 62.2898 64.0431 62.2666 63.9775 62.2301Z" fill="#7EAF15"/>
<path d="M46.9847 39.1523C46.7636 39.2323 46.5257 39.282 46.2784 39.3184C46.2241 39.3038 46.1641 39.2929 46.1267 39.2711L46.9847 39.1523Z" fill="#7EAF15"/>
<path d="M34.9642 76.1696C34.9662 76.1681 34.9662 76.1667 34.9662 76.1667C34.9662 76.1667 34.9681 76.1681 34.9642 76.1696Z" fill="#7EAF15"/>
<path d="M26.5843 76.2215C27.7851 76.1684 27.1726 76.4608 27.4442 76.6046C28.8961 76.6227 28.0905 76.3847 28.5645 76.2228C29.4656 76.2433 30.1905 76.4511 30.8593 76.4004C30.9024 76.3533 31.0298 76.3279 30.8687 76.2832C31.3576 76.3545 32.0639 76.3061 32.7889 76.2626C33.5139 76.2179 34.2557 76.1599 34.8365 76.2457C34.9133 76.2155 34.9489 76.1889 34.9657 76.1672C34.8177 76.3158 34.8196 76.4536 34.8777 76.5466C35.1493 76.5236 35.4097 76.5454 35.6232 76.5442C35.8368 76.5418 36.0036 76.5212 36.0823 76.4246C35.7525 76.4644 35.7076 76.398 35.5408 76.3605L36.1235 76.375C36.5694 76.0717 35.3329 76.3738 35.2879 76.1841C35.848 76.172 36.4588 76.1768 37.0358 76.1708C37.3243 76.1672 37.6034 76.1599 37.8638 76.143C38.1223 76.1225 38.3584 76.0922 38.5645 76.0487C38.6169 75.9158 38.1224 75.9581 37.744 75.9847C37.3655 76.0077 37.107 76.0209 37.639 75.853L36.3633 76.0838C37.2587 75.5956 35.5821 76.1938 36.3895 75.6874C38.0718 75.4421 38.3228 75.5956 39.9957 75.3201C40.4173 75.401 39.932 75.5364 40.3554 75.6173C41.5975 75.569 42.0208 75.3503 42.3618 75.1545C42.7027 74.9527 42.9612 74.7727 43.8961 74.7944C44.1527 74.8379 44.3551 74.9286 44.6436 74.9636C44.9302 74.9962 45.2992 74.9672 45.8874 74.7799L45.3517 74.5854C46.9515 74.2712 46.4476 74.8198 48.0493 74.3123C47.7008 74.2652 46.7473 74.4682 46.9759 74.3896C47.9687 73.9679 47.8151 74.392 48.6544 74.2289L48.7162 73.9594C49.149 73.8893 49.5892 73.8108 50.0426 73.7395C50.4978 73.6694 50.9606 73.5993 51.4308 73.5268C51.8972 73.4471 52.3693 73.3661 52.8451 73.2839C53.3191 73.2006 53.7968 73.1123 54.2632 73.0048C54.1209 72.9625 53.7631 72.9685 54.1527 72.7909C56.5544 72.3438 59.0647 71.4713 61.116 70.6665L62.0864 70.6013C62.2775 70.5409 62.3731 70.4007 62.1408 70.4321C62.9145 70.0841 62.2775 70.5385 62.7346 70.4805C63.2198 70.3367 63.2742 70.1639 62.9295 70.2062C64.5368 69.9053 67.3674 69.1029 68.6751 68.3259C68.5608 68.3464 68.4502 68.3682 68.336 68.3863C68.8774 68.1205 69.2895 68.0818 69.6829 68.0371C70.0726 67.9888 70.4547 67.9428 70.8968 67.6335L70.6627 67.6879C71.2584 67.4063 71.886 67.1332 72.5155 66.8649C73.1337 66.5967 73.6639 66.3417 73.9467 66.0674C74.091 65.9309 74.1677 65.7955 74.2108 65.6493C74.252 65.5043 74.2427 65.3508 74.1865 65.2022C74.0816 64.9037 73.8062 64.6318 73.4709 64.459C73.499 64.4167 73.499 64.366 73.4671 64.314C73.439 64.2596 73.3884 64.2016 73.3154 64.1448C73.2479 64.0844 73.1524 64.0325 73.055 63.9769C73.0044 63.9515 72.9519 63.9261 72.8995 63.9007L72.7215 63.8246C72.242 63.624 71.7118 63.479 71.7586 63.2615C71.3727 63.212 71.1011 63.1987 70.88 63.1938C70.6608 63.1878 70.4903 63.1914 70.303 63.1902C69.9208 63.1854 69.4881 63.1721 68.2854 63.0645C67.6503 62.9848 67.4443 62.6585 66.6874 62.4942L66.5863 62.7081L65.6215 62.3153L64.9602 62.4857L64.2576 62.3057C64.5518 62.3419 64.9096 62.3141 64.889 62.244C63.8006 61.9516 62.0752 61.9202 61.9984 62.0253C61.5637 61.9202 61.1348 61.8066 60.7058 61.6918L59.4187 61.351C59.4375 61.4489 59.8702 61.5613 60.1981 61.6833C58.8792 61.1976 59.8365 61.861 58.6282 61.4151C58.8249 61.3994 58.5926 61.2701 58.5832 61.2205C58.4071 61.2217 58.1804 61.2072 57.9275 61.177C57.6746 61.1444 57.3918 61.0985 57.0995 61.0441C56.5132 60.9354 55.8819 60.7916 55.3536 60.6538L55.4884 60.8423C54.4955 60.6671 53.4821 60.4169 52.4386 60.1644C51.9178 60.0363 51.3895 59.907 50.8556 59.7777C50.3254 59.6424 49.7896 59.5082 49.2482 59.3801C50.0631 59.4962 50.0257 59.2037 49.4075 59.0297L49.0272 59.1916C48.6975 58.9572 49.7353 59.2641 48.9935 58.898C48.1729 58.7324 48.306 59.0213 48.7275 59.2037L47.7908 58.8944C47.6952 58.9463 47.9051 59.0358 47.9145 59.1348C47.5904 58.9065 46.0954 58.9318 45.6608 58.55L45.5653 58.6019C45.0276 58.4666 44.5667 58.3446 44.1508 58.231C43.7387 58.1113 43.3696 58.0002 43.0155 57.8926C42.3055 57.6763 41.6443 57.4733 40.7825 57.2328C40.8743 57.0359 40.1774 56.8848 39.7709 56.5875C39.1227 56.4365 38.424 56.2975 37.6971 56.1392C36.9778 55.9737 36.234 55.784 35.4884 55.5471C34.5012 55.1338 35.2954 55.297 34.9039 55.0432C34.6978 55.1931 33.2272 54.6976 33.9054 55.065C33.0249 54.7629 32.4611 54.5707 31.8504 54.346C31.5469 54.2324 31.2246 54.1164 30.8556 53.9641C30.4865 53.8107 30.0594 53.6318 29.5292 53.4107C29.8252 53.4264 30.1212 53.4892 30.0257 53.3853C29.6454 53.221 29.0516 53.14 29.0441 53.2391L29.1358 53.2923C27.9818 52.7521 26.4719 52.3461 25.0144 51.963C24.2857 51.7709 23.5907 51.563 22.9631 51.3492C22.3393 51.1316 21.7904 50.9008 21.3838 50.6302L21.4756 50.6894L19.6547 49.7239C18.7162 49.3855 20.0874 50.061 19.3175 49.8882C18.3677 49.3336 17.536 48.9843 16.7267 48.675C16.322 48.5191 15.9286 48.3717 15.5371 48.2049C15.1455 48.0394 14.7371 47.8376 14.3531 47.5886C13.4314 47.4859 12.2063 46.8648 11.1572 45.9948C10.6364 45.5585 10.1661 45.0558 9.81582 44.5314C9.46737 44.0057 9.24439 43.462 9.10388 42.9871C9.17133 43.0233 9.23883 43.0572 9.30815 43.091C9.39245 42.8517 9.37936 42.7128 9.3344 42.581C9.29881 42.4517 9.22384 42.3285 9.25756 42.1496C9.38121 42.2197 9.32308 42.6777 9.48606 42.3974C9.61157 41.9164 9.90009 41.4319 10.2935 41.0162C10.6888 40.5969 11.1871 40.2331 11.7378 39.9238C12.2905 39.6132 12.8994 39.3619 13.5438 39.1528C13.7049 39.1021 13.866 39.0489 14.0346 39.0066C14.1995 38.9595 14.3662 38.916 14.5386 38.8785C14.8758 38.7964 15.2335 38.7323 15.5708 38.6791C16.9439 38.4616 18.3247 38.423 19.6229 38.4375C20.2748 38.4447 20.908 38.4677 21.5224 38.4942C22.1257 38.5196 22.7289 38.545 23.3265 38.5704C24.1958 38.6127 24.4149 38.7964 24.6978 38.9498C24.9807 39.1045 25.3292 39.2241 26.4494 39.1311L25.8593 38.858C26.7267 38.9764 27.6109 39.0695 28.5026 39.125C29.3944 39.1782 30.2935 39.2181 31.189 39.2483C32.0864 39.2712 32.98 39.293 33.8661 39.3305C34.7522 39.3595 35.6289 39.3993 36.4907 39.4755C36.2865 39.4163 36.2827 39.345 35.9455 39.3401C36.6799 39.1879 38.6413 39.3534 38.6544 39.4972C39.1939 39.4839 38.7799 39.3691 39.1115 39.299C39.8421 39.2048 40.9511 39.5129 41.337 39.3377C41.4026 39.3087 41.131 39.2833 40.9961 39.2712C41.4738 39.351 43.2161 39.2302 42.7665 39.4356C43.4128 39.374 44.0347 39.3824 44.6229 39.3897C45.2111 39.3957 45.7675 39.4042 46.2808 39.3232C46.974 39.5238 48.4895 39.1395 48.7331 39.4477C48.6094 39.1238 50.9718 39.0791 51.8129 39.1891C51.5263 39.1069 52.5098 39.0441 52.1707 38.9269C53.1018 38.8749 53.9636 38.8846 53.8268 39.0622C54.6567 38.8205 55.5259 38.8266 56.3071 38.8374C56.6968 38.8411 57.064 38.8447 57.3862 38.8096C57.7084 38.7746 57.9875 38.6973 58.203 38.5523C58.8999 38.5366 59.5855 38.5184 60.258 38.4979C60.9305 38.4725 61.5919 38.4375 62.2438 38.4048C63.5514 38.3444 64.8122 38.2381 66.0598 38.139C65.88 37.8272 63.321 38.4157 63.3397 38.0653C64.5237 37.9988 65.4753 38 66.4158 37.9674C67.3525 37.9263 68.291 37.8623 69.4262 37.6738C69.9957 37.5493 69.0516 37.5819 68.8268 37.5505C69.9995 37.4707 71.0786 37.2919 72.1108 37.0889C73.1411 36.8847 74.1134 36.6599 75.0801 36.469C75.0539 36.4424 74.8384 36.4726 74.6342 36.5004C74.8197 36.4557 75.0183 36.3808 75.1794 36.3397C75.3387 36.295 75.4604 36.2817 75.4923 36.3554C75.3667 36.3796 75.245 36.4049 75.1176 36.4267C74.8984 36.6092 75.3311 36.6104 75.8407 36.5572C76.3484 36.5028 76.9273 36.3892 77.0022 36.4219C76.5357 36.353 76.959 36.1657 77.2944 35.9699C77.6372 35.773 77.8845 35.582 77.2269 35.5579C77.4555 35.4902 77.7683 35.4213 77.817 35.5216C77.9519 35.4358 78.0269 35.3693 78.0156 35.3319C78.0044 35.2944 77.9164 35.2908 77.714 35.3198C77.9932 35.2014 78.1861 35.1265 78.3304 35.0733C78.4746 35.0213 78.5833 34.996 78.6788 34.9657C78.8699 34.9065 79.0592 34.8522 79.4338 34.5416C79.3402 34.4993 79.164 34.6081 78.9804 34.6105C79.1228 34.5621 79.2502 34.5041 79.3907 34.4449C79.5237 34.3821 79.6549 34.3108 79.7822 34.2274C80.0314 34.0582 80.2637 33.8311 80.4117 33.5133C80.3236 33.5326 80.2974 33.4456 80.1757 33.6196C80.5372 33.1217 80.8257 32.6722 80.9794 32.1731C81.1255 31.6765 81.1142 31.1146 80.7021 30.5128C80.6328 30.6288 80.5691 30.6602 80.5185 30.6457C80.4679 30.6312 80.4211 30.5708 80.3593 30.4983C80.3012 30.4258 80.2394 30.34 80.1644 30.2747C80.0857 30.2107 79.9902 30.1696 79.8834 30.1817C79.7916 29.9678 79.6643 29.7588 79.5312 29.5473C79.6643 29.6029 79.7822 29.6645 79.9115 29.7262C79.8572 29.6597 79.8066 29.592 79.7597 29.5243C79.7073 29.4591 79.6567 29.3926 79.6099 29.3274C79.52 29.1932 79.4226 29.0652 79.3214 28.9395C79.2277 28.8114 79.1116 28.6942 78.9898 28.583C78.8718 28.4694 78.7237 28.3727 78.5626 28.2869L78.7313 28.496C78.7856 28.5661 78.8325 28.6386 78.8831 28.7099C78.7182 28.5516 78.5271 28.4054 78.3435 28.2543C78.2479 28.1806 78.1467 28.1105 78.0475 28.038L77.8995 27.9305L77.7421 27.8278C77.8864 27.887 78.025 27.9522 78.1618 28.0199C78.2986 28.0876 78.4409 28.1516 78.5701 28.2253C78.321 27.9438 78.4222 27.9003 78.4821 27.8519C78.5102 27.829 78.5233 27.8048 78.4671 27.7516C78.439 27.725 78.3922 27.6912 78.3211 27.6465C78.2461 27.6042 78.1468 27.551 78.0138 27.4858C78.0569 27.5208 78.0306 27.5112 77.9613 27.4749C77.892 27.4387 77.7777 27.3758 77.6316 27.313C77.3506 27.1788 76.9572 27.0338 76.6781 27C76.6781 27 76.6799 27.0012 76.6799 27.0024C76.3558 26.7535 76.0056 26.4852 75.3049 26.3076C75.0726 26.3209 75.2075 26.6169 75.0557 26.6266C74.9396 26.449 74.4394 26.2581 73.9149 26.072C73.3885 25.8871 72.8339 25.7094 72.6185 25.5209C72.7777 25.6249 72.699 25.759 72.6185 25.7674L72.3487 25.4956C71.8822 25.4339 71.8017 25.4484 71.8074 25.5705C70.4829 25.2744 72.4218 25.3506 70.7751 25.1053C70.8912 25.1488 70.8182 25.1596 71.058 25.249C69.4469 24.9397 68.0399 24.4406 66.5263 24.1724C65.9474 24.327 67.7777 24.5361 67.1595 24.6364C66.1105 24.3609 65.0482 24.0382 64.0066 23.7011C63.484 23.5355 62.9613 23.3736 62.4424 23.225C61.9216 23.0763 61.4083 22.9313 60.8931 22.8153L61.2865 22.8866C61.2584 22.6715 60.8556 22.6172 60.3423 22.5616C59.8309 22.5072 59.209 22.4504 58.7575 22.2232C58.9879 22.3175 58.9542 22.5096 58.913 22.4516C58.2067 22.2897 57.5173 22.0734 56.7529 21.8124C55.9942 21.5453 55.1681 21.2251 54.1733 20.871L54.3644 21.0354C53.5027 20.8819 52.2307 20.4433 51.3389 20.2233C51.1497 20.0566 50.6533 19.9128 51.0467 19.8789C50.2955 19.7956 49.6154 19.6348 48.9822 19.4379C48.3453 19.2433 47.7683 18.9944 47.195 18.7563C46.0467 18.2802 44.9733 17.7824 43.6526 17.5878C43.9261 17.6845 44.2407 17.8923 44.0216 17.8162C43.3921 17.5649 42.772 17.3014 42.1519 17.038C42.4329 16.9486 42.4817 17.0428 42.9856 17.0767C42.817 16.9002 42.3337 16.6344 41.8579 16.4604C42.6372 16.8737 41.6442 16.6912 41.1965 16.6344C41.2995 16.6126 41.2152 16.5172 41.2864 16.4833C40.05 16.3698 41.3801 16.1305 39.8646 15.7873L39.8665 15.89C39.3944 15.6568 39.0178 15.3789 38.452 15.1904C38.0699 15.2689 38.9185 15.4755 38.8267 15.6254C38.4446 15.4743 38.1411 15.2472 37.8301 15.0442C37.5173 14.8411 37.1951 14.6647 36.7717 14.6091C37.0508 14.7843 37.5154 14.9704 37.7945 15.1457C36.8597 15.0393 36.8185 14.9559 36.2303 14.7638L36.2902 14.7819L35.6027 14.568L34.9207 14.3457L35.2973 14.4291C35.0351 14.0194 34.5761 13.8007 34.0571 13.5832C33.7986 13.4744 33.5214 13.3669 33.2535 13.2328C32.9856 13.0974 32.7214 12.9403 32.4816 12.7349C33.4295 13.5228 32.5266 12.973 32.431 13.1953C32.0582 13.1071 31.5112 12.9524 31.5955 13.0636C31.1572 12.6588 30.4753 12.753 29.8796 12.1633C29.7803 12.2044 29.2464 11.8854 29.2202 12.0908C28.5064 11.7005 29.5105 12.0715 29.5236 11.97C28.5625 11.2486 26.5112 10.9501 25.1549 9.88672C24.5049 9.48433 24.1808 9.19432 23.8773 8.91276C23.5738 8.63 23.2872 8.3557 22.7626 7.94605C22.5041 7.86146 22.5116 7.95813 22.5921 8.07776C22.6708 8.19618 22.8189 8.33636 22.8189 8.33636C22.0471 8.01009 21.5805 7.66569 21.1347 7.18233C21.1721 7.30801 20.9923 7.25363 20.73 7.16421C20.5277 6.9757 20.5371 6.87661 20.5203 6.77027C20.4996 6.66393 20.4434 6.5588 20.1324 6.33163C20.1137 6.4573 20.05 6.64219 20.1512 6.87057C19.7521 6.37996 19.5142 5.83377 19.3081 5.2924C19.1826 5.24407 19.1508 5.34074 19.1696 5.47608C19.1902 5.61143 19.2407 5.78905 19.2576 5.8966C19.0796 5.59088 18.8735 5.18848 18.7967 4.82596C18.7518 4.64592 18.7405 4.47674 18.7461 4.34019C18.7611 4.20243 18.7967 4.09852 18.8586 4.04293C18.9335 4.17102 18.9915 4.29911 19.0796 4.42116C19.0177 4.20002 18.7837 4.33899 18.7911 4.51542C18.7799 4.658 18.8042 4.77643 18.8511 4.8731C18.8979 4.96977 18.9523 5.0459 19.0216 5.10027C19.1564 5.21145 19.2988 5.24891 19.3569 5.25011C19.3101 5.12082 19.2595 4.99394 19.2295 4.86343C19.6229 4.99636 19.7878 5.35162 19.9938 5.76973C20.1962 6.18663 20.464 6.66151 20.8462 6.96845C20.8668 6.82223 20.8968 6.67602 20.9343 6.53101C21.0523 6.79323 21.2021 7.05063 21.3651 7.31043C21.633 7.38898 21.9346 7.3636 21.6199 7.04941C21.9739 7.21013 22.0676 7.31405 22.1538 7.41315C22.2437 7.5086 22.3205 7.60286 22.6671 7.70798C22.7514 7.72611 22.742 7.69954 22.7045 7.65724C22.86 7.80346 23.0268 7.94604 23.1936 8.08863C23.143 7.97142 23.5157 7.99317 23.1092 7.80345C23.7255 8.06447 24.1096 8.35085 24.4281 8.58649C24.7465 8.81971 24.9938 8.99975 25.3217 9.0203L25.243 8.95627C26.0017 9.39975 25.998 9.46017 25.9137 9.51575C25.8331 9.57013 25.6776 9.61604 26.1815 10.0172L27.5247 9.97252L27.4854 10.2275C27.6652 10.3012 28.0193 10.4474 28.0361 10.3471C28.5382 10.7701 27.8395 10.3737 28.0811 10.6637C28.5832 10.7785 29.1395 11.0589 29.6322 11.286C30.1249 11.5144 30.5539 11.6896 30.8031 11.5881C30.9548 11.8624 29.8871 11.3332 30.6795 11.8334C31.264 11.6389 31.6649 12.3458 32.5922 12.5391C32.5229 12.2733 31.7004 12.0413 32.6259 12.2322C32.7158 12.4703 33.1092 12.6189 33.5532 12.7494C33.9972 12.8811 34.5011 12.9838 34.8027 13.1482C34.6154 13.379 36.1385 13.8466 37.1969 14.3626C37.1969 14.3107 37.7552 14.4907 38.452 14.7264C39.1489 14.962 39.9995 15.2351 40.5633 15.3982L40.5671 15.3487C40.5633 15.5021 40.8444 15.6725 41.2209 15.8489C41.5994 16.0217 42.0752 16.1958 42.4555 16.3673C42.5454 16.2175 42.4499 16.11 42.0714 15.8888L42.8226 16.1655C42.935 16.3045 43.1355 16.4302 43.602 16.6356L43.5626 16.3927C44.0572 16.5836 44.5237 16.8108 45.0388 17.038C45.5559 17.264 46.1179 17.4924 46.8223 17.6567C46.7623 17.8464 45.3967 17.7582 46.7043 18.3394C46.8279 18.2681 47.0039 18.1328 46.6686 17.9745C46.7791 18.0265 47.0358 18.1908 47.3074 18.2343L46.8729 17.8984C47.5267 18.0337 47.0845 18.128 47.5772 18.2754C47.6709 18.1449 48.0062 18.3044 48.0175 18.1799C47.9051 18.1268 47.5566 18.0917 47.4142 17.9805C47.9743 18.1388 48.6862 18.2826 48.9785 18.2585C48.8736 18.3153 48.8418 18.4313 49.2258 18.5787C50.2524 18.9183 49.6997 18.5388 50.3517 18.6645C50.5334 18.8337 51.2621 18.9521 51.1328 19.1491C51.4363 19.2445 51.56 19.1732 51.7155 19.1587C52.1857 19.4125 54.2127 19.9526 53.454 19.9744L53.306 19.9454C53.3284 19.9575 53.3584 19.9672 53.3884 19.9804C53.3846 19.9792 53.3884 19.9804 53.3846 19.9792L53.3884 19.9804C54.1996 20.3514 55.1512 20.5907 56.1048 20.8191C57.0564 21.0511 58.0268 21.248 58.8923 21.5381L58.9336 21.4716C59.9452 21.8486 61.2884 22.1507 61.9665 22.4975C62.285 22.5821 62.7927 22.5712 62.7046 22.4564C63.5008 22.7114 63.5495 22.8093 64.8084 22.9954C64.0459 22.6727 65.155 22.9628 64.0066 22.6981C65.1157 22.9072 65.4154 22.8625 66.472 23.3156C66.176 23.051 67.4068 23.289 67.892 23.4606L67.0659 23.4075C67.6298 23.567 68.1411 23.6733 68.6676 23.7736L68.5121 23.4824C69.696 23.5947 70.6533 23.9403 71.5469 24.2642C72.4443 24.5893 73.2629 24.8853 74.2689 24.9179C74.5087 25.0835 74.1865 25.0182 73.8568 24.9566C73.5252 24.8986 73.1861 24.843 73.3866 25.0074C73.9055 25.133 74.4806 25.2067 74.9752 25.266C75.466 25.3276 75.8763 25.3711 76.0318 25.4315C76.2154 25.4811 76.3708 25.5306 76.5019 25.5814C76.6312 25.6345 76.738 25.6865 76.8298 25.7384C77.0134 25.8412 77.1296 25.9475 77.2457 26.055C77.3619 26.1626 77.4761 26.2701 77.6447 26.391C77.729 26.4514 77.8283 26.5118 77.95 26.5759C78.0699 26.6435 78.2105 26.716 78.3828 26.7934C78.2573 26.7825 78.1019 26.8018 78.0831 26.8937C78.0738 26.9396 78.0981 27.0036 78.1768 27.0894C78.2517 27.1788 78.3754 27.2936 78.5721 27.4374C78.7763 27.5571 78.9598 27.6441 79.1209 27.6973C79.2783 27.7528 79.4057 27.7794 79.4993 27.777C79.6867 27.7722 79.7316 27.6501 79.5218 27.4495C79.3345 27.3154 79.2108 27.2719 79.1865 27.2985C79.076 27.1994 78.9355 27.0919 78.8774 27.0242C78.8212 26.9565 78.8474 26.9287 79.0685 26.9964L79.0872 27.1257C79.2127 27.1764 79.3776 27.2622 79.5518 27.3589C79.7279 27.4531 79.8965 27.5704 80.0557 27.6658C80.3686 27.8604 80.5915 28.0078 80.5634 27.864C80.7957 28.119 80.7958 28.1951 80.7021 28.1589C80.6103 28.1226 80.393 27.9909 80.1644 27.8362C80.2993 27.922 80.4229 28.0066 80.5391 28.0888C80.6552 28.1709 80.7508 28.2579 80.8482 28.3389C81.0449 28.502 81.1947 28.6712 81.3484 28.838C81.6406 29.1799 81.9122 29.5328 82.2382 30.0077C82.0808 29.8675 81.8561 29.766 81.9441 29.9171C82.1914 30.2542 82.2757 30.4814 82.3244 30.6252C82.3656 30.7714 82.3413 30.8451 82.315 30.9019C82.2532 31.0155 82.1745 31.0699 82.2251 31.5641C82.3525 31.8408 82.463 31.7913 82.5398 31.7913C82.5773 31.7925 82.6035 31.8082 82.6129 31.8892C82.6166 31.929 82.6185 31.9858 82.6129 32.0656C82.5979 32.1454 82.5754 32.2469 82.5417 32.3762C82.5661 32.5369 82.5773 32.6275 82.611 32.6698C82.6429 32.7121 82.6878 32.7048 82.7403 32.6686C82.8508 32.5973 82.9501 32.4052 83.0156 32.2734C82.8526 32.7701 82.7477 33.222 82.6335 33.6317C82.5173 34.0401 82.3956 34.4111 82.1951 34.6733C82.3618 34.5271 82.508 34.3724 82.656 34.2141C82.3937 34.4969 82.212 34.7337 81.9909 34.9621C81.9984 34.8461 82.0021 34.7301 81.9928 34.6129C81.8073 34.8993 81.5806 35.1168 81.6762 35.1506C81.4626 35.2509 81.4271 35.1579 81.3465 35.0975C81.2641 35.0346 81.1517 35.0105 80.7808 35.199C80.6534 35.3778 80.3349 35.5905 80.0464 35.7669C79.9059 35.8587 79.7691 35.9409 79.6773 36.0195C79.5855 36.0992 79.5331 36.1705 79.5518 36.2334C79.8797 36.0183 80.0426 35.9216 80.1269 35.8902C80.2131 35.86 80.2243 35.8986 80.2318 35.9445C80.2393 35.9905 80.2449 36.0436 80.3218 36.04C80.3967 36.0328 80.5559 35.9796 80.8407 35.7814C80.7208 35.8527 80.5915 35.9313 80.4548 36.0207C80.3217 36.1137 80.1738 36.2116 80.0202 36.3252C79.9958 36.3747 80.1176 36.3312 80.2243 36.2841C79.6398 36.7711 79.3851 36.7928 79.1341 36.8097C78.8718 36.8194 78.6001 36.823 77.832 37.136C78.1374 37.1674 77.6635 37.4901 77.3769 37.559C78.0232 37.3173 77.5136 37.2665 76.8635 37.3813C76.3933 37.5988 76.0954 37.6641 75.8575 37.7028C75.6196 37.7414 75.4361 37.7463 75.1682 37.826C75.3649 37.7547 75.5634 37.6846 75.7563 37.6097C75.4678 37.5553 74.9677 37.7148 74.2221 37.8514C74.2183 37.9058 74.3925 37.8828 74.5387 37.8574C74.6829 37.8308 74.801 37.8043 74.6848 37.8586C74.2202 37.855 73.8006 38.0169 73.3304 38.1861C72.862 38.3577 72.345 38.5378 71.7343 38.5631C71.2322 38.7396 71.7792 38.806 71.3259 38.9426C69.9564 38.9873 69.9452 39.3305 68.5458 39.3691C68.8849 39.1504 68.9655 39.183 67.9595 39.1383L69.0928 39.0574C69.4694 39.032 69.8515 39.0018 70.2374 38.9667C69.7222 38.9559 69.2202 38.9329 68.7181 38.9099C69.3851 38.8254 70.1775 38.8314 70.5747 38.7408C69.8384 38.7033 69.9265 38.7347 70.2 38.5474C69.7822 38.7432 69.3083 38.7637 68.8231 38.7758C68.336 38.7879 67.8283 38.7927 67.3224 38.9462L67.4799 39.3631C66.708 39.5625 65.9736 39.5842 65.1831 39.6084C64.7878 39.6205 64.3757 39.6301 63.9355 39.6591C63.4952 39.6881 63.0212 39.7256 62.506 39.8054L63.1599 39.6652C62.8377 39.525 61.8635 39.7703 61.1703 39.7703C61.2659 39.9044 60.8538 40.0023 60.584 40.1135C60.5971 40.0047 59.0478 40.2561 58.7986 39.989L57.8995 40.2573C57.0564 40.3612 56.5525 40.2936 56.0598 40.2235C55.5653 40.151 55.0819 40.0857 54.2707 40.157C54.7859 40.2803 54.061 40.4325 55.1738 40.4676C54.6286 40.5111 54.1396 40.5606 54.1171 40.4639C53.8099 40.5727 52.5754 40.3636 52.092 40.5292C51.8541 40.4809 51.7586 40.3358 51.1478 40.3757C51.0842 40.4084 51.1591 40.4458 51.1591 40.4458C51.1479 40.3757 50.1887 40.3951 50.7058 40.2126C49.8927 40.4748 48.7162 40.528 47.5641 40.5449C46.989 40.557 46.4214 40.5666 45.9062 40.6005C45.391 40.6295 44.9302 40.6802 44.5667 40.7842C43.9691 40.7757 43.3079 40.766 42.6615 40.7564C42.0152 40.7431 41.3839 40.7346 40.8425 40.7334C40.9137 40.7757 40.8462 40.8047 41.0523 40.7878C39.5554 40.934 40.1287 40.389 38.4315 40.5304C37.5604 40.7576 39.3344 40.6597 38.7911 40.7443C38.5495 41.2119 36.7361 40.679 35.5821 40.9255L35.8593 40.9582C34.9732 41.1032 33.7255 40.7479 32.2943 40.7322C32.2943 40.7322 32.3598 40.7757 32.298 40.8035C31.8166 40.6657 31.1159 40.5739 30.3666 40.4796C29.6172 40.389 28.8174 40.3177 28.1355 40.2549C28.5401 40.4567 28.748 40.3794 28.4651 40.5546C27.8525 40.499 28.6787 40.2682 27.461 40.151C27.0508 40.2295 26.1553 40.267 26.0092 40.4603L27.1669 40.5364C26.5394 40.7612 25.6663 40.4434 25.05 40.4543L25.1118 40.5715C23.3415 40.4168 23.3622 40.1328 21.4607 40.0156L21.6724 39.9455C20.6888 39.5891 20.7806 40.0337 19.7933 39.7643L19.4506 40.0337C19.1227 39.983 18.5513 39.8887 17.9069 39.8259C17.2643 39.7631 16.5449 39.7353 15.9511 39.7824C16.3126 39.8464 16.8278 39.8815 17.3599 39.9335C17.89 39.9842 18.4389 40.0495 18.8586 40.1268C18.5345 40.1171 17.993 40.1014 17.4947 40.093C16.9964 40.0809 16.5411 40.0797 16.3632 40.0265C16.6217 40.0289 16.9459 40.0785 17.1913 40.0217C16.4026 39.8368 15.2823 39.8078 14.1115 40.1763C14.3981 40.4011 13.6769 40.6331 13.0305 41.0295C12.7046 41.224 12.4048 41.4597 12.2381 41.6917C12.1501 41.8065 12.1051 41.9213 12.0826 42.0216C12.077 42.1255 12.0808 42.2125 12.1407 42.2826C12.0433 42.4046 11.9627 42.5448 11.9252 42.6874C11.8877 42.8288 11.8728 42.975 11.8971 43.1212C11.9383 43.4136 12.1032 43.7073 12.3504 43.9912C12.8525 44.5628 13.6731 45.0848 14.6117 45.6455C14.0496 45.6081 14.1808 45.6902 14.3925 45.8183C14.6023 45.9452 14.8964 46.1083 14.6154 46.2461C15.0763 46.5252 15.2823 46.6098 15.3535 46.6098C15.9492 46.7875 16.545 46.9409 17.1763 47.098C17.6765 47.1548 16.7454 46.7996 16.8803 46.7379C18.0923 47.208 17.5379 46.7911 18.4202 47.0219C18.1242 47.0871 18.6393 47.3856 19.3643 47.6188L18.2422 47.3905C18.9709 47.8376 19.4074 47.9113 19.8439 47.9826C20.286 48.0502 20.7282 48.1167 21.4775 48.5541L21.0578 48.2218C21.4587 48.4297 22.2568 48.7511 23.0286 49.0967C23.8098 49.4326 24.563 49.7976 24.8571 50.1166C25.0538 50.1323 25.3535 50.1057 24.9901 49.9305C27.1295 50.6821 29.4412 51.9884 31.2902 52.3618L31.204 52.2095C31.5843 52.3739 31.7566 52.6325 32.3449 52.7026C32.3505 52.6542 32.2568 52.5527 32.4498 52.6083C32.639 52.711 33.3996 53.1279 33.9841 53.2463L33.6076 52.9877C35.8256 53.5581 36.693 54.2868 38.4577 54.9127C38.66 54.6215 40.4397 55.0203 41.3239 55.2184L41.3221 55.1689C41.959 55.3453 42.5435 55.5145 43.0924 55.6885C43.6413 55.8637 44.1546 56.0438 44.6604 56.2287C45.1643 56.416 45.6683 56.5936 46.1872 56.7736C46.708 56.9549 47.2456 57.1362 47.8264 57.3174C48.0362 57.3247 48.2741 57.3476 48.5326 57.3827C48.7949 57.4153 49.0778 57.4588 49.3794 57.5132C49.9807 57.6207 50.6495 57.7645 51.3464 57.9204C52.0396 58.0811 52.7702 58.2285 53.4783 58.3723C54.1883 58.5137 54.8778 58.643 55.5091 58.7276C55.1082 58.7059 55.4491 58.9765 55.8688 59.0962C56.4739 59.1518 57.3543 59.6315 57.3993 59.3342L57.1914 59.298C57.7571 59.1119 58.8961 59.4309 59.829 59.5904L59.8141 59.9868C60.4829 59.9674 61.2078 60.0448 61.944 60.168C62.6821 60.2877 63.4372 60.4399 64.1546 60.5958C65.5878 60.9124 66.901 61.1758 67.6597 61.0393C68.2198 61.2242 68.9449 61.3414 69.5125 61.5226L69.5518 61.3172C70.4023 61.4175 71.0823 61.5081 71.8185 61.6616C72.1876 61.7401 72.5735 61.8356 73.0044 61.9722C73.4334 62.1099 73.9111 62.2888 74.4263 62.5582C74.3289 62.4507 74.2277 62.3395 74.1153 62.2356C74.2764 62.2996 74.4075 62.3746 74.5218 62.4483C74.6361 62.522 74.7373 62.6114 74.8178 62.6911C74.9733 62.8579 75.0614 63.0222 75.1213 63.1842C75.2431 63.5129 75.2899 63.8089 75.5559 64.1835C75.7582 64.2149 75.9531 64.2572 76.1517 64.308C76.3877 64.7128 76.5394 65.1647 76.5019 65.6505C76.5001 65.7713 76.4645 65.8934 76.4364 66.0154C76.399 66.1363 76.3503 66.2595 76.2884 66.378C76.1573 66.6172 75.9812 66.8432 75.7676 67.0365C75.3405 67.4268 74.829 67.7036 74.3513 67.9114C74.1096 68.0153 73.8755 68.106 73.6413 68.1809C73.4071 68.2582 73.1674 68.3283 72.9201 68.3924C72.9876 68.4177 73.1149 68.4697 73.4091 68.3585C72.9969 68.5362 72.2476 68.9277 71.5769 69.1971C70.9044 69.4654 70.3311 69.6298 70.3142 69.3893C70.4135 69.5077 69.9658 69.7059 69.342 69.8896C68.72 70.0744 67.9426 70.2617 67.4068 70.3922L67.714 70.5107C66.6818 70.5868 66.6013 70.5312 65.3836 70.8816C65.1269 71.0025 65.2599 71.11 65.5896 70.9348C64.7409 71.3493 64.726 71.0097 63.6751 71.4834L64.1883 71.4581C63.2366 71.7904 63.2667 71.7082 62.6279 71.7372C61.961 71.852 60.8219 72.3583 60.7901 72.5625C60.584 72.4997 59.9508 72.5202 59.4037 72.7365C59.3681 72.8223 59.6061 72.8006 59.726 72.7885C59.3345 72.9383 58.9786 73.0483 58.6432 73.1256C58.306 73.203 57.9969 73.2561 57.7046 73.3081C57.1183 73.4072 56.6105 73.5075 56.086 73.7407C56.101 73.8084 56.043 73.8591 55.9587 73.9014C56.6312 73.7359 57.2232 73.5655 57.641 73.4483C58.0587 73.3299 58.2966 73.2586 58.2423 73.2658C58.3566 73.4374 57.2981 73.7576 58.3097 73.7637C57.8339 73.8144 57.1839 73.8736 56.5244 73.9546C55.8631 74.0307 55.1962 74.1395 54.6922 74.3123C54.651 74.3425 54.6098 74.3715 54.5873 74.4077L54.7092 74.4005C54.475 74.4802 54.2445 74.5141 54.0197 74.5322C53.6956 74.6398 53.4896 74.7111 53.1636 74.7896C53.1412 74.8766 52.8358 74.9684 52.4686 75.0566C52.1033 75.1449 51.6686 75.2149 51.3951 75.2778C51.3408 75.0748 50.6364 75.2585 51.2284 74.9551C51.1479 74.9878 51.3445 74.9564 51.7136 74.8875C51.7998 74.8754 51.8972 74.8573 51.959 74.8573C51.9459 74.8536 51.9291 74.8512 51.9122 74.8488C52.2756 74.7775 52.7439 74.67 53.276 74.5527C52.7889 74.5527 52.3019 74.5805 51.7511 74.8162C51.4045 74.7521 51.0298 74.6893 50.8238 74.6663C50.5184 74.879 50.0238 75.105 49.5817 75.2911C49.1396 75.4772 48.7593 75.6367 48.6956 75.7394C46.9534 75.969 44.6342 76.3895 43.4184 76.1817C42.9144 76.2095 42.8994 76.3786 42.7365 76.4632C43.0324 76.4584 43.364 76.398 43.5364 76.4282C43.2835 76.4415 42.9762 76.4789 42.6503 76.5116C42.3243 76.5442 41.9796 76.5828 41.6593 76.6119C41.0148 76.6699 40.4603 76.6977 40.3029 76.5792C39.1002 76.8511 41.0766 76.7351 39.3569 76.9019L39.6116 76.9538C38.8024 77.1629 38.0418 77.2704 37.298 77.3091C36.5562 77.349 35.8406 77.3526 35.11 77.3345C33.6525 77.3127 32.1726 77.2922 30.3292 77.6789C30.5858 77.6305 30.7132 77.6076 30.76 77.5604C29.6941 77.6777 28.6057 77.7671 27.5041 77.7973C26.9533 77.8142 26.4007 77.8372 25.8462 77.8396L24.1845 77.8468C21.9683 77.8396 19.769 77.8166 17.6259 77.9375C16.4082 77.9834 16.2902 77.8021 15.5689 77.639L15.2842 77.8456C14.872 77.7417 14.4617 77.6426 14.0552 77.5351C13.1785 77.3864 12.3917 77.4783 11.5412 77.5302C11.1178 77.5532 10.6775 77.5713 10.2073 77.5496C9.97128 77.5387 9.72963 77.5181 9.47673 77.4843C9.2257 77.4493 8.96526 77.3937 8.69363 77.3248L9.01588 77.2064C8.61124 77.181 7.97996 77.0976 7.46103 77.0432C6.94211 76.9925 6.53931 76.9514 6.58427 77.0457C6.50933 77.0094 6.36134 76.8644 6.02975 76.9043L5.9735 77.0142C5.33468 76.8729 4.69592 76.7387 4.06648 76.5828C2.5247 76.4596 4.16386 77.0662 1.93269 76.7798C1.12152 76.6106 -0.285385 76.0995 0.051819 76.0717C0.383408 76.1164 0.921105 76.1309 0.986672 76.0222L0.263489 75.8506C0.252251 75.5013 -0.173012 75.082 1.70785 75.1267C2.10125 75.256 2.49471 75.3914 2.89187 75.5146L3.35271 75.4083C3.00052 75.3587 2.64648 75.308 2.29803 75.2488C2.94621 75.1932 3.28335 75.3672 3.68238 75.5195C3.81164 75.4482 4.00649 75.4119 4.26689 75.4131C4.64531 75.5726 5.02557 75.737 5.41149 75.8868C5.59882 75.7744 4.92821 75.5654 5.78433 75.5896C6.32574 75.8034 5.13987 75.8167 6.08217 76.0246C6.73222 75.9436 6.58617 75.7998 7.2662 76.0113C7.38796 75.9376 7.25116 75.8651 6.97952 75.795C7.58649 75.9726 8.65055 76.0064 8.93905 76.2179C9.61346 76.1019 11.0897 76.4475 11.0859 76.1285C11.2714 76.2215 12.165 76.4693 12.7551 76.514C11.7379 76.0644 14.9638 76.6336 14.7334 76.1962C15.1099 76.3859 15.8255 76.456 16.6198 76.5103C17.416 76.5539 18.2909 76.5768 18.9934 76.6916C18.9147 76.6626 18.763 76.6022 18.6375 76.6167C19.4355 76.6094 19.6716 76.4995 20.183 76.4427C20.2767 76.7267 21.5187 76.8112 22.1931 76.9756C23.171 76.6964 21.5955 76.6457 21.9028 76.3798C21.8522 76.6106 23.6 76.5998 23.274 76.7931C24.0178 76.6203 23.9166 76.7013 24.2913 76.4596C24.4393 76.8112 24.9882 76.5043 25.6214 76.7085C26.1572 76.6106 26.219 76.5212 26.2977 76.4705C26.3764 76.4197 26.4719 76.4028 27.0676 76.4342C27.6446 76.3061 26.5843 76.2215 26.5843 76.2215ZM54.3045 73.0688C54.3026 73.0664 54.3026 73.0652 54.3026 73.0652C54.0721 73.1172 53.8755 73.1619 53.75 73.1909C53.8661 73.1655 54.0253 73.1305 54.3045 73.0688ZM56.5263 72.5069C56.2621 72.5867 55.9306 72.6797 55.5728 72.7655C55.5353 72.8501 55.6608 72.8972 55.8838 72.8368C55.8088 72.8296 55.8987 72.7849 56.0411 72.7232C56.1816 72.6592 56.3783 72.5782 56.5263 72.5069ZM52.5229 74.9938C52.9013 74.937 53.0025 74.8718 53.0325 74.8198C52.8582 74.8561 52.654 74.8959 52.3843 74.9431C52.3693 74.9382 52.3431 74.9346 52.3281 74.9298C52.3824 74.9588 52.4404 74.9841 52.5229 74.9938Z" fill="#7EAF15"/>
<path d="M51.7316 74.8848C51.6773 74.8921 51.6436 74.8896 51.5743 74.9031C51.6398 74.8701 51.7034 74.8396 51.769 74.8127C51.8233 74.8237 51.8796 74.8347 51.9302 74.8457C51.8646 74.8591 51.7953 74.8725 51.7316 74.8848Z" fill="#7EAF15"/>
<path d="M53.4635 19.9734L53.5125 19.9843C53.4691 19.9788 53.4277 19.9761 53.3956 19.9802C53.4352 19.9815 53.439 19.9761 53.4635 19.9734Z" fill="#7EAF15"/>
<path d="M66.5609 62.7564L66.5833 62.7068L66.7726 62.783L66.5609 62.7564Z" fill="#7EAF15"/>
<path d="M41.2062 16.6352C41.1706 16.6429 41.1125 16.6429 41.0132 16.6237C41.0301 16.6134 41.1107 16.6224 41.2062 16.6352Z" fill="#7EAF15"/>
<path d="M36.2405 14.7626L35.4893 14.5457C35.8209 14.6329 36.0569 14.702 36.2405 14.7626Z" fill="#7EAF15"/>
<path d="M32.4364 13.2991C32.4213 13.2494 32.4308 13.2203 32.4402 13.1949C32.444 13.1961 32.4459 13.1961 32.4478 13.1973L32.4364 13.2991Z" fill="#7EAF15"/>
<path d="M74.6347 36.4967C74.5823 36.51 74.5298 36.5209 74.4811 36.5281C74.1139 36.5874 74.3574 36.5366 74.6347 36.4967Z" fill="#7EAF15"/>
<path d="M76.6833 27.001C76.82 27.1146 76.9567 27.2234 77.1104 27.3285C76.8144 27.2016 76.5877 27.1001 76.6833 27.001Z" fill="#7EAF15"/>
<path d="M52.1657 38.9175C52.1675 38.9188 52.1657 38.9188 52.1694 38.9214C52.1204 38.924 52.0771 38.9278 52.0262 38.9304L52.1657 38.9175Z" fill="#7EAF15"/>
<path d="M77.8107 27.7115C77.5147 27.5835 77.2918 27.4638 77.11 27.3273C77.3442 27.436 77.6346 27.5569 77.8107 27.7115Z" fill="#7EAF15"/>
<path d="M18.4527 4.65295L18.3849 4.50631C18.4056 4.50631 18.4207 4.4942 18.4282 4.48208L18.4527 4.65295Z" fill="#7EAF15"/>
<path d="M18.4328 4.48157C18.4234 4.42582 18.4197 4.36886 18.4178 4.31191C18.4367 4.38825 18.4573 4.4537 18.4328 4.48157Z" fill="#7EAF15"/>
<path d="M18.4077 3.95591C18.3982 4.07554 18.4133 4.19275 18.4152 4.31238C18.3832 4.19154 18.3266 4.04412 18.4077 3.95591Z" fill="#7EAF15"/>
<path d="M21.7267 8.07908L21.6927 8.16333C21.6833 8.13524 21.6927 8.10716 21.7267 8.07908Z" fill="#7EAF15"/>
<path d="M23.0466 8.91382C22.7019 8.74343 22.0574 8.55615 21.6715 8.23109L21.6959 8.16341C21.7372 8.26854 22.0275 8.39784 22.3329 8.52351C22.6364 8.6516 22.953 8.77969 23.0466 8.91382Z" fill="#7EAF15"/>
<path d="M29.8395 11.0686C29.4199 10.9006 28.9928 10.7387 28.5788 10.5659C28.8598 10.5997 29.2288 10.6432 28.7023 10.3726C30.4296 10.8789 28.2247 10.3762 29.8395 11.0686Z" fill="#7EAF15"/>
<path d="M33.7257 12.6429C33.0981 12.3263 33.8306 12.5511 33.8344 12.4991C34.1922 12.7396 34.2802 12.7964 33.7257 12.6429Z" fill="#7EAF15"/>
<path d="M63.0666 22.4673L63.0966 22.2758C63.6511 22.4418 63.061 22.3437 63.0666 22.4673Z" fill="#7EAF15"/>
<path d="M68.5162 24.7886L67.8923 24.7692L67.7087 24.5481L68.5162 24.7886Z" fill="#7EAF15"/>
<path d="M72.7745 24.3934L72.5328 24.3027C72.8476 24.4054 73.1623 24.5166 73.4733 24.6254L72.7745 24.3934Z" fill="#7EAF15"/>
<path d="M45.8968 40.9797L46.0672 40.7453C46.4887 40.7707 46.5956 41.0244 45.8968 40.9797Z" fill="#7EAF15"/>
<path d="M21.669 40.163C21.3861 40.256 20.7061 40.279 20.3183 40.14C20.8485 40.1594 21.4011 40.1135 21.669 40.163Z" fill="#7EAF15"/>
<path d="M61.1075 59.926L60.6804 59.7661L61.5215 59.9915L61.1075 59.926Z" fill="#7EAF15"/>
<path d="M18.2073 67.7309C18.2672 67.7806 18.374 67.9042 18.3253 67.8908L18.1154 67.6921L18.2073 67.7309Z" fill="#7EAF15"/>
<path d="M18.3874 68.1808C18.2638 68.0938 18.0634 67.9331 17.906 67.7361C18.1215 67.921 18.0521 67.8364 18.305 68.0575C18.3537 68.0708 18.2882 67.9741 18.2133 67.8992C18.2714 67.9488 18.2114 67.8376 18.3463 67.9621C18.4606 68.1349 18.425 68.1578 18.2564 68.0442C18.2901 68.0938 18.35 68.1433 18.3874 68.1808Z" fill="#7EAF15"/>
<path d="M16.187 69.5161L16.1796 69.4852C16.187 69.5 16.1889 69.5099 16.187 69.5161Z" fill="#7EAF15"/>
<path d="M14.7809 70.281C14.7975 70.281 14.8233 70.298 14.8418 70.3162C14.8178 70.3077 14.7956 70.2992 14.7809 70.281Z" fill="#7EAF15"/>
<path d="M14.7521 70.612C14.7503 70.6033 14.7521 70.5984 14.7521 70.591C14.765 70.612 14.7706 70.6256 14.7521 70.612Z" fill="#7EAF15"/>
<path d="M16.1881 69.5154L16.2108 69.5972C16.141 69.5324 16.1825 69.5386 16.1881 69.5154Z" fill="#7EAF15"/>
<path d="M17.5677 67.825C17.5866 67.8312 17.6111 67.8483 17.6431 67.8704C17.628 67.8642 17.613 67.8593 17.5998 67.8569C17.5885 67.8459 17.579 67.8361 17.5677 67.825Z" fill="#7EAF15"/>
<path d="M17.0245 69.3966L17.0378 69.3918C17.0661 69.4147 17.0962 69.4413 17.1301 69.4691L17.0245 69.3966Z" fill="#7EAF15"/>
<path d="M17.5768 69.2153C17.5731 69.2274 17.4008 69.0566 17.3221 68.9827C17.3989 69.0505 17.4401 69.082 17.4626 69.0905C17.4944 69.1232 17.5319 69.1632 17.5768 69.2153Z" fill="#7EAF15"/>
<path d="M18.1192 68.5758L18.1561 68.5941C18.1469 68.588 18.1339 68.5843 18.1192 68.5758Z" fill="#7EAF15"/>
<path d="M16.6932 69.5881C16.7177 69.6137 16.7384 69.6381 16.7497 69.6515C16.7271 69.6295 16.7083 69.6088 16.6932 69.5881Z" fill="#7EAF15"/>
<path d="M1.57165 75.4281C1.58642 75.4393 1.59749 75.4455 1.61041 75.4541C1.58641 75.4417 1.5698 75.4306 1.57165 75.4281Z" fill="#7EAF15"/>
<path d="M2.14828 76.4754L2.16715 76.4791C2.21052 76.506 2.25198 76.5328 2.29346 76.5597L2.14828 76.4754Z" fill="#7EAF15"/>
<path d="M14.518 71.0357C14.518 71.0331 14.518 71.0331 14.5162 71.0317C14.5472 71.0462 14.538 71.0449 14.518 71.0357Z" fill="#7EAF15"/>
<path d="M10.2075 72.9177C10.0783 72.751 9.9059 72.7727 9.78226 72.5782C9.85345 72.6446 10.1513 72.7957 10.2075 72.9177Z" fill="#7EAF15"/>
<path d="M17.5739 67.853C17.5648 67.8542 17.5557 67.8555 17.5502 67.8605C17.5557 67.8504 17.563 67.8479 17.5739 67.853Z" fill="#7EAF15"/>
<path d="M9.78381 72.578L9.78192 72.5768L9.77083 72.5579C9.77637 72.5667 9.78012 72.5717 9.78381 72.578Z" fill="#7EAF15"/>
<path d="M13.346 71.423C13.3158 71.3928 13.2951 71.3686 13.2762 71.3456C13.2951 71.3626 13.3158 71.3843 13.346 71.423Z" fill="#7EAF15"/>
<path d="M13.8784 70.8204L13.8821 70.8525C13.8728 70.834 13.8747 70.8253 13.8784 70.8204Z" fill="#7EAF15"/>
<path d="M12.6706 71.3811C12.6743 71.3996 12.6965 71.4243 12.6577 71.4083C12.6503 71.3996 12.6447 71.3922 12.6392 71.386C12.6687 71.4058 12.6872 71.4132 12.6706 71.3811Z" fill="#7EAF15"/>
<path d="M12.2451 71.5836C12.2358 71.5715 12.2248 71.5594 12.2156 71.5473C12.223 71.5485 12.2322 71.5485 12.2396 71.5497L12.2451 71.5836Z" fill="#7EAF15"/>
<path d="M2.86383 74.7625C2.91629 74.8098 2.9781 74.8595 3.03992 74.908C2.89379 74.7977 2.77953 74.7953 2.86383 74.7625Z" fill="#7EAF15"/>
<path d="M17.6604 67.9236C17.6152 67.8809 17.5907 67.8602 17.5756 67.8529C17.5832 67.8529 17.5907 67.8541 17.6001 67.8565C17.6265 67.8821 17.6491 67.9065 17.6604 67.9236Z" fill="#7EAF15"/>
<path d="M11.1845 70.0913L11.1412 70.1481C11.143 70.1227 11.1581 70.1034 11.1845 70.0913Z" fill="#7EAF15"/>
<path d="M5.7865 73.1062L5.74773 73.0963C5.74773 73.0889 5.7588 73.0901 5.7865 73.1062Z" fill="#7EAF15"/>
<path d="M10.9067 70.2226C10.9614 70.2869 10.9859 70.3269 10.9972 70.3547C10.9802 70.3426 10.9632 70.3341 10.9406 70.316L10.9067 70.2226Z" fill="#7EAF15"/>
<path d="M3.04279 74.9093L3.04162 74.9081L3.04279 74.9093Z" fill="#7EAF15"/>
<path d="M2.11606 74.8101C2.17039 74.769 2.42514 74.9829 2.60124 75.0856C2.75298 75.0977 2.42334 74.9225 2.30157 74.8089C2.42147 74.833 2.7193 74.9901 2.73991 74.9623C2.69495 74.9285 2.68373 74.9128 2.61816 74.8777C2.89167 75.0034 2.768 74.8004 3.10708 74.9611C3.08647 74.9418 3.06402 74.9237 3.04342 74.908C3.17642 75.0107 3.32068 75.111 3.42559 75.1811C3.45744 75.1678 3.6541 75.2741 3.478 75.1412C3.46676 75.1545 3.39186 75.1037 3.32442 75.0687L3.43309 75.1073C3.19143 74.9092 3.30195 75.0675 3.10525 74.9321C3.24575 74.9587 3.53048 75.0723 3.49675 74.995C3.24385 74.8101 3.31126 74.9937 3.13516 74.8004L3.17075 74.908C2.80731 74.595 3.15952 74.9515 2.76424 74.6216C2.77361 74.5176 2.99279 74.6542 3.00216 74.5503C3.16702 74.6385 3.21015 74.7013 3.375 74.7907C3.75717 74.8983 2.81667 74.2808 3.25316 74.4669C3.44987 74.5732 3.78712 74.7968 3.67659 74.6373L3.36183 74.4463C3.41616 74.3763 3.83016 74.7122 3.7215 74.5225C3.59037 74.4512 3.55857 74.4935 3.53609 74.4621C3.36187 74.2675 3.74217 74.5539 3.78526 74.5285L3.53609 74.3424C3.66535 74.3183 3.95005 74.3908 4.09618 74.3666C4.01375 74.3158 3.91638 74.2687 3.86018 74.1998C4.11308 74.2168 4.09432 74.0198 4.06434 73.8421L4.33227 73.9739C4.33976 73.9654 4.25167 73.8905 4.19735 73.8675C4.16175 73.7805 4.33974 73.9666 4.45027 74.0149C4.49336 74.0101 4.35853 73.9038 4.2761 73.8663C4.54774 73.9521 4.9149 74.0186 4.76878 73.7986L4.68636 73.7612C4.66575 73.6573 5.21279 74.0427 5.07228 73.8579L5.0217 73.8361C5.07603 73.6814 5.43756 73.7334 5.22587 73.4277C5.5612 73.6464 5.23527 73.2416 5.68113 73.5582C5.55187 73.3503 5.44881 73.3068 5.42445 73.1316C5.43757 73.099 5.74474 73.3068 5.82904 73.3177L5.60429 73.1485L5.89655 73.296L5.65488 73.0772L5.75037 73.1002C5.7485 73.1183 5.81968 73.1945 5.88713 73.2416C6.04823 73.2851 5.87215 73.0434 5.75787 72.9564L6.08763 73.0229C5.99397 72.9564 5.9396 72.9455 5.86279 72.9129C6.16628 73.0446 5.63987 72.7268 5.91713 72.8476C5.95834 72.8911 6.0558 72.9455 6.10263 72.9794C6.00147 72.8585 6.07828 72.815 6.19255 72.8271L6.02763 72.7159C6.0932 72.6289 6.32178 72.6531 6.43605 72.5866C6.46603 72.664 6.74145 72.8633 6.8014 72.8646L6.57839 72.676C6.74699 72.7763 6.63084 72.7643 6.85564 72.8754C6.8725 72.8307 6.61776 72.6543 6.51472 72.6084L6.64964 72.6422C6.5822 72.5866 6.53347 72.5649 6.4398 72.4972C6.60841 72.5975 6.29556 72.2652 6.58031 72.444L6.51289 72.3884C6.62904 72.3232 6.76203 72.357 6.86881 72.3135C7.07301 72.4694 7.06548 72.4138 7.25657 72.5262C7.26219 72.4392 7.18353 72.2737 7.28657 72.2422C7.4458 72.2894 7.47386 72.3667 7.61999 72.4452C7.44202 72.299 7.54321 72.2676 7.36899 72.1879C7.50199 72.1576 7.53761 72.148 7.813 72.1963C7.87294 72.2628 7.88981 72.2966 7.961 72.3413C8.01345 72.3522 7.93845 72.2531 7.84666 72.1854L7.82233 72.1734C8.23821 72.3135 7.62934 71.5752 8.12391 71.8169L8.09958 71.8048L8.41617 71.9003C8.44052 71.8471 8.24756 71.8084 8.17825 71.6972C8.60912 71.8725 8.34311 71.5559 8.65034 71.6622C8.20635 71.1897 8.98382 71.5414 8.76276 71.2091L8.87893 71.3142C9.0288 71.3988 8.84329 71.2381 8.83767 71.2042C8.92947 71.2852 8.91643 71.3118 9.0026 71.3577C9.39788 71.3541 9.33786 70.9529 9.48585 70.7317C9.54767 70.658 10.1678 71.2356 9.99545 70.9323L9.73694 70.7583C10.194 70.8925 10.1172 70.5589 10.5312 70.6641C10.4694 70.6254 10.4019 70.5674 10.3832 70.5771C10.2614 70.4188 10.5219 70.4997 10.6549 70.6133C10.6699 70.5867 10.5425 70.507 10.4938 70.4405C10.4395 70.339 10.7991 70.571 10.6605 70.4224C10.638 70.3982 10.5968 70.3825 10.578 70.3753C10.6811 70.4308 10.6792 70.3003 10.8403 70.4731C10.8216 70.362 11.0576 70.4804 11.0033 70.3583C11.2468 70.5215 11.0239 70.2133 11.3274 70.4635C11.022 70.2013 11.2076 70.1904 11.3949 70.2943C11.29 70.2218 11.3406 70.1928 11.1963 70.0901C11.2525 70.0695 11.3555 70.0973 11.4997 70.2375C11.2374 69.8762 11.9775 70.4055 11.5728 69.9729C11.8857 70.0442 12.1348 70.0768 12.339 70.0756C12.0392 69.8122 12.1592 70.1191 11.8538 69.8375C12.1067 69.8859 12.4327 70.0804 12.4907 69.956C12.4832 69.904 12.3446 69.8484 12.2828 69.8085C12.5338 69.8581 12.5095 69.6696 12.7849 69.7626C12.7568 69.7372 12.7155 69.7167 12.6818 69.701C12.7137 69.6998 12.6931 69.6381 12.8223 69.7602L12.7642 69.7372C12.9197 69.9306 13.257 70.0647 13.3619 70.1565C12.9442 69.8254 13.3806 70.0176 12.8411 69.6043C12.8804 69.62 12.9629 69.6696 13.0472 69.7529C13.0434 69.7191 13.0003 69.6684 12.8767 69.5862C13.0303 69.6152 13.1427 69.7578 13.2139 69.7215C13.1502 69.6623 13.1109 69.6466 13.0266 69.5801C13.1896 69.678 13.3506 69.7759 13.36 69.6986C13.3169 69.6647 13.2757 69.6152 13.257 69.6248C13.3844 69.5934 13.7703 69.8496 13.7684 69.6853C13.4593 69.4436 13.7178 69.5826 13.4874 69.3566L13.6223 69.3953L13.7122 69.5149C13.7646 69.4859 13.9876 69.6273 13.9576 69.533L13.819 69.4593L13.9688 69.4557L13.9988 69.5668C14.1768 69.6575 14.2929 69.852 14.3004 69.7578C14.2611 69.7409 14.3529 69.7312 14.2443 69.5862C14.3473 69.6454 14.454 69.7082 14.4372 69.6345C14.3735 69.5584 14.1674 69.3904 14.1244 69.3397C14.3492 69.5149 14.3098 69.3336 14.5552 69.5185C14.4952 69.4762 14.3716 69.359 14.3491 69.3336L14.5309 69.4762C14.5065 69.4158 14.4859 69.3904 14.3829 69.2986C14.4316 69.237 14.6564 69.5946 14.6208 69.4315C14.6002 69.4218 14.5795 69.3977 14.5402 69.382C14.5664 69.2768 14.8212 69.4001 14.8287 69.2877C14.6189 69.0497 14.6957 69.2647 14.5271 69.0617C14.6938 69.0484 15.0648 69.2212 15.1304 69.1173L15.1341 69.1524C15.4807 69.4666 15.0611 68.9554 15.2784 69.0811C15.239 69.0642 15.076 68.9107 15.1172 68.9457C15.1472 68.8587 15.3683 68.953 15.595 69.0013L15.4956 68.9252C15.4694 68.8309 15.5818 68.8285 15.595 68.7681C15.6942 68.8442 15.7111 68.8176 15.8141 68.9457C15.5032 68.4056 16.3761 69.0678 16.1288 68.6146C16.1101 68.6207 16.0146 68.559 16.0277 68.553L16.2281 68.5796C16.3593 68.7246 16.2975 68.6714 16.3799 68.7923C16.4792 68.8696 16.5784 68.9204 16.6084 68.9083C16.4604 68.837 16.3836 68.6811 16.3311 68.5929C16.3705 68.6376 16.4248 68.6823 16.4661 68.727C16.2825 68.4491 16.7583 69.0061 16.6777 68.8019L16.5991 68.7294C16.6702 68.7536 16.7957 68.8394 16.8107 68.8043C16.6646 68.6352 16.7002 68.7427 16.5653 68.6086C16.6253 68.5977 16.9681 68.8781 16.8538 68.6968C16.7882 68.6593 16.7564 68.6714 16.6908 68.6352C16.5503 68.4225 16.6046 68.4696 16.6121 68.4237L16.6121 68.4298L16.6121 68.3077L16.6421 68.3693C17.1217 68.7705 16.8464 68.3947 17.2023 68.6412C16.8632 68.4092 17.0393 68.4938 16.852 68.3101C16.8239 68.2497 16.7995 68.1784 16.7396 68.1301C16.925 68.2642 16.6909 67.9839 16.9607 68.1808C16.9045 68.1192 16.998 68.1579 16.8426 68.0104C16.94 68.0358 16.9307 68.1204 17.0075 68.1929C17.2847 68.3645 16.9587 67.8691 17.3447 68.1035C17.5563 68.1796 17.768 68.3754 17.9572 68.4406C17.8973 68.3319 17.7231 68.2316 17.7231 68.2316C17.6894 68.1228 17.7418 68.124 17.8561 68.1748C17.7961 68.1264 17.7643 68.0769 17.7137 68.0044C17.7662 68.0056 17.9479 68.2134 17.9142 68.1047C17.8411 68.0406 17.7287 67.9379 17.6462 67.8775C17.7437 67.915 17.8954 68.0104 17.9928 68.0467C17.9067 67.9367 17.8148 67.8981 17.7324 67.8364C17.8298 67.863 17.9592 67.8787 18.1315 68.0382L18.1539 68.1107C18.1801 68.1107 18.0284 67.9633 17.9853 67.9391C17.8167 67.8268 17.9741 68.0225 18.0303 68.0841L18.0996 68.1095C18.3993 68.4769 17.9122 68.1047 17.8654 68.1518L18.1371 68.3983L17.8654 68.2122C17.9141 68.2847 18.0415 68.4322 18.1108 68.4575C18.1839 68.6038 17.9816 68.3826 18.0752 68.5409C18.0921 68.5651 18.1053 68.576 18.1203 68.5844L18.0003 68.5264C18.0603 68.5772 18.1652 68.7113 18.1596 68.663C18.2177 68.8442 17.8411 68.5228 17.9966 68.7306L18.0191 68.7439C17.8205 68.7028 17.828 68.5603 17.5282 68.373L17.916 68.8599L17.7231 68.6763C17.7175 68.6883 17.7081 68.7113 17.7849 68.785C17.6163 68.6738 17.7137 68.7004 17.5713 68.5893C17.6781 68.7826 17.3353 68.5723 17.6126 68.8769C17.4533 68.7427 17.5601 68.7451 17.4027 68.6702C17.6969 68.9989 17.2791 68.6436 17.3709 68.8128C17.5489 68.9723 17.5114 68.8648 17.6032 69.0339C17.2997 68.7669 17.5619 69.1367 17.4664 69.1004C17.2472 68.8781 17.2809 69.046 17.1348 69.0025C17.2135 69.075 17.1161 69.1814 17.1273 69.2889L17.1666 69.3252C16.9325 69.1064 16.9025 69.1765 16.807 69.1512C16.9419 69.2841 17.0037 69.3336 17.0917 69.3832L17.0431 69.4013C16.9606 69.3336 16.9082 69.3022 16.852 69.2889L17.0299 69.452C16.9568 69.469 16.704 69.307 16.734 69.4533C16.5729 69.2998 16.3649 68.9904 16.1738 68.924C16.2544 69.0098 16.3968 69.1548 16.453 69.1802C16.4342 69.1717 16.3555 69.121 16.378 69.1632L16.5541 69.2901C16.5784 69.3687 16.4155 69.1802 16.3986 69.2055C16.5204 69.3252 16.4623 69.301 16.5616 69.394C16.5803 69.4025 16.5372 69.3336 16.5971 69.3759C16.5859 69.4122 16.6159 69.5004 16.6946 69.5971C16.629 69.527 16.5317 69.4351 16.4923 69.4303C16.4192 69.4484 16.616 69.5838 16.6403 69.6611C16.541 69.5838 16.5879 69.6877 16.4061 69.5088C16.3893 69.5173 16.4698 69.6031 16.511 69.6539C16.3986 69.5886 16.3349 69.6961 16.1794 69.4895L16.1756 69.4738C16.17 69.4702 16.1682 69.4714 16.1625 69.4678C15.8741 69.3348 16.0408 69.6635 15.8572 69.6321L15.919 69.6913C15.786 69.6502 15.7355 69.7106 15.5594 69.6019C15.5406 69.6103 15.6267 69.73 15.7073 69.7977C15.6117 69.7735 15.5369 69.7082 15.5687 69.8375C15.7242 69.9209 15.6474 69.9366 15.698 69.8919C15.6886 69.9705 15.7729 70.072 15.5369 69.939C15.7167 70.0816 15.6886 70.1517 15.6118 70.1191L15.5425 69.991C15.4863 69.9837 15.4713 70.0091 15.4545 70.0357L15.6792 70.229C15.8066 70.5275 15.0161 69.9149 15.3458 70.3644C15.1659 70.2399 15.312 70.2363 15.1097 70.0852C15.0797 70.1384 15.3195 70.4514 15.3008 70.4599C15.3364 70.6049 14.9186 70.2013 14.9149 70.3136C14.8512 70.2375 14.6602 70.0442 14.5253 70.0043C14.4934 70.0562 14.7688 70.3342 14.8662 70.3753C14.8868 70.3753 14.8699 70.3499 14.8437 70.3257C14.8905 70.3426 14.9467 70.3632 15.0048 70.4502L14.9224 70.3825C14.9692 70.4683 14.8812 70.4949 15.0235 70.6037C14.9074 70.5553 14.8811 70.4949 14.8755 70.4441C14.9092 70.5795 14.7613 70.4985 14.7575 70.6024C14.7276 70.5577 14.6508 70.4695 14.6395 70.4756C14.6208 70.6145 14.4465 70.3632 14.336 70.3668C14.4072 70.4949 14.6282 70.6169 14.454 70.5614C14.4859 70.6556 14.6451 70.7535 14.7257 70.803C14.5103 70.6979 14.692 70.9517 14.6789 70.994L14.7763 71.0338C14.7182 71.0097 14.7013 71.0193 14.6826 71.0278L14.5514 70.8767C14.5571 70.9106 14.5383 70.9202 14.602 70.9783C14.4803 70.8961 14.366 70.7354 14.1843 70.629C14.233 70.7136 14.0139 70.5916 14.2049 70.7837C14.2274 70.6798 14.3978 70.9758 14.5084 70.9722C14.469 70.9565 14.4521 70.965 14.4578 71C14.4765 71.023 14.5027 71.0375 14.5196 71.0459C14.6151 71.2526 14.2498 70.8526 14.1655 70.8973C14.291 70.9976 14.3623 71.1063 14.3229 71.0906C14.3567 71.0725 14.1487 70.907 14.0288 70.8417C14.0606 70.9492 13.8995 70.8091 13.8789 70.832L13.8714 70.7777C13.744 70.6774 13.7309 70.7039 13.6541 70.6894C13.7403 70.7728 13.7515 70.7293 13.7778 70.7716C13.5305 70.6073 13.8864 71.0085 13.6878 70.9118C13.7365 70.9964 13.9014 71.11 13.9295 71.1704C13.7103 71.0653 14.0138 71.348 13.8171 71.2695C13.6822 71.1184 13.7234 71.151 13.5211 71.0375L13.7497 71.081L13.4481 70.9118C13.4818 70.8925 13.6223 70.965 13.6167 70.9311C13.4537 70.8332 13.4949 70.8659 13.3843 70.7414C13.5679 70.9758 13.1502 70.6641 13.2513 70.8332L13.6392 71.1813C13.7254 71.3758 13.2888 71.0737 13.2757 71.2127L13.2438 71.1353C13.0752 71.0036 13.154 71.1474 13.0547 71.1088C13.1877 71.2236 13.212 71.2755 13.2776 71.3553C13.1839 71.2683 13.2045 71.4012 12.9347 71.174L13.0565 71.3492C13.0378 71.4532 12.5826 71.0665 12.5395 71.1462C12.7081 71.2598 12.7605 71.3601 12.9197 71.4229C12.8916 71.4374 12.8898 71.4713 12.7999 71.3903C12.8655 71.4701 12.5432 71.2719 12.6407 71.3939C12.5713 71.3492 12.4289 71.2296 12.4083 71.2538C12.4308 71.2791 12.4739 71.3106 12.4739 71.3106C12.4083 71.2538 12.3353 71.2574 12.2192 71.116C12.5395 71.5184 11.9419 71.2078 12.2192 71.5534C12.1124 71.545 11.9943 71.5438 11.9287 71.5631C11.9718 71.5957 11.9944 71.6199 11.9925 71.603C12.0374 71.7468 11.5634 71.2961 11.6121 71.458C11.7807 71.6646 11.7751 71.5353 11.8276 71.6199C12.2528 72.003 11.6609 71.6199 11.8557 71.8688L11.8951 71.8845C11.9981 72.0344 11.6178 71.7951 11.5747 71.858C11.5747 71.858 11.6178 71.8894 11.6421 71.9148C11.3668 71.7468 11.1963 71.7311 11.0633 71.713C11.2581 71.8483 11.1869 71.7746 11.3481 71.9305C11.2919 71.9256 11.0764 71.6864 10.9621 71.6755C11.0352 71.7661 11.0727 71.8592 11.2544 72.0211L11.3236 72.0006C11.5353 72.2217 11.2375 72.032 11.2487 72.0827L11.3592 72.1709C11.2337 72.1866 10.9639 71.9619 10.8834 72.0271L10.8122 71.9546C10.4919 71.7577 10.9171 72.1033 10.6642 71.9631L10.919 72.1975C10.8179 72.1601 10.5331 72.0404 10.417 72.0296C10.6549 72.1794 10.8329 72.2289 10.9977 72.3051C10.964 72.3244 10.8591 72.3474 10.7055 72.2447C10.7467 72.2592 10.831 72.3063 10.8029 72.264C10.5462 72.1069 10.3851 72.0477 10.3177 72.0876C10.8572 72.5202 10.2671 72.2894 10.6286 72.6543C10.3102 72.5552 10.4694 72.8476 10.297 72.8936C9.93173 72.5286 10.2427 72.9056 9.82686 72.5528C9.76691 72.548 9.75938 72.56 9.78561 72.5842L9.93928 72.8428C10.0404 72.9564 10.0648 72.9032 10.1585 72.983C10.1191 73.047 10.3101 73.1461 10.3757 73.2621C10.2315 73.1328 10.1303 73.0978 10.149 73.1654L10.0104 72.9757C9.68074 72.8428 10.282 73.3117 9.95419 73.1812L10.1209 73.2742C9.98794 73.2367 9.93176 73.3745 9.53461 73.1244C9.57582 73.1691 9.6807 73.2694 9.73502 73.2827C9.66384 73.389 9.08875 73.134 9.20677 73.354L9.32294 73.4325C9.26861 73.4204 9.08308 73.296 9.16176 73.3962C9.20672 73.4301 9.27797 73.4748 9.27235 73.4857C9.22365 73.4627 9.02504 73.3709 9.05501 73.4361L9.2011 73.5171C9.21983 73.6899 8.72344 73.3854 8.54734 73.3817C8.86206 73.6283 8.86951 73.7576 8.87326 73.8228L8.92009 73.8566C8.8208 73.9618 8.42182 73.7805 8.16892 73.7551C8.43493 74.0645 8.04156 74.0137 8.109 74.2312C8.06966 74.1769 7.85607 74.044 7.80174 74.0319C7.83734 74.0971 7.49638 73.9086 7.79424 74.1285L7.79982 74.1189C8.06584 74.3497 7.92725 74.3243 7.88791 74.3581L7.49449 74.0717C7.93098 74.5648 6.95874 74.1007 7.39524 74.5164C7.26785 74.4608 7.2322 74.4826 7.10481 74.427L7.31465 74.5817C7.28468 74.6675 7.26968 74.711 7.11606 74.7315L7.28657 74.8306C7.24161 74.8729 6.60837 74.4258 6.5428 74.4476L6.84073 74.6868C6.73395 74.74 6.91006 75.001 6.52414 74.8487C6.57098 74.8814 6.66646 74.9466 6.69456 74.9454C6.65522 74.978 6.72644 75.2052 6.31055 74.8814C6.59156 75.0868 6.23564 74.9611 6.0558 74.9019L6.27305 75.0481C5.9602 74.8826 5.8853 74.8306 5.74854 74.8137C5.75978 74.8415 5.90214 74.9418 5.87029 74.8922C5.93024 74.9998 5.63238 74.7726 5.68296 74.8886L5.84029 74.9708C5.8047 75.0119 5.73725 74.9587 5.55179 74.8632C5.43564 74.8222 5.50495 74.9587 5.68854 75.0977C5.56489 75.0191 5.38135 74.9249 5.4057 74.9817C5.47314 75.0348 5.52936 75.0602 5.55746 75.0723C5.61366 75.2245 5.18462 74.9744 5.33262 75.1557C5.40193 75.2064 5.43193 75.233 5.44879 75.2511C5.51248 75.2064 5.55556 75.1665 5.53495 75.1581C5.72978 75.2958 5.70915 75.3526 6.02013 75.517C5.83092 75.4396 5.43565 75.2584 5.47312 75.3551C5.48998 75.3696 5.50502 75.3841 5.53313 75.407L5.56121 75.4191C5.5687 75.4396 5.53871 75.4336 5.49562 75.4167C5.51061 75.4493 5.52374 75.4723 5.51062 75.4844C5.66611 75.6016 5.53498 75.5834 5.51437 75.6052C5.30268 75.4541 5.30083 75.4989 5.15845 75.3551C5.16969 75.3684 5.18835 75.3696 5.21645 75.3647C5.22769 75.3671 5.23521 75.3659 5.2502 75.3732C5.24458 75.3696 5.23711 75.3647 5.22962 75.3611C5.25397 75.3551 5.28206 75.3442 5.31203 75.3309C5.18277 75.2668 5.06848 75.2173 5.15653 75.3188C5.00666 75.233 4.85121 75.1436 4.77253 75.1001C5.03293 75.3321 5.12098 75.488 5.2952 75.6221C5.09101 75.5883 5.01979 75.6837 4.56269 75.4348C4.48588 75.4131 4.65069 75.5315 4.70502 75.581C4.75935 75.6016 4.7688 75.5871 4.83436 75.6233C4.68262 75.5798 4.65264 75.6789 4.35852 75.4904C4.42596 75.6149 4.65262 75.6499 4.52336 75.668L4.62077 75.7212C4.91489 76.1308 3.63349 75.3841 4.04001 75.8928C4.01566 75.8614 4.00631 75.8457 3.96135 75.8118C4.01755 76.1115 3.29632 75.9037 3.51176 76.3049C3.53986 76.3955 3.34872 76.2771 3.1745 76.2058L3.39934 76.3701L3.06775 76.2263C2.783 76.1466 3.50611 76.7012 3.02091 76.5175L2.87474 76.4039C2.86725 76.4474 2.65932 76.4172 2.85041 76.5345C2.81669 76.5175 2.67059 76.4329 2.73991 76.497L2.86358 76.5792L2.55632 76.4982C2.57506 76.6021 3.06209 76.8148 2.98341 76.897C2.89723 76.8897 2.50759 76.7302 2.44015 76.6662C2.44952 76.6517 2.40271 76.59 2.27907 76.5079L2.1779 76.4885C1.80323 76.2529 1.39674 76.0257 1.22814 75.8022L1.51655 75.9097L1.35739 75.7804L1.29363 75.8058C1.155 75.6777 1.32362 75.7623 1.44538 75.8155C1.35546 75.7502 1.29745 75.7019 1.27497 75.6704L1.68706 75.8614C1.5503 75.7623 1.37418 75.6922 1.33671 75.6137C1.5278 75.7019 1.63091 75.842 1.78639 75.8819C1.64964 75.7538 1.50538 75.6704 1.68147 75.7417C1.59155 75.6765 1.52404 75.6414 1.46972 75.6233C1.61396 75.6777 1.60091 75.6028 1.81073 75.7212C1.6365 75.5665 1.96996 75.6898 1.61964 75.4638C1.71331 75.5121 1.94555 75.6088 1.98864 75.6004C1.52217 75.3599 2.07107 75.517 1.61397 75.2306C2.02423 75.4529 1.91939 75.2511 2.1929 75.3454C2.15918 75.3285 2.0917 75.2934 2.10481 75.3091C2.1123 75.2644 2.01302 75.1823 1.96806 75.1206C2.27904 75.3224 2.41018 75.3321 2.63124 75.4384C2.38583 75.2113 2.24345 75.2161 1.97556 75.0167C2.22097 75.1847 2.30528 75.1315 2.49449 75.2801C2.34836 75.1351 2.43832 75.2016 2.20415 75.0191C2.59194 75.2717 2.30343 75.0421 2.56757 75.1811C2.43269 75.0215 2.22477 74.9321 2.39899 74.9744C2.30345 74.8693 2.11606 74.8101 2.11606 74.8101ZM4.16743 74.4149C4.16556 74.4137 4.16368 74.4125 4.16368 74.4125C4.14682 74.4161 4.1318 74.4198 4.12243 74.421C4.12992 74.4185 4.14308 74.4173 4.16743 74.4149ZM4.28918 74.3473C4.28356 74.3618 4.26671 74.3738 4.2461 74.3835C4.31542 74.4379 4.39594 74.4886 4.40343 74.479C4.34723 74.4476 4.33227 74.4016 4.28918 74.3473ZM5.51812 75.5363C5.56683 75.5472 5.53125 75.5134 5.49004 75.4819C5.47693 75.4844 5.46006 75.4856 5.43196 75.4831C5.42446 75.4783 5.41315 75.4723 5.40378 75.4662C5.44687 75.4928 5.48815 75.5182 5.51812 75.5363Z" fill="#7EAF15"/>
<path d="M5.20559 75.3588C5.19804 75.3575 5.18671 75.3514 5.18294 75.3526C5.16786 75.3367 5.15462 75.3232 5.1452 75.3122C5.16971 75.3269 5.19613 75.3416 5.21875 75.3563C5.21498 75.3563 5.21124 75.3575 5.20559 75.3588Z" fill="#7EAF15"/>
<path d="M16.1772 69.481L16.179 69.486C16.1753 69.4786 16.1699 69.47 16.1606 69.4589C16.168 69.4687 16.1717 69.4724 16.1772 69.481Z" fill="#7EAF15"/>
<path d="M5.54743 73.1058L5.59918 73.1449L5.54374 73.1168L5.54743 73.1058Z" fill="#7EAF15"/>
<path d="M16.3231 68.5869C16.3099 68.571 16.2968 68.5538 16.2892 68.5379C16.3006 68.5502 16.3118 68.5673 16.3231 68.5869Z" fill="#7EAF15"/>
<path d="M16.6079 68.4164L16.5928 68.3358C16.6078 68.3798 16.6097 68.4017 16.6079 68.4164Z" fill="#7EAF15"/>
<path d="M16.7703 68.2297C16.8043 68.2602 16.8269 68.2821 16.8477 68.3029L16.8477 68.3041L16.7703 68.2297Z" fill="#7EAF15"/>
<path d="M12.6774 69.6985C12.6737 69.6985 12.6682 69.6985 12.6608 69.6948C12.6035 69.6728 12.6312 69.6789 12.6774 69.6985Z" fill="#7EAF15"/>
<path d="M14.2394 69.5813C14.1942 69.5559 14.1508 69.5318 14.1169 69.5173C14.1245 69.4967 14.1357 69.4858 14.2394 69.5813Z" fill="#7EAF15"/>
<path d="M11.1902 70.0859L11.1932 70.088C11.1903 70.0891 11.1888 70.0901 11.1873 70.0912L11.1902 70.0859Z" fill="#7EAF15"/>
<path d="M14.0686 69.5437C14.0538 69.5008 14.0778 69.5008 14.1184 69.5167C14.1147 69.5364 14.1129 69.5621 14.0686 69.5437Z" fill="#7EAF15"/>
<path d="M17.777 67.72L17.7825 67.7077C17.7936 67.72 17.8029 67.7287 17.8102 67.7361L17.777 67.72Z" fill="#7EAF15"/>
<path d="M17.8106 67.7361L17.842 67.7518C17.8364 67.7542 17.8309 67.7542 17.8106 67.7361Z" fill="#7EAF15"/>
<path d="M17.9111 67.7844L17.8429 67.7514C17.8521 67.7465 17.8594 67.7368 17.9111 67.7844Z" fill="#7EAF15"/>
<path d="M17.522 67.9319L17.4579 67.8697C17.473 67.8819 17.4938 67.9026 17.522 67.9319Z" fill="#7EAF15"/>
<path d="M17.404 67.9535C17.4134 67.9293 17.3361 67.7947 17.4078 67.8214L17.4587 67.8699C17.3531 67.7826 17.5284 68.0504 17.404 67.9535Z" fill="#7EAF15"/>
<path d="M17.7341 68.8948L17.7678 68.8114C17.8184 68.8839 17.8859 68.9818 17.9383 68.983C18.0282 69.2235 17.8166 68.8247 17.7341 68.8948Z" fill="#7EAF15"/>
<path d="M17.5698 69.0951C17.6452 69.1084 17.664 69.192 17.7036 69.2296C17.6169 69.1799 17.5943 69.1678 17.5698 69.0951Z" fill="#7EAF15"/>
<path d="M15.7452 69.8565L15.9081 70.0092C15.8519 70.0019 15.8464 69.9498 15.7452 69.8565Z" fill="#7EAF15"/>
<path d="M14.5733 69.2104L14.5059 69.1001L14.6689 69.2346L14.5733 69.2104Z" fill="#7EAF15"/>
<path d="M15.5131 70.3951L15.5508 70.4115L15.4358 70.3774L15.5131 70.3951Z" fill="#7EAF15"/>
<path d="M12.4865 71.6923L12.286 71.5033C12.346 71.5251 12.5857 71.7299 12.4865 71.6923Z" fill="#7EAF15"/>
<path d="M11.0134 72.115C11.1076 72.2132 11.1434 72.2883 11.0134 72.2095C11.0284 72.1841 10.9719 72.0993 11.0134 72.115Z" fill="#7EAF15"/>
<path d="M7.71648 74.3151L7.8183 74.3605L7.70893 74.3372L7.71648 74.3151Z" fill="#7EAF15"/>
<path d="M24.869 92.1441C24.8165 92.1975 24.6592 92.2968 24.6536 92.2556L24.8821 92.0654L24.869 92.1441Z" fill="#7EAF15"/>
<path d="M24.1671 92.3281C24.2495 92.2181 24.42 92.0405 24.6804 91.8955C24.4762 92.0876 24.5867 92.0236 24.3394 92.2508C24.345 92.2918 24.4818 92.2314 24.568 92.1625C24.5155 92.2145 24.6767 92.1565 24.5362 92.2773C24.2945 92.3861 24.2289 92.3571 24.3338 92.2085C24.2645 92.2411 24.212 92.2943 24.1671 92.3281Z" fill="#7EAF15"/>
<path d="M20.4209 90.5202L20.4727 90.512C20.4505 90.5216 20.4338 90.523 20.4209 90.5202Z" fill="#7EAF15"/>
<path d="M18.2425 89.295C18.252 89.3095 18.2312 89.33 18.2086 89.3457C18.2123 89.3252 18.2161 89.307 18.2425 89.295Z" fill="#7EAF15"/>
<path d="M17.6027 89.2517C17.6175 89.2517 17.6286 89.253 17.6396 89.2544C17.6101 89.265 17.5879 89.269 17.6027 89.2517Z" fill="#7EAF15"/>
<path d="M20.4179 90.5196L20.2803 90.5386C20.3614 90.4793 20.3727 90.5146 20.4179 90.5196Z" fill="#7EAF15"/>
<path d="M24.3201 91.6229C24.3201 91.6387 24.305 91.6607 24.2824 91.6875C24.2843 91.6741 24.2843 91.6619 24.2805 91.6509C24.2937 91.6424 24.305 91.6339 24.3201 91.6229Z" fill="#7EAF15"/>
<path d="M21.1156 91.2335L21.1326 91.2445C21.1081 91.2677 21.076 91.2945 21.0402 91.3239L21.1156 91.2335Z" fill="#7EAF15"/>
<path d="M21.7776 91.6986C21.7514 91.695 21.9649 91.5447 22.0549 91.4768C21.9743 91.5435 21.9424 91.5798 21.9387 91.5992C21.8975 91.6271 21.8469 91.6598 21.7776 91.6986Z" fill="#7EAF15"/>
<path d="M23.2797 92.1279L23.2705 92.1613C23.2742 92.1514 23.2742 92.139 23.2797 92.1279Z" fill="#7EAF15"/>
<path d="M20.5677 90.9499C20.5338 90.9707 20.5018 90.9891 20.481 90.9989C20.5093 90.9805 20.5376 90.9646 20.5677 90.9499Z" fill="#7EAF15"/>
<path d="M4.60425 76.7371C4.58578 76.7457 4.57466 76.7518 4.55989 76.7592C4.58205 76.7432 4.59871 76.7334 4.60425 76.7371Z" fill="#7EAF15"/>
<path d="M2.67621 76.7486L2.67243 76.7633C2.62342 76.7865 2.57628 76.8097 2.53103 76.8329L2.67621 76.7486Z" fill="#7EAF15"/>
<path d="M16.6842 89.0136C16.6878 89.0124 16.6878 89.0136 16.6915 89.0124C16.6824 89.0398 16.6769 89.0303 16.6842 89.0136Z" fill="#7EAF15"/>
<path d="M11.2438 84.9594C11.5192 84.8856 11.4162 84.731 11.7459 84.6669C11.6447 84.7128 11.4593 84.9388 11.2438 84.9594Z" fill="#7EAF15"/>
<path d="M24.2738 91.632C24.2664 91.6244 24.259 91.6169 24.2479 91.6119C24.2664 91.6156 24.2757 91.6219 24.2738 91.632Z" fill="#7EAF15"/>
<path d="M11.7473 84.6669L11.7491 84.6656L11.7805 84.659C11.7676 84.6629 11.7603 84.6642 11.7473 84.6669Z" fill="#7EAF15"/>
<path d="M15.3842 87.9537C15.4276 87.9308 15.4653 87.9163 15.5012 87.903C15.4767 87.9163 15.4427 87.9308 15.3842 87.9537Z" fill="#7EAF15"/>
<path d="M16.7779 88.4804L16.7206 88.4817C16.752 88.4754 16.7687 88.4766 16.7779 88.4804Z" fill="#7EAF15"/>
<path d="M15.1611 87.3783C15.1297 87.3795 15.0927 87.3953 15.1056 87.3626C15.1186 87.3565 15.1297 87.3529 15.1389 87.3493C15.113 87.3735 15.1075 87.3892 15.1611 87.3783Z" fill="#7EAF15"/>
<path d="M14.5969 86.9797C14.6172 86.9709 14.6338 86.9659 14.6541 86.9584C14.656 86.9647 14.6578 86.9722 14.6596 86.9797L14.5969 86.9797Z" fill="#7EAF15"/>
<path d="M5.98187 78.093C5.89944 78.1184 5.81513 78.1511 5.7327 78.1838C5.92004 78.1039 5.91068 78.0093 5.98187 78.093Z" fill="#7EAF15"/>
<path d="M24.194 91.7069C24.2449 91.6667 24.2676 91.6447 24.2695 91.6313C24.2732 91.6374 24.2769 91.6447 24.2769 91.652C24.2486 91.6752 24.2185 91.6972 24.194 91.7069Z" fill="#7EAF15"/>
<path d="M16.9623 86.2681L16.8379 86.2256C16.885 86.2294 16.9303 86.2456 16.9623 86.2681Z" fill="#7EAF15"/>
<path d="M9.61084 81.1167L9.62184 81.0858C9.63476 81.0883 9.63484 81.0969 9.61084 81.1167Z" fill="#7EAF15"/>
<path d="M16.6108 86.0215C16.5134 86.0589 16.4497 86.0759 16.401 86.0819C16.416 86.0686 16.4254 86.0565 16.4516 86.0396L16.6108 86.0215Z" fill="#7EAF15"/>
<path d="M5.73279 78.1851L5.73401 78.1839L5.73279 78.1851Z" fill="#7EAF15"/>
<path d="M5.81083 77.4492C5.89326 77.5096 5.52046 77.6365 5.34624 77.7429C5.34249 77.8661 5.63279 77.6607 5.83324 77.6039C5.80139 77.6945 5.53912 77.8794 5.59532 77.9084C5.65339 77.8842 5.6815 77.8818 5.73957 77.8407C5.53538 78.0196 5.9026 77.9978 5.64033 78.219C5.67405 78.2093 5.70584 78.1972 5.73207 78.1863C5.55598 78.2576 5.3855 78.3386 5.26748 78.399C5.29558 78.4304 5.12144 78.5549 5.34999 78.4606C5.32189 78.4461 5.40799 78.4014 5.46607 78.3604L5.40798 78.4365C5.75081 78.312 5.46607 78.3422 5.69649 78.2298C5.66464 78.3386 5.48857 78.5332 5.62907 78.5356C5.9438 78.3954 5.60663 78.3797 5.94758 78.3072L5.74899 78.2939C6.2904 78.1126 5.66659 78.2673 6.23609 78.0655C6.43092 78.1138 6.20047 78.2443 6.39717 78.2927C6.25292 78.3966 6.14049 78.4087 5.99625 78.5126C5.84825 78.7917 6.88046 78.2383 6.59009 78.5332C6.41774 78.6576 6.04688 78.857 6.32976 78.8244L6.64442 78.631C6.78492 78.7023 6.21355 78.9259 6.5545 78.9041C6.66878 78.8207 6.58447 78.7785 6.64067 78.7712C6.98162 78.6975 6.49835 78.9102 6.55267 78.9561L6.86734 78.8147C6.93291 78.9319 6.83741 79.1446 6.9086 79.2775C6.99102 79.2268 7.06408 79.1615 7.18585 79.1398C7.19147 79.3476 7.55865 79.402 7.89211 79.437L7.6917 79.6159C7.70856 79.6255 7.83402 79.5772 7.86961 79.5397C8.02885 79.5385 7.7085 79.6255 7.63544 79.7005C7.6523 79.7379 7.83024 79.6618 7.88644 79.605C7.77217 79.8032 7.71599 80.092 8.10378 80.0412L8.15811 79.9844C8.3492 80.0014 7.72723 80.3361 8.04945 80.2781L8.07945 80.2418C8.37919 80.3385 8.35293 80.6309 8.88871 80.5451C8.54588 80.759 9.24277 80.6104 8.74071 80.8883C9.10601 80.8424 9.16601 80.7699 9.49197 80.8025C9.55754 80.8231 9.23159 81.0188 9.22972 81.0877L9.49947 80.9475L9.28588 81.1505L9.64373 81.0116L9.62305 81.0853C9.58746 81.078 9.46199 81.1167 9.38705 81.159C9.34022 81.2822 9.7561 81.2049 9.89473 81.1336L9.84414 81.3934C9.94718 81.333 9.95464 81.2907 10.0015 81.2351C9.82163 81.455 10.3013 81.0998 10.1364 81.3004C10.0633 81.3233 9.98277 81.3898 9.93031 81.42C10.1364 81.368 10.2357 81.4442 10.2413 81.5372L10.4118 81.4285C10.5917 81.5058 10.6028 81.6919 10.7546 81.8055C10.6159 81.8103 10.3087 81.9904 10.3218 82.0399L10.6216 81.9022C10.4754 82.017 10.4699 81.9239 10.3144 82.0834C10.4025 82.1088 10.6722 81.9408 10.7322 81.8671L10.7022 81.9722C10.7902 81.93 10.8183 81.8937 10.9213 81.8333C10.7733 81.9493 11.3204 81.7716 11.0563 81.9662L11.1442 81.9239C11.296 82.0375 11.2661 82.1426 11.3728 82.2441C11.133 82.3771 11.2341 82.3843 11.0749 82.5184C11.2435 82.545 11.5321 82.5172 11.622 82.6115C11.5789 82.7347 11.4402 82.7396 11.3316 82.8447C11.5564 82.7287 11.6445 82.823 11.7475 82.6937C11.8431 82.8121 11.8711 82.8435 11.858 83.0671C11.7512 83.1021 11.6913 83.1093 11.6276 83.1577C11.622 83.2 11.7887 83.1589 11.888 83.0973L11.903 83.0791C11.7606 83.4018 12.967 83.0513 12.6617 83.4151L12.6767 83.3969L12.5961 83.6434C12.7048 83.6749 12.716 83.5202 12.9052 83.4839C12.7104 83.8114 13.2218 83.6507 13.1188 83.8875C13.8644 83.606 13.4522 84.1933 14.0049 84.0688L13.8456 84.1474C13.7351 84.2585 13.9768 84.1316 14.0386 84.1328C13.9187 84.1957 13.8625 84.18 13.8045 84.2428C13.9393 84.58 14.6831 84.5957 15.1439 84.754C15.3031 84.8168 14.4414 85.2494 14.9491 85.1527L15.1814 84.9618C15.0915 85.3292 15.6891 85.311 15.6497 85.6433C15.6985 85.5962 15.7808 85.5479 15.7565 85.531C16.0057 85.45 15.9532 85.6566 15.7921 85.7533C15.8483 85.769 15.9476 85.6723 16.0525 85.6397C16.2211 85.6059 15.9269 85.8802 16.1517 85.7811C16.1892 85.7654 16.2024 85.7328 16.208 85.7171C16.1443 85.7968 16.386 85.8113 16.1256 85.9249C16.3242 85.9237 16.1968 86.1062 16.4028 86.0772C16.1949 86.262 16.6801 86.1122 16.3335 86.3382C16.7007 86.111 16.7924 86.2705 16.6744 86.4143C16.7681 86.3333 16.8412 86.3793 16.9742 86.2693C17.0341 86.3176 17.0267 86.401 16.8243 86.5073C17.3901 86.3237 16.71 86.8904 17.3489 86.5944C17.3451 86.8493 17.3919 87.056 17.4819 87.23C17.8434 87.0016 17.3227 87.0741 17.7179 86.8433C17.7329 87.0499 17.5137 87.3097 17.7684 87.3701C17.8621 87.3689 17.9034 87.2553 17.9521 87.207C17.9671 87.4148 18.3117 87.4064 18.263 87.6299C18.2968 87.6082 18.3173 87.5744 18.3304 87.5478C18.3492 87.5756 18.4541 87.5611 18.2836 87.6614L18.3005 87.6142C18.012 87.7314 17.9146 88.0045 17.7909 88.0879C18.2181 87.7592 18.0607 88.1145 18.5815 87.688C18.5703 87.7206 18.5159 87.7858 18.3998 87.8511C18.4616 87.8511 18.5347 87.816 18.6321 87.7182C18.6471 87.845 18.4335 87.9296 18.5347 87.9925C18.6153 87.9417 18.6265 87.9103 18.7108 87.845C18.6021 87.9743 18.4953 88.1061 18.6452 88.1181C18.6883 88.0843 18.7614 88.0517 18.7351 88.036C18.8513 88.1447 18.5572 88.4565 18.8625 88.4649C19.1642 88.216 19.0293 88.4287 19.3384 88.245L19.3327 88.3562L19.1529 88.4263C19.2316 88.471 19.0779 88.651 19.239 88.6305L19.3084 88.5169L19.389 88.6426L19.1979 88.6631C19.1173 88.8093 18.8101 88.8976 18.9918 88.9084C19.003 88.8758 19.0686 88.9543 19.2841 88.8673C19.2841 88.8673 19.2841 88.8673 19.2841 88.8661C19.2241 88.9507 19.1623 89.0377 19.2916 89.0268C19.4021 88.9749 19.6119 88.8093 19.6831 88.7755C19.4695 88.958 19.7861 88.9314 19.5651 89.1308C19.6119 89.0812 19.7692 88.9809 19.8048 88.964L19.6325 89.1126C19.7318 89.0933 19.7673 89.0764 19.8872 88.9942C20.0259 89.0377 19.4751 89.2142 19.7599 89.19C19.7674 89.1731 19.8011 89.1574 19.8123 89.1247C20.0184 89.1501 19.9191 89.3616 20.1308 89.3712C20.4643 89.2009 20.1064 89.2601 20.3968 89.1235C20.5036 89.2637 20.3724 89.5718 20.601 89.6274L20.5392 89.6298C20.1401 89.9162 20.8652 89.5706 20.7472 89.7495C20.7584 89.7168 20.955 89.5815 20.9138 89.6153C21.0899 89.6407 21.0319 89.8232 21.0637 90.0141L21.1517 89.9307C21.311 89.909 21.3747 90.002 21.4928 90.0141C21.4066 90.0975 21.4628 90.1108 21.2829 90.1978C22.1072 89.9319 21.3597 90.6739 22.0603 90.4576C22.0379 90.4431 22.0997 90.3621 22.1184 90.373L22.1821 90.5398C21.9873 90.6521 22.051 90.599 21.8749 90.6715C21.7888 90.7549 21.7513 90.8394 21.7906 90.8648C21.8374 90.7391 22.0829 90.6727 22.214 90.6256C22.1541 90.6594 22.1035 90.7065 22.0435 90.7416C22.45 90.5808 21.6932 90.9917 22.0267 90.9204L22.1147 90.8539C22.1091 90.9132 22.0248 91.0219 22.0978 91.0328C22.3264 90.9059 22.1484 90.9385 22.3188 90.8225C22.3732 90.8721 22.0529 91.1669 22.3208 91.0654C22.3507 91.0086 22.3114 90.9832 22.3414 90.9277C22.6523 90.8044 22.5961 90.8503 22.6842 90.8551L22.6749 90.8564L22.8978 90.8515L22.8022 90.8781C22.3413 91.2926 22.8696 91.0485 22.6261 91.3566C22.8547 91.063 22.8022 91.2152 23.0308 91.0509C23.1244 91.0243 23.2405 91.0026 23.2949 90.9494C23.1562 91.1101 23.5328 90.9035 23.3286 91.1367C23.4073 91.0872 23.3923 91.1669 23.5703 91.0304C23.5778 91.1125 23.4223 91.1089 23.3324 91.1766C23.1788 91.4171 23.8944 91.1162 23.692 91.4497C23.6771 91.6285 23.4485 91.817 23.4448 91.9778C23.6059 91.921 23.6845 91.7699 23.6845 91.7699C23.8625 91.7349 23.8925 91.7796 23.8681 91.8762C23.9206 91.8231 23.9899 91.7941 24.093 91.7469C24.1229 91.7917 23.8532 91.9548 24.0293 91.9197C24.1024 91.8557 24.2204 91.7542 24.2803 91.6829C24.2709 91.7663 24.1885 91.898 24.1829 91.9814C24.3309 91.9016 24.344 91.8231 24.4077 91.7506C24.4171 91.8327 24.4676 91.9403 24.2821 92.0962L24.1641 92.1203C24.1791 92.1421 24.3552 92.0055 24.374 91.9693C24.477 91.8219 24.2166 91.9669 24.1379 92.0164L24.1342 92.0756C23.649 92.3499 24.0292 91.9197 23.915 91.8835L23.6302 92.1252L23.8064 91.8883C23.7033 91.9343 23.5104 92.0478 23.5066 92.1071C23.2837 92.1771 23.5647 91.9947 23.3324 92.0829C23.2986 92.0986 23.2855 92.1107 23.278 92.1228L23.3118 92.02C23.2556 92.0732 23.0739 92.1687 23.16 92.1602C22.8622 92.2182 23.2218 91.8871 22.9352 92.0273L22.9239 92.0466C22.879 91.8787 23.1451 91.8775 23.308 91.6189L22.6467 91.9669L22.8678 91.7977C22.8434 91.7941 22.7947 91.7868 22.7048 91.8545C22.8078 91.7083 22.8172 91.7904 22.9371 91.666C22.6449 91.7651 22.8285 91.4678 22.4332 91.7119C22.5868 91.5729 22.6448 91.6636 22.6898 91.5282C22.2608 91.788 22.6655 91.4231 22.4107 91.5053C22.2215 91.6599 22.3995 91.6261 22.1409 91.7083C22.4538 91.4436 21.9273 91.6769 21.9367 91.5947C22.2177 91.4038 21.9273 91.4364 21.9236 91.3119C21.8337 91.3796 21.5826 91.301 21.3897 91.3119L21.3448 91.3458C21.6145 91.144 21.4665 91.121 21.4572 91.0388C21.2867 91.1548 21.2323 91.2068 21.1911 91.2817L21.1274 91.2406C21.2042 91.1705 21.2323 91.1258 21.2248 91.0775L21.0262 91.2298C20.9513 91.1681 21.1068 90.9542 20.8539 90.9796C21.0487 90.8431 21.5021 90.6654 21.5208 90.5035C21.4084 90.5724 21.2173 90.692 21.2023 90.7404C21.2061 90.7246 21.2566 90.6582 21.1911 90.6763L21.0543 90.8261C20.9251 90.8479 21.1818 90.7089 21.1256 90.6944C20.9701 90.7972 20.985 90.7488 20.867 90.8334C20.8614 90.8503 20.9663 90.8129 20.9195 90.8636C20.8464 90.8527 20.7003 90.8793 20.5654 90.9446C20.6572 90.889 20.7753 90.8068 20.7622 90.773C20.6891 90.7113 20.5467 90.8769 20.4156 90.8987C20.5036 90.8141 20.3369 90.8539 20.5692 90.7005C20.5429 90.686 20.4305 90.7536 20.3575 90.7887C20.4156 90.6932 20.1814 90.6388 20.4792 90.5083L20.5073 90.5047C20.5092 90.4999 20.5073 90.4987 20.5111 90.4938C20.5991 90.251 20.0802 90.3887 20.0371 90.2328L19.9585 90.2836C19.9622 90.1712 19.8217 90.1277 19.9303 89.9803C19.9041 89.9646 19.728 90.0347 19.6456 90.1023C19.6399 90.0226 19.7206 89.9609 19.4976 89.9839C19.4246 90.1144 19.3534 90.0479 19.4639 90.0914C19.3121 90.0806 19.1679 90.1482 19.2916 89.9525C19.1211 90.1023 18.9749 90.0745 18.9955 90.0093L19.1979 89.9549C19.1829 89.9066 19.1248 89.8933 19.0686 89.8776L18.825 90.0612C18.3305 90.1555 19.0667 89.5078 18.3942 89.7676C18.5347 89.619 18.619 89.7446 18.7951 89.5803C18.6809 89.5513 18.2162 89.741 18.1899 89.7253C17.9333 89.7483 18.4785 89.4123 18.265 89.4027C18.3736 89.3519 18.6433 89.1996 18.649 89.0885C18.5347 89.0595 18.1526 89.277 18.1245 89.358C18.1357 89.3749 18.175 89.3628 18.2069 89.341C18.1975 89.3797 18.19 89.4268 18.0551 89.4715L18.1395 89.4051C18.0027 89.4413 17.9052 89.3628 17.7741 89.4788C17.806 89.3821 17.9053 89.364 17.9989 89.3616C17.7592 89.3821 17.8359 89.2613 17.6411 89.2504C17.7104 89.2287 17.8378 89.1682 17.8209 89.1574C17.5512 89.1308 17.9352 88.9991 17.8753 88.9048C17.6711 88.9568 17.5475 89.1368 17.5662 88.9906C17.4051 89.0099 17.2983 89.1404 17.2459 89.2057C17.3358 89.0269 16.948 89.1634 16.8599 89.1489L16.8318 89.2299C16.8486 89.1815 16.8224 89.1658 16.7981 89.1489L17.0191 89.0486C16.9573 89.0498 16.9311 89.0341 16.8524 89.0836C16.948 88.9858 17.1952 88.9 17.3076 88.7538C17.1708 88.7888 17.2945 88.61 17.0266 88.7586C17.2345 88.7864 16.7569 88.9084 16.8187 89.0027C16.8299 88.9701 16.8037 88.9543 16.74 88.9568C16.7063 88.9713 16.6913 88.9918 16.6838 89.0063C16.3391 89.0691 16.9179 88.7912 16.7924 88.7139C16.6632 88.813 16.4908 88.8637 16.5021 88.8323C16.5545 88.8637 16.7662 88.6994 16.8318 88.6015C16.6425 88.6184 16.8318 88.494 16.7775 88.4746L16.8768 88.4734C17.006 88.3743 16.948 88.3598 16.9386 88.2958C16.8224 88.3622 16.9105 88.3767 16.8412 88.3936C17.036 88.1979 16.444 88.4649 16.5302 88.303C16.3934 88.3369 16.2548 88.4674 16.1537 88.4855C16.2473 88.3079 15.8539 88.5387 15.912 88.3767C16.1349 88.2776 16.0918 88.3091 16.2136 88.1459L16.2361 88.3393L16.4159 88.0952C16.4665 88.1266 16.3953 88.2402 16.4571 88.239C16.5676 88.1085 16.5227 88.1411 16.7082 88.0577C16.3504 88.1906 16.7475 87.8644 16.474 87.932L15.9944 88.2281C15.6647 88.2801 16.0375 87.9369 15.7677 87.9091L15.8988 87.891C16.0712 87.7605 15.8333 87.8112 15.8632 87.7315C15.7059 87.833 15.6178 87.8475 15.4961 87.8946C15.6178 87.8233 15.3762 87.8269 15.6853 87.6215L15.4062 87.7049C15.1982 87.6747 15.7303 87.3327 15.5617 87.2868C15.4193 87.4173 15.2525 87.4499 15.2038 87.5792C15.1645 87.5538 15.0989 87.5478 15.2113 87.4801C15.0877 87.526 15.3238 87.2747 15.1346 87.3436C15.1889 87.2892 15.3556 87.184 15.2975 87.1623C15.26 87.1792 15.217 87.2106 15.217 87.2106C15.2975 87.1623 15.26 87.0983 15.4773 87.0173C14.8516 87.2384 15.1888 86.7659 14.6493 86.9532C14.6212 86.8626 14.5744 86.7611 14.5107 86.7007C14.4658 86.7333 14.4302 86.749 14.4601 86.749C14.2035 86.7659 14.8666 86.4264 14.5781 86.4445C14.2522 86.5581 14.4976 86.5726 14.359 86.6052C13.8026 86.9109 14.2897 86.4614 13.8944 86.5907L13.8812 86.6234C13.6377 86.6886 13.9374 86.3986 13.7988 86.3515C13.7988 86.3515 13.7558 86.3829 13.7183 86.3998C13.9262 86.1907 13.8907 86.0457 13.8738 85.9334C13.6902 86.0784 13.8045 86.03 13.5703 86.1424C13.5591 86.0941 13.9281 85.9503 13.9056 85.8536C13.7614 85.9019 13.6003 85.9164 13.3624 86.0445L13.4298 86.1098C13.0907 86.2536 13.3361 86.03 13.2425 86.0288L13.117 86.1086C13.0364 85.9962 13.3642 85.8041 13.2087 85.7231L13.3211 85.676C13.5759 85.4367 13.0776 85.7388 13.248 85.5479L12.8959 85.7231C12.9277 85.6433 13.0513 85.4198 13.0289 85.3231C12.8303 85.4983 12.8041 85.6421 12.7198 85.7702C12.6711 85.7376 12.5849 85.6409 12.7235 85.5298C12.7104 85.5612 12.6523 85.6252 12.7235 85.6095C12.9258 85.4186 12.9801 85.2905 12.8809 85.2265C12.2533 85.6071 12.4744 85.1443 11.9086 85.3787C11.9835 85.1225 11.4834 85.1974 11.3298 85.0343C11.9011 84.7999 11.2886 84.9848 11.8168 84.702C11.8056 84.65 11.7812 84.6428 11.7438 84.6585L11.2998 84.7334C11.1162 84.7951 11.2267 84.8289 11.1068 84.8905C10.9701 84.841 10.8464 84.9836 10.6441 85.0138C10.8427 84.9195 10.8764 84.8398 10.749 84.8386L11.0656 84.7624C11.2061 84.5075 10.5129 84.9195 10.6497 84.6658L10.5298 84.789C10.5561 84.6839 10.2675 84.5993 10.6178 84.3153C10.5448 84.3395 10.3874 84.4059 10.3799 84.4507C10.1513 84.36 10.4586 83.925 10.0708 83.9709L9.95656 84.0507C9.96218 84.0072 10.1439 83.8779 9.97532 83.919C9.92473 83.9492 9.85917 83.9987 9.83856 83.9915C9.86666 83.9552 9.98087 83.8066 9.86473 83.8162L9.75615 83.9214C9.42643 83.8912 9.85915 83.5419 9.81231 83.3921C9.43576 83.5987 9.18469 83.5697 9.06104 83.554L9.01046 83.5842C8.77816 83.4658 9.00866 83.1698 8.98805 82.9571C8.46913 83.096 8.45414 82.7698 8.05137 82.7613C8.14691 82.7444 8.34359 82.5994 8.35295 82.5559C8.23493 82.5656 8.50661 82.3287 8.16379 82.5196L8.18437 82.5269C7.81157 82.6852 7.819 82.5728 7.74594 82.5281L8.1937 82.2768C7.36005 82.4979 8.0045 81.8019 7.3151 82.0447C7.39004 81.9529 7.33951 81.9142 7.41444 81.8224L7.16902 81.9529C6.9948 81.8973 6.90861 81.8695 6.82993 81.7294L6.68001 81.8441C6.58634 81.791 7.29639 81.3946 7.24019 81.3306L6.84868 81.5058C6.71942 81.3958 6.25852 81.4538 6.46459 81.1735C6.41213 81.2037 6.30913 81.2617 6.31475 81.2871C6.24169 81.2412 5.82018 81.2182 6.35409 80.9753C6.02063 81.1445 6.18356 80.8799 6.2585 80.7469L6.02433 80.8811C6.27723 80.672 6.36154 80.6261 6.36342 80.5137C6.31096 80.5137 6.14987 80.5995 6.23792 80.5898C6.04309 80.6007 6.4196 80.4291 6.20791 80.4291L6.08058 80.533C5.99254 80.4871 6.08246 80.4485 6.22859 80.324C6.28479 80.2382 6.03563 80.2491 5.80333 80.3542C5.93072 80.2781 6.0749 80.156 5.96999 80.1548C5.88007 80.1923 5.84264 80.2309 5.82391 80.2503C5.54103 80.2418 5.94192 79.9651 5.62157 80.0231C5.53727 80.063 5.49234 80.0787 5.46049 80.0859C5.55603 80.1584 5.64217 80.2116 5.65341 80.1971C5.42673 80.3119 5.31246 80.2708 5.05581 80.4775C5.16821 80.3421 5.4417 80.0714 5.26373 80.0654C5.2375 80.0739 5.2132 80.0811 5.17573 80.0968L5.15698 80.1161C5.11764 80.1137 5.12513 80.0908 5.14948 80.0606C5.08953 80.0606 5.0465 80.0618 5.02215 80.0461C4.82545 80.1331 4.83669 80.0267 4.79173 80.0013C5.04464 79.8793 4.95653 79.86 5.20757 79.7935C5.18321 79.7971 5.18512 79.814 5.19824 79.8394C5.19636 79.8479 5.19822 79.8551 5.18698 79.8648C5.19261 79.8612 5.20012 79.8563 5.20574 79.8515C5.2226 79.8745 5.24688 79.9035 5.27873 79.9349C5.37615 79.8479 5.45295 79.7693 5.27498 79.8056C5.41736 79.7101 5.56168 79.611 5.62724 79.5627C5.23009 79.6956 4.94527 79.7089 4.71672 79.8056C4.7467 79.6437 4.54812 79.5422 4.95089 79.2509C4.98087 79.1954 4.78049 79.2872 4.69431 79.3138C4.66434 79.3524 4.6943 79.3669 4.63623 79.408C4.6943 79.2956 4.49759 79.2292 4.81231 79.054C4.58376 79.0612 4.5538 79.2401 4.49947 79.1228L4.41331 79.1845C3.6752 79.2618 4.91529 78.4788 4.00296 78.6105C4.06103 78.6044 4.08726 78.602 4.14721 78.5779C3.58146 78.4945 3.87939 77.9737 3.14504 77.9761C2.97456 77.958 3.18055 77.8492 3.2967 77.732L3.00828 77.848L3.24621 77.6305C3.36797 77.4263 2.38816 77.7839 2.68603 77.4565L2.88836 77.3852C2.80406 77.3586 2.84156 77.1967 2.63736 77.3042C2.66546 77.2837 2.81342 77.1991 2.69728 77.2281L2.55302 77.2945L2.67852 77.0722C2.47995 77.0384 2.12399 77.3525 1.95726 77.245C1.96101 77.1737 2.23083 76.9212 2.34511 76.8934C2.37321 76.9079 2.48749 76.897 2.63361 76.8317L2.66169 76.7556C3.07758 76.5502 3.47469 76.3157 3.88496 76.2771L3.70512 76.468L3.93554 76.3943L3.88121 76.3303C4.11163 76.2722 3.9655 76.3737 3.87371 76.4523C3.98986 76.4064 4.0761 76.381 4.1323 76.375L3.80629 76.6323C3.98052 76.5623 4.10043 76.4475 4.2428 76.4499C4.09106 76.5695 3.83628 76.5937 3.77446 76.7048C4.00488 76.6481 4.14911 76.5635 4.02921 76.6807C4.14349 76.6348 4.20345 76.5937 4.2353 76.5562C4.14351 76.6529 4.28399 76.6734 4.0798 76.7979C4.35518 76.7206 4.15103 76.9441 4.54631 76.752C4.46388 76.8076 4.30274 76.961 4.32147 77.0009C4.73361 76.7157 4.4845 77.1072 4.97907 76.8474C4.59877 77.0952 4.96588 77.0939 4.81414 77.2837C4.84412 77.2631 4.9022 77.222 4.87223 77.2257C4.95653 77.251 5.09891 77.2027 5.21132 77.1906C4.86474 77.3658 4.86099 77.471 4.68489 77.6111C5.08579 77.5 5.06328 77.3803 5.40798 77.239C5.11949 77.3743 5.22817 77.4673 4.96965 77.564C5.2263 77.5024 5.11206 77.5495 5.42866 77.4287C4.99591 77.6486 5.39678 77.5024 5.16448 77.6655C5.44923 77.6184 5.59535 77.4806 5.53541 77.6087C5.72087 77.5809 5.81083 77.4492 5.81083 77.4492ZM6.82618 79.3198C6.82805 79.3186 6.82988 79.3174 6.83176 79.3174C6.82239 79.3017 6.81488 79.2884 6.80926 79.2799C6.813 79.2872 6.81868 79.2993 6.82618 79.3198ZM6.97226 79.4479C6.94416 79.437 6.91983 79.4189 6.89734 79.3984C6.80555 79.437 6.72311 79.4866 6.74184 79.4974C6.79242 79.46 6.87859 79.4648 6.97226 79.4479ZM4.92473 80.0461C4.91349 80.0835 4.9697 80.0666 5.0259 80.0436C5.01841 80.0316 5.0146 80.0171 5.01273 79.9929C5.02022 79.9881 5.03144 79.9808 5.04081 79.9748C4.99398 80.0014 4.95283 80.0267 4.92473 80.0461Z" fill="#7EAF15"/>
<path d="M5.20525 79.8464C5.20714 79.8403 5.21657 79.8341 5.2128 79.8292C5.2392 79.8219 5.26369 79.817 5.28442 79.8133C5.25991 79.8292 5.23727 79.8452 5.21464 79.8599C5.21276 79.855 5.20903 79.8501 5.20525 79.8464Z" fill="#7EAF15"/>
<path d="M20.4806 90.513L20.4714 90.5143C20.4824 90.5105 20.4954 90.5067 20.5101 90.4979C20.4972 90.503 20.4898 90.508 20.4806 90.513Z" fill="#7EAF15"/>
<path d="M9.56134 80.9155L9.5004 80.9486L9.54097 80.9081L9.56134 80.9155Z" fill="#7EAF15"/>
<path d="M22.2143 90.6292C22.2346 90.6168 22.2585 90.6057 22.2825 90.5995C22.2678 90.6081 22.242 90.618 22.2143 90.6292Z" fill="#7EAF15"/>
<path d="M22.6819 90.8599L22.8215 90.8446C22.7498 90.8573 22.7102 90.8599 22.6819 90.8599Z" fill="#7EAF15"/>
<path d="M23.1155 90.9874C23.0815 91.0154 23.0532 91.0362 23.0268 91.0544L23.025 91.0544L23.1155 90.9874Z" fill="#7EAF15"/>
<path d="M18.3284 87.5525C18.3247 87.5488 18.3247 87.5439 18.3266 87.5378C18.3432 87.4911 18.345 87.5157 18.3284 87.5525Z" fill="#7EAF15"/>
<path d="M19.2804 88.8721C19.3049 88.8358 19.3295 88.7996 19.3389 88.773C19.3822 88.779 19.4086 88.7899 19.2804 88.8721Z" fill="#7EAF15"/>
<path d="M16.9767 86.2719C16.9753 86.273 16.9753 86.273 16.9738 86.274C16.9724 86.2719 16.9695 86.2697 16.9665 86.2676L16.9767 86.2719Z" fill="#7EAF15"/>
<path d="M19.2629 88.729C19.3345 88.7179 19.3478 88.7388 19.3365 88.7731C19.3006 88.7682 19.2516 88.7657 19.2629 88.729Z" fill="#7EAF15"/>
<path d="M24.6276 91.7874L24.6516 91.7911C24.6368 91.8009 24.6275 91.8096 24.6183 91.817L24.6276 91.7874Z" fill="#7EAF15"/>
<path d="M24.6227 91.8163L24.6153 91.8447C24.6061 91.8398 24.6006 91.8336 24.6227 91.8163Z" fill="#7EAF15"/>
<path d="M24.5967 91.9052L24.6137 91.8447C24.6288 91.852 24.6514 91.8568 24.5967 91.9052Z" fill="#7EAF15"/>
<path d="M24.0939 91.5922L24.1674 91.5354C24.1542 91.5487 24.1316 91.5668 24.0939 91.5922Z" fill="#7EAF15"/>
<path d="M23.9861 91.4963C24.0348 91.5036 24.2334 91.4293 24.2278 91.4902L24.1697 91.5353C24.2652 91.4427 23.8831 91.606 23.9861 91.4963Z" fill="#7EAF15"/>
<path d="M22.457 91.8212L22.6313 91.8467C22.5283 91.8915 22.3878 91.9533 22.4196 91.9982C22.0281 92.083 22.6369 91.8879 22.457 91.8212Z" fill="#7EAF15"/>
<path d="M21.9953 91.691C22.0159 91.7541 21.8716 91.7734 21.8267 91.8074C21.866 91.7322 21.8772 91.7141 21.9953 91.691Z" fill="#7EAF15"/>
<path d="M19.5446 90.1417L19.3479 90.2775C19.331 90.229 19.4247 90.2254 19.5446 90.1417Z" fill="#7EAF15"/>
<path d="M20.135 89.1667L20.3055 89.1134L20.1387 89.2467L20.135 89.1667Z" fill="#7EAF15"/>
<path d="M18.4091 89.9173L18.3996 89.9487L18.3996 89.8533L18.4091 89.9173Z" fill="#7EAF15"/>
<path d="M14.4927 87.1729L14.7662 87.0263C14.7475 87.0748 14.4609 87.2541 14.4927 87.1729Z" fill="#7EAF15"/>
<path d="M13.0821 85.8252C12.9322 85.8886 12.801 85.9045 12.9021 85.8082C12.9583 85.8252 13.0971 85.7923 13.0821 85.8252Z" fill="#7EAF15"/>
<path d="M7.77448 82.4028L7.71418 82.4773L7.73112 82.3881L7.77448 82.4028Z" fill="#7EAF15"/>
</svg>
