<svg width="227" height="389" viewBox="0 0 227 389" fill="none" xmlns="http://www.w3.org/2000/svg">
<path d="M173.302 0.0625298C172.843 -0.183947 172.466 0.303862 173.216 1.46436C173.68 1.5876 174.108 1.75193 174.557 1.92651C174.2 1.26411 173.726 0.673587 173.302 0.0625298Z" fill="#7EAF15"/>
<path d="M174.042 9.20817C174.17 9.57789 174.328 9.96811 174.497 10.3327C174.65 10.6973 174.813 11.0413 174.997 11.3135C175.364 11.8527 175.798 12.1145 176.293 11.6113C175.849 10.764 175.731 10.2762 175.543 9.76272C175.456 9.51111 175.364 9.2544 175.216 8.9617C175.058 8.66901 174.828 8.34548 174.507 7.9655C174.252 6.6869 174.461 5.63422 174.869 5.76773C174.685 5.56233 174.619 5.03344 174.481 4.48913C174.308 3.9551 174.093 3.39029 173.665 3.16948C173.563 5.08995 173.997 7.02583 174.716 9.27493C174.507 9.76788 174.236 9.30574 174.042 9.20817Z" fill="#7EAF15"/>
<path d="M79.5864 81.4717L80.3518 81.2406C80.1273 81.2766 79.867 81.3587 79.5864 81.4717Z" fill="#7EAF15"/>
<path d="M9.91448 113.129C10.3227 112.672 10.435 112.415 10.3891 112.328C10.037 112.785 9.7563 113.17 9.91448 113.129Z" fill="#7EAF15"/>
<path d="M1.72147 124.636C1.84985 124.349 1.96278 124.107 2.07575 123.845C1.87549 124.118 1.7112 124.415 1.72147 124.636Z" fill="#7EAF15"/>
<path d="M79.5882 81.4716L77.6237 82.0519C77.6288 82.4216 78.6595 81.8311 79.5882 81.4716Z" fill="#7EAF15"/>
<path d="M170.73 26.6411C170.97 26.2457 171.103 25.8709 171.2 25.5115C171.021 25.8452 170.853 26.1739 170.644 26.4871C170.674 26.5333 170.705 26.5795 170.73 26.6411Z" fill="#7EAF15"/>
<path d="M108.905 65.3225L109.44 65.0144C109.542 64.8244 109.619 64.619 109.68 64.3982L108.905 65.3225Z" fill="#7EAF15"/>
<path d="M130.733 51.8227C130.227 52.1052 130.523 52.9422 130.539 53.3838C130.62 52.9062 130.891 52.5262 131.284 52.1924C131.202 52.0538 131.034 51.9306 130.733 51.8227Z" fill="#7EAF15"/>
<path d="M164.24 28.8591L164.656 28.2635C164.554 28.4278 164.353 28.6691 164.24 28.8591Z" fill="#7EAF15"/>
<path d="M92.676 73.9082C92.5784 73.8158 92.4448 73.7541 92.3267 73.7387C92.3781 73.8414 92.5065 73.8877 92.676 73.9082Z" fill="#7EAF15"/>
<path d="M195.831 319.676C195.815 319.738 195.851 319.774 195.851 319.83C195.985 319.722 196.026 319.656 195.831 319.676Z" fill="#7EAF15"/>
<path d="M225.717 318.501L225.321 318.639C225.316 318.809 225.311 318.973 225.352 319.132L225.717 318.501Z" fill="#7EAF15"/>
<path d="M7.55618 150.511C7.52024 150.47 7.51002 150.455 7.47921 150.413C6.87842 149.987 7.1916 150.254 7.55618 150.511Z" fill="#7EAF15"/>
<path d="M183.36 192.736C184.518 192.335 183.921 193.111 183.421 193.809C182.921 194.502 182.523 195.129 184.237 194.394C184.002 194.358 184.456 193.593 184.615 193.013C184.773 192.428 184.661 192.048 183.36 192.736Z" fill="#7EAF15"/>
<path d="M170.211 27.1495C170.002 27.4576 169.762 27.7503 169.518 28.043C169.859 27.6578 170.079 27.3857 170.211 27.1495Z" fill="#7EAF15"/>
<path d="M184.236 194.394L184.242 194.399L184.591 194.235C184.442 194.301 184.36 194.337 184.236 194.394Z" fill="#7EAF15"/>
<path d="M61.556 167.236C61.4641 167.071 61.2653 166.927 61.051 166.784C61.0561 166.876 61.1682 166.999 61.556 167.236Z" fill="#7EAF15"/>
<path d="M21.3241 157.063C21.6303 157.238 21.9464 157.397 22.2577 157.566C21.9005 157.34 21.5946 157.197 21.3241 157.063Z" fill="#7EAF15"/>
<path d="M82.9196 168.473C83.4655 168.591 83.6391 168.73 84.4044 168.684C84.3381 168.632 84.2717 168.596 84.1849 168.555C83.8992 168.648 83.5318 168.668 82.9196 168.473Z" fill="#7EAF15"/>
<path d="M105.08 169.829C104.963 169.757 104.81 169.705 104.677 169.639C104.457 169.644 104.197 169.654 103.973 169.659L105.08 169.829Z" fill="#7EAF15"/>
<path d="M129.985 319.075C130.418 319.384 130.673 319.687 130.867 319.984C130.627 319.327 133.822 319.553 129.985 319.075Z" fill="#7EAF15"/>
<path d="M170.333 26.3587C170.425 26.6 170.389 26.8259 170.211 27.1443C170.364 26.9183 170.507 26.6976 170.644 26.4819C170.583 26.3535 170.491 26.2714 170.333 26.3587Z" fill="#7EAF15"/>
<path d="M84.3989 161.751C85.5469 161.91 86.6951 162.028 87.8482 162.157C86.889 161.998 85.6337 161.879 84.3989 161.751Z" fill="#7EAF15"/>
<path d="M51.8515 260.763L51.0914 261.077C51.4026 261.015 51.6729 260.917 51.8515 260.763Z" fill="#7EAF15"/>
<path d="M98.1351 162.696C98.7372 163.035 99.3852 163.245 100.059 163.399C100.207 163.338 100.37 163.292 100.472 163.199L98.1351 162.696Z" fill="#7EAF15"/>
<path d="M130.877 319.995C130.871 319.988 130.871 319.981 130.871 319.981C130.871 319.981 130.864 319.988 130.877 319.995Z" fill="#7EAF15"/>
<path d="M153.698 320.215C150.428 319.99 152.096 321.232 151.356 321.843C147.402 321.92 149.596 320.909 148.305 320.221C145.851 320.308 143.876 321.191 142.055 320.975C141.937 320.775 141.59 320.667 142.029 320.477C140.697 320.78 138.774 320.575 136.799 320.39C134.825 320.2 132.804 319.954 131.222 320.318C131.013 320.19 130.916 320.077 130.87 319.984C131.273 320.616 131.268 321.201 131.11 321.597C130.37 321.499 129.661 321.592 129.079 321.586C128.498 321.576 128.044 321.489 127.829 321.078C128.727 321.248 128.85 320.965 129.304 320.806L127.717 320.868C126.503 319.579 129.87 320.862 129.993 320.056C128.467 320.005 126.804 320.025 125.232 320C124.446 319.984 123.686 319.954 122.977 319.882C122.273 319.794 121.63 319.666 121.069 319.481C120.926 318.916 122.273 319.096 123.303 319.209C124.334 319.307 125.038 319.363 123.589 318.649L127.064 319.63C124.625 317.556 129.192 320.097 126.992 317.946C122.41 316.903 121.727 317.556 117.17 316.385C116.022 316.729 117.344 317.304 116.191 317.648C112.808 317.443 111.655 316.513 110.726 315.681C109.798 314.824 109.093 314.059 106.547 314.151C105.848 314.336 105.297 314.721 104.511 314.87C103.731 315.009 102.726 314.885 101.124 314.089L102.583 313.263C98.2254 311.928 99.598 314.259 95.2355 312.102C96.1845 311.902 98.7816 312.765 98.1591 312.431C95.4549 310.639 95.8733 312.441 93.5874 311.748L93.419 310.603C92.2404 310.305 91.0413 309.971 89.8065 309.668C88.5666 309.37 87.3063 309.073 86.0256 308.765C84.7551 308.426 83.4694 308.082 82.1734 307.732C80.8825 307.378 79.5815 307.003 78.311 306.546C78.6988 306.367 79.6732 306.392 78.6119 305.637C72.0707 303.737 65.2336 300.03 59.6465 296.61L57.0034 296.333C56.483 296.076 56.2227 295.481 56.8554 295.614C54.7481 294.135 56.483 296.066 55.238 295.819C53.9165 295.208 53.7685 294.474 54.7073 294.654C50.3295 293.375 42.6199 289.966 39.0585 286.664C39.3697 286.751 39.6708 286.844 39.982 286.921C38.5074 285.791 37.3849 285.627 36.3134 285.437C35.2522 285.231 34.2113 285.036 33.0071 283.721L33.6449 283.953C32.0224 282.756 30.313 281.596 28.5986 280.456C26.9148 279.316 25.4708 278.232 24.7003 277.067C24.3075 276.486 24.0984 275.911 23.9811 275.29C23.8688 274.674 23.8943 274.022 24.0474 273.39C24.3331 272.122 25.083 270.966 25.9964 270.232C25.9198 270.052 25.9198 269.837 26.0066 269.616C26.0831 269.385 26.2209 269.138 26.4199 268.897C26.6036 268.64 26.8639 268.419 27.1292 268.183C27.267 268.075 27.4099 267.968 27.5527 267.86L28.0373 267.536C29.3435 266.684 30.7875 266.068 30.66 265.143C31.7111 264.933 32.4509 264.876 33.053 264.856C33.6499 264.83 34.1143 264.845 34.6245 264.84C35.6654 264.82 36.8441 264.763 40.1198 264.306C41.8495 263.967 42.4106 262.581 44.472 261.883L44.7475 262.791L47.3752 261.123L49.1765 261.847L51.0899 261.082C50.2888 261.236 49.3142 261.118 49.3703 260.82C52.3348 259.577 57.0341 259.444 57.2433 259.89C58.4271 259.444 59.5955 258.961 60.7639 258.473L64.2693 257.025C64.2183 257.441 63.0395 257.918 62.1466 258.437C65.7387 256.373 63.1313 259.192 66.4223 257.297C65.8866 257.23 66.5194 256.681 66.5449 256.47C67.0245 256.476 67.6419 256.414 68.3307 256.286C69.0196 256.147 69.79 255.952 70.5859 255.721C72.183 255.259 73.9024 254.647 75.3413 254.062L74.974 254.863C77.6783 254.119 80.4385 253.056 83.2806 251.982C84.699 251.438 86.138 250.889 87.5921 250.339C89.0361 249.764 90.4954 249.194 91.97 248.65C89.7505 249.143 89.8525 247.9 91.5363 247.161L92.5719 247.849C93.4699 246.853 90.6433 248.157 92.6639 246.601C94.8987 245.898 94.5364 247.125 93.3884 247.9L95.9395 246.586C96.1998 246.806 95.6282 247.186 95.6027 247.607C96.4854 246.637 100.557 246.745 101.741 245.122L102.001 245.343C103.465 244.768 104.721 244.249 105.854 243.767C106.976 243.258 107.981 242.786 108.946 242.329C110.879 241.41 112.68 240.547 115.028 239.525C114.778 238.688 116.676 238.046 117.783 236.783C119.548 236.141 121.451 235.551 123.431 234.878C125.39 234.175 127.416 233.368 129.447 232.362C132.136 230.606 129.972 231.299 131.039 230.221C131.6 230.857 135.605 228.752 133.758 230.313C136.156 229.029 137.692 228.213 139.355 227.258C140.182 226.775 141.06 226.282 142.065 225.635C143.07 224.983 144.233 224.223 145.677 223.283C144.871 223.35 144.065 223.617 144.325 223.175C145.361 222.477 146.978 222.133 146.999 222.554L146.749 222.78C149.892 220.485 154.004 218.759 157.974 217.132C159.959 216.315 161.852 215.432 163.561 214.523C165.26 213.599 166.755 212.618 167.862 211.468L167.612 211.719L172.572 207.617C175.128 206.179 171.393 209.049 173.49 208.315C176.077 205.958 178.343 204.474 180.547 203.159C181.649 202.497 182.72 201.871 183.787 201.162C184.853 200.459 185.966 199.601 187.012 198.543C189.522 198.107 192.859 195.467 195.716 191.77C197.135 189.916 198.415 187.78 199.369 185.552C200.318 183.318 200.926 181.007 201.308 178.989C201.125 179.143 200.941 179.287 200.752 179.431C200.523 178.414 200.558 177.824 200.681 177.264C200.778 176.715 200.982 176.191 200.89 175.431C200.553 175.729 200.711 177.675 200.268 176.484C199.926 174.44 199.14 172.381 198.068 170.614C196.992 168.832 195.635 167.287 194.135 165.972C192.629 164.653 190.971 163.585 189.216 162.696C188.777 162.481 188.338 162.255 187.879 162.075C187.43 161.875 186.976 161.69 186.506 161.531C185.588 161.181 184.614 160.909 183.695 160.683C179.955 159.759 176.194 159.595 172.659 159.656C170.883 159.687 169.158 159.785 167.485 159.898C165.842 160.005 164.199 160.113 162.571 160.221C160.204 160.401 159.607 161.181 158.836 161.834C158.066 162.491 157.117 162.999 154.066 162.604L155.673 161.443C153.31 161.946 150.902 162.342 148.473 162.578C146.045 162.804 143.596 162.973 141.157 163.102C138.713 163.199 136.279 163.292 133.865 163.451C131.452 163.574 129.064 163.744 126.717 164.067C127.273 163.816 127.283 163.513 128.202 163.492C126.202 162.845 120.859 163.549 120.824 164.16C119.354 164.103 120.482 163.615 119.579 163.318C117.589 162.917 114.568 164.226 113.517 163.482C113.339 163.359 114.078 163.251 114.446 163.199C113.145 163.538 108.399 163.025 109.624 163.898C107.864 163.636 106.17 163.672 104.568 163.703C102.966 163.728 101.45 163.764 100.052 163.42C98.1642 164.273 94.0365 162.64 93.3732 163.949C93.7099 162.573 87.2756 162.383 84.9847 162.85C85.7653 162.501 83.0867 162.234 84.0103 161.736C81.4744 161.515 79.1272 161.556 79.4996 162.311C77.2393 161.284 74.8719 161.31 72.7442 161.356C71.6829 161.371 70.6827 161.387 69.8051 161.238C68.9275 161.089 68.1674 160.76 67.5806 160.144C65.6825 160.077 63.8152 160 61.9834 159.913C60.1517 159.805 58.3505 159.656 56.5749 159.518C53.0134 159.261 49.5795 158.809 46.1813 158.388C46.6711 157.063 53.641 159.564 53.59 158.075C50.3653 157.792 47.7733 157.797 45.2119 157.659C42.6607 157.484 40.1045 157.212 37.0125 156.411C35.4614 155.882 38.0328 156.021 38.6451 155.887C35.451 155.548 32.5122 154.788 29.7008 153.926C26.8945 153.058 24.2463 152.103 21.6135 151.292C21.6849 151.179 22.2717 151.307 22.8278 151.425C22.3227 151.235 21.7818 150.917 21.3429 150.742C20.9092 150.552 20.5776 150.496 20.4909 150.809C20.8328 150.912 21.1644 151.019 21.5114 151.112C22.1083 151.887 20.9298 151.892 19.5419 151.666C18.1592 151.435 16.5825 150.953 16.3784 151.091C17.6489 150.799 16.4959 150.003 15.5826 149.171C14.6489 148.334 13.9753 147.522 15.7662 147.42C15.1437 147.132 14.2917 146.84 14.159 147.266C13.7917 146.901 13.5875 146.619 13.6182 146.46C13.6488 146.3 13.8885 146.285 14.4396 146.408C13.6793 145.905 13.1538 145.587 12.7609 145.361C12.368 145.14 12.0721 145.032 11.8119 144.904C11.2915 144.652 10.776 144.421 9.75551 143.101C10.0106 142.922 10.4905 143.384 10.9905 143.394C10.6027 143.189 10.2555 142.942 9.87286 142.69C9.51059 142.423 9.1535 142.121 8.80654 141.766C8.12793 141.047 7.49531 140.082 7.09222 138.731C7.33203 138.814 7.40334 138.444 7.735 139.183C6.75024 137.068 5.96446 135.158 5.54607 133.037C5.14808 130.926 5.17869 128.539 6.3012 125.981C6.48999 126.474 6.66346 126.608 6.80123 126.546C6.93899 126.485 7.0666 126.228 7.23498 125.92C7.39315 125.612 7.56155 125.247 7.76564 124.97C7.97994 124.698 8.24016 124.523 8.531 124.574C8.78101 123.666 9.12791 122.777 9.49018 121.879C9.12791 122.115 8.80657 122.377 8.45451 122.639C8.60248 122.356 8.74027 122.069 8.86783 121.781C9.0107 121.504 9.14836 121.221 9.27592 120.944C9.52083 120.374 9.78618 119.83 10.0617 119.296C10.3168 118.751 10.6332 118.253 10.9648 117.781C11.2863 117.298 11.6895 116.887 12.1283 116.523L11.6689 117.411C11.5209 117.709 11.3933 118.017 11.2556 118.32C11.7046 117.647 12.2252 117.026 12.7252 116.384C12.9855 116.071 13.261 115.773 13.5315 115.465L13.9343 115.008L14.3631 114.572C13.9702 114.823 13.5925 115.101 13.22 115.388C12.8476 115.676 12.4599 115.948 12.1079 116.261C12.7865 115.065 12.5108 114.88 12.3475 114.674C12.271 114.577 12.2353 114.474 12.3884 114.248C12.4649 114.135 12.5924 113.991 12.7863 113.801C12.9904 113.622 13.2609 113.396 13.6231 113.118C13.5058 113.267 13.5774 113.226 13.7661 113.072C13.9549 112.918 14.2661 112.651 14.664 112.384C15.4294 111.814 16.5008 111.198 17.2611 111.054C17.2611 111.054 17.2561 111.059 17.2561 111.064C18.1388 110.007 19.0928 108.867 21.0011 108.112C21.6338 108.168 21.2665 109.426 21.6798 109.467C21.9961 108.713 23.3584 107.901 24.787 107.111C26.2208 106.325 27.7313 105.57 28.3181 104.769C27.8844 105.211 28.0987 105.781 28.3181 105.817L29.0528 104.661C30.3233 104.399 30.5425 104.461 30.5272 104.98C34.1346 103.721 28.8537 104.045 33.3387 103.003C33.0224 103.187 33.2212 103.234 32.5681 103.614C36.9562 102.299 40.7883 100.178 44.911 99.0384C46.4876 99.6957 41.5024 100.584 43.1862 101.01C46.0435 99.8395 48.9366 98.4685 51.7735 97.0358C53.197 96.3323 54.6206 95.6442 56.034 95.0126C57.4525 94.381 58.8505 93.7648 60.2537 93.2719L59.1821 93.5748C59.2587 92.6608 60.3557 92.4298 61.7537 92.1936C63.1467 91.9625 64.8406 91.7211 66.0703 90.7557C65.4427 91.1563 65.5345 91.9727 65.6468 91.7263C67.5704 91.0382 69.4482 90.1191 71.5299 89.0099C73.5964 87.8751 75.8465 86.5143 78.5559 85.0098L78.0354 85.7081C80.3825 85.056 83.847 83.192 86.2757 82.2575C86.791 81.5488 88.1432 80.9378 87.0717 80.794C89.1177 80.4397 90.9699 79.7568 92.6945 78.9197C94.4293 78.093 96.0008 77.0352 97.5622 76.0236C100.69 74.0005 103.613 71.8849 107.211 71.0581C106.466 71.4689 105.609 72.3522 106.206 72.0287C107.92 70.9606 109.609 69.8412 111.298 68.7218C110.532 68.3418 110.4 68.7423 109.027 68.8861C109.486 68.1364 110.803 67.0067 112.099 66.2673C109.976 68.0234 112.68 67.248 113.9 67.0067C113.619 66.9142 113.849 66.5086 113.655 66.3648C117.023 65.8821 113.4 64.8654 117.528 63.4071L117.522 63.8436C118.808 62.8526 119.834 61.6715 121.375 60.8704C122.416 61.2042 120.104 62.0823 120.354 62.719C121.395 62.0772 122.222 61.1118 123.069 60.2491C123.921 59.3865 124.798 58.6367 125.952 58.4005C125.191 59.1451 123.926 59.9359 123.166 60.6805C125.712 60.2286 125.824 59.8743 127.426 59.0578L127.263 59.1349L129.136 58.2259L130.993 57.2812L129.967 57.6354C130.681 55.8947 131.932 54.9653 133.345 54.041C134.049 53.5788 134.804 53.1219 135.534 52.5519C136.264 51.9768 136.983 51.3092 137.636 50.4363C135.054 53.7843 137.514 51.4478 137.774 52.3927C138.789 52.0178 140.279 51.3606 140.05 51.833C141.243 50.1128 143.101 50.5133 144.723 48.0074C144.994 48.182 146.448 46.8264 146.519 47.6993C148.463 46.0408 145.728 47.6172 145.693 47.1858C148.31 44.1203 153.897 42.852 157.591 38.3332C159.362 36.6233 160.244 35.391 161.071 34.1945C161.898 32.9929 162.678 31.8273 164.107 30.0865C164.811 29.7271 164.791 30.1379 164.571 30.6462C164.357 31.1495 163.954 31.7451 163.954 31.7451C166.056 30.3587 167.327 28.8952 168.541 26.8412C168.439 27.3753 168.929 27.1442 169.643 26.7642C170.194 25.9632 170.169 25.5421 170.214 25.0902C170.271 24.6383 170.424 24.1916 171.271 23.2262C171.322 23.7602 171.495 24.546 171.22 25.5164C172.307 23.4317 172.955 21.1106 173.516 18.8102C173.858 18.6048 173.944 19.0156 173.893 19.5907C173.837 20.1658 173.699 20.9206 173.654 21.3776C174.138 20.0785 174.7 18.3686 174.909 16.8281C175.031 16.063 175.062 15.3441 175.047 14.7638C175.006 14.1785 174.909 13.7369 174.74 13.5007C174.536 14.045 174.378 14.5893 174.138 15.1079C174.307 14.1682 174.944 14.7588 174.924 15.5085C174.955 16.1144 174.888 16.6176 174.761 17.0284C174.633 17.4392 174.485 17.7627 174.296 17.9938C173.929 18.4662 173.541 18.6254 173.383 18.6305C173.511 18.081 173.648 17.5419 173.73 16.9873C172.659 17.5522 172.21 19.0619 171.648 20.8385C171.097 22.6101 170.368 24.6281 169.327 25.9323C169.271 25.311 169.189 24.6897 169.087 24.0735C168.765 25.1878 168.357 26.2815 167.913 27.3856C167.184 27.7194 166.362 27.6115 167.22 26.2764C166.255 26.9593 166 27.401 165.765 27.822C165.52 28.2277 165.311 28.6282 164.367 29.0749C164.138 29.1519 164.163 29.039 164.265 28.8593C163.842 29.4806 163.387 30.0865 162.933 30.6924C163.071 30.1944 162.056 30.2868 163.163 29.4806C161.484 30.5897 160.438 31.8067 159.571 32.808C158.704 33.7991 158.03 34.5642 157.137 34.6515L157.351 34.3794C155.285 36.2639 155.295 36.5206 155.525 36.7568C155.744 36.9879 156.168 37.183 154.795 38.8878L151.137 38.6978L151.244 39.7813C150.754 40.0945 149.79 40.7159 149.744 40.2897C148.377 42.0869 150.28 40.4026 149.621 41.635C148.254 42.1228 146.739 43.3141 145.397 44.2794C144.055 45.25 142.886 45.9945 142.208 45.5632C141.795 46.7288 144.703 44.4797 142.544 46.6056C140.952 45.7789 139.861 48.7828 137.335 49.6044C137.524 48.4747 139.764 47.4888 137.243 48.3002C136.998 49.3117 135.927 49.9434 134.717 50.4979C133.508 51.0576 132.136 51.494 131.314 52.1924C131.824 53.1732 127.676 55.1604 124.793 57.3531C124.793 57.1322 123.273 57.8974 121.375 58.8987C119.477 59.9 117.16 61.0605 115.624 61.7537L115.614 61.5431C115.624 62.1952 114.859 62.9193 113.833 63.669C112.803 64.4033 111.507 65.1427 110.471 65.8719C110.226 65.2351 110.486 64.7782 111.517 63.8385L109.471 65.0143C109.165 65.6048 108.619 66.1389 107.348 67.0118L107.455 65.9797C106.108 66.791 104.838 67.7564 103.435 68.7218C102.027 69.682 100.496 70.6525 98.5774 71.3509C98.7407 72.1571 102.46 71.7821 98.8988 74.2521C98.562 73.9491 98.0826 73.374 98.996 72.7014C98.6949 72.9222 97.9958 73.6205 97.256 73.8053L98.4396 72.3778C96.6589 72.953 97.8632 73.3535 96.5213 73.9799C96.2661 73.4254 95.3528 74.1032 95.3222 73.5743C95.6283 73.3483 96.5775 73.1994 96.9652 72.727C95.4396 73.3997 93.5007 74.0108 92.7047 73.9081C92.9904 74.1494 93.077 74.6424 92.031 75.2688C89.2349 76.7117 90.7403 75.0993 88.9646 75.6334C88.4697 76.3523 86.4849 76.8555 86.837 77.6925C86.0104 78.0982 85.6735 77.7952 85.25 77.7336C83.9693 78.8119 78.4487 81.1072 80.5151 81.1996L80.9182 81.0764C80.857 81.1278 80.7754 81.1689 80.6937 81.2253C80.7039 81.2202 80.6937 81.2253 80.704 81.2202L80.6937 81.2253C78.4844 82.8018 75.8924 83.8184 73.2953 84.789C70.7033 85.7749 68.0604 86.6119 65.7031 87.8443L65.5907 87.5618C62.8354 89.1639 59.1771 90.4477 57.33 91.9214C56.4626 92.2808 55.0799 92.2346 55.3197 91.7468C53.1512 92.8303 53.0186 93.2462 49.5898 94.037C51.6664 92.666 48.6457 93.8984 51.7735 92.7738C48.7529 93.6622 47.9364 93.4722 45.0587 95.3977C45.8649 94.2732 42.5128 95.2848 41.1913 96.0139L43.4413 95.788C41.9055 96.4658 40.5126 96.9177 39.0789 97.3439L39.5024 96.1064C36.2777 96.5839 33.6703 98.0525 31.2365 99.4287C28.7925 100.81 26.5628 102.068 23.8229 102.207C23.1698 102.91 24.0472 102.633 24.9452 102.371C25.8484 102.124 26.772 101.888 26.2261 102.587C24.8127 103.121 23.2463 103.434 21.8993 103.686C20.5625 103.947 19.445 104.132 19.0215 104.389C18.5214 104.6 18.0981 104.81 17.7409 105.026C17.3888 105.252 17.098 105.473 16.848 105.693C16.348 106.13 16.0315 106.582 15.7152 107.039C15.3988 107.496 15.0876 107.953 14.6284 108.466C14.3988 108.723 14.1284 108.98 13.7968 109.252C13.4702 109.539 13.0875 109.847 12.6181 110.176C12.96 110.13 13.3833 110.212 13.4343 110.602C13.4598 110.797 13.3935 111.07 13.1792 111.434C12.9751 111.814 12.6384 112.302 12.1026 112.913C11.5465 113.421 11.0466 113.791 10.6078 114.017C10.1792 114.253 9.83225 114.366 9.57713 114.356C9.06689 114.335 8.94438 113.817 9.51584 112.964C10.0261 112.394 10.3629 112.21 10.4292 112.322C10.7302 111.901 11.1128 111.444 11.271 111.157C11.4241 110.869 11.3526 110.751 10.7506 111.039L10.6995 111.588C10.3576 111.804 9.90864 112.168 9.43412 112.579C8.9545 112.98 8.49532 113.478 8.06162 113.884C7.20952 114.71 6.60236 115.337 6.6789 114.726C6.04621 115.809 6.04609 116.133 6.3012 115.979C6.55122 115.824 7.14315 115.265 7.76564 114.608C7.39827 114.972 7.06152 115.332 6.74517 115.681C6.42882 116.03 6.16865 116.4 5.90333 116.744C5.36758 117.437 4.95943 118.156 4.54104 118.864C3.74507 120.318 3.00523 121.817 2.11742 123.835C2.54602 123.239 3.15821 122.808 2.9184 123.45C2.24489 124.883 2.01539 125.848 1.88273 126.459C1.77048 127.08 1.83671 127.394 1.90814 127.635C2.07652 128.118 2.29081 128.349 2.15305 130.449C1.80609 131.625 1.50521 131.414 1.29601 131.414C1.19396 131.419 1.12246 131.486 1.09695 131.83C1.08674 132 1.08164 132.241 1.09695 132.58C1.13777 132.919 1.19894 133.35 1.29078 133.899C1.22445 134.582 1.19377 134.968 1.10193 135.147C1.01519 135.327 0.892765 135.296 0.749899 135.142C0.44886 134.839 0.178574 134.023 -8.48328e-06 133.463C0.443897 135.573 0.729649 137.494 1.04089 139.235C1.35724 140.97 1.68881 142.547 2.23477 143.661C1.78066 143.04 1.38269 142.382 0.979605 141.71C1.69394 142.911 2.18876 143.918 2.79084 144.888C2.77043 144.395 2.76035 143.902 2.78586 143.404C3.29099 144.621 3.90835 145.546 3.64813 145.689C4.2298 146.115 4.32662 145.72 4.54602 145.463C4.77053 145.196 5.07668 145.094 6.08695 145.895C6.43391 146.655 7.30127 147.558 8.08703 148.308C8.46971 148.698 8.84229 149.048 9.09231 149.381C9.34232 149.72 9.48515 150.023 9.43412 150.29C8.54121 149.376 8.09739 148.965 7.86779 148.832C7.63308 148.704 7.60244 148.868 7.58203 149.063C7.56162 149.258 7.54632 149.484 7.33712 149.469C7.13303 149.438 6.69932 149.212 5.92376 148.37C6.25031 148.673 6.6024 149.006 6.97488 149.386C7.33714 149.782 7.74014 150.198 8.15853 150.68C8.22486 150.891 7.89329 150.706 7.60246 150.506C9.19439 152.575 9.88822 152.668 10.5719 152.74C11.2863 152.781 12.0262 152.796 14.1182 154.126C13.2865 154.26 14.5772 155.631 15.3579 155.923C13.5976 154.896 14.9855 154.681 16.7561 155.168C18.0367 156.093 18.8481 156.37 19.4961 156.534C20.1441 156.699 20.644 156.719 21.3736 157.058C20.8378 156.755 20.2972 156.457 19.7716 156.139C20.5574 155.908 21.9197 156.586 23.9504 157.166C23.9606 157.397 23.4861 157.299 23.0882 157.192C22.6953 157.079 22.3737 156.966 22.69 157.197C23.9554 157.181 25.0983 157.869 26.379 158.588C27.6546 159.317 29.0629 160.083 30.7263 160.19C32.0937 160.94 30.6039 161.222 31.8387 161.803C35.5685 161.993 35.599 163.451 39.4105 163.615C38.487 162.686 38.2675 162.825 41.0075 162.635L37.9206 162.291C36.8951 162.183 35.8542 162.054 34.8032 161.905C36.2063 161.859 37.5737 161.762 38.9411 161.664C37.1247 161.305 34.9663 161.33 33.8846 160.945C35.8898 160.786 35.65 160.92 34.9051 160.124C36.0429 160.955 37.3338 161.043 38.6553 161.094C39.982 161.145 41.3648 161.166 42.7425 161.818L42.3137 163.59C44.4159 164.437 46.4161 164.529 48.5693 164.632C49.6459 164.683 50.7683 164.725 51.9673 164.848C53.1664 164.971 54.4575 165.13 55.8606 165.469L54.0798 164.873C54.9574 164.278 57.6107 165.32 59.4985 165.32C59.2383 165.89 60.3608 166.306 61.0955 166.778C61.0598 166.316 65.2796 167.384 65.9582 166.25L68.4072 167.39C70.7033 167.831 72.0757 167.544 73.4176 167.246C74.7647 166.938 76.0812 166.66 78.2906 166.963C76.8874 167.487 78.8619 168.134 75.8311 168.283C77.3158 168.468 78.6476 168.678 78.7089 168.268C79.5456 168.73 82.9081 167.841 84.2245 168.545C84.8725 168.34 85.1328 167.723 86.7961 167.893C86.9696 168.031 86.7655 168.191 86.7655 168.191C86.7961 167.893 89.4085 167.975 88.0002 167.2C90.2147 168.314 93.4189 168.54 96.5569 168.612C98.1233 168.663 99.6694 168.704 101.073 168.848C102.476 168.971 103.731 169.187 104.721 169.628C106.348 169.592 108.149 169.551 109.91 169.51C111.67 169.454 113.39 169.418 114.864 169.413C114.67 169.592 114.854 169.716 114.293 169.644C118.37 170.265 116.808 167.949 121.431 168.55C123.803 169.515 118.972 169.099 120.451 169.459C121.109 171.446 126.049 169.182 129.192 170.229L128.436 170.368C130.85 170.984 134.248 169.474 138.146 169.408C138.146 169.408 137.968 169.592 138.136 169.711C139.447 169.125 141.356 168.735 143.397 168.334C145.438 167.949 147.616 167.646 149.473 167.379C148.371 168.237 147.805 167.908 148.576 168.653C150.244 168.417 147.994 167.436 151.31 166.938C152.428 167.271 154.867 167.431 155.265 168.252L152.111 168.576C153.821 169.531 156.198 168.18 157.877 168.227L157.709 168.725C162.53 168.067 162.474 166.861 167.653 166.363L167.077 166.065C169.755 164.55 169.505 166.44 172.194 165.294L173.128 166.44C174.021 166.224 175.577 165.823 177.332 165.556C179.082 165.289 181.042 165.171 182.659 165.372C181.674 165.644 180.271 165.793 178.822 166.013C177.378 166.229 175.883 166.506 174.74 166.835C175.623 166.794 177.098 166.727 178.455 166.691C179.812 166.64 181.052 166.635 181.537 166.409C180.833 166.419 179.95 166.63 179.281 166.388C181.429 165.603 184.481 165.479 187.67 167.045C186.889 168.001 188.853 168.987 190.614 170.671C191.502 171.497 192.318 172.499 192.772 173.485C193.012 173.973 193.134 174.46 193.196 174.887C193.211 175.328 193.201 175.698 193.037 175.996C193.303 176.514 193.522 177.11 193.624 177.716C193.726 178.317 193.767 178.938 193.701 179.559C193.589 180.802 193.14 182.05 192.466 183.256C191.099 185.685 188.864 187.904 186.307 190.286C187.838 190.127 187.481 190.476 186.904 191.021C186.333 191.56 185.532 192.253 186.297 192.838C185.042 194.024 184.481 194.384 184.287 194.384C182.664 195.139 181.042 195.791 179.322 196.458C177.96 196.7 180.496 195.19 180.128 194.928C176.827 196.926 178.337 195.154 175.934 196.135C176.74 196.412 175.337 197.681 173.363 198.672L176.419 197.701C174.434 199.601 173.245 199.914 172.057 200.217C170.852 200.505 169.648 200.787 167.607 202.646L168.75 201.234C167.658 202.117 165.485 203.483 163.383 204.952C161.255 206.379 159.204 207.93 158.403 209.285C157.867 209.352 157.05 209.239 158.04 208.495C152.213 211.689 145.917 217.239 140.881 218.826L141.116 218.179C140.08 218.878 139.611 219.976 138.009 220.274C137.993 220.069 138.248 219.638 137.723 219.874C137.207 220.31 135.136 222.082 133.544 222.585L134.569 221.486C128.528 223.91 126.166 227.006 121.359 229.666C120.808 228.428 115.961 230.123 113.553 230.965L113.558 230.755C111.823 231.504 110.231 232.223 108.736 232.963C107.241 233.707 105.843 234.472 104.466 235.258C103.093 236.054 101.721 236.809 100.307 237.574C98.8887 238.344 97.4244 239.114 95.8426 239.885C95.2712 239.915 94.6231 240.013 93.919 240.162C93.2047 240.3 92.4342 240.485 91.6127 240.716C89.9749 241.173 88.1533 241.784 86.2553 242.447C84.3674 243.13 82.3775 243.756 80.4488 244.367C78.515 244.968 76.6372 245.518 74.9177 245.877C76.0096 245.785 75.081 246.935 73.9381 247.443C72.29 247.679 69.892 249.718 69.7695 248.455L70.3358 248.301C68.7949 247.51 65.6929 248.866 63.1519 249.543L63.1925 251.228C61.371 251.145 59.3965 251.474 57.3913 251.998C55.381 252.506 53.3246 253.153 51.3704 253.816C47.4671 255.161 43.8903 256.28 41.8239 255.7C40.2983 256.486 38.3236 256.984 36.7776 257.754L36.6705 256.881C34.354 257.307 32.502 257.693 30.4968 258.345C29.4916 258.678 28.4405 259.084 27.267 259.664C26.0985 260.25 24.7973 261.01 23.3941 262.155C23.6594 261.698 23.935 261.225 24.2412 260.784C23.8024 261.056 23.4453 261.374 23.134 261.687C22.8228 262.001 22.5472 262.381 22.3278 262.72C21.9043 263.428 21.6644 264.127 21.5012 264.815C21.1695 266.211 21.042 267.469 20.3175 269.061C19.7664 269.195 19.2357 269.374 18.6949 269.59C18.052 271.31 17.6389 273.231 17.7409 275.295C17.746 275.809 17.8428 276.327 17.9193 276.846C18.0213 277.359 18.154 277.883 18.3224 278.386C18.6796 279.403 19.1593 280.363 19.741 281.185C20.9043 282.843 22.2973 284.019 23.5984 284.903C24.2566 285.344 24.8944 285.729 25.5322 286.048C26.17 286.376 26.8229 286.674 27.4964 286.946C27.3127 287.054 26.9659 287.275 26.1648 286.802C27.2873 287.557 29.3281 289.221 31.1548 290.366C32.9865 291.506 34.548 292.204 34.5939 291.183C34.3235 291.686 35.5429 292.528 37.242 293.308C38.936 294.094 41.0535 294.89 42.5128 295.445L41.6759 295.948C44.4873 296.271 44.7067 296.035 48.0232 297.524C48.7222 298.038 48.3602 298.495 47.4621 297.75C49.7735 299.511 49.8142 298.068 52.6766 300.081L51.2787 299.974C53.8707 301.386 53.7889 301.036 55.5288 301.16C57.3452 301.648 60.4475 303.799 60.5342 304.667C61.0955 304.4 62.8203 304.487 64.3101 305.406C64.4071 305.771 63.759 305.678 63.4324 305.627C64.4988 306.264 65.4682 306.731 66.3815 307.06C67.2999 307.388 68.1419 307.614 68.9379 307.835C70.5349 308.256 71.9177 308.682 73.3464 309.673C73.3056 309.961 73.4636 310.177 73.6932 310.356C71.8615 309.653 70.2491 308.929 69.1113 308.431C67.9735 307.928 67.3255 307.625 67.4735 307.655C67.1622 308.385 70.0451 309.745 67.2898 309.771C68.5858 309.987 70.3563 310.238 72.1523 310.582C73.9534 310.906 75.77 311.368 77.1425 312.102C77.2548 312.231 77.3671 312.354 77.4283 312.508L77.0964 312.477C77.7342 312.816 78.3619 312.96 78.9742 313.037C79.8569 313.494 80.4181 313.797 81.3059 314.131C81.3671 314.5 82.1988 314.891 83.1988 315.265C84.1938 315.64 85.3778 315.938 86.1227 316.205C86.2707 315.342 88.189 316.123 86.5767 314.834C86.7961 314.973 86.2604 314.839 85.2552 314.547C85.0205 314.495 84.7552 314.418 84.5868 314.418C84.6225 314.403 84.6684 314.392 84.7143 314.382C83.7245 314.079 82.449 313.622 80.9999 313.124C82.3266 313.124 83.653 313.242 85.1531 314.244C86.097 313.971 87.1176 313.704 87.6788 313.607C88.5105 314.511 89.8575 315.471 91.0617 316.262C92.2658 317.052 93.3016 317.73 93.4751 318.167C98.2203 319.142 104.537 320.929 107.848 320.046C109.221 320.164 109.262 320.883 109.706 321.242C108.9 321.222 107.996 320.965 107.527 321.094C108.216 321.15 109.053 321.309 109.94 321.448C110.828 321.587 111.767 321.751 112.64 321.874C114.395 322.121 115.905 322.239 116.334 321.735C119.609 322.891 114.226 322.398 118.91 323.106L118.217 323.327C120.421 324.216 122.492 324.673 124.518 324.837C126.539 325.006 128.487 325.022 130.477 324.945C134.447 324.852 138.478 324.765 143.499 326.408C142.8 326.203 142.453 326.105 142.325 325.905C145.228 326.403 148.193 326.783 151.193 326.911C152.693 326.983 154.198 327.081 155.709 327.091L160.234 327.122C166.271 327.091 172.261 326.994 178.098 327.507C181.414 327.702 181.736 326.932 183.7 326.239L184.476 327.117C185.598 326.675 186.716 326.254 187.823 325.797C190.211 325.166 192.354 325.556 194.67 325.777C195.823 325.874 197.022 325.951 198.303 325.859C198.946 325.813 199.604 325.725 200.293 325.581C200.977 325.433 201.686 325.196 202.426 324.904L201.548 324.4C202.65 324.293 204.37 323.938 205.783 323.707C207.196 323.492 208.293 323.317 208.171 323.717C208.375 323.563 208.778 322.947 209.681 323.117L209.834 323.584C211.574 322.983 213.314 322.413 215.029 321.751C219.228 321.227 214.763 323.805 220.84 322.588C223.05 321.869 226.881 319.697 225.963 319.579C225.06 319.769 223.595 319.83 223.417 319.368L225.386 318.639C225.417 317.155 226.575 315.373 221.453 315.563C220.381 316.113 219.309 316.688 218.228 317.212L216.973 316.76C217.932 316.549 218.896 316.333 219.845 316.082C218.08 315.846 217.161 316.585 216.075 317.232C215.723 316.929 215.192 316.775 214.483 316.78C213.452 317.458 212.416 318.156 211.365 318.793C210.855 318.316 212.681 317.427 210.35 317.53C208.875 318.439 212.105 318.495 209.539 319.378C207.768 319.034 208.166 318.423 206.314 319.322C205.982 319.009 206.355 318.701 207.094 318.403C205.441 319.158 202.543 319.301 201.757 320.2C199.921 319.707 195.9 321.176 195.91 319.82C195.405 320.215 192.971 321.268 191.364 321.458C194.134 319.548 185.348 321.966 185.976 320.108C184.95 320.914 183.001 321.212 180.838 321.443C178.669 321.628 176.286 321.725 174.373 322.213C174.587 322.09 175.001 321.833 175.342 321.895C173.169 321.864 172.526 321.397 171.133 321.155C170.878 322.362 167.495 322.721 165.658 323.42C162.995 322.233 167.286 322.018 166.449 320.888C166.587 321.869 161.826 321.823 162.714 322.644C160.689 321.91 160.964 322.254 159.943 321.227C159.54 322.721 158.045 321.417 156.321 322.285C154.861 321.869 154.693 321.489 154.479 321.273C154.265 321.058 154.004 320.986 152.382 321.119C150.81 320.575 153.698 320.215 153.698 320.215ZM78.1986 306.818C78.2037 306.808 78.2039 306.803 78.2039 306.803C78.8315 307.024 79.367 307.214 79.7089 307.337C79.3926 307.229 78.9589 307.08 78.1986 306.818ZM72.1473 304.431C72.8667 304.77 73.7698 305.165 74.7443 305.53C74.8464 305.889 74.5044 306.089 73.8972 305.833C74.1013 305.802 73.8565 305.612 73.4687 305.35C73.0861 305.078 72.5504 304.734 72.1473 304.431ZM83.0511 314.998C82.0204 314.757 81.7448 314.48 81.6631 314.259C82.1377 314.413 82.6938 314.582 83.4285 314.783C83.4694 314.762 83.5407 314.747 83.5815 314.726C83.4335 314.849 83.2756 314.957 83.0511 314.998Z" fill="#7EAF15"/>
<path d="M85.2054 314.536C85.3533 314.567 85.4451 314.557 85.6339 314.613C85.4553 314.474 85.282 314.346 85.1035 314.233C84.9555 314.279 84.8022 314.325 84.6645 314.372C84.8431 314.428 85.0319 314.485 85.2054 314.536Z" fill="#7EAF15"/>
<path d="M80.4873 81.1998L80.354 81.241C80.4721 81.2204 80.5848 81.2101 80.6721 81.2255C80.5643 81.2307 80.5541 81.2101 80.4873 81.1998Z" fill="#7EAF15"/>
<path d="M44.8157 262.997L44.7546 262.787L44.2392 263.11L44.8157 262.997Z" fill="#7EAF15"/>
<path d="M113.874 67.012C113.971 67.0428 114.129 67.0428 114.4 66.9658C114.354 66.9247 114.134 66.9606 113.874 67.012Z" fill="#7EAF15"/>
<path d="M127.4 59.0525L129.446 58.1334C128.543 58.5031 127.9 58.7957 127.4 59.0525Z" fill="#7EAF15"/>
<path d="M137.76 52.8345C137.801 52.6239 137.775 52.5007 137.75 52.3929C137.739 52.398 137.734 52.398 137.729 52.4032L137.76 52.8345Z" fill="#7EAF15"/>
<path d="M22.8247 151.41C22.9676 151.466 23.1104 151.513 23.243 151.543C24.2431 151.795 23.5799 151.579 22.8247 151.41Z" fill="#7EAF15"/>
<path d="M17.2473 111.059C16.8748 111.542 16.5025 112.004 16.0841 112.451C16.8902 111.912 17.5075 111.48 17.2473 111.059Z" fill="#7EAF15"/>
<path d="M84.0214 161.7C84.0163 161.705 84.0214 161.705 84.0111 161.716C84.1446 161.726 84.2626 161.741 84.4013 161.752L84.0214 161.7Z" fill="#7EAF15"/>
<path d="M14.1745 114.079C14.9807 113.534 15.588 113.026 16.0829 112.446C15.4451 112.908 14.6541 113.421 14.1745 114.079Z" fill="#7EAF15"/>
<path d="M175.844 16.094L176.029 15.4726C175.972 15.4726 175.931 15.4213 175.911 15.37L175.844 16.094Z" fill="#7EAF15"/>
<path d="M175.904 15.3647C175.929 15.1285 175.939 14.8872 175.944 14.6458C175.893 14.9693 175.837 15.2466 175.904 15.3647Z" fill="#7EAF15"/>
<path d="M175.965 13.1312C175.991 13.6396 175.95 14.1376 175.945 14.646C176.032 14.1325 176.186 13.5061 175.965 13.1312Z" fill="#7EAF15"/>
<path d="M166.928 30.6567L167.021 31.011C167.046 30.8929 167.02 30.7748 166.928 30.6567Z" fill="#7EAF15"/>
<path d="M163.337 34.1997C164.276 33.4757 166.031 32.6798 167.083 31.2985L167.016 31.0109C166.904 31.4577 166.113 32.0071 165.281 32.5411C164.455 33.0854 163.592 33.6297 163.337 34.1997Z" fill="#7EAF15"/>
<path d="M144.831 43.3552C145.974 42.6415 147.137 41.9534 148.265 41.2191C147.5 41.3629 146.495 41.5477 147.928 40.3975C143.224 42.549 149.229 40.4129 144.831 43.3552Z" fill="#7EAF15"/>
<path d="M134.249 50.0463C135.958 48.7009 133.963 49.656 133.953 49.4352C132.978 50.457 132.739 50.6984 134.249 50.0463Z" fill="#7EAF15"/>
<path d="M54.3304 91.7932L54.2487 90.9819C52.7384 91.6854 54.3457 91.2694 54.3304 91.7932Z" fill="#7EAF15"/>
<path d="M39.4931 101.657L41.1922 101.575L41.6922 100.635L39.4931 101.657Z" fill="#7EAF15"/>
<path d="M27.8911 99.978L28.5493 99.5929C27.6921 100.029 26.8349 100.502 25.9879 100.964L27.8911 99.978Z" fill="#7EAF15"/>
<path d="M101.098 170.46L100.634 169.464C99.4857 169.572 99.1947 170.65 101.098 170.46Z" fill="#7EAF15"/>
<path d="M167.087 166.989C167.858 167.384 169.71 167.482 170.766 166.891C169.322 166.973 167.817 166.778 167.087 166.989Z" fill="#7EAF15"/>
<path d="M59.6714 250.971L60.8349 250.293L58.5438 251.248L59.6714 250.971Z" fill="#7EAF15"/>
<path d="M176.515 284.138C176.351 284.348 176.061 284.872 176.193 284.815L176.765 283.973L176.515 284.138Z" fill="#7EAF15"/>
<path d="M176.021 286.048C176.358 285.678 176.903 284.995 177.332 284.158C176.745 284.944 176.934 284.584 176.245 285.524C176.113 285.58 176.291 285.17 176.495 284.851C176.337 285.062 176.5 284.589 176.133 285.118C175.822 285.852 175.919 285.95 176.378 285.467C176.286 285.678 176.123 285.888 176.021 286.048Z" fill="#7EAF15"/>
<path d="M182.018 291.722L182.038 291.593C182.018 291.655 182.012 291.696 182.018 291.722Z" fill="#7EAF15"/>
<path d="M185.853 294.972C185.807 294.972 185.735 295.044 185.684 295.121C185.75 295.085 185.812 295.049 185.853 294.972Z" fill="#7EAF15"/>
<path d="M185.918 296.379C185.924 296.343 185.918 296.322 185.918 296.292C185.882 296.379 185.867 296.435 185.918 296.379Z" fill="#7EAF15"/>
<path d="M182.016 291.722L181.955 292.066C182.145 291.794 182.032 291.819 182.016 291.722Z" fill="#7EAF15"/>
<path d="M178.253 284.538C178.202 284.564 178.135 284.636 178.048 284.728C178.089 284.702 178.13 284.682 178.166 284.672C178.197 284.625 178.222 284.584 178.253 284.538Z" fill="#7EAF15"/>
<path d="M179.732 291.213L179.696 291.193C179.619 291.29 179.537 291.403 179.445 291.521L179.732 291.213Z" fill="#7EAF15"/>
<path d="M178.226 290.443C178.236 290.495 178.705 289.771 178.92 289.457C178.71 289.745 178.598 289.878 178.537 289.914C178.45 290.053 178.348 290.222 178.226 290.443Z" fill="#7EAF15"/>
<path d="M176.756 287.727L176.654 287.804C176.679 287.778 176.715 287.763 176.756 287.727Z" fill="#7EAF15"/>
<path d="M180.64 292.03C180.573 292.138 180.517 292.24 180.486 292.297C180.548 292.204 180.599 292.117 180.64 292.03Z" fill="#7EAF15"/>
<path d="M221.826 316.847C221.785 316.893 221.755 316.919 221.719 316.955C221.785 316.903 221.832 316.857 221.826 316.847Z" fill="#7EAF15"/>
<path d="M220.255 321.299L220.204 321.314C220.085 321.427 219.973 321.54 219.86 321.653L220.255 321.299Z" fill="#7EAF15"/>
<path d="M186.559 298.181C186.559 298.171 186.558 298.171 186.564 298.166C186.476 298.223 186.502 298.217 186.559 298.181Z" fill="#7EAF15"/>
<path d="M198.299 306.177C198.651 305.468 199.121 305.56 199.457 304.734C199.263 305.016 198.452 305.658 198.299 306.177Z" fill="#7EAF15"/>
<path d="M178.231 284.656C178.257 284.661 178.283 284.666 178.298 284.687C178.283 284.646 178.262 284.635 178.231 284.656Z" fill="#7EAF15"/>
<path d="M199.457 304.734L199.462 304.729L199.493 304.651C199.478 304.687 199.467 304.708 199.457 304.734Z" fill="#7EAF15"/>
<path d="M189.755 299.825C189.837 299.696 189.894 299.594 189.945 299.496C189.894 299.568 189.837 299.66 189.755 299.825Z" fill="#7EAF15"/>
<path d="M188.302 297.268L188.292 297.401C188.317 297.324 188.312 297.288 188.302 297.268Z" fill="#7EAF15"/>
<path d="M191.588 299.65C191.578 299.727 191.516 299.83 191.624 299.763C191.644 299.727 191.66 299.696 191.675 299.671C191.593 299.753 191.542 299.784 191.588 299.65Z" fill="#7EAF15"/>
<path d="M192.751 300.508C192.777 300.456 192.807 300.405 192.833 300.354C192.812 300.359 192.787 300.359 192.766 300.364L192.751 300.508Z" fill="#7EAF15"/>
<path d="M218.299 314.018C218.157 314.218 217.988 314.428 217.82 314.634C218.218 314.167 218.529 314.156 218.299 314.018Z" fill="#7EAF15"/>
<path d="M178 284.954C178.123 284.774 178.19 284.687 178.231 284.656C178.21 284.656 178.19 284.661 178.164 284.672C178.092 284.779 178.031 284.882 178 284.954Z" fill="#7EAF15"/>
<path d="M195.64 294.166L195.759 294.407C195.753 294.3 195.712 294.217 195.64 294.166Z" fill="#7EAF15"/>
<path d="M210.343 306.978L210.451 306.936C210.451 306.906 210.421 306.911 210.343 306.978Z" fill="#7EAF15"/>
<path d="M196.397 294.726C196.248 294.998 196.181 295.167 196.15 295.285C196.197 295.234 196.243 295.198 196.305 295.121L196.397 294.726Z" fill="#7EAF15"/>
<path d="M217.809 314.639L217.814 314.634L217.809 314.639Z" fill="#7EAF15"/>
<path d="M220.339 314.218C220.191 314.043 219.497 314.952 219.018 315.389C218.604 315.44 219.502 314.695 219.834 314.213C219.507 314.315 218.696 314.983 218.64 314.865C218.762 314.721 218.793 314.654 218.972 314.505C218.227 315.039 218.563 314.177 217.64 314.86C217.696 314.778 217.757 314.701 217.813 314.634C217.451 315.07 217.058 315.496 216.772 315.794C216.686 315.738 216.15 316.19 216.63 315.625C216.66 315.681 216.864 315.466 217.048 315.317L216.752 315.481C217.41 314.639 217.109 315.312 217.645 314.737C217.262 314.849 216.487 315.332 216.579 315.004C217.267 314.218 217.084 314.998 217.563 314.177L217.467 314.634C218.456 313.304 217.497 314.819 218.574 313.417C218.548 312.975 217.951 313.555 217.926 313.114C217.477 313.489 217.359 313.756 216.91 314.136C215.869 314.593 218.431 311.969 217.242 312.76C216.706 313.211 215.788 314.161 216.089 313.484L216.946 312.672C216.798 312.374 215.671 313.802 215.966 312.996C216.324 312.693 216.41 312.873 216.471 312.739C216.946 311.912 215.91 313.129 215.793 313.021L216.471 312.231C216.119 312.128 215.344 312.436 214.946 312.333C215.171 312.118 215.436 311.917 215.589 311.625C214.9 311.697 214.951 310.86 215.033 310.105L214.303 310.665C214.283 310.629 214.522 310.31 214.67 310.213C214.767 309.843 214.283 310.634 213.982 310.839C213.864 310.819 214.231 310.367 214.456 310.208C213.716 310.572 212.716 310.855 213.114 309.92L213.339 309.761C213.395 309.319 211.905 310.957 212.287 310.172L212.425 310.079C212.277 309.422 211.293 309.643 211.869 308.344C210.956 309.273 211.844 307.553 210.629 308.898C210.981 308.015 211.262 307.83 211.328 307.085C211.293 306.947 210.456 307.83 210.226 307.876L210.838 307.157L210.042 307.784L210.701 306.854L210.441 306.952C210.446 307.029 210.252 307.352 210.068 307.553C209.629 307.738 210.109 306.711 210.42 306.341L209.522 306.623C209.777 306.341 209.925 306.295 210.134 306.156C209.308 306.716 210.742 305.365 209.986 305.879C209.874 306.064 209.609 306.295 209.481 306.438C209.757 305.925 209.547 305.74 209.236 305.791L209.685 305.319C209.507 304.949 208.884 305.052 208.573 304.77C208.491 305.098 207.741 305.945 207.578 305.951L208.185 305.15C207.726 305.576 208.043 305.524 207.43 305.997C207.384 305.807 208.078 305.057 208.359 304.862L207.991 305.006C208.175 304.77 208.308 304.677 208.563 304.39C208.104 304.816 208.956 303.404 208.18 304.164L208.364 303.927C208.047 303.65 207.685 303.794 207.394 303.609C206.838 304.272 206.859 304.035 206.338 304.513C206.323 304.143 206.537 303.44 206.257 303.306C205.823 303.506 205.746 303.835 205.348 304.169C205.833 303.547 205.558 303.414 206.032 303.075C205.67 302.947 205.573 302.906 204.823 303.111C204.659 303.393 204.614 303.537 204.42 303.727C204.277 303.773 204.481 303.352 204.731 303.065L204.797 303.013C203.665 303.609 205.323 300.472 203.976 301.499L204.042 301.447L203.18 301.853C203.114 301.627 203.639 301.463 203.828 300.99C202.654 301.735 203.379 300.39 202.542 300.841C203.751 298.834 201.634 300.328 202.236 298.916L201.92 299.363C201.511 299.722 202.017 299.039 202.032 298.895C201.782 299.239 201.817 299.352 201.583 299.547C200.506 299.532 200.67 297.827 200.267 296.887C200.098 296.574 198.409 299.029 198.879 297.74L199.583 297C198.338 297.57 198.547 296.153 197.419 296.6C197.588 296.436 197.771 296.189 197.822 296.23C198.154 295.558 197.445 295.902 197.083 296.384C197.042 296.271 197.389 295.932 197.521 295.65C197.669 295.219 196.69 296.205 197.067 295.573C197.129 295.47 197.241 295.403 197.292 295.373C197.011 295.609 197.016 295.054 196.578 295.789C196.629 295.316 195.986 295.819 196.134 295.301C195.47 295.994 196.077 294.685 195.251 295.748C196.083 294.633 195.577 294.587 195.067 295.029C195.353 294.721 195.215 294.597 195.608 294.161C195.455 294.074 195.174 294.192 194.781 294.787C195.496 293.252 193.48 295.501 194.582 293.663C193.73 293.966 193.052 294.104 192.496 294.099C193.312 292.98 192.985 294.284 193.817 293.088C193.128 293.293 192.24 294.12 192.082 293.591C192.103 293.37 192.48 293.134 192.649 292.964C191.965 293.175 192.031 292.374 191.281 292.769C191.358 292.661 191.47 292.574 191.562 292.507C191.475 292.502 191.531 292.24 191.179 292.759L191.337 292.661C190.914 293.483 189.995 294.053 189.71 294.443C190.847 293.036 189.659 293.853 191.128 292.097C191.021 292.163 190.796 292.374 190.567 292.728C190.577 292.584 190.694 292.369 191.031 292.02C190.613 292.143 190.306 292.749 190.113 292.595C190.286 292.343 190.393 292.276 190.623 291.994C190.179 292.41 189.74 292.826 189.715 292.497C189.832 292.353 189.944 292.143 189.995 292.184C189.648 292.05 188.597 293.139 188.602 292.441C189.444 291.414 188.74 292.004 189.368 291.044L189 291.208L188.756 291.717C188.613 291.593 188.005 292.194 188.087 291.794L188.465 291.48L188.056 291.465L187.975 291.937C187.49 292.323 187.174 293.149 187.153 292.749C187.26 292.677 187.01 292.636 187.306 292.02C187.026 292.271 186.735 292.538 186.781 292.225C186.954 291.901 187.516 291.188 187.633 290.972C187.021 291.717 187.128 290.946 186.459 291.732C186.623 291.552 186.96 291.054 187.021 290.946L186.526 291.552C186.592 291.296 186.648 291.188 186.929 290.797C186.796 290.536 186.184 292.056 186.281 291.362C186.337 291.321 186.393 291.219 186.5 291.152C186.429 290.705 185.735 291.229 185.715 290.751C186.286 289.74 186.077 290.654 186.536 289.791C186.082 289.735 185.071 290.469 184.893 290.027L184.883 290.176C183.939 291.511 185.082 289.339 184.49 289.873C184.597 289.801 185.041 289.149 184.929 289.298C184.847 288.928 184.245 289.329 183.628 289.534L183.898 289.211C183.97 288.81 183.663 288.8 183.628 288.543C183.357 288.867 183.311 288.754 183.031 289.298C183.878 287.003 181.5 289.817 182.174 287.891C182.225 287.917 182.485 287.655 182.449 287.629L181.903 287.742C181.546 288.358 181.714 288.132 181.49 288.646C181.219 288.975 180.949 289.19 180.867 289.139C181.27 288.836 181.48 288.173 181.622 287.799C181.515 287.989 181.367 288.179 181.255 288.369C181.755 287.188 180.459 289.555 180.678 288.687L180.893 288.379C180.699 288.482 180.357 288.846 180.316 288.697C180.714 287.978 180.617 288.435 180.985 287.865C180.821 287.819 179.888 289.01 180.199 288.24C180.377 288.081 180.464 288.132 180.643 287.978C181.026 287.075 180.878 287.275 180.857 287.08L180.857 287.105L180.857 286.587L180.775 286.849C179.469 288.553 180.219 286.957 179.25 288.004C180.173 287.018 179.694 287.378 180.204 286.597C180.28 286.34 180.347 286.037 180.51 285.832C180.005 286.402 180.643 285.211 179.908 286.048C180.061 285.786 179.806 285.95 180.23 285.324C179.964 285.431 179.99 285.791 179.78 286.099C179.025 286.828 179.913 284.723 178.862 285.719C178.285 286.043 177.709 286.874 177.194 287.152C177.357 286.689 177.831 286.263 177.831 286.263C177.923 285.801 177.78 285.806 177.469 286.022C177.632 285.817 177.719 285.606 177.857 285.298C177.714 285.303 177.219 286.186 177.311 285.724C177.51 285.452 177.816 285.016 178.041 284.759C177.775 284.918 177.362 285.324 177.097 285.478C177.331 285.01 177.581 284.846 177.806 284.584C177.541 284.697 177.188 284.764 176.719 285.442L176.658 285.75C176.586 285.75 177 285.123 177.117 285.021C177.576 284.543 177.148 285.375 176.994 285.637L176.806 285.745C175.989 287.306 177.316 285.724 177.444 285.924L176.704 286.972L177.444 286.181C177.311 286.489 176.964 287.116 176.775 287.224C176.576 287.845 177.127 286.905 176.872 287.578C176.826 287.681 176.79 287.727 176.75 287.763L177.076 287.516C176.913 287.732 176.627 288.302 176.642 288.096C176.484 288.867 177.51 287.501 177.086 288.384L177.025 288.441C177.566 288.266 177.546 287.66 178.362 286.864L177.306 288.933L177.831 288.153C177.847 288.204 177.872 288.302 177.663 288.615C178.122 288.143 177.857 288.256 178.245 287.783C177.954 288.605 178.887 287.711 178.132 289.005C178.566 288.435 178.275 288.446 178.704 288.127C177.903 289.524 179.041 288.014 178.791 288.733C178.306 289.411 178.408 288.954 178.158 289.673C178.985 288.538 178.27 290.109 178.53 289.955C179.127 289.011 179.036 289.724 179.434 289.539C179.219 289.847 179.485 290.299 179.454 290.756L179.347 290.91C179.985 289.981 180.066 290.279 180.326 290.171C179.959 290.736 179.791 290.946 179.551 291.157L179.683 291.234C179.908 290.946 180.051 290.813 180.204 290.756L179.719 291.45C179.918 291.521 180.607 290.833 180.525 291.455C180.964 290.803 181.531 289.488 182.051 289.206C181.832 289.57 181.444 290.186 181.291 290.294C181.342 290.258 181.556 290.043 181.495 290.222L181.015 290.762C180.949 291.095 181.393 290.294 181.439 290.402C181.107 290.91 181.265 290.808 180.995 291.203C180.944 291.239 181.061 290.946 180.898 291.126C180.929 291.28 180.847 291.655 180.633 292.066C180.811 291.768 181.076 291.378 181.183 291.357C181.382 291.434 180.847 292.009 180.78 292.338C181.051 292.009 180.923 292.451 181.418 291.691C181.464 291.727 181.245 292.091 181.133 292.307C181.439 292.03 181.612 292.487 182.036 291.609L182.046 291.542C182.061 291.527 182.066 291.532 182.082 291.516C182.867 290.951 182.413 292.348 182.913 292.215L182.745 292.466C183.107 292.292 183.245 292.548 183.724 292.086C183.775 292.122 183.541 292.631 183.322 292.918C183.582 292.815 183.786 292.538 183.699 293.088C183.276 293.442 183.485 293.509 183.347 293.319C183.373 293.652 183.143 294.084 183.786 293.519C183.296 294.125 183.372 294.423 183.582 294.284L183.771 293.74C183.924 293.709 183.964 293.817 184.01 293.93L183.398 294.751C183.051 296.02 185.204 293.416 184.306 295.326C184.796 294.798 184.398 294.782 184.949 294.14C185.031 294.366 184.378 295.696 184.429 295.732C184.332 296.348 185.47 294.633 185.48 295.111C185.653 294.787 186.174 293.966 186.541 293.796C186.628 294.017 185.878 295.198 185.612 295.373C185.556 295.373 185.602 295.265 185.674 295.162C185.546 295.234 185.393 295.321 185.235 295.691L185.459 295.403C185.332 295.768 185.572 295.881 185.184 296.343C185.5 296.138 185.572 295.881 185.587 295.665C185.495 296.24 185.898 295.896 185.908 296.338C185.99 296.148 186.199 295.773 186.23 295.799C186.281 296.389 186.755 295.321 187.056 295.337C186.863 295.881 186.261 296.4 186.735 296.163C186.648 296.564 186.214 296.98 185.995 297.19C186.582 296.744 186.087 297.822 186.123 298.002L185.857 298.171C186.015 298.069 186.061 298.11 186.112 298.146L186.47 297.504C186.454 297.647 186.505 297.689 186.332 297.935C186.664 297.586 186.975 296.903 187.47 296.451C187.337 296.81 187.934 296.292 187.413 297.108C187.352 296.667 186.888 297.925 186.587 297.909C186.694 297.843 186.74 297.879 186.725 298.027C186.674 298.125 186.602 298.187 186.556 298.223C186.296 299.101 187.291 297.401 187.521 297.591C187.179 298.017 186.985 298.479 187.092 298.413C187 298.336 187.567 297.632 187.893 297.355C187.807 297.812 188.245 297.216 188.301 297.314L188.322 297.083C188.669 296.656 188.705 296.769 188.914 296.708C188.679 297.062 188.648 296.877 188.577 297.057C189.25 296.359 188.281 298.063 188.822 297.653C188.689 298.012 188.24 298.495 188.164 298.751C188.761 298.305 187.934 299.506 188.47 299.173C188.837 298.531 188.725 298.669 189.276 298.187L188.653 298.371L189.475 297.653C189.383 297.57 189 297.879 189.016 297.735C189.46 297.319 189.347 297.457 189.648 296.929C189.148 297.925 190.286 296.6 190.011 297.319L188.954 298.798C188.72 299.624 189.909 298.341 189.944 298.931L190.031 298.603C190.49 298.043 190.276 298.654 190.546 298.49C190.184 298.977 190.118 299.198 189.939 299.537C190.194 299.167 190.138 299.732 190.873 298.767L190.541 299.511C190.592 299.953 191.832 298.31 191.95 298.649C191.49 299.131 191.348 299.558 190.914 299.825C190.99 299.886 190.995 300.03 191.24 299.686C191.062 300.025 191.939 299.183 191.674 299.701C191.863 299.511 192.251 299.003 192.307 299.106C192.246 299.214 192.128 299.347 192.128 299.347C192.307 299.106 192.506 299.121 192.822 298.52C191.949 300.23 193.577 298.911 192.822 300.379C193.113 300.343 193.434 300.338 193.613 300.42C193.496 300.559 193.434 300.662 193.439 300.59C193.317 301.201 194.608 299.286 194.475 299.974C194.016 300.852 194.031 300.302 193.889 300.662C192.73 302.289 194.342 300.662 193.812 301.719L193.705 301.786C193.424 302.423 194.46 301.406 194.577 301.673C194.577 301.673 194.46 301.807 194.394 301.915C195.144 301.201 195.608 301.134 195.97 301.057C195.439 301.632 195.633 301.319 195.195 301.981C195.348 301.961 195.934 300.944 196.246 300.898C196.047 301.283 195.945 301.678 195.45 302.366L195.261 302.279C194.684 303.219 195.496 302.413 195.465 302.628L195.164 303.003C195.506 303.07 196.241 302.115 196.46 302.392L196.654 302.084C197.526 301.247 196.368 302.716 197.057 302.12L196.363 303.116C196.639 302.957 197.414 302.449 197.731 302.402C197.083 303.039 196.598 303.25 196.149 303.573C196.241 303.655 196.526 303.753 196.945 303.316C196.832 303.378 196.603 303.578 196.679 303.399C197.378 302.731 197.817 302.479 198.001 302.649C196.531 304.487 198.139 303.506 197.154 305.057C198.021 304.636 197.588 305.879 198.057 306.074C199.052 304.523 198.205 306.125 199.338 304.626C199.501 304.605 199.522 304.657 199.45 304.759L199.032 305.858C198.756 306.341 198.69 306.115 198.435 306.454C198.542 306.726 198.021 307.147 197.843 307.64C198.236 307.091 198.511 306.942 198.46 307.229L198.838 306.423C199.736 305.858 198.098 307.851 198.991 307.296L198.537 307.691C198.899 307.532 199.052 308.118 200.134 307.055C200.021 307.245 199.736 307.671 199.588 307.727C199.782 308.179 201.348 307.096 201.027 308.03L200.71 308.364C200.858 308.313 201.363 307.784 201.149 308.21C201.027 308.354 200.833 308.544 200.848 308.59C200.981 308.492 201.522 308.102 201.44 308.379L201.042 308.724C200.991 309.458 202.343 308.164 202.823 308.148C201.965 309.196 201.945 309.745 201.935 310.023L201.807 310.166C202.078 310.613 203.165 309.843 203.853 309.735C203.129 311.05 204.2 310.834 204.017 311.758C204.124 311.527 204.705 310.962 204.853 310.911C204.756 311.188 205.685 310.387 204.874 311.322L204.859 311.281C204.134 312.261 204.512 312.154 204.619 312.297L205.69 311.08C204.501 313.176 207.149 311.204 205.961 312.97C206.308 312.734 206.405 312.826 206.752 312.59L206.18 313.247C206.262 313.612 206.303 313.797 206.721 313.884L206.257 314.305C206.379 314.485 208.104 312.585 208.282 312.677L207.471 313.694C207.762 313.92 207.282 315.029 208.333 314.382C208.206 314.521 207.946 314.798 207.869 314.793C207.976 314.932 207.782 315.897 208.915 314.521C208.149 315.394 209.119 314.86 209.609 314.608L209.017 315.229C209.869 314.526 210.073 314.305 210.446 314.233C210.415 314.351 210.027 314.778 210.114 314.567C209.951 315.024 210.762 314.059 210.624 314.552L210.196 314.901C210.293 315.075 210.476 314.849 210.981 314.444C211.298 314.269 211.109 314.849 210.609 315.44C210.946 315.106 211.446 314.706 211.379 314.947C211.196 315.173 211.043 315.281 210.966 315.332C210.813 315.979 211.981 314.916 211.578 315.686C211.39 315.902 211.308 316.015 211.262 316.092C211.089 315.902 210.971 315.733 211.027 315.697C210.497 316.282 210.553 316.523 209.706 317.222C210.221 316.893 211.298 316.123 211.196 316.534C211.15 316.595 211.109 316.657 211.032 316.755L210.956 316.806C210.935 316.893 211.017 316.868 211.134 316.796C211.094 316.934 211.058 317.032 211.094 317.083C210.67 317.581 211.027 317.504 211.083 317.597C211.66 316.955 211.665 317.145 212.053 316.534C212.022 316.59 211.971 316.595 211.895 316.575C211.864 316.585 211.844 316.58 211.803 316.611C211.818 316.595 211.839 316.575 211.859 316.559C211.793 316.534 211.716 316.488 211.634 316.431C211.987 316.159 212.298 315.948 212.058 316.38C212.466 316.015 212.89 315.635 213.104 315.45C212.395 316.436 212.155 317.099 211.68 317.669C212.236 317.525 212.43 317.93 213.675 316.873C213.885 316.78 213.436 317.283 213.288 317.494C213.14 317.581 213.114 317.52 212.935 317.674C213.349 317.489 213.43 317.91 214.231 317.109C214.048 317.638 213.43 317.787 213.783 317.864L213.517 318.09C212.716 319.83 216.206 316.657 215.099 318.819C215.165 318.685 215.191 318.619 215.313 318.475C215.16 319.748 217.125 318.865 216.538 320.57C216.461 320.955 216.982 320.452 217.456 320.149L216.844 320.847L217.747 320.236C218.523 319.897 216.553 322.254 217.875 321.474L218.273 320.991C218.293 321.176 218.859 321.047 218.339 321.545C218.431 321.474 218.829 321.114 218.64 321.386L218.303 321.735L219.14 321.391C219.089 321.833 217.762 322.737 217.977 323.086C218.211 323.055 219.273 322.377 219.456 322.105C219.431 322.044 219.558 321.782 219.895 321.432L220.171 321.35C221.191 320.349 222.298 319.384 222.757 318.434L221.972 318.891L222.405 318.341L222.579 318.449C222.957 317.905 222.497 318.264 222.166 318.49C222.411 318.213 222.569 318.007 222.63 317.874L221.508 318.685C221.88 318.264 222.36 317.966 222.462 317.633C221.941 318.007 221.66 318.603 221.237 318.773C221.609 318.228 222.002 317.874 221.523 318.177C221.768 317.9 221.952 317.751 222.1 317.674C221.707 317.905 221.742 317.586 221.171 318.09C221.645 317.432 220.737 317.956 221.691 316.996C221.436 317.201 220.804 317.612 220.686 317.576C221.957 316.554 220.462 317.222 221.707 316.005C220.589 316.95 220.875 316.092 220.13 316.493C220.222 316.421 220.405 316.272 220.37 316.339C220.349 316.149 220.62 315.799 220.742 315.538C219.895 316.395 219.538 316.436 218.936 316.888C219.604 315.923 219.992 315.943 220.722 315.096C220.053 315.81 219.824 315.584 219.308 316.215C219.706 315.599 219.461 315.882 220.099 315.106C219.043 316.179 219.829 315.204 219.109 315.794C219.477 315.117 220.043 314.737 219.569 314.916C219.829 314.469 220.339 314.218 220.339 314.218ZM214.752 312.539C214.757 312.534 214.762 312.528 214.762 312.528C214.808 312.544 214.849 312.559 214.874 312.564C214.854 312.554 214.818 312.549 214.752 312.539ZM214.42 312.251C214.436 312.313 214.482 312.364 214.538 312.405C214.349 312.636 214.13 312.852 214.109 312.811C214.262 312.677 214.303 312.482 214.42 312.251ZM211.073 317.304C210.94 317.35 211.037 317.206 211.15 317.073C211.185 317.083 211.231 317.088 211.308 317.078C211.328 317.058 211.359 317.032 211.385 317.006C211.267 317.119 211.155 317.227 211.073 317.304Z" fill="#7EAF15"/>
<path d="M211.925 316.549C211.946 316.544 211.976 316.518 211.987 316.523C212.028 316.456 212.064 316.4 212.09 316.354C212.023 316.415 211.951 316.477 211.889 316.539C211.899 316.539 211.91 316.544 211.925 316.549Z" fill="#7EAF15"/>
<path d="M182.042 291.573L182.037 291.593C182.047 291.562 182.062 291.526 182.088 291.48C182.068 291.521 182.057 291.537 182.042 291.573Z" fill="#7EAF15"/>
<path d="M210.995 306.978L210.851 307.142L211.005 307.024L210.995 306.978Z" fill="#7EAF15"/>
<path d="M181.644 287.773C181.68 287.706 181.716 287.634 181.736 287.568C181.705 287.619 181.675 287.691 181.644 287.773Z" fill="#7EAF15"/>
<path d="M180.873 287.049L180.914 286.71C180.873 286.895 180.868 286.987 180.873 287.049Z" fill="#7EAF15"/>
<path d="M180.426 286.258C180.333 286.386 180.272 286.479 180.215 286.566L180.215 286.571L180.426 286.258Z" fill="#7EAF15"/>
<path d="M191.574 292.497C191.585 292.497 191.6 292.497 191.62 292.481C191.78 292.389 191.703 292.415 191.574 292.497Z" fill="#7EAF15"/>
<path d="M187.322 291.999C187.445 291.891 187.564 291.789 187.656 291.727C187.635 291.64 187.605 291.593 187.322 291.999Z" fill="#7EAF15"/>
<path d="M195.629 294.142L195.619 294.151C195.629 294.156 195.633 294.161 195.638 294.166L195.629 294.142Z" fill="#7EAF15"/>
<path d="M187.793 291.84C187.834 291.66 187.767 291.66 187.654 291.727C187.664 291.809 187.67 291.917 187.793 291.84Z" fill="#7EAF15"/>
<path d="M177.684 284.091L177.668 284.039C177.637 284.091 177.612 284.127 177.591 284.157L177.684 284.091Z" fill="#7EAF15"/>
<path d="M177.593 284.158L177.506 284.224C177.521 284.235 177.537 284.235 177.593 284.158Z" fill="#7EAF15"/>
<path d="M177.317 284.363L177.507 284.225C177.482 284.204 177.461 284.163 177.317 284.363Z" fill="#7EAF15"/>
<path d="M178.377 284.99L178.552 284.728C178.511 284.779 178.454 284.866 178.377 284.99Z" fill="#7EAF15"/>
<path d="M178.701 285.082C178.676 284.979 178.886 284.409 178.691 284.522L178.552 284.728C178.84 284.358 178.363 285.493 178.701 285.082Z" fill="#7EAF15"/>
<path d="M177.8 289.082L177.709 288.728C177.571 289.036 177.387 289.452 177.244 289.457C176.999 290.479 177.576 288.784 177.8 289.082Z" fill="#7EAF15"/>
<path d="M178.242 289.935C178.037 289.991 177.986 290.345 177.878 290.505C178.114 290.294 178.176 290.243 178.242 289.935Z" fill="#7EAF15"/>
<path d="M183.216 293.17L182.773 293.817C182.926 293.786 182.941 293.565 183.216 293.17Z" fill="#7EAF15"/>
<path d="M186.409 290.422L186.592 289.955L186.148 290.525L186.409 290.422Z" fill="#7EAF15"/>
<path d="M183.853 295.46L183.75 295.527L184.063 295.388L183.853 295.46Z" fill="#7EAF15"/>
<path d="M192.093 300.97L192.639 300.169C192.476 300.261 191.823 301.129 192.093 300.97Z" fill="#7EAF15"/>
<path d="M196.105 302.767C195.848 303.183 195.75 303.501 196.105 303.167C196.064 303.059 196.218 302.7 196.105 302.767Z" fill="#7EAF15"/>
<path d="M205.081 312.117L204.803 312.307L205.101 312.21L205.081 312.117Z" fill="#7EAF15"/>
<path d="M158.367 387.878C158.509 388.104 158.938 388.525 158.953 388.351L158.331 387.545L158.367 387.878Z" fill="#7EAF15"/>
<path d="M160.281 388.659C160.057 388.191 159.592 387.436 158.883 386.82C159.439 387.637 159.138 387.365 159.812 388.33C159.797 388.505 159.424 388.248 159.189 387.955C159.332 388.176 158.893 387.929 159.276 388.443C159.934 388.905 160.113 388.782 159.827 388.15C160.016 388.289 160.159 388.515 160.281 388.659Z" fill="#7EAF15"/>
<path d="M170.487 380.977L170.343 380.946C170.405 380.982 170.451 380.987 170.487 380.977Z" fill="#7EAF15"/>
<path d="M176.418 375.77C176.393 375.832 176.449 375.919 176.511 375.986C176.501 375.898 176.49 375.821 176.418 375.77Z" fill="#7EAF15"/>
<path d="M178.159 375.59C178.118 375.59 178.087 375.596 178.056 375.601C178.138 375.642 178.2 375.657 178.159 375.59Z" fill="#7EAF15"/>
<path d="M170.487 380.977L170.862 381.054C170.641 380.812 170.61 380.956 170.487 380.977Z" fill="#7EAF15"/>
<path d="M159.866 385.665C159.866 385.731 159.907 385.824 159.969 385.937C159.964 385.88 159.963 385.829 159.974 385.783C159.938 385.747 159.907 385.711 159.866 385.665Z" fill="#7EAF15"/>
<path d="M168.592 384.011L168.545 384.058C168.612 384.155 168.699 384.268 168.797 384.391L168.592 384.011Z" fill="#7EAF15"/>
<path d="M166.785 385.983C166.857 385.968 166.275 385.331 166.03 385.044C166.25 385.326 166.336 385.48 166.347 385.562C166.459 385.68 166.597 385.819 166.785 385.983Z" fill="#7EAF15"/>
<path d="M162.694 387.811L162.72 387.95C162.71 387.909 162.71 387.857 162.694 387.811Z" fill="#7EAF15"/>
<path d="M170.083 382.805C170.175 382.892 170.263 382.969 170.319 383.01C170.242 382.933 170.165 382.866 170.083 382.805Z" fill="#7EAF15"/>
<path d="M213.565 322.407C213.617 322.443 213.648 322.469 213.689 322.5C213.627 322.433 213.581 322.392 213.565 322.407Z" fill="#7EAF15"/>
<path d="M218.813 322.459L218.824 322.521C218.957 322.618 219.086 322.716 219.209 322.813L218.813 322.459Z" fill="#7EAF15"/>
<path d="M180.658 374.573C180.648 374.568 180.648 374.573 180.638 374.568C180.663 374.686 180.679 374.645 180.658 374.573Z" fill="#7EAF15"/>
<path d="M195.476 357.346C194.726 357.032 195.006 356.375 194.108 356.103C194.384 356.298 194.889 357.258 195.476 357.346Z" fill="#7EAF15"/>
<path d="M159.994 385.701C160.015 385.67 160.035 385.639 160.066 385.619C160.015 385.634 159.989 385.66 159.994 385.701Z" fill="#7EAF15"/>
<path d="M194.11 356.103L194.105 356.098L194.018 356.072C194.054 356.088 194.074 356.093 194.11 356.103Z" fill="#7EAF15"/>
<path d="M184.196 370.07C184.078 369.973 183.975 369.911 183.878 369.855C183.945 369.911 184.037 369.973 184.196 370.07Z" fill="#7EAF15"/>
<path d="M180.404 372.309L180.563 372.314C180.476 372.289 180.43 372.294 180.404 372.309Z" fill="#7EAF15"/>
<path d="M184.807 367.626C184.895 367.631 184.997 367.698 184.962 367.559C184.926 367.533 184.895 367.518 184.869 367.502C184.941 367.605 184.956 367.672 184.807 367.626Z" fill="#7EAF15"/>
<path d="M186.35 365.931C186.293 365.895 186.247 365.875 186.19 365.844C186.185 365.87 186.18 365.901 186.175 365.931L186.35 365.931Z" fill="#7EAF15"/>
<path d="M209.81 328.169C210.034 328.277 210.264 328.416 210.489 328.554C209.978 328.215 210.004 327.815 209.81 328.169Z" fill="#7EAF15"/>
<path d="M160.206 386.019C160.067 385.85 160.006 385.757 160 385.701C159.99 385.726 159.98 385.757 159.98 385.788C160.057 385.886 160.139 385.978 160.206 386.019Z" fill="#7EAF15"/>
<path d="M179.899 362.907L180.238 362.732C180.11 362.748 179.987 362.815 179.899 362.907Z" fill="#7EAF15"/>
<path d="M199.926 341.017L199.896 340.888C199.86 340.899 199.859 340.935 199.926 341.017Z" fill="#7EAF15"/>
<path d="M180.858 361.859C181.123 362.019 181.297 362.091 181.429 362.116C181.388 362.06 181.363 362.008 181.292 361.937L180.858 361.859Z" fill="#7EAF15"/>
<path d="M210.492 328.56L210.487 328.555L210.492 328.56Z" fill="#7EAF15"/>
<path d="M210.277 325.432C210.052 325.689 211.068 326.228 211.542 326.68C211.553 327.204 210.762 326.331 210.216 326.09C210.303 326.475 211.017 327.26 210.864 327.384C210.706 327.281 210.629 327.271 210.471 327.096C211.027 327.856 210.027 327.764 210.741 328.703C210.65 328.662 210.563 328.611 210.491 328.565C210.971 328.868 211.435 329.212 211.757 329.468C211.68 329.602 212.155 330.131 211.532 329.73C211.609 329.669 211.374 329.479 211.216 329.304L211.374 329.628C210.44 329.099 211.216 329.227 210.588 328.75C210.675 329.212 211.155 330.038 210.772 330.049C209.915 329.453 210.833 329.386 209.905 329.078L210.445 329.022C208.971 328.251 210.67 328.909 209.119 328.051C208.588 328.257 209.216 328.811 208.68 329.017C209.073 329.458 209.379 329.51 209.772 329.951C210.175 331.137 207.364 328.785 208.155 330.038C208.624 330.567 209.634 331.415 208.864 331.276L208.007 330.454C207.624 330.757 209.18 331.707 208.251 331.615C207.94 331.261 208.17 331.081 208.017 331.05C207.088 330.737 208.404 331.64 208.256 331.836L207.399 331.235C207.221 331.733 207.481 332.637 207.287 333.202C207.063 332.986 206.864 332.709 206.532 332.616C206.517 333.499 205.517 333.73 204.608 333.879L205.154 334.639C205.108 334.68 204.767 334.475 204.67 334.316C204.236 334.311 205.108 334.68 205.307 334.999C205.261 335.158 204.777 334.834 204.624 334.593C204.935 335.435 205.088 336.662 204.032 336.447L203.884 336.205C203.363 336.277 205.057 337.7 204.18 337.453L204.098 337.299C203.282 337.71 203.353 338.953 201.894 338.588C202.828 339.497 200.93 338.865 202.297 340.046C201.302 339.851 201.139 339.543 200.251 339.682C200.072 339.769 200.96 340.601 200.965 340.894L200.23 340.298L200.812 341.161L199.838 340.57L199.894 340.883C199.991 340.853 200.333 341.017 200.537 341.197C200.664 341.72 199.532 341.392 199.154 341.089L199.292 342.193C199.011 341.936 198.991 341.756 198.863 341.52C199.353 342.455 198.047 340.945 198.496 341.797C198.695 341.895 198.914 342.177 199.057 342.306C198.496 342.085 198.225 342.408 198.21 342.804L197.746 342.342C197.256 342.67 197.225 343.461 196.812 343.944C197.19 343.964 198.026 344.729 197.991 344.94L197.174 344.355C197.572 344.842 197.587 344.447 198.011 345.125C197.771 345.233 197.036 344.519 196.873 344.206L196.955 344.652C196.715 344.473 196.638 344.319 196.358 344.062C196.761 344.555 195.271 343.8 195.99 344.627L195.751 344.447C195.337 344.93 195.419 345.376 195.128 345.808C195.781 346.373 195.506 346.403 195.94 346.973C195.48 347.086 194.694 346.968 194.449 347.369C194.567 347.893 194.945 347.913 195.24 348.36C194.628 347.867 194.388 348.267 194.108 347.718C193.847 348.221 193.771 348.355 193.807 349.305C194.098 349.454 194.261 349.484 194.434 349.69C194.45 349.87 193.995 349.695 193.725 349.433L193.684 349.356C194.072 350.727 190.786 349.238 191.618 350.784L191.577 350.707L191.796 351.754C191.5 351.888 191.47 351.23 190.955 351.076C191.485 352.468 190.092 351.785 190.373 352.791C188.342 351.595 189.465 354.09 187.959 353.562L188.393 353.895C188.694 354.368 188.036 353.829 187.867 353.834C188.194 354.101 188.347 354.034 188.505 354.301C188.138 355.734 186.112 355.8 184.857 356.473C184.423 356.74 186.771 358.578 185.388 358.168L184.755 357.356C185 358.917 183.372 358.84 183.479 360.252C183.347 360.052 183.122 359.847 183.189 359.775C182.51 359.431 182.653 360.309 183.092 360.72C182.939 360.786 182.668 360.376 182.382 360.237C181.923 360.093 182.724 361.259 182.112 360.838C182.01 360.771 181.974 360.632 181.959 360.566C182.132 360.904 181.474 360.966 182.183 361.449C181.643 361.444 181.989 362.219 181.428 362.096C181.995 362.881 180.673 362.245 181.617 363.205C180.617 362.24 180.367 362.917 180.689 363.528C180.433 363.184 180.234 363.38 179.872 362.912C179.709 363.118 179.729 363.472 180.28 363.924C178.739 363.143 180.592 365.552 178.852 364.294C178.862 365.377 178.734 366.255 178.489 366.995C177.505 366.024 178.923 366.332 177.846 365.351C177.806 366.229 178.403 367.333 177.709 367.59C177.454 367.585 177.341 367.102 177.209 366.897C177.168 367.78 176.229 367.744 176.362 368.694C176.27 368.602 176.214 368.458 176.178 368.345C176.127 368.463 175.841 368.401 176.306 368.828L176.26 368.627C177.045 369.126 177.311 370.286 177.648 370.64C176.484 369.244 176.913 370.753 175.494 368.941C175.525 369.079 175.673 369.357 175.989 369.634C175.821 369.634 175.622 369.485 175.356 369.069C175.316 369.608 175.897 369.968 175.622 370.235C175.402 370.019 175.372 369.885 175.142 369.608C175.438 370.158 175.729 370.717 175.321 370.769C175.203 370.625 175.005 370.486 175.076 370.42C174.76 370.882 175.561 372.206 174.729 372.242C173.907 371.185 174.275 372.088 173.433 371.308L173.448 371.78L173.938 372.078C173.724 372.268 174.142 373.033 173.703 372.946L173.515 372.463L173.295 372.997L173.816 373.085C174.035 373.706 174.872 374.081 174.377 374.127C174.346 373.988 174.168 374.322 173.581 373.952C173.581 373.952 173.581 373.952 173.581 373.947C173.744 374.307 173.912 374.676 173.56 374.63C173.259 374.409 172.688 373.706 172.494 373.562C173.076 374.337 172.213 374.225 172.816 375.072C172.688 374.861 172.259 374.435 172.163 374.363L172.632 374.995C172.361 374.913 172.265 374.841 171.938 374.492C171.56 374.676 173.06 375.426 172.285 375.323C172.264 375.252 172.173 375.185 172.142 375.046C171.581 375.154 171.851 376.053 171.275 376.094C170.366 375.37 171.341 375.621 170.55 375.041C170.259 375.637 170.617 376.946 169.994 377.182L170.162 377.193C171.249 378.409 169.274 376.941 169.596 377.701C169.565 377.562 169.03 376.987 169.142 377.131C168.662 377.239 168.82 378.014 168.734 378.825L168.494 378.471C168.06 378.379 167.887 378.774 167.565 378.825C167.8 379.18 167.647 379.236 168.137 379.606C165.892 378.476 167.928 381.629 166.019 380.71C166.08 380.648 165.912 380.304 165.861 380.35L165.688 381.059C166.218 381.537 166.045 381.311 166.524 381.619C166.759 381.973 166.861 382.333 166.754 382.44C166.626 381.906 165.958 381.624 165.601 381.424C165.764 381.567 165.902 381.768 166.065 381.917C164.958 381.234 167.019 382.98 166.111 382.677L165.871 382.394C165.887 382.646 166.116 383.108 165.917 383.154C165.295 382.615 165.78 382.754 165.315 382.261C165.167 382.471 166.04 383.724 165.31 383.293C165.228 383.051 165.336 382.944 165.254 382.707C164.407 382.184 164.56 382.379 164.32 382.399L164.346 382.404L163.738 382.384L163.999 382.497C165.254 384.258 163.815 383.221 164.478 384.53C163.856 383.283 163.999 383.93 163.376 383.231C163.121 383.118 162.805 383.026 162.657 382.8C163.034 383.483 162.009 382.605 162.565 383.596C162.351 383.385 162.391 383.724 161.907 383.144C161.886 383.493 162.31 383.478 162.555 383.765C162.973 384.787 161.024 383.508 161.575 384.926C161.616 385.686 162.238 386.487 162.249 387.17C161.81 386.928 161.596 386.286 161.596 386.286C161.111 386.138 161.029 386.328 161.096 386.738C160.953 386.512 160.764 386.389 160.483 386.189C160.402 386.379 161.136 387.072 160.657 386.923C160.458 386.651 160.136 386.22 159.973 385.917C159.998 386.271 160.223 386.831 160.238 387.185C159.835 386.846 159.799 386.512 159.626 386.204C159.6 386.553 159.463 387.01 159.968 387.673L160.289 387.776C160.249 387.868 159.769 387.288 159.718 387.134C159.437 386.507 160.147 387.123 160.361 387.334L160.371 387.586C161.692 388.751 160.657 386.923 160.968 386.769L161.744 387.796L161.264 386.79C161.544 386.985 162.07 387.468 162.08 387.719C162.687 388.017 161.922 387.242 162.555 387.616C162.647 387.683 162.682 387.735 162.703 387.786L162.611 387.349C162.764 387.575 163.259 387.981 163.024 387.945C163.835 388.192 162.856 386.785 163.636 387.38L163.667 387.462C163.79 386.749 163.065 386.743 162.621 385.645L164.422 387.123L163.82 386.405C163.886 386.389 164.019 386.358 164.264 386.646C163.983 386.025 163.958 386.374 163.631 385.845C164.427 386.266 163.927 385.003 165.004 386.04C164.585 385.449 164.427 385.835 164.305 385.259C165.473 386.363 164.371 384.813 165.065 385.162C165.58 385.819 165.096 385.675 165.8 386.025C164.948 384.9 166.382 385.891 166.356 385.542C165.591 384.731 166.382 384.869 166.392 384.34C166.637 384.628 167.32 384.294 167.846 384.34L167.968 384.484C167.234 383.627 167.637 383.529 167.662 383.18C168.126 383.673 168.275 383.894 168.387 384.212L168.56 384.037C168.351 383.74 168.274 383.55 168.295 383.344L168.836 383.991C169.04 383.729 168.616 382.82 169.305 382.928C168.775 382.348 167.54 381.593 167.489 380.905C167.795 381.198 168.315 381.706 168.356 381.912C168.346 381.845 168.208 381.562 168.387 381.639L168.759 382.276C169.111 382.369 168.412 381.778 168.565 381.716C168.989 382.153 168.948 381.947 169.27 382.307C169.285 382.379 168.999 382.22 169.127 382.435C169.326 382.389 169.724 382.502 170.091 382.779C169.841 382.543 169.519 382.194 169.555 382.05C169.754 381.788 170.142 382.492 170.499 382.584C170.259 382.225 170.713 382.394 170.081 381.742C170.152 381.68 170.458 381.968 170.657 382.117C170.499 381.711 171.137 381.48 170.326 380.926L170.249 380.91C170.244 380.89 170.249 380.885 170.239 380.864C169.999 379.832 171.412 380.417 171.53 379.755L171.744 379.971C171.734 379.493 172.117 379.308 171.821 378.682C171.892 378.615 172.372 378.913 172.596 379.2C172.612 378.861 172.392 378.599 172.999 378.697C173.198 379.252 173.392 378.969 173.091 379.154C173.504 379.108 173.897 379.395 173.56 378.564C174.025 379.2 174.423 379.082 174.367 378.805L173.816 378.574C173.856 378.368 174.015 378.312 174.168 378.245L174.831 379.026C176.178 379.426 174.173 376.674 176.004 377.778C175.622 377.146 175.392 377.68 174.913 376.982C175.224 376.859 176.489 377.665 176.561 377.598C177.26 377.696 175.775 376.268 176.357 376.227C176.061 376.011 175.326 375.364 175.311 374.892C175.622 374.769 176.663 375.693 176.739 376.037C176.709 376.109 176.601 376.058 176.515 375.965C176.54 376.13 176.561 376.33 176.928 376.52L176.698 376.237C177.071 376.391 177.336 376.058 177.693 376.551C177.607 376.14 177.336 376.063 177.081 376.053C177.734 376.14 177.525 375.626 178.056 375.58C177.867 375.488 177.52 375.231 177.566 375.185C178.301 375.072 177.255 374.512 177.418 374.112C177.974 374.332 178.311 375.097 178.26 374.476C178.698 374.558 178.989 375.113 179.132 375.39C178.887 374.63 179.943 375.21 180.183 375.149L180.26 375.493C180.214 375.287 180.285 375.221 180.352 375.149L179.75 374.723C179.918 374.728 179.989 374.661 180.204 374.872C179.943 374.456 179.27 374.091 178.964 373.47C179.336 373.619 179 372.859 179.729 373.49C179.163 373.608 180.464 374.127 180.296 374.527C180.265 374.389 180.336 374.322 180.51 374.332C180.602 374.394 180.642 374.481 180.663 374.543C181.602 374.81 180.025 373.629 180.367 373.3C180.719 373.721 181.189 373.937 181.158 373.803C181.015 373.937 180.439 373.239 180.26 372.823C180.775 372.895 180.26 372.366 180.408 372.284L180.137 372.278C179.785 371.857 179.944 371.796 179.969 371.524C180.285 371.806 180.046 371.868 180.234 371.939C179.704 371.108 181.316 372.242 181.081 371.554C181.454 371.698 181.831 372.253 182.107 372.33C181.852 371.575 182.923 372.556 182.765 371.868C182.158 371.447 182.275 371.58 181.944 370.887L181.882 371.708L181.393 370.671C181.255 370.805 181.449 371.287 181.28 371.282C180.979 370.728 181.102 370.866 180.597 370.512C181.571 371.077 180.489 369.69 181.234 369.978L182.541 371.236C183.439 371.457 182.423 369.998 183.158 369.88L182.801 369.803C182.332 369.249 182.98 369.464 182.898 369.126C183.326 369.557 183.566 369.618 183.898 369.819C183.566 369.516 184.224 369.531 183.382 368.658L184.143 369.013C184.709 368.884 183.26 367.431 183.719 367.236C184.107 367.79 184.561 367.929 184.694 368.479C184.801 368.371 184.98 368.345 184.674 368.057C185.01 368.253 184.367 367.185 184.883 367.477C184.735 367.246 184.281 366.799 184.439 366.707C184.541 366.779 184.658 366.912 184.658 366.912C184.439 366.707 184.541 366.435 183.949 366.091C185.653 367.03 184.735 365.023 186.204 365.819C186.281 365.433 186.408 365.002 186.582 364.745C186.704 364.884 186.801 364.951 186.719 364.951C187.418 365.023 185.612 363.58 186.398 363.657C187.286 364.139 186.617 364.201 186.995 364.34C188.51 365.639 187.184 363.729 188.26 364.278L188.296 364.417C188.96 364.694 188.143 363.462 188.521 363.261C188.521 363.261 188.638 363.395 188.74 363.467C188.174 362.578 188.27 361.962 188.316 361.485C188.816 362.101 188.505 361.896 189.143 362.373C189.174 362.168 188.168 361.557 188.23 361.146C188.623 361.351 189.061 361.413 189.709 361.957L189.526 362.234C190.449 362.846 189.781 361.896 190.036 361.89L190.378 362.229C190.597 361.752 189.704 360.935 190.128 360.591L189.822 360.391C189.128 359.374 190.485 360.658 190.021 359.847L190.98 360.591C190.893 360.252 190.556 359.302 190.618 358.892C191.159 359.636 191.23 360.247 191.46 360.792C191.592 360.653 191.827 360.242 191.449 359.77C191.485 359.903 191.643 360.175 191.449 360.109C190.898 359.297 190.75 358.753 191.021 358.481C192.73 360.098 192.128 358.132 193.669 359.128C193.465 358.039 194.827 358.358 195.245 357.664C193.689 356.668 195.358 357.454 193.919 356.252C193.949 356.031 194.016 356.001 194.118 356.067L195.327 356.386C195.827 356.648 195.526 356.791 195.853 357.053C196.225 356.843 196.562 357.449 197.113 357.577C196.572 357.177 196.48 356.838 196.827 356.832L195.965 356.509C195.582 355.426 197.47 357.177 197.098 356.098L197.424 356.622C197.353 356.175 198.139 355.816 197.185 354.609C197.383 354.712 197.812 354.994 197.833 355.184C198.455 354.799 197.618 352.95 198.674 353.146L198.986 353.484C198.97 353.3 198.475 352.75 198.934 352.925C199.072 353.053 199.251 353.264 199.307 353.233C199.23 353.079 198.919 352.447 199.236 352.488L199.531 352.935C200.429 352.807 199.251 351.323 199.378 350.686C200.404 351.564 201.088 351.441 201.425 351.374L201.562 351.502C202.195 350.999 201.567 349.741 201.623 348.837C203.037 349.428 203.078 348.041 204.175 348.006C203.914 347.934 203.379 347.317 203.353 347.133C203.675 347.174 202.935 346.167 203.868 346.979L203.812 347.009C204.828 347.682 204.807 347.204 205.006 347.014L203.787 345.946C206.057 346.886 204.302 343.928 206.18 344.961C205.976 344.57 206.113 344.406 205.909 344.016L206.578 344.57C207.052 344.334 207.287 344.216 207.501 343.62L207.91 344.108C208.165 343.882 206.231 342.198 206.384 341.926L207.45 342.67C207.802 342.203 209.058 342.45 208.496 341.258C208.639 341.387 208.92 341.633 208.904 341.741C209.103 341.546 210.252 341.448 208.797 340.416C209.706 341.135 209.262 340.01 209.058 339.446L209.695 340.016C209.007 339.127 208.777 338.932 208.772 338.455C208.915 338.455 209.354 338.819 209.114 338.778C209.644 338.824 208.619 338.095 209.195 338.095L209.542 338.537C209.782 338.342 209.537 338.177 209.139 337.648C208.986 337.284 209.665 337.33 210.297 337.777C209.95 337.453 209.558 336.935 209.843 336.929C210.088 337.089 210.19 337.253 210.241 337.335C211.012 337.299 209.92 336.123 210.792 336.37C211.022 336.539 211.144 336.606 211.231 336.637C210.971 336.945 210.736 337.171 210.706 337.109C211.323 337.597 211.634 337.422 212.333 338.3C212.027 337.725 211.282 336.575 211.767 336.549C211.839 336.585 211.905 336.616 212.007 336.683L212.058 336.765C212.165 336.755 212.145 336.657 212.078 336.529C212.242 336.529 212.359 336.534 212.425 336.467C212.961 336.837 212.93 336.385 213.053 336.277C212.364 335.759 212.604 335.677 211.92 335.394C211.986 335.41 211.981 335.481 211.945 335.589C211.951 335.625 211.945 335.656 211.976 335.697C211.961 335.682 211.94 335.661 211.925 335.641C211.879 335.738 211.813 335.861 211.726 335.995C211.461 335.625 211.252 335.291 211.736 335.445C211.349 335.04 210.956 334.619 210.777 334.413C211.859 334.978 212.634 335.035 213.257 335.445C213.175 334.757 213.716 334.326 212.619 333.089C212.537 332.852 213.083 333.243 213.318 333.356C213.4 333.52 213.318 333.581 213.476 333.756C213.318 333.279 213.854 332.996 212.997 332.252C213.619 332.282 213.701 333.042 213.849 332.544L214.083 332.806C216.094 333.135 212.716 329.807 215.201 330.367C215.043 330.341 214.971 330.331 214.808 330.228C216.349 329.874 215.538 327.661 217.538 327.671C218.002 327.594 217.441 327.132 217.125 326.634L217.91 327.127L217.262 326.203C216.93 325.335 219.599 326.855 218.788 325.463L218.237 325.16C218.466 325.047 218.364 324.359 218.92 324.816C218.844 324.729 218.441 324.369 218.757 324.493L219.15 324.775L218.808 323.83C219.349 323.686 220.319 325.022 220.773 324.565C220.762 324.262 220.028 323.188 219.716 323.07C219.64 323.132 219.329 323.086 218.931 322.808L218.854 322.485C217.721 321.612 216.64 320.616 215.522 320.451L216.012 321.263L215.385 320.95L215.533 320.677C214.905 320.431 215.303 320.862 215.553 321.196C215.237 321.001 215.002 320.893 214.849 320.867L215.737 321.961C215.262 321.663 214.935 321.176 214.548 321.186C214.961 321.694 215.655 321.797 215.823 322.269C215.196 322.028 214.803 321.668 215.129 322.167C214.818 321.971 214.655 321.797 214.568 321.638C214.818 322.048 214.436 322.136 214.992 322.665C214.242 322.336 214.798 323.286 213.721 322.47C213.946 322.706 214.384 323.358 214.333 323.527C213.211 322.315 213.889 323.979 212.542 322.875C213.578 323.928 212.578 323.923 212.992 324.729C212.91 324.642 212.752 324.467 212.833 324.482C212.604 324.59 212.216 324.385 211.91 324.333C212.854 325.078 212.864 325.525 213.344 326.12C212.252 325.648 212.313 325.14 211.374 324.539C212.16 325.114 211.864 325.509 212.568 325.92C211.869 325.658 212.18 325.859 211.318 325.345C212.497 326.28 211.405 325.658 212.037 326.352C211.262 326.151 210.864 325.566 211.027 326.11C210.522 325.992 210.277 325.432 210.277 325.432ZM207.512 333.381C207.506 333.376 207.501 333.371 207.496 333.371C207.522 333.304 207.542 333.248 207.558 333.212C207.547 333.243 207.532 333.294 207.512 333.381ZM207.114 333.926C207.19 333.879 207.256 333.802 207.318 333.715C207.568 333.879 207.792 334.09 207.741 334.136C207.603 333.977 207.369 333.997 207.114 333.926ZM212.69 336.467C212.721 336.627 212.568 336.555 212.415 336.457C212.435 336.406 212.446 336.344 212.451 336.241C212.43 336.221 212.4 336.19 212.374 336.164C212.502 336.277 212.614 336.385 212.69 336.467Z" fill="#7EAF15"/>
<path d="M211.922 335.62C211.917 335.594 211.891 335.568 211.901 335.548C211.829 335.517 211.763 335.497 211.706 335.481C211.773 335.548 211.835 335.615 211.896 335.676C211.901 335.656 211.912 335.635 211.922 335.62Z" fill="#7EAF15"/>
<path d="M170.317 380.946L170.342 380.951C170.311 380.936 170.276 380.92 170.234 380.884C170.27 380.905 170.291 380.925 170.317 380.946Z" fill="#7EAF15"/>
<path d="M200.063 340.164L200.232 340.303L200.119 340.133L200.063 340.164Z" fill="#7EAF15"/>
<path d="M165.604 381.439C165.547 381.388 165.481 381.341 165.414 381.316C165.455 381.352 165.527 381.393 165.604 381.439Z" fill="#7EAF15"/>
<path d="M164.323 382.42L163.943 382.358C164.138 382.409 164.246 382.42 164.323 382.42Z" fill="#7EAF15"/>
<path d="M163.143 382.964C163.236 383.082 163.313 383.17 163.385 383.247L163.39 383.247L163.143 382.964Z" fill="#7EAF15"/>
<path d="M176.184 368.365C176.194 368.35 176.194 368.329 176.189 368.304C176.143 368.108 176.138 368.211 176.184 368.365Z" fill="#7EAF15"/>
<path d="M173.59 373.973C173.524 373.819 173.457 373.665 173.431 373.552C173.313 373.577 173.241 373.623 173.59 373.973Z" fill="#7EAF15"/>
<path d="M179.862 362.923C179.867 362.928 179.867 362.928 179.871 362.932C179.876 362.923 179.885 362.914 179.895 362.904L179.862 362.923Z" fill="#7EAF15"/>
<path d="M173.634 373.367C173.439 373.32 173.403 373.408 173.434 373.552C173.531 373.531 173.665 373.521 173.634 373.367Z" fill="#7EAF15"/>
<path d="M159.022 386.363L158.955 386.379C158.996 386.42 159.022 386.456 159.047 386.487L159.022 386.363Z" fill="#7EAF15"/>
<path d="M159.04 386.487L159.06 386.605C159.086 386.584 159.101 386.559 159.04 386.487Z" fill="#7EAF15"/>
<path d="M159.113 386.862L159.067 386.605C159.026 386.636 158.964 386.656 159.113 386.862Z" fill="#7EAF15"/>
<path d="M160.475 385.531L160.275 385.29C160.311 385.346 160.372 385.423 160.475 385.531Z" fill="#7EAF15"/>
<path d="M160.771 385.126C160.639 385.157 160.098 384.843 160.113 385.1L160.271 385.29C160.011 384.9 161.052 385.588 160.771 385.126Z" fill="#7EAF15"/>
<path d="M164.933 386.507L164.458 386.615C164.739 386.805 165.121 387.067 165.034 387.257C166.101 387.617 164.443 386.79 164.933 386.507Z" fill="#7EAF15"/>
<path d="M166.195 385.952C166.139 386.219 166.532 386.302 166.654 386.445C166.547 386.127 166.516 386.05 166.195 385.952Z" fill="#7EAF15"/>
<path d="M172.872 379.369L173.408 379.945C173.454 379.739 173.198 379.724 172.872 379.369Z" fill="#7EAF15"/>
<path d="M171.262 375.226L170.798 375L171.252 375.565L171.262 375.226Z" fill="#7EAF15"/>
<path d="M175.966 378.414L175.992 378.548L175.992 378.142L175.966 378.414Z" fill="#7EAF15"/>
<path d="M186.633 366.753L185.888 366.131C185.939 366.337 186.72 367.097 186.633 366.753Z" fill="#7EAF15"/>
<path d="M190.475 361.027C190.884 361.294 191.241 361.361 190.965 360.955C190.812 361.027 190.435 360.889 190.475 361.027Z" fill="#7EAF15"/>
<path d="M204.926 346.485L205.09 346.799L205.044 346.424L204.926 346.485Z" fill="#7EAF15"/>
</svg>
