<svg width="207" height="193" viewBox="0 0 207 193" fill="none" xmlns="http://www.w3.org/2000/svg">
<path d="M143.744 0C154.569 0 163.905 6.54857 171.268 13.8588C179.071 21.606 185.743 30.5892 191.184 40.1094C196.706 49.7668 200.985 60.161 203.787 70.9172C206.84 82.6222 208.159 95.2012 204.886 107.006C202.329 116.233 196.719 124.873 188.652 130.241C179.454 136.366 168.158 136.715 157.767 133.744C146.446 130.51 136.262 124.155 126.486 117.794C116.384 111.22 106.639 104.103 97.3036 96.4935C92.5979 92.6605 87.9991 88.6964 83.5134 84.6136C79.3795 80.8493 75.2895 77.0038 71.8529 72.5839C70.2132 70.4677 68.7243 68.2327 67.518 65.848C66.2615 63.3572 65.1243 60.6353 64.9798 57.8198C64.6971 52.3575 69.3964 48.6307 73.8633 46.4083C82.9039 41.9198 93.7351 42.8188 102.807 46.7142C112.602 50.9218 120.153 58.9749 126.009 67.6335C129.068 72.1532 131.726 76.9288 134.214 81.7794C136.921 87.0483 139.447 92.417 141.671 97.9044C146.075 108.798 149.26 120.341 149.694 132.121C150.077 142.552 148.243 153.171 143.75 162.647C139.29 172.043 132.078 179.827 122.949 184.915C113.852 189.99 103.335 192.431 92.9309 192.375C81.3773 192.313 70.0121 189.248 59.5642 184.478C49.7885 180.015 40.5469 174.103 32.7125 166.755C25.431 159.932 19.2427 151.679 15.9067 142.228C14.3297 137.758 13.4627 133.063 13.3685 128.331C13.3434 127.126 15.2281 127.126 15.2533 128.331C15.6365 148.077 30.1681 164.364 45.9185 174.771C63.8552 186.619 86.2525 193.973 107.745 188.804C117.565 186.445 126.838 181.575 133.749 174.171C140.603 166.824 144.775 157.379 146.659 147.609C150.944 125.397 143.009 103.223 133.045 83.6272C128.314 74.3194 122.968 65.0676 115.435 57.6888C108.323 50.7219 99.1946 45.8465 89.0859 45.3158C84.2986 45.0661 79.4046 45.8089 75.0697 47.9003C72.8833 48.9553 70.741 50.2974 69.0824 52.0766C67.0971 54.1991 66.4876 56.7836 67.1284 59.5991C68.2907 64.6994 71.52 69.4001 74.8686 73.3268C78.4119 77.4782 82.4768 81.1675 86.529 84.8133C95.243 92.6354 104.365 100.002 113.858 106.863C123.1 113.542 132.668 120.041 142.745 125.422C152.301 130.529 163.208 134.799 174.265 133.538C184.154 132.414 192.497 126.384 197.812 118.193C210.101 99.2528 204.509 74.3506 196.398 54.917C192.315 45.1285 186.949 35.858 180.541 27.3929C177.318 23.1416 173.825 19.059 170.043 15.2884C166.355 11.6114 162.309 8.23407 157.729 5.71826C153.426 3.35228 148.682 1.86656 143.744 1.86656C142.532 1.8728 142.532 0 143.744 0Z" fill="#7EAF15"/>
<path d="M16.4134 126.215C17.6447 130.523 20.7484 134.118 24.8132 136.035C25.2718 136.253 25.3911 136.909 25.1524 137.315C24.8759 137.783 24.3232 137.87 23.8645 137.652C19.3788 135.536 15.9485 131.453 14.5978 126.715C14.2648 125.553 16.0804 125.054 16.4134 126.215Z" fill="#7EAF15"/>
<path d="M14.8171 127.507C10.4256 131.365 6.02786 135.217 1.63635 139.075C0.731659 139.868 -0.606446 138.55 0.304524 137.751C4.70232 133.893 9.09382 130.042 13.4853 126.184C14.39 125.385 15.7281 126.702 14.8171 127.507Z" fill="#7EAF15"/>
</svg>
