<svg width="81" height="150" viewBox="0 0 81 150" fill="none" xmlns="http://www.w3.org/2000/svg">
<path d="M50.3325 1.65625C42.774 1.68186 35.2091 1.71396 27.6506 1.73957C25.0547 1.75238 21.5045 1.32328 19.5003 3.41067C18.4378 4.5184 18.2661 6.01036 18.3043 7.47666C18.3488 9.33994 18.4441 11.2032 18.5268 13.0665C19.2203 27.9984 20.6455 42.8918 22.7769 57.6892C23.9857 66.0771 25.43 74.4332 27.097 82.7443C27.3069 83.788 28.6113 83.5191 28.9358 82.7443C29.2857 81.9183 29.6292 81.0858 29.9792 80.2598C30.1828 79.7796 29.7628 79.2098 29.3111 79.0818C28.7639 78.9217 28.3377 79.2739 28.1405 79.7541C27.7906 80.5801 27.4469 81.4124 27.097 82.2384C27.7078 82.2384 28.325 82.2384 28.9358 82.2384C26.0918 68.0621 23.9031 53.7578 22.408 39.3702C21.6636 32.186 21.0846 24.989 20.6774 17.7792C20.4738 14.1935 20.1748 10.5629 20.2066 6.97079C20.2193 5.61975 20.652 4.56966 21.969 4.08943C23.1779 3.65403 24.4949 3.68611 25.761 3.67971C33.9494 3.64769 42.1441 3.61558 50.3325 3.58357C51.5605 3.57716 51.5668 1.65625 50.3325 1.65625Z" fill="#7EAF15"/>
<path d="M51.7646 4.41742C53.6733 15.7124 55.582 27.0393 56.231 38.4879C56.8418 49.2898 55.7793 60.1879 57.3571 70.9258C57.7962 73.8968 58.426 76.8741 59.4249 79.7043C59.7621 80.6583 60.3793 81.4715 61.3719 81.7981C62.4089 82.1438 63.2742 81.5547 63.3696 80.4726C63.4778 79.2432 61.569 79.2496 61.4609 80.4726C61.48 80.2677 61.9699 79.9924 61.9635 79.9796C61.919 79.8963 61.6835 79.8196 61.5945 79.7427C61.2509 79.429 61.1683 78.923 61.0346 78.494C60.6465 77.2902 60.3156 76.0673 60.0293 74.8379C59.4758 72.4624 59.1005 70.0484 58.8587 67.6217C58.3561 62.6337 58.3497 57.6202 58.3688 52.613C58.3879 47.529 58.3943 42.4578 58.0762 37.3866C57.7453 32.1425 57.1536 26.9177 56.4346 21.712C55.6139 15.7572 54.615 9.82794 53.6098 3.89874C53.3998 2.68856 51.561 3.20725 51.7646 4.41742Z" fill="#7EAF15"/>
<path d="M61.097 80.1933C67.0013 79.8987 72.9182 80.0331 78.8098 80.5966C78.5044 80.1932 78.1991 79.7835 77.8873 79.3801C75.0624 89.2151 69.807 98.064 64.1763 106.516C58.5201 115.013 52.3995 123.234 47.5387 132.237C44.8219 137.263 42.5314 142.533 40.9917 148.053C41.6025 148.053 42.2196 148.053 42.8304 148.053C40.2091 138.64 35.1764 130.201 29.4693 122.376C23.6414 114.385 17.139 106.919 11.3747 98.8837C8.16167 94.4015 5.18402 89.7337 2.74722 84.7778C2.55635 85.2452 2.36554 85.719 2.17467 86.1864C10.7766 83.4715 19.8113 82.4215 28.8014 83.0746C30.0293 83.1643 30.023 81.2434 28.8014 81.1537C19.6586 80.4878 10.4139 81.5763 1.66564 84.336C1.04848 84.5281 0.819503 85.1812 1.09309 85.7446C5.42589 94.5424 11.4065 102.354 17.4572 110.006C23.4887 117.625 29.7111 125.168 34.572 133.62C37.2887 138.339 39.5156 143.314 40.9853 148.571C41.2398 149.487 42.5695 149.487 42.824 148.571C45.5662 138.717 50.7771 129.849 56.3823 121.397C62.0258 112.887 68.1591 104.672 73.0646 95.6886C75.8004 90.6686 78.1354 85.4118 79.7132 79.9052C79.8977 79.2585 79.3951 78.7461 78.7907 78.6885C72.9055 78.1186 66.9886 77.9842 61.0779 78.2852C59.8754 78.3364 59.869 80.2573 61.097 80.1933Z" fill="#7EAF15"/>
<path d="M47.8004 4.07698C49.3783 4.78131 51.2742 4.48674 52.3813 3.08448C52.9857 2.31612 52.4259 1.3238 51.4524 1.47747C43.0859 2.82211 34.9483 5.33198 27.2498 8.88566C26.2954 9.32747 26.8999 10.5889 27.7334 10.6785C34.8465 11.4277 42.0487 10.9602 49.0156 9.33384C50.0717 9.09053 49.83 7.43858 48.7611 7.44498C40.7127 7.52182 32.6643 7.60513 24.6158 7.68197C23.5724 7.69477 23.2733 9.35313 24.3612 9.57083C34.7192 11.6518 45.3637 12.0743 55.8426 10.7809C57.0451 10.6337 57.096 8.94967 55.8426 8.86003C46.0508 8.15569 36.1636 9.13534 26.69 11.7286C25.9392 11.9335 25.8373 12.7915 26.27 13.3357C30.5519 18.7015 37.9704 21.1027 44.5746 19.3675C45.6944 19.073 45.3254 17.6003 44.3202 17.4786C38.0214 16.7295 31.5827 18.0548 26.0537 21.173C25.3666 21.5636 25.4683 22.7547 26.2827 22.9276C34.293 24.6244 42.6341 24.285 50.4726 21.8967C51.2997 21.6469 51.4588 20.1935 50.4726 20.0463C41.2471 18.6504 31.6845 21.5572 24.8195 27.9283C24.2914 28.4213 24.5649 29.3561 25.2393 29.5354C35.1456 32.1479 45.8217 31.45 55.289 27.5057C56.2688 27.0959 56.1607 25.7065 55.0345 25.6169C44.9756 24.8421 34.713 27.8771 26.6772 34.024C26.0346 34.517 26.0664 35.5095 26.9062 35.7784C36.049 38.7494 46.0635 38.2244 54.8818 34.4338C55.938 33.9792 55.1299 32.5001 54.1437 32.6794C44.4665 34.4595 34.9356 36.995 25.6528 40.2605C24.6158 40.6255 24.8258 42.0533 25.9074 42.1494C35.5846 42.9625 45.3254 42.54 54.9072 40.9521C56.1287 40.7472 55.5944 38.935 54.3983 39.1015C44.1485 40.523 34.0767 43.1034 24.3995 46.798C23.3942 47.1822 23.547 48.6037 24.654 48.687C33.2624 49.3401 41.9088 49.212 50.4917 48.3092C51.6878 48.1811 51.7387 46.337 50.4917 46.3882C41.5207 46.766 32.7152 48.9814 24.6222 52.8937C23.7124 53.3355 24.2341 54.6353 25.1058 54.6865C33.8668 55.1412 42.6723 54.1872 51.1343 51.8757C52.3177 51.5491 51.815 49.6986 50.6253 50.0251C44.2756 51.7603 37.9196 53.4892 31.5699 55.2245C30.5456 55.5062 30.7302 57.1453 31.8245 57.1133C38.8931 56.8764 45.968 56.6458 53.0367 56.4089C52.8776 55.8134 52.7185 55.2181 52.5531 54.6162C44.1038 59.0727 35.6547 63.5291 27.2054 67.9856C26.4037 68.4082 26.7346 69.881 27.6889 69.7785C37.2134 68.7156 46.5534 66.3848 55.448 62.7927C56.5551 62.3445 56.1542 60.5902 54.939 60.9423C46.8906 63.2538 38.8358 65.5718 30.7873 67.8833C29.763 68.1778 29.9474 69.7785 31.0418 69.7721C39.1029 69.7145 47.1705 69.6569 55.2317 69.5992C55.1489 68.9717 55.0599 68.3443 54.9772 67.7104C47.5268 70.4893 40.0764 73.2682 32.6324 76.0471C31.5953 76.4313 31.8054 77.8143 32.887 77.936C40.4137 78.7492 48.0103 78.7108 55.537 77.8336C55.4543 77.2061 55.3653 76.5785 55.2826 75.9446C47.2087 77.5261 39.2812 79.7928 31.5826 82.719C30.6601 83.0712 30.6791 84.7231 31.8371 84.6079C42.545 83.5322 53.1894 81.8483 63.7064 79.556C63.4583 78.9733 63.2166 78.3842 62.9684 77.8015C55.8298 81.1952 47.8768 82.6102 40.0128 81.9507C40.0955 82.5782 40.1845 83.2056 40.2673 83.8396C53.2529 81.9827 66.2324 80.1194 79.218 78.2625C80.2806 78.1089 80.0323 76.3097 78.9635 76.3737C58.4065 77.6543 38.0532 81.0734 17.8461 84.9665C12.12 86.0678 6.40019 87.214 0.680386 88.3537C-0.375774 88.565 -0.133907 90.2746 0.934971 90.2426C20.5121 89.6023 40.1782 88.9427 59.5135 85.5555C64.9089 84.6079 70.2661 83.4425 75.5597 82.021C76.7749 81.6945 76.2404 79.9785 75.0506 80.1706C60.0608 82.5718 45.071 84.9793 30.0748 87.3804C25.8438 88.0592 21.6127 88.7378 17.3817 89.4166C16.4337 89.5702 16.5101 91.0622 17.3817 91.2671C30.5137 94.3598 44.0848 92.9639 57.2168 90.6076C60.977 89.9289 64.7244 89.1732 68.4719 88.4112C69.6743 88.1679 69.1653 86.3239 67.9628 86.5608C53.6347 89.359 39.3067 92.1507 24.9785 94.9489C20.932 95.7364 16.8791 96.5304 12.8326 97.318C11.7574 97.5293 12.0309 99.2004 13.0871 99.2068C27.6061 99.2837 42.1188 98.8291 56.606 97.8174C60.6971 97.5357 64.7881 97.2027 68.8728 96.8313C70.0753 96.7225 70.1198 94.8592 68.8728 94.9104C56.9051 95.3906 44.9883 97.1643 33.396 100.212C30.113 101.077 26.8617 102.043 23.6424 103.106C22.6816 103.426 22.7707 105.123 23.8968 104.995C36.278 103.561 48.6594 102.127 61.0406 100.692C60.9579 100.065 60.8687 99.4374 60.786 98.8035C50.0908 100.923 39.5229 103.676 29.1522 107.063C26.2127 108.024 23.2861 109.035 20.3785 110.098C19.4051 110.451 19.5004 111.987 20.633 111.987C33.5232 111.981 46.3943 110.739 59.0491 108.28C60.258 108.043 59.7427 106.199 58.5402 106.429C47.8132 108.446 37.4107 111.987 27.6571 116.905C26.9381 117.27 27.0971 118.493 27.886 118.659C36.628 120.554 45.9108 118.326 52.8903 112.717C53.6665 112.09 52.8204 110.88 51.9614 111.11C45.4654 112.858 39.4592 116.098 34.3884 120.535C33.7267 121.118 34.293 122.136 35.0629 122.175C39.5483 122.418 44.0529 121.048 47.635 118.333C48.5893 117.609 47.7686 116.04 46.6742 116.674C42.7168 118.954 39.0076 121.649 35.5973 124.697C35.1774 125.075 35.2347 125.965 35.7883 126.208C38.9885 127.585 42.6787 127.342 45.5927 125.37C45.2046 124.864 44.8228 124.364 44.4347 123.858C41.3362 126.785 38.9821 130.377 37.4806 134.372C37.048 135.531 38.8866 136.031 39.3193 134.884C39.771 133.694 40.2164 132.496 40.6682 131.305C41.0499 130.287 39.4211 129.608 38.9249 130.562C37.5124 133.271 37.2706 136.472 38.3776 139.335C38.7721 140.365 40.1338 140.173 40.2547 139.078C40.8591 133.668 41.4571 128.264 42.0615 122.853C42.1824 121.752 40.4837 121.592 40.1846 122.597C38.7722 127.412 38.225 132.458 38.5813 137.471C38.6513 138.489 40.2227 138.854 40.4582 137.727C41.9915 130.332 44.1293 123.084 46.8333 116.04C46.2225 115.868 45.6054 115.701 44.9946 115.528C43.5631 120.804 42.8886 126.272 43.0031 131.741C43.6394 131.741 44.2756 131.741 44.9118 131.741C44.7846 125.677 46.1781 119.671 48.9902 114.312C48.4113 114.062 47.8259 113.818 47.247 113.569C44.6129 121.137 42.6532 128.923 41.3807 136.844C41.1898 138.035 42.9459 138.579 43.2195 137.356C44.2693 132.637 46.1462 128.18 48.7866 124.14C48.2076 123.89 47.6223 123.647 47.0433 123.397C45.51 128.648 43.2768 133.649 40.401 138.297C40.9927 138.457 41.5843 138.618 42.1823 138.784C43.1431 129.57 46.0699 120.683 50.0973 112.384C54.1756 103.977 59.3099 96.1269 64.7625 88.5649C67.8737 84.2493 71.1059 80.0169 74.3507 75.7973C73.8099 75.5732 73.2627 75.3427 72.7219 75.1186C72.1684 83.9868 66.9831 92.2916 59.3292 96.6969C59.7618 97.1323 60.2007 97.574 60.6333 98.0094C64.8389 91.76 70.0243 86.2279 75.9541 81.6049C75.4514 81.2143 74.9552 80.8301 74.4526 80.4395C67.5876 90.7804 60.7225 101.121 53.8638 111.462C53.1639 112.512 54.7864 113.383 55.5117 112.429C61.5942 104.432 67.6766 96.4343 73.7591 88.4433C73.2119 88.1231 72.6583 87.7966 72.1111 87.4764C66.2704 96.9401 60.4361 106.404 54.5954 115.868C52.9475 118.538 51.2997 121.208 49.6518 123.884C50.199 124.204 50.7526 124.531 51.2997 124.851C55.8807 115.426 60.4553 106 65.0362 96.5751C65.5707 95.4738 63.9991 94.5133 63.3883 95.6082C57.1913 106.705 50.3454 117.423 42.895 127.707C43.474 127.956 44.0593 128.2 44.6383 128.449C48.653 117.628 51.7705 106.487 53.9655 95.1472C54.0546 94.6862 53.8384 94.0524 53.2976 93.9628C46.4135 92.8999 39.4276 93.1048 32.6198 94.5967C32.8679 95.1793 33.1096 95.7684 33.3578 96.3511C40.1083 92.4517 46.8588 88.5522 53.603 84.6463C54.4365 84.1661 54.0547 82.8791 53.1194 82.8535C44.702 82.6806 36.2781 84.7552 28.8913 88.8147C27.0908 89.8008 25.3221 90.8957 23.6933 92.1507C22.2999 93.22 20.9765 94.7375 21.3646 96.6392C21.7209 98.3616 23.3878 99.2965 24.8766 99.8856C26.9699 100.712 29.1903 101.358 31.379 101.883C35.47 102.863 40.032 103.215 43.9003 101.237C46.9225 99.687 49.5565 96.7224 50.0973 93.2776C50.6254 89.9288 49.0029 86.7914 46.2162 84.9857C43.5121 83.2313 40.0319 82.7126 36.8698 82.9815C28.5733 83.6922 20.8174 88.8724 16.4082 95.8837C16.1092 96.3575 16.3702 97.2027 16.9809 97.2923C25.0485 98.4833 33.2878 96.2742 39.6883 91.1838C40.4137 90.6075 39.7328 89.6214 39.0139 89.5446C32.1934 88.8339 25.3094 89.2244 18.6034 90.6459C18.7752 91.2606 18.9405 91.8818 19.1123 92.4965C23.1587 91.4784 26.8618 89.4037 29.8584 86.4903C30.4692 85.8949 29.992 84.8705 29.184 84.8513C21.2564 84.6336 13.3353 85.1521 5.49677 86.3623C4.80963 86.4712 4.54882 87.5341 5.07691 87.9695C12.7118 94.2444 22.4208 97.6957 32.2889 97.5676C33.3387 97.5548 33.6186 95.9349 32.5434 95.6787C26.1873 94.1804 19.5769 94.1612 13.2145 95.6275C12.4001 95.8132 12.2982 96.9785 12.9853 97.3819C18.8069 100.814 25.6338 102.37 32.3588 101.742C33.3068 101.653 33.6504 100.513 32.8424 99.9495C28.6559 97.0618 22.8853 96.8056 18.4507 99.2964C17.4454 99.8599 16.3001 100.622 15.9756 101.806C15.6193 103.093 16.421 104.169 17.4072 104.886C19.6786 106.545 22.459 107.723 25.0803 108.69C28.2042 109.836 31.4618 110.559 34.7702 110.905C35.5846 110.988 36.0364 109.791 35.4447 109.266C31.6972 105.943 26.1237 105.264 21.7082 107.633C21.1037 107.953 21.0656 108.984 21.7082 109.292C26.5245 111.609 31.8117 112.756 37.1561 112.564C38.0659 112.532 38.5049 111.245 37.6397 110.771C32.5116 107.992 26.4737 107.255 20.8366 108.741C20.1113 108.933 19.9521 109.823 20.4166 110.348C25.112 115.656 31.6399 119.223 38.6259 120.266C39.3703 120.375 40.2164 119.632 39.7011 118.858C38.3459 116.802 35.8709 115.81 33.485 116.412C33.116 116.508 32.7407 116.93 32.7852 117.34C33.3833 122.674 36.8125 127.265 41.7306 129.34C42.5578 129.685 43.1623 128.59 42.806 127.931C41.4763 125.427 40.1465 122.917 38.8168 120.414C38.4605 119.741 37.1944 119.812 37.0735 120.644C36.3545 125.645 36.4563 130.678 37.3916 135.646C37.5634 136.562 39.0648 136.562 39.2303 135.646C40.3628 129.512 40.8335 119.652 33.434 117.308C32.8551 117.123 32.2062 117.622 32.2252 118.237C32.3907 122.578 34.3757 126.74 37.7223 129.512C38.2567 129.954 39.122 129.839 39.3193 129.09C41.8261 119.575 44.3393 110.066 46.846 100.552C47.8704 96.6585 48.4113 91.869 52.1842 89.6407C53.9784 88.5842 56.0206 87.9696 57.9675 87.2588C60.2516 86.4264 62.5357 85.5875 64.8198 84.7551C69.9861 82.8662 75.1525 80.9839 80.3187 79.095C80.007 78.5571 79.7016 78.0257 79.3898 77.4878C67.6003 92.2084 57.3059 108.133 48.7675 124.979C46.3816 129.685 44.1356 134.462 42.0233 139.296C42.6023 139.373 43.1876 139.45 43.7666 139.527C41.4125 131.459 37.875 123.737 33.275 116.719C30.9845 113.23 28.4332 109.919 25.6719 106.801C22.9552 103.727 20.0668 100.808 17.35 97.7341C14.2961 94.2893 11.4648 90.6331 9.40338 86.4903C9.21251 86.9578 9.02153 87.4317 8.83066 87.8991C18.247 85.5172 27.6697 83.1416 37.0861 80.7597C37.6078 80.6252 37.8559 80.0746 37.7541 79.5816C33.7267 60.6607 31.7354 41.3171 31.8309 21.9672C31.8563 16.4862 32.0535 11.0115 32.4098 5.5433C32.009 5.85064 31.6017 6.15796 31.2008 6.47171C39.2811 8.41183 47.7051 8.5207 55.8362 6.8175C55.4354 6.51015 55.0281 6.20284 54.6273 5.88909C55.2571 24.6308 55.887 43.3725 56.5169 62.1141C56.695 67.4414 56.8732 72.7623 57.0514 78.0897C57.3695 77.7695 57.6876 77.4493 58.0057 77.1292C54.4364 77.1036 50.8671 77.0779 47.2977 77.0523C45.5735 77.0395 43.8494 77.0332 42.1252 77.014C40.6618 77.0012 39.1476 76.9691 37.8751 76.1367C35.8328 74.8049 35.0756 72.1027 34.6048 69.8489C33.9495 66.7434 33.5486 63.5611 33.1732 60.4108C31.6272 47.5535 31.309 34.5683 29.3367 21.7558C28.2296 14.5652 26.5563 7.45775 23.8904 0.683343C23.566 -0.142648 22.3126 -0.309127 22.0518 0.683343C21.1229 4.21781 20.7793 7.9061 21.0847 11.5494C21.371 14.9238 22.0454 18.5222 23.6869 21.5124C25.0167 23.9392 27.2499 26.3724 30.1638 26.5709C33.4341 26.7886 35.6674 23.7471 37.2262 21.2692C39.3003 17.9652 40.5409 14.2194 40.9672 10.3456C41.0372 9.71167 40.3056 9.26989 39.7584 9.41716C34.4331 10.8899 29.6485 15.9419 30.0111 21.7686C30.3165 26.699 35.0693 31.1939 40.0701 30.7521C42.3352 30.5536 44.4093 29.369 45.4909 27.32C46.4644 25.4759 46.6488 23.2541 46.1525 21.2435C45.688 19.361 44.5238 17.5361 42.7296 16.7037C40.1973 15.5256 37.3342 16.4221 35.2092 18.0356C30.8764 21.3396 27.1608 28.7223 31.0101 33.7038C32.8043 36.0281 35.8518 37.0142 38.6958 36.9181C41.4189 36.8285 43.983 35.7336 46.089 34.0175C50.1991 30.6752 52.3686 24.6885 49.8937 19.7261C47.7813 15.5001 42.7041 12.9452 38.0786 13.5791C32.1425 14.3923 28.8468 20.821 27.9052 26.2187C27.3771 29.2409 27.5744 32.4552 29.0886 35.1765C30.3229 37.392 32.3652 38.9799 34.732 39.8251C39.5611 41.5412 45.2428 40.0748 48.653 36.2458C52.5023 31.9302 53.5394 25.6552 52.3496 20.0974C51.7261 17.1776 50.2563 14.2322 47.0497 13.6623C44.0339 13.1308 41.0181 14.5587 38.4159 15.929C33.485 18.5158 28.0705 21.6662 25.7928 27.0639C23.655 32.1351 25.4302 37.821 29.2477 41.5603C33.1733 45.415 38.8485 46.798 43.9957 44.7298C49.092 42.6808 53.0176 38.026 54.3665 32.6858C55.6517 27.5954 54.29 21.5764 49.9699 18.3109C47.8449 16.7037 45.141 16.2299 42.6024 17.0623C39.5611 18.0612 37.0416 20.3984 34.5984 22.3833C29.8393 26.2507 25.004 30.7904 23.2416 36.8861C21.721 42.1366 22.529 48.5268 27.0463 52.0677C31.5 55.5573 38.1741 55.2693 42.6087 51.8885C44.9756 50.0828 46.6933 47.6049 47.7558 44.8259C48.7865 42.1303 49.3147 38.8455 48.6658 35.9961C48.0486 33.2877 45.7644 31.5459 43.0095 31.738C40.42 31.9173 37.8815 33.3261 36.1127 35.2086C32.0154 39.569 29.8838 46.4714 31.8689 52.2726C33.6758 57.5487 39.0012 61.9733 44.7592 61.3394C50.0909 60.7503 54.9009 55.615 54.201 50.0572C53.8384 47.1758 51.9487 44.3777 48.9648 43.8206C46.159 43.2956 43.4231 44.621 41.2853 46.3562C38.9058 48.2899 37.1943 51.0176 36.0682 53.8541C34.9229 56.7419 34.4902 60.1419 35.5209 63.1321C37.2324 68.0944 43.5249 72.3782 48.3476 68.6516C50.18 67.2365 51.4078 64.9443 51.4078 62.6072C51.4078 59.8923 49.582 57.8241 47.1006 56.9661C41.5399 55.0388 35.381 59.0534 33.6186 64.4063C31.8562 69.7656 34.662 76.0727 39.5102 78.7364C42.0806 80.1514 45.5544 80.6508 48.0739 78.8388C49.8681 77.5453 50.6762 75.3556 50.4853 73.1786C50.2881 70.9695 49.2892 68.8052 47.6541 67.3005C45.7008 65.5076 43.0477 65.0147 40.49 65.4308C37.5315 65.9111 34.8275 67.6527 32.7725 69.7978C30.8956 71.7635 28.4014 75.0546 31.0481 77.4558C32.1043 78.4098 33.4914 78.8965 34.7957 79.4023C36.4563 80.049 38.1551 80.638 39.9175 80.9005C42.8505 81.3359 45.9489 80.8557 47.9658 78.4994C49.5055 76.7065 50.3962 74.107 49.3655 71.8403C48.1694 69.2214 45.1728 68.6324 42.6087 69.1126C39.822 69.6376 37.0798 71.2704 35.1265 73.313C33.3514 75.1635 31.8625 78.0577 32.7978 80.6765C33.4977 82.6486 35.4319 84.0124 37.4488 84.3198C39.6883 84.6591 41.7561 83.481 42.0997 81.1247C42.3224 79.5623 41.8897 77.904 41.5588 76.3865C41.2025 74.7793 40.7573 73.1913 40.2165 71.6353C39.1094 68.4466 37.6396 65.3924 35.8391 62.5367C35.4891 61.9796 34.5094 61.8451 34.1913 62.5367C31.6718 68.0049 29.7885 73.742 28.6178 79.6584C29.2413 79.7416 29.8648 79.8313 30.4947 79.9146C30.9337 74.1967 30.5583 68.453 29.4131 62.8376C29.2286 61.9348 27.7397 61.9092 27.5743 62.8376C25.6719 73.3129 26.2509 84.1853 29.3048 94.3853C30.1765 97.2859 31.2518 100.122 32.4988 102.882C32.7851 103.51 33.8604 103.51 34.1467 102.882C39.9938 89.9993 42.9014 75.8357 42.5833 61.6722C42.4942 57.6639 42.1252 53.662 41.5272 49.6986C41.419 48.9878 40.3756 48.7702 39.9302 49.276C35.1647 54.7058 32.5943 61.89 32.8933 69.1382C32.9379 70.2011 34.4775 70.47 34.7702 69.3943C38.1168 56.998 39.0966 43.9936 37.6078 31.2387C37.5124 30.4256 36.628 29.9517 35.979 30.56C31.4617 34.7796 28.6686 40.5807 28.0769 46.7404C28.7132 46.7404 29.3494 46.7404 29.9857 46.7404C30.2593 39.4858 29.5085 32.2056 27.7652 25.1623C27.4916 24.0417 25.9965 24.4002 25.8883 25.4183C25.5893 28.2677 25.2965 31.1107 24.9975 33.96C25.6337 33.96 26.27 33.96 26.9062 33.96C26.9126 28.5879 26.919 23.2156 26.9253 17.8499C26.9253 16.6141 25.0166 16.6141 25.0166 17.8499C25.0102 23.222 25.0038 28.5943 24.9975 33.96C24.9975 35.2214 26.779 35.1638 26.9062 33.96C27.2052 31.1107 27.498 28.2677 27.797 25.4183C27.1735 25.5016 26.55 25.5911 25.9202 25.6744C27.6189 32.564 28.3378 39.6523 28.0706 46.7469C28.026 48.0018 29.8648 47.957 29.9793 46.7469C30.5201 41.093 33.1923 35.7784 37.3215 31.9237C36.7807 31.6996 36.2335 31.4693 35.6927 31.2451C37.1624 43.8463 36.2336 56.6522 32.9252 68.8948C33.5487 68.9781 34.1722 69.0678 34.8021 69.151C34.5221 62.4151 36.838 55.7046 41.2789 50.6462C40.7445 50.5053 40.2164 50.3645 39.682 50.2237C41.737 63.8301 40.6426 77.8847 36.6152 91.0301C35.4764 94.7503 34.1021 98.3872 32.4988 101.928C33.046 101.928 33.5995 101.928 34.1467 101.928C29.9284 92.5925 27.9816 82.2644 28.4396 72.026C28.5669 69.119 28.8978 66.2248 29.4195 63.3627C28.8087 63.3627 28.1914 63.3627 27.5807 63.3627C28.6941 68.8117 29.0186 74.3822 28.5923 79.9272C28.5096 80.9965 30.2593 81.2464 30.4692 80.1835C31.6081 74.4399 33.4023 68.8373 35.8518 63.5228C35.3046 63.5228 34.7512 63.5228 34.204 63.5228C35.7628 65.9943 37.0925 68.6132 38.1041 71.3601C39.0839 74.0237 40.0193 76.9563 40.2483 79.8056C40.3183 80.6828 40.2483 81.7265 39.4148 82.2196C38.8485 82.5525 38.1296 82.5397 37.5124 82.3989C36.0491 82.0659 34.5794 80.9454 34.4776 79.3382C34.3185 76.8858 36.0999 74.7856 37.9323 73.4026C39.7647 72.0195 42.0806 70.8478 44.4219 70.867C46.4579 70.8862 48.1822 72.2886 47.8959 74.4592C47.6478 76.3161 46.1843 78.1345 44.4283 78.7556C41.5716 79.7737 38.4222 78.7555 35.7246 77.7246C34.6175 77.302 33.326 76.9114 32.4161 76.1175C31.3282 75.1634 31.958 73.9917 32.6515 72.9865C34.0957 70.8991 36.1063 69.1317 38.4095 68.0752C40.4264 67.1532 43.0349 66.7819 45.0836 67.8192C47.8767 69.2342 49.9064 73.7292 47.8131 76.5017C46.3498 78.4354 43.5695 78.3457 41.5208 77.5646C39.2939 76.7194 37.487 74.9266 36.3544 72.852C34.0258 68.594 34.8975 63.3243 38.8104 60.3469C40.6491 58.9446 43.0159 58.1634 45.3255 58.5091C47.406 58.8229 49.461 60.142 49.5246 62.4407C49.5755 64.2527 48.6275 66.0967 47.1896 67.1725C45.4527 68.4723 43.1559 68.3314 41.3171 67.3197C39.2621 66.1864 37.7287 64.1438 37.1625 61.8643C36.5008 59.2007 37.0544 56.3257 38.1551 53.8605C39.2112 51.4914 40.7064 49.2568 42.7551 47.6496C44.4793 46.2986 46.8715 45.1268 49.092 45.8311C51.4588 46.5803 52.5276 49.2695 52.3813 51.5874C52.2413 53.8413 50.9562 55.9031 49.2893 57.3501C45.5418 60.5965 40.2801 59.7898 36.838 56.5115C33.0396 52.8938 32.2888 47.4959 33.924 42.636C35.2982 38.5637 38.7912 33.5118 43.6139 33.6463C49.0537 33.7936 46.8715 42.5912 45.4145 45.5174C43.2195 49.9355 38.9567 52.8809 33.9685 52.6248C31.7099 52.5095 29.4258 51.6836 27.7461 50.1341C26.06 48.5717 25.0676 46.4652 24.6604 44.2177C23.776 39.3002 25.7548 34.4017 28.8023 30.6303C30.5075 28.5237 32.4988 26.6669 34.5602 24.9189C36.6216 23.1772 38.7277 21.3267 41.0372 19.9245C43.0414 18.7079 45.4018 18.0612 47.6222 19.0985C49.5246 19.9821 50.8989 21.7173 51.796 23.5806C53.8065 27.7554 53.0749 32.6154 50.7463 36.4956C48.4304 40.3502 44.3965 43.43 39.8347 43.7758C35.381 44.1151 31.1373 41.618 28.7387 37.9106C27.5489 36.0794 26.7917 33.9535 26.7663 31.7573C26.7408 29.4586 27.5871 27.3008 28.9041 25.4504C31.6845 21.5317 36.3862 19.041 40.5918 16.9856C42.6468 15.9803 45.4973 14.783 47.7369 15.8715C50.021 16.9792 50.5935 20.1487 50.8289 22.441C51.3188 27.16 50.11 32.2759 46.6107 35.6311C43.6077 38.5061 38.9503 39.3705 35.082 37.9042C33.1287 37.1615 31.5381 35.7464 30.5901 33.8767C29.4194 31.578 29.3558 28.8375 29.8393 26.3467C30.7046 21.9158 33.2686 16.2812 38.2058 15.4872C41.9151 14.8917 46.0316 16.8831 47.9467 20.1102C50.2754 24.0416 48.6848 28.9399 45.5799 31.9302C42.3987 34.9844 36.4817 36.5211 32.9887 33.0507C29.1967 29.2857 32.5498 22.8892 35.8074 20.0206C37.3852 18.6312 39.7648 17.453 41.8516 18.3878C43.245 19.0153 44.0403 20.4688 44.3648 21.9031C44.7083 23.4142 44.5492 25.1237 43.7857 26.4812C42.914 28.0371 41.2598 28.844 39.5102 28.8504C35.3746 28.8568 31.7608 24.9636 31.9262 20.8529C32.1044 16.2299 36.0426 12.4329 40.2864 11.2612C39.8855 10.9538 39.4784 10.6465 39.0776 10.3328C38.7531 13.3166 37.8369 16.2428 36.4181 18.8809C35.7183 20.1807 34.9102 21.4421 33.9558 22.569C33.1351 23.5423 32.1235 24.4899 30.8001 24.6308C28.3442 24.8933 26.41 22.4472 25.3538 20.5327C23.9286 17.9395 23.3116 14.7509 23.038 11.8247C22.7008 8.24541 22.9997 4.65324 23.9095 1.1828C23.2987 1.1828 22.6817 1.1828 22.0709 1.1828C26.9763 13.6367 28.395 27.0254 29.4703 40.2669C30.0174 46.9837 30.482 53.7068 31.29 60.398C31.6781 63.6123 32.0917 66.8395 32.7215 70.0154C33.2114 72.4677 34.013 75.1186 35.8454 76.9114C38.454 79.4598 42.4178 78.9221 45.7517 78.9477C49.8491 78.9797 53.9402 79.0053 58.0376 79.0373C58.5402 79.0437 59.011 78.5955 58.9919 78.0768C58.3621 59.3352 57.7322 40.5935 57.1023 21.8518C56.9242 16.5245 56.746 11.2036 56.5678 5.87627C56.5487 5.22316 55.9762 4.8198 55.359 4.94786C47.5714 6.58063 39.4784 6.45895 31.7417 4.60207C31.1118 4.4484 30.5774 4.89658 30.5329 5.53048C29.2604 25.0149 30.1002 44.6081 33.0078 63.9133C33.8222 69.3302 34.8084 74.7217 35.9473 80.0747C36.17 79.6841 36.3926 79.287 36.6152 78.89C27.1989 81.272 17.7762 83.6474 8.35985 86.0293C7.72998 86.1894 7.52008 86.9003 7.7873 87.4381C11.433 94.7696 17.3881 100.487 22.8343 106.449C28.4396 112.576 33.2178 119.344 36.8762 126.836C38.9503 131.075 40.6427 135.486 41.9598 140.02C42.1697 140.743 43.3595 141.044 43.703 140.25C51.1916 123.103 60.4235 106.737 71.2332 91.4847C74.2872 87.1755 77.4747 82.9559 80.7768 78.8259C81.3112 78.16 80.8405 76.8602 79.8479 77.2188C75.0761 78.9604 70.3107 80.7021 65.5389 82.4437C63.153 83.3145 60.7671 84.1853 58.3875 85.0561C56.3007 85.818 54.1374 86.4968 52.1396 87.4828C50.32 88.3793 48.7611 89.6791 47.7622 91.4719C46.7633 93.2584 46.2926 95.2881 45.7772 97.2539C44.4793 102.165 43.1876 107.076 41.8897 111.981C40.4327 117.507 38.9758 123.026 37.5188 128.552C38.0533 128.411 38.5813 128.27 39.1158 128.129C36.1573 125.677 34.3249 122.078 34.1785 118.211C33.7777 118.518 33.3704 118.826 32.9696 119.139C35.8327 120.049 37.1753 122.725 37.7033 125.523C38.295 128.661 38.0086 131.99 37.4296 135.109C38.0404 135.109 38.6577 135.109 39.2685 135.109C38.4032 130.511 38.2887 125.767 38.9504 121.131C38.3714 121.208 37.786 121.285 37.2071 121.361C38.5368 123.865 39.8666 126.375 41.1963 128.879C41.5526 128.411 41.9152 127.937 42.2715 127.47C38.2187 125.76 35.2219 121.713 34.7256 117.321C34.4902 117.628 34.2613 117.936 34.0259 118.249C35.5528 117.865 37.2133 118.48 38.085 119.812C38.4413 119.344 38.8039 118.871 39.1602 118.403C32.4606 117.404 26.2955 114.068 21.791 108.978C21.651 109.516 21.5109 110.047 21.3709 110.585C26.5054 109.228 32.028 109.881 36.7044 112.416C36.8635 111.821 37.0225 111.225 37.188 110.623C32.1935 110.796 27.2181 109.785 22.7007 107.614C22.7007 108.165 22.7007 108.722 22.7007 109.272C26.3273 107.332 31.0355 107.87 34.1212 110.604C34.3439 110.06 34.573 109.509 34.7957 108.965C29.973 108.459 25.2457 107.012 20.9638 104.733C20.0413 104.24 18.8706 103.746 18.1326 102.978C17.2991 102.107 18.6542 101.384 19.335 100.993C21.1165 99.9688 23.1715 99.4757 25.2202 99.4885C27.6189 99.5013 29.9284 100.225 31.9008 101.589C32.0598 100.993 32.2189 100.398 32.3843 99.7959C25.9774 100.391 19.5323 98.9699 13.9715 95.698C13.8952 96.2806 13.8188 96.8697 13.7424 97.4524C19.7676 96.0629 26.041 96.0822 32.0598 97.5037C32.1425 96.8762 32.2315 96.2486 32.3143 95.6147C22.9806 95.7427 13.6915 92.5285 6.45113 86.5801C6.31116 87.1179 6.17124 87.6494 6.03127 88.1872C13.698 87.0027 21.4601 86.5353 29.2095 86.7465C28.9868 86.2023 28.7577 85.6516 28.535 85.1073C25.761 87.7966 22.3636 89.6792 18.6289 90.614C17.4327 90.9149 17.9416 92.7205 19.1377 92.4644C25.6783 91.075 32.3906 90.7421 39.0394 91.4336C38.8167 90.8894 38.5876 90.3387 38.3649 89.7944C32.5624 94.4046 24.8322 96.492 17.5154 95.4099C17.7063 95.8773 17.8971 96.3511 18.088 96.8185C21.6319 91.171 27.3516 87.0346 33.7904 85.4211C36.6407 84.7039 39.6248 84.5376 42.4815 85.3571C45.0328 86.0935 47.4314 87.7326 48.1376 90.4347C48.9202 93.4185 47.196 96.3575 44.9819 98.2207C42.1697 100.59 38.4413 101.006 34.9165 100.564C32.8042 100.302 30.7301 99.7319 28.7004 99.098C27.1798 98.6242 25.3285 98.2463 24.0305 97.2603C22.5481 96.1269 23.5405 94.7055 24.6921 93.7771C26.0727 92.6629 27.6379 91.7216 29.1713 90.8444C36.4435 86.6825 44.7909 84.5694 53.1511 84.7423C52.9921 84.1468 52.8332 83.5515 52.6677 82.9496C45.9172 86.849 39.1667 90.7483 32.4225 94.6478C31.4554 95.2049 32.1234 96.6329 33.1605 96.4024C39.6056 94.9873 46.299 94.763 52.8268 95.7683C52.6041 95.3777 52.3814 94.9808 52.1587 94.5839C49.97 105.924 46.846 117.065 42.8313 127.886C42.4241 128.981 43.9893 129.435 44.5746 128.629C52.025 118.345 58.8711 107.62 65.0681 96.5304C64.5209 96.2103 63.9673 95.8837 63.4201 95.5635C58.8392 104.989 54.2646 114.414 49.6836 123.839C49.1492 124.941 50.6762 125.869 51.3316 124.806C57.1723 115.342 63.0066 105.879 68.8473 96.415C70.4952 93.745 72.143 91.075 73.7909 88.3986C74.4589 87.3165 72.8683 86.4777 72.143 87.4317C66.0605 95.4291 59.9781 103.426 53.8956 111.417C54.4428 111.738 54.9962 112.064 55.5434 112.384C62.4084 102.043 69.2735 91.7024 76.1322 81.3615C76.7875 80.3754 75.4196 79.588 74.6306 80.1963C68.5736 84.9217 63.3057 90.6012 59.011 96.985C58.4575 97.8046 59.5263 98.7523 60.3152 98.2976C68.5736 93.5466 74.0644 84.6015 74.6561 75.0546C74.707 74.2799 73.5364 73.7163 73.0274 74.3759C67.1867 81.9699 61.3714 89.6086 56.2051 97.6892C51.0961 105.68 46.6042 114.151 43.6394 123.199C41.9851 128.245 40.8526 133.437 40.3055 138.72C40.2037 139.725 41.6225 139.949 42.087 139.207C45.0455 134.423 47.3423 129.25 48.9202 123.846C49.2319 122.77 47.7559 122.219 47.1769 123.103C44.4538 127.271 42.5005 131.913 41.4189 136.78C42.0297 136.953 42.6469 137.119 43.2577 137.292C44.5302 129.378 46.4898 121.585 49.1238 114.017C49.4801 112.992 47.8832 112.32 47.3805 113.274C44.4093 118.928 42.9014 125.274 43.0413 131.677C43.0668 132.912 44.9755 132.912 44.9501 131.677C44.8419 126.368 45.4845 121.099 46.8779 115.97C47.2087 114.753 45.4717 114.331 45.0391 115.458C42.3287 122.501 40.1974 129.756 38.6641 137.145C39.2876 137.228 39.9111 137.318 40.5409 137.401C40.1974 132.547 40.7063 127.707 42.0742 123.039C41.4507 122.956 40.8272 122.866 40.1974 122.783C39.5929 128.193 38.9948 133.597 38.3904 139.008C39.0139 138.925 39.6374 138.835 40.2673 138.752C39.3447 136.364 39.4338 133.738 40.6236 131.459C40.0446 131.209 39.4593 130.966 38.8803 130.716C38.4286 131.907 37.9833 133.104 37.5315 134.295C38.1423 134.468 38.7594 134.635 39.3702 134.808C40.7509 131.126 42.9776 127.828 45.8344 125.139C46.6106 124.403 45.5863 123.013 44.6765 123.628C42.3733 125.184 39.3766 125.574 36.7998 124.467C36.8634 124.973 36.9271 125.472 36.9907 125.978C40.2864 123.039 43.8621 120.458 47.6859 118.256C47.3678 117.705 47.0433 117.148 46.7252 116.597C43.3786 119.139 39.3003 120.407 35.1138 120.183C35.3365 120.727 35.5656 121.278 35.7883 121.822C40.6046 117.603 46.3497 114.549 52.5213 112.89C52.2095 112.352 51.9041 111.821 51.5924 111.283C45.1791 116.437 36.4626 118.467 28.446 116.732C28.5224 117.315 28.5986 117.904 28.675 118.486C38.2822 113.639 48.5384 110.188 59.1 108.203C58.9283 107.588 58.7628 106.967 58.591 106.353C46.1016 108.773 33.4024 109.983 20.6839 109.99C20.7666 110.617 20.8556 111.245 20.9383 111.878C31.1882 108.145 41.6543 105.014 52.2732 102.536C55.289 101.832 58.3111 101.185 61.346 100.583C62.3831 100.379 62.1668 98.5729 61.0916 98.6945C48.7103 100.129 36.329 101.563 23.9477 102.997C24.0305 103.625 24.1195 104.252 24.2022 104.886C35.47 101.173 47.1324 98.6562 58.9346 97.4652C62.2558 97.1323 65.5897 96.8953 68.9299 96.7608C68.9299 96.1205 68.9299 95.4802 68.9299 94.8399C54.4745 96.1525 39.9684 96.9274 25.4493 97.1515C21.3456 97.2155 17.2418 97.2346 13.1444 97.209C13.2271 97.8365 13.3161 98.4641 13.3988 99.098C27.727 96.2999 42.0551 93.5081 56.3833 90.71C60.4298 89.9224 64.4827 89.1285 68.5292 88.3409C68.3574 87.7262 68.1919 87.105 68.0201 86.4903C55.1617 89.1156 42.0742 91.7538 28.885 90.9406C25.2011 90.7165 21.5428 90.1978 17.948 89.3462C17.948 89.9609 17.948 90.5819 17.948 91.1966C32.9379 88.7955 47.9277 86.3879 62.9239 83.9868C67.1549 83.3081 71.3858 82.6294 75.6168 81.9507C75.445 81.336 75.2796 80.7148 75.1078 80.1001C56.3069 85.1585 36.8444 86.7977 17.4709 87.6557C11.9801 87.899 6.48925 88.0783 0.992138 88.2576C1.07485 88.8851 1.16401 89.5127 1.24672 90.1466C21.371 86.1255 41.5334 82.0979 61.9313 79.7607C67.6129 79.1076 73.3137 78.5891 79.0208 78.2369C78.9381 77.6094 78.8489 76.9819 78.7662 76.348C65.7805 78.2049 52.8012 80.0682 39.8156 81.9251C38.683 82.0851 39.0712 83.7307 40.0701 83.8139C48.2776 84.499 56.5487 82.9432 63.9863 79.4023C65.0043 78.9157 64.26 77.4302 63.2483 77.6479C52.8967 79.9081 42.4242 81.573 31.8817 82.6359C31.9644 83.2634 32.0535 83.8908 32.1362 84.5247C39.8348 81.5985 47.7623 79.3318 55.8362 77.7503C56.8796 77.5454 56.6569 75.7398 55.5816 75.8614C48.0612 76.745 40.4646 76.777 32.9315 75.9638C33.0143 76.5913 33.1033 77.2188 33.186 77.8527C40.6364 75.0737 48.0868 72.2948 55.5308 69.5159C56.4915 69.1573 56.4151 67.6206 55.2762 67.627C47.2151 67.6847 39.1475 67.7423 31.0864 67.7999C31.1691 68.4274 31.2582 69.0549 31.3409 69.6888C39.3894 67.3773 47.4442 65.0595 55.4926 62.748C55.3208 62.1333 55.1554 61.5121 54.9836 60.8975C46.2607 64.4191 37.0797 66.7691 27.7333 67.8128C27.8924 68.4082 28.0515 69.0038 28.2169 69.6056C36.6662 65.1491 45.1155 60.6925 53.5648 56.236C54.3983 55.7942 54.0165 54.4177 53.0812 54.4433C46.0126 54.6802 38.9375 54.9106 31.8689 55.1475C31.9516 55.775 32.0408 56.4025 32.1235 57.0364C38.4732 55.3012 44.8292 53.5725 51.1789 51.8372C51.0071 51.2225 50.8416 50.6014 50.6699 49.9867C42.3606 52.2597 33.7459 53.1818 25.1503 52.7336C25.3094 53.3291 25.4683 53.9246 25.6337 54.5265C33.4149 50.7679 41.9216 48.6421 50.5426 48.2835C50.5426 47.6432 50.5426 47.0029 50.5426 46.3626C41.9598 47.2654 33.3068 47.3936 24.7048 46.7404C24.7875 47.3679 24.8767 47.9954 24.9594 48.6293C34.6366 44.9412 44.7083 42.3543 54.9581 40.9329C54.7863 40.3182 54.6209 39.6971 54.4491 39.0824C45.0391 40.6448 35.4573 41.0034 25.9582 40.2094C26.0409 40.8369 26.1301 41.4643 26.2128 42.0982C35.5019 38.8327 45.0265 36.297 54.7037 34.517C54.4555 33.9343 54.2137 33.3453 53.9655 32.7626C45.6181 36.3419 36.0745 36.7133 27.4598 33.9088C27.5362 34.4914 27.6126 35.0805 27.6889 35.6632C35.4892 29.6955 45.3063 26.7694 55.079 27.5185C54.9962 26.891 54.9072 26.2636 54.8245 25.6297C45.6563 29.4523 35.3938 30.195 25.7866 27.6594C25.9265 28.1972 26.0665 28.7287 26.2064 29.2666C32.5307 23.4078 41.4952 20.5968 50.0018 21.8838C50.0018 21.2692 50.0018 20.6481 50.0018 20.0334C42.4941 22.3193 34.503 22.6906 26.8299 21.0642C26.9063 21.6469 26.9827 22.236 27.0591 22.8187C32.3144 19.8477 38.3841 18.6696 44.3648 19.3803C44.2821 18.7528 44.1929 18.1252 44.1102 17.4913C38.1104 19.0664 31.5318 16.7998 27.6635 11.9527C27.5235 12.4906 27.3834 13.022 27.2434 13.5599C36.5644 11.0115 46.2543 10.0703 55.887 10.7619C55.887 10.1216 55.887 9.48126 55.887 8.84095C45.5735 10.1152 35.1011 9.74376 24.9085 7.70119C24.8258 8.32869 24.7368 8.95616 24.654 9.59006C32.7025 9.51322 40.7509 9.42991 48.7993 9.35307C48.7166 8.72557 48.6275 8.09811 48.5448 7.46421C41.737 9.05216 34.7193 9.47476 27.7652 8.74481C27.9243 9.34029 28.0833 9.93581 28.2487 10.5377C35.7946 7.05445 43.7985 4.6405 51.9997 3.32788C51.6879 2.79002 51.3825 2.25856 51.0708 1.72071C50.5363 2.39943 49.6456 2.79007 48.8057 2.41229C47.6478 1.91925 46.6806 3.57114 47.8004 4.07698Z" fill="#7EAF15"/>
<path d="M46.2482 18.6043C47.7497 18.2457 49.2576 19.2893 49.5885 20.7748C49.7857 21.6521 51.2872 21.7289 51.4271 20.7748C51.8216 18.0536 52.2225 15.3259 52.617 12.6046C51.9935 12.5213 51.37 12.4318 50.7401 12.3485C50.8865 17.17 52.2416 21.8761 54.6975 26.0253C55.0284 26.5888 56.0526 26.7168 56.3453 26.0253C58.2095 21.6584 59.0303 16.9395 58.6549 12.2013C58.5531 10.9527 56.8862 10.9847 56.7462 12.2013C56.199 16.8819 55.6518 21.5689 55.1046 26.2495C55.7282 26.1662 56.3516 26.0765 56.9815 25.9933C56.1735 20.0576 54.4812 14.3013 52.0126 8.85234C51.6881 8.1352 50.3902 8.28253 50.2693 9.08291C49.4676 14.3398 48.6596 19.5968 47.8579 24.8472C47.7116 25.8205 49.1177 26.6721 49.6012 25.5899C52.5152 19.1037 51.968 11.3047 48.0234 5.36912C47.5462 4.65199 46.5664 4.81853 46.2801 5.5997C44.3204 10.8886 43.7606 16.5616 44.5368 22.1386C44.6577 22.9902 45.9047 23.0287 46.2801 22.3692C47.5716 20.0961 48.5641 17.6501 49.1876 15.1081C49.6838 13.0912 50.4792 10.1843 49.0731 8.35945C47.5652 6.40012 44.874 7.22602 43.0861 8.26331C41.1519 9.38384 39.5104 11.0166 38.3143 12.9119C36.9591 15.0569 36.2082 17.5413 36.1319 20.0769C36.1192 20.5123 36.4374 20.8774 36.8318 21.0054C39.1414 21.7354 41.661 22.081 44.0787 21.8569C46.1783 21.6584 48.4687 21.0502 49.8939 19.3662C51.529 17.4389 51.618 14.5959 50.161 12.5341C48.545 10.2482 45.7011 9.08925 42.9653 9.49264C39.9368 9.94085 37.3853 11.9963 35.5402 14.359C33.7333 16.6833 32.3782 19.5775 32.3972 22.5805C32.4163 25.4235 33.9243 28.0359 36.5965 29.0988C39.0269 30.0656 42.0235 29.6302 44.1486 28.1127C46.579 26.3711 47.8261 23.5089 48.1315 20.5891C48.4305 17.6694 47.8133 14.2951 45.8409 12.0412C41.4636 7.03402 34.5731 11.913 32.1554 16.4143C30.7684 18.9948 29.8142 22.5421 31.6465 25.1546C33.0144 27.1011 35.4512 27.6133 37.659 27.0434C39.854 26.4736 41.8518 24.9047 42.7107 22.7725C43.6714 20.397 43.0351 17.6694 41.5527 15.6652C38.6705 11.7658 32.4418 10.0049 28.968 14.1797C26.1749 17.5349 26.4993 23.1632 29.5851 26.2302C30.3677 27.005 31.2965 27.5556 32.3336 27.9142C32.7217 28.0486 33.2117 27.8246 33.4089 27.4724C35.1459 24.3861 35.8775 20.7813 35.4385 17.2596C35.1204 14.6984 33.8542 9.75521 30.3295 10.3443C28.688 10.6196 27.9054 12.1564 27.3583 13.5714C26.6902 15.2939 26.1685 17.0803 25.7804 18.886C24.9915 22.5421 24.7369 26.3199 25.0359 30.0464C25.3731 34.202 26.3785 38.2359 28.0136 42.0649C28.3381 42.8269 29.5915 42.5963 29.7569 41.8343C31.0994 35.6042 28.6434 29.0348 23.6298 25.1674C22.9809 24.668 22.2746 25.3786 22.1919 25.9997C21.7147 29.5982 22.1284 33.2736 23.3818 36.68C23.6744 37.4804 25.0359 37.7045 25.2204 36.68C26.0157 32.2363 26.302 27.7286 26.0285 23.2208C25.9521 21.9979 24.0816 21.9787 24.1197 23.2208C24.4442 34.1764 26.4421 45.0552 30.0687 55.3897C30.4059 56.3565 31.9837 56.2796 31.9455 55.1334C31.7865 50.8562 30.6285 46.7007 28.5416 42.9741C28.0962 42.1801 27.0973 42.4875 26.7983 43.2047C23.528 51.0548 25.1886 60.5313 30.7684 66.8831C31.3347 67.5298 32.3845 66.9919 32.3972 66.2043C32.4927 61.1267 31.9772 56.0492 30.8829 51.0868C30.6857 50.2032 29.1842 50.1328 29.0442 51.0868C28.548 54.4484 28.5097 57.8164 28.9806 61.1844C29.3559 63.8929 29.8777 67.0815 31.9201 69.0857C32.7599 69.9117 33.8669 70.4304 35.0503 70.3023C36.45 70.1487 37.4745 69.1946 38.3398 68.1573C40.6621 65.3912 42.927 62.5674 45.2174 59.7692C47.7942 56.6253 50.3711 53.4879 52.9479 50.344C52.4134 50.0302 51.8853 49.7229 51.3509 49.4092C51.02 51.0291 50.6892 52.6492 50.3583 54.2691C50.1356 55.3576 51.4717 55.9019 52.1016 55.0118C54.952 50.9715 56.4153 46.0412 56.2626 41.0916C56.2308 40.0159 54.6912 39.7791 54.3858 40.8356C51.7581 50.0239 51.5417 59.8141 53.7304 69.1177C53.9913 70.2254 55.5246 69.8925 55.6073 68.8617C56.0145 63.7584 55.5118 58.6103 54.1375 53.6864C53.883 52.7835 52.5406 52.7579 52.2989 53.6864C50.1102 62.1127 50.2056 71.0515 52.5851 79.4267C52.8587 80.3935 54.1057 80.2783 54.4238 79.4267C56.1608 74.8101 56.8162 69.822 56.32 64.9109C56.2054 63.8096 54.8565 63.6367 54.4429 64.6548C52.0252 70.6673 51.1282 77.256 51.8599 83.6974C51.9235 84.2673 52.248 84.5874 52.8143 84.6579C54.7421 84.8948 56.6063 84.2416 58.0632 82.9802C58.5786 82.532 58.3367 81.4883 57.6432 81.373C50.7973 80.2333 43.6333 81.8725 38.0344 86.0281C37.5127 86.4122 37.3218 87.3471 38.0344 87.6865C46.999 91.9637 58.1458 90.3694 65.558 83.7167C66.1179 83.2108 65.7808 82.3208 65.1382 82.1095C57.287 79.5931 48.1505 83.0379 43.8241 90.0748C43.4105 90.7471 43.9641 91.4451 44.6512 91.5219C53.6859 92.476 62.9941 89.9211 70.2918 84.4786C70.998 83.9471 70.8389 82.6729 69.8082 82.6857C58.604 82.8714 47.4252 84.8244 36.8255 88.4933C33.7969 89.5434 30.8129 90.7344 27.8862 92.047C27.1164 92.3928 27.3709 93.6157 28.1153 93.8014C38.5052 96.4459 49.7475 94.9219 59.0684 89.601C59.9019 89.1272 59.5201 87.8273 58.5849 87.8081C48.0869 87.6608 37.5699 89.1529 27.5301 92.2327C24.6479 93.1163 21.8165 94.1344 19.0234 95.2742C18.1009 95.6519 18.1136 97.195 19.2779 97.163C29.7949 96.8685 40.2739 95.511 50.5237 93.1163C51.4208 92.905 51.4463 91.4579 50.5237 91.2658C38.4988 88.7302 25.9966 88.9159 14.048 91.8292C13.2591 92.0213 13.1064 93.1931 13.819 93.5837C17.0321 95.3509 20.4931 96.6508 24.0879 97.3615C26.7856 97.893 30.0813 98.482 32.5436 96.8493C33.5361 96.1898 34.2359 95.1781 34.2359 93.9487C34.2359 92.4312 33.2116 91.2658 32.0282 90.4655C29.3178 88.6342 25.7167 87.8273 22.5037 87.6224C18.648 87.3727 14.7862 88.1476 11.3059 89.8252C11.624 89.8252 11.9485 89.8252 12.2666 89.8252C10.7969 89.1785 9.32074 88.5381 7.85102 87.8914C7.34203 87.6673 6.57221 87.7889 6.45132 88.4676C5.78327 92.1622 7.98467 95.1332 10.5996 97.4639C12.0248 98.7317 13.5645 99.8587 15.0597 101.043C16.663 102.311 18.1327 103.726 19.4688 105.282C22.2428 108.522 24.3869 112.274 26.3147 116.071C28.478 120.329 30.4503 124.69 32.4926 129.012C34.993 134.301 37.4871 139.589 39.9875 144.878C40.3438 145.634 41.5463 145.416 41.7308 144.648C42.2844 142.394 42.838 140.14 43.3915 137.886C43.5251 137.336 43.6714 136.785 43.7986 136.234C43.9513 135.562 43.7986 135.242 43.4996 134.627C42.9906 133.583 42.4817 132.54 41.9791 131.496C39.9049 127.225 37.8244 122.954 35.7502 118.684C35.4194 117.998 34.465 118.12 34.1023 118.684C33.2625 119.983 32.4227 121.283 31.5828 122.589C31.411 122.852 31.392 123.3 31.5828 123.556C32.6644 125.042 33.7397 126.527 34.8214 128.006C35.254 128.602 36.3992 128.672 36.5646 127.776C38.5115 117.409 45.3511 108.304 54.5321 103.278C57.1407 101.85 59.921 100.787 62.8096 100.095C62.4978 99.5576 62.1925 99.0262 61.8807 98.4883C58.0505 102.561 54.2203 106.639 50.3901 110.712C49.7475 111.397 50.3774 112.588 51.319 112.319C56.409 110.865 60.1056 105.858 59.9783 100.525C59.9656 99.9547 59.5457 99.6346 59.024 99.5641C54.354 98.9431 49.2958 99.4297 44.9439 101.312C43.296 102.023 41.5655 103.188 40.9738 104.987C40.3948 106.736 41.1964 108.484 42.6534 109.489C45.6373 111.538 49.9066 110.629 52.9287 109.169C56.2881 107.549 59.1003 104.654 60.6018 101.222C61.8934 98.2642 63.1595 92.3736 58.3304 92.2263C57.3506 92.1943 56.3516 92.4054 55.3845 92.5655C54.2584 92.7512 53.1386 92.9818 52.0443 93.2956C49.9829 93.8846 47.9978 94.7811 46.3372 96.1705C43.5187 98.5332 41.8518 102.746 43.4233 106.275C44.7213 109.194 47.9087 110.475 50.9436 110.244C54.761 109.95 57.9869 107.779 59.762 104.373C61.9888 100.096 62.0015 95.0691 61.9315 90.3565C61.6134 90.6767 61.2952 90.9968 60.9771 91.317C63.942 91.1057 66.9132 90.9008 69.8781 90.6895C69.6554 90.1452 69.4265 89.5945 69.2038 89.0503C62.9559 96.8492 55.3401 103.489 46.7572 108.567C44.3332 110.001 41.8327 111.307 39.275 112.492C39.6631 112.543 40.0448 112.594 40.4329 112.639C39.1222 111.288 39.6058 109.181 39.9812 107.536C40.4329 105.545 41.1137 103.464 40.802 101.395C39.9303 95.5878 31.5002 96.7852 27.6828 98.3731C24.7433 99.5961 22.2365 101.568 20.3723 104.168C20.0479 104.616 20.334 105.199 20.7158 105.481C27.4409 110.411 35.8584 112.857 44.1613 112.3C44.823 112.255 45.4275 111.499 44.9885 110.853C42.8443 107.728 40.1466 105.039 37.0036 102.939C35.4003 101.863 33.6888 100.973 31.9137 100.236C30.2404 99.545 28.1026 98.5717 26.2956 99.2376C23.1653 100.397 23.9607 104.526 25.055 106.87C25.8312 108.528 26.9255 110.103 28.058 111.531C29.1842 112.946 30.5267 114.227 32.111 115.111C34.8023 116.615 38.448 116.776 41.0502 114.957C43.7733 113.055 44.3904 109.566 42.9016 106.671C41.3173 103.611 38.1171 101.421 35.1395 99.9035C31.8056 98.2067 27.4283 96.2729 24.0371 98.8726C22.6819 99.9099 21.6893 101.543 21.9056 103.303C22.122 105.128 23.528 106.46 24.9087 107.517C27.3646 109.386 30.393 110.379 33.4533 110.565C39.5167 110.929 45.8664 107.875 48.2523 102.036C50.441 96.6699 48.9523 89.9403 44.8613 85.8872C42.8126 83.8575 39.9367 82.2695 36.9972 82.8009C35.6357 83.0506 34.1978 83.723 33.3962 84.9011C32.5627 86.1241 32.7409 87.8209 34.0388 88.6021C37.1309 90.4654 41.0756 90.8303 44.4858 89.6906C47.8706 88.5572 50.5173 85.9961 51.8852 82.6985C52.5342 81.1362 52.8905 79.4586 52.9033 77.7618C52.916 76.1162 52.6996 73.9648 51.5798 72.6714C50.2246 71.1027 48.1506 71.6982 46.56 72.5114C44.8867 73.363 43.3469 74.541 42.0681 75.9241C40.8401 77.2559 39.8349 78.7799 39.1032 80.4446C38.8933 80.9185 38.9569 81.4756 39.4468 81.7573C43.7478 84.2737 49.8938 81.0209 50.6382 76.1482C51.389 71.2691 46.4518 67.709 41.9663 68.234C39.625 68.5094 37.5889 69.8796 36.6537 72.0887C35.712 74.3105 35.9093 77.0319 37.2009 79.0809C38.5943 81.2963 41.1201 82.3976 43.665 81.7381C46.1018 81.1042 48.2842 79.004 48.6405 76.4427C49.035 73.5998 47.1008 71.1731 44.6321 70.0589C42.0236 68.8808 39.046 68.6823 36.2211 68.7848C35.4448 68.8104 34.8976 69.8477 35.5466 70.424C39.7522 74.1633 46.9035 72.2168 49.264 67.2609C52.0825 61.3445 48.685 54.3587 43.2388 51.4261C39.9367 49.646 36.1002 49.0762 32.3909 49.3964C32.5499 49.9918 32.709 50.5874 32.8744 51.1892C36.7809 48.3271 40.2738 44.8439 42.9906 40.8164C44.2313 38.9787 45.0011 36.8208 44.1295 34.6566C43.3596 32.7485 41.699 31.3398 39.8094 30.6162C37.0863 29.5725 34.0578 30.0528 31.2647 30.4818C31.5765 31.0196 31.8818 31.5511 32.1936 32.089C38.0407 26.9665 39.9686 18.2968 37.8753 10.9269C37.3536 9.10205 36.5837 7.32849 35.5657 5.72773C35.044 4.90814 34.4523 4.12704 33.8033 3.3971C33.5043 3.06414 33.1989 2.72477 32.8681 2.42382C32.3654 1.97561 31.901 2.07807 31.3029 2.27657C27.1992 3.6084 23.6552 6.70734 21.8165 10.6388C19.2588 16.1006 20.1942 22.3436 22.1029 27.8566C22.4465 28.8427 23.9925 28.7338 23.9798 27.6004C23.9416 24.9304 23.9035 22.2667 23.8653 19.5966C23.8526 18.5529 22.1982 18.2457 21.9883 19.3406C20.8049 25.6027 21.0467 32.057 22.7391 38.2039C23.0064 39.1643 24.2724 39.0619 24.5778 38.2039C27.1482 31.0133 28.6434 23.4641 29.0315 15.8317C28.3953 15.8317 27.759 15.8317 27.1228 15.8317C27.1291 18.7067 27.1292 21.588 27.1355 24.463C27.7718 24.463 28.408 24.463 29.0442 24.463C28.9615 20.0129 28.8853 15.5627 28.8025 11.1126C28.1663 11.1126 27.5301 11.1126 26.8938 11.1126C28.7262 26.1405 30.5521 41.1685 32.3845 56.1965C32.9062 60.4673 33.4279 64.7381 33.9433 69.0089C34.535 68.8488 35.1267 68.6888 35.7248 68.5223C31.0484 58.9305 29.1142 48.1223 30.1003 37.4932C29.5086 37.6533 28.9171 37.8132 28.319 37.9797C31.812 43.8833 36.291 49.1723 41.5463 53.5583C42.0808 54.0065 42.946 53.8849 43.1433 53.1358C45.2747 45.0936 46.789 36.8913 47.6989 28.6186C47.0626 28.6186 46.4264 28.6186 45.7901 28.6186C45.2621 37.8453 45.9364 47.1041 47.7624 56.158C47.9533 57.1056 49.3722 57.0416 49.6012 56.158C51.1282 50.2352 52.6488 44.3188 54.1758 38.396C53.565 38.2231 52.9479 38.0566 52.3371 37.8837C50.9946 47.245 50.4601 56.6958 50.7845 66.153C51.4208 66.153 52.057 66.153 52.6933 66.153C52.3624 58.0916 50.2056 50.1904 46.4009 43.0895C46.0064 42.3531 44.8739 42.5451 44.6576 43.3199C41.3301 55.2487 41.3492 68.0676 44.6704 80.0029C45.6056 83.3709 46.8208 86.6555 48.2587 89.8442C48.6977 90.8111 49.9447 90.1902 50.0402 89.3578C50.4537 85.5672 49.8303 81.7958 48.3351 78.3061C48.1442 77.8643 47.4062 77.6786 47.0308 77.9603C41.9472 81.7125 42.4944 90.7407 48.2842 93.5708C49.0667 93.955 50.1738 93.1162 49.5885 92.2582C47.6416 89.3704 43.137 89.5753 40.9546 92.1109C39.8031 93.4492 39.4914 95.2868 40.2294 96.9132C40.9165 98.4179 42.3989 99.4745 43.9641 99.9035C45.8155 100.409 47.9342 100.038 49.2003 98.4947C49.6838 97.9057 49.4803 97.1629 48.7804 96.8876C44.3649 95.1588 39.2686 95.6327 35.2157 98.0914C34.5859 98.4756 34.5859 99.7306 35.4449 99.8458C38.8742 100.313 42.3035 100.781 45.7328 101.242C46.2482 101.312 46.7509 101.12 46.9099 100.569C47.0372 100.115 46.7508 99.4681 46.2418 99.3848C39.4595 98.3476 32.5181 98.9367 26.0221 101.178C25.4749 101.37 25.0932 102.042 25.4495 102.586C28.1472 106.71 32.4226 109.655 37.2517 110.603C37.3344 109.975 37.4236 109.348 37.5063 108.714C33.4343 108.701 29.3561 108.688 25.2841 108.676C24.2407 108.669 23.9479 110.353 25.0295 110.565C29.0824 111.346 33.1353 112.127 37.1882 112.908C38.3843 113.138 38.8869 111.41 37.6972 111.058C33.9243 109.943 30.6094 107.542 28.3825 104.283C28.0262 104.751 27.6636 105.224 27.3073 105.692C31.9519 107.478 37.5508 108.503 41.6227 104.879C44.6131 102.221 45.0776 97.6881 41.9918 94.9284C39.4468 92.6553 35.2603 91.874 32.3336 93.8718C28.9997 96.1512 28.0199 100.601 29.006 104.366C30.4185 109.751 35.5085 112.152 40.2039 114.125C40.592 114.291 41.0755 114.009 41.2791 113.683C45.9428 106.134 44.7722 95.5559 38.6579 89.1592C37.0991 87.5265 34.7831 85.7528 32.6453 87.5328C30.9847 88.9159 30.4313 91.5795 30.0113 93.5965C29.0697 98.1362 29.3051 102.913 30.6221 107.357C32.0982 112.357 34.9167 116.955 38.8487 120.374C39.1668 120.649 39.6249 120.758 40.0067 120.521C42.1953 119.157 43.487 116.558 43.277 113.971C43.0607 111.282 41.2983 109.15 38.7979 108.24C37.5954 107.798 36.2657 107.715 35.0123 107.965C34.4524 108.074 33.6316 108.272 33.218 108.688C32.7281 109.175 32.8553 110.392 32.8235 111.032C32.6771 114.361 32.9954 117.717 33.7334 120.963C34.5732 124.664 35.9983 128.224 37.907 131.496C38.4542 131.176 39.0078 130.849 39.5549 130.529C31.6719 118.831 23.1464 107.581 14.0163 96.8365C11.4395 93.8078 8.81815 90.8176 6.15231 87.8722C5.7642 88.378 5.38241 88.8774 4.9943 89.3832C11.5603 92.3863 18.1327 95.3829 24.6987 98.3859C24.775 97.8033 24.8514 97.2142 24.9278 96.6315C22.4592 96.9901 19.9842 97.3422 17.5156 97.7008C16.5676 97.8352 15.9058 98.0658 15.3268 98.8918C14.9006 99.4937 14.7098 100.243 14.7479 100.973C14.9261 104.648 18.4127 107.069 20.8049 109.348C26.9701 115.22 31.99 122.154 36.5201 129.345C39.1159 133.462 41.5591 137.681 43.9959 141.894C44.4922 142.746 45.7265 142.336 45.7774 141.408C46.2673 131.944 49.0286 122.647 53.7431 114.445C55.0729 112.133 56.5553 109.918 58.1777 107.805C58.8394 106.947 57.3951 105.833 56.6761 106.64C54.1821 109.463 51.6944 112.287 49.2003 115.117C48.6213 115.777 49.1685 117.076 50.1292 116.724C52.8905 115.713 55.48 114.33 57.8278 112.55C58.5531 111.999 58.3622 110.782 57.3442 110.757C53.6731 110.667 50.2374 112.447 48.0869 115.418C47.7815 115.841 48.0233 116.487 48.4305 116.731C50.6382 118.069 51.9616 114.195 50.1356 112.991C48.9076 112.185 47.3871 112.876 46.4009 113.74C45.5483 114.49 44.4222 116.699 43.0734 116.455C42.9907 117.083 42.9015 117.71 42.8188 118.344C45.1411 118.101 47.3362 117.365 49.3022 116.084C49.6839 115.834 49.8239 115.437 49.7412 115.002C48.2905 107.549 51.3635 99.6153 56.9879 94.6657C58.5785 93.2699 60.4046 92.1045 62.3579 91.2977C62.1097 90.7151 61.8679 90.126 61.6197 89.5433C57.9105 91.4642 54.8311 94.4545 52.7697 98.1042C52.4388 98.6933 52.8461 99.6154 53.5968 99.5513C58.445 99.1095 62.9941 96.8236 66.1817 93.1098C66.6652 92.5464 66.398 91.381 65.5072 91.4706C59.0367 92.0981 52.7951 94.2623 47.3553 97.8544C46.8017 98.2194 46.7635 98.8726 47.1644 99.3656C50.6891 103.681 58.2541 102.209 60.2837 97.1822C60.4682 96.7212 60.0801 96.1001 59.6156 96.004C50.9119 94.1023 41.6291 96.433 34.815 102.189C34.2233 102.689 34.6177 103.579 35.2349 103.796C43.3596 106.639 52.3434 106.262 60.2455 102.874C61.0917 102.509 60.6781 101.383 60.0164 101.12C50.5555 97.3999 40.1848 96.0424 30.094 97.2077C27.2118 97.5407 24.3551 98.0659 21.5429 98.7894C20.6204 99.0263 20.6458 100.39 21.5429 100.64C26.4293 102.004 31.5129 102.682 36.5901 102.612C39.1478 102.58 41.6928 102.349 44.2186 101.946C46.4582 101.594 48.7995 101.197 50.8227 100.128C52.547 99.2183 53.9467 97.6881 54.2966 95.7159C54.6338 93.8142 54.0039 91.8356 52.2479 90.8752C51.2872 90.3502 50.1993 90.1772 49.1368 90.0171C47.9279 89.8379 46.7191 89.7035 45.5039 89.6202C43.0989 89.4537 40.6811 89.4857 38.2825 89.7098C32.779 90.222 27.4283 91.7012 22.4401 94.0959C21.7848 94.4097 21.8484 95.4214 22.4401 95.7544C31.1121 100.614 41.5654 101.876 51.1281 99.1927C51.6308 99.0519 51.9235 98.5139 51.7962 98.0081C50.7146 93.7949 46.8398 90.5678 42.507 90.3629C38.1488 90.158 34.0706 93.1227 32.6072 97.1887C32.4609 97.5984 32.709 98.0594 33.0462 98.2707C38.7851 101.933 45.2302 104.418 51.9298 105.538C52.0125 104.911 52.1017 104.283 52.1844 103.649C46.9354 104.322 42.6534 100.32 40.6365 95.7799C38.0216 89.8827 39.6377 83.0635 41.311 77.1407C43.1815 70.52 45.0012 63.9505 46.1274 57.1441C46.6873 53.7569 47.1198 50.3505 47.4252 46.9313C47.5715 45.3113 47.7433 43.6656 47.756 42.0329C47.7624 40.8675 47.6225 39.619 47.0435 38.5945C45.2366 35.4122 41.1519 37.2946 38.766 38.6585C36.0175 40.2336 33.6952 42.4683 31.9519 45.1192C31.6274 45.6122 31.9391 46.4126 32.5245 46.5278C40.9101 48.231 47.1072 39.9903 49.4676 32.9214C50.9755 28.4136 51.758 23.1888 50.1674 18.5915C48.8567 14.8137 45.6819 11.5609 41.7117 10.7093C40.6619 10.4852 39.5994 10.434 38.5369 10.5877C38.0279 10.6581 37.3409 10.7349 36.9019 11.0166C36.4056 11.3368 36.3229 12.0283 36.2274 12.5725C35.7884 15.0761 36.3483 17.6949 37.8435 19.7503C38.2825 20.3586 39.4023 20.4035 39.5868 19.5199C40.8529 13.5459 39.9303 7.27091 36.9654 1.93078C36.5964 1.26486 35.7058 1.35451 35.3176 1.93078C30.3741 9.19181 27.4283 17.6949 26.7348 26.4607C26.6393 27.69 28.548 27.69 28.6435 26.4607C29.3052 18.0279 32.2127 9.87695 36.9654 2.90405C36.4182 2.90405 35.8648 2.90405 35.3176 2.90405C38.0217 7.77676 38.9059 13.5458 37.748 19.014C38.327 18.9372 38.9123 18.8603 39.4913 18.7834C38.0788 16.8369 37.6272 14.4294 38.3016 12.1051C38.0789 12.3292 37.8562 12.5534 37.6335 12.7775C40.4839 11.8426 43.4806 12.9375 45.612 14.9416C48.087 17.2723 49.0859 20.5763 49.1113 23.9187C49.1431 27.4467 48.2842 31.1285 46.8781 34.3556C45.6629 37.1346 43.9704 39.7663 41.7308 41.8153C39.3513 43.9859 36.2592 45.3369 33.0271 44.6774C33.218 45.1448 33.4088 45.6186 33.5997 46.086C35.1139 43.781 37.1436 41.8408 39.5104 40.4385C40.6874 39.7406 42.0299 39.0298 43.3915 38.7865C44.804 38.5368 45.5229 39.3693 45.7583 40.6755C45.9873 41.9625 45.7964 43.3327 45.7073 44.6197C45.5801 46.3678 45.421 48.1093 45.2302 49.851C44.8612 53.1933 44.3522 56.523 43.7287 59.8269C43.0925 63.1629 42.3353 66.4797 41.4509 69.758C40.592 72.9339 39.5804 76.0715 38.7724 79.2602C37.3027 85.0933 36.5074 91.445 39.1478 97.0605C41.4765 102.01 46.4644 106.3 52.197 105.564C52.6742 105.5 53.0624 105.244 53.1324 104.731C53.1896 104.302 52.916 103.758 52.4516 103.675C45.8919 102.586 39.6377 100.185 34.0197 96.6059C34.166 96.9644 34.3123 97.3294 34.4587 97.6879C35.6421 94.3968 39.0459 92.1109 42.5198 92.271C46.0127 92.4311 49.1048 95.146 49.9701 98.5076C50.1928 98.117 50.4155 97.7201 50.6382 97.3231C41.5654 99.8651 31.6528 98.6933 23.4198 94.0767C23.4198 94.6274 23.4198 95.1845 23.4198 95.7352C31.2837 91.9702 40.3121 90.5679 48.9331 91.8997C50.5874 92.1559 52.4896 92.5785 52.5151 94.621C52.5405 96.4331 51.3 97.7392 49.7794 98.5204C48.0679 99.3912 46.051 99.705 44.1804 100.019C41.9281 100.397 39.6441 100.608 37.36 100.672C32.2 100.819 27.0528 100.172 22.0838 98.783C22.0838 99.3977 22.0838 100.019 22.0838 100.633C31.6847 98.1618 41.8518 98.0849 51.4908 100.416C54.233 101.075 56.9179 101.933 59.5456 102.964C59.4692 102.382 59.393 101.792 59.3166 101.21C51.8917 104.392 43.3852 104.597 35.7757 101.933C35.9157 102.471 36.0556 103.003 36.1956 103.54C42.4626 98.2451 51.1473 96.1 59.1385 97.848C58.9158 97.451 58.6931 97.0605 58.4704 96.6636C56.9243 100.493 51.0454 101.075 48.5386 98.0018C48.475 98.5077 48.4115 99.007 48.3478 99.5129C53.495 96.1129 59.4057 93.9806 65.5391 93.3915C65.3164 92.8473 65.0873 92.2967 64.8646 91.7525C62.0206 95.0693 57.9804 97.2334 53.6285 97.6304C53.9021 98.1106 54.1757 98.5909 54.4557 99.0775C56.3644 95.6967 59.1893 92.9882 62.6187 91.2082C63.5603 90.7215 62.8923 89.0311 61.8807 89.4537C54.1313 92.6681 48.7296 100.198 47.6798 108.516C47.3871 110.853 47.4825 113.209 47.9278 115.52C48.0742 115.162 48.2206 114.797 48.3669 114.438C46.6936 115.527 44.8293 116.225 42.8443 116.436C41.8708 116.538 41.4382 118.114 42.5898 118.325C44.8167 118.728 45.9746 116.974 47.3298 115.546C47.6543 115.207 48.0106 114.861 48.4496 114.682C48.6468 114.598 48.8186 114.566 49.0349 114.598C49.2448 114.63 49.0667 114.528 49.0986 114.611C49.1622 114.746 49.0922 114.893 49.1049 115.04C49.1113 115.085 49.0412 115.213 49.0412 115.207C48.9013 115.085 49.5312 115.162 49.4167 115.091C49.5312 115.527 49.6458 115.969 49.7603 116.404C51.5099 113.984 54.4175 112.62 57.3697 112.69C57.2106 112.095 57.0516 111.499 56.8861 110.897C54.672 112.569 52.248 113.92 49.6394 114.88C49.9512 115.418 50.2566 115.949 50.5683 116.487C53.0624 113.664 55.5501 110.84 58.0441 108.01C57.5415 107.619 57.0452 107.235 56.5425 106.844C50.651 114.541 46.6045 123.665 44.8421 133.219C44.3395 135.927 44.0214 138.667 43.8814 141.421C44.4731 141.261 45.0649 141.101 45.6629 140.934C41.6164 133.942 37.5571 126.937 32.8171 120.393C30.4694 117.153 27.969 114.022 25.2395 111.102C23.8716 109.636 22.4528 108.227 20.9704 106.883C19.7106 105.743 18.438 104.693 17.5346 103.227C17.121 102.554 16.7267 101.786 16.6758 100.986C16.6567 100.704 16.6821 100.409 16.8093 100.16C17.0257 99.7434 17.2865 99.6857 17.7319 99.6153C20.2959 99.1927 22.8791 98.8725 25.4495 98.5011C26.2385 98.3859 26.3911 97.0733 25.6785 96.7467C19.1125 93.7437 12.5401 90.7472 5.97414 87.7442C5.01342 87.3024 4.05265 88.41 4.81614 89.2552C14.1625 99.5833 22.949 110.417 31.0993 121.731C33.4216 124.958 35.6993 128.224 37.9198 131.522C38.6005 132.533 40.1976 131.63 39.5677 130.555C35.8457 124.177 34.2104 116.756 34.8594 109.393C34.7004 109.668 34.5413 109.943 34.3886 110.225C36.6409 109.13 39.6632 110.084 40.872 112.293C42.0872 114.522 41.171 117.576 39.0587 118.888C39.4468 118.94 39.8286 118.991 40.2167 119.036C34.0197 113.644 30.8066 105.282 31.4492 97.0925C31.6083 95.0499 32.0346 93.0331 32.7026 91.0994C32.9762 90.3054 33.3961 89.1592 34.2359 88.8006C35.1839 88.3972 36.1574 89.3962 36.7872 89.9917C39.6122 92.6873 41.3619 96.337 42.0109 100.179C42.7362 104.482 41.9535 109.021 39.6631 112.735C40.0194 112.588 40.3821 112.441 40.7384 112.293C37.2073 110.808 33.1416 109.092 31.411 105.391C30.1386 102.67 30.1958 98.9622 32.2 96.5931C34.0832 94.3584 37.2008 94.1728 39.6567 95.5815C40.7765 96.2218 41.7627 97.2143 42.1318 98.4821C42.5835 100.044 41.9981 101.709 40.9483 102.894C37.5317 106.748 32.0346 105.461 27.8482 103.854C27.0847 103.56 26.3147 104.597 26.7728 105.263C29.286 108.951 32.9635 111.659 37.2264 112.921C37.3981 112.306 37.5634 111.685 37.7352 111.07C33.6824 110.289 29.6296 109.508 25.5831 108.727C25.5004 109.354 25.4112 109.982 25.3285 110.616C29.4005 110.629 33.4789 110.641 37.5509 110.654C38.6006 110.66 38.8869 108.983 37.8053 108.765C33.4661 107.914 29.585 105.359 27.1419 101.626C26.951 102.093 26.7602 102.567 26.5693 103.035C32.7218 100.909 39.3323 100.256 45.771 101.242C45.9428 100.627 46.1083 100.006 46.2801 99.3913C42.8507 98.9238 39.4213 98.4565 35.9919 97.9954C36.0683 98.5781 36.1447 99.1672 36.2211 99.7499C39.8794 97.5344 44.3459 97.1886 48.316 98.7445C48.176 98.2067 48.0361 97.6752 47.8961 97.1374C46.1401 99.276 41.5718 97.8737 41.7754 94.9091C41.9599 92.175 46.4645 90.9712 47.9851 93.2315C48.4178 92.7961 48.8568 92.3544 49.2895 91.919C44.9185 89.7804 44.0087 82.596 48.0361 79.625C47.6034 79.5098 47.1644 79.3945 46.7318 79.2792C48.0933 82.4551 48.5514 85.932 48.176 89.364C48.7677 89.2039 49.3595 89.044 49.9575 88.8775C45.0076 77.9476 43.1878 65.6729 44.5748 53.7569C44.9629 50.4017 45.6438 47.0849 46.5472 43.8386C45.9683 43.9154 45.3829 43.9922 44.8039 44.069C48.4496 50.869 50.5174 58.4438 50.8355 66.1594C50.8864 67.3888 52.7887 67.4016 52.7442 66.1594C52.4261 56.8879 52.9097 47.5908 54.2331 38.4024C54.4049 37.2178 52.7124 36.6608 52.3942 37.8901C50.8673 43.8129 49.3467 49.7293 47.8197 55.6521C48.4305 55.6521 49.0476 55.6521 49.6584 55.6521C47.8705 46.7647 47.2407 37.6724 47.756 28.6186C47.826 27.3636 45.9809 27.4148 45.8473 28.6186C44.9566 36.7248 43.4488 44.7478 41.3619 52.6235C41.8964 52.4826 42.4245 52.3418 42.9589 52.201C37.8181 47.9109 33.4471 42.7821 30.0304 37.013C29.5151 36.1422 28.338 36.5838 28.2489 37.4995C27.2373 48.4743 29.3178 59.6093 34.1342 69.4956C34.535 70.3151 36.0302 69.9566 35.9157 69.0089C34.0833 53.981 32.2572 38.953 30.4248 23.9251C29.9031 19.6543 29.3814 15.3834 28.8661 11.1126C28.7197 9.92166 26.9319 9.84482 26.9574 11.1126C27.0401 15.5627 27.1165 20.0129 27.1992 24.463C27.2247 25.6988 29.1079 25.7052 29.1079 24.463C29.1016 21.588 29.1016 18.7067 29.0952 15.8317C29.0952 14.5895 27.2501 14.6023 27.1865 15.8317C26.8047 23.2977 25.3158 30.6611 22.8027 37.6916C23.4135 37.6916 24.0307 37.6916 24.6415 37.6916C23.0382 31.8841 22.7708 25.7692 23.8906 19.8528C23.2671 19.7696 22.6436 19.6799 22.0137 19.5966C22.0519 22.2667 22.0902 24.9304 22.1284 27.6004C22.7519 27.5172 23.3754 27.4276 24.0053 27.3444C22.332 22.5229 21.3012 17.0291 23.2926 12.1372C24.9023 8.1865 28.3762 5.12583 32.4355 3.95408C32.1237 3.87084 31.8183 3.78767 31.5066 3.70443C37.2264 9.15981 38.3715 18.457 34.9231 25.4619C33.9306 27.4725 32.5881 29.2461 30.9084 30.7188C30.1067 31.4167 30.9974 32.454 31.8373 32.3259C34.4522 31.9225 37.5189 31.4167 39.9684 32.7485C41.8644 33.7858 43.2197 35.7899 42.4244 37.9797C41.9981 39.1515 41.19 40.1825 40.452 41.1686C39.6694 42.2059 38.8296 43.2047 37.9516 44.1651C36.1383 46.1437 34.1342 47.9428 31.971 49.5308C31.2902 50.0302 31.4111 51.4133 32.4546 51.3237C37.8435 50.8563 44.0341 52.425 46.9354 57.4322C49.4167 61.7222 48.8377 67.8371 43.8177 69.8861C41.5782 70.8017 38.8296 70.7376 36.9527 69.0664C36.73 69.6107 36.5011 70.1614 36.2784 70.7057C38.2953 70.6288 40.3376 70.7121 42.2972 71.2372C43.9769 71.6854 45.7583 72.5369 46.509 74.2209C48.2141 78.0499 42.7234 81.7765 39.6949 79.0552C37.0609 76.6861 37.5571 71.538 41.1201 70.3791C44.1295 69.3994 48.316 71.1218 48.8378 74.5154C49.4804 78.6966 43.9959 82.1542 40.4711 80.0989C40.5856 80.5343 40.7002 80.9761 40.8147 81.4115C42.0681 78.5558 44.1358 76.1483 46.8271 74.5795C48.0169 73.888 49.9066 72.7995 50.5811 74.6308C51.071 75.969 51.1472 77.5057 50.9945 78.908C50.6892 81.6933 49.2894 84.3634 47.1389 86.1434C44.8802 88.0067 41.7372 88.743 38.8678 88.2948C38.1615 88.1859 37.4553 88.0066 36.7809 87.7633C36.4437 87.6416 36.1193 87.5008 35.8012 87.3407C35.623 87.2511 35.4448 87.1551 35.2731 87.059C35.1776 87.0078 34.8277 86.694 34.9167 86.8669C34.5032 86.0857 35.5975 85.3686 36.151 85.0932C38.3588 83.9919 40.7129 84.9331 42.5453 86.329C46.21 89.1271 47.9916 94.2625 47.2535 98.7766C46.4264 103.809 42.4434 107.305 37.6016 108.343C35.1585 108.868 32.5818 108.759 30.1895 108.029C29.0443 107.683 27.9499 107.184 26.9382 106.543C25.8057 105.826 24.3742 104.802 23.9479 103.47C23.528 102.157 24.4824 100.864 25.5385 100.192C26.9383 99.2952 28.6052 99.404 30.1449 99.8394C33.078 100.665 36.1002 102.305 38.4415 104.264C40.3121 105.833 42.4689 108.221 41.7818 110.891C41.1265 113.439 38.4924 114.49 36.0811 114.336C33.1735 114.15 30.832 112.012 29.1715 109.764C27.7145 107.792 25.8249 105.173 26.0603 102.561C26.1876 101.133 27.2309 100.749 28.548 101.069C30.0686 101.44 31.5637 102.074 32.9634 102.772C35.782 104.174 38.3525 106.044 40.5475 108.311C41.6037 109.399 42.558 110.571 43.417 111.826C43.6906 111.346 43.964 110.865 44.244 110.379C36.2337 110.91 28.249 108.58 21.7657 103.822C21.8802 104.258 21.9948 104.699 22.1093 105.135C25.1123 100.947 30.3804 98.5781 35.4831 99.0967C36.6156 99.212 37.888 99.5129 38.5687 100.512C39.0014 101.146 39.0777 101.92 39.0523 102.676C38.9887 104.539 38.3143 106.339 37.9898 108.163C37.6208 110.232 37.6207 112.396 39.1668 113.99C39.4849 114.317 39.9367 114.317 40.3248 114.137C49.4676 109.911 57.8404 104.014 64.9282 96.8236C66.9387 94.7811 68.8412 92.6296 70.6354 90.395C71.0998 89.8123 70.8707 88.6917 69.9609 88.7558C66.996 88.9671 64.0248 89.1719 61.0599 89.3832C60.5509 89.4217 60.0992 89.793 60.1056 90.3437C60.1946 96.2345 60.2646 104.859 53.8449 107.606C51.7135 108.516 48.9903 108.727 46.9607 107.453C44.3839 105.839 44.3904 102.42 45.7392 99.9803C47.4634 96.862 50.8673 95.479 54.1694 94.7555C55.0283 94.5698 55.8936 94.4161 56.7589 94.2817C57.5161 94.1664 58.5085 93.9423 59.2402 94.2817C60.5572 94.8899 59.9338 97.2846 59.6666 98.3475C58.9031 101.383 57.0198 104.104 54.5384 105.98C52.2225 107.734 49.0795 109.021 46.1274 108.669C44.8549 108.516 42.9843 107.907 42.7871 106.396C42.5708 104.725 44.5113 103.598 45.7838 103.041C49.8939 101.242 54.7102 100.877 59.1066 101.466C58.7885 101.146 58.4704 100.826 58.1523 100.505C58.2541 104.987 55.1874 109.214 50.8928 110.443C51.2046 110.981 51.5099 111.512 51.8217 112.05C55.6519 107.978 59.4821 103.899 63.3122 99.8266C63.9739 99.1223 63.3121 98.0017 62.3832 98.2195C51.7007 100.768 42.469 108.496 37.7163 118.415C36.3738 121.219 35.3812 124.177 34.8022 127.238C35.3812 127.161 35.9666 127.084 36.5455 127.007C35.4639 125.522 34.3886 124.036 33.307 122.557C33.307 122.878 33.307 123.204 33.307 123.524C34.1469 122.224 34.9867 120.925 35.8265 119.618C35.2793 119.618 34.7259 119.618 34.1787 119.618C36.8573 125.119 39.5294 130.625 42.208 136.125C42.1762 135.876 42.1445 135.632 42.1126 135.383C41.4001 138.29 40.6874 141.197 39.9684 144.097C40.5474 144.02 41.1328 143.944 41.7117 143.867C37.4744 134.89 33.3324 125.861 28.9806 116.948C27.18 113.26 25.2395 109.617 22.809 106.307C21.5875 104.642 20.2578 103.06 18.7754 101.626C17.3947 100.294 15.8549 99.1544 14.347 97.9698C11.643 95.8568 7.66656 92.8921 8.37915 88.9351C7.91469 89.1271 7.4439 89.3193 6.97945 89.5114C7.80656 89.8764 8.63361 90.2349 9.46073 90.5999C9.82975 90.76 10.1988 90.9201 10.5614 91.0865C10.9559 91.2594 11.4331 91.5796 11.8721 91.5796C12.2411 91.5796 12.6292 91.3106 12.9537 91.1697C13.3227 91.0032 13.6981 90.856 14.0798 90.7151C14.8306 90.4398 15.5942 90.2092 16.3704 90.0235C19.4752 89.2808 22.7646 89.2681 25.8758 89.9981C27.4155 90.3566 28.9425 90.8815 30.3422 91.6179C31.2775 92.1109 32.7662 93.0522 32.3399 94.3328C32.0345 95.2676 30.8066 95.6326 29.9604 95.8119C28.6306 96.0936 27.2628 95.908 25.9395 95.6967C22.052 95.0756 18.3108 93.7886 14.856 91.8869C14.7797 92.4696 14.7034 93.0587 14.6271 93.6413C26.2321 90.8112 38.4034 90.6126 50.0848 93.0778C50.0848 92.4631 50.0848 91.8421 50.0848 91.2274C39.994 93.5837 29.6996 94.9155 19.3479 95.2036C19.4306 95.8311 19.5197 96.4586 19.6024 97.0925C29.2223 93.1675 39.4278 90.728 49.7858 89.9596C52.7379 89.7419 55.7028 89.6586 58.6613 89.697C58.5022 89.1015 58.3432 88.5061 58.1777 87.9043C49.3022 92.9755 38.5878 94.4354 28.6943 91.9126C28.7706 92.4952 28.847 93.0843 28.9234 93.667C38.9251 89.1849 49.6457 86.2842 60.5318 85.1381C63.6366 84.8116 66.7542 84.6258 69.8781 84.5746C69.7191 83.9791 69.56 83.3837 69.3946 82.7818C62.3259 88.0515 53.4695 90.491 44.7211 89.5625C44.9947 90.0428 45.2683 90.523 45.5483 91.0096C49.4421 84.677 57.6751 81.6676 64.7056 83.9278C64.5656 83.39 64.4255 82.8585 64.2855 82.3207C57.5605 88.3587 47.228 89.8764 39.0778 85.9898C39.0778 86.5404 39.0778 87.0974 39.0778 87.648C44.2504 83.8126 50.861 82.1287 57.217 83.1852C57.077 82.6473 56.9371 82.1158 56.7971 81.578C55.7028 82.5256 54.3157 82.8714 52.8969 82.6921C53.215 83.0123 53.5331 83.3324 53.8513 83.6526C53.1323 77.352 53.9976 70.9938 56.3644 65.1158C55.7409 65.0326 55.1174 64.943 54.4875 64.8598C54.971 69.6236 54.3476 74.3874 52.6616 78.8631C53.2724 78.8631 53.8894 78.8631 54.5002 78.8631C52.2098 70.8081 52.108 62.2473 54.214 54.1411C53.6032 54.1411 52.9859 54.1411 52.3751 54.1411C53.7049 58.9178 54.1758 63.8608 53.775 68.8104C54.3985 68.7271 55.022 68.6374 55.6519 68.5542C53.5396 59.5771 53.775 50.1584 56.3072 41.2966C55.6837 41.2133 55.0601 41.1236 54.4302 41.0404C54.5765 45.6826 53.2087 50.2031 50.5301 53.9937C51.1091 54.2434 51.6944 54.4868 52.2734 54.7365C52.6042 53.1166 52.9351 51.4966 53.266 49.8766C53.4378 49.025 52.3307 48.1414 51.669 48.9418C47.6161 53.8785 43.5696 58.8152 39.5167 63.7519C38.5687 64.9044 37.6589 66.1019 36.66 67.2096C35.9729 67.9716 35.0631 68.6887 34.0133 68.1765C31.901 67.152 31.4237 63.8353 31.0674 61.8119C30.4757 58.4375 30.444 54.9415 30.9402 51.5478C30.3294 51.5478 29.7123 51.5478 29.1016 51.5478C30.1577 56.3437 30.6349 61.2355 30.5458 66.153C31.0866 65.9289 31.6337 65.6985 32.1745 65.4744C27.0082 59.5965 25.6912 50.8691 28.6943 43.6657C28.1153 43.7425 27.53 43.8194 26.951 43.8963C28.8724 47.3283 29.9476 51.1509 30.094 55.0887C30.7175 55.0055 31.3411 54.9158 31.971 54.8325C28.4017 44.6517 26.4039 33.9651 26.0858 23.1696C25.4495 23.1696 24.8133 23.1696 24.1771 23.1696C24.4379 27.5044 24.2024 31.8457 23.4326 36.1165C24.0433 36.1165 24.6606 36.1165 25.2714 36.1165C24.0689 32.8445 23.6935 29.3998 24.1516 25.9485C23.6744 26.2239 23.1972 26.4991 22.7137 26.7808C27.0083 30.0912 29.1015 35.9692 27.9627 41.2774C28.5416 41.2005 29.127 41.1236 29.706 41.0468C27.231 35.2392 26.3847 28.7786 27.1291 22.51C27.4918 19.5006 28.1725 16.2542 29.4705 13.4945C30.0113 12.342 30.8957 11.7018 31.9137 12.7647C32.8617 13.7571 33.2116 15.2362 33.4597 16.5488C34.1023 19.9168 33.4725 23.4768 31.7992 26.4543C32.1555 26.307 32.5181 26.1598 32.8744 26.0125C29.6614 24.8984 28.4526 20.871 29.2415 17.7975C29.6551 16.1903 30.6348 14.7688 32.1618 14.0581C33.9241 13.2385 35.9856 13.6163 37.6144 14.5639C40.8465 16.44 42.8761 21.0757 39.5677 23.9059C38.3716 24.9303 36.5836 25.5899 35.0185 25.2057C32.8298 24.6742 32.2954 22.2988 32.7154 20.3139C33.2244 17.8999 34.5859 15.7037 36.3929 14.0581C37.9135 12.675 40.1021 11.42 42.2271 11.9258C44.683 12.5085 45.7773 15.0569 46.1591 17.3363C46.5535 19.6735 46.2418 22.2411 45.0393 24.3029C43.9195 26.2174 42.0108 27.498 39.7903 27.6261C37.7034 27.7413 35.6866 26.8384 34.7959 24.8535C33.8352 22.7277 34.4523 20.1154 35.4194 18.1112C36.4755 15.9214 38.1298 13.8723 40.1848 12.5533C42.1508 11.2983 44.5622 10.7733 46.6999 11.9194C48.5068 12.8863 49.7921 14.7751 49.1431 16.8689C48.0806 20.2946 42.8824 20.1857 40.1148 19.7503C39.1859 19.603 38.2634 19.3853 37.3663 19.0972C37.6017 19.4045 37.8307 19.712 38.0661 20.0257C38.187 15.6269 41.0438 10.7349 45.3384 9.25581C46.3437 8.91004 47.5525 8.83964 47.8643 10.0882C48.1442 11.196 47.8133 12.4957 47.5842 13.5843C47.018 16.3184 46.0255 18.9243 44.6512 21.3447C45.2302 21.4215 45.8156 21.4984 46.3945 21.5752C45.6629 16.344 46.3055 10.9974 48.1378 6.05429C47.5589 6.13113 46.9735 6.20788 46.3945 6.28471C49.9384 11.6184 50.6128 18.6938 47.9724 24.5718C48.5514 24.8215 49.1367 25.0649 49.7157 25.3147C50.5174 20.0578 51.3254 14.8008 52.1271 9.55032C51.5481 9.62716 50.9628 9.70406 50.3838 9.7809C52.7824 15.0698 54.373 20.7043 55.162 26.4607C55.2256 26.9345 55.7918 27.2035 56.2117 27.1458C56.7143 27.0754 56.9816 26.6848 57.0388 26.2046C57.586 21.524 58.1332 16.837 58.6804 12.1564C58.0441 12.1564 57.4079 12.1564 56.7717 12.1564C57.1216 16.5425 56.4536 20.9669 54.723 25.0136C55.2702 25.0136 55.8236 25.0136 56.3708 25.0136C54.0866 21.159 52.8141 16.7986 52.6742 12.3101C52.6423 11.2856 50.9627 10.9397 50.7973 12.0539C50.4028 14.7751 50.0021 17.5028 49.6076 20.2241C50.2184 20.2241 50.8355 20.2241 51.4463 20.2241C50.8864 17.6949 48.2333 16.1198 45.7583 16.7089C44.5431 17.0418 45.0521 18.8924 46.2482 18.6043Z" fill="#7EAF15"/>
</svg>
