<svg width="82" height="126" viewBox="0 0 82 126" fill="none" xmlns="http://www.w3.org/2000/svg">
<path d="M9.98394 9.43833C13.0402 4.80123 19.0877 3.40448 24.1979 2.54021C30.3822 1.49398 36.7061 1.35619 42.9383 2.01845C49.201 2.68337 55.3814 4.22863 61.2334 6.56992C63.9002 7.63755 66.5815 8.82963 68.9864 10.4204C71.015 11.7623 73.0583 13.5576 73.9105 15.9163C75.9032 21.4324 70.8037 26.0053 66.4021 28.2235C61.026 30.9327 54.8975 31.6472 48.9578 31.6686C42.3959 31.6926 35.8726 30.823 29.316 30.6972C25.9354 30.6317 22.5507 30.7775 19.2073 31.3087C16.4262 31.7502 13.6743 32.47 11.1631 33.7811C8.87923 34.9731 6.76282 36.7404 5.59162 39.0871C4.34332 41.5889 4.23037 44.448 5.01339 47.113C6.63392 52.6238 11.2762 56.7498 16.2574 59.2235C27.6875 64.9028 40.685 62.789 52.595 60.061C55.8706 59.3105 59.1343 58.4757 62.4352 57.8375C65.4449 57.2555 68.6354 56.8929 71.6345 57.7251C76.0508 58.9493 78.7441 62.8666 79.5577 67.2455C80.4059 71.805 79.1203 76.4594 76.2183 80.0343C72.815 84.2258 67.8936 86.8722 62.81 88.4161C50.6674 92.1047 37.5077 89.758 25.5126 94.2211C20.3838 96.129 15.4491 99.2382 12.4394 103.946C9.74468 108.162 8.60408 113.556 9.80452 118.462C10.3948 120.874 11.5965 122.869 13.2809 124.659C14.1543 125.586 15.5448 124.184 14.6727 123.259C11.3413 119.72 10.9664 114.218 12.2559 109.749C13.7502 104.57 17.5363 100.694 22.1705 98.1612C33.5222 91.9575 47.0102 93.9656 59.2792 91.5373C69.3506 89.5439 80.6186 83.3455 81.8895 72.0204C82.4 67.4783 81.1464 62.5562 78.0356 59.1486C76.3406 57.2916 74.0913 56.03 71.6532 55.4721C68.4998 54.751 65.2389 55.0989 62.0975 55.6996C55.3588 56.9853 48.7717 58.9626 41.9812 59.9968C35.9869 60.9092 29.8145 61.1006 23.8801 59.6878C18.5426 58.4182 13.1985 55.82 9.69683 51.4465C8.01515 49.346 6.7203 46.6862 6.64851 43.9503C6.58071 41.3682 7.71466 39.0804 9.61569 37.384C11.5247 35.6808 14.0001 34.6735 16.4382 34.0259C19.642 33.1764 22.9695 32.8539 26.273 32.7709C33.0144 32.6024 39.7198 33.4827 46.4519 33.6366C52.5139 33.7757 58.774 33.3556 64.4877 31.1561C69.4092 29.2617 75.0936 25.6601 76.0601 19.9768C77.0252 14.3069 72.5319 10.1942 68.0239 7.74056C62.5814 4.7785 56.5074 2.76898 50.4653 1.50335C44.265 0.205604 37.8919 -0.265319 31.5707 0.142734C28.4599 0.343416 25.3571 0.750119 22.3008 1.36688C19.6154 1.90872 17.0072 2.67538 14.577 3.9651C12.3942 5.1237 10.4705 6.83212 9.2209 8.98477C8.92976 9.48781 9.67153 9.91193 9.98394 9.43833Z" fill="#7EAF15"/>
<path d="M14.0792 125.012C15.2876 123.577 16.4322 122.16 17.9876 121.082C18.7427 120.559 19.5364 120.092 20.3752 119.716C21.2327 119.332 22.2151 119.17 22.9356 118.541C23.3743 118.159 23.151 117.328 22.586 117.21C21.5384 116.991 20.5108 117.503 19.5789 117.94C18.6191 118.39 17.7098 118.947 16.8722 119.598C15.257 120.854 13.7522 122.441 12.9652 124.36C12.7113 124.978 13.6631 125.506 14.0792 125.012Z" fill="#7EAF15"/>
<path d="M13.5317 124.794C13.0704 123.636 11.9789 122.611 11.1241 121.732C10.175 120.755 9.16864 119.859 8.09848 119.019C7.05092 118.197 5.97142 117.424 4.84276 116.72C3.68619 115.999 2.42993 115.151 1.06464 114.932C0.329485 114.813 -0.40833 115.706 0.264342 116.315C1.21486 117.177 2.41396 117.693 3.51071 118.337C4.64601 119.003 5.75471 119.725 6.82354 120.495C7.85914 121.24 8.86815 122.036 9.84525 122.857C10.3371 123.272 10.8158 123.701 11.3023 124.123C11.7836 124.539 12.2448 125.054 12.8085 125.354C13.1488 125.536 13.7019 125.224 13.5317 124.794Z" fill="#7EAF15"/>
</svg>
