<svg width="106" height="106" viewBox="0 0 106 106" fill="none" xmlns="http://www.w3.org/2000/svg">
<path d="M78.1826 1.72088C87.1044 14.0737 86.7577 31.3223 79.7782 44.3945C71.0948 60.6622 54.2037 70.2309 37.0036 75.2251C27.206 78.07 17.0763 79.6215 6.94863 80.808C4.34477 81.1144 4.32442 85.2392 6.96178 84.9396C26.1563 82.7407 45.8823 79.2978 62.2705 68.492C77.105 58.7091 88.4996 43.2101 88.354 24.8285C88.2859 16.0428 85.2651 7.40839 79.612 0.6339C78.9633 -0.148276 77.5806 0.885281 78.1826 1.72088Z" fill="#7EAF15"/>
<path d="M7.26686 86.0255C11.187 87.9565 15.0673 90.0479 18.781 92.3531C22.5047 94.6685 26.0052 97.348 29.7922 99.5463C31.2514 100.391 32.7617 98.404 31.5727 97.2083C25.3252 90.9341 16.3294 86.8778 8.06068 84.0692C6.91776 83.6873 6.17702 85.4897 7.26686 86.0255Z" fill="#7EAF15"/>
<path d="M9.33185 82.7442C14.5983 77.4508 19.2348 70.9601 21.3211 63.708C21.7549 62.1927 19.5401 61.6935 18.9988 63.0946C16.3389 69.9799 13.4131 76.3657 8.66692 82.0859C8.29335 82.5334 8.90132 83.1747 9.33185 82.7442Z" fill="#7EAF15"/>
</svg>
