<svg width="181" height="38" viewBox="0 0 181 38" fill="none" xmlns="http://www.w3.org/2000/svg">
<path d="M4.48309 14.6166C26.5411 20.9595 49.232 24.8839 72.1143 26.7414C94.9512 28.5955 117.934 28.3408 140.719 25.9158C147.086 25.2386 153.46 24.4486 159.779 23.3877C166.146 22.3171 172.695 21.2755 178.809 19.1569C180.441 18.5894 180.331 15.7678 178.371 15.9516C172.743 16.4708 167.161 17.6445 161.586 18.5539C155.959 19.4729 150.319 20.3371 144.662 21.0433C133.443 22.4428 122.169 23.307 110.872 23.7134C88.1167 24.5324 65.3512 23.2136 42.8258 19.9534C30.1304 18.1153 17.5096 15.6162 5.04452 12.6076C3.73019 12.2884 3.18174 14.2425 4.48309 14.6166Z" fill="#7EAF15"/>
<path d="M176.793 14.1491C175.765 13.5525 174.47 13.6525 173.308 13.5686C172.24 13.4912 171.199 13.3397 170.15 13.1333C167.798 12.669 165.552 11.8886 163.452 10.7341C161.411 9.61194 159.6 8.27696 157.932 6.65495C156.248 5.01682 154.92 3.04658 153.048 1.6116C152.178 0.944092 150.822 1.85017 150.874 2.84982C151.153 8.13183 156.958 12.6239 161.356 14.7521C163.783 15.9291 166.353 16.7772 169.024 17.1802C171.325 17.5285 175.226 17.9929 177.069 16.2677C177.705 15.6679 177.53 14.578 176.793 14.1491Z" fill="#7EAF15"/>
<path d="M179.29 19.4536C177.242 19.3537 175.159 20.7338 173.393 21.6335C171.18 22.7621 168.996 23.9263 166.825 25.1323C162.583 27.4895 158.368 29.8919 154.263 32.4717C151.64 34.1195 154 38.189 156.703 36.6218C160.906 34.1904 164.995 31.5784 169.054 28.9245C171.047 27.625 173.007 26.2931 174.954 24.9259C176.652 23.7328 179.017 22.4816 179.92 20.5436C180.156 20.0406 179.877 19.4827 179.29 19.4536Z" fill="#7EAF15"/>
<path d="M4.6498 14.6972C15.2131 14.8907 26.075 10.9469 33.8409 3.79137C35.5706 2.19838 33.0361 -0.232985 31.2804 1.24714C23.6962 7.63844 14.6095 11.4081 4.6498 11.9144C2.85842 12.0079 2.8357 14.665 4.6498 14.6972Z" fill="#7EAF15"/>
<path d="M0.423259 14.365C1.46499 16.7287 3.14928 18.7312 4.76542 20.7337C6.50812 22.891 8.30276 25.0161 10.2077 27.0348C13.8878 30.9366 17.7107 34.8482 22.2346 37.7794C23.5879 38.6565 25.0255 36.7056 23.9319 35.5963C20.2388 31.8589 16.1173 28.5762 12.3885 24.8678C10.5614 23.0491 8.7441 21.2207 6.99491 19.3278C5.19379 17.3769 3.5387 15.2421 1.452 13.5782C0.861363 13.1074 0.12145 13.6782 0.423259 14.365Z" fill="#7EAF15"/>
</svg>
