<svg width="170" height="112" viewBox="0 0 170 112" fill="none" xmlns="http://www.w3.org/2000/svg">
<path d="M12.7894 97.5856C6.50593 93.4442 4.61325 85.2496 3.44211 78.325C2.02443 69.9449 1.83772 61.3757 2.7351 52.9307C3.63611 44.4443 5.73002 36.0696 8.90259 28.1399C10.3493 24.5263 11.9646 20.8929 14.1202 17.6341C15.9385 14.8852 18.3713 12.1164 21.5675 10.9618C29.0421 8.26145 35.2386 15.1716 38.2444 21.136C41.9155 28.4209 42.8836 36.7253 42.9126 44.7739C42.9452 53.6657 41.7668 62.5051 41.5964 71.3896C41.5076 75.9706 41.7052 80.5569 42.4249 85.0875C43.0232 88.856 43.9985 92.5849 45.7752 95.9878C47.3905 99.0826 49.7853 101.95 52.9651 103.537C56.3552 105.229 60.2294 105.382 63.8407 104.321C71.3081 102.125 76.899 95.8346 80.2511 89.0847C87.9468 73.5963 85.0824 55.9841 81.3859 39.8453C80.3689 35.4067 79.2377 30.9843 78.3729 26.5114C77.5843 22.433 77.093 18.1097 78.2206 14.0458C79.8794 8.06152 85.1876 4.41187 91.1212 3.30941C97.2996 2.16012 103.607 3.90209 108.451 7.83455C114.131 12.4461 117.717 19.1149 119.809 26.0034C124.807 42.4574 121.627 60.2895 127.675 76.5435C130.26 83.4933 134.473 90.18 140.853 94.2584C146.565 97.9098 153.875 99.4554 160.523 97.8288C163.791 97.0289 166.494 95.4005 168.92 93.1181C170.176 91.9346 168.276 90.0504 167.022 91.2321C162.227 95.7464 154.772 96.2543 148.715 94.507C141.698 92.4822 136.446 87.3518 133.014 81.0721C124.607 65.69 127.328 47.4131 124.038 30.788C121.337 17.1406 112.938 1.87189 97.5915 0.149751C91.4367 -0.541986 84.767 1.15669 80.1496 5.37196C77.6332 7.66874 75.9237 10.7168 75.1677 14.0205C74.1906 18.2934 74.6619 22.7122 75.4759 26.969C77.2181 36.1002 79.8975 45.0261 81.2989 54.2277C82.5353 62.3502 82.7946 70.7141 80.8802 78.7556C79.1598 85.9882 75.6391 93.2298 69.7127 97.9747C66.8665 100.253 63.2624 102.008 59.555 102.105C56.0561 102.197 52.956 100.661 50.6573 98.0846C48.3494 95.4978 46.9844 92.1435 46.107 88.8398C44.9558 84.4984 44.5188 79.9895 44.4064 75.513C44.178 66.3782 45.3709 57.2919 45.5794 48.1696C45.7679 39.9552 45.1987 31.4725 42.2183 23.73C39.6512 17.0613 34.7709 9.35852 27.0697 8.0489C19.3866 6.74109 13.8137 12.8298 10.4889 18.9383C6.47512 26.3132 3.75212 34.5438 2.03712 42.7312C0.278605 51.1329 -0.359522 59.7688 0.193413 68.3344C0.465348 72.5497 1.01645 76.7542 1.8522 80.8956C2.58642 84.5344 3.62529 88.0688 5.37292 91.3617C6.9429 94.3196 9.25788 96.9263 12.1748 98.6196C12.8565 99.0141 13.4312 98.009 12.7894 97.5856Z" fill="#7EAF15"/>
<path d="M169.399 92.0373C167.454 90.3999 165.534 88.8489 164.072 86.7412C163.364 85.718 162.731 84.6426 162.222 83.5059C161.701 82.344 161.482 81.0127 160.63 80.0364C160.111 79.4419 158.986 79.7446 158.826 80.5102C158.529 81.9297 159.223 83.3221 159.816 84.5849C160.425 85.8855 161.179 87.1177 162.062 88.2526C163.764 90.4413 165.914 92.4804 168.514 93.5469C169.352 93.8909 170.068 92.6012 169.399 92.0373Z" fill="#7EAF15"/>
<path d="M169.103 92.7777C167.533 93.4027 166.144 94.8817 164.953 96.04C163.63 97.3262 162.415 98.6899 161.277 100.14C160.163 101.559 159.116 103.022 158.162 104.552C157.185 106.119 156.036 107.821 155.738 109.671C155.577 110.667 156.788 111.667 157.613 110.756C158.78 109.468 159.48 107.843 160.352 106.357C161.255 104.818 162.234 103.316 163.276 101.868C164.286 100.464 165.365 99.097 166.478 97.773C167.04 97.1065 167.622 96.4579 168.193 95.7986C168.757 95.1465 169.455 94.5215 169.861 93.7577C170.107 93.2965 169.685 92.5471 169.103 92.7777Z" fill="#7EAF15"/>
</svg>
