<svg width="116" height="141" viewBox="0 0 116 141" fill="none" xmlns="http://www.w3.org/2000/svg">
<path d="M111.525 127.208C114.176 110.185 114.366 92.8104 112.105 75.7313C109.857 58.7531 105.191 42.0127 98.2766 26.3262C94.3788 17.4849 89.7487 8.96609 84.4568 0.872406C84.7922 0.872406 85.1276 0.872406 85.463 0.872406C83.5758 4.38693 83.3564 8.38604 83.6664 12.2879C84.0018 16.4977 84.8103 20.677 85.4575 24.8454C86.839 33.7191 88.1661 42.6036 89.2248 51.5223C91.2969 68.9887 92.2451 86.6946 90.4648 104.231C89.6 112.746 88.1008 121.204 85.7694 129.447C85.2074 131.432 84.6508 133.443 83.9166 135.372C83.302 136.982 82.4572 138.546 80.967 139.51C79.649 140.362 77.8742 140.65 76.4456 139.895C75.0751 139.171 74.3826 137.703 74.0544 136.26C73.6229 134.374 73.5287 132.383 73.3202 130.463C73.0809 128.246 72.8561 126.026 72.6385 123.807C72.2107 119.426 71.8119 115.041 71.384 110.659C70.5156 101.736 69.5312 92.8176 67.9395 83.9907C65.1585 68.5708 60.4504 53.0751 51.9407 39.7646C50.8819 38.1091 49.7507 36.5113 48.556 34.9513C48.7445 34.9008 48.9331 34.8504 49.1198 34.7999C48.3674 47.9321 50.3834 61.0607 51.1829 74.1443C51.8791 85.5399 51.6923 97.1662 48.5487 108.229C46.8609 114.171 44.2975 119.941 40.6336 124.949C40.1731 125.58 39.0129 125.617 38.8153 124.713C36.1322 112.453 33.4491 100.193 30.766 87.9322C29.9992 84.4285 29.2323 80.9266 28.4655 77.4228C29.1199 77.4228 29.7743 77.4228 30.4288 77.4228C29.1217 81.8597 27.8309 86.3001 26.5365 90.7406C25.873 93.0175 25.2095 95.2945 24.546 97.5715C23.9858 99.4954 23.5561 101.527 22.7149 103.354C22.0296 104.844 20.7787 106.056 19.071 106.193C17.4303 106.324 15.9618 105.308 14.9394 104.125C13.6631 102.644 12.8764 100.877 12.0134 99.1441C10.951 97.013 9.88682 94.882 8.82446 92.7491C6.48582 88.0583 4.21971 83.3314 1.86657 78.6478C1.30638 77.5327 2.99239 76.5474 3.55439 77.6678C7.3651 85.2517 11.194 92.8446 15.1189 100.371C15.7661 101.61 16.6236 103.046 17.909 103.721C19.3085 104.458 20.3292 103.349 20.8586 102.129C21.6109 100.396 22.0169 98.4614 22.5572 96.6546C23.1518 94.6658 23.7483 92.6789 24.3429 90.6901C25.7207 86.0893 27.1022 81.4886 28.4655 76.8824C28.7356 75.9673 30.2094 75.8718 30.4288 76.8824C33.101 89.1463 35.7715 101.41 38.4437 113.672C39.2069 117.176 39.9701 120.68 40.7334 124.184C40.1278 124.104 39.5205 124.027 38.915 123.948C45.4885 114.982 48.5868 104.228 49.6691 93.2896C50.8765 81.0923 49.6455 68.8536 48.8696 56.6707C48.4055 49.3805 48.1789 42.0974 48.5124 34.7963C48.5233 34.564 48.8569 34.3622 49.0291 34.5838C53.7554 40.6113 57.7963 47.2062 60.8239 54.237C63.8442 61.2517 66.1176 68.5581 67.8163 75.9943C71.6415 92.7365 72.7419 109.924 74.5022 126.958C74.7252 129.118 74.959 131.277 75.211 133.434C75.3851 134.932 75.4975 136.936 76.6705 138.051C78.09 139.4 80.1621 138.334 81.1446 137.009C82.2686 135.496 82.7309 133.522 83.2748 131.751C85.7549 123.659 87.4246 115.324 88.4325 106.928C90.4866 89.8074 89.7959 72.5266 88.0392 55.4133C87.1363 46.6153 85.938 37.8497 84.6545 29.0985C84.0308 24.8508 83.3401 20.6103 82.7691 16.3554C82.2742 12.6662 81.9986 8.86701 82.7292 5.18855C83.0682 3.48082 83.6429 1.82534 84.455 0.281542C84.669 -0.125574 85.2327 -0.0607234 85.4612 0.281542C95.0913 14.7342 102.484 30.6315 107.495 47.2296C112.501 63.8079 115.068 81.2076 115.048 98.5172C115.037 108.221 114.232 117.924 112.575 127.489C112.455 128.184 111.42 127.885 111.525 127.208Z" fill="#7EAF15"/>
<path d="M3.83746 77.8389C4.88712 78.482 6.04919 78.936 7.23664 79.2512C8.36608 79.5521 9.58251 79.4026 10.6557 79.8583C11.1615 80.0745 11.1035 80.8779 10.6557 81.1121C9.46467 81.7336 7.84578 81.2778 6.65108 80.8185C5.33854 80.3123 4.28339 79.4836 3.39326 78.4082C3.14852 78.1092 3.46037 77.6066 3.83746 77.8389Z" fill="#7EAF15"/>
<path d="M3.29308 78.3776C3.87864 79.6746 3.59585 81.4778 3.22058 82.8109C2.79092 84.333 2.08751 85.7976 0.814858 86.7794C0.406955 87.0946 -0.205826 86.7127 0.0679219 86.2065C0.72963 84.9798 1.49834 83.7926 1.91712 82.4524C2.13104 81.7643 2.29959 81.0545 2.36848 80.3375C2.42831 79.7161 2.37933 79.091 2.51711 78.4785C2.59325 78.1453 3.14261 78.0444 3.29308 78.3776Z" fill="#7EAF15"/>
</svg>
