<svg width="123" height="109" viewBox="0 0 123 109" fill="none" xmlns="http://www.w3.org/2000/svg">
<path d="M7.50757 47.9508C8.23183 39.4757 11.1393 31.5393 16.2425 24.6194C21.4104 17.6101 28.5382 12.1294 36.6302 8.65323C54.4633 0.993351 75.3019 3.18482 92.6715 10.924C97.6829 13.1561 102.486 15.8191 107.069 18.7973C109.334 20.2671 111.546 21.8141 113.702 23.4302C115.915 25.0891 117.937 27.0142 120.306 28.4535C121.834 29.3825 123.191 27.3618 122.132 26.1482C120.433 24.1986 118.213 22.7045 116.136 21.1534C114.155 19.6734 112.139 18.2423 110.075 16.8783C105.856 14.0892 101.45 11.5664 96.8668 9.39118C87.7353 5.06116 77.9422 2.1216 67.8047 1.23933C48.4313 -0.449985 28.1458 5.80722 15.8397 21.0213C9.73042 28.5754 5.47253 38.197 5.84823 47.9508C5.88371 49.0038 7.41991 48.9814 7.50757 47.9508Z" fill="#7EAF15"/>
<path d="M122.066 26.0303C122.554 24.0523 122.381 21.9198 122.41 19.8971C122.442 17.7159 122.41 15.5326 122.402 13.3513C122.396 11.6477 122.805 9.24489 121.609 7.81984C120.59 6.60418 118.599 6.54927 117.733 7.94382C117.247 8.72445 118.251 9.80597 119.071 9.24693C119.822 8.73464 119.814 12.0136 119.826 12.3592C119.883 13.8798 119.939 15.4004 119.996 16.921C120.052 18.4437 120.125 19.9622 120.208 21.4828C120.292 23.0054 120.279 24.5525 120.707 26.0283C120.893 26.6666 121.901 26.7012 122.066 26.0303Z" fill="#7EAF15"/>
<path d="M121.548 28.1647C119.887 27.0771 117.533 26.7092 115.627 26.1704C114.627 25.8879 113.619 25.6256 112.615 25.3553C111.534 25.0646 110.488 24.7129 109.355 24.7495C107.961 24.7942 107.278 26.7193 108.614 27.4125C110.44 28.3619 112.843 28.5082 114.867 28.8559C115.898 29.0327 116.933 29.1954 117.967 29.3641C119.004 29.5328 120.089 29.7747 121.139 29.6385C121.922 29.5389 122.264 28.6342 121.548 28.1647Z" fill="#7EAF15"/>
<path d="M120.105 53.1672C119.262 57.7513 118.408 62.2826 116.778 66.6797C115.192 70.961 113.057 75.0511 110.5 78.8587C105.346 86.5348 98.369 93.0156 90.2372 97.6364C82.1285 102.243 73.0137 104.808 63.615 104.934C54.3165 105.06 44.9763 103.058 36.5983 99.1244C27.1767 94.7009 18.663 87.97 12.9461 79.373C12.1948 78.2427 10.4478 78.1492 9.71516 79.373C8.31256 81.723 6.77431 83.9957 5.08159 86.1587C3.40766 88.2993 1.36219 90.2021 0.14118 92.6233C-0.39523 93.6885 0.692204 94.7964 1.80051 94.2394C4.41785 92.9261 6.23997 90.5396 8.01618 88.3014C9.81117 86.0388 11.458 83.6766 12.9461 81.2128C11.8691 81.2128 10.7922 81.2128 9.71516 81.2128C20.579 97.738 39.9065 108.171 60.0375 108.766C69.9538 109.059 79.8096 106.866 88.6029 102.389C97.3984 97.9128 104.954 91.2063 110.66 83.3249C113.82 78.9623 116.39 74.1973 118.264 69.1801C120.134 64.1752 121.562 58.6966 121.428 53.342C121.414 52.6325 120.243 52.411 120.105 53.1672Z" fill="#7EAF15"/>
<path d="M9.51234 80.1819C9.98196 80.3974 10.3326 80.741 10.8231 80.8995C11.3867 81.0825 12.0128 81.1374 12.5972 81.2329C13.7348 81.4199 14.8744 81.5866 16.0161 81.733C18.4226 82.044 20.8375 82.2189 23.2628 82.3002C28.0446 82.4587 32.9328 82.3815 37.6499 81.5623C38.9084 81.3427 38.6329 79.2631 37.3451 79.3728C32.6448 79.7693 27.9882 80.2571 23.2607 80.2287C20.9773 80.2144 18.6939 80.1128 16.4147 79.9786C15.2104 79.9075 14.0082 79.812 12.808 79.6941C12.2779 79.6412 11.7415 79.5497 11.2113 79.5273C10.6332 79.503 10.1886 79.7347 9.61879 79.7937C9.43303 79.8099 9.29736 80.0843 9.51234 80.1819Z" fill="#7EAF15"/>
</svg>
