<svg width="84" height="143" viewBox="0 0 84 143" fill="none" xmlns="http://www.w3.org/2000/svg">
<path d="M19.414 0.0231151C19.5829 -0.0675136 19.7217 0.111852 19.4459 0.538563C19.2752 0.583877 19.1176 0.644301 18.9525 0.708496C19.0838 0.464931 19.2583 0.247799 19.414 0.0231151Z" fill="#7EAF15"/>
<path d="M19.1419 3.38585C19.095 3.52179 19.0368 3.66528 18.9749 3.79933C18.9186 3.93339 18.8586 4.0599 18.791 4.15997C18.656 4.35822 18.4965 4.4545 18.3145 4.26947C18.4777 3.95793 18.5208 3.77857 18.5902 3.58976C18.6221 3.49724 18.6559 3.40285 18.7103 3.29522C18.7685 3.1876 18.853 3.06864 18.9711 2.92892C19.065 2.45878 18.988 2.07172 18.838 2.12081C18.9055 2.04528 18.9298 1.85081 18.9805 1.65067C19.0443 1.45431 19.1231 1.24663 19.2807 1.16544C19.3182 1.87159 19.1587 2.58341 18.8942 3.4104C18.9711 3.59165 19.0706 3.42172 19.1419 3.38585Z" fill="#7EAF15"/>
<path d="M53.873 29.957L53.5916 29.8721C53.6742 29.8853 53.7699 29.9155 53.873 29.957Z" fill="#7EAF15"/>
<path d="M79.4912 41.5973C79.3411 41.4292 79.2998 41.3348 79.3167 41.3027C79.4461 41.4708 79.5494 41.6124 79.4912 41.5973Z" fill="#7EAF15"/>
<path d="M82.5037 45.8286C82.4565 45.7229 82.415 45.6341 82.3735 45.5378C82.4471 45.6379 82.5075 45.7474 82.5037 45.8286Z" fill="#7EAF15"/>
<path d="M53.8724 29.9571L54.5947 30.1705C54.5929 30.3064 54.2139 30.0893 53.8724 29.9571Z" fill="#7EAF15"/>
<path d="M20.3597 9.79614C20.2715 9.65076 20.2228 9.51294 20.1871 9.38077C20.2528 9.5035 20.3147 9.62434 20.3916 9.73951C20.3803 9.75651 20.3691 9.77349 20.3597 9.79614Z" fill="#7EAF15"/>
<path d="M43.0928 24.019L42.8958 23.9057C42.8583 23.8359 42.8301 23.7604 42.8076 23.6792L43.0928 24.019Z" fill="#7EAF15"/>
<path d="M35.0668 19.0552C35.2525 19.159 35.1437 19.4668 35.138 19.6292C35.108 19.4536 35.0086 19.3138 34.8641 19.1911C34.8941 19.1401 34.9561 19.0948 35.0668 19.0552Z" fill="#7EAF15"/>
<path d="M22.7461 10.6116L22.5931 10.3925C22.6309 10.453 22.7046 10.5417 22.7461 10.6116Z" fill="#7EAF15"/>
<path d="M49.0601 27.176C49.0959 27.142 49.1451 27.1194 49.1885 27.1137C49.1696 27.1515 49.1224 27.1685 49.0601 27.176Z" fill="#7EAF15"/>
<path d="M11.1304 117.544C11.1361 117.567 11.1229 117.58 11.1229 117.601C11.0738 117.561 11.0587 117.537 11.1304 117.544Z" fill="#7EAF15"/>
<path d="M0.141443 117.112L0.28683 117.163C0.288718 117.225 0.290595 117.286 0.27549 117.344L0.141443 117.112Z" fill="#7EAF15"/>
<path d="M80.3583 55.3425C80.3716 55.3274 80.3753 55.3218 80.3866 55.3067C80.6075 55.1499 80.4924 55.2481 80.3583 55.3425Z" fill="#7EAF15"/>
<path d="M15.716 70.8684C15.2901 70.7212 15.5096 71.0063 15.6935 71.263C15.8773 71.5179 16.0237 71.7483 15.3934 71.4783C15.4797 71.4651 15.3127 71.1837 15.2545 70.9704C15.1963 70.7551 15.2376 70.6154 15.716 70.8684Z" fill="#7EAF15"/>
<path d="M20.5505 9.983C20.6275 10.0963 20.7156 10.2039 20.8057 10.3115C20.68 10.1699 20.5993 10.0698 20.5505 9.983Z" fill="#7EAF15"/>
<path d="M15.3936 71.4783L15.3916 71.4802L15.2632 71.4198C15.3179 71.4443 15.3482 71.4576 15.3936 71.4783Z" fill="#7EAF15"/>
<path d="M60.5028 61.4922C60.5366 61.4318 60.6097 61.3789 60.6885 61.326C60.6866 61.36 60.6454 61.4053 60.5028 61.4922Z" fill="#7EAF15"/>
<path d="M75.2959 57.7517C75.1833 57.8159 75.0671 57.8745 74.9526 57.9368C75.084 57.8537 75.1965 57.8008 75.2959 57.7517Z" fill="#7EAF15"/>
<path d="M52.6475 61.9473C52.4467 61.9907 52.3829 62.0417 52.1015 62.0247C52.1259 62.0058 52.1503 61.9926 52.1822 61.9775C52.2872 62.0115 52.4223 62.0191 52.6475 61.9473Z" fill="#7EAF15"/>
<path d="M44.4991 62.4456C44.5423 62.4191 44.5986 62.4002 44.6474 62.3757C44.728 62.3776 44.8237 62.3814 44.9063 62.3832L44.4991 62.4456Z" fill="#7EAF15"/>
<path d="M35.3418 117.323C35.1823 117.437 35.0885 117.548 35.0172 117.657C35.1054 117.416 33.931 117.499 35.3418 117.323Z" fill="#7EAF15"/>
<path d="M20.5058 9.6921C20.472 9.78084 20.4851 9.86389 20.5508 9.98096C20.4945 9.89788 20.4419 9.81671 20.3913 9.73741C20.4138 9.69021 20.4476 9.66 20.5058 9.6921Z" fill="#7EAF15"/>
<path d="M52.1035 59.4756C51.6814 59.5341 51.2592 59.5776 50.8352 59.6248C51.1879 59.5662 51.6495 59.5228 52.1035 59.4756Z" fill="#7EAF15"/>
<path d="M64.0711 95.8821L64.3506 95.9973C64.2361 95.9747 64.1368 95.9388 64.0711 95.8821Z" fill="#7EAF15"/>
<path d="M47.0527 59.8229C46.8314 59.9475 46.5931 60.0249 46.3454 60.0815C46.291 60.0589 46.231 60.0419 46.1935 60.0079L47.0527 59.8229Z" fill="#7EAF15"/>
<path d="M35.0135 117.661C35.016 117.659 35.016 117.656 35.016 117.656C35.016 117.656 35.0184 117.659 35.0135 117.661Z" fill="#7EAF15"/>
<path d="M26.6223 117.742C27.8249 117.659 27.2115 118.116 27.4835 118.341C28.9375 118.369 28.1308 117.997 28.6054 117.744C29.5079 117.776 30.2339 118.101 30.9037 118.022C30.9468 117.948 31.0744 117.909 30.913 117.839C31.4027 117.95 32.11 117.875 32.8361 117.807C33.5621 117.737 34.3051 117.646 34.8867 117.78C34.9636 117.733 34.9993 117.691 35.0161 117.657C34.8679 117.89 34.8698 118.105 34.9279 118.25C35.2 118.214 35.4607 118.248 35.6746 118.247C35.8885 118.243 36.0555 118.211 36.1343 118.06C35.8041 118.122 35.759 118.018 35.5921 117.96L36.1756 117.982C36.6221 117.508 35.3838 117.98 35.3388 117.684C35.8997 117.665 36.5114 117.673 37.0892 117.663C37.3781 117.657 37.6577 117.646 37.9184 117.62C38.1774 117.588 38.4138 117.54 38.6202 117.472C38.6727 117.265 38.1774 117.331 37.7984 117.372C37.4195 117.408 37.1605 117.429 37.6934 117.167L36.4157 117.527C37.3125 116.764 35.6334 117.699 36.442 116.908C38.1268 116.525 38.3782 116.764 40.0535 116.334C40.4757 116.46 39.9897 116.672 40.4137 116.798C41.6576 116.723 42.0816 116.381 42.4231 116.075C42.7645 115.76 43.0234 115.479 43.9596 115.513C44.2166 115.581 44.4193 115.722 44.7082 115.777C44.9953 115.828 45.3648 115.783 45.9539 115.49L45.4173 115.186C47.0196 114.695 46.5149 115.552 48.1189 114.759C47.77 114.686 46.815 115.003 47.0439 114.88C48.0383 114.221 47.8844 114.884 48.7249 114.629L48.7869 114.208C49.2202 114.098 49.6611 113.976 50.1152 113.864C50.5711 113.755 51.0345 113.645 51.5054 113.532C51.9725 113.407 52.4453 113.281 52.9218 113.152C53.3965 113.022 53.8749 112.884 54.342 112.716C54.1994 112.65 53.8411 112.66 54.2314 112.382C56.6365 111.683 59.1505 110.32 61.2049 109.063L62.1767 108.961C62.3681 108.866 62.4638 108.647 62.2312 108.697C63.006 108.153 62.3681 108.863 62.8259 108.772C63.3118 108.547 63.3662 108.277 63.021 108.343C64.6307 107.873 67.4655 106.62 68.775 105.406C68.6606 105.438 68.5499 105.472 68.4355 105.5C68.9777 105.085 69.3904 105.024 69.7844 104.954C70.1746 104.879 70.5573 104.807 71.0001 104.324L70.7656 104.409C71.3622 103.969 71.9907 103.542 72.6211 103.123C73.2402 102.704 73.7712 102.305 74.0545 101.877C74.1989 101.663 74.2758 101.452 74.319 101.223C74.3602 100.997 74.3509 100.757 74.2946 100.525C74.1895 100.058 73.9138 99.6336 73.5779 99.3636C73.6061 99.2976 73.6061 99.2183 73.5742 99.1371C73.546 99.0521 73.4954 98.9615 73.4222 98.8727C73.3547 98.7783 73.259 98.6971 73.1614 98.6103C73.1107 98.5706 73.0582 98.531 73.0057 98.4913L72.8275 98.3724C72.3472 98.059 71.8162 97.8324 71.8631 97.4925C71.4767 97.4151 71.2046 97.3944 70.9832 97.3868C70.7637 97.3774 70.593 97.383 70.4054 97.3811C70.0227 97.3736 69.5893 97.3528 68.3848 97.1848C67.7488 97.0602 67.5425 96.5504 66.7845 96.2936L66.6832 96.6278L65.717 96.0142L65.0547 96.2804L64.3511 95.9991C64.6457 96.0557 65.0041 96.0123 64.9834 95.9028C63.8934 95.4458 62.1655 95.3968 62.0885 95.561C61.6533 95.3968 61.2237 95.2193 60.794 95.0399L59.5051 94.5075C59.5239 94.6604 59.9573 94.836 60.2856 95.0267C58.9648 94.2677 59.9235 95.3042 58.7134 94.6075C58.9104 94.583 58.6777 94.3809 58.6684 94.3035C58.492 94.3054 58.265 94.2828 58.0117 94.2356C57.7584 94.1846 57.4752 94.1128 57.1825 94.0279C56.5953 93.858 55.963 93.6333 55.434 93.418L55.569 93.7126C54.5747 93.4388 53.5597 93.0479 52.5147 92.6533C51.9932 92.4532 51.4641 92.2512 50.9294 92.0491C50.3984 91.8377 49.8618 91.6281 49.3196 91.428C50.1358 91.6092 50.0982 91.1523 49.4791 90.8804L49.0983 91.1334C48.7681 90.7671 49.8075 91.2467 49.0645 90.6746C48.2428 90.4159 48.376 90.8672 48.7981 91.1523L47.8601 90.6689C47.7644 90.7501 47.9745 90.8898 47.9839 91.0447C47.6593 90.6878 46.1621 90.7275 45.7269 90.1308L45.6312 90.212C45.0928 90.0006 44.6312 89.8099 44.2147 89.6324C43.802 89.4455 43.4324 89.2718 43.0778 89.1037C42.3667 88.7657 41.7045 88.4485 40.8415 88.0728C40.9334 87.765 40.2355 87.529 39.8284 87.0646C39.1792 86.8286 38.4795 86.6114 37.7515 86.3641C37.0311 86.1054 36.2863 85.809 35.5396 85.4389C34.5509 84.7932 35.3463 85.0481 34.9542 84.6516C34.7478 84.8857 33.2751 84.1116 33.9542 84.6856C33.0725 84.2135 32.5078 83.9133 31.8962 83.5621C31.5922 83.3847 31.2695 83.2034 30.8999 82.9655C30.5303 82.7257 30.1026 82.4463 29.5716 82.1007C29.8681 82.1253 30.1645 82.2235 30.0688 82.0611C29.6879 81.8043 29.0933 81.6778 29.0857 81.8326L29.1776 81.9157C28.0219 81.0717 26.5098 80.4373 25.0502 79.8388C24.3204 79.5386 23.6244 79.2138 22.9959 78.8796C22.3711 78.5398 21.8214 78.1792 21.4143 77.7562L21.5061 77.8488L19.6826 76.3402C18.7427 75.8115 20.1159 76.8669 19.3449 76.5969C18.3937 75.7303 17.5607 75.1846 16.7503 74.7013C16.345 74.4577 15.951 74.2274 15.5589 73.9668C15.1668 73.7082 14.7577 73.3928 14.3731 73.0039C13.4501 72.8434 12.2232 71.8729 11.1725 70.5135C10.651 69.8319 10.18 69.0464 9.82922 68.227C9.48026 67.4057 9.25695 66.556 9.11624 65.814C9.18378 65.8706 9.25138 65.9235 9.3208 65.9764C9.40522 65.6025 9.39212 65.3854 9.34709 65.1796C9.31144 64.9776 9.23637 64.785 9.27014 64.5055C9.39396 64.6151 9.33575 65.3307 9.49897 64.8926C9.62467 64.1412 9.91361 63.384 10.3076 62.7345C10.7035 62.0793 11.2025 61.511 11.7541 61.0277C12.3075 60.5424 12.9173 60.1497 13.5627 59.8231C13.724 59.7438 13.8854 59.6607 14.0542 59.5946C14.2193 59.521 14.3863 59.453 14.5589 59.3945C14.8966 59.2661 15.2549 59.166 15.5926 59.0829C16.9678 58.7431 18.3506 58.6827 19.6507 58.7053C20.3036 58.7166 20.9377 58.7525 21.553 58.794C22.1572 58.8337 22.7613 58.8733 23.3598 58.913C24.2303 58.9791 24.4498 59.2661 24.7331 59.5059C25.0164 59.7475 25.3654 59.9345 26.4873 59.7891L25.8963 59.3624C26.765 59.5474 27.6505 59.6928 28.5435 59.7796C29.4366 59.8627 30.3371 59.925 31.2339 59.9722C32.1325 60.0081 33.0274 60.0421 33.9148 60.1006C34.8022 60.1459 35.6803 60.2082 36.5433 60.3272C36.3388 60.2347 36.3351 60.1233 35.9973 60.1157C36.7328 59.8778 38.6971 60.1365 38.7102 60.3612C39.2505 60.3404 38.8359 60.161 39.168 60.0515C39.8997 59.9043 41.0103 60.3857 41.3968 60.1119C41.4625 60.0666 41.1904 60.027 41.0554 60.0081C41.5338 60.1327 43.2786 59.9439 42.8283 60.2649C43.4756 60.1686 44.0984 60.1818 44.6875 60.1931C45.2766 60.2026 45.8338 60.2158 46.3479 60.0893C47.0421 60.4027 48.5598 59.8023 48.8037 60.2838C48.6799 59.7777 51.0458 59.7079 51.8881 59.8797C51.6011 59.7513 52.586 59.6531 52.2464 59.47C53.1788 59.3888 54.0419 59.4039 53.905 59.6815C54.7361 59.3038 55.6066 59.3133 56.3889 59.3303C56.7791 59.3359 57.1469 59.3416 57.4696 59.2868C57.7923 59.2321 58.0718 59.1113 58.2876 58.8847C58.9855 58.8601 59.6721 58.8318 60.3456 58.7997C61.0191 58.7601 61.6814 58.7053 62.3343 58.6543C63.6438 58.5599 64.9065 58.3938 66.156 58.2389C65.9759 57.7518 63.4131 58.6713 63.4319 58.1238C64.6176 58.0199 65.5706 58.0218 66.5124 57.9708C67.4505 57.9066 68.3904 57.8066 69.5273 57.512C70.0977 57.3176 69.1522 57.3685 68.927 57.3194C70.1015 57.1948 71.1821 56.9154 72.2158 56.5982C73.2477 56.2791 74.2214 55.9279 75.1895 55.6296C75.1632 55.5881 74.9475 55.6353 74.743 55.6787C74.9287 55.6088 75.1276 55.4918 75.289 55.4276C75.4485 55.3577 75.5704 55.3369 75.6023 55.4521C75.4766 55.4899 75.3546 55.5295 75.2271 55.5635C75.0076 55.8486 75.4409 55.8505 75.9512 55.7674C76.4596 55.6825 77.0394 55.505 77.1144 55.556C76.6473 55.4483 77.0712 55.1557 77.407 54.8498C77.7504 54.5421 77.998 54.2437 77.3395 54.206C77.5684 54.1002 77.8817 53.9926 77.9305 54.1493C78.0656 54.0153 78.1406 53.9114 78.1294 53.8529C78.1181 53.7944 78.03 53.7887 77.8273 53.834C78.1069 53.649 78.3001 53.5319 78.4446 53.4488C78.589 53.3677 78.6978 53.328 78.7935 53.2808C78.9849 53.1883 79.1744 53.1033 79.5496 52.6181C79.4558 52.552 79.2794 52.7219 79.0955 52.7257C79.2381 52.6502 79.3658 52.5595 79.5065 52.467C79.6397 52.3688 79.771 52.2574 79.8986 52.1272C80.1481 51.8628 80.3807 51.5079 80.5289 51.0113C80.4408 51.0415 80.4145 50.9056 80.2926 51.1775C80.6547 50.3996 80.9436 49.6972 81.0974 48.9174C81.2438 48.1414 81.2325 47.2634 80.8198 46.3232C80.7504 46.5044 80.6866 46.5535 80.6359 46.5309C80.5853 46.5082 80.5384 46.4138 80.4764 46.3005C80.4183 46.1872 80.3564 46.0531 80.2813 45.9512C80.2025 45.8511 80.1068 45.7869 79.9999 45.8058C79.908 45.4716 79.7804 45.145 79.6472 44.8146C79.7804 44.9014 79.8986 44.9977 80.028 45.094C79.9736 44.9902 79.9229 44.8844 79.876 44.7787C79.8235 44.6767 79.7729 44.5729 79.726 44.4709C79.6359 44.2614 79.5384 44.0612 79.4371 43.8649C79.3433 43.6647 79.2269 43.4816 79.105 43.3079C78.9868 43.1304 78.8385 42.9793 78.6772 42.8453L78.8461 43.1719C78.9005 43.2814 78.9474 43.3947 78.9981 43.5061C78.833 43.2588 78.6415 43.0303 78.4577 42.7943C78.362 42.6791 78.2607 42.5696 78.1612 42.4563L78.0131 42.2883L77.8555 42.1278C77.9999 42.2203 78.1388 42.3223 78.2758 42.428C78.4127 42.5338 78.5552 42.6338 78.6847 42.749C78.4352 42.3091 78.5365 42.2411 78.5966 42.1656C78.6247 42.1297 78.6378 42.0919 78.5815 42.0088C78.5534 41.9673 78.5065 41.9144 78.4352 41.8446C78.3602 41.7785 78.2607 41.6954 78.1275 41.5935C78.1707 41.6482 78.1444 41.6331 78.075 41.5765C78.0055 41.5198 77.8911 41.4216 77.7448 41.3235C77.4634 41.1139 77.0694 40.8873 76.7899 40.8344C76.7899 40.8344 76.7917 40.8363 76.7917 40.8382C76.4671 40.4493 76.1163 40.0301 75.4147 39.7526C75.182 39.7733 75.3171 40.2359 75.1651 40.251C75.0488 39.9735 74.5479 39.6752 74.0226 39.3844C73.4954 39.0955 72.94 38.818 72.7243 38.5234C72.8837 38.6858 72.8049 38.8954 72.7243 38.9086L72.4541 38.4838C71.9869 38.3875 71.9063 38.4101 71.912 38.6008C70.5856 38.1383 72.5273 38.2572 70.8782 37.8739C70.9945 37.9419 70.9214 37.9589 71.1615 38.0986C69.5481 37.6152 68.139 36.8354 66.6231 36.4163C66.0434 36.658 67.8764 36.9846 67.2573 37.1413C66.2067 36.7109 65.1429 36.2067 64.0998 35.6799C63.5763 35.4213 63.0529 35.1683 62.5332 34.936C62.0116 34.7038 61.4976 34.4772 60.9816 34.296L61.3756 34.4073C61.3475 34.0713 60.9441 33.9863 60.4301 33.8995C59.9179 33.8145 59.295 33.7257 58.8429 33.3708C59.0736 33.5181 59.0399 33.8183 58.9986 33.7276C58.2913 33.4746 57.6009 33.1367 56.8354 32.7289C56.0756 32.3116 55.2482 31.8112 54.252 31.258L54.4433 31.5148C53.5803 31.275 52.3065 30.5896 51.4134 30.246C51.2239 29.9854 50.7267 29.7608 51.1207 29.7079C50.3684 29.5776 49.6874 29.3265 49.0532 29.0187C48.4154 28.7147 47.8375 28.3258 47.2634 27.9538C46.1134 27.2099 45.0384 26.432 43.7157 26.128C43.9897 26.2791 44.3048 26.6038 44.0853 26.4849C43.4549 26.0922 42.8339 25.6806 42.2129 25.269C42.4943 25.1292 42.5432 25.2765 43.0478 25.3294C42.879 25.0537 42.3949 24.6383 41.9184 24.3664C42.6989 25.0122 41.7045 24.7271 41.2561 24.6383C41.3593 24.6043 41.2748 24.4552 41.3461 24.4023C40.1079 24.2248 41.44 23.851 39.9222 23.3148L39.9241 23.4753C39.4513 23.1109 39.0742 22.6766 38.5076 22.3821C38.1248 22.5048 38.9747 22.8277 38.8828 23.0618C38.5001 22.8258 38.1962 22.4708 37.8847 22.1536C37.5714 21.8364 37.2488 21.5607 36.8247 21.4739C37.1043 21.7476 37.5696 22.0384 37.8491 22.3122C36.9129 22.146 36.8716 22.0158 36.2825 21.7156L36.3425 21.7439L35.654 21.4097L34.9711 21.0623L35.3482 21.1925C35.0856 20.5525 34.6259 20.2107 34.1062 19.8709C33.8473 19.7009 33.5696 19.5329 33.3013 19.3233C33.0331 19.1119 32.7685 18.8664 32.5284 18.5455C33.4777 19.7765 32.5734 18.9174 32.4777 19.2648C32.1044 19.127 31.5565 18.8853 31.641 19.059C31.2019 18.4265 30.5191 18.5738 29.9225 17.6524C29.8231 17.7166 29.2884 17.2181 29.2621 17.5391C28.5473 16.9292 29.5528 17.5089 29.566 17.3503C28.6035 16.2231 26.5492 15.7567 25.1909 14.0952C24.5399 13.4665 24.2153 13.0133 23.9114 12.5734C23.6075 12.1316 23.3204 11.703 22.7951 11.0629C22.5362 10.9307 22.5436 11.0818 22.6243 11.2687C22.7031 11.4537 22.8514 11.6728 22.8514 11.6728C22.0784 11.163 21.6112 10.6249 21.1647 9.86962C21.2022 10.066 21.0221 9.98102 20.7595 9.8413C20.5568 9.54675 20.5663 9.39193 20.5494 9.22577C20.5288 9.05962 20.4724 8.89535 20.161 8.54039C20.1422 8.73675 20.0785 9.02565 20.1798 9.3825C19.7801 8.61593 19.5419 7.7625 19.3355 6.91663C19.2098 6.84111 19.178 6.99216 19.1967 7.20363C19.2174 7.4151 19.268 7.69264 19.2849 7.86068C19.1066 7.38299 18.9003 6.75425 18.8233 6.18783C18.7783 5.9065 18.767 5.64216 18.7727 5.42881C18.7877 5.21357 18.8233 5.0512 18.8853 4.96435C18.9603 5.16448 19.0184 5.36462 19.1066 5.55532C19.0447 5.2098 18.8102 5.42694 18.8177 5.7026C18.8065 5.92539 18.8308 6.11042 18.8777 6.26146C18.9246 6.41252 18.9791 6.53147 19.0485 6.61643C19.1836 6.79014 19.3262 6.84867 19.3843 6.85055C19.3374 6.64853 19.2867 6.45028 19.2567 6.24637C19.6507 6.45406 19.8158 7.00916 20.0222 7.66244C20.2248 8.31384 20.4931 9.05584 20.8758 9.53543C20.8964 9.30697 20.9265 9.0785 20.964 8.85193C21.0822 9.26166 21.2323 9.66383 21.3955 10.0698C21.6638 10.1925 21.9658 10.1528 21.6506 9.66194C22.0052 9.91305 22.099 10.0754 22.1853 10.2303C22.2754 10.3794 22.3523 10.5267 22.6994 10.6909C22.7839 10.7193 22.7744 10.6777 22.7369 10.6117C22.8926 10.8401 23.0597 11.0629 23.2266 11.2857C23.176 11.1026 23.5493 11.1365 23.1422 10.8401C23.7594 11.2479 24.144 11.6954 24.463 12.0636C24.7819 12.428 25.0296 12.7093 25.3579 12.7414L25.2791 12.6414C26.0389 13.3343 26.0352 13.4287 25.9508 13.5156C25.8701 13.6005 25.7143 13.6722 26.219 14.2991L27.5641 14.2292L27.5248 14.6276C27.7049 14.7428 28.0594 14.9713 28.0763 14.8146C28.5791 15.4754 27.8794 14.8561 28.1214 15.3092C28.6242 15.4886 29.1814 15.9266 29.6748 16.2816C30.1682 16.6384 30.5978 16.9122 30.8474 16.7536C30.9993 17.1822 29.93 16.3552 30.7236 17.1369C31.3089 16.8329 31.7104 17.9375 32.6391 18.2396C32.5697 17.8242 31.746 17.4617 32.6728 17.76C32.7629 18.132 33.1569 18.3642 33.6015 18.5681C34.0462 18.7739 34.5508 18.9344 34.8529 19.1912C34.6653 19.5518 36.1906 20.2825 37.2506 21.0887C37.2506 21.0075 37.8097 21.2889 38.5076 21.657C39.2055 22.0252 40.0573 22.4519 40.622 22.7068L40.6257 22.6294C40.622 22.8692 40.9034 23.1354 41.2805 23.4111C41.6595 23.6811 42.136 23.953 42.5169 24.2211C42.6069 23.9869 42.5113 23.8189 42.1323 23.4734L42.8846 23.9057C42.9972 24.1229 43.1979 24.3192 43.6651 24.6402L43.6257 24.2607C44.121 24.559 44.5881 24.914 45.1041 25.269C45.6219 25.622 46.1847 25.9789 46.8901 26.2357C46.8301 26.5321 45.4624 26.3943 46.7719 27.3024C46.8958 27.191 47.072 26.9796 46.7362 26.7322C46.8469 26.8134 47.104 27.0702 47.376 27.1382L46.9408 26.6133C47.5955 26.8248 47.1527 26.972 47.6462 27.2024C47.74 26.9985 48.0758 27.2477 48.0871 27.0532C47.9745 26.9701 47.6255 26.9154 47.4829 26.7417C48.0439 26.989 48.7568 27.2137 49.0495 27.1759C48.9444 27.2647 48.9126 27.4459 49.2972 27.6763C50.3253 28.2068 49.7718 27.614 50.4247 27.8103C50.6067 28.0747 51.3365 28.2597 51.207 28.5675C51.511 28.7166 51.6349 28.6052 51.7906 28.5826C52.2615 28.9791 54.2914 29.8231 53.5316 29.857L53.3833 29.8117C53.4059 29.8306 53.4359 29.8457 53.4659 29.8665C53.4621 29.8646 53.4659 29.8665 53.4621 29.8646L53.4659 29.8665C54.2782 30.4461 55.2313 30.82 56.1863 31.1768C57.1393 31.5393 58.1111 31.8471 58.9779 32.3002L59.0192 32.1964C60.0323 32.7855 61.3775 33.2575 62.0567 33.7994C62.3756 33.9316 62.884 33.9146 62.7958 33.7352C63.5932 34.1336 63.642 34.2865 64.9027 34.5773C64.1391 34.0732 65.2498 34.5263 64.0998 34.1128C65.2104 34.4395 65.5106 34.3696 66.5688 35.0776C66.2724 34.6641 67.5049 35.0361 67.9908 35.3042L67.1635 35.2211C67.7282 35.4704 68.2404 35.6365 68.7675 35.7932L68.6118 35.3382C69.7975 35.5138 70.7563 36.0538 71.6512 36.5598C72.5498 37.0677 73.3696 37.5303 74.3771 37.5813C74.6173 37.8399 74.2946 37.738 73.9644 37.6417C73.6324 37.551 73.2927 37.4642 73.4935 37.721C74.0132 37.9173 74.5891 38.0325 75.0844 38.125C75.576 38.2213 75.9869 38.2893 76.1426 38.3837C76.3264 38.4611 76.4821 38.5385 76.6134 38.6178C76.7429 38.7009 76.8498 38.7821 76.9418 38.8633C77.1256 39.0238 77.242 39.1899 77.3583 39.358C77.4746 39.526 77.589 39.694 77.7579 39.8828C77.8423 39.9772 77.9417 40.0717 78.0637 40.1717C78.1838 40.2775 78.3245 40.3908 78.4971 40.5116C78.3714 40.4946 78.2157 40.5248 78.197 40.6683C78.1876 40.74 78.212 40.8401 78.2908 40.9742C78.3658 41.1139 78.4896 41.2933 78.6866 41.5179C78.8911 41.7049 79.0749 41.8408 79.2363 41.9239C79.3939 42.0107 79.5214 42.0523 79.6152 42.0485C79.8029 42.041 79.8479 41.8502 79.6378 41.5368C79.4502 41.3272 79.3263 41.2593 79.3019 41.3008C79.1913 41.146 79.0506 40.978 78.9924 40.8722C78.9361 40.7665 78.9624 40.723 79.1838 40.8288L79.2025 41.0308C79.3282 41.1101 79.4933 41.2442 79.6678 41.3952C79.8442 41.5425 80.013 41.7256 80.1725 41.8748C80.4858 42.1788 80.7091 42.4091 80.6809 42.1844C80.9135 42.5828 80.9136 42.7018 80.8198 42.6451C80.7279 42.5885 80.5102 42.3827 80.2813 42.141C80.4164 42.2751 80.5402 42.4072 80.6565 42.5356C80.7729 42.664 80.8685 42.7999 80.9661 42.9265C81.1631 43.1814 81.3132 43.4457 81.467 43.7062C81.7597 44.2406 82.0317 44.7919 82.3582 45.5339C82.2006 45.3149 81.9755 45.1563 82.0636 45.3923C82.3113 45.9191 82.3957 46.2741 82.4444 46.4987C82.4857 46.7272 82.4614 46.8424 82.4351 46.9311C82.3732 47.1086 82.2944 47.1936 82.3451 47.9658C82.4726 48.3982 82.5833 48.3208 82.6602 48.3208C82.6977 48.3227 82.724 48.3472 82.7334 48.4737C82.7371 48.536 82.739 48.6248 82.7334 48.7494C82.7184 48.874 82.6959 49.0326 82.6621 49.2346C82.6865 49.4857 82.6978 49.6273 82.7315 49.6934C82.7634 49.7595 82.8085 49.7482 82.861 49.6915C82.9717 49.5801 83.0711 49.2799 83.1367 49.0741C82.9735 49.8501 82.8684 50.5563 82.754 51.1963C82.6377 51.8345 82.5157 52.4142 82.315 52.8239C82.482 52.5954 82.6283 52.3537 82.7765 52.1064C82.5139 52.5482 82.3319 52.9183 82.1105 53.2751C82.118 53.0939 82.1217 52.9126 82.1124 52.7295C81.9266 53.177 81.6996 53.5168 81.7953 53.5697C81.5814 53.7264 81.5458 53.581 81.4652 53.4866C81.3826 53.3884 81.27 53.3507 80.8986 53.6452C80.771 53.9246 80.4521 54.2569 80.1631 54.5326C80.0224 54.6761 79.8854 54.8045 79.7935 54.9272C79.7016 55.0518 79.6491 55.1632 79.6678 55.2614C79.9961 54.9253 80.1593 54.7743 80.2438 54.7252C80.3301 54.678 80.3413 54.7384 80.3488 54.8102C80.3563 54.8819 80.362 54.965 80.4389 54.9593C80.5139 54.948 80.6734 54.8649 80.9586 54.5553C80.8385 54.6667 80.709 54.7894 80.5721 54.9291C80.4389 55.0745 80.2907 55.2274 80.1369 55.4049C80.1125 55.4823 80.2344 55.4144 80.3413 55.3407C79.756 56.1016 79.5009 56.1356 79.2495 56.162C78.9868 56.1771 78.7147 56.1828 77.9455 56.6718C78.2513 56.7209 77.7767 57.225 77.4897 57.3327C78.1369 56.955 77.6266 56.8757 76.9756 57.0551C76.5047 57.395 76.2063 57.4969 75.9681 57.5573C75.7298 57.6178 75.546 57.6253 75.2777 57.7499C75.4747 57.6385 75.6735 57.529 75.8668 57.412C75.5778 57.327 75.0769 57.5762 74.3302 57.7896C74.3265 57.8745 74.5009 57.8387 74.6473 57.799C74.7917 57.7575 74.91 57.7159 74.7937 57.8009C74.3284 57.7952 73.9081 58.0483 73.4372 58.3126C72.9682 58.5807 72.4504 58.862 71.8388 58.9017C71.336 59.1773 71.8838 59.2812 71.4297 59.4945C70.0583 59.5644 70.0471 60.1006 68.6456 60.161C68.9852 59.8193 69.0659 59.8703 68.0584 59.8004L69.1934 59.6739C69.5705 59.6343 69.9532 59.5871 70.3397 59.5323C69.8238 59.5153 69.321 59.4794 68.8182 59.4436C69.4861 59.3114 70.2797 59.3208 70.6775 59.1792C69.9401 59.1207 70.0283 59.1698 70.3022 58.8771C69.8839 59.183 69.4092 59.2151 68.9233 59.234C68.4355 59.2529 67.927 59.2604 67.4205 59.5002L67.5781 60.1516C66.8051 60.4631 66.0697 60.4971 65.2779 60.5349C64.8821 60.5538 64.4694 60.5689 64.0285 60.6142C63.5876 60.6595 63.1129 60.718 62.597 60.8426L63.2518 60.6236C62.9291 60.4046 61.9535 60.7879 61.2593 60.7879C61.355 60.9975 60.9423 61.1504 60.6721 61.3241C60.6852 61.1542 59.1336 61.5469 58.8841 61.1296L57.9836 61.5488C57.1393 61.7112 56.6347 61.6054 56.1413 61.4959C55.646 61.3826 55.1619 61.2807 54.3495 61.3921C54.8655 61.5847 54.1395 61.8226 55.2539 61.8773C54.7079 61.9453 54.2182 62.0227 54.1957 61.8717C53.888 62.0416 52.6517 61.7149 52.1676 61.9736C51.9294 61.8981 51.8337 61.6715 51.2221 61.7338C51.1583 61.7848 51.2333 61.8433 51.2333 61.8433C51.2221 61.7338 50.2615 61.764 50.7793 61.4789C49.9651 61.8886 48.7869 61.9717 47.6331 61.9982C47.0571 62.017 46.4886 62.0321 45.9727 62.085C45.4567 62.1303 44.9952 62.2096 44.6313 62.372C44.0328 62.3588 43.3705 62.3437 42.7233 62.3286C42.076 62.3078 41.4438 62.2946 40.9016 62.2927C40.9728 62.3588 40.9052 62.4041 41.1116 62.3777C39.6126 62.6061 40.1867 61.7546 38.487 61.9755C37.6146 62.3305 39.3912 62.1775 38.8472 62.3097C38.6051 63.0404 36.7891 62.2077 35.6334 62.5929L35.9111 62.6439C35.0236 62.8705 33.7741 62.3154 32.3407 62.2908C32.3407 62.2908 32.4064 62.3588 32.3445 62.4022C31.8623 62.187 31.1607 62.0435 30.4102 61.8962C29.6598 61.7546 28.8587 61.6432 28.1758 61.545C28.5811 61.8603 28.7893 61.7395 28.506 62.0133C27.8925 61.9264 28.7199 61.5658 27.5004 61.3826C27.0895 61.5054 26.1927 61.5639 26.0464 61.866L27.2059 61.9849C26.5774 62.3361 25.703 61.8396 25.0858 61.8565L25.1477 62.0397C23.3748 61.798 23.3955 61.3543 21.4912 61.1712L21.7032 61.0617C20.7182 60.5047 20.8101 61.1995 19.8214 60.7784L19.4781 61.1995C19.1498 61.1202 18.5776 60.9729 17.9322 60.8747C17.2887 60.7766 16.5682 60.7331 15.9735 60.8068C16.3356 60.9068 16.8515 60.9616 17.3844 61.0428C17.9153 61.1221 18.465 61.224 18.8853 61.3449C18.5607 61.3298 18.0184 61.3052 17.5194 61.292C17.0203 61.2731 16.5644 61.2712 16.3862 61.1882C16.6451 61.1919 16.9698 61.2693 17.2155 61.1806C16.4257 60.8917 15.3038 60.8464 14.1312 61.4223C14.4182 61.7735 13.6959 62.136 13.0487 62.7553C12.7222 63.0593 12.422 63.4274 12.2551 63.79C12.1669 63.9693 12.1219 64.1487 12.0993 64.3054C12.0937 64.4678 12.0975 64.6037 12.1575 64.7132C12.06 64.9039 11.9792 65.123 11.9417 65.3457C11.9042 65.5667 11.8892 65.7951 11.9136 66.0236C11.9548 66.4805 12.1199 66.9393 12.3676 67.383C12.8704 68.2761 13.6922 69.0917 14.6321 69.9678C14.0693 69.9093 14.2006 70.0377 14.4126 70.2378C14.6227 70.4361 14.9173 70.691 14.6359 70.9062C15.0974 71.3424 15.3038 71.4745 15.375 71.4745C15.9716 71.7521 16.5682 71.9919 17.2005 72.2373C17.7014 72.3261 16.769 71.771 16.9041 71.6747C18.1179 72.4091 17.5626 71.7577 18.4463 72.1184C18.1498 72.2203 18.6657 72.6867 19.3918 73.0511L18.268 72.6942C18.9978 73.3928 19.4349 73.508 19.8721 73.6194C20.3148 73.7251 20.7576 73.829 21.5081 74.5125L21.0878 73.9932C21.4893 74.318 22.2885 74.8202 23.0615 75.3602C23.8438 75.8851 24.598 76.4553 24.8926 76.9538C25.0896 76.9783 25.3898 76.9368 25.0258 76.663C27.1683 77.8374 29.4834 79.8785 31.3352 80.4619L31.2489 80.224C31.6297 80.4808 31.8023 80.8848 32.3914 80.9943C32.397 80.9188 32.3032 80.7602 32.4965 80.8471C32.686 81.0075 33.4477 81.6589 34.033 81.844L33.656 81.4399C35.8773 82.3311 36.746 83.4696 38.5133 84.4477C38.7159 83.9926 40.4982 84.6157 41.3837 84.9253L41.3819 84.8479C42.0197 85.1236 42.605 85.3879 43.1547 85.6598C43.7044 85.9336 44.2185 86.2149 44.7251 86.5038C45.2297 86.7964 45.7344 87.074 46.2541 87.3553C46.7756 87.6385 47.3141 87.9218 47.8957 88.205C48.1058 88.2163 48.3441 88.2522 48.603 88.3069C48.8657 88.3579 49.149 88.4259 49.451 88.5108C50.0532 88.6789 50.723 88.9036 51.4209 89.1471C52.1151 89.3983 52.8468 89.6286 53.5559 89.8533C54.267 90.0742 54.9575 90.2762 55.5897 90.4084C55.1882 90.3744 55.5297 90.7973 55.9499 90.9843C56.5559 91.0711 57.4377 91.8207 57.4827 91.3562L57.2745 91.2996C57.8411 91.0088 58.9817 91.5073 59.916 91.7565L59.901 92.3758C60.5708 92.3456 61.2968 92.4664 62.0341 92.659C62.7733 92.8459 63.5294 93.0838 64.248 93.3274C65.6832 93.8221 66.9984 94.2337 67.7582 94.0203C68.3192 94.3092 69.0453 94.4923 69.6137 94.7756L69.6531 94.4546C70.5049 94.6113 71.1858 94.7529 71.9231 94.9927C72.2927 95.1154 72.6792 95.2646 73.1107 95.4779C73.5404 95.6932 74.0188 95.9726 74.5348 96.3937C74.4372 96.2256 74.3359 96.0519 74.2233 95.8895C74.3847 95.9896 74.516 96.1067 74.6304 96.2219C74.7449 96.337 74.8462 96.4767 74.9269 96.6013C75.0826 96.8619 75.1708 97.1187 75.2308 97.3717C75.3528 97.8853 75.3996 98.3478 75.666 98.9332C75.8687 98.9822 76.0638 99.0483 76.2627 99.1276C76.4991 99.7601 76.651 100.466 76.6134 101.225C76.6116 101.414 76.576 101.605 76.5479 101.796C76.5103 101.984 76.4615 102.177 76.3996 102.362C76.2683 102.736 76.0919 103.089 75.878 103.391C75.4503 104.001 74.9381 104.433 74.4597 104.758C74.2176 104.92 73.9831 105.062 73.7486 105.179C73.5141 105.3 73.274 105.409 73.0264 105.509C73.0939 105.549 73.2215 105.63 73.516 105.457C73.1033 105.734 72.3529 106.346 71.6812 106.767C71.0077 107.186 70.4335 107.443 70.4167 107.067C70.5161 107.252 70.0677 107.562 69.443 107.849C68.8201 108.138 68.0415 108.43 67.5049 108.634L67.8126 108.819C66.7789 108.938 66.6982 108.851 65.4787 109.399C65.2217 109.588 65.3548 109.756 65.685 109.482C64.8352 110.13 64.8202 109.599 63.7677 110.339L64.2817 110.3C63.3286 110.819 63.3587 110.69 62.719 110.736C62.0511 110.915 60.9104 111.706 60.8785 112.025C60.6721 111.927 60.0379 111.959 59.4901 112.297C59.4544 112.431 59.6927 112.397 59.8128 112.378C59.4207 112.612 59.0643 112.784 58.7285 112.905C58.3908 113.026 58.0811 113.109 57.7885 113.19C57.2012 113.345 56.6928 113.502 56.1675 113.866C56.1825 113.972 56.1244 114.051 56.04 114.117C56.7135 113.859 57.3063 113.592 57.7247 113.409C58.1431 113.224 58.3813 113.113 58.3269 113.124C58.4414 113.392 57.3814 113.893 58.3945 113.902C57.9179 113.981 57.2669 114.074 56.6066 114.2C55.9443 114.319 55.2763 114.489 54.7717 114.759C54.7304 114.806 54.6891 114.852 54.6666 114.908L54.7886 114.897C54.5541 115.022 54.3233 115.075 54.0982 115.103C53.7736 115.271 53.5672 115.382 53.2408 115.505C53.2183 115.641 52.9125 115.784 52.5448 115.922C52.1789 116.06 51.7436 116.17 51.4697 116.268C51.4153 115.951 50.7099 116.238 51.3028 115.764C51.2221 115.815 51.419 115.766 51.7886 115.658C51.8749 115.639 51.9725 115.611 52.0344 115.611C52.0213 115.605 52.0044 115.601 51.9875 115.598C52.3515 115.486 52.8205 115.318 53.3533 115.135C52.8655 115.135 52.3778 115.178 51.8262 115.547C51.4791 115.446 51.1039 115.348 50.8975 115.312C50.5917 115.645 50.0964 115.998 49.6536 116.289C49.2109 116.579 48.83 116.829 48.7662 116.989C47.0214 117.348 44.6988 118.005 43.4812 117.68C42.9765 117.724 42.9615 117.988 42.7983 118.12C43.0947 118.112 43.4268 118.018 43.5994 118.065C43.3461 118.086 43.0384 118.145 42.712 118.196C42.3855 118.247 42.0403 118.307 41.7195 118.352C41.0741 118.443 40.5188 118.486 40.3612 118.301C39.1567 118.726 41.136 118.545 39.4138 118.805L39.6689 118.887C38.8584 119.213 38.0967 119.381 37.3519 119.442C36.6089 119.504 35.8923 119.51 35.1606 119.481C33.701 119.447 32.2188 119.415 30.3727 120.019C30.6298 119.944 30.7573 119.908 30.8042 119.834C29.7367 120.018 28.6467 120.157 27.5435 120.204C26.992 120.231 26.4385 120.267 25.8831 120.271L24.219 120.282C21.9996 120.271 19.797 120.235 17.6507 120.424C16.4313 120.495 16.3131 120.212 15.5908 119.957L15.3056 120.28C14.8929 120.118 14.482 119.963 14.0749 119.795C13.1968 119.563 12.4089 119.706 11.5571 119.787C11.1331 119.823 10.6922 119.851 10.2213 119.817C9.9849 119.8 9.7429 119.768 9.48962 119.715C9.23823 119.661 8.97741 119.574 8.70538 119.466L9.02811 119.281C8.62286 119.242 7.99065 119.111 7.47096 119.026C6.95128 118.947 6.54787 118.883 6.5929 119.03C6.51786 118.973 6.36965 118.747 6.03758 118.809L5.98124 118.981C5.34148 118.76 4.70179 118.551 4.07141 118.307C2.52736 118.114 4.16895 119.062 1.93448 118.615C1.12212 118.35 -0.28685 117.552 0.05085 117.508C0.382919 117.578 0.92141 117.601 0.987076 117.431L0.262833 117.163C0.251572 116.617 -0.174316 115.962 1.70931 116.032C2.10329 116.234 2.49734 116.445 2.89508 116.638L3.3566 116.472C3.00388 116.394 2.64932 116.315 2.30036 116.222C2.9495 116.136 3.28713 116.408 3.68675 116.645C3.8162 116.534 4.01134 116.477 4.27213 116.479C4.6511 116.728 5.03192 116.985 5.4184 117.219C5.60602 117.044 4.93441 116.717 5.7918 116.755C6.334 117.089 5.14639 117.11 6.09007 117.435C6.74109 117.308 6.59481 117.083 7.27584 117.414C7.39779 117.299 7.26078 117.185 6.98874 117.076C7.5966 117.353 8.66223 117.406 8.95116 117.737C9.62656 117.555 11.1049 118.095 11.1012 117.597C11.2869 117.742 12.1819 118.129 12.7728 118.199C11.7541 117.497 14.9848 118.386 14.754 117.703C15.1311 117.999 15.8478 118.109 16.6432 118.194C17.4406 118.262 18.3167 118.298 19.0203 118.477C18.9415 118.432 18.7895 118.337 18.6638 118.36C19.4631 118.348 19.6995 118.177 20.2116 118.088C20.3054 118.532 21.5493 118.664 22.2247 118.921C23.204 118.484 21.6263 118.405 21.9339 117.99C21.8833 118.35 23.6337 118.333 23.3072 118.635C24.0521 118.365 23.9508 118.492 24.326 118.114C24.4742 118.664 25.0239 118.184 25.6581 118.503C26.1946 118.35 26.2565 118.211 26.3353 118.131C26.4141 118.052 26.5098 118.026 27.1064 118.075C27.6842 117.875 26.6223 117.742 26.6223 117.742ZM54.3833 112.816C54.3815 112.813 54.3814 112.811 54.3814 112.811C54.1506 112.892 53.9537 112.962 53.828 113.007C53.9443 112.967 54.1038 112.913 54.3833 112.816ZM56.6084 111.938C56.3439 112.063 56.0118 112.208 55.6535 112.342C55.6159 112.475 55.7417 112.548 55.9649 112.454C55.8899 112.443 55.9799 112.373 56.1225 112.276C56.2632 112.176 56.4602 112.05 56.6084 111.938ZM52.5991 115.824C52.9781 115.735 53.0794 115.633 53.1094 115.552C52.935 115.609 52.7305 115.671 52.4603 115.745C52.4453 115.737 52.4191 115.732 52.4041 115.724C52.4585 115.769 52.5165 115.809 52.5991 115.824Z" fill="#7EAF15"/>
<path d="M51.807 115.654C51.7526 115.665 51.7188 115.662 51.6494 115.682C51.7151 115.631 51.7788 115.584 51.8444 115.543C51.8989 115.56 51.9552 115.577 52.0059 115.594C51.9402 115.614 51.8708 115.635 51.807 115.654Z" fill="#7EAF15"/>
<path d="M53.5418 29.8572L53.5908 29.8723C53.5474 29.8648 53.5059 29.861 53.4738 29.8666C53.5135 29.8685 53.5172 29.861 53.5418 29.8572Z" fill="#7EAF15"/>
<path d="M66.6581 96.7033L66.6806 96.6259L66.8701 96.7449L66.6581 96.7033Z" fill="#7EAF15"/>
<path d="M41.2656 24.6404C41.23 24.6517 41.1718 24.6517 41.0723 24.6234C41.0892 24.6083 41.1699 24.6215 41.2656 24.6404Z" fill="#7EAF15"/>
<path d="M36.292 21.7136L35.5397 21.3757C35.8718 21.5116 36.1081 21.6192 36.292 21.7136Z" fill="#7EAF15"/>
<path d="M32.4828 19.4272C32.4677 19.3498 32.4771 19.3045 32.4866 19.2649C32.4904 19.2668 32.4923 19.2668 32.4941 19.2687L32.4828 19.4272Z" fill="#7EAF15"/>
<path d="M74.7441 55.6731C74.6916 55.6938 74.6391 55.7108 74.5903 55.7222C74.2226 55.8147 74.4665 55.7354 74.7441 55.6731Z" fill="#7EAF15"/>
<path d="M76.7949 40.8362C76.9319 41.0137 77.0688 41.1836 77.2227 41.3479C76.9262 41.1496 76.6993 40.9911 76.7949 40.8362Z" fill="#7EAF15"/>
<path d="M52.2423 59.4569C52.2442 59.4588 52.2423 59.4588 52.2461 59.4626C52.197 59.4664 52.1536 59.4721 52.1026 59.4758L52.2423 59.4569Z" fill="#7EAF15"/>
<path d="M77.9248 41.9465C77.6284 41.7464 77.4051 41.5595 77.2231 41.3461C77.4576 41.516 77.7484 41.7049 77.9248 41.9465Z" fill="#7EAF15"/>
<path d="M18.4795 5.91797L18.4115 5.68949C18.4323 5.68949 18.4474 5.67062 18.455 5.65174L18.4795 5.91797Z" fill="#7EAF15"/>
<path d="M18.4575 5.64966C18.4481 5.56281 18.4444 5.47406 18.4425 5.38532C18.4614 5.50427 18.4821 5.60623 18.4575 5.64966Z" fill="#7EAF15"/>
<path d="M18.4348 4.82852C18.4254 5.01544 18.4405 5.19858 18.4424 5.3855C18.4103 5.19669 18.3536 4.96635 18.4348 4.82852Z" fill="#7EAF15"/>
<path d="M21.7578 11.2726L21.7238 11.4028C21.7144 11.3594 21.7238 11.316 21.7578 11.2726Z" fill="#7EAF15"/>
<path d="M23.0781 12.5752C22.7329 12.309 22.0875 12.0163 21.701 11.5084L21.7254 11.4027C21.7667 11.567 22.0575 11.769 22.3633 11.9653C22.6672 12.1655 22.9843 12.3656 23.0781 12.5752Z" fill="#7EAF15"/>
<path d="M29.8828 15.9417C29.4626 15.6792 29.0348 15.4262 28.6202 15.1562C28.9016 15.2091 29.2711 15.277 28.7439 14.8541C30.4737 15.6452 28.2656 14.8598 29.8828 15.9417Z" fill="#7EAF15"/>
<path d="M33.7738 18.402C33.1453 17.9074 33.8789 18.2585 33.8826 18.1774C34.241 18.5531 34.3291 18.6418 33.7738 18.402Z" fill="#7EAF15"/>
<path d="M63.1596 33.7522L63.1897 33.4539C63.745 33.7126 63.154 33.5596 63.1596 33.7522Z" fill="#7EAF15"/>
<path d="M68.6152 37.3792L67.9905 37.3489L67.8066 37.0034L68.6152 37.3792Z" fill="#7EAF15"/>
<path d="M72.8813 36.7618L72.6392 36.6202C72.9544 36.7806 73.2696 36.9543 73.5811 37.1243L72.8813 36.7618Z" fill="#7EAF15"/>
<path d="M45.9633 62.6778L46.134 62.3115C46.5561 62.3512 46.6631 62.7477 45.9633 62.6778Z" fill="#7EAF15"/>
<path d="M21.6992 61.4015C21.4159 61.5469 20.7349 61.5828 20.3465 61.3657C20.8775 61.3959 21.4309 61.3241 21.6992 61.4015Z" fill="#7EAF15"/>
<path d="M61.1957 92.2813L60.7679 92.0321L61.6104 92.3833L61.1957 92.2813Z" fill="#7EAF15"/>
<path d="M18.2327 104.477C18.2928 104.554 18.3997 104.747 18.3509 104.726L18.1407 104.416L18.2327 104.477Z" fill="#7EAF15"/>
<path d="M18.4143 105.179C18.2904 105.043 18.0897 104.792 17.9321 104.484C18.1479 104.773 18.0784 104.641 18.3317 104.986C18.3805 105.007 18.3149 104.856 18.2398 104.739C18.298 104.816 18.238 104.643 18.373 104.837C18.4875 105.107 18.4518 105.143 18.283 104.966C18.3168 105.043 18.3767 105.12 18.4143 105.179Z" fill="#7EAF15"/>
<path d="M16.2093 107.265L16.2017 107.218C16.2093 107.241 16.2112 107.256 16.2093 107.265Z" fill="#7EAF15"/>
<path d="M14.799 108.46C14.816 108.46 14.8424 108.487 14.8613 108.515C14.8368 108.502 14.8141 108.489 14.799 108.46Z" fill="#7EAF15"/>
<path d="M14.775 108.978C14.7731 108.965 14.775 108.957 14.775 108.946C14.7882 108.978 14.7939 108.999 14.775 108.978Z" fill="#7EAF15"/>
<path d="M16.2097 107.265L16.2324 107.392C16.1626 107.292 16.2041 107.301 16.2097 107.265Z" fill="#7EAF15"/>
<path d="M17.5934 104.624C17.6123 104.633 17.6368 104.66 17.6689 104.694C17.6538 104.684 17.6387 104.677 17.6255 104.673C17.6142 104.656 17.6048 104.641 17.5934 104.624Z" fill="#7EAF15"/>
<path d="M17.0495 107.078L17.0628 107.071C17.0911 107.107 17.1213 107.148 17.1553 107.192L17.0495 107.078Z" fill="#7EAF15"/>
<path d="M17.6035 106.795C17.5998 106.814 17.4272 106.548 17.3484 106.433C17.4253 106.538 17.4666 106.587 17.4891 106.601C17.521 106.652 17.5585 106.714 17.6035 106.795Z" fill="#7EAF15"/>
<path d="M18.1438 105.796L18.1816 105.825C18.1722 105.815 18.1589 105.81 18.1438 105.796Z" fill="#7EAF15"/>
<path d="M16.7159 107.379C16.7404 107.418 16.7611 107.456 16.7725 107.477C16.7498 107.443 16.731 107.411 16.7159 107.379Z" fill="#7EAF15"/>
<path d="M1.57169 116.504C1.58679 116.521 1.59811 116.53 1.61133 116.543C1.58678 116.525 1.5698 116.508 1.57169 116.504Z" fill="#7EAF15"/>
<path d="M2.14953 118.141L2.16843 118.146C2.21186 118.188 2.25338 118.229 2.29492 118.271L2.14953 118.141Z" fill="#7EAF15"/>
<path d="M14.5396 109.64C14.5396 109.637 14.5396 109.637 14.5377 109.635C14.5698 109.656 14.5604 109.654 14.5396 109.64Z" fill="#7EAF15"/>
<path d="M10.2227 112.58C10.0932 112.32 9.9206 112.354 9.79677 112.05C9.86807 112.154 10.1664 112.39 10.2227 112.58Z" fill="#7EAF15"/>
<path d="M17.6016 104.667C17.5921 104.669 17.5826 104.671 17.5769 104.678C17.5826 104.663 17.5902 104.66 17.6016 104.667Z" fill="#7EAF15"/>
<path d="M9.79688 112.05L9.79494 112.048L9.7836 112.02C9.78926 112.033 9.7931 112.04 9.79688 112.05Z" fill="#7EAF15"/>
<path d="M13.3643 110.245C13.334 110.198 13.3133 110.16 13.2944 110.124C13.3133 110.15 13.334 110.184 13.3643 110.245Z" fill="#7EAF15"/>
<path d="M13.8986 109.305L13.9023 109.354C13.8929 109.325 13.8948 109.312 13.8986 109.305Z" fill="#7EAF15"/>
<path d="M12.6903 110.181C12.6941 110.209 12.7168 110.247 12.6771 110.222C12.6696 110.209 12.6639 110.198 12.6582 110.188C12.6884 110.218 12.7073 110.23 12.6903 110.181Z" fill="#7EAF15"/>
<path d="M12.2627 110.496C12.2533 110.477 12.242 110.458 12.2325 110.439C12.2401 110.441 12.2495 110.441 12.2571 110.443L12.2627 110.496Z" fill="#7EAF15"/>
<path d="M2.86858 115.463C2.92111 115.537 2.98301 115.614 3.04492 115.69C2.89858 115.518 2.78415 115.514 2.86858 115.463Z" fill="#7EAF15"/>
<path d="M17.6865 104.777C17.6412 104.711 17.6167 104.679 17.6016 104.667C17.6092 104.667 17.6167 104.669 17.6261 104.673C17.6526 104.713 17.6752 104.75 17.6865 104.777Z" fill="#7EAF15"/>
<path d="M11.2002 108.164L11.1568 108.253C11.1587 108.213 11.1738 108.183 11.2002 108.164Z" fill="#7EAF15"/>
<path d="M5.79395 112.875L5.7543 112.86C5.7543 112.848 5.76562 112.85 5.79395 112.875Z" fill="#7EAF15"/>
<path d="M10.9221 108.37C10.9768 108.47 11.0014 108.532 11.0127 108.576C10.9957 108.557 10.9787 108.544 10.956 108.515L10.9221 108.37Z" fill="#7EAF15"/>
<path d="M3.04883 115.692L3.04708 115.69L3.04883 115.692Z" fill="#7EAF15"/>
<path d="M2.11859 115.537C2.173 115.473 2.42812 115.807 2.60447 115.968C2.75644 115.986 2.42632 115.713 2.30437 115.535C2.42444 115.573 2.72271 115.818 2.74335 115.775C2.69832 115.722 2.68709 115.698 2.62142 115.643C2.89534 115.839 2.77149 115.522 3.11106 115.773C3.09043 115.743 3.06794 115.715 3.04731 115.69C3.18051 115.851 3.32498 116.007 3.43004 116.117C3.46194 116.096 3.65889 116.262 3.48253 116.054C3.47128 116.075 3.39626 115.996 3.32872 115.941L3.43755 116.002C3.19553 115.692 3.30622 115.939 3.10923 115.728C3.24994 115.769 3.53508 115.947 3.50131 115.826C3.24804 115.537 3.31554 115.824 3.13919 115.522L3.17482 115.69C2.81086 115.201 3.16358 115.758 2.76772 115.243C2.7771 115.08 2.99661 115.294 3.00599 115.131C3.17109 115.269 3.21428 115.367 3.37938 115.507C3.76211 115.675 2.82022 114.71 3.25736 115.001C3.45435 115.167 3.7921 115.516 3.68141 115.267L3.36619 114.969C3.4206 114.859 3.83521 115.384 3.72639 115.088C3.59506 114.976 3.56322 115.042 3.5407 114.993C3.36622 114.689 3.74709 115.137 3.79024 115.097L3.5407 114.806C3.67016 114.769 3.95528 114.882 4.10162 114.844C4.01907 114.765 3.92155 114.691 3.86527 114.584C4.11854 114.61 4.09975 114.302 4.06974 114.025L4.33805 114.231C4.34556 114.217 4.25734 114.1 4.20293 114.064C4.16729 113.928 4.34554 114.219 4.45623 114.295C4.49938 114.287 4.36436 114.121 4.28181 114.062C4.55384 114.197 4.92154 114.3 4.7752 113.957L4.69267 113.898C4.67203 113.736 5.21987 114.338 5.07916 114.049L5.0285 114.015C5.08291 113.774 5.44497 113.855 5.23297 113.377C5.56879 113.719 5.24238 113.086 5.6889 113.581C5.55945 113.256 5.45624 113.188 5.43185 112.915C5.44498 112.864 5.7526 113.188 5.83703 113.205L5.61195 112.941L5.90463 113.171L5.66261 112.83L5.75824 112.865C5.75637 112.894 5.82766 113.013 5.8952 113.086C6.05654 113.154 5.8802 112.777 5.76576 112.641L6.096 112.745C6.0022 112.641 5.94775 112.624 5.87083 112.573C6.17476 112.779 5.64758 112.282 5.92525 112.471C5.96652 112.539 6.06412 112.624 6.11103 112.677C6.00972 112.488 6.08663 112.42 6.20108 112.439L6.03591 112.265C6.10157 112.129 6.33049 112.167 6.44494 112.063C6.47495 112.184 6.75078 112.495 6.81082 112.497L6.58748 112.203C6.75633 112.359 6.64 112.341 6.86514 112.514C6.88202 112.444 6.6269 112.169 6.52372 112.097L6.65884 112.15C6.5913 112.063 6.5425 112.029 6.44869 111.923C6.61754 112.08 6.30423 111.561 6.5894 111.84L6.52189 111.753C6.6382 111.651 6.77139 111.704 6.87833 111.636C7.08283 111.88 7.07529 111.793 7.26665 111.969C7.27228 111.833 7.19351 111.574 7.2967 111.525C7.45617 111.599 7.48427 111.719 7.63061 111.842C7.45238 111.614 7.55372 111.565 7.37924 111.44C7.51244 111.393 7.54811 111.378 7.8239 111.453C7.88394 111.557 7.90083 111.61 7.97212 111.68C8.02465 111.697 7.94954 111.542 7.85761 111.436L7.83325 111.417C8.24974 111.636 7.63998 110.483 8.13528 110.86L8.11091 110.841L8.42796 110.991C8.45235 110.907 8.25911 110.847 8.18969 110.673C8.6212 110.947 8.35479 110.452 8.66248 110.619C8.21784 109.88 8.99645 110.43 8.77506 109.911L8.8914 110.075C9.04149 110.207 8.85572 109.956 8.85009 109.903C8.94202 110.03 8.92896 110.071 9.01526 110.143C9.41112 110.137 9.35101 109.51 9.49922 109.165C9.56113 109.05 10.1822 109.952 10.0096 109.478L9.75068 109.206C10.2085 109.416 10.1315 108.895 10.5461 109.059C10.4842 108.999 10.4167 108.908 10.3979 108.923C10.2759 108.676 10.5368 108.802 10.67 108.98C10.685 108.938 10.5574 108.814 10.5086 108.71C10.4542 108.551 10.8144 108.914 10.6756 108.681C10.653 108.644 10.6118 108.619 10.593 108.608C10.6962 108.695 10.6943 108.491 10.8557 108.761C10.8369 108.587 11.0733 108.772 11.0189 108.581C11.2628 108.836 11.0395 108.355 11.3435 108.746C11.0377 108.336 11.2235 108.319 11.4111 108.481C11.306 108.368 11.3566 108.323 11.2122 108.162C11.2685 108.13 11.3716 108.174 11.5161 108.393C11.2534 107.828 11.9945 108.655 11.5892 107.979C11.9026 108.09 12.1521 108.141 12.3565 108.14C12.0564 107.728 12.1765 108.207 11.8707 107.768C12.1239 107.843 12.4504 108.147 12.5085 107.953C12.501 107.871 12.3622 107.785 12.3003 107.722C12.5517 107.8 12.5273 107.505 12.8031 107.651C12.775 107.611 12.7337 107.579 12.6999 107.554C12.7318 107.552 12.7112 107.456 12.8406 107.647L12.7824 107.611C12.9381 107.913 13.2759 108.123 13.381 108.266C12.9626 107.749 13.3997 108.049 12.8594 107.403C12.8988 107.428 12.9813 107.505 13.0658 107.635C13.062 107.583 13.0188 107.503 12.895 107.375C13.0489 107.42 13.1615 107.643 13.2328 107.586C13.169 107.494 13.1296 107.469 13.0452 107.365C13.2084 107.518 13.3697 107.671 13.3791 107.55C13.3359 107.498 13.2947 107.42 13.2759 107.435C13.4035 107.386 13.79 107.786 13.7881 107.53C13.4785 107.152 13.7374 107.369 13.5067 107.016L13.6417 107.077L13.7318 107.263C13.7843 107.218 14.0076 107.439 13.9775 107.292L13.8388 107.177L13.9888 107.171L14.0189 107.345C14.1971 107.486 14.3134 107.79 14.3209 107.643C14.2815 107.617 14.3735 107.601 14.2646 107.375C14.3678 107.467 14.4747 107.566 14.4578 107.45C14.3941 107.331 14.1877 107.069 14.1445 106.99C14.3697 107.263 14.3302 106.98 14.576 107.269C14.516 107.203 14.3921 107.02 14.3696 106.98L14.5516 107.203C14.5273 107.109 14.5066 107.069 14.4034 106.925C14.4522 106.829 14.6773 107.388 14.6417 107.133C14.6211 107.118 14.6004 107.08 14.561 107.056C14.5873 106.891 14.8424 107.084 14.8499 106.908C14.6398 106.537 14.7167 106.873 14.5479 106.555C14.7149 106.535 15.0864 106.805 15.152 106.642L15.1558 106.697C15.5029 107.188 15.0826 106.389 15.3003 106.586C15.2609 106.559 15.0976 106.319 15.1389 106.374C15.1689 106.238 15.3903 106.385 15.6173 106.461L15.5178 106.342C15.4916 106.195 15.6042 106.191 15.6173 106.097C15.7168 106.216 15.7336 106.174 15.8368 106.374C15.5254 105.53 16.3996 106.565 16.1519 105.857C16.1332 105.866 16.0376 105.77 16.0507 105.761L16.2514 105.802C16.3828 106.029 16.3209 105.946 16.4034 106.134C16.5028 106.255 16.6022 106.335 16.6322 106.316C16.484 106.204 16.4071 105.961 16.3546 105.823C16.394 105.893 16.4484 105.963 16.4897 106.032C16.3058 105.598 16.7823 106.469 16.7017 106.149L16.6229 106.036C16.6942 106.074 16.8199 106.208 16.8349 106.153C16.6885 105.889 16.7242 106.057 16.5891 105.847C16.6491 105.83 16.9925 106.268 16.878 105.985C16.8124 105.927 16.7804 105.946 16.7148 105.889C16.5741 105.557 16.6285 105.63 16.636 105.558L16.636 105.568L16.636 105.377L16.666 105.474C17.1463 106.1 16.8706 105.513 17.227 105.898C16.8875 105.536 17.0638 105.668 16.8762 105.381C16.848 105.287 16.8236 105.175 16.7636 105.1C16.9493 105.309 16.7149 104.871 16.985 105.179C16.9287 105.083 17.0225 105.143 16.8668 104.913C16.9643 104.952 16.955 105.085 17.0319 105.198C17.3096 105.466 16.9831 104.692 17.3696 105.058C17.5816 105.177 17.7936 105.483 17.9831 105.585C17.923 105.415 17.7486 105.258 17.7486 105.258C17.7148 105.088 17.7673 105.09 17.8818 105.17C17.8217 105.094 17.7899 105.017 17.7392 104.903C17.7918 104.905 17.9737 105.23 17.9399 105.06C17.8668 104.96 17.7542 104.799 17.6716 104.705C17.7692 104.764 17.9212 104.913 18.0187 104.969C17.9324 104.798 17.8405 104.737 17.7579 104.641C17.8555 104.682 17.985 104.707 18.1576 104.956L18.18 105.069C18.2063 105.069 18.0544 104.839 18.0112 104.801C17.8424 104.626 18 104.932 18.0563 105.028L18.1256 105.068C18.4258 105.642 17.938 105.06 17.8911 105.134L18.1632 105.519L17.8911 105.228C17.9399 105.341 18.0675 105.572 18.1369 105.611C18.2101 105.84 18.0074 105.494 18.1013 105.742C18.1181 105.779 18.1313 105.796 18.1463 105.81L18.0262 105.719C18.0863 105.798 18.1913 106.008 18.1857 105.932C18.2439 106.216 17.8668 105.713 18.0225 106.038L18.045 106.059C17.8461 105.995 17.8536 105.772 17.5534 105.479L17.9418 106.24L17.7486 105.953C17.7429 105.972 17.7336 106.008 17.8105 106.123C17.6416 105.949 17.7392 105.991 17.5966 105.817C17.7035 106.119 17.3602 105.791 17.6379 106.267C17.4784 106.057 17.5853 106.061 17.4278 105.944C17.7223 106.457 17.3039 105.902 17.3959 106.166C17.5741 106.416 17.5365 106.248 17.6285 106.512C17.3245 106.095 17.5872 106.672 17.4915 106.616C17.272 106.268 17.3058 106.531 17.1594 106.463C17.2382 106.576 17.1407 106.742 17.1519 106.91L17.1913 106.967C16.9568 106.625 16.9268 106.735 16.8311 106.695C16.9662 106.903 17.0281 106.98 17.1163 107.058L17.0676 107.086C16.985 106.98 16.9325 106.931 16.8762 106.91L17.0544 107.165C16.9812 107.192 16.728 106.939 16.758 107.167C16.5967 106.927 16.3884 106.444 16.197 106.34C16.2777 106.474 16.4203 106.701 16.4766 106.74C16.4578 106.727 16.379 106.648 16.4015 106.714L16.5778 106.912C16.6022 107.035 16.4391 106.74 16.4222 106.78C16.5441 106.967 16.4859 106.929 16.5853 107.075C16.6041 107.088 16.5609 106.98 16.621 107.046C16.6097 107.103 16.6397 107.241 16.7185 107.392C16.6529 107.282 16.5554 107.139 16.516 107.131C16.4428 107.16 16.6398 107.371 16.6642 107.492C16.5648 107.371 16.6117 107.533 16.4297 107.254C16.4128 107.267 16.4934 107.401 16.5347 107.481C16.4221 107.379 16.3583 107.547 16.2026 107.224L16.1988 107.199C16.1932 107.194 16.1914 107.195 16.1857 107.19C15.8968 106.982 16.0638 107.496 15.88 107.447L15.9419 107.539C15.8087 107.475 15.758 107.569 15.5817 107.399C15.5629 107.413 15.6491 107.6 15.7298 107.705C15.6341 107.668 15.5591 107.566 15.591 107.768C15.7467 107.898 15.6698 107.922 15.7205 107.853C15.7111 107.975 15.7955 108.134 15.5591 107.926C15.7393 108.149 15.7111 108.258 15.6342 108.207L15.5647 108.007C15.5085 107.996 15.4935 108.036 15.4766 108.077L15.7017 108.379C15.8293 108.846 15.0376 107.888 15.3678 108.591C15.1877 108.396 15.334 108.391 15.1313 108.155C15.1013 108.238 15.3415 108.727 15.3227 108.74C15.3584 108.967 14.94 108.336 14.9362 108.511C14.8724 108.393 14.6811 108.09 14.5461 108.028C14.5142 108.109 14.7899 108.544 14.8875 108.608C14.9081 108.608 14.8912 108.568 14.8649 108.53C14.9118 108.557 14.9681 108.589 15.0263 108.725L14.9437 108.619C14.9906 108.753 14.9025 108.795 15.045 108.965C14.9287 108.889 14.9025 108.795 14.8968 108.715C14.9306 108.927 14.7824 108.8 14.7787 108.963C14.7486 108.893 14.6717 108.755 14.6605 108.764C14.6417 108.982 14.4672 108.589 14.3565 108.595C14.4278 108.795 14.6492 108.985 14.4747 108.899C14.5066 109.046 14.6661 109.199 14.7468 109.276C14.531 109.112 14.713 109.508 14.6999 109.574L14.7974 109.637C14.7393 109.599 14.7224 109.614 14.7036 109.627L14.5723 109.391C14.5779 109.444 14.5591 109.459 14.6229 109.55C14.501 109.422 14.3865 109.17 14.2045 109.004C14.2533 109.136 14.0339 108.946 14.2252 109.246C14.2478 109.084 14.4184 109.546 14.5291 109.54C14.4897 109.516 14.4728 109.529 14.4785 109.584C14.4972 109.62 14.5235 109.642 14.5404 109.656C14.6361 109.979 14.2702 109.354 14.1858 109.423C14.3115 109.58 14.3828 109.75 14.3434 109.726C14.3772 109.697 14.1689 109.439 14.0488 109.337C14.0807 109.505 13.9194 109.286 13.8988 109.321L13.8912 109.237C13.7637 109.08 13.7505 109.121 13.6736 109.099C13.7599 109.229 13.7712 109.161 13.7974 109.227C13.5498 108.97 13.9063 109.597 13.7074 109.446C13.7562 109.578 13.9213 109.756 13.9494 109.85C13.7299 109.686 14.0338 110.128 13.8368 110.005C13.7018 109.769 13.743 109.82 13.5404 109.642L13.7693 109.71L13.4673 109.446C13.5011 109.416 13.6418 109.529 13.6361 109.476C13.4729 109.323 13.5141 109.374 13.4034 109.18C13.5873 109.546 13.1689 109.059 13.2702 109.323L13.6587 109.867C13.745 110.171 13.3077 109.699 13.2946 109.916L13.2627 109.795C13.0939 109.59 13.1727 109.814 13.0733 109.754C13.2065 109.933 13.2309 110.014 13.2965 110.139C13.2027 110.003 13.2233 110.211 12.9532 109.856L13.0751 110.13C13.0564 110.292 12.6005 109.688 12.5574 109.812C12.7262 109.99 12.7787 110.147 12.9382 110.245C12.91 110.267 12.9082 110.32 12.8182 110.194C12.8838 110.318 12.5611 110.009 12.6587 110.199C12.5893 110.13 12.4466 109.943 12.426 109.98C12.4485 110.02 12.4917 110.069 12.4917 110.069C12.426 109.98 12.3529 109.986 12.2365 109.765C12.5574 110.394 11.9589 109.909 12.2365 110.449C12.1296 110.435 12.0114 110.434 11.9457 110.464C11.9888 110.515 12.0114 110.553 12.0095 110.526C12.0546 110.751 11.5799 110.047 11.6286 110.3C11.7975 110.622 11.7918 110.42 11.8444 110.553C12.2703 111.151 11.6775 110.553 11.8726 110.941L11.912 110.966C12.0152 111.2 11.6343 110.826 11.5912 110.924C11.5912 110.924 11.6343 110.974 11.6587 111.013C11.3829 110.751 11.2122 110.726 11.079 110.698C11.2741 110.909 11.2028 110.794 11.3642 111.038C11.3079 111.03 11.0921 110.656 10.9777 110.639C11.0508 110.781 11.0884 110.926 11.2704 111.179L11.3397 111.147C11.5517 111.493 11.2534 111.196 11.2647 111.276L11.3753 111.413C11.2496 111.438 10.9795 111.087 10.8988 111.189L10.8275 111.076C10.5067 110.768 10.9326 111.308 10.6793 111.089L10.9345 111.455C10.8332 111.396 10.548 111.21 10.4317 111.193C10.67 111.427 10.8482 111.504 11.0133 111.623C10.9795 111.653 10.8745 111.689 10.7206 111.529C10.7619 111.551 10.8463 111.625 10.8182 111.559C10.5612 111.313 10.3998 111.221 10.3323 111.283C10.8726 111.959 10.2816 111.599 10.6437 112.169C10.3247 112.014 10.4842 112.471 10.3116 112.543C9.94575 111.972 10.2572 112.561 9.84073 112.01C9.7807 112.003 9.77315 112.021 9.79942 112.059L9.95332 112.463C10.0546 112.641 10.079 112.558 10.1728 112.682C10.1334 112.782 10.3247 112.937 10.3904 113.118C10.2459 112.916 10.1446 112.862 10.1634 112.967L10.0246 112.671C9.69439 112.463 10.2966 113.196 9.96825 112.992L10.1353 113.137C10.002 113.079 9.94578 113.294 9.54805 112.903C9.58932 112.973 9.69435 113.13 9.74876 113.151C9.67747 113.317 9.10153 112.918 9.21973 113.262L9.33607 113.385C9.28166 113.366 9.09586 113.171 9.17465 113.328C9.21968 113.381 9.29104 113.451 9.28541 113.468C9.23663 113.432 9.03773 113.288 9.06775 113.39L9.21405 113.517C9.23281 113.787 8.73568 113.311 8.55933 113.305C8.87452 113.691 8.88197 113.893 8.88572 113.995L8.93263 114.047C8.83319 114.212 8.43362 113.928 8.18035 113.889C8.44676 114.372 8.0528 114.293 8.12034 114.633C8.08095 114.548 7.86704 114.34 7.81263 114.321C7.84828 114.423 7.50682 114.129 7.80512 114.472L7.81071 114.457C8.07712 114.818 7.93833 114.778 7.89893 114.831L7.50492 114.383C7.94206 115.154 6.96839 114.429 7.40553 115.078C7.27795 114.991 7.24225 115.025 7.11468 114.939L7.32482 115.18C7.29481 115.314 7.27979 115.382 7.12595 115.414L7.2967 115.569C7.25167 115.635 6.61751 114.937 6.55184 114.971L6.85021 115.345C6.74327 115.428 6.91963 115.835 6.53315 115.598C6.58006 115.648 6.67568 115.75 6.70382 115.749C6.66442 115.8 6.73575 116.155 6.31925 115.648C6.60067 115.969 6.24423 115.773 6.06412 115.681L6.28169 115.909C5.96838 115.65 5.89337 115.569 5.75641 115.543C5.76767 115.586 5.91024 115.743 5.87834 115.665C5.93838 115.834 5.64007 115.479 5.69073 115.66L5.8483 115.788C5.81265 115.852 5.7451 115.769 5.55937 115.62C5.44305 115.556 5.51246 115.769 5.69632 115.986C5.57249 115.864 5.38868 115.716 5.41307 115.805C5.48061 115.888 5.5369 115.928 5.56504 115.947C5.62133 116.185 5.19166 115.794 5.33987 116.077C5.40929 116.156 5.43933 116.198 5.45622 116.226C5.52 116.156 5.56315 116.094 5.54251 116.081C5.73763 116.296 5.71696 116.385 6.0284 116.642C5.83891 116.521 5.44306 116.238 5.48058 116.389C5.49747 116.411 5.51254 116.434 5.54068 116.47L5.5688 116.489C5.57631 116.521 5.54627 116.511 5.50312 116.485C5.51813 116.536 5.53127 116.572 5.51814 116.591C5.67386 116.774 5.54253 116.745 5.5219 116.779C5.3099 116.543 5.30804 116.613 5.16545 116.389C5.17671 116.409 5.19539 116.411 5.22353 116.404C5.23479 116.408 5.24233 116.406 5.25734 116.417C5.25171 116.411 5.24423 116.404 5.23672 116.398C5.26111 116.389 5.28924 116.372 5.31926 116.351C5.18981 116.251 5.07535 116.173 5.16353 116.332C5.01344 116.198 4.85776 116.058 4.77896 115.99C5.03974 116.353 5.12793 116.596 5.30241 116.806C5.09791 116.753 5.02659 116.902 4.56881 116.513C4.49189 116.479 4.65695 116.664 4.71135 116.742C4.76576 116.774 4.77522 116.751 4.84089 116.808C4.68892 116.74 4.6589 116.895 4.36435 116.6C4.43189 116.795 4.65887 116.849 4.52942 116.878L4.62698 116.961C4.92154 117.601 3.63825 116.434 4.04537 117.229C4.02098 117.18 4.01161 117.155 3.96659 117.102C4.02287 117.571 3.30058 117.246 3.51634 117.873C3.54448 118.014 3.35306 117.829 3.17858 117.718L3.40375 117.975L3.07167 117.75C2.7865 117.625 3.51068 118.492 3.02477 118.205L2.87838 118.028C2.87088 118.095 2.66265 118.048 2.85401 118.231C2.82024 118.205 2.67393 118.073 2.74335 118.173L2.8672 118.301L2.55949 118.175C2.57826 118.337 3.06601 118.669 2.98721 118.798C2.90091 118.787 2.51069 118.537 2.44315 118.437C2.45253 118.415 2.40566 118.318 2.28183 118.19L2.18052 118.16C1.80529 117.791 1.3982 117.437 1.22935 117.087L1.51819 117.255L1.3588 117.053L1.29494 117.093C1.15611 116.893 1.32497 117.025 1.44692 117.108C1.35687 117.006 1.29877 116.931 1.27626 116.881L1.68895 117.18C1.55199 117.025 1.37561 116.915 1.33809 116.793C1.52946 116.931 1.63272 117.15 1.78844 117.212C1.65148 117.012 1.50701 116.881 1.68336 116.993C1.59331 116.891 1.5257 116.836 1.47129 116.808C1.61575 116.893 1.60268 116.776 1.8128 116.961C1.63832 116.719 1.97227 116.912 1.62144 116.559C1.71524 116.634 1.94783 116.785 1.99098 116.772C1.52382 116.396 2.07353 116.642 1.61576 116.194C2.02662 116.542 1.92163 116.226 2.19554 116.374C2.16177 116.347 2.09419 116.292 2.10732 116.317C2.11482 116.247 2.01539 116.119 1.97037 116.022C2.2818 116.338 2.41314 116.353 2.63452 116.519C2.38875 116.164 2.24616 116.171 1.97788 115.86C2.22365 116.122 2.30808 116.039 2.49757 116.272C2.35123 116.045 2.44132 116.149 2.20681 115.864C2.59516 116.258 2.30623 115.9 2.57076 116.117C2.43568 115.868 2.22745 115.728 2.40193 115.794C2.30625 115.63 2.11859 115.537 2.11859 115.537ZM4.17298 114.92C4.1711 114.918 4.16922 114.916 4.16922 114.916C4.15234 114.922 4.13729 114.927 4.12791 114.929C4.13541 114.925 4.14859 114.923 4.17298 114.92ZM4.29491 114.814C4.28928 114.837 4.2724 114.855 4.25176 114.871C4.32118 114.956 4.40182 115.035 4.40932 115.02C4.35304 114.971 4.33806 114.899 4.29491 114.814ZM5.52565 116.672C5.57443 116.689 5.53881 116.636 5.49753 116.587C5.4844 116.591 5.4675 116.593 5.43936 116.589C5.43186 116.581 5.42052 116.572 5.41114 116.562C5.4543 116.604 5.49564 116.644 5.52565 116.672Z" fill="#7EAF15"/>
<path d="M5.2124 116.394C5.20485 116.392 5.1935 116.383 5.18972 116.385C5.17462 116.36 5.16136 116.34 5.15192 116.323C5.17647 116.345 5.20293 116.368 5.22559 116.391C5.22181 116.391 5.21807 116.392 5.2124 116.394Z" fill="#7EAF15"/>
<path d="M16.2003 107.21L16.2021 107.218C16.1984 107.207 16.1928 107.193 16.1833 107.176C16.1909 107.192 16.1946 107.197 16.2003 107.21Z" fill="#7EAF15"/>
<path d="M5.5545 112.875L5.60742 112.935L5.55072 112.892L5.5545 112.875Z" fill="#7EAF15"/>
<path d="M16.3467 105.813C16.3335 105.789 16.3203 105.762 16.3128 105.738C16.3241 105.757 16.3354 105.783 16.3467 105.813Z" fill="#7EAF15"/>
<path d="M16.6303 105.547L16.6151 105.423C16.6302 105.49 16.6321 105.524 16.6303 105.547Z" fill="#7EAF15"/>
<path d="M16.7946 105.256C16.8286 105.304 16.8513 105.338 16.8721 105.37L16.8721 105.372L16.7946 105.256Z" fill="#7EAF15"/>
<path d="M12.6953 107.55C12.6915 107.55 12.6859 107.55 12.6783 107.545C12.6198 107.511 12.6481 107.52 12.6953 107.55Z" fill="#7EAF15"/>
<path d="M14.2588 107.367C14.2135 107.328 14.1701 107.29 14.1361 107.267C14.1436 107.235 14.1549 107.218 14.2588 107.367Z" fill="#7EAF15"/>
<path d="M11.2046 108.155L11.208 108.159C11.2046 108.161 11.2028 108.162 11.2011 108.164L11.2046 108.155Z" fill="#7EAF15"/>
<path d="M14.0857 107.309C14.0706 107.243 14.0952 107.243 14.1367 107.267C14.1329 107.297 14.1311 107.337 14.0857 107.309Z" fill="#7EAF15"/>
<path d="M17.8029 104.46L17.8085 104.441C17.8198 104.46 17.8294 104.473 17.8369 104.484L17.8029 104.46Z" fill="#7EAF15"/>
<path d="M17.8361 104.484L17.8682 104.509C17.8625 104.512 17.8569 104.512 17.8361 104.484Z" fill="#7EAF15"/>
<path d="M17.9375 104.56L17.8677 104.509C17.8772 104.501 17.8846 104.486 17.9375 104.56Z" fill="#7EAF15"/>
<path d="M17.5479 104.79L17.4836 104.694C17.4987 104.713 17.5195 104.745 17.5479 104.79Z" fill="#7EAF15"/>
<path d="M17.4286 104.824C17.4381 104.786 17.3607 104.577 17.4324 104.618L17.4834 104.694C17.3777 104.558 17.5533 104.975 17.4286 104.824Z" fill="#7EAF15"/>
<path d="M17.76 106.295L17.7937 106.164C17.8444 106.278 17.9119 106.431 17.9645 106.433C18.0545 106.808 17.8425 106.185 17.76 106.295Z" fill="#7EAF15"/>
<path d="M17.5974 106.608C17.6729 106.629 17.6918 106.759 17.7314 106.818C17.6446 106.74 17.6219 106.722 17.5974 106.608Z" fill="#7EAF15"/>
<path d="M15.7685 107.798L15.9316 108.036C15.8754 108.024 15.8698 107.943 15.7685 107.798Z" fill="#7EAF15"/>
<path d="M14.5947 106.788L14.5272 106.616L14.6904 106.825L14.5947 106.788Z" fill="#7EAF15"/>
<path d="M15.5346 108.64L15.5723 108.664L15.4571 108.613L15.5346 108.64Z" fill="#7EAF15"/>
<path d="M12.5045 110.666L12.3038 110.371C12.3638 110.405 12.6039 110.724 12.5045 110.666Z" fill="#7EAF15"/>
<path d="M11.0295 111.327C11.1239 111.48 11.1597 111.597 11.0295 111.474C11.0446 111.434 10.9879 111.302 11.0295 111.327Z" fill="#7EAF15"/>
<path d="M7.72909 114.765L7.83105 114.835L7.72153 114.799L7.72909 114.765Z" fill="#7EAF15"/>
<path d="M24.9058 142.622C24.8532 142.705 24.6956 142.86 24.69 142.796L24.9189 142.499L24.9058 142.622Z" fill="#7EAF15"/>
<path d="M24.2017 142.909C24.2843 142.737 24.455 142.459 24.7158 142.233C24.5113 142.533 24.622 142.433 24.3743 142.788C24.3799 142.852 24.5169 142.758 24.6032 142.65C24.5507 142.731 24.7121 142.641 24.5714 142.829C24.3293 142.999 24.2637 142.954 24.3687 142.722C24.2993 142.773 24.2467 142.856 24.2017 142.909Z" fill="#7EAF15"/>
<path d="M20.449 140.084L20.502 140.073C20.4793 140.086 20.4623 140.088 20.449 140.084Z" fill="#7EAF15"/>
<path d="M18.2682 138.169C18.2776 138.192 18.2568 138.224 18.2342 138.249C18.2379 138.217 18.2417 138.188 18.2682 138.169Z" fill="#7EAF15"/>
<path d="M17.6282 138.104C17.6433 138.104 17.6547 138.105 17.666 138.107C17.6358 138.122 17.6131 138.128 17.6282 138.104Z" fill="#7EAF15"/>
<path d="M20.4492 140.084L20.3114 140.112C20.3926 140.024 20.4039 140.076 20.4492 140.084Z" fill="#7EAF15"/>
<path d="M24.3545 141.808C24.3545 141.832 24.3394 141.866 24.3167 141.908C24.3186 141.887 24.3186 141.868 24.3148 141.851C24.3281 141.838 24.3394 141.825 24.3545 141.808Z" fill="#7EAF15"/>
<path d="M21.146 141.2L21.1631 141.217C21.1385 141.253 21.1064 141.294 21.0705 141.34L21.146 141.2Z" fill="#7EAF15"/>
<path d="M21.8102 141.925C21.784 141.919 21.9978 141.685 22.0879 141.58C22.0072 141.683 21.9753 141.74 21.9715 141.77C21.9303 141.814 21.8796 141.865 21.8102 141.925Z" fill="#7EAF15"/>
<path d="M23.3145 142.597L23.305 142.648C23.3088 142.633 23.3088 142.614 23.3145 142.597Z" fill="#7EAF15"/>
<path d="M20.5977 140.756C20.5637 140.788 20.5316 140.817 20.5108 140.832C20.5391 140.803 20.5674 140.779 20.5977 140.756Z" fill="#7EAF15"/>
<path d="M4.60938 118.548C4.59049 118.562 4.57912 118.571 4.56402 118.582C4.58667 118.558 4.60371 118.543 4.60938 118.548Z" fill="#7EAF15"/>
<path d="M2.67969 118.567L2.67591 118.59C2.62682 118.626 2.57961 118.662 2.5343 118.698L2.67969 118.567Z" fill="#7EAF15"/>
<path d="M16.7092 137.73C16.713 137.728 16.713 137.73 16.7168 137.728C16.7074 137.771 16.7017 137.756 16.7092 137.73Z" fill="#7EAF15"/>
<path d="M11.2608 131.395C11.5366 131.28 11.4335 131.038 11.7637 130.938C11.6624 131.01 11.4766 131.363 11.2608 131.395Z" fill="#7EAF15"/>
<path d="M24.3074 141.821C24.2998 141.81 24.2922 141.798 24.2809 141.791C24.2998 141.797 24.3093 141.806 24.3074 141.821Z" fill="#7EAF15"/>
<path d="M11.7629 130.938L11.7648 130.936L11.7969 130.927C11.7837 130.933 11.7762 130.934 11.7629 130.938Z" fill="#7EAF15"/>
<path d="M15.4083 136.074C15.4517 136.038 15.4895 136.015 15.5254 135.994C15.5008 136.015 15.4668 136.038 15.4083 136.074Z" fill="#7EAF15"/>
<path d="M16.8027 136.897L16.7442 136.899C16.7763 136.889 16.7933 136.891 16.8027 136.897Z" fill="#7EAF15"/>
<path d="M15.1836 135.175C15.1515 135.177 15.1137 135.201 15.1269 135.151C15.1401 135.141 15.1515 135.135 15.1609 135.13C15.1345 135.168 15.1288 135.192 15.1836 135.175Z" fill="#7EAF15"/>
<path d="M14.6165 134.552C14.6373 134.539 14.6543 134.531 14.675 134.52C14.6769 134.529 14.6788 134.541 14.6807 134.552L14.6165 134.552Z" fill="#7EAF15"/>
<path d="M5.99023 120.667C5.90769 120.706 5.82324 120.757 5.7407 120.808C5.92831 120.684 5.91894 120.536 5.99023 120.667Z" fill="#7EAF15"/>
<path d="M24.2294 141.938C24.2804 141.876 24.3031 141.842 24.305 141.821C24.3088 141.831 24.3125 141.842 24.3125 141.853C24.2842 141.889 24.254 141.923 24.2294 141.938Z" fill="#7EAF15"/>
<path d="M16.9883 133.44L16.8636 133.376C16.9108 133.381 16.9562 133.406 16.9883 133.44Z" fill="#7EAF15"/>
<path d="M9.62443 125.391L9.63568 125.344C9.6489 125.347 9.64898 125.361 9.62443 125.391Z" fill="#7EAF15"/>
<path d="M16.6357 133.055C16.5382 133.113 16.4745 133.14 16.4257 133.149C16.4407 133.128 16.4501 133.11 16.4763 133.083L16.6357 133.055Z" fill="#7EAF15"/>
<path d="M5.73938 120.811L5.74121 120.809L5.73938 120.811Z" fill="#7EAF15"/>
<path d="M5.81848 119.661C5.90103 119.755 5.52769 119.953 5.35321 120.12C5.34946 120.312 5.64018 119.991 5.84093 119.902C5.80903 120.044 5.54637 120.333 5.60266 120.378C5.66082 120.34 5.68896 120.337 5.74712 120.272C5.54262 120.552 5.91038 120.518 5.64773 120.863C5.6815 120.848 5.71334 120.829 5.73961 120.812C5.56325 120.924 5.39253 121.05 5.27433 121.145C5.30248 121.194 5.12808 121.388 5.35697 121.241C5.32882 121.218 5.41506 121.149 5.47321 121.084L5.41504 121.203C5.75837 121.009 5.47321 121.056 5.70397 120.88C5.67208 121.05 5.49575 121.354 5.63646 121.358C5.95165 121.139 5.61398 121.115 5.95544 121.001L5.75656 120.981C6.29875 120.697 5.67403 120.939 6.24437 120.624C6.43948 120.699 6.20869 120.903 6.40569 120.979C6.26123 121.141 6.14863 121.16 6.00417 121.322C5.85596 121.758 6.88969 120.894 6.59889 121.354C6.42628 121.549 6.05488 121.86 6.33817 121.809L6.6533 121.507C6.79401 121.619 6.2218 121.968 6.56325 121.934C6.6777 121.804 6.59326 121.738 6.64954 121.726C6.991 121.611 6.50701 121.943 6.56142 122.015L6.87655 121.794C6.94221 121.977 6.84657 122.31 6.91786 122.517C7.00041 122.438 7.07358 122.336 7.19553 122.302C7.20115 122.627 7.56888 122.712 7.90283 122.767L7.70211 123.046C7.719 123.061 7.84465 122.986 7.88029 122.927C8.03976 122.925 7.71895 123.061 7.64578 123.178C7.66266 123.237 7.84086 123.118 7.89715 123.029C7.7827 123.339 7.72645 123.79 8.11481 123.711L8.16922 123.622C8.36059 123.648 7.7377 124.171 8.06039 124.081L8.09044 124.024C8.39062 124.175 8.36432 124.632 8.90089 124.498C8.55756 124.832 9.25547 124.6 8.75267 125.034C9.11851 124.963 9.1786 124.849 9.50504 124.9C9.57071 124.932 9.24428 125.238 9.2424 125.346L9.51255 125.127L9.29865 125.444L9.65702 125.227L9.63632 125.342C9.60067 125.331 9.47501 125.391 9.39997 125.457C9.35307 125.65 9.76956 125.529 9.90839 125.418L9.85773 125.823C9.96092 125.729 9.96839 125.663 10.0153 125.576C9.83519 125.92 10.3155 125.365 10.1504 125.678C10.0772 125.714 9.99656 125.818 9.94402 125.865C10.1504 125.784 10.2499 125.903 10.2555 126.048L10.4262 125.878C10.6064 125.999 10.6175 126.29 10.7695 126.467C10.6307 126.475 10.323 126.756 10.3361 126.834L10.6363 126.618C10.49 126.798 10.4844 126.652 10.3287 126.902C10.4169 126.941 10.687 126.679 10.7471 126.564L10.717 126.728C10.8052 126.662 10.8333 126.605 10.9365 126.511C10.7883 126.692 11.3362 126.414 11.0716 126.718L11.1597 126.652C11.3117 126.83 11.2817 126.994 11.3887 127.153C11.1485 127.36 11.2498 127.372 11.0903 127.581C11.2592 127.623 11.5482 127.579 11.6382 127.727C11.5951 127.919 11.4562 127.927 11.3474 128.091C11.5725 127.91 11.6607 128.057 11.7639 127.855C11.8596 128.04 11.8877 128.089 11.8746 128.439C11.7676 128.493 11.7076 128.505 11.6438 128.58C11.6382 128.646 11.8052 128.582 11.9046 128.486L11.9196 128.457C11.777 128.962 12.9852 128.414 12.6794 128.982L12.6944 128.954L12.6137 129.339C12.7226 129.388 12.7338 129.147 12.9233 129.09C12.7282 129.602 13.2404 129.35 13.1372 129.721C13.8839 129.281 13.4711 130.198 14.0246 130.004L13.8651 130.126C13.7544 130.3 13.9965 130.102 14.0584 130.104C13.9383 130.202 13.882 130.177 13.8239 130.276C13.959 130.802 14.7038 130.827 15.1653 131.074C15.3248 131.172 14.4617 131.848 14.9702 131.697L15.2028 131.399C15.1128 131.973 15.7113 131.945 15.6719 132.464C15.7207 132.39 15.8032 132.315 15.7788 132.288C16.0283 132.162 15.9758 132.485 15.8144 132.636C15.8707 132.66 15.9702 132.509 16.0752 132.458C16.2441 132.405 15.9495 132.834 16.1746 132.679C16.2121 132.655 16.2253 132.604 16.231 132.579C16.1672 132.704 16.4092 132.726 16.1484 132.904C16.3473 132.902 16.2197 133.187 16.4261 133.142C16.2178 133.431 16.7037 133.197 16.3566 133.55C16.7244 133.195 16.8163 133.444 16.6981 133.669C16.7919 133.542 16.8651 133.614 16.9983 133.442C17.0583 133.517 17.0508 133.648 16.8482 133.814C17.4148 133.527 16.7337 134.412 17.3735 133.95C17.3697 134.348 17.4166 134.671 17.5067 134.943C17.8688 134.586 17.3473 134.699 17.7431 134.339C17.7581 134.662 17.5385 135.068 17.7937 135.162C17.8875 135.16 17.9289 134.983 17.9776 134.907C17.9926 135.232 18.3378 135.219 18.289 135.568C18.3228 135.534 18.3434 135.481 18.3565 135.44C18.3753 135.483 18.4803 135.46 18.3096 135.617L18.3266 135.543C18.0376 135.727 17.94 136.153 17.8162 136.284C18.244 135.77 18.0864 136.325 18.608 135.659C18.5967 135.71 18.5423 135.812 18.426 135.913C18.4879 135.913 18.5611 135.859 18.6586 135.706C18.6737 135.904 18.4598 136.036 18.5611 136.134C18.6418 136.055 18.653 136.006 18.7374 135.904C18.6286 136.106 18.5217 136.312 18.6717 136.331C18.7149 136.278 18.7881 136.227 18.7618 136.202C18.8781 136.372 18.5836 136.859 18.8894 136.873C19.1915 136.484 19.0564 136.816 19.3659 136.529L19.3603 136.703L19.1802 136.812C19.259 136.882 19.1051 137.163 19.2665 137.131L19.3359 136.954L19.4166 137.15L19.2252 137.182C19.1446 137.411 18.8369 137.549 19.0188 137.566C19.0301 137.515 19.0958 137.637 19.3115 137.501C19.3115 137.501 19.3115 137.501 19.3115 137.499C19.2515 137.632 19.1896 137.768 19.319 137.751C19.4297 137.669 19.6398 137.411 19.7111 137.358C19.4972 137.643 19.8143 137.601 19.5929 137.913C19.6398 137.836 19.7974 137.679 19.833 137.652L19.6605 137.885C19.7599 137.854 19.7955 137.828 19.9156 137.7C20.0544 137.768 19.5029 138.043 19.7881 138.006C19.7956 137.979 19.8293 137.955 19.8406 137.904C20.0469 137.943 19.9475 138.274 20.1595 138.289C20.4935 138.022 20.1351 138.115 20.4259 137.902C20.5329 138.121 20.4015 138.602 20.6304 138.689L20.5685 138.693C20.1689 139.14 20.895 138.6 20.7768 138.88C20.788 138.829 20.985 138.617 20.9437 138.67C21.1201 138.71 21.0619 138.995 21.0938 139.293L21.182 139.163C21.3414 139.129 21.4053 139.274 21.5235 139.293C21.4372 139.423 21.4934 139.444 21.3133 139.58C22.1388 139.165 21.3902 140.324 22.0919 139.986C22.0694 139.963 22.1313 139.837 22.1501 139.854L22.2138 140.115C22.0187 140.29 22.0826 140.207 21.9062 140.32C21.8199 140.451 21.7824 140.583 21.8218 140.622C21.8687 140.426 22.1145 140.322 22.2458 140.249C22.1858 140.301 22.1351 140.375 22.0751 140.43C22.4822 140.179 21.7242 140.821 22.0582 140.709L22.1463 140.605C22.1407 140.698 22.0563 140.868 22.1295 140.885C22.3584 140.687 22.1801 140.738 22.3508 140.556C22.4052 140.634 22.0844 141.094 22.3527 140.936C22.3827 140.847 22.3433 140.807 22.3733 140.721C22.6848 140.528 22.6285 140.6 22.7167 140.607L22.7073 140.609L22.9306 140.602L22.8348 140.643C22.3733 141.291 22.9024 140.909 22.6585 141.391C22.8874 140.932 22.8349 141.17 23.0638 140.913C23.1576 140.872 23.2738 140.838 23.3282 140.755C23.1894 141.006 23.5665 140.683 23.362 141.047C23.4408 140.97 23.4258 141.094 23.6041 140.881C23.6116 141.009 23.4559 141.004 23.3658 141.11C23.212 141.485 23.9286 141.015 23.726 141.536C23.711 141.816 23.4821 142.11 23.4784 142.361C23.6397 142.273 23.7185 142.037 23.7185 142.037C23.8967 141.982 23.9267 142.052 23.9023 142.203C23.9549 142.12 24.0243 142.074 24.1275 142.001C24.1575 142.071 23.8874 142.325 24.0638 142.271C24.1369 142.171 24.2551 142.012 24.3151 141.901C24.3057 142.031 24.2232 142.237 24.2176 142.367C24.3658 142.242 24.3789 142.12 24.4427 142.006C24.4521 142.135 24.5027 142.303 24.317 142.546L24.1988 142.584C24.2138 142.618 24.3902 142.405 24.4089 142.348C24.5121 142.118 24.2513 142.344 24.1725 142.422L24.1688 142.514C23.6829 142.943 24.0637 142.271 23.9492 142.214L23.6641 142.592L23.8405 142.222C23.7373 142.293 23.5441 142.471 23.5403 142.563C23.3171 142.673 23.5984 142.388 23.3658 142.526C23.332 142.55 23.3189 142.569 23.3114 142.588L23.3452 142.427C23.2889 142.511 23.1069 142.66 23.1932 142.646C22.8949 142.737 23.2551 142.22 22.968 142.439L22.9568 142.469C22.9117 142.207 23.1782 142.205 23.3414 141.801L22.6791 142.344L22.9005 142.08C22.8761 142.074 22.8273 142.063 22.7373 142.169C22.8405 141.94 22.8499 142.069 22.97 141.874C22.6773 142.029 22.8612 141.565 22.4653 141.946C22.6191 141.729 22.6772 141.87 22.7223 141.659C22.2926 142.065 22.6979 141.495 22.4428 141.623C22.2533 141.865 22.4315 141.812 22.1726 141.94C22.4859 141.527 21.9587 141.891 21.9681 141.763C22.2495 141.464 21.9587 141.515 21.955 141.321C21.8649 141.427 21.6135 141.304 21.4202 141.321L21.3753 141.374C21.6454 141.059 21.4972 141.023 21.4878 140.894C21.3171 141.076 21.2626 141.157 21.2214 141.274L21.1576 141.21C21.2345 141.1 21.2627 141.03 21.2552 140.955L21.0563 141.193C20.9812 141.096 21.137 140.762 20.8837 140.802C21.0788 140.588 21.5328 140.311 21.5516 140.058C21.439 140.165 21.2476 140.352 21.2326 140.428C21.2364 140.403 21.287 140.3 21.2214 140.328L21.0844 140.562C20.955 140.596 21.2121 140.379 21.1558 140.356C21.0001 140.517 21.015 140.441 20.8968 140.573C20.8912 140.6 20.9963 140.541 20.9494 140.621C20.8762 140.604 20.7298 140.645 20.5948 140.747C20.6867 140.66 20.8049 140.532 20.7918 140.479C20.7186 140.383 20.576 140.641 20.4447 140.675C20.5329 140.543 20.3659 140.605 20.5985 140.366C20.5723 140.343 20.4597 140.449 20.3865 140.503C20.4447 140.354 20.2102 140.269 20.5085 140.065L20.5366 140.06C20.5385 140.052 20.5366 140.05 20.5404 140.043C20.6285 139.663 20.1089 139.878 20.0657 139.635L19.987 139.714C19.9907 139.539 19.8499 139.471 19.9587 139.24C19.9325 139.216 19.7561 139.325 19.6736 139.431C19.6679 139.306 19.7487 139.21 19.5254 139.246C19.4523 139.45 19.3809 139.346 19.4916 139.414C19.3397 139.397 19.1952 139.503 19.319 139.197C19.1483 139.431 19.002 139.388 19.0226 139.286L19.2252 139.201C19.2102 139.125 19.1521 139.104 19.0958 139.08L18.8518 139.367C18.3565 139.514 19.0939 138.502 18.4204 138.908C18.5611 138.676 18.6455 138.872 18.8219 138.615C18.7074 138.57 18.2421 138.866 18.2158 138.842C17.9588 138.878 18.5048 138.353 18.2909 138.338C18.3997 138.259 18.6699 138.021 18.6755 137.847C18.5611 137.802 18.1784 138.141 18.1502 138.268C18.1615 138.294 18.2009 138.276 18.2328 138.242C18.2234 138.302 18.2159 138.376 18.0808 138.445L18.1652 138.342C18.0283 138.398 17.9307 138.276 17.7994 138.457C17.8313 138.306 17.9307 138.277 18.0245 138.274C17.7844 138.306 17.8613 138.117 17.6662 138.1C17.7356 138.066 17.8632 137.972 17.8463 137.955C17.5761 137.913 17.9607 137.707 17.9007 137.56C17.6962 137.641 17.5724 137.922 17.5911 137.694C17.4298 137.724 17.3229 137.928 17.2703 138.03C17.3604 137.751 16.972 137.964 16.8838 137.941L16.8556 138.068C16.8725 137.992 16.8463 137.968 16.8219 137.941L17.0432 137.785C16.9813 137.786 16.9551 137.762 16.8763 137.839C16.972 137.686 17.2196 137.552 17.3322 137.324C17.1952 137.379 17.319 137.099 17.0507 137.331C17.259 137.375 16.7806 137.566 16.8425 137.713C16.8538 137.662 16.8275 137.637 16.7637 137.641C16.73 137.664 16.715 137.696 16.7075 137.719C16.3623 137.817 16.9419 137.382 16.8162 137.262C16.6868 137.416 16.5142 137.496 16.5255 137.447C16.578 137.496 16.79 137.239 16.8556 137.086C16.6661 137.112 16.8557 136.918 16.8013 136.888L16.9007 136.886C17.0301 136.731 16.972 136.708 16.9626 136.608C16.8463 136.712 16.9345 136.735 16.8651 136.761C17.0602 136.455 16.4673 136.873 16.5536 136.62C16.4166 136.672 16.2778 136.876 16.1765 136.905C16.2703 136.627 15.8764 136.988 15.9345 136.735C16.1578 136.58 16.1146 136.629 16.2365 136.374L16.2591 136.676L16.4392 136.295C16.4898 136.344 16.4185 136.521 16.4804 136.52C16.5911 136.316 16.5461 136.367 16.7319 136.236C16.3735 136.444 16.7713 135.934 16.4973 136.04L16.017 136.503C15.6869 136.584 16.0602 136.048 15.79 136.004L15.9213 135.976C16.0939 135.772 15.8557 135.851 15.8857 135.727C15.7281 135.885 15.6399 135.908 15.518 135.981C15.6399 135.87 15.3979 135.876 15.7075 135.555L15.4279 135.685C15.2197 135.638 15.7525 135.103 15.5837 135.032C15.4411 135.236 15.2741 135.287 15.2253 135.489C15.1859 135.449 15.1202 135.44 15.2328 135.334C15.109 135.406 15.3454 135.013 15.1559 135.12C15.2103 135.036 15.3773 134.871 15.3191 134.837C15.2816 134.864 15.2385 134.913 15.2385 134.913C15.3192 134.837 15.2816 134.737 15.4992 134.611C14.8726 134.956 15.2103 134.218 14.67 134.511C14.6418 134.369 14.595 134.21 14.5312 134.116C14.4861 134.167 14.4505 134.192 14.4805 134.192C14.2235 134.218 14.8876 133.687 14.5987 133.716C14.2722 133.893 14.518 133.916 14.3792 133.967C13.822 134.445 14.3098 133.742 13.9139 133.944L13.9007 133.995C13.6568 134.097 13.957 133.644 13.8182 133.57C13.8182 133.57 13.7751 133.619 13.7376 133.646C13.9458 133.319 13.9102 133.093 13.8933 132.917C13.7095 133.144 13.8239 133.068 13.5894 133.244C13.5781 133.168 13.9477 132.944 13.9252 132.792C13.7807 132.868 13.6194 132.891 13.3811 133.091L13.4487 133.193C13.1091 133.417 13.3548 133.068 13.261 133.066L13.1354 133.191C13.0547 133.015 13.383 132.715 13.2272 132.589L13.3398 132.515C13.595 132.141 13.0959 132.613 13.2666 132.315L12.9139 132.589C12.9458 132.464 13.0696 132.115 13.0471 131.964C12.8483 132.237 12.822 132.462 12.7376 132.662C12.6888 132.611 12.6025 132.46 12.7413 132.286C12.7282 132.336 12.6701 132.436 12.7413 132.411C12.944 132.113 12.9983 131.913 12.8989 131.813C12.2704 132.407 12.4918 131.684 11.9252 132.05C12.0003 131.65 11.4994 131.767 11.3455 131.512C11.9177 131.146 11.3043 131.435 11.8333 130.993C11.8221 130.912 11.7977 130.901 11.7601 130.925L11.3155 131.042C11.1316 131.138 11.2424 131.191 11.1223 131.288C10.9853 131.21 10.8615 131.433 10.6588 131.48C10.8577 131.333 10.8915 131.208 10.7639 131.206L11.081 131.088C11.2217 130.689 10.5275 131.333 10.6644 130.936L10.5444 131.129C10.5707 130.965 10.2817 130.833 10.6325 130.389C10.5594 130.427 10.4018 130.531 10.3943 130.6C10.1654 130.459 10.4731 129.779 10.0847 129.851L9.97032 129.975C9.97594 129.907 10.1579 129.705 9.9891 129.77C9.93844 129.817 9.87278 129.894 9.85214 129.883C9.88028 129.826 9.99466 129.594 9.87834 129.609L9.7696 129.773C9.43941 129.726 9.87275 129.181 9.82585 128.946C9.44875 129.269 9.1973 129.224 9.07348 129.199L9.02282 129.247C8.79018 129.062 9.02101 128.599 9.00038 128.267C8.48069 128.484 8.46568 127.974 8.06232 127.961C8.158 127.934 8.35496 127.708 8.36435 127.64C8.24615 127.655 8.51823 127.285 8.1749 127.583L8.19551 127.595C7.82217 127.842 7.82961 127.666 7.75644 127.596L8.20486 127.204C7.36998 127.549 8.01538 126.462 7.32497 126.841C7.40001 126.698 7.34941 126.637 7.42445 126.494L7.17867 126.698C7.00419 126.611 6.91788 126.567 6.83908 126.348L6.68894 126.528C6.59513 126.445 7.30622 125.825 7.24994 125.725L6.85786 125.999C6.72841 125.827 6.26683 125.918 6.4732 125.48C6.42067 125.527 6.31752 125.618 6.32315 125.657C6.24998 125.586 5.82785 125.55 6.36254 125.17C6.02859 125.435 6.19176 125.021 6.26681 124.813L6.03229 125.023C6.28557 124.696 6.37001 124.625 6.37188 124.449C6.31935 124.449 6.15802 124.583 6.2462 124.568C6.05108 124.585 6.42815 124.317 6.21615 124.317L6.08863 124.479C6.00045 124.407 6.09052 124.347 6.23685 124.153C6.29314 124.018 6.04361 124.035 5.81097 124.2C5.93855 124.081 6.08294 123.89 5.97788 123.888C5.88783 123.947 5.85034 124.007 5.83158 124.037C5.54829 124.024 5.94976 123.592 5.62895 123.682C5.54452 123.745 5.49952 123.769 5.46763 123.781C5.56331 123.894 5.64957 123.977 5.66083 123.954C5.43382 124.134 5.31938 124.069 5.06235 124.392C5.17492 124.181 5.44881 123.758 5.27058 123.748C5.24431 123.762 5.21997 123.773 5.18245 123.798L5.16367 123.828C5.12427 123.824 5.13177 123.788 5.15616 123.741C5.09613 123.741 5.05303 123.743 5.02864 123.718C4.83165 123.854 4.84291 123.688 4.79788 123.648C5.05116 123.458 4.96293 123.427 5.21433 123.324C5.18994 123.329 5.19186 123.356 5.20499 123.395C5.20311 123.409 5.20498 123.42 5.19372 123.435C5.19935 123.429 5.20687 123.422 5.2125 123.414C5.22938 123.45 5.25371 123.495 5.2856 123.545C5.38316 123.409 5.46008 123.286 5.28185 123.343C5.42443 123.193 5.56896 123.039 5.63463 122.963C5.23689 123.171 4.95165 123.191 4.72277 123.343C4.75278 123.09 4.55391 122.931 4.95728 122.476C4.9873 122.389 4.78662 122.533 4.70032 122.574C4.6703 122.634 4.70031 122.657 4.64215 122.721C4.70031 122.546 4.50331 122.442 4.8185 122.168C4.58961 122.179 4.55961 122.459 4.5052 122.276L4.4189 122.372C3.67971 122.493 4.92162 121.269 4.00795 121.475C4.06611 121.466 4.09238 121.462 4.15242 121.424C3.58583 121.294 3.88421 120.48 3.14877 120.484C2.97804 120.456 3.18433 120.286 3.30065 120.103L3.01181 120.284L3.25008 119.944C3.37203 119.625 2.39078 120.184 2.68908 119.672L2.89172 119.561C2.80729 119.519 2.84484 119.266 2.64035 119.434C2.66849 119.402 2.81667 119.27 2.70035 119.315L2.55588 119.419L2.68157 119.072C2.4827 119.019 2.12622 119.51 1.95924 119.342C1.963 119.23 2.23322 118.836 2.34766 118.792C2.3758 118.815 2.49025 118.798 2.63659 118.696L2.66471 118.577C3.08121 118.256 3.47891 117.89 3.88978 117.829L3.70968 118.128L3.94044 118.012L3.88602 117.912C4.11679 117.822 3.97044 117.98 3.87851 118.103C3.99483 118.031 4.0812 117.992 4.13749 117.982L3.811 118.384C3.98548 118.275 4.10556 118.095 4.24815 118.099C4.09618 118.286 3.84103 118.324 3.77912 118.498C4.00988 118.409 4.15432 118.277 4.03424 118.46C4.14869 118.388 4.20874 118.324 4.24064 118.265C4.14871 118.416 4.2894 118.449 4.0849 118.643C4.36069 118.522 4.15624 118.872 4.5521 118.571C4.46955 118.658 4.30817 118.898 4.32693 118.96C4.73968 118.515 4.4902 119.126 4.9855 118.72C4.60464 119.108 4.97229 119.106 4.82033 119.402C4.85035 119.37 4.90852 119.306 4.8785 119.311C4.96292 119.351 5.10552 119.276 5.21809 119.257C4.87101 119.53 4.86724 119.695 4.69089 119.914C5.09238 119.74 5.06984 119.553 5.41504 119.332C5.12612 119.544 5.23497 119.689 4.97606 119.84C5.23309 119.744 5.11868 119.817 5.43575 119.629C5.00236 119.972 5.40382 119.744 5.17118 119.999C5.45636 119.925 5.60269 119.71 5.54265 119.91C5.72839 119.867 5.81848 119.661 5.81848 119.661ZM6.83533 122.584C6.8372 122.582 6.83904 122.58 6.84091 122.58C6.83153 122.555 6.82401 122.534 6.81838 122.521C6.82213 122.533 6.82782 122.551 6.83533 122.584ZM6.98162 122.784C6.95348 122.767 6.92911 122.738 6.9066 122.706C6.81467 122.767 6.7321 122.844 6.75086 122.861C6.80152 122.803 6.88782 122.81 6.98162 122.784ZM4.93108 123.718C4.91982 123.777 4.97612 123.75 5.0324 123.714C5.02489 123.696 5.02108 123.673 5.01921 123.635C5.02671 123.628 5.03795 123.616 5.04733 123.607C5.00043 123.648 4.95922 123.688 4.93108 123.718Z" fill="#7EAF15"/>
<path d="M5.21368 123.406C5.21557 123.397 5.22502 123.388 5.22124 123.38C5.24768 123.369 5.2722 123.361 5.29297 123.355C5.26842 123.38 5.24574 123.405 5.22309 123.427C5.2212 123.42 5.21746 123.412 5.21368 123.406Z" fill="#7EAF15"/>
<path d="M20.5118 140.073L20.5023 140.075C20.5137 140.069 20.5269 140.063 20.542 140.05C20.5288 140.058 20.5212 140.065 20.5118 140.073Z" fill="#7EAF15"/>
<path d="M9.57422 125.077L9.5119 125.128L9.55338 125.066L9.57422 125.077Z" fill="#7EAF15"/>
<path d="M22.2447 140.254C22.2654 140.235 22.2899 140.218 22.3145 140.209C22.2993 140.222 22.273 140.237 22.2447 140.254Z" fill="#7EAF15"/>
<path d="M22.7157 140.615L22.8555 140.592C22.7837 140.611 22.744 140.615 22.7157 140.615Z" fill="#7EAF15"/>
<path d="M23.1494 140.815C23.1154 140.858 23.0871 140.89 23.0606 140.919L23.0588 140.919L23.1494 140.815Z" fill="#7EAF15"/>
<path d="M18.3544 135.447C18.3506 135.441 18.3506 135.434 18.3525 135.424C18.3695 135.352 18.3713 135.39 18.3544 135.447Z" fill="#7EAF15"/>
<path d="M19.3081 137.509C19.3326 137.452 19.3572 137.396 19.3666 137.354C19.41 137.363 19.4365 137.38 19.3081 137.509Z" fill="#7EAF15"/>
<path d="M17.002 133.446C17.0002 133.447 17.0002 133.447 16.9985 133.449C16.9968 133.446 16.9934 133.442 16.9899 133.439L17.002 133.446Z" fill="#7EAF15"/>
<path d="M19.2919 137.286C19.3636 137.269 19.3769 137.301 19.3656 137.354C19.3297 137.346 19.2806 137.342 19.2919 137.286Z" fill="#7EAF15"/>
<path d="M24.6649 142.065L24.6895 142.07C24.6743 142.086 24.6649 142.099 24.6554 142.11L24.6649 142.065Z" fill="#7EAF15"/>
<path d="M24.6582 142.11L24.6506 142.154C24.6412 142.146 24.6355 142.137 24.6582 142.11Z" fill="#7EAF15"/>
<path d="M24.6313 142.248L24.6483 142.154C24.6634 142.165 24.686 142.173 24.6313 142.248Z" fill="#7EAF15"/>
<path d="M24.1304 141.759L24.2041 141.67C24.1909 141.691 24.1682 141.719 24.1304 141.759Z" fill="#7EAF15"/>
<path d="M24.0215 141.61C24.0703 141.621 24.2692 141.506 24.2636 141.6L24.2054 141.67C24.3011 141.527 23.9183 141.78 24.0215 141.61Z" fill="#7EAF15"/>
<path d="M22.4915 142.118L22.666 142.157C22.5628 142.227 22.4221 142.323 22.454 142.393C22.0619 142.525 22.6716 142.221 22.4915 142.118Z" fill="#7EAF15"/>
<path d="M22.0273 141.914C22.0479 142.012 21.9035 142.042 21.8585 142.095C21.8979 141.978 21.9091 141.95 22.0273 141.914Z" fill="#7EAF15"/>
<path d="M19.5723 139.493L19.3752 139.705C19.3583 139.629 19.4522 139.623 19.5723 139.493Z" fill="#7EAF15"/>
<path d="M20.1642 137.97L20.335 137.887L20.168 138.094L20.1642 137.97Z" fill="#7EAF15"/>
<path d="M18.4346 139.142L18.4251 139.191L18.4251 139.042L18.4346 139.142Z" fill="#7EAF15"/>
<path d="M14.5122 134.854L14.7861 134.626C14.7674 134.701 14.4803 134.981 14.5122 134.854Z" fill="#7EAF15"/>
<path d="M13.0995 132.749C12.9494 132.847 12.818 132.872 12.9193 132.722C12.9756 132.749 13.1145 132.698 13.0995 132.749Z" fill="#7EAF15"/>
<path d="M7.78613 127.402L7.72575 127.517L7.74271 127.379L7.78613 127.402Z" fill="#7EAF15"/>
</svg>
