<svg width="183" height="285" viewBox="0 0 183 285" fill="none" xmlns="http://www.w3.org/2000/svg">
<path d="M22.2344 21.4446C29.0409 10.9088 42.509 7.73522 53.8898 5.77154C67.6627 3.39444 81.7464 3.08137 95.626 4.58606C109.574 6.09682 123.338 9.60776 136.37 14.9274C142.31 17.3531 148.281 20.0616 153.637 23.6759C158.155 26.7248 162.705 30.804 164.603 36.1631C169.041 48.6961 157.684 59.0861 147.881 64.126C135.909 70.2815 122.26 71.9048 109.032 71.9534C94.4181 72.0081 79.8902 70.0322 65.2883 69.7465C57.7593 69.5975 50.2215 69.9289 42.7755 71.1357C36.5818 72.1388 30.4532 73.7742 24.8605 76.7532C19.7741 79.4616 15.0607 83.4771 12.4524 88.8088C9.67231 94.4932 9.42077 100.989 11.1646 107.044C14.7736 119.565 25.1122 128.94 36.2058 134.56C61.6615 147.464 90.6077 142.661 117.132 136.463C124.427 134.758 131.696 132.861 139.047 131.411C145.75 130.089 152.855 129.265 159.535 131.156C169.37 133.937 175.368 142.838 177.18 152.787C179.069 163.146 176.206 173.722 169.743 181.844C162.164 191.368 151.203 197.38 139.882 200.888C112.839 209.269 83.5317 203.937 56.8177 214.078C45.3955 218.412 34.4057 225.477 27.7027 236.174C21.7015 245.752 19.1613 258.008 21.8348 269.155C23.1493 274.636 25.8257 279.168 29.5768 283.235C31.522 285.342 34.6188 282.156 32.6766 280.053C25.2572 272.013 24.4224 259.513 27.2942 249.357C30.622 237.59 39.0539 228.784 49.3748 223.03C74.6558 208.934 104.694 213.497 132.018 207.98C154.448 203.451 179.543 189.367 182.373 163.636C183.51 153.316 180.718 142.132 173.79 134.39C170.015 130.171 165.006 127.304 159.576 126.037C152.553 124.398 145.291 125.189 138.295 126.554C123.287 129.475 108.617 133.968 93.4944 136.317C80.1448 138.39 66.3985 138.825 53.1821 135.615C41.2951 132.731 29.3933 126.827 21.595 116.89C17.8497 112.118 14.966 106.075 14.8061 99.8584C14.6551 93.9917 17.1805 88.7936 21.4143 84.9392C25.6658 81.0696 31.1786 78.7808 36.6084 77.3095C43.7436 75.3793 51.1541 74.6466 58.5113 74.4581C73.5247 74.0751 88.4583 76.0753 103.451 76.4249C116.952 76.741 130.893 75.7865 143.618 70.7892C154.578 66.4848 167.238 58.3018 169.391 45.3888C171.54 32.5063 161.533 23.1621 151.493 17.5871C139.373 10.8571 125.845 6.29134 112.389 3.41572C98.5807 0.467145 84.3874 -0.60283 70.3095 0.324298C63.3816 0.780263 56.4714 1.70432 49.6649 3.10565C43.6844 4.33676 37.8756 6.07867 32.4635 9.00901C27.6021 11.6414 23.318 15.5231 20.535 20.4141C19.8866 21.557 21.5386 22.5207 22.2344 21.4446Z" fill="#7EAF15"/>
<path d="M31.3532 284.038C34.0444 280.776 36.5935 277.557 40.0575 275.107C41.7391 273.919 43.5066 272.858 45.3748 272.004C47.2844 271.131 49.4724 270.763 51.0771 269.335C52.0541 268.465 51.5566 266.578 50.2983 266.31C47.9653 265.812 45.6768 266.976 43.6014 267.97C41.4638 268.991 39.4386 270.256 37.5734 271.736C33.9762 274.59 30.6249 278.196 28.8722 282.555C28.3067 283.959 30.4265 285.16 31.3532 284.038Z" fill="#7EAF15"/>
<path d="M30.1363 283.542C29.109 280.91 26.6782 278.581 24.7745 276.584C22.6606 274.365 20.4194 272.328 18.0361 270.419C15.7031 268.553 13.299 266.796 10.7854 265.197C8.20963 263.559 5.41184 261.631 2.37125 261.133C0.734013 260.862 -0.909155 262.893 0.588934 264.276C2.7058 266.234 5.37628 267.407 7.81882 268.869C10.3472 270.383 12.8164 272.024 15.1967 273.772C17.5031 275.465 19.7502 277.274 21.9263 279.14C23.0217 280.083 24.0877 281.058 25.1713 282.016C26.243 282.961 27.2703 284.132 28.5256 284.813C29.2835 285.226 30.5153 284.518 30.1363 283.542Z" fill="#7EAF15"/>
</svg>
