<svg width="165" height="164" viewBox="0 0 165 164" fill="none" xmlns="http://www.w3.org/2000/svg">
<path d="M30.7777 149.511C28.9288 148.243 27.5462 146.554 25.6256 145.409C25.769 146.467 25.9125 147.526 26.0559 148.585C35.1262 137.485 43.3104 125.729 52.6471 114.813C61.6765 104.253 71.2027 94.1157 81.1846 84.4414C101.651 64.604 124.037 46.6446 147.555 30.5121C149.579 29.1228 147.776 25.8353 145.645 27.1686C121.205 42.4054 98.675 60.3038 78.0657 80.365C67.7713 90.3906 57.9684 100.905 48.6983 111.867C39.5716 122.666 30.0456 133.974 22.8549 146.167C22.3478 147.027 22.6142 148.493 23.618 148.91C25.7742 149.821 28.043 149.979 30.2607 150.747C31.0392 151.022 31.3718 149.918 30.7777 149.511Z" fill="#7EAF15"/>
<path d="M147.617 21.5144C134.736 17.8248 120.652 16.2371 107.459 19.1888C105.425 19.6418 105.794 23.0208 107.935 22.8376C121.087 21.7282 133.896 21.4382 146.849 24.4459C148.754 24.9039 149.512 22.064 147.617 21.5144Z" fill="#7EAF15"/>
<path d="M147.908 22.9646C144.595 32.6492 144.421 42.797 147.555 52.5477C148.047 54.0745 150.485 53.4434 149.988 51.9116C146.946 42.6291 146.669 32.7359 149.358 23.3363C149.619 22.4152 148.216 22.069 147.908 22.9646Z" fill="#7EAF15"/>
</svg>
