<svg width="414" height="116" viewBox="0 0 414 116" fill="none" xmlns="http://www.w3.org/2000/svg">
<path d="M197.139 7.49157C193.519 7.9995 195.615 8.80615 194.95 9.54315C190.707 10.564 192.829 9.07514 191.269 8.76142C188.631 9.5034 186.75 10.8479 184.745 11.1417C184.566 10.9874 184.162 10.9873 184.577 10.6885C183.237 11.3608 181.136 11.7244 178.978 12.1277C176.826 12.556 174.632 13.0538 173.093 13.9054C172.833 13.8556 172.689 13.7859 172.613 13.7162C173.252 14.1594 173.441 14.6972 173.41 15.1106C171.81 15.4342 170.573 16.3604 169.831 15.7678C170.818 15.6035 170.844 15.2998 171.258 14.991L169.642 15.6185C167.924 14.8865 171.866 14.8317 171.713 14.0797C168.497 15.0358 164.851 16.5945 162.285 16.7986C161.543 15.8873 168.088 15.3446 164.55 15.0956L168.517 14.7371C165.225 13.7312 170.905 14.3984 167.832 13.2382C165.24 13.5818 163.829 13.9802 162.423 14.3785C161.022 14.7968 159.626 15.2301 157.049 15.6235C156.027 16.4153 157.607 16.3604 156.584 17.1522C149.59 19.6769 150.326 15.8475 145.316 18.3274C144.099 19.3084 143.874 20.6828 139.952 20.8969L140.965 19.4828C136.021 20.5235 138.556 21.7435 133.229 22.1967C134.032 21.5443 136.997 20.9269 136.22 20.9667C132.666 20.8671 134.021 22.1518 131.465 22.7493L130.683 21.8879C125.514 23.3569 119.977 25.5431 114.276 27.2013C114.511 26.8228 115.411 26.2601 113.979 26.3149C106.903 28.8396 98.5028 30.4132 91.4114 32.0017L89.029 33.6351C88.4103 33.8093 87.7661 33.6002 88.3796 33.2367C85.5778 33.7346 88.4103 33.8094 87.219 34.5314C85.7056 35.0543 85.0357 34.6609 85.9254 34.1181C84.7954 34.6609 83.4048 35.2534 81.8965 35.9306C80.3883 36.5979 78.7421 37.2901 77.0753 37.9325C73.7418 39.2173 70.3059 40.3078 67.6626 40.6713L68.5471 40.1087C66.5429 40.5569 65.6174 41.3935 64.6971 42.1205C63.7768 42.8575 62.877 43.5248 60.9546 43.7588L61.5835 43.3754C59.4617 44.0128 57.3144 44.7398 55.1773 45.4868C54.1087 45.8652 53.0401 46.2387 51.9818 46.6122C50.9285 47.0056 49.8854 47.3939 48.8577 47.7774C44.7368 49.2962 40.8256 50.6159 37.4153 51.1736C36.6791 52.7721 29.0559 53.8627 29.2042 55.6952C26.6938 56.223 25.7378 56.2777 24.5567 56.462C23.9688 56.5566 23.3195 56.6811 22.394 56.9102C21.4686 57.1393 20.2621 57.473 18.5033 58.0705C16.6525 58.7976 16.2689 60.2516 14.1829 61.5563L13.6768 60.7795C13.2525 61.1928 12.8331 61.6011 12.4241 62.0393L11.8157 62.6817L11.2278 63.3489C10.5018 63.3639 9.78087 63.4336 9.0344 63.5133C8.71741 63.7772 8.42085 64.081 8.11919 64.3698C7.81754 64.6586 7.51589 64.9525 7.23469 65.2712C8.02717 64.6288 9.14678 64.2553 9.18768 64.5491C7.80723 65.8439 6.00256 67.3378 4.60166 68.757C4.2591 69.1155 3.9318 69.4541 3.62504 69.7579C3.3285 70.0716 3.07783 70.3654 2.84264 70.6044C2.36715 71.0775 2.0655 71.3813 1.9479 71.3564L1.51352 72.5415C1.39592 72.9498 1.2936 73.3631 1.18623 73.7714C1.06864 74.1798 1.00218 74.5932 0.940827 75.0065C0.884586 75.4198 0.797639 75.8332 0.7823 76.2465C0.63403 77.8997 0.761839 79.5231 1.0277 81.0817C0.628907 80.9124 0.363132 79.309 0.225087 77.9694C0.306891 78.6317 0.368185 79.1446 0.419313 79.543C0.475553 79.9314 0.496074 80.2103 0.490962 80.4144C0.480736 80.8228 0.358029 80.9373 0.235322 81.0419C0.117729 81.1415 -0.00495829 81.2361 0.000154488 81.5947C0.0103801 81.9482 0.10224 82.6056 0.593067 83.7111C0.664646 83.0488 1.21677 83.9251 1.42639 83.9799C1.43662 85.1451 1.85604 87.0175 2.76101 88.8799C3.65063 90.7473 4.98494 92.5948 6.33471 93.9592L5.3531 93.79C5.62919 94.1336 5.90012 94.4871 6.19666 94.8257C6.50342 95.1543 6.81022 95.488 7.1221 95.8166C7.77142 96.454 8.46165 97.1015 9.16721 97.6493C10.5783 98.7846 12.1172 99.8004 13.7175 100.682C16.9335 102.445 20.3746 103.724 23.7746 104.835C21.4278 103.729 22.3992 102.898 24.3727 103.446L24.8533 104.621C26.3105 104.442 22.9156 103.63 25.7481 103.739C28.2022 104.576 27.1184 105.293 25.5641 105.174C26.6224 105.373 27.6807 105.552 28.7288 105.711C28.8311 106.04 28.0742 106 27.7777 106.304C28.4935 106.184 29.7513 106.772 31.096 107.29C32.4356 107.793 33.8672 108.266 34.8949 107.962L35.0022 108.286C41.7511 109.77 44.8953 109.994 50.4325 110.821C50.6779 109.999 52.8048 110.542 54.5534 110.094C58.5618 110.91 63.0048 112.135 67.9335 112.509C71.4255 112.414 69.0072 111.896 70.6075 111.543C70.7864 112.339 75.7051 112.633 73.1129 112.992C74.5905 113.071 75.8021 113.136 76.9013 113.196C78.0057 113.236 78.9977 113.261 80.0407 113.276C82.1267 113.315 84.4069 113.256 88.1495 113.126C87.357 112.773 86.452 112.593 86.9377 112.354C88.2926 112.305 89.9953 112.802 89.7857 113.166L89.4277 113.231C93.6304 112.817 98.4262 113.525 103.028 114.097C107.624 114.685 112.021 115.163 115.344 114.381L114.971 114.456L121.858 113.649C125.023 113.788 119.961 114.222 122.298 114.7C129.716 113.41 134.021 114.889 140.126 113.998C142.493 115.113 146.691 115.048 151.093 114.879C155.495 114.695 160.097 114.396 163.302 115.083L162.929 114.555C164.57 114.018 164.928 114.839 166.145 114.944C165.966 114.535 164.351 114.486 165.368 114.187C179.331 113.355 194.219 114.476 208.561 114.575C213.806 114.56 211.449 111.737 218.091 112.812L216.25 113.853C226.783 112.364 237.867 113.186 248.169 111.767C247.561 112.021 247.556 112.315 246.549 112.349C248.762 112.987 254.632 112.061 254.642 111.468C256.258 111.463 255.041 111.981 256.043 112.235C258.257 112.563 261.498 111.079 262.7 111.742C262.904 111.851 262.096 112.001 261.698 112.075C263.109 111.672 268.355 111.866 266.949 111.099C270.85 111.304 274.352 110.372 277.471 110.711C279.439 109.695 284.138 110.811 284.705 109.471C284.501 110.836 291.567 110.193 293.985 109.431C293.188 109.884 296.143 109.735 295.212 110.353C298.009 110.168 300.56 109.77 300.028 109.108C305.284 110.427 310.305 107.205 313.342 109.083C321.609 107.848 329.258 106.832 336.702 106.005C336.534 107.37 328.455 106.697 328.875 108.087C335.925 107.061 339.928 105.612 346.974 105.423C348.809 105.472 345.987 106.08 345.389 106.354C352.404 105.288 359.127 105.502 365.421 104.013C365.421 104.138 364.746 104.367 364.112 104.531C365.359 104.352 367.062 104.372 366.837 103.784L365.635 104.103C364.577 103.784 365.769 103.172 367.226 102.574C368.683 101.972 370.406 101.339 370.477 101.095C369.562 102.111 371.137 102.016 372.568 101.927C373.995 101.852 375.304 101.857 373.816 103.241C374.624 102.997 375.6 102.504 375.335 102.136C376.577 102.007 377.017 102.166 375.871 102.868C376.981 102.559 377.702 102.315 378.223 102.091C378.745 101.857 379.062 101.668 379.374 101.494C379.68 101.319 379.982 101.155 380.452 100.976C380.688 100.886 380.969 100.796 381.316 100.697C381.659 100.587 382.073 100.463 382.569 100.328C382.636 100.617 381.858 100.951 381.531 101.399C382.477 100.841 383.418 100.284 384.543 99.7806C385.1 99.5067 385.708 99.2427 386.388 98.9938C387.068 98.7497 387.825 98.5257 388.669 98.2667C388.531 98.5058 389.001 98.5854 388.009 98.9439C388.72 98.67 389.389 98.3862 390.039 98.0974C390.361 97.953 390.683 97.8086 390.99 97.6542C391.297 97.4899 391.598 97.3256 391.895 97.1613C392.483 96.8226 393.066 96.494 393.643 96.1653C394.211 95.8217 394.758 95.4432 395.315 95.0896C397.565 93.6754 399.728 92.1117 402.616 90.4784C402.197 91.569 402.724 91.3499 403.491 90.8818C404.273 90.4386 405.208 89.7066 405.735 90.0103C406.185 89.5622 406.594 89.0841 407.018 88.621C407.427 88.1429 407.821 87.65 408.215 87.1669L406.768 87.8641C407.923 86.7337 408.767 85.444 409.503 84.1841C409.861 83.5467 410.209 82.9242 410.557 82.3067C410.879 81.6743 411.267 81.1016 411.63 80.4891C411.533 80.8924 411.426 81.2909 411.288 81.6743C411.155 82.0627 411.027 82.4562 410.879 82.8446C411.901 81.0668 412.719 79.1247 413.143 77.0481C412.918 77.6108 412.714 78.1736 412.428 78.6915L412.024 79.4733C411.886 79.7323 411.717 79.9713 411.569 80.2153C411.799 79.4235 411.748 78.9952 411.671 78.7711C411.584 78.547 411.436 78.5072 411.328 78.4475C411.083 78.318 411.114 78.1686 411.748 76.2215C411.727 76.6398 411.87 75.8879 412.095 74.8172C412.126 74.5434 412.162 74.2545 412.193 73.9558C412.223 73.657 412.295 73.3532 412.295 73.0494C412.31 72.7506 412.336 72.4518 412.371 72.173C412.387 72.0335 412.407 71.8992 412.433 71.7697C412.443 71.6452 412.453 71.5256 412.474 71.4111C412.474 71.4111 412.474 71.421 412.479 71.421C412.3 71.0476 412.126 70.6741 411.942 70.2857C411.717 69.9172 411.497 69.5438 411.288 69.1504C410.838 68.3785 410.337 67.527 409.743 66.5161C409.708 66.1576 410.025 66.0629 410.362 66.0131C410.694 65.9633 411.042 65.9583 411.011 65.7093C410.899 65.6545 410.781 65.5849 410.659 65.5002C410.531 65.4205 410.388 65.3309 410.245 65.2263C409.953 65.0221 409.646 64.7632 409.314 64.4794C408.956 64.2254 408.583 63.9416 408.194 63.6428C407.801 63.354 407.366 63.0999 406.942 62.8211C405.208 61.7704 403.271 61.143 402.187 61.2774C402.877 61.2824 403.133 60.7546 402.964 60.5604C402.453 60.6251 401.952 60.7495 401.461 60.8591C400.801 60.5155 400.413 60.3413 400.244 60.172C400.075 60.0076 400.116 59.8682 400.295 59.669C399.211 59.3453 398.736 59.3553 398.557 59.43C398.378 59.5146 398.49 59.7038 398.582 59.8681C398.669 60.0374 398.736 60.1869 398.475 60.1919C398.209 60.1919 397.621 60.0474 396.374 59.7038C396.783 59.7087 396.609 59.5643 397.468 59.5892C394.922 58.9867 392.406 58.8971 389.993 58.8871C387.605 58.9021 385.274 58.917 382.973 58.6332C381.654 57.458 387.028 58.5236 385.504 57.5127C378.816 57.4082 371.638 58.3693 365.196 57.951L366.397 58.1003C365.472 59.659 361.607 57.2439 358.324 57.946C359.127 57.8415 359.383 57.0795 359.168 57.2538C356.959 57.1044 354.694 57.1392 352.148 57.3384C349.602 57.5276 346.769 57.8116 343.421 58.0606L344.249 57.6522C341.641 57.2638 337.382 57.5077 334.565 57.3484C333.737 57.7667 332.126 57.7169 333.113 58.2996C324.38 56.1185 316.609 59.918 308.853 58.3095C309.773 58.2697 311.031 57.8663 310.3 57.8962C308.117 58.1103 305.939 58.2996 303.761 58.5535C304.313 59.2158 304.64 58.922 306.041 59.3951C305.233 59.8433 303.403 60.2615 301.782 60.3412C304.702 59.7287 301.7 59.2358 300.407 58.9171C300.632 59.1162 300.207 59.3751 300.33 59.5843C296.843 58.5385 299.834 61.0036 295.125 60.4209L295.35 60.0475C293.612 60.3114 292.037 60.9139 290.151 60.9289C289.317 60.1819 291.981 60.4359 292.063 59.7735C289.419 59.9927 286.95 61.626 284.501 60.9886C285.605 60.6948 287.221 60.5853 288.33 60.2915C285.661 59.5246 285.37 59.7835 283.422 59.7636L283.616 59.7735C282.113 59.7238 280.61 59.6989 279.107 59.679L280.267 59.8432C277.128 62.1837 273.559 60.7446 269.229 62.4725C273.437 60.8242 269.878 61.6658 270.129 60.7346C268.968 60.5802 267.214 60.4657 267.685 60.162C265.65 61.0832 264.111 59.913 261.248 61.2475C261.084 60.9687 258.993 61.4268 259.392 60.655C256.677 61.138 260.092 61.0981 259.898 61.4865C257.838 62.1638 255.337 62.1439 252.602 62.1688C249.872 62.2136 246.901 62.2783 243.957 63.324C238.808 64.5092 237.969 65.5799 233.209 66.6655C232.366 66.541 232.662 66.2372 233.173 65.9583C233.685 65.6795 234.406 65.4404 234.406 65.4404C231.722 65.3557 229.753 65.6994 227.324 66.3567C227.79 66.038 227.243 65.8937 226.445 65.6696C224.467 66.0082 225.264 66.8945 222.585 66.8198C222.989 66.4364 223.49 65.8488 224.405 65.4007C222.094 65.9634 219.865 66.8547 217.488 67.4622C216.767 67.0539 218.832 66.4862 219.64 66.0331C216.951 66.6555 212.656 67.5169 211.94 68.4332L213.73 68.4631C212.743 68.6474 213.111 67.8556 213.822 67.6016C216.056 66.6406 217.227 67.3876 217.401 67.6565L215.708 68.0946C217.738 69.5288 222.58 66.7949 226.077 66.4563L224.804 67.8805L228.219 66.3866C229.022 66.6057 229.636 67.2282 227.948 67.6365C230.52 67.9154 230.091 66.9044 232.32 67.3028C232.57 67.3775 232.473 67.4523 232.259 67.527L234.641 66.8447C234.201 67.1634 235.157 67.6564 233.644 67.6763C238.097 67.8506 240.567 65.9086 242.331 66.6456L241.973 66.7651C247.98 65.6297 242.443 65.779 246.871 64.1955L250.194 66.1077L250.69 65.1367C251.319 65.1019 252.566 65.042 252.377 65.4254C254.637 64.559 251.938 65.0719 253.226 64.3449C254.78 64.6038 256.846 64.2752 258.63 64.081C260.42 63.8967 261.923 63.8171 262.332 64.5093C263.349 63.7175 259.392 64.2453 262.567 63.4685C263.641 64.9375 266.269 62.8559 269.096 63.319C268.324 64.2005 265.676 64.0162 268.498 64.4794C270.037 62.9506 273.897 64.34 276.198 63.8868C276.208 63.344 277.466 63.1298 279.204 62.9705C280.073 62.9008 281.06 62.8211 282.077 62.7365C283.095 62.6618 284.133 62.5672 285.104 62.4128C284.884 62.8062 292.502 62.4974 296.163 62.7065L296.066 62.8958C296.705 61.7654 300.473 61.7754 303.193 61.4069C303.122 62.0692 302.641 62.353 301.179 62.7215L303.745 62.5821C304.333 62.2036 305.126 61.9596 306.787 61.7704L306.179 62.6169C309.594 62.4377 313.025 61.382 317.448 61.7604C317.672 60.9886 313.863 59.7585 318.511 59.0863C318.7 59.4946 318.895 60.1968 317.678 60.401C318.076 60.3313 319.094 60.0176 319.902 60.172L318.061 60.9139C320.076 61.1679 319.094 60.3063 320.699 60.3312C320.684 60.9238 321.901 60.7196 321.686 61.1977C321.277 61.2674 320.28 60.9886 319.672 61.2376C321.482 61.2973 323.68 61.5911 324.411 62.0194C324.242 61.6858 324.391 61.2276 325.71 61.1131C329.13 60.9836 326.901 61.7904 328.9 62.0443C329.718 61.6011 331.912 62.0094 331.953 61.123C332.955 61.1131 333.149 61.5264 333.538 61.7555C335.301 61.3471 341.805 61.5413 339.801 60.63L339.346 60.5752C339.432 60.5553 339.53 60.5554 339.637 60.5355C339.622 60.5355 339.637 60.5355 339.622 60.5355H339.637C342.541 60.0425 345.563 60.2068 348.574 60.386C351.586 60.5703 354.592 60.8193 357.475 60.6899L357.465 60.9836C360.911 60.7047 365.124 60.8691 367.599 60.3164C368.616 60.3463 369.987 60.9189 369.542 61.2575C372.175 61.1081 372.482 60.7844 376.265 61.372C373.606 61.8152 377.16 61.8551 373.545 61.6758C376.95 62.0194 377.707 62.5074 381.398 61.86C380.12 62.5622 383.929 62.9157 385.56 62.7564L383.193 62.119C385.023 62.0841 386.613 62.2136 388.229 62.343L387.309 63.2992C388.173 63.4885 389.027 63.598 389.845 63.6677C390.642 63.7374 391.424 63.7673 392.181 63.7773C393.694 63.8022 395.152 63.7225 396.532 63.7623C397.918 63.7922 399.252 63.9018 400.449 64.2802C401.655 64.6338 402.713 65.2761 403.419 66.2272C403.828 66.2621 403.895 66.1575 403.762 65.9782C403.695 65.8886 403.588 65.7791 403.45 65.6596C403.306 65.5451 403.128 65.4354 402.954 65.3109C402.274 64.813 401.44 64.3898 402.315 64.2653C403.659 64.8778 404.738 65.9484 405.367 66.8946C405.975 67.8805 406.19 68.6822 406.41 68.9511C406.563 69.3146 406.763 69.5686 406.896 69.8276C407.029 70.0865 407.182 70.2907 407.341 70.47C407.612 70.8434 407.918 71.1223 408.24 71.426C408.373 71.5854 408.516 71.7497 408.655 71.9389C408.793 72.1282 408.946 72.3374 409.017 72.6013C409.099 72.8602 409.191 73.1541 409.227 73.5026C409.222 73.8562 409.227 74.2545 409.13 74.7077C409.355 74.4936 409.667 74.2745 409.999 74.4787C410.173 74.5832 410.306 74.8023 410.388 75.2007C410.429 75.3999 410.464 75.6439 410.48 75.9427C410.48 76.2365 410.434 76.5801 410.378 76.9835C410.28 77.347 410.117 77.6557 409.963 77.9246C409.81 78.1935 409.657 78.4226 409.503 78.6019C409.166 78.9604 408.859 79.1546 408.614 79.2044C408.123 79.309 407.872 78.8558 408.108 78.0241C408.297 77.4067 408.516 77.1527 408.624 77.2125C408.644 77.103 408.675 76.9933 408.69 76.8788C408.7 76.7643 408.711 76.6547 408.716 76.5452C408.731 76.3311 408.736 76.1418 408.716 76.0073C408.68 75.7384 408.547 75.7036 408.225 76.1418L408.491 76.5552C408.348 76.849 408.072 77.2673 407.857 77.7254C407.611 78.1786 407.315 78.6666 407.049 79.0799C406.752 79.4882 406.487 79.8268 406.292 79.9961C406.083 80.1604 405.95 80.1604 405.945 79.9015C405.52 80.8327 405.52 81.1115 405.756 80.992C405.873 80.9323 406.052 80.773 406.262 80.5539C406.369 80.4443 406.487 80.3198 406.604 80.1854C406.712 80.0459 406.824 79.8916 406.942 79.7373C405.817 81.1366 404.943 82.2271 403.992 83.3127C403.02 84.3733 401.972 85.434 400.356 86.4399C400.97 86.2507 401.665 86.186 401.195 86.5794C400.587 86.9628 400.131 87.2815 399.722 87.5354C399.313 87.7894 399.007 87.9986 398.777 88.1729C398.317 88.5264 398.153 88.7604 398.045 88.9745C397.938 89.1886 397.897 89.3929 397.662 89.6767C397.422 89.9506 396.992 90.3091 396.123 90.8469C394.978 91.1855 395.003 90.7971 394.891 90.6328C394.784 90.4734 394.543 90.5133 392.825 91.6088C390.438 92.3558 391.956 90.9914 392.672 90.3092C392.309 90.5831 391.936 90.832 391.557 91.0561C391.174 91.2653 390.775 91.4395 390.387 91.6038C389.599 91.9126 388.853 92.1914 388.091 92.3358C387.339 92.5002 386.634 92.6197 385.99 92.7342C385.35 92.8587 384.742 92.9235 384.241 93.058C384.819 92.7692 385.407 92.5052 385.959 92.1865C384.952 92.7393 384.036 92.9882 383.132 93.287L384.404 93.6256C383.285 93.8597 382.365 94.1385 382.293 93.8397C381.286 94.5966 383.525 94.7261 381.414 95.9661C381.015 95.981 380.539 96.0955 380.033 96.23C379.522 96.3545 378.985 96.5139 378.469 96.6433C377.957 96.7778 377.472 96.8824 377.068 96.9073C376.664 96.9222 376.337 96.8525 376.158 96.6483C378.586 96.2948 378.387 96.0607 378.095 95.8366C377.804 95.6025 377.416 95.3287 379.379 94.7909C378.643 95.0748 377.707 95.2987 376.557 95.4332C376.362 95.3635 376.674 95.2141 376.965 95.0846C372.272 95.1793 375.125 96.5886 370.329 97.3903C370.851 96.7778 369.051 96.5587 368.289 96.7828C370.222 96.5139 369.358 97.5197 367.624 98.187C364.449 98.177 364.27 98.924 362.619 99.0535C363.253 99.0485 363.887 99.0534 364.521 99.0385C363.948 99.641 362.363 99.7457 360.18 100.134C359.95 99.7457 362.149 99.651 361.346 99.5514C358.989 100.727 355.732 99.1133 352.358 99.9947C350.742 99.7606 352.122 99.0137 350.711 98.8792C346.907 99.8453 346.483 98.4559 342.475 99.3174C343.697 99.9448 343.886 99.7556 341.089 100.657L347.715 99.6709L343.518 101.016C345.532 100.881 347.725 100.259 348.942 100.293C346.948 101.02 347.148 100.831 348.155 101.349C345.322 100.483 342.746 102.365 339.509 101.877L339.473 100.109C334.637 99.676 331.043 101.593 324.8 101.578L326.819 101.748C326.037 102.499 322.99 102.111 320.996 102.519C321.144 101.917 319.871 101.782 318.987 101.474C319.12 101.902 314.436 101.723 313.95 102.933L311.128 102.33C306.092 102.33 305.509 104.347 300.667 104.437C302.084 103.71 299.865 103.421 303.065 102.778C301.455 102.868 299.998 102.843 299.998 103.251C299.036 102.938 295.58 104.307 294.062 103.834C293.397 104.128 293.213 104.755 291.398 104.805C291.194 104.695 291.388 104.516 291.388 104.516C291.398 104.805 288.576 105.064 290.196 105.632C287.661 104.845 284.194 105.064 280.809 105.313C277.425 105.552 274.117 105.806 271.918 105.124C268.411 105.497 264.183 105.891 260.987 106.065C261.181 105.881 260.982 105.771 261.59 105.806C257.158 105.452 258.963 107.619 253.916 107.225C251.314 106.384 256.554 106.593 254.944 106.304C254.161 104.402 248.906 106.832 245.48 105.821L246.293 105.676C243.685 105.114 240.03 106.662 235.812 106.677C235.812 106.677 236.011 106.498 235.827 106.384C232.985 107.474 227.534 107.987 223.485 108.4C224.722 107.599 225.315 107.937 224.518 107.19C222.703 107.36 225.095 108.415 221.471 108.744C220.274 108.366 217.646 108.077 217.273 107.265L220.693 107.121C218.904 106.11 216.266 107.29 214.456 107.155L214.67 106.682C209.43 106.986 209.394 108.171 203.75 108.226L204.343 108.565C201.29 109.805 201.74 107.977 198.688 108.913L197.727 107.758C195.702 108.102 190.63 109.063 186.985 109.352C189.035 108.43 193.289 107.912 195.917 107.32C193.902 107.37 189.071 107.549 188.033 108.156C188.841 108.027 189.858 107.718 190.666 107.882C188.212 108.858 184.965 109.381 180.946 109.441C181.616 107.155 170.46 109.028 167.52 107.3C163.972 107.778 160.449 107.713 156.778 107.579C153.107 107.444 149.288 107.205 145.152 107.295C148.102 109.058 142.734 107.36 143.255 109.182C141.328 109.312 140.591 109.287 140.417 109.167L134.568 108.097C133.183 107.569 136.399 107.693 136.22 107.28C131.997 107.145 134.446 106.508 131.654 106.025C132.227 106.677 130.187 106.961 127.784 106.717L131.173 107.554C125.273 108.53 126.071 106.035 120.13 106.986L122.011 106.413C118.959 106.752 110.779 106.364 107.778 107.783C107.241 107.564 106.54 107.056 107.88 106.941C100.625 106.648 91.667 108.176 86.0736 106.986L86.6463 106.568C85.2915 106.628 84.2536 107.295 82.5868 106.757C82.684 106.578 83.1543 106.344 82.5356 106.279C81.8147 106.389 78.9055 106.842 77.1365 106.468L78.6961 106.065C76.9424 105.821 75.3983 105.681 73.9565 105.672C72.5147 105.657 71.1905 105.731 69.897 105.816C68.5983 105.911 67.3353 106.005 66.0264 106.105C64.7176 106.165 63.3576 106.184 61.88 106.095C62.0437 104.815 56.6191 103.7 53.94 103.082L54.0626 102.913C52.0584 102.549 50.1872 102.345 48.4028 102.126C46.6185 101.907 44.9056 101.782 43.2082 101.628C41.5107 101.474 39.8337 101.319 38.1056 101.16C36.3877 100.951 34.6186 100.722 32.7422 100.423C30.6511 99.163 26.8933 98.0775 23.1405 96.5288C21.2692 95.752 19.3877 94.8656 17.7516 93.8049C17.3477 93.536 16.9388 93.277 16.5655 92.9932C16.3763 92.8538 16.1922 92.7143 16.0031 92.5748C15.8292 92.4255 15.6554 92.2811 15.4815 92.1367C14.7964 91.559 14.1828 90.9315 13.7073 90.3439C13.9629 90.7473 13.7637 90.9166 13.37 90.8818C13.1757 90.8619 12.9199 90.8072 12.6745 90.6926C12.4291 90.5731 12.1735 90.4137 11.9485 90.2244C11.7236 89.9107 11.4374 89.5572 11.0897 89.2385C10.7472 88.9098 10.4149 88.5612 10.1081 88.2575C9.55595 87.6101 9.22347 87.0723 9.82678 86.8781L10.0927 87.3412C10.1438 87.142 10.1642 86.9378 10.1488 86.7187C10.1488 86.4946 10.1233 86.2656 10.0722 86.0266C9.95459 85.5585 9.81659 85.0356 9.60185 84.5077C9.22862 83.4371 8.80418 82.247 8.63546 81.1863C8.0884 81.1564 7.53623 81.1066 6.98405 81.0469C7.35728 79.4235 7.63851 77.7901 8.16513 76.2016C8.70708 74.633 9.50983 73.0196 10.6346 71.5854C11.7748 70.1562 13.2013 68.9063 14.6073 68.0398C16.0235 67.1733 17.3733 66.6704 18.4726 66.7103C19.7866 65.6048 21.7704 64.7433 23.2428 63.7125L23.4932 64.5292C28.2021 62.8809 30.5796 62.0592 36.2395 59.5942L35.2986 60.6201C36.9296 60.0026 37.7171 59.0316 38.4738 58.0606C39.2305 57.0945 39.9718 56.1533 41.4699 55.5607L42.8502 56.3973C48.5611 54.261 54.7016 53.0958 59.9985 50.098C59.9678 50.3022 59.9269 50.7055 59.0168 51.079C61.7368 50.1677 69.7691 48.2405 68.2046 46.9458C68.6392 47.9467 74.2122 45.0934 77.1827 43.5945L76.9678 44.5406C79.2634 42.6732 79.2584 42.3695 82.8629 40.8905C83.773 40.7113 83.8393 41.2739 82.6123 41.4482C85.6646 40.9104 84.642 39.9742 88.3437 39.3119L87.1833 40.2182C90.2254 39.3667 89.8982 39.1675 91.3707 38.0769C93.1704 37.1855 97.1735 36.5482 97.8433 37.1358C98.1194 36.5831 99.5818 35.4625 101.448 35.1837C101.775 35.3878 101.172 35.7415 100.87 35.9158C106.116 35.0443 108.161 32.8781 111.893 32.6888C112.041 32.9328 112.308 33.0026 112.619 33.0026C108.575 34.1081 105.308 34.9696 105.594 34.8301C105.814 35.5671 109.112 34.7904 106.821 36.5283C109.27 35.2485 113.391 32.7736 116.679 32.2606C116.853 32.2905 117.026 32.3254 117.175 32.4101L116.868 32.5793C117.625 32.4648 118.269 32.2257 118.857 31.9419C119.91 31.8024 120.585 31.7278 121.567 31.4888C122.114 32.0067 125.417 30.8563 127.058 30.4679C126.705 29.6911 128.883 29.2728 126.7 29.1134C126.976 29.1035 126.419 29.2877 125.335 29.6014C125.094 29.6861 124.808 29.7757 124.66 29.8654C124.685 29.8355 124.716 29.8007 124.752 29.7658C123.683 30.0546 122.282 30.4331 120.698 30.8613C121.879 30.1193 123.136 29.4222 125.069 29.4123C125.769 28.6753 126.552 27.8984 127.007 27.515C128.28 27.7938 130.033 27.8137 131.567 27.8286C133.106 27.8685 134.425 27.9134 134.819 28.1923C137.268 27.3756 140.208 26.6087 142.882 25.7621C145.556 24.9155 147.964 23.9744 149.38 22.8888C150.771 22.3858 151.134 22.9784 151.727 23.1079C150.934 23.4365 149.943 23.6209 149.544 23.9396C152.325 22.9386 158.011 21.9825 158.466 20.7625C162.193 20.4836 156.645 22.1867 161.584 20.9567L160.986 21.4298C163.522 21.3202 165.756 20.9617 167.853 20.4139C169.949 19.8661 171.912 19.1541 173.916 18.4469C175.921 17.7498 177.956 17.0227 180.215 16.5447C182.475 16.0815 184.94 15.8027 187.777 15.9022C186.995 15.8923 186.606 15.8924 186.417 15.738C189.582 15.4591 192.757 14.986 195.942 14.4432C199.138 13.9602 202.344 13.3875 205.549 12.8348C211.945 11.6695 218.387 10.8628 224.676 10.8479C226.455 10.7881 227.416 10.5641 228.199 10.2703C228.981 9.98644 229.579 9.61293 230.627 9.23447L231.497 10.0511L235.065 8.63194C237.637 7.9796 239.963 8.29332 242.448 8.50745C243.067 8.56223 243.701 8.60704 244.35 8.63194C245 8.6668 245.664 8.68164 246.354 8.65674C247.735 8.60695 249.207 8.4029 250.833 7.90492L249.923 7.37206C252.316 7.28741 257.439 6.39105 257.101 7.11809C257.337 6.98862 257.832 6.42097 258.789 6.66L258.896 7.12308C260.823 6.6749 262.761 6.32126 264.694 5.92289C269.26 5.98264 264.116 7.8352 270.737 7.52148C273.181 7.18784 277.665 5.71875 276.729 5.45981C275.732 5.49965 274.173 5.32039 274.071 4.8523L276.315 4.46885C276.648 3.05461 278.319 1.52588 272.695 0.898438L268.866 1.98398L267.572 1.38644L270.834 1.14244C268.943 0.624549 267.803 1.25693 266.514 1.72004C266.177 1.38142 265.614 1.16229 264.837 1.07764L261.125 2.63635C260.624 2.12344 262.756 1.45608 260.174 1.31167C258.441 2.06859 261.974 2.38739 259.06 3.03475C257.158 2.5567 257.659 1.9989 255.527 2.71598C255.189 2.38234 255.634 2.11846 256.483 1.8894C254.581 2.477 251.37 2.49685 250.439 3.31352C248.435 2.69604 243.926 4.05554 243.987 2.73094C243.409 3.09446 240.684 4.11031 238.92 4.34436C241.998 2.43713 232.269 4.942 232.938 3.1742C231.819 4.00581 229.666 4.38419 227.279 4.71285C224.896 5.09131 222.268 5.41997 220.203 6.07729C220.428 5.93786 220.862 5.649 221.246 5.6739C218.843 5.85815 218.091 5.51955 216.521 5.44486C216.373 6.64995 212.692 7.36707 210.795 8.35305C207.717 7.66087 212.37 6.73458 211.301 5.7984C211.577 6.69972 206.367 7.47663 207.472 8.10905C205.14 7.74553 205.503 8.0543 204.205 7.26252C204.036 8.7664 202.164 7.81524 200.452 8.97551C197.113 8.73649 199.404 7.74052 195.927 8.70161C194.066 8.46756 197.139 7.49157 197.139 7.49157ZM114.337 27.4552C114.337 27.4452 114.332 27.4403 114.332 27.4403C115.038 27.2362 115.636 27.0619 116.019 26.9523C115.667 27.0569 115.181 27.1912 114.337 27.4552ZM107.46 29.3873C108.309 29.1832 109.352 28.8993 110.456 28.5856C110.779 28.7947 110.6 29.1582 109.905 29.3375C110.221 29.0437 108.555 29.3375 107.46 29.3873ZM123.581 31.1153C122.528 31.5087 122.119 31.4439 121.925 31.3144C122.436 31.17 123.029 30.9858 123.801 30.7318C123.826 30.692 123.878 30.6422 123.903 30.5974C123.837 30.7766 123.76 30.9559 123.581 31.1153Z" fill="#7EAF15"/>
</svg>
