<svg width="49" height="28" viewBox="0 0 49 28" fill="none" xmlns="http://www.w3.org/2000/svg">
<path d="M2.1957 11.4615C2.43246 10.9311 2.33344 10.2938 1.86206 9.92163C1.60377 9.71844 1.2702 9.90665 1.32186 10.2339C1.77386 13.0464 2.61757 15.7818 3.81217 18.3697C3.96068 18.6906 4.38472 18.4874 4.41485 18.2072C4.66669 15.8161 4.50954 13.395 3.96283 11.053C3.88103 10.698 3.32572 10.7793 3.32787 11.1386C3.3537 13.8441 3.38171 16.5496 3.40754 19.2552C3.41184 19.6059 3.96931 19.7065 4.04249 19.3407C4.74203 15.8588 4.88406 12.2806 4.44927 8.7581C4.39977 8.35387 3.83368 8.33676 3.80355 8.7581C3.56678 12.0497 3.8961 15.3733 4.76783 18.5579C4.83671 18.8103 5.12513 18.8446 5.30809 18.6991C7.11181 17.2597 7.91901 14.7659 7.3357 12.5459C7.23669 12.1695 6.74164 12.2935 6.70075 12.6314C6.44892 14.7488 6.89442 16.9132 7.94265 18.7718C8.07394 19.0028 8.47434 18.9686 8.53246 18.6948C9.10285 16.0021 8.98875 13.1982 8.1859 10.5633C8.10195 10.2852 7.61338 10.2317 7.56387 10.5633C7.09464 13.6645 8.0718 16.879 10.2135 19.1867C10.3792 19.3642 10.6934 19.2723 10.7537 19.0456C11.6319 15.7155 11.3973 12.1267 10.0714 8.9442C9.93366 8.61483 9.4666 8.65116 9.43646 9.02973C9.17602 12.4111 10.1962 15.8609 12.2626 18.5622C12.4283 18.7782 12.7619 18.7676 12.8523 18.4852C13.851 15.4118 13.6746 12.0454 12.4003 9.08105C12.2475 8.72602 11.7503 8.99768 11.8106 9.32918C12.409 12.5822 13.2613 15.7861 14.359 18.9066C14.4817 19.2552 14.9617 19.1846 14.994 18.821C15.2673 15.5679 15.1253 12.2935 14.5915 9.07254C14.5226 8.6619 13.9135 8.84151 13.9694 9.2436C14.4473 12.6891 15.3147 16.0748 16.5566 19.3279C16.6858 19.6658 17.1637 19.6145 17.1916 19.2423C17.4112 16.3486 17.3681 13.442 17.0646 10.5568C17.0216 10.1547 16.4017 10.1376 16.4189 10.5568C16.5459 13.5725 17.2906 16.5325 18.6057 19.253C18.7543 19.5589 19.1912 19.3835 19.2084 19.0905C19.3612 16.1454 19.0406 13.1854 18.2635 10.3408C18.1538 9.943 17.5317 10.112 17.6415 10.5119C18.2248 12.6464 18.8059 14.783 19.3892 16.9175C19.484 17.2619 20.035 17.1998 20.0242 16.8319C19.9446 14.4558 19.8671 12.0775 19.7874 9.70133C19.5872 9.7548 19.3871 9.80827 19.1848 9.86387C20.6829 12.7042 22.1809 15.5444 23.679 18.3847C23.8211 18.6542 24.3161 18.5429 24.2817 18.2221C23.9244 15.0204 23.1409 11.8807 21.9334 8.89073C21.7827 8.51858 21.193 8.65333 21.3113 9.06184C22.0884 11.7674 22.8676 14.475 23.6446 17.1806C23.7436 17.5249 24.2817 17.4629 24.2795 17.095C24.2602 14.3852 24.2408 11.6733 24.2214 8.96346C24.0105 8.99127 23.7996 9.02119 23.5865 9.04899C24.5206 11.5535 25.4548 14.058 26.3889 16.5604C26.5181 16.909 26.983 16.8384 27.0239 16.4748C27.2972 13.9446 27.2843 11.391 26.9894 8.86081C26.7785 8.88861 26.5675 8.91853 26.3544 8.94634C26.8861 11.6604 27.6481 14.3253 28.6317 16.9132C28.7501 17.2234 29.3054 17.217 29.2667 16.8277C28.9051 13.2282 28.339 9.64999 27.5684 6.11462C27.3726 6.19803 27.1745 6.27928 26.9787 6.36269C28.1195 8.76239 28.5951 11.4359 28.3734 14.0794C28.5844 14.0516 28.7953 14.0216 29.0084 13.9938C28.3842 9.62862 27.7578 5.2655 27.1336 0.900283C27.082 0.543109 26.4772 0.626553 26.4987 0.985865C26.9292 7.89621 28.0785 14.7381 29.3872 21.5308C29.7574 23.4557 30.1427 25.3785 30.5259 27.3012C30.5969 27.6563 31.1716 27.5749 31.1608 27.2156C30.9456 20.6347 30.7239 14.0238 29.5852 7.52408C29.2667 5.71041 28.8749 3.90952 28.3971 2.13007C28.2873 1.72157 27.7105 1.90123 27.7751 2.30118C28.5822 7.34011 29.3915 12.379 30.1987 17.4201C30.4268 18.8424 30.655 20.2647 30.8831 21.687C30.9348 22.0056 31.4363 21.98 31.5052 21.687C32.5448 17.2726 32.0756 12.7106 31.2835 8.29614C31.0554 7.03213 30.8013 5.77242 30.5452 4.51268C30.4634 4.10846 29.8435 4.27957 29.9232 4.6838C30.8638 9.50029 31.8023 14.3167 32.7429 19.1332C33.0076 20.4935 33.2745 21.8559 33.5392 23.2162C33.6103 23.5776 34.172 23.4857 34.1742 23.1306C34.2 18.25 34.0472 13.3714 33.7071 8.50146C33.6124 7.12623 33.5005 5.751 33.3757 4.37791C33.3391 3.97369 32.7127 3.95872 32.7299 4.37791C32.8914 8.40093 33.4876 12.4068 34.5121 16.3037C34.8027 17.4073 35.1277 18.5002 35.485 19.5824C35.5927 19.9054 36.163 19.8754 36.12 19.4969C35.6378 15.3348 35.1557 11.1728 34.6736 7.01075C34.4626 7.03855 34.2517 7.06852 34.0386 7.09633C34.7511 10.6916 35.6766 14.2441 36.8152 17.7303C37.1381 18.7184 37.4782 19.7021 37.8355 20.6796C37.9538 21.0068 38.4704 20.9747 38.4704 20.594C38.4683 16.2609 38.0507 11.9342 37.2242 7.68021C37.1445 7.27384 36.5246 7.44704 36.6021 7.85126C37.2801 11.4572 38.4704 14.9541 40.1235 18.2328C40.2461 18.4745 40.6573 18.4211 40.7132 18.1559C41.3503 15.2172 40.6013 12.0967 38.7158 9.75051C38.5049 9.48958 38.0981 9.77403 38.1756 10.0628C38.7632 12.2464 39.8523 14.2655 41.3439 15.9701C41.5398 16.1925 41.882 16.0021 41.8949 15.7433C41.9767 14.2355 41.5161 12.7213 40.6035 11.5171C40.3603 11.1963 39.8329 11.4722 40.046 11.8401C40.8123 13.1704 41.7184 14.4173 42.743 15.5637C42.87 15.7048 43.1691 15.6856 43.2509 15.4995C43.7137 14.4237 43.6319 13.1832 42.969 12.2037C42.799 12.3341 42.631 12.4625 42.461 12.5929C43.4447 13.6345 44.6522 14.4258 45.9953 14.9306C46.3848 15.076 46.5527 14.4579 46.1675 14.3125C45.7671 14.1607 45.3646 14.0109 44.9642 13.8591C44.622 13.7307 44.3939 14.2783 44.7146 14.4451C45.6251 14.9199 46.7013 15.0012 47.6634 14.629C48.0099 14.4964 47.9454 14.0387 47.5773 13.9981C45.7585 13.7949 43.9419 13.5939 42.1231 13.3907C41.7528 13.3501 41.6991 13.9211 42.037 14.0216C43.6556 14.4964 45.3517 14.6804 47.0371 14.5606C47.3793 14.5371 47.502 14.0088 47.1231 13.9297C44.6371 13.4142 42.2006 12.6956 39.8329 11.7866C39.7748 11.9919 39.7188 12.1994 39.6607 12.4047C41.4343 12.8859 43.2725 13.1127 45.1106 13.0742C45.1106 12.8603 45.1106 12.6464 45.1106 12.4325C43.0723 12.4753 41.0533 12.0069 39.2518 11.0616C39.1678 11.2562 39.086 11.4529 39.0021 11.6476C41.5462 12.533 44.1636 13.1918 46.8261 13.6196C47.2265 13.6837 47.4094 13.0934 46.9983 13.0014C45.412 12.6485 43.9139 12.0176 42.5557 11.13C42.4718 11.3246 42.39 11.5214 42.306 11.716C44.071 12.2315 45.7521 12.9822 47.3147 13.9489C47.3685 13.75 47.4223 13.5511 47.4783 13.3501C44.381 13.0271 41.3934 12.0432 38.6039 10.6894C35.7778 9.31846 33.1389 7.59252 30.5969 5.7596C29.1461 4.71374 27.7234 3.62724 26.3049 2.53647C26.2296 2.71826 26.1521 2.90221 26.0768 3.084C29.0579 3.27008 31.8496 5.01313 33.3305 7.58606C33.4768 7.44062 33.6253 7.29309 33.7717 7.14766C31.6709 5.73393 29.8112 3.99082 28.2572 1.9975C28.1259 2.16646 27.9967 2.33325 27.8654 2.50221C31.3416 4.80994 34.8177 7.11769 38.2939 9.42328C38.6469 9.65854 38.9396 9.11314 38.6189 8.86932C35.9305 6.82466 33.2422 4.78002 30.556 2.73536C30.4483 2.91929 30.3386 3.10538 30.2309 3.28932C33.4122 5.2527 36.5935 7.21395 39.7748 9.17734C40.6724 9.73128 41.5699 10.2852 42.4696 10.8392C42.5772 10.6552 42.687 10.4691 42.7946 10.2852C39.6263 8.74529 36.4579 7.2075 33.2895 5.6676C32.9193 5.48794 32.5964 6.01623 32.9645 6.22155C36.6947 8.30471 40.2978 10.606 43.7546 13.1105C43.8386 12.9159 43.9203 12.7191 44.0043 12.5245C40.3667 11.1749 36.6215 10.1269 32.8095 9.38908C32.6546 9.35913 32.4415 9.43181 32.4114 9.6136C32.0541 11.9277 32.123 14.2761 32.6245 16.5646C32.8203 16.4812 33.0184 16.3999 33.2142 16.3165C31.9034 14.0473 30.5926 11.778 29.2796 9.51095C29.1182 9.23077 28.6855 9.3591 28.6769 9.6735C28.6188 12.5031 29.3162 15.3348 30.6808 17.8179C31.0123 18.4232 31.3804 19.0178 31.8022 19.5653C32.1617 20.0337 32.6718 20.4786 33.3111 20.3481C33.8901 20.2283 34.2043 19.668 34.4024 19.1675C34.68 18.4638 34.8974 17.7174 35.0739 16.9817C35.4032 15.6065 35.5216 14.0729 34.8565 12.7726C34.3356 11.7566 33.3391 10.8712 32.1811 10.6894C31.0553 10.5119 30.0007 11.0573 29.3937 11.9941C28.8039 12.903 28.6295 14.0729 28.7199 15.1359C28.9589 17.9249 30.7002 20.532 33.0571 22.0142C33.2164 22.1147 33.5005 22.027 33.5306 21.8217C33.931 19.1097 33.1884 16.34 31.4772 14.1884C31.2835 13.9446 30.952 14.1735 30.9262 14.4152C30.6873 16.7079 30.8185 19.022 31.2964 21.2763C31.503 21.2185 31.7118 21.163 31.9185 21.1052C31.5762 19.745 30.8788 18.5002 29.8995 17.4928C29.6993 17.2875 29.3549 17.4479 29.3485 17.7195C29.2753 20.3844 29.4496 23.0472 29.8564 25.6822C29.893 25.9131 30.2503 26.0008 30.3967 25.8233C32.5061 23.2568 33.6662 19.993 33.6232 16.6758C33.6189 16.3229 33.0743 16.2288 32.9882 16.5903C32.4845 18.7269 32.4781 20.949 32.971 23.0878C33.0334 23.3616 33.4251 23.3958 33.5607 23.1648C34.7144 21.2079 35.2375 18.913 35.0265 16.6523C34.9964 16.3336 34.6133 16.2181 34.4239 16.4898C33.4531 17.8971 33.367 19.8369 34.2043 21.3276C34.3937 21.6655 34.6499 22.0505 35.0481 22.1596C35.4807 22.2794 35.8423 22.0099 36.0834 21.6784C36.6409 20.9149 37.0369 19.9802 37.3619 19.099C37.7472 18.0489 37.9904 16.9539 38.1067 15.8417C38.1347 15.5679 37.7321 15.4161 37.5556 15.615C36.4385 16.8747 36.2104 18.7483 37.0068 20.2326C37.1144 20.4358 37.4609 20.4486 37.5643 20.2326C38.3434 18.6136 38.7287 16.8362 38.6642 15.0397C38.6534 14.7338 38.2208 14.5863 38.0615 14.8771C37.1273 16.601 36.8798 18.6306 37.3791 20.5256C37.4437 20.7694 37.7429 20.8229 37.9194 20.6668C39.7037 19.0884 40.9026 16.894 41.2535 14.5456C41.2901 14.2954 41.0404 14.0109 40.78 14.1842C40.089 14.6397 39.7554 15.4717 39.9578 16.2737C39.9901 16.3978 40.1321 16.5239 40.2699 16.509C42.0628 16.3079 43.6061 15.1552 44.3035 13.5019C44.4197 13.2239 44.0517 13.0207 43.83 13.1404C42.9884 13.5874 42.1446 14.0344 41.303 14.4814C41.077 14.6012 41.1007 15.0268 41.3805 15.0674C43.0615 15.3091 44.7533 15.2749 46.4236 14.9605C46.7314 14.9028 46.7314 14.398 46.4236 14.3424C44.3616 13.9617 41.0469 13.8035 40.2591 16.2909C40.1967 16.4855 40.3645 16.7036 40.5712 16.6972C42.0305 16.6416 43.4296 15.9743 44.3616 14.8493C44.5101 14.6697 44.4713 14.3788 44.2195 14.3125C41.021 13.4698 37.8247 12.625 34.6262 11.7823C33.3176 11.438 31.7075 11.2562 30.9585 9.98789C30.6033 9.38476 30.3967 8.69825 30.1578 8.04378C29.878 7.27597 29.596 6.50815 29.3162 5.74033C28.6812 4.00366 28.0484 2.26696 27.4135 0.530281C27.2327 0.63508 27.054 0.737733 26.8732 0.842532C31.8216 4.80566 37.1747 8.26621 42.8377 11.1364C44.4197 11.9385 46.0254 12.6935 47.6505 13.4035C47.6763 13.2089 47.7021 13.0121 47.728 12.8175C45.0159 13.6089 42.4201 14.798 40.0611 16.3443C38.888 17.1143 37.7752 17.9719 36.727 18.9001C35.6938 19.8134 34.7123 20.7844 33.6791 21.6976C32.5211 22.7242 31.2921 23.676 29.8995 24.3689C30.0566 24.4331 30.2159 24.4973 30.373 24.5615C29.5723 21.3961 28.7738 18.2286 27.9731 15.0632C27.9279 14.8878 27.7428 14.8044 27.5771 14.8386C21.2167 16.1925 14.7142 16.8619 8.2096 16.8298C6.36713 16.8212 4.52678 16.755 2.68861 16.6352C2.79193 16.7699 2.89523 16.9068 3.0007 17.0416C3.65288 14.3253 3.68948 11.4936 3.11694 8.76024C3.01362 8.89498 2.91032 9.03189 2.80485 9.16664C9.10498 8.9549 15.4051 8.74317 21.7053 8.53143C23.4961 8.47154 25.2847 8.41164 27.0755 8.35175C26.9679 8.24482 26.8603 8.13788 26.7527 8.03094C26.7441 9.23079 26.7354 10.4306 26.7268 11.6305C26.7225 12.2101 26.7204 12.7897 26.7139 13.3693C26.7096 13.8612 26.6988 14.3702 26.419 14.798C25.9713 15.4845 25.063 15.739 24.3053 15.8973C23.2614 16.1176 22.1917 16.2524 21.1327 16.3785C16.8106 16.8983 12.4455 17.0052 8.13855 17.6682C5.72138 18.0404 3.33217 18.6029 1.05491 19.499C0.777244 19.6081 0.721281 20.0294 1.05491 20.1171C2.24304 20.4294 3.48288 20.5449 4.70761 20.4422C5.84193 20.3459 7.05155 20.1192 8.05673 19.5674C8.8725 19.1204 9.69045 18.3697 9.75717 17.3902C9.83035 16.2908 8.80795 15.5401 7.97496 15.0161C6.86432 14.3189 5.60514 13.9019 4.30292 13.7586C4.08984 13.735 3.94133 13.981 3.99083 14.1649C4.48589 15.955 6.18416 17.5634 8.14286 17.4415C9.80022 17.3388 11.3112 15.7412 11.1627 14.0601C11.096 13.2987 10.6978 12.6015 10.009 12.2379C9.38909 11.9106 8.64221 11.8487 7.96635 12.0155C7.33353 12.1716 6.72008 12.563 6.44026 13.1661C6.04422 14.0173 6.34557 14.9798 6.88798 15.6941C7.99863 17.1506 10.4804 18.3996 12.1549 17.1057C12.9363 16.5026 13.2677 15.4781 13.2355 14.5221C13.2053 13.6067 12.8373 12.7448 12.2604 12.0368C11.1368 10.6552 9.12437 9.92588 7.45625 10.7579C6.03565 11.4679 5.17682 13.1747 5.38991 14.7296C5.66326 16.725 7.82429 17.8329 9.63878 18.1494C10.6547 18.327 11.7352 18.2606 12.65 17.7516C13.3947 17.3367 13.9285 16.6502 14.2127 15.8546C14.7895 14.2312 14.2966 12.3213 13.0094 11.1749C11.5587 9.88096 9.44935 9.53233 7.58105 9.93228C6.59955 10.1419 5.60943 10.6359 5.41786 11.7139C5.23921 12.7277 5.71921 13.7414 6.17983 14.6162C7.0494 16.2737 8.10842 18.0938 9.92291 18.8595C11.6276 19.5781 13.539 18.9814 14.796 17.6981C16.0917 16.3785 16.5566 14.4708 15.8614 12.7405C15.1726 11.0274 13.6079 9.70772 11.8127 9.25431C10.1016 8.82228 8.07825 9.28 6.98052 10.7322C6.44026 11.4466 6.281 12.3555 6.56081 13.2089C6.89659 14.2312 7.68223 15.0782 8.34948 15.8995C9.64954 17.4993 11.1756 19.1247 13.2247 19.7171C14.9897 20.2283 17.1378 19.9567 18.3281 18.4381C19.5011 16.941 19.4043 14.6975 18.2678 13.2067C17.6609 12.4111 16.8279 11.8337 15.8937 11.4765C14.9876 11.13 13.8834 10.9525 12.9255 11.1706C12.0151 11.3781 11.4296 12.1459 11.4941 13.072C11.5544 13.9425 12.028 14.7958 12.6608 15.3904C14.1266 16.7678 16.4469 17.4843 18.397 16.817C20.1706 16.2096 21.6579 14.4194 21.4448 12.4839C21.2468 10.6916 19.5205 9.07465 17.6522 9.30992C16.6836 9.43183 15.743 10.067 15.5558 11.0701C15.3793 12.0133 15.8248 12.933 16.4081 13.6516C17.0582 14.4515 17.9751 15.0268 18.9286 15.4054C19.8993 15.7904 21.0423 15.9358 22.0475 15.5893C23.7156 15.014 25.1556 12.8988 23.9029 11.2776C23.4272 10.6616 22.6566 10.2489 21.871 10.2489C20.9584 10.2489 20.2631 10.8626 19.9747 11.6968C19.3268 13.566 20.6764 15.6364 22.4758 16.2288C24.2774 16.8213 26.3975 15.8781 27.2929 14.2483C27.7686 13.3843 27.9365 12.2165 27.3273 11.3696C26.8926 10.7664 26.1565 10.4948 25.4246 10.559C24.6821 10.6253 23.9545 10.961 23.4487 11.5107C22.846 12.1673 22.6803 13.0592 22.8202 13.919C22.9816 14.9135 23.5671 15.8224 24.2882 16.5133C24.9489 17.1442 26.0553 17.9826 26.8624 17.0929C27.1831 16.7379 27.3467 16.2716 27.5168 15.8331C27.7342 15.2749 27.9322 14.7039 28.0204 14.1114C28.1668 13.1255 28.0053 12.0839 27.2133 11.4059C26.6106 10.8883 25.7367 10.5889 24.9748 10.9354C24.0944 11.3375 23.8964 12.3448 24.0578 13.2067C24.2343 14.1435 24.7832 15.0653 25.4698 15.7219C26.0919 16.3186 27.0648 16.8191 27.9451 16.5047C28.6081 16.2695 29.0665 15.6193 29.1698 14.9413C29.2839 14.1885 28.8879 13.4933 28.0958 13.3778C27.5706 13.303 27.0131 13.4484 26.503 13.5597C25.9627 13.6794 25.4289 13.8291 24.9059 14.0109C23.834 14.3831 22.8073 14.8771 21.8473 15.4824C21.66 15.6 21.6148 15.9294 21.8473 16.0363C23.6855 16.8833 25.614 17.5163 27.6029 17.9099C27.6308 17.7003 27.661 17.4907 27.689 17.2789C25.7669 17.1314 23.8361 17.2576 21.9484 17.6425C21.645 17.7046 21.6363 18.2051 21.9484 18.2607C25.4698 18.9002 29.1246 18.7055 32.5534 17.6789C33.5285 17.3859 34.482 17.0245 35.4097 16.6053C35.6206 16.509 35.6206 16.1475 35.4097 16.0513C31.079 14.0858 26.3178 13.1084 21.5567 13.2153C20.2093 13.2452 18.864 13.3693 17.5317 13.5703C17.2928 13.6067 17.2196 13.9574 17.3896 14.1071C19.2149 15.7091 21.6299 16.5732 24.0664 16.4726C24.4237 16.4577 24.5141 15.9401 24.1525 15.8417C19.9854 14.7167 15.6139 14.3874 11.3263 14.8878C11.0529 14.9199 10.8936 15.2172 11.0981 15.4354C12.5166 16.9539 14.4667 17.8928 16.5373 18.0917C16.5373 17.8778 16.5373 17.6639 16.5373 17.4501C14.0986 17.3581 11.6513 17.6105 9.28365 18.1965C8.90698 18.2885 9.02749 18.7911 9.36973 18.8274C10.3276 18.9279 11.2832 19.0263 12.2411 19.1269C12.2411 18.913 12.2411 18.6991 12.2411 18.4852C10.4352 18.4831 8.62928 18.481 6.82555 18.4788C6.41014 18.4788 6.41014 19.1204 6.82555 19.1204C8.63143 19.1226 10.4373 19.1247 12.2411 19.1269C12.6651 19.1269 12.6457 18.528 12.2411 18.4852C11.2832 18.3847 10.3276 18.2863 9.36973 18.1858C9.39771 18.3954 9.42782 18.605 9.4558 18.8167C11.7718 18.2457 14.1546 18.004 16.5394 18.0938C16.9613 18.1088 16.9463 17.4907 16.5394 17.4522C14.6389 17.2704 12.8523 16.3721 11.5566 14.9841C11.4812 15.1659 11.4038 15.3498 11.3284 15.5316C15.5644 15.0375 19.8692 15.3498 23.9846 16.4619C24.0126 16.2523 24.0428 16.0427 24.0708 15.831C21.8064 15.9251 19.5506 15.1466 17.8502 13.6538C17.8029 13.8334 17.7555 14.0109 17.7082 14.1906C22.2821 13.4998 27.0066 13.8676 31.4256 15.2215C32.6761 15.6043 33.8987 16.0663 35.089 16.6053C35.089 16.4213 35.089 16.2352 35.089 16.0513C31.9507 17.4693 28.4789 18.1238 25.0372 17.9698C24.06 17.927 23.0871 17.8158 22.125 17.6404C22.125 17.8457 22.125 18.0532 22.125 18.2585C23.9567 17.8842 25.8292 17.7751 27.6932 17.9184C28.0527 17.9462 28.1367 17.3581 27.7794 17.2875C25.8487 16.9047 23.9653 16.3016 22.1788 15.4781C22.1788 15.6621 22.1788 15.8481 22.1788 16.032C23.0096 15.508 23.8899 15.0611 24.8133 14.721C25.7087 14.3916 26.6945 14.0772 27.6524 14.0002C27.9472 13.9767 28.2981 14.0002 28.4638 14.2804C28.5757 14.4707 28.5714 14.7124 28.5241 14.9199C28.4122 15.4118 28.0355 15.9059 27.4952 15.9401C26.6709 15.9936 25.9649 15.3947 25.4999 14.7787C25.035 14.1628 24.6411 13.3843 24.6476 12.5972C24.654 11.9128 25.1255 11.3332 25.8551 11.4294C26.4793 11.5128 27.0906 12.0048 27.2994 12.5951C27.6416 13.5554 27.2994 14.6141 26.9528 15.5209C26.8108 15.893 26.6795 16.3272 26.4126 16.633C26.0919 16.9988 25.698 16.7871 25.3601 16.5539C24.6584 16.0684 24.0643 15.3926 23.7091 14.6183C23.3992 13.9404 23.2743 13.0635 23.623 12.3748C24.0987 11.4359 25.6097 10.7536 26.5417 11.4572C27.1918 11.9492 27.1616 12.8838 26.899 13.5725C26.6149 14.321 26.0122 14.9285 25.3149 15.3092C23.8835 16.0919 22.1121 15.7989 21.1112 14.4836C20.6398 13.8655 20.3772 13.0699 20.4934 12.2935C20.5989 11.5941 21.0423 10.9033 21.815 10.8819C22.4242 10.8648 23.044 11.1835 23.4056 11.6668C23.8426 12.2507 23.7952 13.0228 23.4551 13.6409C23.0742 14.3317 22.3875 14.8472 21.6213 15.0375C20.7259 15.26 19.7594 15.0739 18.9308 14.7039C18.1344 14.3488 17.3832 13.8462 16.8429 13.1575C16.3888 12.5779 15.9948 11.7738 16.2316 11.0273C16.4834 10.2317 17.3875 9.87243 18.1666 9.92163C18.9243 9.96868 19.6174 10.4007 20.1038 10.961C21.1951 12.2208 20.9239 13.9895 19.8219 15.1466C18.6058 16.4235 16.7912 16.6758 15.1576 16.1262C13.7886 15.6642 12.0904 14.49 12.1356 12.8688C12.1851 11.0402 15.1425 11.7738 16.1261 12.2636C17.6113 13.0014 18.6014 14.4344 18.5154 16.1112C18.4766 16.8705 18.199 17.6383 17.6781 18.2029C17.1529 18.7697 16.4448 19.1033 15.6893 19.2402C14.0362 19.5375 12.3895 18.8723 11.1218 17.8478C10.4136 17.2747 9.78944 16.6053 9.20183 15.9123C8.61637 15.2193 7.99431 14.5114 7.52293 13.735C7.11398 13.0613 6.89657 12.2678 7.24526 11.5214C7.5423 10.8819 8.1256 10.4199 8.75196 10.1184C10.1553 9.44253 11.7891 9.68846 13.0934 10.4712C14.3892 11.2498 15.4245 12.6058 15.5407 14.1393C15.6548 15.6364 14.8153 17.0629 13.5691 17.8693C12.9535 18.2692 12.2389 18.5237 11.5006 18.5323C10.7279 18.5408 10.0025 18.2564 9.3805 17.8136C8.06322 16.879 7.22593 15.2985 6.53501 13.8848C6.19708 13.1939 5.79458 12.2357 6.16049 11.4829C6.53286 10.7151 7.59831 10.5226 8.36887 10.4435C9.95521 10.2788 11.675 10.6851 12.8028 11.8614C13.7693 12.8709 14.0598 14.4365 13.5669 15.7369C13.3173 16.3935 12.8416 16.9282 12.2131 17.2469C11.4403 17.6404 10.5191 17.6618 9.68182 17.4992C8.19234 17.2084 6.29822 16.3465 6.03132 14.6868C5.83115 13.4399 6.50054 12.0561 7.58536 11.4123C8.90695 10.6295 10.5535 11.1642 11.5587 12.208C12.5854 13.2773 13.102 15.2664 11.9354 16.4406C10.6698 17.7153 8.51954 16.5881 7.55525 15.4931C7.08818 14.9626 6.69212 14.1628 7.00638 13.4612C7.21731 12.9928 7.70591 12.7255 8.18805 12.6164C8.69602 12.5009 9.2707 12.5544 9.72701 12.8111C10.25 13.1041 10.5213 13.6602 10.5234 14.2483C10.5256 15.6385 9.21688 16.8533 7.83503 16.7977C6.28098 16.7378 5.0046 15.414 4.61071 13.9874C4.50739 14.1222 4.40408 14.259 4.29862 14.3938C5.30164 14.5028 6.28532 14.8108 7.17212 15.2877C7.60906 15.523 8.03309 15.7947 8.41191 16.1155C8.73908 16.3914 9.05763 16.7314 9.10498 17.1763C9.19323 18.0019 8.37098 18.6521 7.7274 19.0071C6.85567 19.4862 5.7838 19.6936 4.80015 19.7856C3.59694 19.8989 2.38941 19.7984 1.2228 19.4926C1.2228 19.6979 1.2228 19.9053 1.2228 20.1107C5.40926 18.4617 9.90997 17.9848 14.3612 17.6233C16.6191 17.4394 18.8791 17.2832 21.1284 17.0116C22.2089 16.8811 23.2937 16.7421 24.3613 16.5304C25.1857 16.3657 26.0768 16.0962 26.6795 15.4803C27.5361 14.6034 27.3554 13.2709 27.364 12.1502C27.3747 10.7728 27.3833 9.3976 27.3941 8.02024C27.3962 7.85127 27.2456 7.693 27.0712 7.69942C20.7711 7.91116 14.4709 8.12289 8.17081 8.33463C6.38 8.39451 4.59135 8.45442 2.80054 8.5143C2.58099 8.52072 2.4454 8.71319 2.48845 8.92065C3.03732 11.5385 2.99641 14.259 2.37221 16.8598C2.32055 17.0715 2.47121 17.2511 2.6843 17.2661C9.23411 17.6939 15.8205 17.4116 22.31 16.4341C24.131 16.1604 25.9434 15.8289 27.7428 15.446C27.6115 15.3712 27.478 15.2963 27.3446 15.2215C28.1453 18.3869 28.9438 21.5543 29.7445 24.7197C29.7983 24.9315 30.0373 25.002 30.2181 24.9122C32.6826 23.6867 34.6047 21.6848 36.6086 19.854C38.6685 17.9698 40.9435 16.3636 43.4619 15.1338C44.8868 14.4365 46.3698 13.8676 47.8937 13.4249C48.1369 13.3543 48.2381 12.9544 47.9712 12.8389C42.207 10.3216 36.7054 7.2182 31.5784 3.58444C30.1298 2.55783 28.7113 1.48631 27.323 0.376296C27.0992 0.19664 26.6622 0.3549 26.7828 0.688547C27.3682 2.29262 27.9537 3.89455 28.5392 5.49862C28.8319 6.30066 29.1246 7.1027 29.4173 7.90259C29.6735 8.60411 29.9016 9.3313 30.2331 10.0029C30.5344 10.6146 30.9714 11.1386 31.5741 11.4744C32.1746 11.8102 32.8569 11.9684 33.5177 12.1416C35.1686 12.5779 36.8195 13.0121 38.4683 13.4484C40.3258 13.9382 42.1812 14.428 44.0387 14.9177C43.9914 14.7381 43.944 14.5606 43.8967 14.3809C43.0723 15.3754 41.8626 15.9914 40.5626 16.0406C40.6659 16.1753 40.7692 16.3123 40.8746 16.447C41.1803 15.4846 42.0801 15.0332 43.0207 14.8557C44.0753 14.6568 45.1946 14.7531 46.2428 14.9477C46.2428 14.7424 46.2428 14.5349 46.2428 14.3296C44.6974 14.6205 43.1024 14.659 41.5441 14.4365C41.5699 14.6312 41.5958 14.8279 41.6216 15.0225C42.4632 14.5755 43.3069 14.1285 44.1485 13.6815C43.9914 13.5618 43.8321 13.4399 43.6749 13.3201C43.1003 14.6825 41.74 15.6899 40.2634 15.8567C40.3667 15.9358 40.47 16.0128 40.5755 16.0919C40.4463 15.5786 40.653 15.0204 41.1007 14.7274C40.9435 14.6076 40.7843 14.4858 40.6271 14.366C40.2914 16.6181 39.17 18.6905 37.4588 20.2048C37.6396 20.2518 37.8182 20.2989 37.999 20.346C37.5427 18.62 37.7623 16.7635 38.6146 15.1915C38.4144 15.138 38.2143 15.0846 38.012 15.029C38.0701 16.7079 37.73 18.3804 37.0003 19.8989C37.1854 19.8989 37.3727 19.8989 37.5578 19.8989C36.9056 18.6798 37.0864 17.0972 38.0055 16.0599C37.8226 15.985 37.6374 15.908 37.4545 15.8331C37.2844 17.4543 36.798 19.0434 36.0317 20.4828C35.866 20.7929 35.7002 21.1865 35.4419 21.4346C35.1492 21.7147 34.906 21.2592 34.7747 21.0303C34.4303 20.4315 34.2646 19.7407 34.2689 19.052C34.2732 18.2457 34.5164 17.4693 34.9749 16.8063C34.7747 16.7528 34.5745 16.6994 34.3722 16.6437C34.5724 18.7975 34.0946 20.964 32.9947 22.8333C33.1905 22.859 33.3886 22.8847 33.5844 22.9103C33.1174 20.8849 33.1238 18.7761 33.6017 16.7528C33.3907 16.725 33.1798 16.6951 32.9667 16.6673C33.0097 19.8049 31.9292 22.9274 29.9296 25.3613C30.1104 25.4084 30.2891 25.4554 30.4699 25.5025C30.0717 22.9253 29.9146 20.316 29.9856 17.711C29.8026 17.7858 29.6175 17.8628 29.4346 17.9377C30.3386 18.8702 30.9714 20.0123 31.2857 21.2677C31.3868 21.6698 31.9938 21.4988 31.9077 21.0967C31.4406 18.898 31.3287 16.6416 31.5612 14.4066C31.3782 14.4815 31.1931 14.5585 31.0102 14.6333C32.5599 16.5839 33.2616 19.1824 32.8978 21.642C33.055 21.5778 33.2142 21.5137 33.3713 21.4495C31.4729 20.2582 30.0824 18.3355 29.54 16.1711C29.299 15.2129 29.243 14.2098 29.5185 13.2495C29.7661 12.3919 30.3171 11.5856 31.2254 11.3482C32.2284 11.0851 33.2164 11.6647 33.8427 12.409C34.6391 13.3543 34.7791 14.6076 34.6305 15.7925C34.5423 16.5026 34.3507 17.1998 34.1376 17.8821C33.9783 18.3933 33.8513 19.0156 33.5199 19.4519C33.1389 19.9502 32.661 19.6166 32.3489 19.2295C31.9744 18.7654 31.658 18.2393 31.3631 17.7238C29.9641 15.2792 29.2537 12.4732 29.3119 9.66284C29.1117 9.71631 28.9116 9.76973 28.7092 9.82534C30.0201 12.0946 31.3308 14.3638 32.6416 16.6309C32.8289 16.956 33.3089 16.7314 33.2315 16.3828C32.7558 14.2163 32.6804 11.9662 33.0183 9.77187C32.887 9.84673 32.7536 9.92159 32.6202 9.99645C36.4321 10.7322 40.1773 11.7824 43.8149 13.1319C44.183 13.2688 44.3358 12.7427 44.0645 12.5459C40.6078 10.0414 37.0025 7.74005 33.2745 5.65689C33.1669 5.84082 33.0571 6.02692 32.9495 6.21085C36.1178 7.75076 39.2862 9.28855 42.4545 10.8285C42.8248 11.0081 43.1369 10.4948 42.7796 10.2745C39.5983 8.31112 36.417 6.34986 33.2357 4.38648C32.3382 3.83254 31.4406 3.27859 30.5409 2.72465C30.1772 2.50008 29.8952 3.03479 30.2159 3.27861C32.9043 5.32327 35.5927 7.36791 38.2789 9.41257C38.3865 9.22864 38.4963 9.0426 38.6039 8.85867C35.1277 6.55094 31.6515 4.24319 28.1754 1.9376C27.8439 1.71731 27.5792 2.17717 27.7837 2.44238C29.3722 4.47848 31.2814 6.24933 33.4273 7.693C33.7028 7.87907 34.0214 7.5198 33.8686 7.25459C32.2715 4.47848 29.2645 2.63272 26.0553 2.43381C25.7948 2.4167 25.6054 2.81019 25.8271 2.9813C28.3799 4.94468 30.9477 6.89955 33.664 8.63623C36.3503 10.3537 39.1979 11.8636 42.2393 12.8603C43.9354 13.4164 45.681 13.7971 47.4568 13.981C47.7947 14.0152 47.87 13.5383 47.6203 13.3821C46.0125 12.3876 44.2733 11.6155 42.4567 11.0851C42.0951 10.9803 41.91 11.4765 42.207 11.6711C43.6083 12.5865 45.1687 13.2431 46.8046 13.6067C46.8627 13.4014 46.9187 13.1939 46.9768 12.9886C44.3164 12.5608 41.6969 11.9021 39.1527 11.0166C38.8083 10.8969 38.5823 11.4337 38.9031 11.6027C40.8036 12.6015 42.9367 13.1084 45.0891 13.0613C45.5045 13.0528 45.5045 12.4111 45.0891 12.4197C43.3047 12.456 41.5333 12.24 39.8092 11.7716C39.4003 11.6604 39.2582 12.2443 39.637 12.3898C42.0047 13.3009 44.4434 14.0173 46.9273 14.5328C46.9553 14.3232 46.9854 14.1136 47.0134 13.9018C45.3818 14.0173 43.7546 13.8462 42.1855 13.3864C42.1575 13.596 42.1274 13.8056 42.0994 14.0173C43.9182 14.2205 45.7348 14.4216 47.5536 14.6248C47.5256 14.4152 47.4955 14.2056 47.4675 13.9938C46.6647 14.304 45.7822 14.274 45.016 13.8741C44.932 14.0687 44.8502 14.2654 44.7662 14.4601C45.1666 14.6119 45.5691 14.7616 45.9695 14.9135C46.0276 14.7081 46.0835 14.5007 46.1417 14.2954C44.904 13.8313 43.7955 13.0827 42.8915 12.1224C42.644 11.8615 42.1769 12.2058 42.3835 12.5116C42.9065 13.2859 43.0378 14.2933 42.6655 15.1595C42.8355 15.1381 43.0034 15.1167 43.1735 15.0953C42.1855 13.9874 41.3181 12.7854 40.5776 11.5C40.3925 11.6069 40.2053 11.716 40.0201 11.823C40.8747 12.948 41.3009 14.3189 41.2255 15.7262C41.4085 15.6513 41.5936 15.5743 41.7766 15.4995C40.3581 13.8804 39.3314 11.9492 38.7739 9.87458C38.5931 9.97938 38.4145 10.082 38.2337 10.1868C39.9664 12.3427 40.6487 15.2728 40.0654 17.9676C40.2613 17.942 40.4593 17.9163 40.6552 17.8907C39.0258 14.6611 37.8656 11.2134 37.1984 7.66308C36.9917 7.72082 36.7829 7.77644 36.5763 7.83419C37.3899 12.0326 37.7967 16.3015 37.7989 20.5769C38.0098 20.5491 38.2208 20.5192 38.4338 20.4914C37.179 17.0458 36.1264 13.5276 35.2934 9.95797C35.0567 8.94419 34.8393 7.92828 34.6369 6.90809C34.5681 6.55947 33.9611 6.63217 34.002 6.99362C34.4841 11.1557 34.9663 15.3177 35.4484 19.4797C35.6593 19.4519 35.8703 19.422 36.0834 19.3942C34.835 15.6065 33.9891 11.6861 33.5887 7.71869C33.4768 6.60225 33.3972 5.48155 33.352 4.3587C33.1367 4.3587 32.9215 4.3587 32.7062 4.3587C33.1475 9.21797 33.4079 14.0943 33.4833 18.975C33.5048 20.3545 33.5112 21.734 33.5026 23.1114C33.7136 23.0836 33.9245 23.0536 34.1376 23.0258C33.197 18.2093 32.2585 13.3928 31.3179 8.57633C31.0532 7.21608 30.7863 5.85367 30.5215 4.49342C30.3149 4.55116 30.1061 4.60678 29.8995 4.66453C30.782 8.98697 31.6688 13.3864 31.3954 17.8201C31.3201 19.0584 31.1458 20.2882 30.8595 21.4966C31.0661 21.4966 31.2749 21.4966 31.4815 21.4966C30.6744 16.4577 29.865 11.4187 29.0579 6.37768C28.8297 4.9554 28.6016 3.53313 28.3734 2.11086C28.1668 2.1686 27.958 2.22422 27.7514 2.28197C29.4518 8.60201 30.0028 15.1445 30.2912 21.657C30.373 23.5027 30.4333 25.3485 30.4935 27.1964C30.7045 27.1686 30.9155 27.1386 31.1285 27.1108C29.7768 20.3459 28.4229 13.5682 27.6373 6.71134C27.4177 4.80142 27.2434 2.88507 27.125 0.966597C26.9141 0.994401 26.7032 1.02438 26.4901 1.05218C27.1143 5.4174 27.7406 9.78047 28.3648 14.1457C28.4186 14.5264 28.9718 14.3959 28.9998 14.0601C29.2301 11.3011 28.7071 8.52074 27.5168 6.02052C27.3532 5.67832 26.8538 5.92854 26.927 6.2686C27.6868 9.74837 28.2465 13.2688 28.6038 16.8127C28.8147 16.7849 29.0256 16.7549 29.2387 16.7271C28.2551 14.1392 27.4931 11.4743 26.9614 8.76024C26.8926 8.40948 26.2856 8.48437 26.3265 8.84582C26.6235 11.3738 26.6343 13.9275 26.3609 16.4598C26.5718 16.432 26.7828 16.4021 26.9959 16.3743C26.0617 13.8698 25.1276 11.3652 24.1934 8.8629C24.0729 8.53994 23.5563 8.56564 23.5585 8.94848C23.5778 11.6583 23.5972 14.3702 23.6166 17.0801C23.8275 17.0523 24.0384 17.0223 24.2515 16.9945C23.4745 14.2889 22.6954 11.5813 21.9183 8.87574C21.7117 8.93349 21.5029 8.98911 21.2963 9.04685C22.4801 11.9791 23.27 15.0653 23.6209 18.2072C23.8211 18.1537 24.0212 18.1003 24.2236 18.0446C22.7255 15.2044 21.2274 12.3641 19.7293 9.52379C19.5808 9.24361 19.118 9.37194 19.1267 9.68634C19.2063 12.0625 19.2838 14.4408 19.3634 16.817C19.5743 16.7892 19.7853 16.7592 19.9983 16.7314C19.415 14.5969 18.8339 12.4603 18.2506 10.3258C18.044 10.3836 17.8352 10.4392 17.6285 10.4969C18.3926 13.2902 18.7026 16.186 18.5519 19.0755C18.7521 19.022 18.9523 18.9686 19.1546 18.913C17.8911 16.2973 17.1765 13.4377 17.056 10.5397C16.8408 10.5397 16.6255 10.5397 16.4103 10.5397C16.7138 13.4249 16.7568 16.3336 16.5373 19.2252C16.7482 19.1974 16.9592 19.1675 17.1722 19.1397C15.9325 15.8866 15.0629 12.501 14.585 9.05542C14.3784 9.11316 14.1696 9.16878 13.963 9.22653C14.4882 12.3898 14.6087 15.6107 14.3418 18.8039C14.5528 18.7761 14.7637 18.7461 14.9768 18.7183C13.8791 15.5957 13.0267 12.394 12.4283 9.14095C12.2324 9.22436 12.0344 9.30566 11.8385 9.38908C13.0417 12.1951 13.1666 15.4033 12.2238 18.2991C12.4197 18.2735 12.6177 18.2478 12.8136 18.2221C10.8075 15.6 9.82389 12.2999 10.0757 9.01479C9.86479 9.0426 9.65386 9.07252 9.44077 9.10032C10.7258 12.1823 10.9754 15.6321 10.1231 18.8616C10.3039 18.8146 10.4825 18.7675 10.6633 18.7205C8.69387 16.5945 7.74895 13.581 8.18159 10.7215C7.97496 10.7215 7.76619 10.7215 7.55956 10.7215C8.32798 13.2453 8.45279 15.9315 7.90607 18.5109C8.10194 18.4852 8.29996 18.4595 8.49583 18.4339C7.49711 16.6672 7.10109 14.6269 7.34001 12.6164C7.12907 12.6442 6.91809 12.6742 6.70501 12.702C7.2345 14.7189 6.47257 16.9303 4.84318 18.2307C5.02399 18.2777 5.20264 18.3248 5.38344 18.3719C4.52678 15.2386 4.2104 11.9813 4.44286 8.74316C4.22762 8.74316 4.01238 8.74316 3.79714 8.74316C4.22547 12.2101 4.10062 15.7305 3.414 19.1568C3.62494 19.1846 3.83586 19.2145 4.04895 19.2423C4.02313 16.5368 3.99512 13.8313 3.96929 11.1257C3.75835 11.1535 3.54743 11.1835 3.33434 11.2113C3.86814 13.4998 4.0102 15.8588 3.76482 18.1965C3.965 18.143 4.16518 18.0895 4.36751 18.0339C3.19659 15.4974 2.38513 12.8068 1.94388 10.0499C1.76308 10.1547 1.58443 10.2574 1.40362 10.3622C1.63178 10.5418 1.76309 10.8413 1.6361 11.1236C1.47037 11.5128 2.02566 11.8379 2.1957 11.4615Z" fill="#7EAF15"/>
</svg>
