<svg width="106" height="106" viewBox="0 0 106 106" fill="none" xmlns="http://www.w3.org/2000/svg">
<path d="M27.6858 1.72088C18.764 14.0737 19.1107 31.3223 26.0902 44.3945C34.7736 60.6622 51.6647 70.2309 68.8648 75.2251C78.6624 78.07 88.7921 79.6215 98.9198 80.808C101.524 81.1144 101.544 85.2392 98.9066 84.9396C79.7122 82.7407 59.9861 79.2978 43.5979 68.492C28.7634 58.7091 17.3688 43.2101 17.5144 24.8285C17.5825 16.0428 20.6033 7.40839 26.2564 0.6339C26.9051 -0.148276 28.2878 0.885281 27.6858 1.72088Z" fill="#7EAF15"/>
<path d="M98.6015 86.0255C94.6814 87.9565 90.8012 90.0479 87.0875 92.3531C83.3637 94.6685 79.8632 97.348 76.0762 99.5463C74.6171 100.391 73.1067 98.404 74.2957 97.2083C80.5432 90.9341 89.539 86.8778 97.8077 84.0692C98.9507 83.6873 99.6914 85.4897 98.6015 86.0255Z" fill="#7EAF15"/>
<path d="M96.5364 82.7442C91.2699 77.4508 86.6334 70.9601 84.5472 63.708C84.1134 62.1927 86.3282 61.6935 86.8695 63.0946C89.5294 69.9799 92.4552 76.3657 97.2014 82.0859C97.5749 82.5334 96.967 83.1747 96.5364 82.7442Z" fill="#7EAF15"/>
</svg>
