<svg width="51" height="28" viewBox="0 0 51 28" fill="none" xmlns="http://www.w3.org/2000/svg">
<path d="M0.556152 10.3089C0.564762 12.8498 0.575551 15.3927 0.584161 17.9336C0.588466 18.8062 0.444224 19.9997 1.14591 20.6734C1.51828 21.0305 2.01982 21.0883 2.51272 21.0754C3.13907 21.0605 3.76542 21.0284 4.39178 21.0006C9.41122 20.7675 14.4177 20.2884 19.392 19.5719C22.2116 19.1656 25.0206 18.68 27.8144 18.1197C28.1653 18.0491 28.0749 17.6106 27.8144 17.5016C27.5368 17.3839 27.2569 17.2685 26.9792 17.1508C26.8178 17.0824 26.6263 17.2236 26.5832 17.3754C26.5294 17.5593 26.6478 17.7026 26.8092 17.7689C27.0869 17.8865 27.3667 18.0021 27.6444 18.1197C27.6444 17.9144 27.6444 17.7069 27.6444 17.5016C22.8789 18.4576 18.0704 19.1933 13.2339 19.6959C10.8189 19.9462 8.3996 20.1408 5.97598 20.2777C4.77063 20.3461 3.55018 20.4466 2.34267 20.4359C1.88851 20.4317 1.53551 20.2862 1.37408 19.8435C1.22772 19.4371 1.2385 18.9944 1.23635 18.5688C1.22559 15.8162 1.21479 13.0615 1.20403 10.3089C1.20188 9.89614 0.556152 9.894 0.556152 10.3089Z" fill="#7EAF15"/>
<path d="M1.48451 9.82764C5.28137 9.18601 9.08899 8.54438 12.9375 8.32622C16.5686 8.1209 20.2321 8.47807 23.8417 7.94766C24.8404 7.80008 25.8413 7.58835 26.7927 7.25256C27.1134 7.13921 27.3867 6.93173 27.4965 6.59809C27.6127 6.24947 27.4147 5.95862 27.0509 5.92654C26.6377 5.89018 26.6398 6.53181 27.0509 6.56817C26.9821 6.56175 26.8895 6.39706 26.8852 6.3992C26.8572 6.41417 26.8314 6.49332 26.8056 6.52326C26.7001 6.63875 26.53 6.66653 26.3858 6.71145C25.9812 6.84191 25.5701 6.95314 25.1568 7.04939C24.3583 7.23546 23.5468 7.36161 22.731 7.44289C21.0543 7.61185 19.369 7.61399 17.6858 7.60758C15.9767 7.60116 14.272 7.59901 12.5673 7.70595C10.8045 7.81717 9.04811 8.01609 7.29819 8.25777C5.29644 8.53367 3.30329 8.86944 1.31015 9.20737C0.903342 9.27795 1.0777 9.89608 1.48451 9.82764Z" fill="#7EAF15"/>
<path d="M26.958 6.69042C26.859 4.70565 26.9042 2.71663 27.0936 0.736135C26.958 0.838796 26.8203 0.941446 26.6847 1.04625C29.9908 1.99586 32.9654 3.76249 35.8066 5.65529C38.6628 7.55665 41.4266 9.61412 44.4529 11.2481C46.1425 12.1614 47.914 12.9314 49.7694 13.4489C49.7694 13.2436 49.7694 13.0362 49.7694 12.8309C46.6053 13.712 43.7684 15.4038 41.1381 17.3223C38.4519 19.2814 35.9422 21.4672 33.2409 23.4049C31.7342 24.485 30.1651 25.4859 28.4991 26.3051C28.6563 26.3692 28.8155 26.4334 28.9727 26.4975C28.06 23.6059 27.7071 20.5689 27.9266 17.5468C27.9567 17.134 27.311 17.1361 27.2809 17.5468C27.057 20.6202 27.4229 23.7278 28.3506 26.6686C28.4152 26.8761 28.6347 26.9531 28.8242 26.8611C31.7816 25.4046 34.4076 23.3942 36.9797 21.3602C39.5411 19.3327 42.0766 17.241 44.9178 15.607C46.5041 14.6937 48.1766 13.9451 49.9437 13.4511C50.2515 13.3655 50.2515 12.9185 49.9437 12.833C46.6311 11.9112 43.65 10.1595 40.8088 8.27528C37.9482 6.37819 35.1867 4.31643 32.1669 2.66744C30.4794 1.74778 28.7123 0.962861 26.8612 0.432448C26.6438 0.370423 26.4716 0.539375 26.4522 0.742558C26.2606 2.72091 26.2154 4.70993 26.3166 6.69684C26.3338 7.10107 26.9795 7.1032 26.958 6.69042Z" fill="#7EAF15"/>
<path d="M1.3705 11.1603C1.60727 10.6298 1.50825 9.9925 1.03687 9.62036C0.778578 9.41717 0.445003 9.60538 0.496661 9.93261C0.948669 12.7451 1.79238 15.4806 2.98697 18.0685C3.13549 18.3893 3.55953 18.1861 3.58966 17.9059C3.84149 15.5148 3.68435 13.0937 3.13763 10.7518C3.05584 10.3967 2.50053 10.478 2.50268 10.8373C2.52851 13.5428 2.55651 16.2484 2.58234 18.9539C2.58665 19.3047 3.14411 19.4052 3.2173 19.0395C3.91683 15.5576 4.05887 11.9794 3.62408 8.45683C3.57457 8.0526 3.00849 8.03549 2.97835 8.45683C2.74159 11.7484 3.0709 15.072 3.94263 18.2567C4.01151 18.509 4.29994 18.5433 4.48289 18.3978C6.28662 16.9585 7.09381 14.4647 6.51051 12.2446C6.4115 11.8682 5.91645 11.9922 5.87555 12.3302C5.62372 14.4475 6.06922 16.6119 7.11745 18.4705C7.24875 18.7015 7.64915 18.6673 7.70726 18.3936C8.27765 15.7009 8.16355 12.8969 7.3607 10.262C7.27676 9.98395 6.78818 9.93048 6.73868 10.262C6.26945 13.3632 7.24661 16.5777 9.38826 18.8854C9.554 19.063 9.86825 18.971 9.92852 18.7443C10.8067 15.4142 10.5721 11.8254 9.24622 8.64293C9.10847 8.31356 8.6414 8.34989 8.61127 8.72846C8.35083 12.1098 9.37105 15.5597 11.4374 18.2609C11.6031 18.477 11.9367 18.4663 12.0271 18.184C13.0259 15.1106 12.8494 11.7441 11.5752 8.77978C11.4223 8.42475 10.9251 8.69641 10.9854 9.02791C11.5838 12.281 12.4361 15.4848 13.5338 18.6053C13.6565 18.9539 14.1365 18.8833 14.1688 18.5197C14.4421 15.2667 14.3001 11.9923 13.7663 8.77127C13.6974 8.36063 13.0883 8.54024 13.1442 8.94233C13.6221 12.3879 14.4895 15.7736 15.7314 19.0266C15.8606 19.3646 16.3385 19.3132 16.3664 18.9411C16.586 16.0473 16.5429 13.1408 16.2394 10.2556C16.1964 9.85347 15.5765 9.83636 15.5937 10.2556C15.7207 13.2712 16.4654 16.2312 17.7805 18.9518C17.9291 19.2576 18.366 19.0822 18.3832 18.7892C18.5361 15.8441 18.2154 12.8841 17.4383 10.0395C17.3286 9.64174 16.7065 9.81071 16.8163 10.2107C17.3996 12.3451 17.9807 14.4818 18.5641 16.6162C18.6588 16.9606 19.2098 16.8985 19.199 16.5307C19.1194 14.1545 19.0419 11.7762 18.9622 9.40006C18.762 9.45353 18.5619 9.507 18.3596 9.5626C19.8577 12.4029 21.3557 15.2431 22.8538 18.0834C22.9959 18.3529 23.4909 18.2417 23.4565 17.9209C23.0992 14.7191 22.3157 11.5794 21.1082 8.58946C20.9575 8.21731 20.3678 8.35207 20.4861 8.76057C21.2632 11.4661 22.0424 14.1738 22.8194 16.8793C22.9184 17.2236 23.4565 17.1616 23.4543 16.7938C23.435 14.084 23.4156 11.372 23.3962 8.66219C23.1853 8.69 22.9744 8.71992 22.7613 8.74772C23.6954 11.2522 24.6296 13.7567 25.5637 16.2591C25.6929 16.6077 26.1578 16.5371 26.1987 16.1735C26.472 13.6433 26.4591 11.0897 26.1643 8.55954C25.9533 8.58734 25.7423 8.61726 25.5292 8.64507C26.0609 11.3592 26.8229 14.0241 27.8065 16.612C27.9249 16.9221 28.4802 16.9157 28.4415 16.5264C28.0799 12.9269 27.5138 9.34872 26.7432 5.81335C26.5474 5.89676 26.3494 5.97801 26.1535 6.06142C27.2943 8.46112 27.7699 11.1346 27.5482 13.7781C27.7592 13.7503 27.9701 13.7204 28.1832 13.6926C27.559 9.32735 26.9326 4.96423 26.3084 0.599013C26.2568 0.24184 25.652 0.325283 25.6735 0.684595C26.104 7.59494 27.2534 14.4369 28.562 21.2296C28.9322 23.1545 29.3175 25.0772 29.7007 26.9999C29.7717 27.355 30.3464 27.2737 30.3356 26.9144C30.1204 20.3334 29.8987 13.7225 28.76 7.22281C28.4415 5.40914 28.0497 3.60825 27.5719 1.8288C27.4621 1.4203 26.8853 1.59997 26.9499 1.99991C27.757 7.03884 28.5663 12.0778 29.3735 17.1188C29.6016 18.5411 29.8298 19.9634 30.0579 21.3857C30.1096 21.7044 30.6111 21.6787 30.68 21.3857C31.7196 16.9713 31.2504 12.4093 30.4583 7.99487C30.2302 6.73087 29.9761 5.47115 29.72 4.21141C29.6382 3.80719 29.0183 3.9783 29.098 4.38253C30.0386 9.19902 30.9771 14.0155 31.9177 18.832C32.1824 20.1922 32.4493 21.5546 32.714 22.9149C32.7851 23.2763 33.3468 23.1844 33.349 22.8294C33.3748 17.9487 33.222 13.0702 32.8819 8.20019C32.7872 6.82496 32.6753 5.44973 32.5505 4.07664C32.5139 3.67242 31.8875 3.65745 31.9047 4.07664C32.0662 8.09966 32.6624 12.1056 33.6869 16.0024C33.9775 17.106 34.3025 18.1989 34.6598 19.2811C34.7675 19.6041 35.3378 19.5742 35.2948 19.1956C34.8127 15.0336 34.3305 10.8715 33.8484 6.70948C33.6374 6.73728 33.4265 6.76725 33.2134 6.79506C33.9259 10.3903 34.8514 13.9428 35.99 17.429C36.3129 18.4171 36.653 19.4009 37.0103 20.3783C37.1287 20.7055 37.6452 20.6735 37.6452 20.2928C37.6431 15.9596 37.2255 11.6329 36.399 7.37894C36.3193 6.97257 35.6994 7.14577 35.7769 7.54999C36.4549 11.156 37.6452 14.6528 39.2983 17.9316C39.421 18.1732 39.8321 18.1198 39.888 17.8546C40.5251 14.9159 39.7761 11.7955 37.8906 9.44924C37.6797 9.18832 37.2729 9.47276 37.3504 9.7615C37.938 11.9452 39.0271 13.9642 40.5187 15.6688C40.7146 15.8912 41.0568 15.7009 41.0698 15.4421C41.1515 13.9342 40.6909 12.42 39.7783 11.2159C39.5351 10.8951 39.0077 11.171 39.2208 11.5388C39.9871 12.8691 40.8932 14.116 41.9178 15.2624C42.0448 15.4035 42.3439 15.3843 42.4257 15.1982C42.8885 14.1224 42.8068 12.882 42.1438 11.9024C41.9738 12.0329 41.8059 12.1612 41.6358 12.2917C42.6195 13.3332 43.827 14.1246 45.1701 14.6293C45.5597 14.7748 45.7276 14.1567 45.3423 14.0112C44.9419 13.8594 44.5394 13.7097 44.139 13.5578C43.7968 13.4295 43.5687 13.977 43.8894 14.1438C44.7999 14.6186 45.8761 14.6999 46.8382 14.3278C47.1847 14.1952 47.1202 13.7374 46.7521 13.6968C44.9333 13.4936 43.1167 13.2926 41.2979 13.0894C40.9277 13.0488 40.8739 13.6198 41.2118 13.7203C42.8304 14.1952 44.5265 14.3791 46.2119 14.2593C46.5541 14.2358 46.6768 13.7075 46.2979 13.6284C43.8119 13.113 41.3754 12.3943 39.0077 11.4854C38.9496 11.6907 38.8936 11.8981 38.8355 12.1034C40.6091 12.5847 42.4473 12.8114 44.2855 12.7729C44.2855 12.559 44.2855 12.3451 44.2855 12.1313C42.2471 12.174 40.2281 11.7056 38.4266 10.7603C38.3426 10.9549 38.2608 11.1517 38.1769 11.3463C40.721 12.2317 43.3384 12.8905 46.0009 13.3183C46.4013 13.3824 46.5842 12.7921 46.1731 12.7002C44.5868 12.3473 43.0887 11.7163 41.7305 10.8287C41.6466 11.0234 41.5648 11.2201 41.4808 11.4148C43.2458 11.9302 44.9269 12.6809 46.4895 13.6476C46.5433 13.4487 46.5971 13.2498 46.6531 13.0488C43.5558 12.7258 40.5682 11.742 37.7787 10.3881C34.9526 9.01719 32.3137 7.29125 29.7717 5.45833C28.3209 4.41247 26.8982 3.32597 25.4797 2.2352C25.4044 2.41699 25.3269 2.60094 25.2516 2.78273C28.2327 2.96881 31.0244 4.71186 32.5053 7.28479C32.6516 7.13935 32.8001 6.99182 32.9465 6.84639C30.8457 5.43266 28.9861 3.68955 27.432 1.69623C27.3007 1.86519 27.1715 2.03198 27.0403 2.20095C30.5164 4.50867 33.9925 6.81642 37.4687 9.12201C37.8217 9.35727 38.1144 8.81187 37.7937 8.56805C35.1054 6.52339 32.417 4.47875 29.7308 2.43409C29.6232 2.61802 29.5134 2.80411 29.4058 2.98805C32.587 4.95143 35.7683 6.91268 38.9496 8.87607C39.8472 9.43001 40.7447 9.98395 41.6444 10.5379C41.7521 10.354 41.8618 10.1679 41.9694 9.98394C38.8011 8.44403 35.6327 6.90624 32.4643 5.36633C32.0941 5.18667 31.7713 5.71496 32.1393 5.92028C35.8695 8.00344 39.4726 10.3047 42.9294 12.8092C43.0134 12.6146 43.0951 12.4178 43.1791 12.2232C39.5415 10.8737 35.7963 9.82568 31.9843 9.08781C31.8294 9.05786 31.6163 9.13054 31.5862 9.31233C31.2289 11.6265 31.2978 13.9748 31.7993 16.2633C31.9951 16.1799 32.1932 16.0986 32.389 16.0152C31.0782 13.746 29.7674 11.4768 28.4544 9.20968C28.293 8.9295 27.8603 9.05783 27.8517 9.37223C27.7936 12.2018 28.491 15.0335 29.8556 17.5167C30.1871 18.1219 30.5552 18.7165 30.977 19.264C31.3365 19.7324 31.8466 20.1773 32.4859 20.0468C33.0649 19.9271 33.3791 19.3667 33.5772 18.8662C33.8548 18.1626 34.0722 17.4161 34.2487 16.6804C34.578 15.3052 34.6964 13.7717 34.0313 12.4713C33.5104 11.4554 32.5139 10.5699 31.3559 10.3881C30.2301 10.2106 29.1755 10.756 28.5685 11.6928C27.9787 12.6018 27.8044 13.7717 27.8948 14.8346C28.1337 17.6236 29.875 20.2308 32.2319 21.7129C32.3912 21.8135 32.6753 21.7257 32.7054 21.5204C33.1058 18.8085 32.3632 16.0388 30.652 13.8872C30.4583 13.6434 30.1268 13.8722 30.101 14.1139C29.8621 16.4067 29.9934 18.7208 30.4712 20.975C30.6778 20.9173 30.8866 20.8617 31.0933 20.804C30.751 19.4437 30.0536 18.1989 29.0743 17.1916C28.8741 16.9862 28.5298 17.1467 28.5233 17.4183C28.4501 20.0832 28.6244 22.7459 29.0312 25.3809C29.0678 25.6119 29.4251 25.6995 29.5715 25.522C31.6809 22.9555 32.841 19.6918 32.798 16.3745C32.7937 16.0216 32.2491 15.9276 32.163 16.289C31.6593 18.4256 31.6529 20.6478 32.1458 22.7865C32.2082 23.0603 32.5999 23.0945 32.7355 22.8636C33.8892 20.9066 34.4123 18.6117 34.2014 16.351C34.1712 16.0324 33.7881 15.9169 33.5987 16.1885C32.6279 17.5958 32.5418 19.5356 33.3791 21.0263C33.5685 21.3643 33.8247 21.7493 34.2229 21.8584C34.6555 21.9781 35.0172 21.7086 35.2582 21.3771C35.8157 20.6136 36.2117 19.6789 36.5367 18.7978C36.922 17.7476 37.1652 16.6526 37.2815 15.5404C37.3095 15.2667 36.9069 15.1148 36.7304 15.3137C35.6133 16.5734 35.3852 18.447 36.1816 19.9313C36.2892 20.1345 36.6357 20.1473 36.7391 19.9313C37.5182 18.3123 37.9035 16.535 37.839 14.7384C37.8282 14.4326 37.3956 14.285 37.2363 14.5759C36.3021 16.2997 36.0546 18.3294 36.5539 20.2243C36.6185 20.4681 36.9177 20.5216 37.0942 20.3655C38.8785 18.7871 40.0774 16.5927 40.4283 14.2443C40.4649 13.9941 40.2152 13.7097 39.9548 13.8829C39.2638 14.3385 38.9302 15.1704 39.1326 15.9725C39.1649 16.0965 39.3069 16.2227 39.4447 16.2077C41.2376 16.0067 42.7809 14.8539 43.4783 13.2006C43.5945 12.9226 43.2265 12.7194 43.0048 12.8392C42.1632 13.2862 41.3194 13.7332 40.4778 14.1802C40.2518 14.2999 40.2755 14.7255 40.5553 14.7662C42.2363 15.0079 43.9281 14.9736 45.5984 14.6592C45.9062 14.6015 45.9062 14.0968 45.5984 14.0412C43.5364 13.6605 40.2217 13.5022 39.4339 15.9896C39.3715 16.1842 39.5393 16.4024 39.746 16.3959C41.2053 16.3403 42.6044 15.6731 43.5364 14.5481C43.6849 14.3684 43.6462 14.0775 43.3943 14.0112C40.1958 13.1686 36.9995 12.3237 33.801 11.4811C32.4924 11.1367 30.8823 10.9549 30.1333 9.68662C29.7782 9.08349 29.5715 8.39698 29.3326 7.74252C29.0528 6.9747 28.7708 6.20688 28.491 5.43906C27.856 3.70239 27.2232 1.96569 26.5883 0.229012C26.4075 0.333811 26.2288 0.436463 26.048 0.541263C30.9964 4.50439 36.3495 7.96494 42.0125 10.8352C43.5945 11.6372 45.2002 12.3922 46.8253 13.1023C46.8511 12.9076 46.8769 12.7109 46.9028 12.5162C44.1907 13.3076 41.5949 14.4967 39.2359 16.0431C38.0628 16.813 36.95 17.6707 35.9018 18.5989C34.8686 19.5121 33.8871 20.4831 32.8539 21.3963C31.6959 22.423 30.4669 23.3747 29.0743 24.0677C29.2314 24.1318 29.3907 24.196 29.5478 24.2602C28.7471 21.0948 27.9486 17.9273 27.1479 14.762C27.1027 14.5866 26.9176 14.5031 26.7519 14.5374C20.3915 15.8912 13.889 16.5606 7.3844 16.5285C5.54193 16.52 3.70158 16.4537 1.86342 16.3339C1.96673 16.4687 2.07004 16.6056 2.17551 16.7403C2.82769 14.0241 2.86429 11.1923 2.29174 8.45897C2.18843 8.59371 2.08512 8.73062 1.97965 8.86537C8.27978 8.65363 14.5799 8.4419 20.8801 8.23016C22.6709 8.17027 24.4595 8.11037 26.2503 8.05048C26.1427 7.94355 26.0351 7.83661 25.9275 7.72967C25.9189 8.92952 25.9102 10.1294 25.9016 11.3292C25.8973 11.9088 25.8952 12.4884 25.8887 13.068C25.8844 13.5599 25.8736 14.0689 25.5938 14.4967C25.1461 15.1832 24.2378 15.4378 23.4801 15.596C22.4362 15.8163 21.3665 15.9511 20.3075 16.0773C15.9854 16.597 11.6203 16.7039 7.31335 17.3669C4.89619 17.7391 2.50697 18.3016 0.229711 19.1977C-0.0479511 19.3068 -0.103914 19.7281 0.229711 19.8158C1.41785 20.1281 2.65769 20.2436 3.88241 20.1409C5.01674 20.0447 6.22636 19.8179 7.23153 19.2661C8.0473 18.8191 8.86525 18.0685 8.93198 17.0889C9.00516 15.9896 7.98275 15.2388 7.14977 14.7149C6.03912 14.0176 4.77994 13.6006 3.47773 13.4573C3.26464 13.4338 3.11613 13.6797 3.16564 13.8636C3.6607 15.6538 5.35896 17.2621 7.31766 17.1402C8.97503 17.0376 10.486 15.4399 10.3375 13.7588C10.2708 12.9974 9.87257 12.3002 9.18379 11.9366C8.5639 11.6094 7.81701 11.5474 7.14115 11.7142C6.50834 11.8703 5.89488 12.2617 5.61507 12.8648C5.21902 13.7161 5.52038 14.6785 6.06279 15.3929C7.17343 16.8494 9.65517 18.0984 11.3297 16.8044C12.1111 16.2013 12.4426 15.1769 12.4103 14.2208C12.3801 13.3054 12.0121 12.4435 11.4352 11.7356C10.3117 10.3539 8.29918 9.62461 6.63105 10.4566C5.21046 11.1667 4.35162 12.8734 4.56471 14.4283C4.83807 16.4238 6.99909 17.5316 8.81358 17.8482C9.82952 18.0257 10.91 17.9594 11.8248 17.4503C12.5696 17.0354 13.1034 16.3489 13.3875 15.5533C13.9643 13.93 13.4714 12.02 12.1843 10.8736C10.7335 9.57969 8.62416 9.23106 6.75586 9.63101C5.77436 9.84061 4.78423 10.3347 4.59267 11.4126C4.41402 12.4264 4.89401 13.4402 5.35463 14.3149C6.22421 15.9725 7.28323 17.7926 9.09772 18.5583C10.8024 19.2769 12.7138 18.6801 13.9708 17.3969C15.2665 16.0773 15.7314 14.1695 15.0362 12.4392C14.3474 10.7261 12.7827 9.40645 10.9875 8.95304C9.27637 8.52101 7.25306 8.97873 6.15533 10.431C5.61507 11.1453 5.4558 12.0542 5.73561 12.9076C6.07139 13.9299 6.85704 14.7769 7.52429 15.5982C8.82435 17.198 10.3504 18.8234 12.3995 19.4158C14.1645 19.927 16.3126 19.6554 17.5029 18.1369C18.6759 16.6397 18.5791 14.3962 17.4426 12.9055C16.8357 12.1098 16.0027 11.5324 15.0685 11.1752C14.1624 10.8288 13.0582 10.6512 12.1003 10.8694C11.1899 11.0768 10.6044 11.8447 10.6689 12.7708C10.7292 13.6412 11.2028 14.4946 11.8356 15.0891C13.3014 16.4665 15.6217 17.183 17.5718 16.5157C19.3454 15.9083 20.8327 14.1182 20.6196 12.1826C20.4216 10.3903 18.6953 8.77338 16.827 9.00865C15.8584 9.13056 14.9178 9.76576 14.7306 10.7688C14.5541 11.712 14.9996 12.6317 15.5829 13.3503C16.233 14.1502 17.1499 14.7256 18.1034 15.1041C19.0741 15.4891 20.2171 15.6346 21.2223 15.2881C22.8904 14.7128 24.3304 12.5975 23.0777 10.9763C22.602 10.3603 21.8314 9.94759 21.0458 9.94759C20.1332 9.94759 19.4379 10.5614 19.1495 11.3955C18.5016 13.2648 19.8512 15.3351 21.6506 15.9276C23.4522 16.52 25.5723 15.5768 26.4677 13.9471C26.9434 13.083 27.1113 11.9153 26.5021 11.0683C26.0674 10.4652 25.3313 10.1935 24.5994 10.2577C23.8569 10.324 23.1293 10.6598 22.6235 11.2094C22.0208 11.866 21.8551 12.7579 21.995 13.6177C22.1564 14.6122 22.7419 15.5212 23.463 16.212C24.1238 16.8429 25.2301 17.6814 26.0372 16.7916C26.358 16.4366 26.5215 15.9703 26.6916 15.5319C26.909 14.9737 27.107 14.4026 27.1952 13.8102C27.3416 12.8242 27.1802 11.7826 26.3881 11.1046C25.7854 10.5871 24.9115 10.2876 24.1496 10.6341C23.2692 11.0362 23.0712 12.0435 23.2326 12.9055C23.4091 13.8422 23.958 14.7641 24.6446 15.4207C25.2667 16.0174 26.2396 16.5179 27.1199 16.2035C27.7829 15.9682 28.2413 15.318 28.3446 14.64C28.4587 13.8872 28.0627 13.1921 27.2706 13.0766C26.7454 13.0017 26.1879 13.1472 25.6778 13.2584C25.1375 13.3782 24.6037 13.5278 24.0807 13.7096C23.0088 14.0818 21.9821 14.5759 21.0221 15.1811C20.8348 15.2988 20.7896 15.6281 21.0221 15.735C22.8603 16.582 24.7888 17.2151 26.7777 17.6086C26.8056 17.399 26.8358 17.1894 26.8638 16.9777C24.9417 16.8301 23.0109 16.9563 21.1233 17.3413C20.8198 17.4033 20.8112 17.9038 21.1233 17.9594C24.6446 18.5989 28.2994 18.4043 31.7282 17.3777C32.7033 17.0846 33.6568 16.7232 34.5845 16.304C34.7954 16.2077 34.7954 15.8463 34.5845 15.75C30.2538 13.7845 25.4926 12.8071 20.7315 12.914C19.3841 12.944 18.0388 13.068 16.7065 13.269C16.4676 13.3054 16.3944 13.6562 16.5644 13.8059C18.3897 15.4078 20.8047 16.2719 23.2413 16.1714C23.5986 16.1564 23.6889 15.6388 23.3273 15.5404C19.1602 14.4154 14.7887 14.0861 10.5011 14.5866C10.2277 14.6186 10.0684 14.9159 10.2729 15.1341C11.6914 16.6526 13.6415 17.5915 15.7121 17.7904C15.7121 17.5765 15.7121 17.3627 15.7121 17.1488C13.2734 17.0568 10.8261 17.3092 8.45846 17.8952C8.08178 17.9872 8.2023 18.4898 8.54453 18.5261C9.50236 18.6267 10.4581 18.7251 11.4159 18.8256C11.4159 18.6117 11.4159 18.3978 11.4159 18.184C9.61 18.1818 7.80408 18.1797 6.00036 18.1775C5.58494 18.1775 5.58494 18.8192 6.00036 18.8192C7.80624 18.8213 9.61215 18.8235 11.4159 18.8256C11.8399 18.8256 11.8205 18.2267 11.4159 18.184C10.4581 18.0835 9.50236 17.985 8.54453 17.8845C8.57251 18.0941 8.60263 18.3037 8.63061 18.5154C10.9466 17.9444 13.3294 17.7027 15.7143 17.7926C16.1361 17.8075 16.1211 17.1894 15.7143 17.1509C13.8137 16.9691 12.0271 16.0708 10.7314 14.6828C10.656 14.8646 10.5786 15.0485 10.5033 15.2303C14.7392 14.7363 19.044 15.0485 23.1594 16.1607C23.1874 15.9511 23.2176 15.7415 23.2456 15.5297C20.9812 15.6238 18.7255 14.8453 17.025 13.3525C16.9777 13.5321 16.9304 13.7097 16.883 13.8893C21.4569 13.1985 26.1814 13.5664 30.6004 14.9202C31.8509 15.3031 33.0735 15.765 34.2638 16.304C34.2638 16.1201 34.2638 15.934 34.2638 15.75C31.1256 17.168 27.6537 17.8225 24.212 17.6685C23.2348 17.6257 22.2619 17.5145 21.2998 17.3391C21.2998 17.5444 21.2998 17.7519 21.2998 17.9573C23.1315 17.583 25.0041 17.4739 26.868 17.6172C27.2275 17.645 27.3115 17.0568 26.9542 16.9862C25.0235 16.6034 23.1401 16.0003 21.3536 15.1769C21.3536 15.3608 21.3536 15.5468 21.3536 15.7308C22.1844 15.2068 23.0647 14.7598 23.9881 14.4197C24.8835 14.0904 25.8693 13.7759 26.8272 13.6989C27.122 13.6754 27.4729 13.699 27.6386 13.9791C27.7506 14.1695 27.7463 14.4112 27.6989 14.6186C27.587 15.1105 27.2103 15.6046 26.67 15.6388C25.8457 15.6923 25.1397 15.0934 24.6747 14.4775C24.2098 13.8615 23.8159 13.083 23.8224 12.296C23.8289 11.6115 24.3003 11.0319 25.0299 11.1281C25.6541 11.2116 26.2654 11.7035 26.4742 12.2938C26.8164 13.2541 26.4742 14.3128 26.1276 15.2196C25.9856 15.5918 25.8543 16.0259 25.5874 16.3318C25.2667 16.6975 24.8728 16.4858 24.5349 16.2527C23.8332 15.7672 23.2391 15.0913 22.8839 14.3171C22.574 13.6391 22.4492 12.7622 22.7978 12.0735C23.2735 11.1346 24.7845 10.4523 25.7165 11.156C26.3666 11.6479 26.3364 12.5825 26.0738 13.2712C25.7897 14.0198 25.187 14.6272 24.4897 15.0079C23.0583 15.7907 21.2869 15.4976 20.286 14.1823C19.8146 13.5642 19.552 12.7686 19.6682 11.9922C19.7737 11.2928 20.2171 10.602 20.9898 10.5807C21.599 10.5635 22.2188 10.8822 22.5804 11.3656C23.0174 11.9495 22.97 12.7215 22.6299 13.3396C22.249 14.0305 21.5623 14.5459 20.7961 14.7363C19.9007 14.9587 18.9342 14.7726 18.1056 14.4026C17.3092 14.0476 16.558 13.545 16.0177 12.8563C15.5636 12.2767 15.1697 11.4725 15.4064 10.7261C15.6582 9.93046 16.5623 9.57116 17.3414 9.62036C18.0991 9.66741 18.7922 10.0994 19.2786 10.6598C20.3699 11.9195 20.0987 13.6883 18.9967 14.8453C17.7806 16.1222 15.966 16.3746 14.3324 15.8249C12.9634 15.3629 11.2652 14.1888 11.3104 12.5676C11.3599 10.7389 14.3173 11.4725 15.301 11.9623C16.7861 12.7002 17.7763 14.1331 17.6902 15.8099C17.6514 16.5692 17.3738 17.337 16.8529 17.9016C16.3277 18.4684 15.6196 18.802 14.8641 18.9389C13.211 19.2362 11.5644 18.571 10.2966 17.5466C9.58843 16.9734 8.96425 16.304 8.37664 15.611C7.79118 14.9181 7.16912 14.2101 6.69774 13.4337C6.28878 12.76 6.07138 11.9666 6.42007 11.2201C6.7171 10.5807 7.30041 10.1187 7.92676 9.81711C9.33014 9.14126 10.9639 9.38719 12.2682 10.17C13.564 10.9485 14.5993 12.3045 14.7155 13.838C14.8296 15.3351 13.9902 16.7617 12.7439 17.568C12.1283 17.9679 11.4137 18.2225 10.6754 18.231C9.90269 18.2396 9.17735 17.9551 8.5553 17.5124C7.23802 16.5777 6.40074 14.9972 5.70981 13.5835C5.37188 12.8927 4.96938 11.9345 5.33529 11.1816C5.70766 10.4138 6.77311 10.2213 7.54368 10.1422C9.13001 9.97752 10.8498 10.3839 11.9776 11.5602C12.9441 12.5697 13.2347 14.1353 12.7417 15.4356C12.4921 16.0922 12.0164 16.6269 11.3879 16.9456C10.6151 17.3392 9.69391 17.3605 8.85662 17.198C7.36715 16.9071 5.47303 16.0452 5.20613 14.3855C5.00595 13.1386 5.67535 11.7548 6.76017 11.1111C8.08175 10.3283 9.72834 10.863 10.7335 11.9067C11.7602 12.9761 12.2768 14.9651 11.1102 16.1393C9.84458 17.414 7.69434 16.2868 6.73006 15.1918C6.26298 14.6614 5.86693 13.8615 6.18118 13.16C6.39212 12.6916 6.88071 12.4242 7.36286 12.3152C7.87083 12.1997 8.4455 12.2532 8.90181 12.5098C9.42485 12.8028 9.6961 13.3589 9.69825 13.9471C9.7004 15.3373 8.39168 16.5521 7.00983 16.4965C5.45578 16.4366 4.1794 15.1127 3.78551 13.6861C3.68219 13.8209 3.57889 13.9577 3.47342 14.0925C4.47645 14.2016 5.46012 14.5095 6.34692 14.9865C6.78386 15.2217 7.20789 15.4934 7.58672 15.8142C7.91388 16.0901 8.23244 16.4302 8.27979 16.875C8.36804 17.7006 7.54578 18.3508 6.90221 18.7058C6.03048 19.1849 4.95861 19.3923 3.97495 19.4843C2.77175 19.5977 1.56422 19.4972 0.397606 19.1913C0.397606 19.3966 0.397606 19.6041 0.397606 19.8094C4.58406 18.1604 9.08478 17.6835 13.536 17.322C15.7939 17.1381 18.0539 16.982 20.3032 16.7103C21.3837 16.5799 22.4685 16.4409 23.5361 16.2291C24.3605 16.0644 25.2516 15.795 25.8543 15.179C26.7109 14.3021 26.5302 12.9696 26.5388 11.8489C26.5495 10.4716 26.5581 9.09633 26.5689 7.71897C26.571 7.55 26.4204 7.39173 26.246 7.39815C19.9459 7.60989 13.6457 7.82162 7.34562 8.03336C5.55481 8.09324 3.76616 8.15315 1.97535 8.21303C1.7558 8.21945 1.62021 8.41192 1.66326 8.61938C2.21212 11.2372 2.17122 13.9578 1.54702 16.5585C1.49536 16.7702 1.64602 16.9499 1.85911 16.9648C8.40892 17.3926 14.9953 17.1103 21.4848 16.1329C23.3058 15.8591 25.1182 15.5276 26.9176 15.1447C26.7863 15.0699 26.6528 14.9951 26.5194 14.9202C27.3201 18.0856 28.1186 21.2531 28.9193 24.4184C28.9731 24.6302 29.2121 24.7007 29.3929 24.6109C31.8574 23.3854 33.7795 21.3835 35.7834 19.5528C37.8433 17.6685 40.1183 16.0623 42.6367 14.8325C44.0616 14.1353 45.5446 13.5663 47.0685 13.1236C47.3117 13.053 47.4129 12.6531 47.146 12.5376C41.3818 10.0203 35.8802 6.91693 30.7532 3.28317C29.3046 2.25657 27.8861 1.18505 26.4978 0.0750268C26.274 -0.104629 25.837 0.0536308 25.9576 0.387278C26.543 1.99135 27.1285 3.59328 27.714 5.19736C28.0067 5.99939 28.2994 6.80143 28.5921 7.60132C28.8483 8.30284 29.0764 9.03003 29.4079 9.7016C29.7092 10.3133 30.1462 10.8373 30.7489 11.1731C31.3494 11.5089 32.0317 11.6671 32.6925 11.8404C34.3434 12.2767 35.9943 12.7109 37.6431 13.1472C39.5006 13.637 41.356 14.1267 43.2136 14.6165C43.1662 14.4368 43.1188 14.2593 43.0715 14.0796C42.2471 15.0742 41.0374 15.6901 39.7374 15.7393C39.8407 15.8741 39.944 16.011 40.0495 16.1457C40.3551 15.1833 41.2549 14.732 42.1955 14.5544C43.2501 14.3555 44.3694 14.4518 45.4176 14.6464C45.4176 14.4411 45.4176 14.2336 45.4176 14.0283C43.8722 14.3192 42.2772 14.3577 40.7189 14.1353C40.7447 14.3299 40.7706 14.5266 40.7964 14.7213C41.638 14.2743 42.4817 13.8273 43.3233 13.3803C43.1662 13.2605 43.0069 13.1386 42.8498 13.0188C42.2751 14.3812 40.9148 15.3886 39.4382 15.5554C39.5415 15.6346 39.6448 15.7115 39.7503 15.7907C39.6211 15.2774 39.8278 14.7192 40.2755 14.4262C40.1183 14.3064 39.9591 14.1845 39.8019 14.0647C39.4662 16.3168 38.3448 18.3892 36.6336 19.9035C36.8144 19.9505 36.993 19.9976 37.1739 20.0447C36.7175 18.3187 36.9371 16.4622 37.7894 14.8902C37.5892 14.8368 37.3891 14.7833 37.1868 14.7277C37.2449 16.4066 36.9048 18.0791 36.1751 19.5977C36.3602 19.5977 36.5475 19.5977 36.7326 19.5977C36.0804 18.3786 36.2612 16.7959 37.1803 15.7586C36.9974 15.6837 36.8122 15.6067 36.6293 15.5319C36.4592 17.1531 35.9728 18.7422 35.2065 20.1815C35.0408 20.4917 34.875 20.8852 34.6168 21.1333C34.324 21.4135 34.0808 20.9579 33.9495 20.7291C33.6051 20.1302 33.4394 19.4394 33.4437 18.7507C33.448 17.9444 33.6912 17.168 34.1497 16.505C33.9495 16.4516 33.7493 16.3981 33.547 16.3425C33.7472 18.4962 33.2694 20.6628 32.1695 22.532C32.3653 22.5577 32.5634 22.5834 32.7592 22.6091C32.2922 20.5837 32.2986 18.4748 32.7765 16.4516C32.5655 16.4237 32.3546 16.3938 32.1415 16.366C32.1845 19.5036 31.104 22.6262 29.1044 25.0601C29.2852 25.1071 29.4639 25.1542 29.6447 25.2012C29.2465 22.624 29.0894 20.0147 29.1604 17.4097C28.9774 17.4846 28.7923 17.5616 28.6094 17.6364C29.5134 18.5689 30.1462 19.711 30.4605 20.9665C30.5616 21.3685 31.1686 21.1975 31.0825 20.7954C30.6154 18.5967 30.5035 16.3403 30.736 14.1053C30.553 14.1802 30.3679 14.2572 30.185 14.3321C31.7347 16.2826 32.4364 18.8812 32.0726 21.3407C32.2298 21.2766 32.389 21.2124 32.5462 21.1483C30.6477 19.957 29.2572 18.0342 28.7148 15.8698C28.4738 14.9116 28.4178 13.9085 28.6933 12.9482C28.9409 12.0906 29.4919 11.2843 30.4002 11.0469C31.4032 10.7838 32.3912 11.3634 33.0175 12.1077C33.8139 13.053 33.9539 14.3064 33.8053 15.4913C33.7171 16.2013 33.5255 16.8986 33.3124 17.5808C33.1531 18.092 33.0261 18.7143 32.6947 19.1506C32.3137 19.649 31.8359 19.3154 31.5238 18.9283C31.1492 18.4641 30.8328 17.938 30.5379 17.4226C29.1389 14.978 28.4286 12.1719 28.4867 9.36157C28.2865 9.41504 28.0864 9.46846 27.884 9.52407C29.1949 11.7933 30.5056 14.0625 31.8165 16.3296C32.0037 16.6547 32.4838 16.4302 32.4063 16.0816C31.9306 13.915 31.8552 11.665 32.1931 9.4706C32.0618 9.54546 31.9284 9.62032 31.795 9.69518C35.6069 10.4309 39.3521 11.4811 42.9897 12.8306C43.3578 12.9675 43.5106 12.4414 43.2394 12.2446C39.7826 9.74013 36.1773 7.43878 32.4493 5.35562C32.3417 5.53956 32.2319 5.72565 32.1243 5.90958C35.2926 7.44949 38.461 8.98728 41.6293 10.5272C41.9996 10.7068 42.3117 10.1935 41.9544 9.97323C38.7731 8.00985 35.5918 6.04859 32.4105 4.08521C31.513 3.53127 30.6155 2.97732 29.7157 2.42338C29.352 2.19881 29.07 2.73352 29.3907 2.97734C32.0791 5.022 34.7675 7.06664 37.4537 9.1113C37.5613 8.92737 37.6711 8.74133 37.7787 8.5574C34.3025 6.24967 30.8263 3.94192 27.3502 1.63633C27.0187 1.41604 26.754 1.8759 26.9585 2.14111C28.547 4.17721 30.4562 5.94806 32.6021 7.39173C32.8776 7.5778 33.1962 7.21853 33.0434 6.95332C31.4463 4.17721 28.4393 2.33145 25.2301 2.13254C24.9696 2.11543 24.7802 2.50892 25.0019 2.68003C27.5547 4.64341 30.1225 6.59828 32.8389 8.33496C35.5251 10.0524 38.3727 11.5624 41.4141 12.559C43.1102 13.1151 44.8558 13.4958 46.6316 13.6797C46.9695 13.7139 47.0448 13.237 46.7952 13.0809C45.1873 12.0863 43.4481 11.3142 41.6315 10.7838C41.2699 10.679 41.0848 11.1752 41.3818 11.3698C42.7831 12.2852 44.3435 12.9419 45.9794 13.3054C46.0375 13.1001 46.0935 12.8926 46.1516 12.6873C43.4912 12.2596 40.8717 11.6008 38.3275 10.7154C37.9831 10.5956 37.7571 11.1324 38.0779 11.3014C39.9784 12.3002 42.1115 12.8071 44.2639 12.76C44.6793 12.7515 44.6793 12.1099 44.2639 12.1184C42.4796 12.1548 40.7081 11.9388 38.984 11.4704C38.5751 11.3591 38.433 11.9431 38.8118 12.0885C41.1795 12.9996 43.6182 13.716 46.1021 14.2315C46.1301 14.0219 46.1602 13.8123 46.1882 13.6006C44.5566 13.7161 42.9294 13.545 41.3603 13.0851C41.3323 13.2947 41.3022 13.5043 41.2742 13.7161C43.093 13.9192 44.9096 14.1203 46.7284 14.3235C46.7004 14.1139 46.6703 13.9043 46.6423 13.6926C45.8395 14.0027 44.957 13.9727 44.1908 13.5728C44.1068 13.7674 44.025 13.9642 43.941 14.1588C44.3414 14.3107 44.7439 14.4603 45.1443 14.6122C45.2024 14.4069 45.2584 14.1994 45.3165 13.9941C44.0788 13.53 42.9703 12.7815 42.0663 11.8212C41.8188 11.5602 41.3517 11.9045 41.5583 12.2104C42.0813 12.9846 42.2127 13.992 41.8403 14.8582C42.0103 14.8368 42.1782 14.8154 42.3483 14.794C41.3603 13.6861 40.4929 12.4841 39.7524 11.1987C39.5673 11.3057 39.3801 11.4148 39.195 11.5217C40.0495 12.6467 40.4757 14.0176 40.4003 15.4249C40.5833 15.3501 40.7684 15.2731 40.9514 15.1982C39.5329 13.5792 38.5062 11.6479 37.9487 9.57331C37.7679 9.67811 37.5893 9.78076 37.4085 9.88556C39.1412 12.0414 39.8235 14.9715 39.2402 17.6664C39.4361 17.6407 39.6341 17.6151 39.83 17.5894C38.2006 14.3599 37.0404 10.9122 36.3732 7.36181C36.1665 7.41956 35.9577 7.47517 35.7511 7.53292C36.5647 11.7313 36.9715 16.0002 36.9737 20.2756C37.1846 20.2478 37.3956 20.2179 37.6086 20.1901C36.3538 16.7446 35.3012 13.2263 34.4682 9.6567C34.2315 8.64292 34.0141 7.62701 33.8117 6.60682C33.7429 6.2582 33.1359 6.3309 33.1768 6.69235C33.6589 10.8544 34.1411 15.0164 34.6232 19.1785C34.8342 19.1507 35.0451 19.1208 35.2582 19.0929C34.0098 15.3052 33.1639 11.3848 32.7635 7.41742C32.6516 6.30098 32.572 5.18028 32.5268 4.05743C32.3115 4.05743 32.0963 4.05743 31.881 4.05743C32.3223 8.9167 32.5827 13.793 32.6581 18.6737C32.6796 20.0532 32.686 21.4327 32.6774 22.8101C32.8884 22.7823 33.0993 22.7524 33.3124 22.7246C32.3718 17.9081 31.4333 13.0916 30.4927 8.27507C30.228 6.91481 29.9611 5.5524 29.6964 4.19215C29.4897 4.24989 29.2809 4.30551 29.0743 4.36326C29.9568 8.6857 30.8436 13.0851 30.5702 17.5188C30.4949 18.7571 30.3206 19.9869 30.0343 21.1953C30.2409 21.1953 30.4497 21.1953 30.6563 21.1953C29.8492 16.1564 29.0399 11.1175 28.2327 6.07641C28.0045 4.65413 27.7764 3.23186 27.5482 1.80959C27.3416 1.86733 27.1328 1.92295 26.9262 1.9807C28.6266 8.30074 29.1776 14.8432 29.466 21.3557C29.5478 23.2015 29.6081 25.0473 29.6683 26.8952C29.8793 26.8673 30.0903 26.8374 30.3033 26.8096C28.9516 20.0447 27.5977 13.2669 26.8121 6.41007C26.5925 4.50015 26.4182 2.5838 26.2998 0.665328C26.0889 0.693132 25.878 0.723106 25.6649 0.75091C26.2891 5.11613 26.9154 9.4792 27.5396 13.8444C27.5934 14.2251 28.1466 14.0946 28.1746 13.7588C28.4049 10.9998 27.8819 8.21947 26.6916 5.71925C26.528 5.37705 26.0286 5.62727 26.1018 5.96733C26.8616 9.4471 27.4213 12.9675 27.7786 16.5114C27.9895 16.4836 28.2004 16.4537 28.4135 16.4259C27.4299 13.838 26.6679 11.1731 26.1362 8.45897C26.0674 8.10821 25.4604 8.1831 25.5013 8.54455C25.7983 11.0726 25.8091 13.6262 25.5357 16.1585C25.7466 16.1307 25.9576 16.1008 26.1707 16.073C25.2365 13.5685 24.3024 11.064 23.3682 8.56163C23.2477 8.23867 22.7311 8.26437 22.7333 8.64721C22.7526 11.357 22.772 14.069 22.7914 16.7788C23.0023 16.751 23.2132 16.721 23.4263 16.6932C22.6493 13.9877 21.8702 11.28 21.0931 8.57447C20.8865 8.63222 20.6777 8.68784 20.4711 8.74558C21.6549 11.6778 22.4448 14.7641 22.7957 17.9059C22.9959 17.8525 23.196 17.799 23.3984 17.7434C21.9003 14.9031 20.4022 12.0628 18.9041 9.22252C18.7556 8.94234 18.2929 9.07067 18.3015 9.38507C18.3811 11.7612 18.4586 14.1396 18.5382 16.5157C18.7491 16.4879 18.9601 16.4579 19.1731 16.4301C18.5898 14.2957 18.0087 12.159 17.4254 10.0246C17.2188 10.0823 17.01 10.1379 16.8033 10.1957C17.5674 12.9889 17.8774 15.8848 17.7267 18.7742C17.9269 18.7208 18.1271 18.6673 18.3294 18.6117C17.0659 15.996 16.3513 13.1365 16.2308 10.2384C16.0156 10.2384 15.8003 10.2384 15.5851 10.2384C15.8886 13.1236 15.9316 16.0324 15.7121 18.924C15.923 18.8962 16.134 18.8662 16.347 18.8384C15.1073 15.5853 14.2377 12.1997 13.7598 8.75415C13.5532 8.81189 13.3444 8.86751 13.1378 8.92526C13.663 12.0885 13.7835 15.3095 13.5166 18.5026C13.7276 18.4748 13.9385 18.4449 14.1516 18.4171C13.0539 15.2945 12.2015 12.0927 11.6031 8.83968C11.4072 8.92309 11.2092 9.00439 11.0133 9.08781C12.2166 11.8939 12.3414 15.102 11.3986 17.9979C11.5945 17.9722 11.7925 17.9465 11.9884 17.9209C9.98235 15.2987 8.9987 11.9987 9.25053 8.71352C9.03959 8.74133 8.82867 8.77125 8.61558 8.79905C9.90057 11.881 10.1502 15.3308 9.29788 18.5603C9.47868 18.5133 9.65733 18.4663 9.83814 18.4192C7.86867 16.2933 6.92376 13.2798 7.35639 10.4203C7.14976 10.4203 6.941 10.4203 6.73437 10.4203C7.50278 12.944 7.62759 15.6303 7.08088 18.2096C7.27675 18.1839 7.47477 18.1583 7.67064 18.1326C6.67191 16.366 6.2759 14.3256 6.51482 12.3152C6.30388 12.343 6.0929 12.3729 5.87981 12.4007C6.40931 14.4176 5.64737 16.6291 4.01799 17.9294C4.19879 17.9765 4.37744 18.0236 4.55825 18.0706C3.70159 14.9373 3.38521 11.68 3.61767 8.44189C3.40243 8.44189 3.18718 8.44189 2.97194 8.44189C3.40027 11.9088 3.27543 15.4292 2.58881 18.8555C2.79974 18.8833 3.01067 18.9132 3.22376 18.9411C3.19793 16.2355 3.16992 13.53 3.14409 10.8245C2.93316 10.8523 2.72223 10.8822 2.50914 10.91C3.04294 13.1985 3.185 15.5575 2.93963 17.8952C3.1398 17.8417 3.33999 17.7883 3.54231 17.7327C2.3714 15.1961 1.55993 12.5055 1.11869 9.74865C0.937884 9.85345 0.759231 9.9561 0.578428 10.0609C0.806584 10.2406 0.937899 10.54 0.810906 10.8223C0.64517 11.2116 1.20046 11.5367 1.3705 11.1603Z" fill="#7EAF15"/>
<path d="M6.25437 11.682C6.13384 11.1772 6.48466 10.6704 6.98402 10.5591C7.2789 10.4928 7.30473 9.98812 6.98402 9.94107C6.06924 9.80846 5.15231 9.6737 4.23753 9.54109C4.20955 9.75069 4.17944 9.96028 4.15146 10.172C5.77223 10.1228 7.35423 9.66727 8.74899 8.84171C8.93841 8.7305 8.98146 8.38619 8.74899 8.28781C7.28104 7.66115 5.69475 7.38522 4.10196 7.51141C3.68223 7.54563 3.693 8.10598 4.10196 8.15304C5.67537 8.33697 7.25093 8.52092 8.82435 8.70485C8.79637 8.49526 8.7662 8.28567 8.73822 8.07393C6.74293 8.34555 4.8079 8.91442 2.97619 9.74426C2.73512 9.85334 2.78465 10.2896 3.0537 10.3303C4.82084 10.5998 6.588 10.8714 8.35298 11.1409C8.68015 11.1901 8.9664 10.7174 8.60264 10.5549C6.42224 9.57531 3.80058 9.75924 1.80529 11.0853C1.56422 11.2457 1.6202 11.575 1.8828 11.6713C3.6607 12.33 5.5677 12.5182 7.44246 12.2573C7.72873 12.2167 7.74167 11.7975 7.51997 11.6713C6.75586 11.2371 5.93362 10.9035 5.07911 10.6939C4.4011 10.5271 3.42394 10.2597 2.8105 10.7324C2.15186 11.2393 2.42949 12.144 2.77819 12.745C3.15486 13.3951 3.70373 13.9469 4.34085 14.349C5.06191 14.8046 5.89703 15.057 6.74939 15.0827C6.89575 15.0869 7.01848 14.98 7.06153 14.8474C7.30691 14.071 7.4231 13.224 7.34777 12.4113C7.28104 11.7055 7.07659 10.9356 6.5105 10.4565C5.86262 9.90683 4.90691 9.8769 4.21383 10.3667C3.44542 10.9099 3.05583 11.8659 3.19143 12.7856C3.3421 13.8036 4.03305 14.6613 4.82729 15.2816C5.60862 15.889 6.58153 16.3445 7.59102 16.3381C8.54669 16.3317 9.42486 15.8248 9.78217 14.9265C10.1072 14.1095 9.96081 13.1021 9.45069 12.3878C8.86523 11.5708 7.9031 11.1516 6.92159 11.0489C5.94009 10.9484 4.8058 11.1559 4.04815 11.8189C2.36495 13.2904 4.00506 15.6067 5.51821 16.4194C6.38564 16.8856 7.57811 17.2064 8.4563 16.5904C9.11063 16.1306 9.28281 15.3115 9.09125 14.5693C8.89968 13.8315 8.3723 13.1599 7.65555 12.8712C6.857 12.5482 5.9401 12.7621 5.2664 13.2604C3.95557 14.2293 3.36364 16.3231 4.76702 17.4909C5.89489 18.4298 7.78688 18.3207 8.81789 17.2834C9.07833 17.0203 9.26341 16.7081 9.38395 16.3595C9.42915 16.229 9.35383 16.0643 9.23544 15.998C8.19798 15.4141 6.98618 15.1682 5.80235 15.3158C4.94138 15.4227 3.2797 15.8483 3.47772 17.0332C3.57028 17.585 4.08687 17.848 4.56255 18.032C5.14155 18.2565 5.74209 18.4319 6.34907 18.5624C7.5781 18.8276 8.84801 18.9132 10.1007 18.8127C11.4976 18.6993 12.8537 18.3613 14.1408 17.8117C14.397 17.7026 14.3194 17.2813 14.0633 17.2257C11.969 16.7744 9.76066 17.6 8.4606 19.2853C8.29272 19.5035 8.53159 19.7409 8.74038 19.7687C9.95004 19.9291 11.1856 19.79 12.3306 19.3687C12.5997 19.2703 12.675 18.8126 12.3306 18.7506C10.8369 18.4833 9.32156 18.387 7.80626 18.479C7.39515 18.5047 7.38869 19.1335 7.80626 19.1206C11.489 19.0115 15.146 18.34 18.62 17.1209C18.945 17.0075 18.9192 16.4771 18.5339 16.4899C17.0961 16.5434 15.6992 16.9327 14.4464 17.6342C14.1795 17.7839 14.2829 18.1197 14.524 18.2202C17.1628 19.3195 20.3484 18.7613 22.4836 16.8856C22.701 16.6953 22.5202 16.3424 22.2554 16.3381C20.5486 16.306 18.8417 16.4793 17.1736 16.8471C16.8766 16.9134 16.8529 17.4182 17.1736 17.4652C18.3036 17.632 19.4358 17.6449 20.568 17.4866C21.4784 17.3604 22.5503 17.185 23.224 16.4985C23.5017 16.2162 23.6761 15.8441 23.633 15.4462C23.5813 14.9757 23.2606 14.6313 22.9119 14.3405C21.9821 13.5598 21.0328 12.7985 20.0922 12.0285C19.0354 11.1623 17.9807 10.2961 16.9239 9.42987C16.8184 9.60953 16.7151 9.78705 16.6096 9.9667C17.1542 10.0779 17.6988 10.1891 18.2433 10.3004C18.6092 10.3752 18.7922 9.92608 18.493 9.71434C17.1348 8.75618 15.4775 8.26425 13.8136 8.31558C13.452 8.32628 13.3724 8.84385 13.7276 8.94651C16.8163 9.82982 20.1073 9.90254 23.2348 9.16681C23.6072 9.07912 23.4952 8.56369 23.1487 8.53588C21.4332 8.399 19.7026 8.56798 18.0474 9.02995C17.7439 9.1155 17.7353 9.56676 18.0474 9.64803C20.88 10.3838 23.8848 10.3517 26.7002 9.5518C27.0252 9.45983 26.9865 9.04065 26.7002 8.93372C25.1483 8.34983 23.4715 8.12949 21.8206 8.29632C21.4504 8.33481 21.3923 8.78827 21.7346 8.92729C23.7557 9.74002 25.9705 10.0416 28.1358 9.79559C28.3274 9.7742 28.435 9.66513 28.4587 9.47478C28.5383 8.82673 28.3188 8.20007 27.8948 7.7103C27.7441 7.53706 27.3932 7.61836 27.3545 7.85149C26.9714 10.1528 27.5224 12.561 28.9193 14.4431C29.0484 14.6185 29.3627 14.6827 29.4768 14.4431C30.9146 11.4296 30.3787 7.68254 28.1423 5.19088C27.9723 5.00267 27.6731 5.116 27.6021 5.33202C26.7562 7.97125 27.9141 11.0425 30.2796 12.4969C30.5057 12.6359 30.7403 12.4498 30.7661 12.2188C31.0868 9.18178 30.228 6.05276 28.3984 3.5996C28.2198 3.3622 27.7914 3.41567 27.7957 3.76215C27.8582 7.52851 28.5147 11.2863 29.748 14.8495C30.101 15.8676 30.5014 16.8707 30.9426 17.8545C31.0588 18.1133 31.4699 18.0277 31.5324 17.7775C32.4213 14.2849 31.909 10.5057 30.1204 7.37241C29.9611 7.09223 29.5241 7.22056 29.5177 7.53496C29.4682 11.0639 29.9697 14.5993 31.005 17.9742C31.3021 18.9431 31.6443 19.8949 32.0274 20.8338C32.1544 21.1439 32.6732 21.1396 32.6624 20.7482C32.5634 17.2129 32.107 13.6903 31.302 10.2448C31.231 9.94319 30.7446 9.93463 30.68 10.2448C29.8277 14.287 29.8901 18.4897 30.8694 22.5063C30.934 22.7715 31.3279 22.8228 31.4592 22.5833C32.0532 21.5032 32.4902 20.3397 32.7291 19.1313C32.9078 18.2245 33.1058 17.1166 32.5569 16.2889C32.3352 15.9553 31.9951 15.72 31.5819 15.72C31.0717 15.72 30.68 16.0643 30.411 16.4622C29.7954 17.3733 29.5241 18.5838 29.4553 19.6639C29.3713 20.96 29.6318 22.2582 30.1957 23.4281C30.1957 23.3211 30.1957 23.2121 30.1957 23.1051C29.9783 23.5992 29.7631 24.0954 29.5457 24.5895C29.4704 24.7606 29.5112 25.0193 29.7394 25.06C30.9813 25.2845 31.9801 24.5445 32.7635 23.6655C33.1897 23.1864 33.5686 22.6688 33.9668 22.1662C34.3929 21.6273 34.8686 21.1332 35.3916 20.6841C36.4808 19.7516 37.7421 19.0308 39.0185 18.3828C40.4498 17.6556 41.9156 16.9926 43.3685 16.306C45.1464 15.4655 46.9243 14.6271 48.7022 13.7866C48.9562 13.6668 48.883 13.2626 48.6247 13.2005C47.8671 13.0145 47.1094 12.8284 46.3517 12.6423C46.1666 12.5974 45.9816 12.5482 45.7965 12.5054C45.5704 12.4541 45.4628 12.5054 45.2562 12.606C44.9053 12.7771 44.5545 12.9481 44.2036 13.1171C42.768 13.8143 41.3323 14.5137 39.8966 15.211C39.6663 15.3222 39.7072 15.643 39.8966 15.7649C40.3336 16.0472 40.7705 16.3295 41.2096 16.6119C41.2979 16.6696 41.4486 16.676 41.5347 16.6119C42.034 16.2483 42.5334 15.8868 43.0306 15.5232C43.2308 15.3778 43.2545 14.9928 42.9531 14.9372C39.4683 14.2827 36.4076 11.9836 34.718 8.89732C34.238 8.02043 33.8806 7.08579 33.6482 6.11479C33.4674 6.21959 33.2887 6.32224 33.1079 6.42704C34.4768 7.71458 35.8479 9.00212 37.2169 10.2897C37.4472 10.5057 37.8475 10.2939 37.7571 9.97741C37.2685 8.2664 35.5854 7.02375 33.7924 7.06653C33.6008 7.07081 33.4932 7.21196 33.4695 7.38734C33.2608 8.9572 33.4243 10.6575 34.0572 12.1205C34.2961 12.6744 34.6878 13.2561 35.2926 13.455C35.8802 13.6497 36.4679 13.3802 36.8058 12.8904C37.4946 11.8873 37.1889 10.4522 36.6982 9.4363C36.1536 8.30703 35.1807 7.36168 34.027 6.85693C33.0326 6.42276 31.0524 5.99716 31.0029 7.62049C30.9921 7.94986 31.0631 8.28567 31.1169 8.61076C31.1793 8.98932 31.2569 9.36575 31.3623 9.73361C31.5603 10.4266 31.8617 11.0939 32.3288 11.6521C33.123 12.5995 34.5393 13.1599 35.7253 12.6316C36.7068 12.1953 37.1373 11.1238 37.0598 10.1036C36.9608 8.82036 36.2311 7.73598 35.086 7.13926C33.6482 6.3907 31.9585 6.38644 30.3743 6.40997C30.482 6.5169 30.5896 6.62384 30.6972 6.73078C30.6262 5.73412 30.5573 4.73532 30.4863 3.73865C30.3033 3.81351 30.1182 3.89046 29.9352 3.96532C32.5569 6.06559 34.789 8.62569 36.4959 11.5109C36.978 12.3258 37.4171 13.1663 37.8153 14.0261C37.8325 13.8956 37.8497 13.7673 37.8648 13.6369C37.4106 14.0774 36.7025 13.9149 36.1493 13.7887C35.4799 13.6368 34.7803 13.408 34.0851 13.5128C32.1329 13.8058 32.5354 16.6396 33.0692 17.9229C33.4803 18.911 34.1432 19.7537 35.0171 20.3803C35.1678 20.4894 35.3637 20.3932 35.4584 20.2649C37.1157 18.0042 37.9379 15.1746 37.7507 12.3835C37.7356 12.1611 37.4816 11.9579 37.2642 12.1055C36.2139 12.8262 35.3099 13.7331 34.6039 14.7896C34.2423 15.3286 33.9431 15.9039 33.6956 16.5006C33.4631 17.0631 33.1359 17.7818 33.3598 18.3892C33.7494 19.4415 35.1377 19.1741 35.9254 18.8062C36.4829 18.5453 37.0124 18.1774 37.4924 17.7967C37.9681 17.4182 38.3986 16.9669 38.6956 16.4343C39.2014 15.5296 39.2553 14.3041 38.644 13.4293C38.0047 12.514 36.8316 12.3065 35.8587 12.807C34.8298 13.3395 34.0938 14.4153 33.5836 15.4163C33.0132 16.537 32.3632 18.0084 33.2371 19.1484C33.5858 19.604 34.1346 19.9376 34.7265 19.8649C35.34 19.7922 35.7877 19.3195 36.1428 18.8554C36.7713 18.0299 37.105 17.0118 37.1674 15.9831C37.2901 13.9448 36.2634 11.8103 34.3004 11.0083C32.4966 10.2726 30.2344 10.773 28.872 12.1482C28.1896 12.8369 27.6558 13.8037 27.8345 14.7918C27.9184 15.2495 28.1444 15.7328 28.5405 16.0023C28.9516 16.2825 29.522 16.2226 29.7846 15.7863C30.4109 14.7468 30.5336 13.4208 30.1505 12.2744C29.7695 11.1366 28.9086 10.2469 27.8001 9.78708C27.2749 9.56893 26.7109 9.44914 26.1406 9.44486C25.5874 9.44058 24.8642 9.51332 24.4294 9.88974C23.902 10.3453 24.1022 11.0425 24.3756 11.5772C24.6618 12.1397 25.0579 12.6573 25.5228 13.0872C25.9705 13.5 26.4828 13.8379 27.0424 14.0838C27.2017 14.1544 27.389 14.133 27.4837 13.9683C28.3296 12.5225 27.2361 10.4565 25.5981 10.2063C23.958 9.9539 22.7612 11.6136 22.9377 13.1214C23.0303 13.9084 23.4909 14.5929 24.2335 14.9073C24.9804 15.2238 25.8952 15.1575 26.584 14.7233C27.3287 14.2549 27.6989 13.4059 27.4772 12.5503C27.2641 11.7312 26.5581 10.9976 25.6971 10.8778C24.7415 10.7452 23.9257 11.3954 23.5512 12.2253C23.1551 13.1021 23.0884 14.1031 23.1229 15.0527C23.1315 15.3136 23.4802 15.4976 23.6739 15.2794C24.9309 13.8657 24.2766 11.4617 22.6106 10.6682C20.6218 9.72075 18.2734 10.8628 17.2876 12.6936C16.6893 13.8036 16.4977 15.0933 16.6053 16.3402C16.8055 16.2868 17.0057 16.2333 17.208 16.1777C16.2459 14.8645 15.075 13.6903 13.7211 12.7771C13.1034 12.36 12.378 12.1012 11.6505 12.3942C11.009 12.653 10.5355 13.2112 10.2923 13.8465C9.94142 14.7618 10.1029 15.7799 10.2471 16.7188C10.4279 16.614 10.6065 16.5113 10.7873 16.4065C9.06539 14.441 6.15101 13.7929 3.67357 14.4966C3.06013 14.672 2.46394 14.9308 1.92584 15.273C1.65033 15.4484 1.38776 15.6473 1.14238 15.8654C1.03045 15.966 0.916372 16.0686 0.815208 16.1798C0.664539 16.3488 0.698982 16.5049 0.765707 16.706C1.21341 18.0855 2.25514 19.2768 3.57673 19.8949C5.41274 20.7547 7.51138 20.4402 9.36461 19.7986C9.69608 19.6831 9.65946 19.1634 9.27848 19.1677C8.38092 19.1805 7.48552 19.1933 6.58796 19.2062C6.23711 19.2104 6.13382 19.7666 6.50188 19.8371C8.60695 20.2349 10.7766 20.1536 12.8429 19.5847C13.1658 19.4949 13.1313 19.0693 12.8429 18.9666C10.4257 18.1026 7.88804 17.6 5.32236 17.4695C5.32236 17.6834 5.32236 17.8973 5.32236 18.1111C6.2888 18.109 7.25738 18.109 8.22382 18.1069C8.22382 17.893 8.22382 17.6791 8.22382 17.4652C6.72789 17.493 5.23193 17.5187 3.736 17.5465C3.736 17.7603 3.736 17.9742 3.736 18.1881C8.78773 17.5721 13.8395 16.9583 18.8912 16.3424C20.3269 16.167 21.7625 15.9916 23.1982 15.8184C23.1444 15.6195 23.0906 15.4206 23.0346 15.2195C19.8103 16.7915 16.177 17.4417 12.604 17.1102C12.6578 17.3091 12.7116 17.508 12.7675 17.709C14.7521 16.5348 16.53 15.0292 18.0044 13.2626C18.1551 13.0829 18.1142 12.792 17.8624 12.7257C15.1589 12.0093 12.4017 11.5002 9.62074 11.1944C9.62074 11.4082 9.62074 11.6221 9.62074 11.836C12.7224 12.0135 15.8348 11.7868 18.8783 11.173C19.1968 11.1088 19.1753 10.6319 18.8783 10.5549C16.8873 10.0416 14.8985 9.53041 12.9075 9.01711C12.8494 9.22243 12.7934 9.42986 12.7353 9.63519C15.8821 10.0865 19.0591 10.2662 22.2382 10.1571C22.2382 9.94321 22.2382 9.72933 22.2382 9.51545C19.5283 9.62667 16.8723 10.3517 14.4852 11.6307C14.2377 11.7633 14.3022 12.144 14.5627 12.2167C18.5726 13.3353 22.8818 13.3288 26.8939 12.2124C28.0261 11.898 29.1302 11.4895 30.2021 11.0062C30.5272 10.8586 30.3184 10.4394 30.0386 10.4073C28.7644 10.2683 27.4966 10.4779 26.3235 10.9805C26.175 11.0446 26.1126 11.2927 26.2073 11.4189C27.4686 13.1278 30.5035 12.9439 31.4549 10.9976C31.584 10.7345 31.302 10.3624 31.0136 10.5591C30.0429 11.2136 30.1117 12.7279 30.9641 13.4615C31.414 13.8486 32.0317 13.9534 32.5784 13.7053C33.0842 13.4743 33.4394 12.976 33.5836 12.4498C33.7537 11.8275 33.6288 11.1152 33.1101 10.6896C32.912 10.5271 32.6623 10.5955 32.5698 10.8308C31.9886 12.3151 32.148 14.0282 32.9745 15.3906C33.1036 15.6024 33.5255 15.6023 33.5642 15.3136C33.7214 14.1608 33.8785 13.008 34.0335 11.8552C34.0571 11.682 33.9925 11.513 33.8074 11.4596C33.6546 11.4168 33.4373 11.513 33.4093 11.6841C33.0606 13.9641 33.2586 16.2975 34.012 18.4811C34.0765 18.6651 34.3025 18.7934 34.4855 18.6736C35.8716 17.7668 36.8618 16.3296 37.1803 14.7062C36.9694 14.6784 36.7584 14.6485 36.5454 14.6207C36.5411 15.9895 36.5367 17.3604 36.5324 18.7292C36.5303 19.08 37.0964 19.1784 37.1674 18.8148C37.43 17.4524 37.6926 16.09 37.9552 14.7276C38.0326 14.3255 37.4515 14.1565 37.3331 14.5565C36.9586 15.8248 36.1514 16.9391 35.0559 17.6877C35.213 17.8074 35.3722 17.9293 35.5294 18.0491C36.1299 16.4878 36.4743 14.6057 35.2561 13.2369C34.3628 12.2317 32.8389 12.0755 31.9112 13.1128C31.1471 13.9683 30.8845 15.3757 31.556 16.3595C32.3223 17.4802 33.8182 17.8096 35.0839 17.4781C36.894 17.0033 37.7012 15.2922 38.3641 13.7138C38.4201 13.5834 38.3254 13.4208 38.2156 13.3524C35.6779 11.7847 32.1221 12.1782 29.9719 14.2335C29.423 14.7575 28.8268 15.5361 29.4251 16.2547C29.8901 16.8129 30.7855 16.999 31.4635 17.1401C32.9895 17.4567 34.5952 17.3775 36.089 16.9348C37.7701 16.4386 39.3155 15.4912 40.4649 14.1694C40.5575 14.0625 40.594 13.9085 40.5144 13.7801C40.0559 13.0444 39.1821 12.6102 38.3125 12.6808C37.4085 12.7535 36.6917 13.3459 36.3861 14.1865C36.2376 14.5907 36.2095 15.0377 36.2935 15.459C36.3301 15.6472 36.3968 15.9232 36.5367 16.0622C36.7003 16.2269 37.1093 16.1841 37.3245 16.1948C38.4438 16.244 39.5716 16.137 40.6629 15.8889C41.907 15.6066 43.1037 15.1276 44.2036 14.4859C44.096 14.302 43.9862 14.1159 43.8786 13.932C39.9461 16.5819 36.1644 19.4478 32.5526 22.517C31.5345 23.3832 30.5293 24.2643 29.5392 25.1605C29.7093 25.291 29.8771 25.4193 30.0472 25.5498C31.0567 23.3426 32.064 21.1332 33.0735 18.926C32.8776 18.9004 32.6796 18.8747 32.4837 18.849C32.6043 19.6788 32.7226 20.5108 32.8432 21.3406C32.8884 21.6593 32.9659 21.8818 33.2435 22.0764C33.4459 22.2197 33.6977 22.2839 33.9431 22.271C35.1786 22.2111 35.9922 21.0391 36.7584 20.2349C38.7322 18.1624 41.0633 16.475 43.4804 14.9522C44.8645 14.0796 46.2829 13.2583 47.6992 12.4391C47.9854 12.2723 47.8477 11.8574 47.5356 11.8403C44.3543 11.6756 41.229 10.7474 38.4718 9.16253C37.6947 8.71553 36.95 8.2172 36.2397 7.67181C35.9513 7.44938 35.5768 7.93491 35.848 8.17659C36.7972 9.01498 37.7464 9.85124 38.6978 10.6896C38.9195 10.8843 39.3564 10.7003 39.238 10.3774C38.898 9.44916 38.433 8.57866 37.8347 7.78946C37.6496 7.54564 37.2406 7.6098 37.232 7.95201C37.2018 9.18607 37.8002 10.341 38.7989 11.0639C38.941 11.1666 39.1584 11.0853 39.2402 10.9484C39.69 10.2063 38.3878 9.76142 37.9832 10.3752C37.712 10.788 37.9444 11.2992 38.235 11.6307C38.4868 11.9173 39.2294 12.2958 39.1476 12.7492C39.3585 12.777 39.5695 12.807 39.7826 12.8348C39.7008 12.0542 39.4533 11.3163 39.0228 10.6554C38.9389 10.5271 38.8054 10.48 38.659 10.5078C36.1536 10.9955 33.4867 9.96246 31.8229 8.07179C31.3537 7.5371 30.9619 6.92323 30.6907 6.26663C30.4949 6.35004 30.2968 6.43135 30.101 6.51476C30.7467 7.76166 31.7519 8.7968 32.9788 9.48976C33.1768 9.60098 33.4868 9.46409 33.4652 9.21171C33.3167 7.58198 32.5483 6.05275 31.2999 4.98123C31.1105 4.81869 30.7187 4.90853 30.7489 5.20795C30.9598 7.38308 31.6873 9.48121 32.8948 11.3099C33.0175 11.4959 33.2371 11.5088 33.4028 11.374C34.8535 10.1892 34.3585 7.64614 32.6689 6.96387C32.5139 6.90185 32.3051 7.03232 32.2728 7.18845C31.6335 10.1143 32.417 13.2347 34.352 15.5253C34.5199 15.7243 34.8191 15.5917 34.8923 15.3842C35.8479 12.653 35.721 9.63306 34.5823 6.97672C34.4596 6.69226 34.0808 6.8313 33.9926 7.05374C32.742 10.2341 32.2857 13.7203 32.6774 17.1123C32.7893 18.0812 32.9659 19.0415 33.2091 19.9868C33.2887 20.297 33.7472 20.2884 33.8311 19.9868C34.2896 18.3443 34.5178 16.6354 34.4941 14.9286C34.4833 14.0688 34.4058 13.2133 34.2702 12.3643C34.1519 11.6114 34.0184 10.8244 33.6589 10.1442C33.3533 9.56463 32.8389 9.09411 32.1759 8.97648C31.5367 8.86313 30.8716 9.07486 30.5487 9.66516C30.3722 9.98811 30.3141 10.3538 30.2603 10.711C30.2 11.1174 30.1548 11.5237 30.1268 11.9322C30.0709 12.7407 30.0816 13.5534 30.1569 14.3597C30.3291 16.2098 30.8264 18.0084 31.6314 19.6852C31.7368 19.9055 32.0769 19.8841 32.1889 19.6852C33.8226 16.7701 34.2466 13.2561 33.3447 10.0416C33.2973 9.87262 33.1165 9.77423 32.9465 9.817C31.5302 10.1806 30.4454 11.4831 30.3765 12.9396C30.3076 14.4047 31.3042 15.7756 32.671 16.2675C32.8088 16.3167 32.9637 16.2333 33.0348 16.1199C34.2659 14.1908 35.101 12.0242 35.4777 9.7721C35.2668 9.74429 35.0559 9.71432 34.8428 9.68651C35.0688 11.451 33.7235 12.8904 32.1974 13.5684C30.2151 14.4474 27.9228 13.9042 25.9318 13.3417C23.7062 12.7129 21.4978 12.1012 19.2098 11.7226C18.0711 11.5344 16.9261 11.389 15.7767 11.2864C15.2321 11.2372 14.6789 11.1794 14.13 11.1751C13.7383 11.173 13.3186 11.22 12.9742 11.4147C11.9045 12.0221 12.5372 13.3951 12.9957 14.1972C13.5252 15.1211 14.2764 15.9018 15.1675 16.4878C15.3333 16.5969 15.6023 16.4921 15.641 16.2953C16.2136 13.4764 13.4434 11.3933 11.0672 10.5998C9.55185 10.0929 7.7955 9.82985 6.25007 10.3645C4.98014 10.8051 3.8867 11.8724 3.60043 13.207C3.52509 13.5599 3.50788 13.917 3.55954 14.2742C3.58322 14.4453 3.60903 14.6763 3.70374 14.8238C3.81136 14.9907 4.04381 15.0185 4.22676 15.0505C5.06836 15.1981 5.94869 15.0099 6.63961 14.5073C6.84409 14.3597 6.85919 13.9833 6.56216 13.9213C4.55395 13.4957 2.44459 13.8058 0.649468 14.8025C0.425616 14.9265 0.45575 15.2259 0.649468 15.3564C3.09031 17.0182 5.94868 18.0084 8.89534 18.2416C9.30861 18.2737 9.30861 17.632 8.89534 17.5999C6.06061 17.3775 3.32062 16.4001 0.976639 14.8025C0.976639 14.9864 0.976639 15.1724 0.976639 15.3564C2.61463 14.4474 4.55394 14.1502 6.39211 14.5394C6.36628 14.3448 6.34043 14.148 6.3146 13.9534C5.66026 14.4282 4.85097 14.58 4.06964 14.3533C4.14497 14.4282 4.22032 14.503 4.29565 14.5779C3.9814 13.6197 4.34944 12.6124 5.02315 11.8959C5.80663 11.0639 6.91728 10.7281 8.04084 10.7196C9.22682 10.7089 10.4645 10.9976 11.5493 11.4703C12.4834 11.8788 13.3681 12.4477 14.0569 13.2005C14.7866 14.0004 15.2407 15.0399 15.019 16.1264C15.1761 16.0622 15.3354 15.998 15.4925 15.9339C14.7177 15.4249 14.0655 14.7426 13.5941 13.947C13.3595 13.5513 13.1205 13.1 13.0388 12.6423C12.9548 12.1675 13.2347 11.9258 13.6738 11.8467C14.1064 11.7697 14.567 11.8339 14.9996 11.8638C15.5872 11.9066 16.1727 11.9601 16.7581 12.0242C17.8817 12.1483 19.001 12.3193 20.1116 12.5289C21.233 12.7428 22.348 12.9973 23.45 13.2946C24.5176 13.5834 25.5723 13.9234 26.6442 14.195C28.6051 14.6891 30.7402 14.9564 32.6279 14.0688C34.2917 13.2861 35.7339 11.6093 35.4863 9.68228C35.4648 9.52188 35.3787 9.39137 35.2065 9.36784C35.0623 9.34859 34.8794 9.44057 34.8514 9.5967C34.4855 11.8018 33.6783 13.9042 32.4751 15.7927C32.5956 15.7435 32.7183 15.6943 32.8388 15.6451C31.7325 15.2473 30.9641 14.1031 31.0179 12.9353C31.0717 11.7612 31.9843 10.7217 33.1144 10.4309C32.9831 10.356 32.8497 10.2811 32.7162 10.2063C33.5707 13.2561 33.1768 16.5883 31.6249 19.3559C31.81 19.3559 31.9973 19.3559 32.1824 19.3559C30.9168 16.7124 30.4454 13.6775 30.8931 10.7794C30.9792 10.2234 31.1213 9.5839 31.8079 9.57535C32.417 9.56679 32.8561 9.98381 33.1187 10.495C33.4114 11.0703 33.5169 11.7483 33.6224 12.3771C33.7494 13.1342 33.8204 13.902 33.8419 14.6698C33.8914 16.4044 33.674 18.1346 33.207 19.805C33.4136 19.805 33.6224 19.805 33.829 19.805C32.9981 16.5776 32.9723 13.1599 33.7558 9.91966C33.9775 8.99785 34.266 8.09531 34.6125 7.212C34.4166 7.23767 34.2186 7.2633 34.0227 7.28897C35.0924 9.7849 35.1613 12.6444 34.2659 15.2024C34.4467 15.1553 34.6254 15.1083 34.8062 15.0613C33.0261 12.9546 32.305 10.0351 32.8927 7.34886C32.7592 7.42372 32.6279 7.49858 32.4945 7.57344C33.7816 8.09316 33.9775 10.0694 32.9444 10.9121C33.1144 10.9335 33.2823 10.9548 33.4523 10.9762C32.3094 9.24593 31.5926 7.25902 31.3946 5.19725C31.2116 5.27211 31.0266 5.34912 30.8436 5.42397C31.9586 6.38 32.6861 7.73815 32.8195 9.20106C32.9809 9.1091 33.1424 9.01712 33.306 8.92301C32.1695 8.28138 31.259 7.33176 30.6606 6.17896C30.497 5.86242 29.9288 6.08698 30.0709 6.42704C31.1514 9.03205 33.6826 10.8479 36.4786 11.2008C37.2643 11.2992 38.0563 11.2671 38.8334 11.1174C38.7128 11.0682 38.5901 11.019 38.4696 10.9698C38.8355 11.5323 39.0701 12.159 39.1411 12.8263C39.1756 13.1535 39.7051 13.2989 39.7761 12.9118C39.9117 12.1632 39.322 11.774 38.842 11.3184C38.7279 11.2093 38.6116 11.0896 38.5514 10.942C38.5234 10.8757 38.5127 10.818 38.5234 10.7452C38.5342 10.6747 38.4997 10.7345 38.5277 10.7238C38.5729 10.7024 38.6224 10.726 38.6719 10.7217C38.687 10.7196 38.73 10.7431 38.7279 10.7431C38.687 10.7902 38.7128 10.5784 38.6892 10.6169C38.8355 10.5784 38.9841 10.5399 39.1304 10.5014C38.3168 9.91324 37.8583 8.93583 37.882 7.94344C37.6818 7.99691 37.4816 8.05038 37.2793 8.10599C37.8411 8.85028 38.2953 9.66513 38.6181 10.542C38.7989 10.4372 38.9776 10.3346 39.1584 10.2298C38.2092 9.39137 37.2599 8.55512 36.3086 7.71672C36.1773 7.88568 36.0481 8.05253 35.9168 8.22149C38.504 10.202 41.5713 11.5622 44.7827 12.1547C45.6931 12.3236 46.6143 12.4306 47.5399 12.4776C47.4861 12.2787 47.4323 12.0798 47.3763 11.8787C45.0259 13.239 42.6711 14.6036 40.4714 16.1969C39.3822 16.9862 38.3297 17.8267 37.3482 18.7442C36.8553 19.204 36.3818 19.681 35.9297 20.1793C35.5466 20.6028 35.1936 21.0306 34.7007 21.3343C34.4747 21.4733 34.2164 21.6059 33.9474 21.623C33.8527 21.6294 33.7537 21.6208 33.6697 21.5781C33.5298 21.5053 33.5104 21.4177 33.4867 21.268C33.3447 20.406 33.2371 19.5377 33.1122 18.6736C33.0735 18.4084 32.6322 18.3571 32.5224 18.5966C31.513 20.8038 30.5057 23.0132 29.4962 25.2204C29.3477 25.5433 29.72 25.8663 30.0041 25.6097C33.476 22.4678 37.1179 19.5142 40.9212 16.7744C42.006 15.9938 43.1038 15.2281 44.2122 14.4817C44.5523 14.2528 44.2488 13.716 43.8872 13.9277C41.7434 15.1789 39.2488 15.7286 36.7735 15.5104C36.866 15.5639 36.9586 15.6174 37.0533 15.6687C36.6852 14.9116 37.0059 13.8956 37.7485 13.4892C38.4976 13.0807 39.5243 13.3887 39.9655 14.0988C39.9827 13.9683 40 13.84 40.015 13.7095C38.2027 15.7927 35.3916 16.8728 32.6387 16.6568C31.9521 16.6033 31.2741 16.46 30.6241 16.2354C30.3572 16.1435 29.9719 16.0023 29.8513 15.72C29.7157 15.4013 30.0515 15.0741 30.2517 14.8624C31.1579 13.9128 32.3847 13.3245 33.6762 13.1064C35.1226 12.8626 36.6486 13.1257 37.897 13.8956C37.8475 13.7759 37.798 13.6539 37.7485 13.5341C37.2492 14.7212 36.6723 16.0879 35.4282 16.6696C34.5134 17.0974 33.2672 17.0781 32.4708 16.4044C31.7196 15.7713 31.6572 14.7233 32.1307 13.8978C32.346 13.5214 32.6796 13.1898 33.1058 13.0658C33.631 12.9139 34.1906 13.1107 34.5888 13.4636C35.8845 14.6121 35.4519 16.46 34.9117 17.8673C34.8126 18.1239 35.1613 18.3828 35.3852 18.2288C36.625 17.384 37.5354 16.1477 37.9595 14.7147C37.7528 14.657 37.5441 14.6014 37.3374 14.5437C37.0748 15.9061 36.8123 17.2684 36.5497 18.6287C36.7606 18.6565 36.9715 18.6865 37.1846 18.7143C37.1889 17.3455 37.1932 15.9745 37.1975 14.6057C37.1996 14.2528 36.6357 14.1566 36.5625 14.5201C36.2763 15.9788 35.4175 17.2834 34.1626 18.1047C34.3197 18.1689 34.479 18.233 34.6361 18.2972C33.9215 16.229 33.702 14.0068 34.0335 11.8424C33.8268 11.7847 33.6181 11.729 33.4114 11.6713C33.2543 12.8241 33.0972 13.9769 32.9422 15.1297C33.1381 15.104 33.3361 15.0784 33.532 15.0527C32.7872 13.8229 32.671 12.3215 33.194 10.9869C33.0132 11.034 32.8346 11.081 32.6538 11.128C33.3727 11.7183 32.9013 13.254 31.9047 13.1856C30.9857 13.1235 30.581 11.6093 31.3408 11.0981C31.1944 10.9527 31.0459 10.8051 30.8996 10.6597C30.1807 12.129 27.7656 12.4348 26.7669 11.081C26.7281 11.2264 26.6894 11.374 26.6506 11.5194C27.7182 11.0618 28.887 10.9078 30.0407 11.0339C29.9869 10.835 29.9331 10.6361 29.8772 10.4351C26.203 12.099 22.0768 12.7108 18.0711 12.2445C16.9433 12.1141 15.8283 11.8852 14.737 11.5815C14.7629 11.7761 14.7887 11.9729 14.8145 12.1675C17.1004 10.942 19.6467 10.2469 22.2403 10.14C22.6536 10.1228 22.6579 9.48336 22.2403 9.49833C19.1236 9.60527 15.9984 9.4427 12.9096 8.99784C12.5114 8.94009 12.3242 9.50903 12.7374 9.61597C14.7284 10.1293 16.7173 10.6404 18.7082 11.1537C18.7082 10.9484 18.7082 10.741 18.7082 10.5356C15.7207 11.1366 12.6643 11.3484 9.62074 11.1751C9.19886 11.1516 9.21608 11.7719 9.62074 11.8168C12.3457 12.1162 15.0427 12.623 17.6902 13.3246C17.6428 13.1449 17.5955 12.9674 17.5481 12.7877C16.106 14.5158 14.3819 15.9852 12.4426 17.1337C12.1498 17.3069 12.2983 17.7026 12.6061 17.7326C16.2954 18.0726 20.0385 17.3733 23.3618 15.7542C23.6373 15.6195 23.5168 15.1168 23.1982 15.1553C18.1465 15.7713 13.0947 16.3852 8.04299 17.0011C6.60733 17.1765 5.17167 17.3519 3.736 17.5251C3.33565 17.5743 3.30982 18.1753 3.736 18.1667C5.23193 18.1389 6.72789 18.1132 8.22382 18.0854C8.63923 18.0769 8.64139 17.4438 8.22382 17.4438C7.25738 17.446 6.2888 17.446 5.32236 17.4481C4.90479 17.4481 4.9091 18.0683 5.32236 18.0897C7.83208 18.2181 10.3073 18.7186 12.6707 19.5634C12.6707 19.358 12.6707 19.1506 12.6707 18.9452C10.7185 19.4842 8.66292 19.5741 6.67409 19.1976C6.6461 19.4072 6.61594 19.6168 6.58796 19.8286C7.48552 19.8157 8.38092 19.8029 9.27848 19.79C9.2505 19.5804 9.22039 19.3708 9.19241 19.1591C7.57163 19.7216 5.72486 20.0681 4.08041 19.3987C2.75237 18.8576 1.72351 17.6898 1.32961 16.3252C1.30163 16.43 1.27367 16.5327 1.24569 16.6375C3.07955 14.7147 6.20486 14.3298 8.55961 15.489C9.23547 15.8227 9.83168 16.2739 10.3267 16.8386C10.5613 17.1081 10.91 16.8086 10.867 16.5263C10.7314 15.6473 10.5613 14.6164 11.009 13.793C11.3577 13.1556 12.0314 12.7001 12.7675 12.9674C13.1614 13.1107 13.508 13.3823 13.8395 13.6304C14.1882 13.8935 14.524 14.1758 14.8468 14.471C15.5119 15.0805 16.1167 15.7542 16.6505 16.4814C16.8184 16.7102 17.2833 16.6696 17.2532 16.3188C17.0961 14.5073 17.6234 12.4263 19.3066 11.451C20.7487 10.6169 22.8043 10.8115 23.4931 12.499C23.8009 13.2519 23.7793 14.1758 23.2175 14.8068C23.4005 14.8816 23.5856 14.9586 23.7686 15.0334C23.7428 14.3554 23.7708 13.6689 23.9472 13.0102C24.0979 12.4455 24.3842 11.8467 24.9503 11.5943C26.2374 11.0211 27.4901 12.8669 26.5753 13.8849C25.7789 14.7704 24.0484 14.6036 23.6588 13.4059C23.3295 12.3942 23.9085 10.9869 25.0493 10.8115C26.4548 10.5955 27.6171 12.4391 26.9262 13.624C27.0725 13.5855 27.2211 13.547 27.3674 13.5085C26.4074 13.0872 25.5981 12.3921 25.0708 11.4874C24.8383 11.0874 24.4725 10.4522 25.088 10.2255C25.5379 10.0608 26.0545 10.0352 26.5258 10.0865C27.4621 10.1891 28.3597 10.6597 28.9581 11.3826C29.5844 12.1419 29.8319 13.1984 29.6813 14.163C29.6447 14.4004 29.5844 14.6378 29.5026 14.8645C29.4617 14.9779 29.4144 15.0869 29.3606 15.1938C29.3304 15.2537 29.2982 15.3136 29.2659 15.3714C29.2486 15.4034 29.1432 15.5211 29.2013 15.4911C28.9387 15.6302 28.6976 15.2623 28.6051 15.0762C28.2348 14.3341 28.5512 13.5427 29.0205 12.9268C29.9611 11.6948 31.6873 11.096 33.2048 11.3441C34.8966 11.6221 36.0718 12.961 36.4205 14.5886C36.597 15.4099 36.5604 16.2761 36.315 17.0802C36.1988 17.4652 36.0309 17.8331 35.8157 18.1732C35.5746 18.5539 35.2302 19.0351 34.7825 19.1784C34.3412 19.3195 33.9065 18.9987 33.6805 18.6437C33.3791 18.1732 33.4157 17.6128 33.5621 17.0952C33.8397 16.1093 34.3907 15.0933 35.0494 14.3063C35.5767 13.6775 36.3796 12.9524 37.2772 13.1834C38.1338 13.4037 38.4868 14.2891 38.4351 15.0997C38.3727 16.0772 37.6538 16.8642 36.8983 17.4225C36.2354 17.9122 35.355 18.5474 34.4769 18.4683C33.9969 18.4255 33.8677 18.0748 33.9753 17.6321C34.1002 17.1209 34.3133 16.6183 34.5479 16.1478C35.0193 15.2003 35.6478 14.3362 36.4097 13.5983C36.7756 13.2433 37.1695 12.9225 37.5914 12.6337C37.43 12.5418 37.2685 12.4498 37.105 12.3557C37.2836 15.0484 36.5001 17.7326 34.9009 19.912C35.0472 19.8735 35.1958 19.835 35.3421 19.7965C33.9345 18.787 33.1381 17.0161 33.3124 15.3008C33.3512 14.9201 33.4523 14.4923 33.7881 14.2635C34.0012 14.1181 34.2616 14.0924 34.5156 14.101C35.1419 14.1223 35.7468 14.349 36.3602 14.4581C37.0555 14.5822 37.783 14.5822 38.319 14.0625C38.4287 13.9555 38.4287 13.8037 38.3685 13.6732C36.9479 10.5998 34.9655 7.7852 32.5483 5.40262C31.8617 4.72677 31.1385 4.08723 30.3873 3.4841C30.1914 3.32797 29.8147 3.40498 29.8362 3.71082C29.9073 4.70748 29.9761 5.70628 30.0472 6.70295C30.0601 6.87405 30.1849 7.0259 30.37 7.02376C32.3503 6.99382 35.2496 6.97031 36.173 9.12833C36.4786 9.84481 36.5496 10.7602 36.1213 11.4425C35.5789 12.3087 34.4295 12.3065 33.6094 11.8531C32.5612 11.2735 32.0963 10.1293 31.8531 9.01925C31.7907 8.73051 31.739 8.43963 31.6938 8.14876C31.6551 7.89424 31.5797 7.56062 31.6938 7.31466C31.8983 6.87193 32.7033 7.0815 33.0606 7.17133C34.0808 7.42798 34.9956 8.06106 35.6263 8.89518C36.216 9.67369 36.6487 10.7302 36.5303 11.7226C36.4786 12.1504 36.2741 12.7792 35.7662 12.8455C35.2044 12.9182 34.8256 12.2659 34.6383 11.8381C34.0335 10.4565 33.9108 8.83745 34.1088 7.35956C34.0012 7.4665 33.8936 7.57344 33.7859 7.68038C35.2926 7.64616 36.7132 8.67702 37.1265 10.1207C37.3073 10.0159 37.486 9.91324 37.6668 9.80844C36.2978 8.5209 34.9267 7.23335 33.5578 5.94582C33.321 5.72339 32.9443 5.94586 33.0175 6.25812C33.8742 9.84911 36.4722 12.9524 39.8063 14.5501C40.749 15.0013 41.7434 15.335 42.7723 15.5296C42.7465 15.335 42.7206 15.1382 42.6948 14.9436C42.1954 15.3072 41.6961 15.6687 41.1989 16.0323C41.3065 16.0323 41.4163 16.0323 41.5239 16.0323C41.0869 15.7499 40.65 15.4676 40.2109 15.1853C40.2109 15.3693 40.2109 15.5553 40.2109 15.7392C42.0598 14.8388 43.9109 13.9406 45.7598 13.0401C45.6759 13.0508 45.5941 13.0615 45.5102 13.0722C46.4874 13.3117 47.4646 13.5513 48.4396 13.793C48.4138 13.5984 48.388 13.4016 48.3621 13.207C45.3444 14.6314 42.3095 16.0237 39.3133 17.4866C38.0736 18.0919 36.8489 18.7442 35.736 19.5612C35.1764 19.9719 34.6448 20.4188 34.1626 20.9172C33.7149 21.3813 33.3318 21.8989 32.9336 22.4058C32.2233 23.3148 31.2267 24.6515 29.8965 24.4119C29.9611 24.5681 30.0257 24.7263 30.0903 24.8824C30.2129 24.6044 30.3335 24.3264 30.4562 24.0483C30.51 23.9243 30.5638 23.8003 30.6197 23.6783C30.6779 23.5457 30.7855 23.3853 30.7855 23.2377C30.7855 23.1137 30.6951 22.9832 30.6477 22.8742C30.5917 22.7501 30.5422 22.6239 30.4949 22.4956C30.4023 22.2432 30.3248 21.9866 30.2624 21.7256C30.0127 20.6819 30.0085 19.5762 30.2538 18.5303C30.3744 18.0127 30.5508 17.4994 30.7984 17.0289C30.9641 16.7145 31.2805 16.2141 31.711 16.3574C32.0252 16.46 32.1479 16.8728 32.2082 17.1573C32.3029 17.6043 32.2405 18.0641 32.1695 18.5089C31.9607 19.8157 31.5281 21.0733 30.8888 22.2347C31.0847 22.2603 31.2827 22.286 31.4786 22.3116C30.5272 18.4105 30.4604 14.3191 31.2891 10.3923C31.0825 10.3923 30.8737 10.3923 30.6671 10.3923C31.4592 13.7844 31.9069 17.2449 32.0037 20.7247C32.2147 20.6969 32.4256 20.667 32.6387 20.6392C31.3193 17.4054 30.4992 13.9747 30.2409 10.4928C30.1677 9.50045 30.1397 8.50379 30.1526 7.50927C29.9525 7.56274 29.7523 7.61621 29.55 7.67181C31.2547 10.6554 31.7455 14.2571 30.8974 17.5829C31.0933 17.5572 31.2913 17.5315 31.4872 17.5058C29.9805 14.1437 29.0054 10.5399 28.6201 6.88048C28.5104 5.83677 28.4479 4.78878 28.4307 3.73865C28.2305 3.79212 28.0304 3.84559 27.8281 3.9012C29.5995 6.27737 30.4195 9.25453 30.1074 12.1953C30.2689 12.1034 30.4303 12.0114 30.5939 11.9173C28.4651 10.6084 27.4535 7.84078 28.2133 5.47744C28.0325 5.52449 27.8538 5.57158 27.673 5.61863C29.7028 7.87931 30.2129 11.3526 28.9064 14.0924C29.0915 14.0924 29.2788 14.0924 29.4639 14.0924C28.1746 12.3536 27.6085 10.1314 27.9636 7.99477C27.7828 8.04182 27.6042 8.08886 27.4234 8.13591C27.7419 8.50378 27.8582 8.97005 27.7979 9.447C27.9055 9.34006 28.0131 9.23312 28.1208 9.12618C26.0028 9.36787 23.8654 9.077 21.8895 8.28138C21.8615 8.49098 21.8314 8.70057 21.8034 8.91231C23.4048 8.74976 25.0062 8.95933 26.5108 9.52611C26.5108 9.32079 26.5108 9.11335 26.5108 8.90803C23.803 9.67798 20.9253 9.71219 18.2003 9.00426C18.2003 9.20958 18.2003 9.41707 18.2003 9.62239C19.806 9.17539 21.4677 9.01708 23.1315 9.15182C23.1035 8.94222 23.0733 8.73264 23.0453 8.5209C20.0277 9.23097 16.8615 9.15183 13.8825 8.3006C13.8546 8.5102 13.8244 8.71984 13.7964 8.93158C15.3569 8.88238 16.8765 9.34219 18.1507 10.2426C18.2347 10.048 18.3165 9.85122 18.4005 9.65659C17.8559 9.54538 17.3113 9.43415 16.7668 9.32293C16.4805 9.26519 16.1835 9.63733 16.4525 9.85977C18.112 11.2222 19.7715 12.5824 21.431 13.9448C21.8185 14.2635 22.221 14.5693 22.5934 14.9051C22.8495 15.1361 23.0906 15.4419 22.9184 15.7948C22.574 16.5049 21.4591 16.6653 20.7789 16.7851C19.6446 16.984 18.4693 16.9947 17.3286 16.8279C17.3286 17.0332 17.3286 17.2406 17.3286 17.446C18.9407 17.0909 20.5851 16.9305 22.2382 16.9605C22.1629 16.7787 22.0854 16.5948 22.0101 16.413C20.0342 18.1496 17.1004 18.5924 14.6789 17.5829C14.7047 17.7775 14.7306 17.9743 14.7564 18.1689C15.9101 17.523 17.1951 17.1615 18.5189 17.1123C18.4909 16.9027 18.4607 16.6931 18.4327 16.4814C15.0104 17.6812 11.418 18.3528 7.78902 18.4597C7.78902 18.6736 7.78902 18.8875 7.78902 19.1014C9.24621 19.0137 10.7055 19.0928 12.1412 19.3516C12.1412 19.1463 12.1412 18.9388 12.1412 18.7335C11.0413 19.1377 9.88335 19.2639 8.72319 19.1099C8.81575 19.2703 8.90826 19.4307 9.00296 19.5933C10.1158 18.1496 12.0917 17.446 13.8761 17.8288C13.8502 17.6342 13.8244 17.4374 13.7986 17.2428C11.8463 18.0748 9.67454 18.3592 7.56732 18.109C6.55568 17.9871 5.46439 17.7583 4.5367 17.3219C4.14926 17.1401 3.93404 16.8428 4.29134 16.5006C4.62497 16.182 5.12216 16.0643 5.5634 15.9809C6.69558 15.7649 7.89231 15.9766 8.89319 16.5391C8.84368 16.4194 8.79419 16.2975 8.74469 16.1777C8.37016 17.2578 7.01633 17.6641 5.98317 17.3989C5.44291 17.2599 4.96505 16.9306 4.72614 16.4172C4.45063 15.8248 4.57763 15.1318 4.89619 14.5843C5.52684 13.4978 7.08516 12.8155 8.03653 13.9277C8.38092 14.3298 8.60262 14.9308 8.47348 15.4569C8.29483 16.1927 7.4963 16.3723 6.82905 16.2312C6.01759 16.0601 5.27931 15.6023 4.72614 14.9949C4.26121 14.4838 3.83932 13.7481 4.00936 13.0337C4.20523 12.2081 5.06189 11.8403 5.82815 11.712C6.61378 11.5794 7.47693 11.6842 8.17001 12.0884C8.81358 12.4648 9.24405 13.1064 9.2871 13.8529C9.32584 14.5544 9.02234 15.2323 8.35508 15.5318C7.64048 15.8547 6.76234 15.6473 6.08863 15.3222C5.35251 14.9671 4.6637 14.4111 4.2203 13.7202C3.79842 13.0594 3.62193 12.2488 4.00721 11.5302C4.33222 10.9227 4.96718 10.4907 5.67103 10.7088C6.82257 11.066 6.78598 12.8134 6.63961 13.7438C6.59011 14.0561 6.51692 14.3661 6.42006 14.6677C6.52338 14.5886 6.62674 14.5116 6.73221 14.4325C5.25349 14.3918 3.60903 13.4315 3.11182 11.9878C2.99559 11.6499 2.97193 11.2435 3.39165 11.1387C3.76402 11.0446 4.20095 11.1559 4.56686 11.2329C5.48594 11.4232 6.36195 11.7569 7.17556 12.2188C7.20139 12.0242 7.22725 11.8274 7.25307 11.6328C5.49455 11.8788 3.69728 11.6628 2.03561 11.0468C2.06144 11.2414 2.08724 11.4382 2.11307 11.6328C3.90604 10.4415 6.28447 10.2148 8.26039 11.1024C8.34434 10.9078 8.42616 10.711 8.51011 10.5164C6.74297 10.2469 4.97581 9.97527 3.21083 9.70578C3.23665 9.90041 3.26251 10.0972 3.28834 10.2918C5.06623 9.48549 6.96032 8.95079 8.89534 8.68559C9.05462 8.6642 9.14504 8.47387 9.12567 8.33271C9.10199 8.16375 8.9707 8.07391 8.80927 8.05466C7.23585 7.87073 5.66029 7.68678 4.08687 7.50284C4.08687 7.71672 4.08687 7.9306 4.08687 8.14447C5.56128 8.02684 7.04857 8.25141 8.4089 8.83315C8.4089 8.64922 8.4089 8.46318 8.4089 8.27924C7.11314 9.04706 5.64738 9.47482 4.13853 9.52188C3.79414 9.53257 3.67788 10.0972 4.0524 10.1528C4.96718 10.2854 5.88411 10.4201 6.79889 10.5527C6.79889 10.3474 6.79889 10.14 6.79889 9.93464C5.94869 10.1229 5.41919 11.0147 5.61721 11.8467C5.72914 12.2552 6.35123 12.0841 6.25437 11.682Z" fill="#7EAF15"/>
</svg>
