<svg width="51" height="28" viewBox="0 0 51 28" fill="none" xmlns="http://www.w3.org/2000/svg">
<path d="M49.6182 10.3089C49.6096 12.8498 49.5988 15.3927 49.5902 17.9336C49.5859 18.8062 49.7301 19.9997 49.0284 20.6734C48.656 21.0305 48.1545 21.0883 47.6616 21.0754C47.0352 21.0605 46.4089 21.0284 45.7825 21.0006C40.7631 20.7675 35.7566 20.2884 30.7823 19.5719C27.9627 19.1656 25.1537 18.68 22.3599 18.1197C22.0091 18.0491 22.0995 17.6106 22.3599 17.5016C22.6376 17.3839 22.9174 17.2685 23.1951 17.1508C23.3565 17.0824 23.548 17.2236 23.5911 17.3754C23.6449 17.5593 23.5265 17.7026 23.3651 17.7689C23.0874 17.8865 22.8076 18.0021 22.53 18.1197C22.53 17.9144 22.53 17.7069 22.53 17.5016C27.2954 18.4576 32.1039 19.1933 36.9404 19.6959C39.3554 19.9462 41.7747 20.1408 44.1983 20.2777C45.4037 20.3461 46.6241 20.4466 47.8316 20.4359C48.2858 20.4317 48.6388 20.2862 48.8002 19.8435C48.9466 19.4371 48.9358 18.9944 48.938 18.5688C48.9487 15.8162 48.9595 13.0615 48.9703 10.3089C48.9724 9.89614 49.6182 9.894 49.6182 10.3089Z" fill="#7EAF15"/>
<path d="M48.6898 9.82764C44.8929 9.18601 41.0853 8.54438 37.2368 8.32622C33.6057 8.1209 29.9422 8.47807 26.3326 7.94766C25.3339 7.80008 24.333 7.58835 23.3817 7.25256C23.0609 7.13921 22.7876 6.93173 22.6778 6.59809C22.5616 6.24947 22.7596 5.95862 23.1234 5.92654C23.5366 5.89018 23.5345 6.53181 23.1234 6.56817C23.1923 6.56175 23.2848 6.39706 23.2891 6.3992C23.3171 6.41417 23.3429 6.49332 23.3687 6.52326C23.4742 6.63875 23.6443 6.66653 23.7885 6.71145C24.1931 6.84191 24.6042 6.95314 25.0175 7.04939C25.8161 7.23546 26.6275 7.36161 27.4433 7.44289C29.12 7.61185 30.8054 7.61399 32.4886 7.60758C34.1976 7.60116 35.9023 7.59901 37.607 7.70595C39.3698 7.81717 41.1262 8.01609 42.8761 8.25777C44.8779 8.53367 46.871 8.86944 48.8642 9.20737C49.271 9.27795 49.0966 9.89608 48.6898 9.82764Z" fill="#7EAF15"/>
<path d="M23.2163 6.69042C23.3153 4.70565 23.2701 2.71663 23.0807 0.736135C23.2163 0.838796 23.3541 0.941446 23.4897 1.04625C20.1835 1.99586 17.2089 3.76249 14.3677 5.65529C11.5115 7.55665 8.74773 9.61412 5.72143 11.2481C4.03178 12.1614 2.26035 12.9314 0.404963 13.4489C0.404963 13.2436 0.404963 13.0362 0.404963 12.8309C3.56902 13.712 6.40593 15.4038 9.03618 17.3223C11.7224 19.2814 14.2321 21.4672 16.9334 23.4049C18.4401 24.485 20.0092 25.4859 21.6752 26.3051C21.5181 26.3692 21.3588 26.4334 21.2017 26.4975C22.1143 23.6059 22.4672 20.5689 22.2477 17.5468C22.2176 17.134 22.8633 17.1361 22.8934 17.5468C23.1173 20.6202 22.7514 23.7278 21.8237 26.6686C21.7591 26.8761 21.5396 26.9531 21.3502 26.8611C18.3927 25.4046 15.7668 23.3942 13.1946 21.3602C10.6332 19.3327 8.09771 17.241 5.25652 15.607C3.67019 14.6937 1.99774 13.9451 0.230604 13.4511C-0.0771923 13.3655 -0.0771923 12.9185 0.230604 12.833C3.54318 11.9112 6.52431 10.1595 9.36551 8.27528C12.2261 6.37819 14.9876 4.31643 18.0074 2.66744C19.6949 1.74778 21.4621 0.962861 23.3131 0.432448C23.5305 0.370423 23.7028 0.539375 23.7221 0.742558C23.9137 2.72091 23.9589 4.70993 23.8577 6.69684C23.8405 7.10107 23.1948 7.1032 23.2163 6.69042Z" fill="#7EAF15"/>
<path d="M48.8038 11.1603C48.567 10.6298 48.6661 9.9925 49.1374 9.62036C49.3957 9.41717 49.7293 9.60538 49.6777 9.93261C49.2256 12.7451 48.3819 15.4806 47.1873 18.0685C47.0388 18.3893 46.6148 18.1861 46.5847 17.9059C46.3328 15.5148 46.49 13.0937 47.0367 10.7518C47.1185 10.3967 47.6738 10.478 47.6716 10.8373C47.6458 13.5428 47.6178 16.2484 47.592 18.9539C47.5877 19.3047 47.0302 19.4052 46.957 19.0395C46.2575 15.5576 46.1154 11.9794 46.5502 8.45683C46.5997 8.0526 47.1658 8.03549 47.196 8.45683C47.4327 11.7484 47.1034 15.072 46.2317 18.2567C46.1628 18.509 45.8744 18.5433 45.6914 18.3978C43.8877 16.9585 43.0805 14.4647 43.6638 12.2446C43.7628 11.8682 44.2579 11.9922 44.2988 12.3302C44.5506 14.4475 44.1051 16.6119 43.0569 18.4705C42.9256 18.7015 42.5252 18.6673 42.4671 18.3936C41.8967 15.7009 42.0108 12.8969 42.8136 10.262C42.8976 9.98395 43.3861 9.93048 43.4356 10.262C43.9049 13.3632 42.9277 16.5777 40.7861 18.8854C40.6203 19.063 40.3061 18.971 40.2458 18.7443C39.3676 15.4142 39.6022 11.8254 40.9281 8.64293C41.0658 8.31356 41.5329 8.34989 41.563 8.72846C41.8235 12.1098 40.8033 15.5597 38.7369 18.2609C38.5712 18.477 38.2376 18.4663 38.1472 18.184C37.1485 15.1106 37.3249 11.7441 38.5992 8.77978C38.752 8.42475 39.2492 8.69641 39.1889 9.02791C38.5906 12.281 37.7382 15.4848 36.6405 18.6053C36.5178 18.9539 36.0378 18.8833 36.0055 18.5197C35.7322 15.2667 35.8742 11.9923 36.408 8.77127C36.4769 8.36063 37.0861 8.54024 37.0301 8.94233C36.5523 12.3879 35.6848 15.7736 34.4429 19.0266C34.3137 19.3646 33.8359 19.3132 33.8079 18.9411C33.5883 16.0473 33.6314 13.1408 33.9349 10.2556C33.9779 9.85347 34.5978 9.83636 34.5806 10.2556C34.4536 13.2712 33.7089 16.2312 32.3938 18.9518C32.2453 19.2576 31.8083 19.0822 31.7911 18.7892C31.6383 15.8441 31.959 12.8841 32.736 10.0395C32.8457 9.64174 33.4678 9.81071 33.3581 10.2107C32.7747 12.3451 32.1936 14.4818 31.6103 16.6162C31.5156 16.9606 30.9646 16.8985 30.9753 16.5307C31.055 14.1545 31.1325 11.7762 31.2121 9.40006C31.4123 9.45353 31.6124 9.507 31.8147 9.5626C30.3167 12.4029 28.8186 15.2431 27.3205 18.0834C27.1784 18.3529 26.6834 18.2417 26.7178 17.9209C27.0751 14.7191 27.8586 11.5794 29.0661 8.58946C29.2168 8.21731 29.8066 8.35207 29.6882 8.76057C28.9111 11.4661 28.132 14.1738 27.3549 16.8793C27.2559 17.2236 26.7178 17.1616 26.72 16.7938C26.7393 14.084 26.7587 11.372 26.7781 8.66219C26.989 8.69 27.2 8.71992 27.413 8.74772C26.4789 11.2522 25.5447 13.7567 24.6106 16.2591C24.4815 16.6077 24.0165 16.5371 23.9756 16.1735C23.7023 13.6433 23.7152 11.0897 24.0101 8.55954C24.221 8.58734 24.432 8.61726 24.6451 8.64507C24.1134 11.3592 23.3514 14.0241 22.3678 16.612C22.2494 16.9221 21.6941 16.9157 21.7328 16.5264C22.0944 12.9269 22.6605 9.34872 23.4311 5.81335C23.6269 5.89676 23.825 5.97801 24.0208 6.06142C22.8801 8.46112 22.4044 11.1346 22.6261 13.7781C22.4151 13.7503 22.2042 13.7204 21.9911 13.6926C22.6153 9.32735 23.2417 4.96423 23.8659 0.599013C23.9175 0.24184 24.5223 0.325283 24.5008 0.684595C24.0703 7.59494 22.921 14.4369 21.6123 21.2296C21.2421 23.1545 20.8568 25.0772 20.4737 26.9999C20.4026 27.355 19.8279 27.2737 19.8387 26.9144C20.0539 20.3334 20.2757 13.7225 21.4143 7.22281C21.7328 5.40914 22.1246 3.60825 22.6024 1.8288C22.7122 1.4203 23.289 1.59997 23.2245 1.99991C22.4173 7.03884 21.608 12.0778 20.8008 17.1188C20.5727 18.5411 20.3445 19.9634 20.1164 21.3857C20.0647 21.7044 19.5632 21.6787 19.4943 21.3857C18.4547 16.9713 18.9239 12.4093 19.716 7.99487C19.9442 6.73087 20.1982 5.47115 20.4543 4.21141C20.5361 3.80719 21.156 3.9783 21.0763 4.38253C20.1357 9.19902 19.1973 14.0155 18.2567 18.832C17.9919 20.1922 17.725 21.5546 17.4603 22.9149C17.3892 23.2763 16.8275 23.1844 16.8253 22.8294C16.7995 17.9487 16.9523 13.0702 17.2924 8.20019C17.3871 6.82496 17.499 5.44973 17.6239 4.07664C17.6604 3.67242 18.2868 3.65745 18.2696 4.07664C18.1082 8.09966 17.5119 12.1056 16.4874 16.0024C16.1968 17.106 15.8718 18.1989 15.5145 19.2811C15.4069 19.6041 14.8365 19.5742 14.8795 19.1956C15.3617 15.0336 15.8438 10.8715 16.3259 6.70948C16.5369 6.73728 16.7478 6.76725 16.9609 6.79506C16.2484 10.3903 15.3229 13.9428 14.1843 17.429C13.8614 18.4171 13.5214 19.4009 13.1641 20.3783C13.0457 20.7055 12.5291 20.6735 12.5291 20.2928C12.5312 15.9596 12.9488 11.6329 13.7754 7.37894C13.855 6.97257 14.4749 7.14577 14.3974 7.54999C13.7194 11.156 12.5291 14.6528 10.8761 17.9316C10.7534 18.1732 10.3423 18.1198 10.2863 17.8546C9.64918 14.9159 10.3982 11.7955 12.2837 9.44924C12.4946 9.18832 12.9014 9.47276 12.824 9.7615C12.2363 11.9452 11.1472 13.9642 9.6556 15.6688C9.45973 15.8912 9.11748 15.7009 9.10456 15.4421C9.02277 13.9342 9.48339 12.42 10.396 11.2159C10.6392 10.8951 11.1666 11.171 10.9535 11.5388C10.1873 12.8691 9.28107 14.116 8.25652 15.2624C8.12953 15.4035 7.83038 15.3843 7.74858 15.1982C7.28581 14.1224 7.36757 12.882 8.03051 11.9024C8.20055 12.0329 8.36846 12.1612 8.53851 12.2917C7.55485 13.3332 6.34736 14.1246 5.00425 14.6293C4.61466 14.7748 4.44676 14.1567 4.83205 14.0112C5.2324 13.8594 5.63492 13.7097 6.03527 13.5578C6.3775 13.4295 6.60564 13.977 6.28493 14.1438C5.37445 14.6186 4.29826 14.6999 3.33612 14.3278C2.98959 14.1952 3.05414 13.7374 3.4222 13.6968C5.24099 13.4936 7.05766 13.2926 8.87645 13.0894C9.24667 13.0488 9.30045 13.6198 8.96252 13.7203C7.34391 14.1952 5.6478 14.3791 3.96246 14.2593C3.62022 14.2358 3.49756 13.7075 3.87638 13.6284C6.36243 13.113 8.79894 12.3943 11.1666 11.4854C11.2247 11.6907 11.2807 11.8981 11.3388 12.1034C9.56521 12.5847 7.72703 12.8114 5.88886 12.7729C5.88886 12.559 5.88886 12.3451 5.88886 12.1313C7.9272 12.174 9.94617 11.7056 11.7477 10.7603C11.8317 10.9549 11.9135 11.1517 11.9975 11.3463C9.4533 12.2317 6.83593 12.8905 4.17339 13.3183C3.77304 13.3824 3.59008 12.7921 4.00119 12.7002C5.58752 12.3473 7.08564 11.7163 8.44381 10.8287C8.52776 11.0234 8.60953 11.2201 8.69347 11.4148C6.92849 11.9302 5.24744 12.6809 3.68479 13.6476C3.63098 13.4487 3.57717 13.2498 3.5212 13.0488C6.61853 12.7258 9.60609 11.742 12.3956 10.3881C15.2217 9.01719 17.8607 7.29125 20.4027 5.45833C21.8534 4.41247 23.2761 3.32597 24.6946 2.2352C24.7699 2.41699 24.8474 2.60094 24.9227 2.78273C21.9416 2.96881 19.1499 4.71186 17.669 7.28479C17.5227 7.13935 17.3742 6.99182 17.2278 6.84639C19.3286 5.43266 21.1883 3.68955 22.7423 1.69623C22.8736 1.86519 23.0028 2.03198 23.1341 2.20095C19.6579 4.50867 16.1818 6.81642 12.7056 9.12201C12.3526 9.35727 12.0599 8.81187 12.3806 8.56805C15.069 6.52339 17.7573 4.47875 20.4435 2.43409C20.5512 2.61802 20.6609 2.80411 20.7686 2.98805C17.5873 4.95143 14.406 6.91268 11.2247 8.87607C10.3272 9.43001 9.4296 9.98395 8.52989 10.5379C8.42226 10.354 8.31249 10.1679 8.20487 9.98394C11.3732 8.44403 14.5416 6.90624 17.71 5.36633C18.0802 5.18667 18.4031 5.71496 18.035 5.92028C14.3049 8.00344 10.7017 10.3047 7.2449 12.8092C7.16095 12.6146 7.07918 12.4178 6.99524 12.2232C10.6328 10.8737 14.378 9.82568 18.19 9.08781C18.3449 9.05786 18.558 9.13054 18.5881 9.31233C18.9454 11.6265 18.8766 13.9748 18.375 16.2633C18.1792 16.1799 17.9812 16.0986 17.7853 16.0152C19.0961 13.746 20.4069 11.4768 21.7199 9.20968C21.8813 8.9295 22.314 9.05783 22.3226 9.37223C22.3807 12.2018 21.6833 15.0335 20.3187 17.5167C19.9872 18.1219 19.6192 18.7165 19.1973 19.264C18.8378 19.7324 18.3277 20.1773 17.6884 20.0468C17.1094 19.9271 16.7952 19.3667 16.5971 18.8662C16.3195 18.1626 16.1021 17.4161 15.9256 16.6804C15.5963 15.3052 15.4779 13.7717 16.143 12.4713C16.6639 11.4554 17.6605 10.5699 18.8185 10.3881C19.9442 10.2106 20.9988 10.756 21.6058 11.6928C22.1956 12.6018 22.37 13.7717 22.2796 14.8346C22.0406 17.6236 20.2993 20.2308 17.9424 21.7129C17.7831 21.8135 17.499 21.7257 17.4689 21.5204C17.0685 18.8085 17.8111 16.0388 19.5223 13.8872C19.716 13.6434 20.0475 13.8722 20.0733 14.1139C20.3123 16.4067 20.181 18.7208 19.7031 20.975C19.4965 20.9173 19.2877 20.8617 19.081 20.804C19.4233 19.4437 20.1207 18.1989 21.1 17.1916C21.3002 16.9862 21.6446 17.1467 21.651 17.4183C21.7242 20.0832 21.5499 22.7459 21.1431 25.3809C21.1065 25.6119 20.7492 25.6995 20.6028 25.522C18.4935 22.9555 17.3333 19.6918 17.3763 16.3745C17.3807 16.0216 17.9252 15.9276 18.0113 16.289C18.515 18.4256 18.5214 20.6478 18.0285 22.7865C17.9661 23.0603 17.5744 23.0945 17.4388 22.8636C16.2851 20.9066 15.762 18.6117 15.973 16.351C16.0031 16.0324 16.3862 15.9169 16.5757 16.1885C17.5464 17.5958 17.6325 19.5356 16.7952 21.0263C16.6058 21.3643 16.3496 21.7493 15.9514 21.8584C15.5188 21.9781 15.1572 21.7086 14.9161 21.3771C14.3586 20.6136 13.9626 19.6789 13.6376 18.7978C13.2523 17.7476 13.0091 16.6526 12.8928 15.5404C12.8649 15.2667 13.2674 15.1148 13.4439 15.3137C14.561 16.5734 14.7891 18.447 13.9928 19.9313C13.8851 20.1345 13.5386 20.1473 13.4353 19.9313C12.6561 18.3123 12.2708 16.535 12.3353 14.7384C12.3461 14.4326 12.7788 14.285 12.938 14.5759C13.8722 16.2997 14.1197 18.3294 13.6204 20.2243C13.5558 20.4681 13.2566 20.5216 13.0801 20.3655C11.2958 18.7871 10.0969 16.5927 9.74603 14.2443C9.70944 13.9941 9.95911 13.7097 10.2196 13.8829C10.9105 14.3385 11.2441 15.1704 11.0417 15.9725C11.0095 16.0965 10.8674 16.2227 10.7297 16.2077C8.93669 16.0067 7.39341 14.8539 6.69602 13.2006C6.57979 12.9226 6.94785 12.7194 7.16954 12.8392C8.01114 13.2862 8.85489 13.7332 9.69648 14.1802C9.92249 14.2999 9.89884 14.7255 9.61902 14.7662C7.93798 15.0079 6.2462 14.9736 4.57592 14.6592C4.26812 14.6015 4.26812 14.0968 4.57592 14.0412C6.63794 13.6605 9.95264 13.5022 10.7404 15.9896C10.8028 16.1842 10.635 16.4024 10.4283 16.3959C8.96899 16.3403 7.5699 15.6731 6.6379 14.5481C6.48938 14.3684 6.52816 14.0775 6.77999 14.0112C9.97849 13.1686 13.1748 12.3237 16.3733 11.4811C17.682 11.1367 19.292 10.9549 20.041 9.68662C20.3962 9.08349 20.6028 8.39698 20.8417 7.74252C21.1215 6.9747 21.4035 6.20688 21.6833 5.43906C22.3183 3.70239 22.9511 1.96569 23.586 0.229012C23.7668 0.333811 23.9455 0.436463 24.1263 0.541263C19.1779 4.50439 13.8248 7.96494 8.16183 10.8352C6.5798 11.6372 4.97408 12.3922 3.349 13.1023C3.32317 12.9076 3.29737 12.7109 3.27154 12.5162C5.98359 13.3076 8.57938 14.4967 10.9384 16.0431C12.1115 16.813 13.2243 17.6707 14.2725 18.5989C15.3057 19.5121 16.2872 20.4831 17.3204 21.3963C18.4784 22.423 19.7074 23.3747 21.1 24.0677C20.9429 24.1318 20.7836 24.196 20.6265 24.2602C21.4272 21.0948 22.2257 17.9273 23.0264 14.762C23.0716 14.5866 23.2567 14.5031 23.4225 14.5374C29.7829 15.8912 36.2853 16.5606 42.7899 16.5285C44.6324 16.52 46.4727 16.4537 48.3109 16.3339C48.2076 16.4687 48.1043 16.6056 47.9988 16.7403C47.3466 14.0241 47.31 11.1923 47.8826 8.45897C47.9859 8.59371 48.0892 8.73062 48.1947 8.86537C41.8945 8.65363 35.5944 8.4419 29.2943 8.23016C27.5034 8.17027 25.7148 8.11037 23.924 8.05048C24.0316 7.94355 24.1392 7.83661 24.2468 7.72967C24.2555 8.92952 24.2641 10.1294 24.2727 11.3292C24.277 11.9088 24.2791 12.4884 24.2856 13.068C24.2899 13.5599 24.3007 14.0689 24.5805 14.4967C25.0282 15.1832 25.9365 15.4378 26.6942 15.596C27.7381 15.8163 28.8078 15.9511 29.8668 16.0773C34.1889 16.597 38.554 16.7039 42.861 17.3669C45.2781 17.7391 47.6673 18.3016 49.9446 19.1977C50.2223 19.3068 50.2782 19.7281 49.9446 19.8158C48.7565 20.1281 47.5166 20.2436 46.2919 20.1409C45.1576 20.0447 43.948 19.8179 42.9428 19.2661C42.127 18.8191 41.3091 18.0685 41.2423 17.0889C41.1692 15.9896 42.1916 15.2388 43.0245 14.7149C44.1352 14.0176 45.3944 13.6006 46.6966 13.4573C46.9097 13.4338 47.0582 13.6797 47.0087 13.8636C46.5136 15.6538 44.8154 17.2621 42.8567 17.1402C41.1993 17.0376 39.6883 15.4399 39.8368 13.7588C39.9035 12.9974 40.3017 12.3002 40.9905 11.9366C41.6104 11.6094 42.3573 11.5474 43.0332 11.7142C43.666 11.8703 44.2794 12.2617 44.5592 12.8648C44.9553 13.7161 44.6539 14.6785 44.1115 15.3929C43.0009 16.8494 40.5191 18.0984 38.8446 16.8044C38.0632 16.2013 37.7318 15.1769 37.764 14.2208C37.7942 13.3054 38.1623 12.4435 38.7391 11.7356C39.8627 10.3539 41.8751 9.62461 43.5433 10.4566C44.9639 11.1667 45.8227 12.8734 45.6096 14.4283C45.3362 16.4238 43.1752 17.5316 41.3607 17.8482C40.3448 18.0257 39.2643 17.9594 38.3495 17.4503C37.6048 17.0354 37.071 16.3489 36.7868 15.5533C36.21 13.93 36.7029 12.02 37.9901 10.8736C39.4408 9.57969 41.5502 9.23106 43.4185 9.63101C44.4 9.84061 45.3901 10.3347 45.5816 11.4126C45.7603 12.4264 45.2803 13.4402 44.8197 14.3149C43.9501 15.9725 42.8911 17.7926 41.0766 18.5583C39.3719 19.2769 37.4606 18.6801 36.2035 17.3969C34.9078 16.0773 34.4429 14.1695 35.1381 12.4392C35.8269 10.7261 37.3917 9.40645 39.1868 8.95304C40.8979 8.52101 42.9213 8.97873 44.019 10.431C44.5592 11.1453 44.7185 12.0542 44.4387 12.9076C44.1029 13.9299 43.3173 14.7769 42.65 15.5982C41.35 17.198 39.8239 18.8234 37.7748 19.4158C36.0098 19.927 33.8617 19.6554 32.6714 18.1369C31.4984 16.6397 31.5952 14.3962 32.7317 12.9055C33.3386 12.1098 34.1716 11.5324 35.1058 11.1752C36.012 10.8288 37.1162 10.6512 38.074 10.8694C38.9845 11.0768 39.5699 11.8447 39.5054 12.7708C39.4451 13.6412 38.9715 14.4946 38.3387 15.0891C36.8729 16.4665 34.5526 17.183 32.6026 16.5157C30.829 15.9083 29.3416 14.1182 29.5547 12.1826C29.7527 10.3903 31.479 8.77338 33.3473 9.00865C34.3159 9.13056 35.2565 9.76576 35.4437 10.7688C35.6202 11.712 35.1747 12.6317 34.5914 13.3503C33.9414 14.1502 33.0244 14.7256 32.0709 15.1041C31.1002 15.4891 29.9572 15.6346 28.9521 15.2881C27.2839 14.7128 25.8439 12.5975 27.0966 10.9763C27.5723 10.3603 28.3429 9.94759 29.1285 9.94759C30.0411 9.94759 30.7364 10.5614 31.0248 11.3955C31.6727 13.2648 30.3232 15.3351 28.5237 15.9276C26.7222 16.52 24.602 15.5768 23.7066 13.9471C23.2309 13.083 23.063 11.9153 23.6722 11.0683C24.107 10.4652 24.8431 10.1935 25.5749 10.2577C26.3175 10.324 27.045 10.6598 27.5508 11.2094C28.1535 11.866 28.3192 12.7579 28.1793 13.6177C28.0179 14.6122 27.4324 15.5212 26.7114 16.212C26.0506 16.8429 24.9442 17.6814 24.1371 16.7916C23.8164 16.4366 23.6528 15.9703 23.4827 15.5319C23.2653 14.9737 23.0673 14.4026 22.9791 13.8102C22.8327 12.8242 22.9942 11.7826 23.7863 11.1046C24.3889 10.5871 25.2628 10.2876 26.0247 10.6341C26.9051 11.0362 27.1031 12.0435 26.9417 12.9055C26.7652 13.8422 26.2163 14.7641 25.5297 15.4207C24.9076 16.0174 23.9347 16.5179 23.0544 16.2035C22.3915 15.9682 21.933 15.318 21.8297 14.64C21.7156 13.8872 22.1117 13.1921 22.9037 13.0766C23.4289 13.0017 23.9864 13.1472 24.4965 13.2584C25.0368 13.3782 25.5706 13.5278 26.0936 13.7096C27.1655 14.0818 28.1922 14.5759 29.1522 15.1811C29.3395 15.2988 29.3847 15.6281 29.1522 15.735C27.3141 16.582 25.3855 17.2151 23.3967 17.6086C23.3687 17.399 23.3385 17.1894 23.3105 16.9777C25.2326 16.8301 27.1634 16.9563 29.0511 17.3413C29.3546 17.4033 29.3632 17.9038 29.0511 17.9594C25.5297 18.5989 21.8749 18.4043 18.4461 17.3777C17.471 17.0846 16.5175 16.7232 15.5898 16.304C15.3789 16.2077 15.3789 15.8463 15.5898 15.75C19.9205 13.7845 24.6817 12.8071 29.4428 12.914C30.7902 12.944 32.1355 13.068 33.4678 13.269C33.7067 13.3054 33.7799 13.6562 33.6099 13.8059C31.7846 15.4078 29.3696 16.2719 26.9331 16.1714C26.5758 16.1564 26.4854 15.6388 26.847 15.5404C31.0141 14.4154 35.3856 14.0861 39.6732 14.5866C39.9466 14.6186 40.1059 14.9159 39.9014 15.1341C38.4829 16.6526 36.5328 17.5915 34.4622 17.7904C34.4622 17.5765 34.4622 17.3627 34.4622 17.1488C36.9009 17.0568 39.3482 17.3092 41.7159 17.8952C42.0925 17.9872 41.972 18.4898 41.6298 18.5261C40.672 18.6267 39.7163 18.7251 38.7584 18.8256C38.7584 18.6117 38.7584 18.3978 38.7584 18.184C40.5643 18.1818 42.3702 18.1797 44.174 18.1775C44.5894 18.1775 44.5894 18.8192 44.174 18.8192C42.3681 18.8213 40.5622 18.8235 38.7584 18.8256C38.3344 18.8256 38.3538 18.2267 38.7584 18.184C39.7163 18.0835 40.672 17.985 41.6298 17.8845C41.6018 18.0941 41.5717 18.3037 41.5437 18.5154C39.2277 17.9444 36.8449 17.7027 34.4601 17.7926C34.0382 17.8075 34.0533 17.1894 34.4601 17.1509C36.3607 16.9691 38.1472 16.0708 39.4429 14.6828C39.5183 14.8646 39.5957 15.0485 39.6711 15.2303C35.4351 14.7363 31.1303 15.0485 27.0149 16.1607C26.9869 15.9511 26.9567 15.7415 26.9288 15.5297C29.1931 15.6238 31.4489 14.8453 33.1493 13.3525C33.1966 13.5321 33.244 13.7097 33.2913 13.8893C28.7174 13.1985 23.9929 13.5664 19.574 14.9202C18.3234 15.3031 17.1008 15.765 15.9105 16.304C15.9105 16.1201 15.9105 15.934 15.9105 15.75C19.0488 17.168 22.5206 17.8225 25.9623 17.6685C26.9395 17.6257 27.9124 17.5145 28.8745 17.3391C28.8745 17.5444 28.8745 17.7519 28.8745 17.9573C27.0428 17.583 25.1703 17.4739 23.3063 17.6172C22.9468 17.645 22.8628 17.0568 23.2201 16.9862C25.1509 16.6034 27.0342 16.0003 28.8207 15.1769C28.8207 15.3608 28.8207 15.5468 28.8207 15.7308C27.9899 15.2068 27.1096 14.7598 26.1862 14.4197C25.2908 14.0904 24.305 13.7759 23.3472 13.6989C23.0523 13.6754 22.7014 13.699 22.5357 13.9791C22.4238 14.1695 22.4281 14.4112 22.4754 14.6186C22.5873 15.1105 22.964 15.6046 23.5043 15.6388C24.3287 15.6923 25.0346 15.0934 25.4996 14.4775C25.9645 13.8615 26.3584 13.083 26.3519 12.296C26.3455 11.6115 25.8741 11.0319 25.1444 11.1281C24.5202 11.2116 23.9089 11.7035 23.7001 12.2938C23.3579 13.2541 23.7001 14.3128 24.0467 15.2196C24.1887 15.5918 24.32 16.0259 24.5869 16.3318C24.9077 16.6975 25.3015 16.4858 25.6395 16.2527C26.3411 15.7672 26.9352 15.0913 27.2904 14.3171C27.6003 13.6391 27.7252 12.7622 27.3765 12.0735C26.9008 11.1346 25.3898 10.4523 24.4578 11.156C23.8078 11.6479 23.8379 12.5825 24.1005 13.2712C24.3846 14.0198 24.9873 14.6272 25.6847 15.0079C27.116 15.7907 28.8875 15.4976 29.8883 14.1823C30.3597 13.5642 30.6223 12.7686 30.5061 11.9922C30.4006 11.2928 29.9572 10.602 29.1845 10.5807C28.5754 10.5635 27.9555 10.8822 27.5939 11.3656C27.1569 11.9495 27.2043 12.7215 27.5444 13.3396C27.9253 14.0305 28.612 14.5459 29.3782 14.7363C30.2736 14.9587 31.2401 14.7726 32.0688 14.4026C32.8652 14.0476 33.6163 13.545 34.1566 12.8563C34.6108 12.2767 35.0047 11.4725 34.7679 10.7261C34.5161 9.93046 33.6121 9.57116 32.8329 9.62036C32.0752 9.66741 31.3821 10.0994 30.8957 10.6598C29.8044 11.9195 30.0756 13.6883 31.1776 14.8453C32.3937 16.1222 34.2083 16.3746 35.842 15.8249C37.2109 15.3629 38.9091 14.1888 38.8639 12.5676C38.8144 10.7389 35.857 11.4725 34.8734 11.9623C33.3882 12.7002 32.3981 14.1331 32.4842 15.8099C32.5229 16.5692 32.8005 17.337 33.3214 17.9016C33.8466 18.4684 34.5548 18.802 35.3103 18.9389C36.9633 19.2362 38.61 18.571 39.8777 17.5466C40.5859 16.9734 41.2101 16.304 41.7977 15.611C42.3831 14.9181 43.0052 14.2101 43.4766 13.4337C43.8855 12.76 44.1029 11.9666 43.7542 11.2201C43.4572 10.5807 42.8739 10.1187 42.2476 9.81711C40.8442 9.14126 39.2105 9.38719 37.9061 10.17C36.6103 10.9485 35.575 12.3045 35.4588 13.838C35.3447 15.3351 36.1842 16.7617 37.4304 17.568C38.046 17.9679 38.7606 18.2225 39.4989 18.231C40.2716 18.2396 40.997 17.9551 41.619 17.5124C42.9363 16.5777 43.7736 14.9972 44.4645 13.5835C44.8024 12.8927 45.2049 11.9345 44.839 11.1816C44.4667 10.4138 43.4012 10.2213 42.6306 10.1422C41.0443 9.97752 39.3246 10.3839 38.1967 11.5602C37.2303 12.5697 36.9397 14.1353 37.4326 15.4356C37.6822 16.0922 38.1579 16.6269 38.7864 16.9456C39.5592 17.3392 40.4804 17.3605 41.3177 17.198C42.8072 16.9071 44.7013 16.0452 44.9682 14.3855C45.1684 13.1386 44.499 11.7548 43.4141 11.1111C42.0926 10.3283 40.446 10.863 39.4408 11.9067C38.4141 12.9761 37.8975 14.9651 39.0641 16.1393C40.3297 17.414 42.48 16.2868 43.4443 15.1918C43.9113 14.6614 44.3074 13.8615 43.9931 13.16C43.7822 12.6916 43.2936 12.4242 42.8115 12.3152C42.3035 12.1997 41.7288 12.2532 41.2725 12.5098C40.7495 12.8028 40.4782 13.3589 40.4761 13.9471C40.4739 15.3373 41.7826 16.5521 43.1645 16.4965C44.7185 16.4366 45.9949 15.1127 46.3888 13.6861C46.4921 13.8209 46.5954 13.9577 46.7009 14.0925C45.6979 14.2016 44.7142 14.5095 43.8274 14.9865C43.3905 15.2217 42.9664 15.4934 42.5876 15.8142C42.2604 16.0901 41.9419 16.4302 41.8945 16.875C41.8063 17.7006 42.6285 18.3508 43.2721 18.7058C44.1438 19.1849 45.2157 19.3923 46.1994 19.4843C47.4026 19.5977 48.6101 19.4972 49.7767 19.1913C49.7767 19.3966 49.7767 19.6041 49.7767 19.8094C45.5903 18.1604 41.0895 17.6835 36.6383 17.322C34.3805 17.1381 32.1204 16.982 29.8711 16.7103C28.7906 16.5799 27.7058 16.4409 26.6382 16.2291C25.8138 16.0644 24.9227 15.795 24.3201 15.179C23.4634 14.3021 23.6442 12.9696 23.6355 11.8489C23.6248 10.4716 23.6162 9.09633 23.6054 7.71897C23.6033 7.55 23.754 7.39173 23.9283 7.39815C30.2284 7.60989 36.5286 7.82162 42.8287 8.03336C44.6195 8.09324 46.4082 8.15315 48.199 8.21303C48.4185 8.21945 48.5541 8.41192 48.5111 8.61938C47.9622 11.2372 48.0031 13.9578 48.6273 16.5585C48.679 16.7702 48.5283 16.9499 48.3152 16.9648C41.7654 17.3926 35.179 17.1103 28.6895 16.1329C26.8685 15.8591 25.0561 15.5276 23.2567 15.1447C23.388 15.0699 23.5215 14.9951 23.6549 14.9202C22.8542 18.0856 22.0557 21.2531 21.255 24.4184C21.2012 24.6302 20.9622 24.7007 20.7814 24.6109C18.3169 23.3854 16.3948 21.3835 14.3909 19.5528C12.3311 17.6685 10.056 16.0623 7.53765 14.8325C6.11275 14.1353 4.62971 13.5663 3.1058 13.1236C2.86258 13.053 2.76139 12.6531 3.02829 12.5376C8.79247 10.0203 14.2941 6.91693 19.4211 3.28317C20.8697 2.25657 22.2882 1.18505 23.6765 0.0750268C23.9003 -0.104629 24.3373 0.0536308 24.2167 0.387278C23.6313 1.99135 23.0458 3.59328 22.4603 5.19736C22.1676 5.99939 21.8749 6.80143 21.5822 7.60132C21.326 8.30284 21.0979 9.03003 20.7664 9.7016C20.4651 10.3133 20.0281 10.8373 19.4255 11.1731C18.8249 11.5089 18.1426 11.6671 17.4818 11.8404C15.8309 12.2767 14.18 12.7109 12.5312 13.1472C10.6737 13.637 8.8183 14.1267 6.96077 14.6165C7.00812 14.4368 7.0555 14.2593 7.10286 14.0796C7.92723 15.0742 9.13689 15.6901 10.437 15.7393C10.3336 15.8741 10.2303 16.011 10.1249 16.1457C9.81922 15.1833 8.91946 14.732 7.97886 14.5544C6.92417 14.3555 5.80492 14.4518 4.75669 14.6464C4.75669 14.4411 4.75669 14.2336 4.75669 14.0283C6.30213 14.3192 7.89709 14.3577 9.45544 14.1353C9.42961 14.3299 9.40376 14.5266 9.37793 14.7213C8.53633 14.2743 7.69258 13.8273 6.85099 13.3803C7.00812 13.2605 7.16744 13.1386 7.32456 13.0188C7.89926 14.3812 9.25956 15.3886 10.7361 15.5554C10.6328 15.6346 10.5295 15.7115 10.424 15.7907C10.5532 15.2774 10.3465 14.7192 9.89885 14.4262C10.056 14.3064 10.2152 14.1845 10.3724 14.0647C10.7081 16.3168 11.8296 18.3892 13.5407 19.9035C13.3599 19.9505 13.1813 19.9976 13.0005 20.0447C13.4568 18.3187 13.2373 16.4622 12.3849 14.8902C12.5851 14.8368 12.7852 14.7833 12.9875 14.7277C12.9294 16.4066 13.2695 18.0791 13.9992 19.5977C13.8141 19.5977 13.6268 19.5977 13.4417 19.5977C14.0939 18.3786 13.9131 16.7959 12.994 15.7586C13.177 15.6837 13.3621 15.6067 13.545 15.5319C13.7151 17.1531 14.2015 18.7422 14.9678 20.1815C15.1335 20.4917 15.2993 20.8852 15.5576 21.1333C15.8503 21.4135 16.0935 20.9579 16.2248 20.7291C16.5692 20.1302 16.7349 19.4394 16.7306 18.7507C16.7263 17.9444 16.4831 17.168 16.0246 16.505C16.2248 16.4516 16.425 16.3981 16.6273 16.3425C16.4271 18.4962 16.905 20.6628 18.0048 22.532C17.809 22.5577 17.6109 22.5834 17.4151 22.6091C17.8822 20.5837 17.8757 18.4748 17.3978 16.4516C17.6088 16.4237 17.8198 16.3938 18.0328 16.366C17.9898 19.5036 19.0703 22.6262 21.0699 25.0601C20.8891 25.1071 20.7104 25.1542 20.5296 25.2012C20.9278 22.624 21.0849 20.0147 21.0139 17.4097C21.1969 17.4846 21.382 17.5616 21.5649 17.6364C20.6609 18.5689 20.0281 19.711 19.7138 20.9665C19.6127 21.3685 19.0057 21.1975 19.0918 20.7954C19.5589 18.5967 19.6708 16.3403 19.4383 14.1053C19.6213 14.1802 19.8064 14.2572 19.9894 14.3321C18.4396 16.2826 17.7379 18.8812 18.1017 21.3407C17.9446 21.2766 17.7853 21.2124 17.6282 21.1483C19.5266 19.957 20.9171 18.0342 21.4595 15.8698C21.7006 14.9116 21.7565 13.9085 21.481 12.9482C21.2334 12.0906 20.6824 11.2843 19.7741 11.0469C18.7711 10.7838 17.7831 11.3634 17.1568 12.1077C16.3604 13.053 16.2205 14.3064 16.369 15.4913C16.4572 16.2013 16.6488 16.8986 16.8619 17.5808C17.0212 18.092 17.1482 18.7143 17.4797 19.1506C17.8606 19.649 18.3385 19.3154 18.6506 18.9283C19.0251 18.4641 19.3415 17.938 19.6364 17.4226C21.0355 14.978 21.7458 12.1719 21.6876 9.36157C21.8878 9.41504 22.088 9.46846 22.2903 9.52407C20.9795 11.7933 19.6687 14.0625 18.3579 16.3296C18.1706 16.6547 17.6906 16.4302 17.7681 16.0816C18.2437 13.915 18.3191 11.665 17.9812 9.4706C18.1125 9.54546 18.2459 9.62032 18.3794 9.69518C14.5674 10.4309 10.8222 11.4811 7.18462 12.8306C6.81656 12.9675 6.66376 12.4414 6.93496 12.2446C10.3917 9.74013 13.997 7.43878 17.725 5.35562C17.8326 5.53956 17.9424 5.72565 18.05 5.90958C14.8817 7.44949 11.7133 8.98728 8.54497 10.5272C8.17475 10.7068 7.86265 10.1935 8.21995 9.97323C11.4012 8.00985 14.5825 6.04859 17.7638 4.08521C18.6614 3.53127 19.5589 2.97732 20.4586 2.42338C20.8223 2.19881 21.1043 2.73352 20.7836 2.97734C18.0952 5.022 15.4069 7.06664 12.7206 9.1113C12.613 8.92737 12.5032 8.74133 12.3956 8.5574C15.8718 6.24967 19.348 3.94192 22.8241 1.63633C23.1556 1.41604 23.4203 1.8759 23.2158 2.14111C21.6273 4.17721 19.7182 5.94806 17.5722 7.39173C17.2967 7.5778 16.9781 7.21853 17.1309 6.95332C18.728 4.17721 21.735 2.33145 24.9442 2.13254C25.2047 2.11543 25.3941 2.50892 25.1724 2.68003C22.6196 4.64341 20.0518 6.59828 17.3355 8.33496C14.6492 10.0524 11.8016 11.5624 8.76021 12.559C7.0641 13.1151 5.31849 13.4958 3.54275 13.6797C3.20482 13.7139 3.12948 13.237 3.37916 13.0809C4.98702 12.0863 6.72617 11.3142 8.54281 10.7838C8.90442 10.679 9.08951 11.1752 8.79248 11.3698C7.39125 12.2852 5.83078 12.9419 4.19494 13.3054C4.13682 13.1001 4.08085 12.8926 4.02274 12.6873C6.68312 12.2596 9.30264 11.6008 11.8468 10.7154C12.1912 10.5956 12.4172 11.1324 12.0965 11.3014C10.1959 12.3002 8.06283 12.8071 5.91041 12.76C5.49499 12.7515 5.49499 12.1099 5.91041 12.1184C7.69476 12.1548 9.46621 11.9388 11.1903 11.4704C11.5993 11.3591 11.7413 11.9431 11.3625 12.0885C8.99484 12.9996 6.55613 13.716 4.07224 14.2315C4.04425 14.0219 4.01414 13.8123 3.98616 13.6006C5.61769 13.7161 7.24491 13.545 8.81402 13.0851C8.842 13.2947 8.87212 13.5043 8.9001 13.7161C7.0813 13.9192 5.26469 14.1203 3.4459 14.3235C3.47388 14.1139 3.50399 13.9043 3.53197 13.6926C4.33483 14.0027 5.2173 13.9727 5.98356 13.5728C6.0675 13.7674 6.14933 13.9642 6.23327 14.1588C5.83292 14.3107 5.4304 14.4603 5.03005 14.6122C4.97194 14.4069 4.91596 14.1994 4.85785 13.9941C6.09549 13.53 7.20401 12.7815 8.10802 11.8212C8.35555 11.5602 8.82265 11.9045 8.61602 12.2104C8.09298 12.9846 7.96167 13.992 8.33403 14.8582C8.16399 14.8368 7.99608 14.8154 7.82604 14.794C8.814 13.6861 9.68144 12.4841 10.4219 11.1987C10.607 11.3057 10.7943 11.4148 10.9794 11.5217C10.1249 12.6467 9.69865 14.0176 9.77399 15.4249C9.59103 15.3501 9.40591 15.2731 9.22296 15.1982C10.6414 13.5792 11.6681 11.6479 12.2256 9.57331C12.4064 9.67811 12.585 9.78076 12.7658 9.88556C11.0331 12.0414 10.3508 14.9715 10.9341 17.6664C10.7383 17.6407 10.5402 17.6151 10.3444 17.5894C11.9737 14.3599 13.1339 10.9122 13.8012 7.36181C14.0078 7.41956 14.2166 7.47517 14.4232 7.53292C13.6096 11.7313 13.2028 16.0002 13.2006 20.2756C12.9897 20.2478 12.7788 20.2179 12.5657 20.1901C13.8205 16.7446 14.8731 13.2263 15.7061 9.6567C15.9428 8.64292 16.1602 7.62701 16.3626 6.60682C16.4314 6.2582 17.0384 6.3309 16.9975 6.69235C16.5154 10.8544 16.0332 15.0164 15.5511 19.1785C15.3402 19.1507 15.1292 19.1208 14.9161 19.0929C16.1645 15.3052 17.0104 11.3848 17.4108 7.41742C17.5227 6.30098 17.6024 5.18028 17.6476 4.05743C17.8628 4.05743 18.078 4.05743 18.2933 4.05743C17.852 8.9167 17.5916 13.793 17.5162 18.6737C17.4947 20.0532 17.4883 21.4327 17.4969 22.8101C17.286 22.7823 17.075 22.7524 16.8619 22.7246C17.8025 17.9081 18.741 13.0916 19.6816 8.27507C19.9463 6.91481 20.2132 5.5524 20.478 4.19215C20.6846 4.24989 20.8934 4.30551 21.1 4.36326C20.2176 8.6857 19.3307 13.0851 19.6041 17.5188C19.6794 18.7571 19.8537 19.9869 20.14 21.1953C19.9334 21.1953 19.7246 21.1953 19.518 21.1953C20.3252 16.1564 21.1345 11.1175 21.9416 6.07641C22.1698 4.65413 22.3979 3.23186 22.6261 1.80959C22.8327 1.86733 23.0415 1.92295 23.2481 1.9807C21.5477 8.30074 20.9967 14.8432 20.7083 21.3557C20.6265 23.2015 20.5662 25.0473 20.506 26.8952C20.295 26.8673 20.0841 26.8374 19.871 26.8096C21.2227 20.0447 22.5766 13.2669 23.3622 6.41007C23.5818 4.50015 23.7561 2.5838 23.8745 0.665328C24.0854 0.693132 24.2963 0.723106 24.5094 0.75091C23.8852 5.11613 23.2589 9.4792 22.6347 13.8444C22.5809 14.2251 22.0277 14.0946 21.9997 13.7588C21.7694 10.9998 22.2924 8.21947 23.4827 5.71925C23.6463 5.37705 24.1457 5.62727 24.0725 5.96733C23.3127 9.4471 22.7531 12.9675 22.3958 16.5114C22.1848 16.4836 21.9739 16.4537 21.7608 16.4259C22.7445 13.838 23.5064 11.1731 24.0381 8.45897C24.1069 8.10821 24.7139 8.1831 24.673 8.54455C24.376 11.0726 24.3652 13.6262 24.6386 16.1585C24.4277 16.1307 24.2167 16.1008 24.0037 16.073C24.9378 13.5685 25.872 11.064 26.8061 8.56163C26.9266 8.23867 27.4432 8.26437 27.4411 8.64721C27.4217 11.357 27.4023 14.069 27.3829 16.7788C27.172 16.751 26.9611 16.721 26.748 16.6932C27.525 13.9877 28.3041 11.28 29.0812 8.57447C29.2878 8.63222 29.4966 8.68784 29.7033 8.74558C28.5194 11.6778 27.7295 14.7641 27.3786 17.9059C27.1785 17.8525 26.9783 17.799 26.7759 17.7434C28.274 14.9031 29.7721 12.0628 31.2702 9.22252C31.4187 8.94234 31.8815 9.07067 31.8729 9.38507C31.7932 11.7612 31.7158 14.1396 31.6361 16.5157C31.4252 16.4879 31.2143 16.4579 31.0012 16.4301C31.5845 14.2957 32.1656 12.159 32.7489 10.0246C32.9555 10.0823 33.1644 10.1379 33.371 10.1957C32.6069 12.9889 32.2969 15.8848 32.4476 18.7742C32.2474 18.7208 32.0472 18.6673 31.8449 18.6117C33.1084 15.996 33.823 13.1365 33.9435 10.2384C34.1587 10.2384 34.374 10.2384 34.5892 10.2384C34.2857 13.1236 34.2427 16.0324 34.4622 18.924C34.2513 18.8962 34.0404 18.8662 33.8273 18.8384C35.0671 15.5853 35.9366 12.1997 36.4145 8.75415C36.6211 8.81189 36.8299 8.86751 37.0365 8.92526C36.5113 12.0885 36.3908 15.3095 36.6577 18.5026C36.4467 18.4748 36.2358 18.4449 36.0227 18.4171C37.1205 15.2945 37.9728 12.0927 38.5712 8.83968C38.7671 8.92309 38.9651 9.00439 39.161 9.08781C37.9578 11.8939 37.8329 15.102 38.7757 17.9979C38.5798 17.9722 38.3818 17.9465 38.1859 17.9209C40.192 15.2987 41.1756 11.9987 40.9238 8.71352C41.1347 8.74133 41.3456 8.77125 41.5587 8.79905C40.2737 11.881 40.0241 15.3308 40.8764 18.5603C40.6956 18.5133 40.517 18.4663 40.3362 18.4192C42.3056 16.2933 43.2506 13.2798 42.8179 10.4203C43.0246 10.4203 43.2333 10.4203 43.4399 10.4203C42.6715 12.944 42.5467 15.6303 43.0934 18.2096C42.8976 18.1839 42.6995 18.1583 42.5037 18.1326C43.5024 16.366 43.8984 14.3256 43.6595 12.3152C43.8704 12.343 44.0814 12.3729 44.2945 12.4007C43.765 14.4176 44.5269 16.6291 46.1563 17.9294C45.9755 17.9765 45.7969 18.0236 45.6161 18.0706C46.4727 14.9373 46.7891 11.68 46.5566 8.44189C46.7719 8.44189 46.9871 8.44189 47.2024 8.44189C46.774 11.9088 46.8989 15.4292 47.5855 18.8555C47.3746 18.8833 47.1636 18.9132 46.9506 18.9411C46.9764 16.2355 47.0044 13.53 47.0302 10.8245C47.2412 10.8523 47.4521 10.8822 47.6652 10.91C47.1314 13.1985 46.9893 15.5575 47.2347 17.8952C47.0345 17.8417 46.8343 17.7883 46.632 17.7327C47.8029 15.1961 48.6144 12.5055 49.0556 9.74865C49.2364 9.85345 49.4151 9.9561 49.5959 10.0609C49.3677 10.2406 49.2364 10.54 49.3634 10.8223C49.5291 11.2116 48.9739 11.5367 48.8038 11.1603Z" fill="#7EAF15"/>
<path d="M43.9199 11.682C44.0405 11.1772 43.6897 10.6704 43.1903 10.5591C42.8954 10.4928 42.8696 9.98812 43.1903 9.94107C44.1051 9.80846 45.022 9.6737 45.9368 9.54109C45.9648 9.75069 45.9949 9.96028 46.0229 10.172C44.4021 10.1228 42.8201 9.66727 41.4253 8.84171C41.2359 8.7305 41.1929 8.38619 41.4253 8.28781C42.8933 7.66115 44.4796 7.38522 46.0724 7.51141C46.4921 7.54563 46.4813 8.10598 46.0724 8.15304C44.4989 8.33697 42.9234 8.52092 41.35 8.70485C41.3779 8.49526 41.4081 8.28567 41.4361 8.07393C43.4314 8.34555 45.3664 8.91442 47.1981 9.74426C47.4392 9.85334 47.3897 10.2896 47.1206 10.3303C45.3535 10.5998 43.5863 10.8714 41.8213 11.1409C41.4942 11.1901 41.2079 10.7174 41.5717 10.5549C43.7521 9.57531 46.3737 9.75924 48.369 11.0853C48.6101 11.2457 48.5541 11.575 48.2915 11.6713C46.5136 12.33 44.6066 12.5182 42.7319 12.2573C42.4456 12.2167 42.4326 11.7975 42.6543 11.6713C43.4185 11.2371 44.2407 10.9035 45.0952 10.6939C45.7732 10.5271 46.7504 10.2597 47.3638 10.7324C48.0225 11.2393 47.7448 12.144 47.3961 12.745C47.0195 13.3951 46.4706 13.9469 45.8335 14.349C45.1124 14.8046 44.2773 15.057 43.4249 15.0827C43.2786 15.0869 43.1558 14.98 43.1128 14.8474C42.8674 14.071 42.7512 13.224 42.8265 12.4113C42.8933 11.7055 43.0977 10.9356 43.6638 10.4565C44.3117 9.90683 45.2674 9.8769 45.9605 10.3667C46.7289 10.9099 47.1185 11.8659 46.9829 12.7856C46.8322 13.8036 46.1413 14.6613 45.347 15.2816C44.5657 15.889 43.5928 16.3445 42.5833 16.3381C41.6276 16.3317 40.7495 15.8248 40.3921 14.9265C40.0671 14.1095 40.2135 13.1021 40.7236 12.3878C41.3091 11.5708 42.2712 11.1516 43.2527 11.0489C44.2342 10.9484 45.3685 11.1559 46.1262 11.8189C47.8094 13.2904 46.1693 15.6067 44.6561 16.4194C43.7887 16.8856 42.5962 17.2064 41.718 16.5904C41.0637 16.1306 40.8915 15.3115 41.0831 14.5693C41.2746 13.8315 41.802 13.1599 42.5188 12.8712C43.3173 12.5482 44.2342 12.7621 44.9079 13.2604C46.2187 14.2293 46.8107 16.3231 45.4073 17.4909C44.2794 18.4298 42.3874 18.3207 41.3564 17.2834C41.096 17.0203 40.9109 16.7081 40.7904 16.3595C40.7452 16.229 40.8205 16.0643 40.9389 15.998C41.9763 15.4141 43.1881 15.1682 44.372 15.3158C45.2329 15.4227 46.8946 15.8483 46.6966 17.0332C46.604 17.585 46.0875 17.848 45.6118 18.032C45.0328 18.2565 44.4322 18.4319 43.8252 18.5624C42.5962 18.8276 41.3263 18.9132 40.0736 18.8127C38.6767 18.6993 37.3206 18.3613 36.0335 17.8117C35.7774 17.7026 35.8549 17.2813 36.111 17.2257C38.2053 16.7744 40.4137 17.6 41.7137 19.2853C41.8816 19.5035 41.6427 19.7409 41.4339 19.7687C40.2243 19.9291 38.9888 19.79 37.8437 19.3687C37.5746 19.2703 37.4993 18.8126 37.8437 18.7506C39.3374 18.4833 40.8528 18.387 42.3681 18.479C42.7792 18.5047 42.7856 19.1335 42.3681 19.1206C38.6853 19.0115 35.0283 18.34 31.5543 17.1209C31.2293 17.0075 31.2551 16.4771 31.6404 16.4899C33.0782 16.5434 34.4752 16.9327 35.7279 17.6342C35.9948 17.7839 35.8914 18.1197 35.6504 18.2202C33.0115 19.3195 29.8259 18.7613 27.6907 16.8856C27.4733 16.6953 27.6541 16.3424 27.9189 16.3381C29.6258 16.306 31.3326 16.4793 33.0007 16.8471C33.2978 16.9134 33.3214 17.4182 33.0007 17.4652C31.8707 17.632 30.7385 17.6449 29.6064 17.4866C28.6959 17.3604 27.624 17.185 26.9503 16.4985C26.6726 16.2162 26.4983 15.8441 26.5413 15.4462C26.593 14.9757 26.9137 14.6313 27.2624 14.3405C28.1922 13.5598 29.1415 12.7985 30.0821 12.0285C31.1389 11.1623 32.1936 10.2961 33.2504 9.42987C33.3559 9.60953 33.4592 9.78705 33.5647 9.9667C33.0201 10.0779 32.4755 10.1891 31.931 10.3004C31.5651 10.3752 31.3821 9.92608 31.6813 9.71434C33.0395 8.75618 34.6969 8.26425 36.3607 8.31558C36.7223 8.32628 36.8019 8.84385 36.4467 8.94651C33.358 9.82982 30.067 9.90254 26.9395 9.16681C26.5672 9.07912 26.6791 8.56369 27.0256 8.53588C28.7411 8.399 30.4717 8.56798 32.1269 9.02995C32.4304 9.1155 32.439 9.56676 32.1269 9.64803C29.2943 10.3838 26.2895 10.3517 23.4741 9.5518C23.1491 9.45983 23.1878 9.04065 23.4741 8.93372C25.026 8.34983 26.7028 8.12949 28.3537 8.29632C28.7239 8.33481 28.782 8.78827 28.4398 8.92729C26.4186 9.74002 24.2038 10.0416 22.0385 9.79559C21.8469 9.7742 21.7393 9.66513 21.7156 9.47478C21.636 8.82673 21.8555 8.20007 22.2796 7.7103C22.4302 7.53706 22.7811 7.61836 22.8198 7.85149C23.203 10.1528 22.6519 12.561 21.255 14.4431C21.1259 14.6185 20.8116 14.6827 20.6975 14.4431C19.2597 11.4296 19.7956 7.68254 22.032 5.19088C22.202 5.00267 22.5012 5.116 22.5723 5.33202C23.4182 7.97125 22.2602 11.0425 19.8947 12.4969C19.6687 12.6359 19.434 12.4498 19.4082 12.2188C19.0875 9.18178 19.9463 6.05276 21.7759 3.5996C21.9545 3.3622 22.3829 3.41567 22.3786 3.76215C22.3161 7.52851 21.6596 11.2863 20.4263 14.8495C20.0733 15.8676 19.673 16.8707 19.2317 17.8545C19.1155 18.1133 18.7044 18.0277 18.6419 17.7775C17.753 14.2849 18.2653 10.5057 20.0539 7.37241C20.2132 7.09223 20.6502 7.22056 20.6566 7.53496C20.7061 11.0639 20.2046 14.5993 19.1693 17.9742C18.8722 18.9431 18.53 19.8949 18.1469 20.8338C18.0199 21.1439 17.5012 21.1396 17.5119 20.7482C17.6109 17.2129 18.0673 13.6903 18.8723 10.2448C18.9433 9.94319 19.4297 9.93463 19.4943 10.2448C20.3467 14.287 20.2843 18.4897 19.3049 22.5063C19.2403 22.7715 18.8464 22.8228 18.7151 22.5833C18.1211 21.5032 17.6841 20.3397 17.4452 19.1313C17.2665 18.2245 17.0685 17.1166 17.6174 16.2889C17.8391 15.9553 18.1792 15.72 18.5924 15.72C19.1026 15.72 19.4943 16.0643 19.7633 16.4622C20.3789 17.3733 20.6502 18.5838 20.7191 19.6639C20.803 20.96 20.5425 22.2582 19.9786 23.4281C19.9786 23.3211 19.9786 23.2121 19.9786 23.1051C20.196 23.5992 20.4112 24.0954 20.6286 24.5895C20.704 24.7606 20.6631 25.0193 20.4349 25.06C19.193 25.2845 18.1943 24.5445 17.4108 23.6655C16.9846 23.1864 16.6057 22.6688 16.2076 22.1662C15.7814 21.6273 15.3057 21.1332 14.7827 20.6841C13.6936 19.7516 12.4322 19.0308 11.1558 18.3828C9.72447 17.6556 8.25868 16.9926 6.8058 16.306C5.0279 15.4655 3.25 14.6271 1.4721 13.7866C1.21811 13.6668 1.29132 13.2626 1.54961 13.2005C2.30726 13.0145 3.06492 12.8284 3.82257 12.6423C4.00768 12.5974 4.19275 12.5482 4.37786 12.5054C4.60387 12.4541 4.71149 12.5054 4.91812 12.606C5.26897 12.7771 5.61984 12.9481 5.97068 13.1171C7.40635 13.8143 8.84201 14.5137 10.2777 15.211C10.508 15.3222 10.4671 15.643 10.2777 15.7649C9.84074 16.0472 9.40377 16.3295 8.96468 16.6119C8.87643 16.6696 8.72576 16.676 8.63966 16.6119C8.1403 16.2483 7.64095 15.8868 7.14374 15.5232C6.94357 15.3778 6.91986 14.9928 7.2212 14.9372C10.706 14.2827 13.7667 11.9836 15.4564 8.89732C15.9363 8.02043 16.2937 7.08579 16.5262 6.11479C16.707 6.21959 16.8856 6.32224 17.0664 6.42704C15.6975 7.71458 14.3264 9.00212 12.9574 10.2897C12.7271 10.5057 12.3268 10.2939 12.4172 9.97741C12.9058 8.2664 14.5889 7.02375 16.3819 7.06653C16.5735 7.07081 16.6811 7.21196 16.7048 7.38734C16.9136 8.9572 16.75 10.6575 16.1172 12.1205C15.8782 12.6744 15.4865 13.2561 14.8817 13.455C14.2941 13.6497 13.7065 13.3802 13.3685 12.8904C12.6797 11.8873 12.9854 10.4522 13.4761 9.4363C14.0207 8.30703 14.9936 7.36168 16.1473 6.85693C17.1417 6.42276 19.1219 5.99716 19.1714 7.62049C19.1822 7.94986 19.1112 8.28567 19.0574 8.61076C18.995 8.98932 18.9175 9.36575 18.812 9.73361C18.614 10.4266 18.3126 11.0939 17.8456 11.6521C17.0513 12.5995 15.635 13.1599 14.449 12.6316C13.4675 12.1953 13.0371 11.1238 13.1146 10.1036C13.2136 8.82036 13.9432 7.73598 15.0883 7.13926C16.5261 6.3907 18.2158 6.38644 19.8 6.40997C19.6924 6.5169 19.5847 6.62384 19.4771 6.73078C19.5481 5.73412 19.617 4.73532 19.688 3.73865C19.871 3.81351 20.0561 3.89046 20.2391 3.96532C17.6174 6.06559 15.3853 8.62569 13.6785 11.5109C13.1963 12.3258 12.7572 13.1663 12.3591 14.0261C12.3418 13.8956 12.3246 13.7673 12.3095 13.6369C12.7637 14.0774 13.4718 13.9149 14.025 13.7887C14.6944 13.6368 15.394 13.408 16.0892 13.5128C18.0415 13.8058 17.6389 16.6396 17.1051 17.9229C16.694 18.911 16.0311 19.7537 15.1572 20.3803C15.0065 20.4894 14.8106 20.3932 14.7159 20.2649C13.0586 18.0042 12.2364 15.1746 12.4236 12.3835C12.4387 12.1611 12.6927 11.9579 12.9101 12.1055C13.9605 12.8262 14.8644 13.7331 15.5704 14.7896C15.932 15.3286 16.2312 15.9039 16.4788 16.5006C16.7112 17.0631 17.0384 17.7818 16.8145 18.3892C16.425 19.4415 15.0367 19.1741 14.2489 18.8062C13.6914 18.5453 13.1619 18.1774 12.6819 17.7967C12.2062 17.4182 11.7757 16.9669 11.4787 16.4343C10.9729 15.5296 10.9191 14.3041 11.5303 13.4293C12.1696 12.514 13.3427 12.3065 14.3156 12.807C15.3445 13.3395 16.0806 14.4153 16.5907 15.4163C17.1611 16.537 17.8111 18.0084 16.9372 19.1484C16.5886 19.604 16.0397 19.9376 15.4478 19.8649C14.8344 19.7922 14.3866 19.3195 14.0315 18.8554C13.403 18.0299 13.0693 17.0118 13.0069 15.9831C12.8842 13.9448 13.911 11.8103 15.874 11.0083C17.6777 10.2726 19.9399 10.773 21.3024 12.1482C21.9847 12.8369 22.5185 13.8037 22.3398 14.7918C22.2559 15.2495 22.0299 15.7328 21.6338 16.0023C21.2227 16.2825 20.6523 16.2226 20.3897 15.7863C19.7634 14.7468 19.6407 13.4208 20.0238 12.2744C20.4048 11.1366 21.2658 10.2469 22.3743 9.78708C22.8994 9.56893 23.4634 9.44914 24.0338 9.44486C24.5869 9.44058 25.3101 9.51332 25.7449 9.88974C26.2723 10.3453 26.0721 11.0425 25.7987 11.5772C25.5125 12.1397 25.1165 12.6573 24.6515 13.0872C24.2038 13.5 23.6915 13.8379 23.1319 14.0838C22.9726 14.1544 22.7854 14.133 22.6907 13.9683C21.8448 12.5225 22.9382 10.4565 24.5762 10.2063C26.2163 9.9539 27.4131 11.6136 27.2366 13.1214C27.144 13.9084 26.6834 14.5929 25.9408 14.9073C25.1939 15.2238 24.2791 15.1575 23.5904 14.7233C22.8456 14.2549 22.4754 13.4059 22.6971 12.5503C22.9102 11.7312 23.6162 10.9976 24.4772 10.8778C25.4328 10.7452 26.2486 11.3954 26.6231 12.2253C27.0192 13.1021 27.0859 14.1031 27.0515 15.0527C27.0429 15.3136 26.6941 15.4976 26.5004 15.2794C25.2434 13.8657 25.8977 11.4617 27.5637 10.6682C29.5525 9.72075 31.9009 10.8628 32.8867 12.6936C33.4851 13.8036 33.6766 15.0933 33.569 16.3402C33.3688 16.2868 33.1686 16.2333 32.9663 16.1777C33.9284 14.8645 35.0993 13.6903 36.4532 12.7771C37.071 12.36 37.7963 12.1012 38.5239 12.3942C39.1653 12.653 39.6388 13.2112 39.8821 13.8465C40.2329 14.7618 40.0715 15.7799 39.9272 16.7188C39.7464 16.614 39.5678 16.5113 39.387 16.4065C41.1089 14.441 44.0233 13.7929 46.5007 14.4966C47.1142 14.672 47.7104 14.9308 48.2485 15.273C48.524 15.4484 48.7866 15.6473 49.0319 15.8654C49.1439 15.966 49.2579 16.0686 49.3591 16.1798C49.5098 16.3488 49.4753 16.5049 49.4086 16.706C48.9609 18.0855 47.9192 19.2768 46.5976 19.8949C44.7616 20.7547 42.6629 20.4402 40.8097 19.7986C40.4782 19.6831 40.5149 19.1634 40.8958 19.1677C41.7934 19.1805 42.6888 19.1933 43.5864 19.2062C43.9372 19.2104 44.0405 19.7666 43.6724 19.8371C41.5674 20.2349 39.3977 20.1536 37.3314 19.5847C37.0086 19.4949 37.043 19.0693 37.3314 18.9666C39.7486 18.1026 42.2863 17.6 44.852 17.4695C44.852 17.6834 44.852 17.8973 44.852 18.1111C43.8855 18.109 42.9169 18.109 41.9505 18.1069C41.9505 17.893 41.9505 17.6791 41.9505 17.4652C43.4464 17.493 44.9424 17.5187 46.4383 17.5465C46.4383 17.7603 46.4383 17.9742 46.4383 18.1881C41.3866 17.5721 36.3348 16.9583 31.2831 16.3424C29.8474 16.167 28.4118 15.9916 26.9761 15.8184C27.0299 15.6195 27.0837 15.4206 27.1397 15.2195C30.364 16.7915 33.9973 17.4417 37.5703 17.1102C37.5165 17.3091 37.4627 17.508 37.4068 17.709C35.4222 16.5348 33.6443 15.0292 32.1699 13.2626C32.0193 13.0829 32.0601 12.792 32.312 12.7257C35.0154 12.0093 37.7727 11.5002 40.5536 11.1944C40.5536 11.4082 40.5536 11.6221 40.5536 11.836C37.4519 12.0135 34.3395 11.7868 31.296 11.173C30.9775 11.1088 30.999 10.6319 31.296 10.5549C33.287 10.0416 35.2758 9.53041 37.2668 9.01711C37.3249 9.22243 37.3809 9.42986 37.439 9.63519C34.2922 10.0865 31.1153 10.2662 27.9361 10.1571C27.9361 9.94321 27.9361 9.72933 27.9361 9.51545C30.646 9.62667 33.3021 10.3517 35.6891 11.6307C35.9366 11.7633 35.8721 12.144 35.6116 12.2167C31.6017 13.3353 27.2925 13.3288 23.2804 12.2124C22.1482 11.898 21.0441 11.4895 19.9722 11.0062C19.6472 10.8586 19.8559 10.4394 20.1357 10.4073C21.4099 10.2683 22.6777 10.4779 23.8508 10.9805C23.9993 11.0446 24.0617 11.2927 23.967 11.4189C22.7057 13.1278 19.6708 12.9439 18.7195 10.9976C18.5903 10.7345 18.8723 10.3624 19.1607 10.5591C20.1315 11.2136 20.0626 12.7279 19.2102 13.4615C18.7604 13.8486 18.1426 13.9534 17.5959 13.7053C17.0901 13.4743 16.7349 12.976 16.5907 12.4498C16.4206 11.8275 16.5455 11.1152 17.0643 10.6896C17.2623 10.5271 17.512 10.5955 17.6045 10.8308C18.1857 12.3151 18.0264 14.0282 17.1998 15.3906C17.0707 15.6024 16.6488 15.6023 16.6101 15.3136C16.4529 14.1608 16.2958 13.008 16.1409 11.8552C16.1172 11.682 16.1818 11.513 16.3669 11.4596C16.5197 11.4168 16.7371 11.513 16.765 11.6841C17.1137 13.9641 16.9157 16.2975 16.1624 18.4811C16.0978 18.6651 15.8718 18.7934 15.6888 18.6736C14.3027 17.7668 13.3126 16.3296 12.994 14.7062C13.2049 14.6784 13.4159 14.6485 13.629 14.6207C13.6333 15.9895 13.6376 17.3604 13.6419 18.7292C13.644 19.08 13.078 19.1784 13.0069 18.8148C12.7443 17.4524 12.4818 16.09 12.2192 14.7276C12.1417 14.3255 12.7228 14.1565 12.8412 14.5565C13.2157 15.8248 14.0229 16.9391 15.1185 17.6877C14.9613 17.8074 14.8021 17.9293 14.6449 18.0491C14.0444 16.4878 13.7 14.6057 14.9183 13.2369C15.8115 12.2317 17.3354 12.0755 18.2631 13.1128C19.0272 13.9683 19.2899 15.3757 18.6183 16.3595C17.852 17.4802 16.3561 17.8096 15.0905 17.4781C13.2803 17.0033 12.4731 15.2922 11.8102 13.7138C11.7542 13.5834 11.8489 13.4208 11.9587 13.3524C14.4964 11.7847 18.0522 12.1782 20.2025 14.2335C20.7513 14.7575 21.3475 15.5361 20.7492 16.2547C20.2843 16.8129 19.3889 16.999 18.7108 17.1401C17.1848 17.4567 15.5791 17.3775 14.0853 16.9348C12.4043 16.4386 10.8588 15.4912 9.70941 14.1694C9.61686 14.0625 9.58027 13.9085 9.65991 13.7801C10.1184 13.0444 10.9922 12.6102 11.8618 12.6808C12.7658 12.7535 13.4826 13.3459 13.7882 14.1865C13.9367 14.5907 13.9648 15.0377 13.8808 15.459C13.8442 15.6472 13.7775 15.9232 13.6376 16.0622C13.474 16.2269 13.065 16.1841 12.8498 16.1948C11.7305 16.244 10.6027 16.137 9.5114 15.8889C8.2673 15.6066 7.07057 15.1276 5.97068 14.4859C6.0783 14.302 6.18808 14.1159 6.2957 13.932C10.2282 16.5819 14.0099 19.4478 17.6217 22.517C18.6398 23.3832 19.645 24.2643 20.6351 25.1605C20.465 25.291 20.2972 25.4193 20.1271 25.5498C19.1177 23.3426 18.1103 21.1332 17.1008 18.926C17.2967 18.9004 17.4947 18.8747 17.6906 18.849C17.5701 19.6788 17.4517 20.5108 17.3312 21.3406C17.286 21.6593 17.2084 21.8818 16.9308 22.0764C16.7285 22.2197 16.4766 22.2839 16.2312 22.271C14.9958 22.2111 14.1821 21.0391 13.4159 20.2349C11.4421 18.1624 9.11103 16.475 6.69387 14.9522C5.30986 14.0796 3.89145 13.2583 2.47516 12.4391C2.18888 12.2723 2.32664 11.8574 2.63874 11.8403C5.82002 11.6756 8.9453 10.7474 11.7025 9.16253C12.4796 8.71553 13.2243 8.2172 13.9346 7.67181C14.2231 7.44938 14.5975 7.93491 14.3263 8.17659C13.3771 9.01498 12.4279 9.85124 11.4765 10.6896C11.2548 10.8843 10.8179 10.7003 10.9363 10.3774C11.2764 9.44916 11.7413 8.57866 12.3397 7.78946C12.5248 7.54564 12.9337 7.6098 12.9423 7.95201C12.9725 9.18607 12.3741 10.341 11.3754 11.0639C11.2333 11.1666 11.0159 11.0853 10.9341 10.9484C10.4843 10.2063 11.7865 9.76142 12.1912 10.3752C12.4624 10.788 12.2299 11.2992 11.9393 11.6307C11.6875 11.9173 10.9449 12.2958 11.0267 12.7492C10.8158 12.777 10.6049 12.807 10.3918 12.8348C10.4736 12.0542 10.721 11.3163 11.1515 10.6554C11.2355 10.5271 11.369 10.48 11.5153 10.5078C14.0207 10.9955 16.6876 9.96246 18.3514 8.07179C18.8206 7.5371 19.2124 6.92323 19.4836 6.26663C19.6794 6.35004 19.8775 6.43135 20.0733 6.51476C19.4276 7.76166 18.4224 8.7968 17.1955 9.48976C16.9975 9.60098 16.6876 9.46409 16.7091 9.21171C16.8576 7.58198 17.626 6.05275 18.8744 4.98123C19.0638 4.81869 19.4556 4.90853 19.4255 5.20795C19.2145 7.38308 18.487 9.48121 17.2795 11.3099C17.1568 11.4959 16.9372 11.5088 16.7715 11.374C15.3208 10.1892 15.8158 7.64614 17.5055 6.96387C17.6604 6.90185 17.8692 7.03232 17.9015 7.18845C18.5408 10.1143 17.7573 13.2347 15.8223 15.5253C15.6544 15.7243 15.3552 15.5917 15.2821 15.3842C14.3264 12.653 14.4534 9.63306 15.592 6.97672C15.7147 6.69226 16.0935 6.8313 16.1817 7.05374C17.4323 10.2341 17.8886 13.7203 17.4969 17.1123C17.385 18.0812 17.2084 19.0415 16.9652 19.9868C16.8856 20.297 16.4271 20.2884 16.3432 19.9868C15.8847 18.3443 15.6565 16.6354 15.6802 14.9286C15.691 14.0688 15.7685 13.2133 15.9041 12.3643C16.0225 11.6114 16.1559 10.8244 16.5154 10.1442C16.821 9.56463 17.3354 9.09411 17.9984 8.97648C18.6376 8.86313 19.3028 9.07486 19.6256 9.66516C19.8021 9.98811 19.8603 10.3538 19.9141 10.711C19.9743 11.1174 20.0195 11.5237 20.0475 11.9322C20.1034 12.7407 20.0927 13.5534 20.0174 14.3597C19.8452 16.2098 19.3479 18.0084 18.5429 19.6852C18.4375 19.9055 18.0974 19.8841 17.9854 19.6852C16.3518 16.7701 15.9278 13.2561 16.8296 10.0416C16.877 9.87262 17.0578 9.77423 17.2278 9.817C18.6441 10.1806 19.7289 11.4831 19.7978 12.9396C19.8667 14.4047 18.8701 15.7756 17.5033 16.2675C17.3656 16.3167 17.2106 16.2333 17.1396 16.1199C15.9084 14.1908 15.0733 12.0242 14.6966 9.7721C14.9075 9.74429 15.1185 9.71432 15.3316 9.68651C15.1055 11.451 16.4508 12.8904 17.9769 13.5684C19.9593 14.4474 22.2516 13.9042 24.2425 13.3417C26.4681 12.7129 28.6765 12.1012 30.9645 11.7226C32.1032 11.5344 33.2482 11.389 34.3976 11.2864C34.9422 11.2372 35.4954 11.1794 36.0443 11.1751C36.436 11.173 36.8557 11.22 37.2001 11.4147C38.2698 12.0221 37.6371 13.3951 37.1786 14.1972C36.6491 15.1211 35.8979 15.9018 35.0068 16.4878C34.8411 16.5969 34.572 16.4921 34.5333 16.2953C33.9607 13.4764 36.7309 11.3933 39.1072 10.5998C40.6225 10.0929 42.3788 9.82985 43.9243 10.3645C45.1942 10.8051 46.2876 11.8724 46.5739 13.207C46.6492 13.5599 46.6664 13.917 46.6148 14.2742C46.5911 14.4453 46.5653 14.6763 46.4706 14.8238C46.363 14.9907 46.1305 15.0185 45.9476 15.0505C45.106 15.1981 44.2256 15.0099 43.5347 14.5073C43.3302 14.3597 43.3151 13.9833 43.6122 13.9213C45.6204 13.4957 47.7297 13.8058 49.5248 14.8025C49.7487 14.9265 49.7186 15.2259 49.5248 15.3564C47.084 17.0182 44.2256 18.0084 41.279 18.2416C40.8657 18.2737 40.8657 17.632 41.279 17.5999C44.1137 17.3775 46.8537 16.4001 49.1977 14.8025C49.1977 14.9864 49.1977 15.1724 49.1977 15.3564C47.5597 14.4474 45.6204 14.1502 43.7822 14.5394C43.808 14.3448 43.8339 14.148 43.8597 13.9534C44.5141 14.4282 45.3233 14.58 46.1047 14.3533C46.0293 14.4282 45.954 14.503 45.8787 14.5779C46.1929 13.6197 45.8249 12.6124 45.1512 11.8959C44.3677 11.0639 43.257 10.7281 42.1335 10.7196C40.9475 10.7089 39.7098 10.9976 38.625 11.4703C37.6909 11.8788 36.8062 12.4477 36.1174 13.2005C35.3878 14.0004 34.9336 15.0399 35.1553 16.1264C34.9982 16.0622 34.8389 15.998 34.6818 15.9339C35.4566 15.4249 36.1088 14.7426 36.5802 13.947C36.8148 13.5513 37.0538 13.1 37.1356 12.6423C37.2195 12.1675 36.9397 11.9258 36.5006 11.8467C36.0679 11.7697 35.6073 11.8339 35.1747 11.8638C34.5871 11.9066 34.0016 11.9601 33.4162 12.0242C32.2926 12.1483 31.1733 12.3193 30.0627 12.5289C28.9413 12.7428 27.8263 12.9973 26.7243 13.2946C25.6567 13.5834 24.602 13.9234 23.5301 14.195C21.5692 14.6891 19.4341 14.9564 17.5464 14.0688C15.8826 13.2861 14.4405 11.6093 14.688 9.68228C14.7095 9.52188 14.7956 9.39137 14.9678 9.36784C15.112 9.34859 15.295 9.44057 15.3229 9.5967C15.6888 11.8018 16.496 13.9042 17.6992 15.7927C17.5787 15.7435 17.456 15.6943 17.3355 15.6451C18.4418 15.2473 19.2102 14.1031 19.1564 12.9353C19.1026 11.7612 18.19 10.7217 17.06 10.4309C17.1912 10.356 17.3247 10.2811 17.4581 10.2063C16.6036 13.2561 16.9975 16.5883 18.5494 19.3559C18.3643 19.3559 18.177 19.3559 17.9919 19.3559C19.2575 16.7124 19.7289 13.6775 19.2812 10.7794C19.1951 10.2234 19.0531 9.5839 18.3664 9.57535C17.7573 9.56679 17.3182 9.98381 17.0556 10.495C16.7629 11.0703 16.6574 11.7483 16.552 12.3771C16.425 13.1342 16.3539 13.902 16.3324 14.6698C16.2829 16.4044 16.5003 18.1346 16.9674 19.805C16.7607 19.805 16.552 19.805 16.3453 19.805C17.1762 16.5776 17.202 13.1599 16.4185 9.91966C16.1968 8.99785 15.9084 8.09531 15.5618 7.212C15.7577 7.23767 15.9558 7.2633 16.1516 7.28897C15.0819 9.7849 15.013 12.6444 15.9084 15.2024C15.7276 15.1553 15.5489 15.1083 15.3681 15.0613C17.1482 12.9546 17.8693 10.0351 17.2817 7.34886C17.4151 7.42372 17.5464 7.49858 17.6798 7.57344C16.3927 8.09316 16.1968 10.0694 17.2299 10.9121C17.0599 10.9335 16.892 10.9548 16.722 10.9762C17.8649 9.24593 18.5817 7.25902 18.7797 5.19725C18.9627 5.27211 19.1478 5.34912 19.3307 5.42397C18.2158 6.38 17.4883 7.73815 17.3548 9.20106C17.1934 9.1091 17.0319 9.01712 16.8684 8.92301C18.0048 8.28138 18.9153 7.33176 19.5137 6.17896C19.6773 5.86242 20.2455 6.08698 20.1034 6.42704C19.0229 9.03205 16.4917 10.8479 13.6957 11.2008C12.9101 11.2992 12.118 11.2671 11.341 11.1174C11.4615 11.0682 11.5842 11.019 11.7047 10.9698C11.3388 11.5323 11.1042 12.159 11.0332 12.8263C10.9987 13.1535 10.4692 13.2989 10.3982 12.9118C10.2626 12.1632 10.8524 11.774 11.3323 11.3184C11.4464 11.2093 11.5627 11.0896 11.6229 10.942C11.6509 10.8757 11.6617 10.818 11.6509 10.7452C11.6401 10.6747 11.6746 10.7345 11.6466 10.7238C11.6014 10.7024 11.5519 10.726 11.5024 10.7217C11.4873 10.7196 11.4443 10.7431 11.4464 10.7431C11.4873 10.7902 11.4615 10.5784 11.4852 10.6169C11.3388 10.5784 11.1903 10.5399 11.0439 10.5014C11.8575 9.91324 12.316 8.93583 12.2923 7.94344C12.4925 7.99691 12.6927 8.05038 12.895 8.10599C12.3332 8.85028 11.8791 9.66513 11.5562 10.542C11.3754 10.4372 11.1967 10.3346 11.0159 10.2298C11.9652 9.39137 12.9144 8.55512 13.8657 7.71672C13.997 7.88568 14.1262 8.05253 14.2575 8.22149C11.6703 10.202 8.60305 11.5622 5.39164 12.1547C4.48117 12.3236 3.55997 12.4306 2.63443 12.4776C2.68824 12.2787 2.74206 12.0798 2.79802 11.8787C5.14846 13.239 7.50317 14.6036 9.70295 16.1969C10.7921 16.9862 11.8446 17.8267 12.8261 18.7442C13.319 19.204 13.7926 19.681 14.2446 20.1793C14.6277 20.6028 14.9807 21.0306 15.4736 21.3343C15.6996 21.4733 15.9579 21.6059 16.2269 21.623C16.3216 21.6294 16.4207 21.6208 16.5046 21.5781C16.6445 21.5053 16.6639 21.4177 16.6876 21.268C16.8296 20.406 16.9373 19.5377 17.0621 18.6736C17.1008 18.4084 17.5421 18.3571 17.6519 18.5966C18.6614 20.8038 19.6686 23.0132 20.6781 25.2204C20.8266 25.5433 20.4543 25.8663 20.1702 25.6097C16.6983 22.4678 13.0564 19.5142 9.25312 16.7744C8.1683 15.9938 7.07056 15.2281 5.96207 14.4817C5.62198 14.2528 5.92548 13.716 6.28708 13.9277C8.43089 15.1789 10.9256 15.7286 13.4008 15.5104C13.3083 15.5639 13.2157 15.6174 13.121 15.6687C13.4891 14.9116 13.1684 13.8956 12.4258 13.4892C11.6767 13.0807 10.65 13.3887 10.2088 14.0988C10.1916 13.9683 10.1744 13.84 10.1593 13.7095C11.9716 15.7927 14.7827 16.8728 17.5356 16.6568C18.2222 16.6033 18.9002 16.46 19.5503 16.2354C19.8172 16.1435 20.2025 16.0023 20.323 15.72C20.4586 15.4013 20.1228 15.0741 19.9226 14.8624C19.0165 13.9128 17.7896 13.3245 16.4981 13.1064C15.0517 12.8626 13.5257 13.1257 12.2773 13.8956C12.3268 13.7759 12.3763 13.6539 12.4258 13.5341C12.9251 14.7212 13.502 16.0879 14.7461 16.6696C15.6609 17.0974 16.9071 17.0781 17.7035 16.4044C18.4547 15.7713 18.5171 14.7233 18.0436 13.8978C17.8283 13.5214 17.4947 13.1898 17.0685 13.0658C16.5433 12.9139 15.9837 13.1107 15.5855 13.4636C14.2898 14.6121 14.7224 16.46 15.2627 17.8673C15.3617 18.1239 15.013 18.3828 14.7891 18.2288C13.5493 17.384 12.6389 16.1477 12.2149 14.7147C12.4215 14.657 12.6302 14.6014 12.8369 14.5437C13.0995 15.9061 13.362 17.2684 13.6246 18.6287C13.4137 18.6565 13.2028 18.6865 12.9897 18.7143C12.9854 17.3455 12.9811 15.9745 12.9768 14.6057C12.9747 14.2528 13.5386 14.1566 13.6118 14.5201C13.898 15.9788 14.7568 17.2834 16.0117 18.1047C15.8546 18.1689 15.6953 18.233 15.5382 18.2972C16.2528 16.229 16.4723 14.0068 16.1409 11.8424C16.3475 11.7847 16.5563 11.729 16.7629 11.6713C16.92 12.8241 17.0771 13.9769 17.2321 15.1297C17.0362 15.104 16.8382 15.0784 16.6423 15.0527C17.3871 13.8229 17.5033 12.3215 16.9803 10.9869C17.1611 11.034 17.3397 11.081 17.5205 11.128C16.8016 11.7183 17.273 13.254 18.2696 13.1856C19.1887 13.1235 19.5933 11.6093 18.8335 11.0981C18.9799 10.9527 19.1284 10.8051 19.2747 10.6597C19.9937 12.129 22.4087 12.4348 23.4074 11.081C23.4462 11.2264 23.4849 11.374 23.5237 11.5194C22.4561 11.0618 21.2873 10.9078 20.1336 11.0339C20.1874 10.835 20.2412 10.6361 20.2971 10.4351C23.9713 12.099 28.0975 12.7108 32.1032 12.2445C33.231 12.1141 34.346 11.8852 35.4373 11.5815C35.4114 11.7761 35.3856 11.9729 35.3598 12.1675C33.0739 10.942 30.5276 10.2469 27.934 10.14C27.5207 10.1228 27.5164 9.48336 27.934 9.49833C31.0507 9.60527 34.176 9.4427 37.2647 8.99784C37.6629 8.94009 37.8501 9.50903 37.4369 9.61597C35.4459 10.1293 33.4571 10.6404 31.4661 11.1537C31.4661 10.9484 31.4661 10.741 31.4661 10.5356C34.4536 11.1366 37.5101 11.3484 40.5536 11.1751C40.9755 11.1516 40.9582 11.7719 40.5536 11.8168C37.8286 12.1162 35.1316 12.623 32.4842 13.3246C32.5315 13.1449 32.5789 12.9674 32.6262 12.7877C34.0683 14.5158 35.7924 15.9852 37.7317 17.1337C38.0245 17.3069 37.876 17.7026 37.5682 17.7326C33.879 18.0726 30.1359 17.3733 26.8125 15.7542C26.537 15.6195 26.6575 15.1168 26.9761 15.1553C32.0278 15.7713 37.0796 16.3852 42.1313 17.0011C43.567 17.1765 45.0027 17.3519 46.4383 17.5251C46.8387 17.5743 46.8645 18.1753 46.4383 18.1667C44.9424 18.1389 43.4464 18.1132 41.9505 18.0854C41.5351 18.0769 41.5329 17.4438 41.9505 17.4438C42.9169 17.446 43.8855 17.446 44.852 17.4481C45.2695 17.4481 45.2652 18.0683 44.852 18.0897C42.3422 18.2181 39.867 18.7186 37.5036 19.5634C37.5036 19.358 37.5036 19.1506 37.5036 18.9452C39.4559 19.4842 41.5114 19.5741 43.5002 19.1976C43.5282 19.4072 43.5584 19.6168 43.5864 19.8286C42.6888 19.8157 41.7934 19.8029 40.8958 19.79C40.9238 19.5804 40.9539 19.3708 40.9819 19.1591C42.6027 19.7216 44.4495 20.0681 46.0939 19.3987C47.4219 18.8576 48.4508 17.6898 48.8447 16.3252C48.8727 16.43 48.9006 16.5327 48.9286 16.6375C47.0948 14.7147 43.9695 14.3298 41.6147 15.489C40.9389 15.8227 40.3426 16.2739 39.8476 16.8386C39.613 17.1081 39.2643 16.8086 39.3073 16.5263C39.4429 15.6473 39.613 14.6164 39.1653 13.793C38.8166 13.1556 38.1429 12.7001 37.4068 12.9674C37.0129 13.1107 36.6663 13.3823 36.3348 13.6304C35.9861 13.8935 35.6504 14.1758 35.3275 14.471C34.6624 15.0805 34.0576 15.7542 33.5238 16.4814C33.3559 16.7102 32.891 16.6696 32.9211 16.3188C33.0782 14.5073 32.5509 12.4263 30.8677 11.451C29.4256 10.6169 27.37 10.8115 26.6813 12.499C26.3735 13.2519 26.395 14.1758 26.9568 14.8068C26.7738 14.8816 26.5887 14.9586 26.4057 15.0334C26.4316 14.3554 26.4036 13.6689 26.2271 13.0102C26.0764 12.4455 25.7901 11.8467 25.2241 11.5943C23.9369 11.0211 22.6842 12.8669 23.599 13.8849C24.3954 14.7704 26.1259 14.6036 26.5155 13.4059C26.8448 12.3942 26.2658 10.9869 25.1251 10.8115C23.7195 10.5955 22.5572 12.4391 23.2482 13.624C23.1018 13.5855 22.9533 13.547 22.8069 13.5085C23.7669 13.0872 24.5762 12.3921 25.1035 11.4874C25.336 11.0874 25.7019 10.4522 25.0863 10.2255C24.6364 10.0608 24.1199 10.0352 23.6485 10.0865C22.7122 10.1891 21.8146 10.6597 21.2162 11.3826C20.5899 12.1419 20.3424 13.1984 20.493 14.163C20.5296 14.4004 20.5899 14.6378 20.6717 14.8645C20.7126 14.9779 20.7599 15.0869 20.8138 15.1938C20.8439 15.2537 20.8762 15.3136 20.9085 15.3714C20.9257 15.4034 21.0311 15.5211 20.973 15.4911C21.2356 15.6302 21.4767 15.2623 21.5693 15.0762C21.9395 14.3341 21.6231 13.5427 21.1539 12.9268C20.2132 11.6948 18.487 11.096 16.9695 11.3441C15.2777 11.6221 14.1025 12.961 13.7538 14.5886C13.5773 15.4099 13.6139 16.2761 13.8593 17.0802C13.9755 17.4652 14.1434 17.8331 14.3587 18.1732C14.5997 18.5539 14.9441 19.0351 15.3918 19.1784C15.8331 19.3195 16.2678 18.9987 16.4938 18.6437C16.7952 18.1732 16.7586 17.6128 16.6122 17.0952C16.3346 16.1093 15.7836 15.0933 15.1249 14.3063C14.5976 13.6775 13.7947 12.9524 12.8972 13.1834C12.0405 13.4037 11.6875 14.2891 11.7392 15.0997C11.8016 16.0772 12.5205 16.8642 13.276 17.4225C13.9389 17.9122 14.8193 18.5474 15.6975 18.4683C16.1774 18.4255 16.3066 18.0748 16.199 17.6321C16.0741 17.1209 15.861 16.6183 15.6264 16.1478C15.155 15.2003 14.5265 14.3362 13.7646 13.5983C13.3987 13.2433 13.0048 12.9225 12.5829 12.6337C12.7443 12.5418 12.9058 12.4498 13.0694 12.3557C12.8907 15.0484 13.6742 17.7326 15.2734 19.912C15.1271 19.8735 14.9785 19.835 14.8322 19.7965C16.2399 18.787 17.0362 17.0161 16.8619 15.3008C16.8232 14.9201 16.722 14.4923 16.3862 14.2635C16.1731 14.1181 15.9127 14.0924 15.6587 14.101C15.0324 14.1223 14.4275 14.349 13.8141 14.4581C13.1189 14.5822 12.3913 14.5822 11.8554 14.0625C11.7456 13.9555 11.7456 13.8037 11.8059 13.6732C13.2265 10.5998 15.2088 7.7852 17.626 5.40262C18.3126 4.72677 19.0359 4.08723 19.787 3.4841C19.9829 3.32797 20.3596 3.40498 20.3381 3.71082C20.2671 4.70748 20.1982 5.70628 20.1271 6.70295C20.1142 6.87405 19.9894 7.0259 19.8043 7.02376C17.8241 6.99382 14.9247 6.97031 14.0013 9.12833C13.6957 9.84481 13.6247 10.7602 14.053 11.4425C14.5954 12.3087 15.7448 12.3065 16.5649 11.8531C17.6131 11.2735 18.078 10.1293 18.3212 9.01925C18.3837 8.73051 18.4353 8.43963 18.4805 8.14876C18.5193 7.89424 18.5946 7.56062 18.4805 7.31466C18.276 6.87193 17.4711 7.0815 17.1138 7.17133C16.0935 7.42798 15.1787 8.06106 14.548 8.89518C13.9583 9.67369 13.5257 10.7302 13.644 11.7226C13.6957 12.1504 13.9002 12.7792 14.4082 12.8455C14.9699 12.9182 15.3488 12.2659 15.536 11.8381C16.1409 10.4565 16.2635 8.83745 16.0655 7.35956C16.1731 7.4665 16.2808 7.57344 16.3884 7.68038C14.8817 7.64616 13.4611 8.67702 13.0478 10.1207C12.867 10.0159 12.6884 9.91324 12.5076 9.80844C13.8765 8.5209 15.2476 7.23335 16.6165 5.94582C16.8533 5.72339 17.23 5.94586 17.1568 6.25812C16.3001 9.84911 13.7022 12.9524 10.3681 14.5501C9.4253 15.0013 8.43088 15.335 7.40202 15.5296C7.42785 15.335 7.4537 15.1382 7.47953 14.9436C7.97889 15.3072 8.47824 15.6687 8.97545 16.0323C8.86783 16.0323 8.75806 16.0323 8.65044 16.0323C9.08738 15.7499 9.52434 15.4676 9.96343 15.1853C9.96343 15.3693 9.96343 15.5553 9.96343 15.7392C8.11451 14.8388 6.26342 13.9406 4.41449 13.0401C4.49843 13.0508 4.58021 13.0615 4.66415 13.0722C3.68695 13.3117 2.70973 13.5513 1.73469 13.793C1.76051 13.5984 1.78637 13.4016 1.81219 13.207C4.82989 14.6314 7.86481 16.0237 10.861 17.4866C12.1008 18.0919 13.3255 18.7442 14.4383 19.5612C14.9979 19.9719 15.5296 20.4188 16.0117 20.9172C16.4594 21.3813 16.8425 21.8989 17.2407 22.4058C17.951 23.3148 18.9476 24.6515 20.2778 24.4119C20.2132 24.5681 20.1486 24.7263 20.0841 24.8824C19.9614 24.6044 19.8408 24.3264 19.7182 24.0483C19.6643 23.9243 19.6105 23.8003 19.5546 23.6783C19.4965 23.5457 19.3888 23.3853 19.3888 23.2377C19.3888 23.1137 19.4793 22.9832 19.5266 22.8742C19.5826 22.7501 19.6321 22.6239 19.6794 22.4956C19.772 22.2432 19.8495 21.9866 19.9119 21.7256C20.1616 20.6819 20.1658 19.5762 19.9205 18.5303C19.7999 18.0127 19.6235 17.4994 19.376 17.0289C19.2102 16.7145 18.8938 16.2141 18.4633 16.3574C18.1491 16.46 18.0264 16.8728 17.9661 17.1573C17.8714 17.6043 17.9338 18.0641 18.0048 18.5089C18.2136 19.8157 18.6462 21.0733 19.2855 22.2347C19.0896 22.2603 18.8916 22.286 18.6958 22.3116C19.6471 18.4105 19.7139 14.3191 18.8852 10.3923C19.0918 10.3923 19.3006 10.3923 19.5072 10.3923C18.7151 13.7844 18.2674 17.2449 18.1706 20.7247C17.9596 20.6969 17.7487 20.667 17.5356 20.6392C18.8551 17.4054 19.6751 13.9747 19.9334 10.4928C20.0066 9.50045 20.0346 8.50379 20.0217 7.50927C20.2219 7.56274 20.422 7.61621 20.6243 7.67181C18.9196 10.6554 18.4288 14.2571 19.2769 17.5829C19.081 17.5572 18.883 17.5315 18.6871 17.5058C20.1938 14.1437 21.1689 10.5399 21.5542 6.88048C21.6639 5.83677 21.7264 4.78878 21.7436 3.73865C21.9438 3.79212 22.1439 3.84559 22.3463 3.9012C20.5748 6.27737 19.7548 9.25453 20.0669 12.1953C19.9054 12.1034 19.744 12.0114 19.5804 11.9173C21.7092 10.6084 22.7208 7.84078 21.961 5.47744C22.1418 5.52449 22.3205 5.57158 22.5013 5.61863C20.4715 7.87931 19.9614 11.3526 21.2679 14.0924C21.0828 14.0924 20.8956 14.0924 20.7104 14.0924C21.9997 12.3536 22.5658 10.1314 22.2107 7.99477C22.3915 8.04182 22.5701 8.08886 22.7509 8.13591C22.4324 8.50378 22.3161 8.97005 22.3764 9.447C22.2688 9.34006 22.1612 9.23312 22.0536 9.12618C24.1715 9.36787 26.3089 9.077 28.2848 8.28138C28.3128 8.49098 28.3429 8.70057 28.3709 8.91231C26.7695 8.74976 25.1681 8.95933 23.6636 9.52611C23.6636 9.32079 23.6636 9.11335 23.6636 8.90803C26.3713 9.67798 29.2491 9.71219 31.974 9.00426C31.974 9.20958 31.974 9.41707 31.974 9.62239C30.3683 9.17539 28.7067 9.01708 27.0428 9.15182C27.0708 8.94222 27.101 8.73264 27.129 8.5209C30.1467 9.23097 33.3128 9.15183 36.2918 8.3006C36.3198 8.5102 36.3499 8.71984 36.3779 8.93158C34.8174 8.88238 33.2978 9.34219 32.0236 10.2426C31.9396 10.048 31.8578 9.85122 31.7739 9.65659C32.3184 9.54538 32.863 9.43415 33.4076 9.32293C33.6938 9.26519 33.9909 9.63733 33.7218 9.85977C32.0623 11.2222 30.4028 12.5824 28.7433 13.9448C28.3559 14.2635 27.9533 14.5693 27.5809 14.9051C27.3248 15.1361 27.0837 15.4419 27.2559 15.7948C27.6003 16.5049 28.7153 16.6653 29.3954 16.7851C30.5297 16.984 31.705 16.9947 32.8458 16.8279C32.8458 17.0332 32.8458 17.2406 32.8458 17.446C31.2336 17.0909 29.5892 16.9305 27.9361 16.9605C28.0115 16.7787 28.0889 16.5948 28.1642 16.413C30.1402 18.1496 33.0739 18.5924 35.4954 17.5829C35.4696 17.7775 35.4437 17.9743 35.4179 18.1689C34.2642 17.523 32.9792 17.1615 31.6555 17.1123C31.6834 16.9027 31.7136 16.6931 31.7416 16.4814C35.1639 17.6812 38.7563 18.3528 42.3853 18.4597C42.3853 18.6736 42.3853 18.8875 42.3853 19.1014C40.9281 19.0137 39.4688 19.0928 38.0331 19.3516C38.0331 19.1463 38.0331 18.9388 38.0331 18.7335C39.133 19.1377 40.291 19.2639 41.4511 19.1099C41.3586 19.2703 41.2661 19.4307 41.1714 19.5933C40.0586 18.1496 38.0826 17.446 36.2982 17.8288C36.3241 17.6342 36.3499 17.4374 36.3758 17.2428C38.328 18.0748 40.4998 18.3592 42.607 18.109C43.6186 17.9871 44.7099 17.7583 45.6376 17.3219C46.0251 17.1401 46.2403 16.8428 45.883 16.5006C45.5493 16.182 45.0522 16.0643 44.6109 15.9809C43.4787 15.7649 42.282 15.9766 41.2811 16.5391C41.3306 16.4194 41.3801 16.2975 41.4296 16.1777C41.8042 17.2578 43.158 17.6641 44.1911 17.3989C44.7314 17.2599 45.2093 16.9306 45.4482 16.4172C45.7237 15.8248 45.5967 15.1318 45.2781 14.5843C44.6475 13.4978 43.0892 12.8155 42.1378 13.9277C41.7934 14.3298 41.5717 14.9308 41.7008 15.4569C41.8795 16.1927 42.678 16.3723 43.3453 16.2312C44.1567 16.0601 44.895 15.6023 45.4482 14.9949C45.9131 14.4838 46.335 13.7481 46.165 13.0337C45.9691 12.2081 45.1124 11.8403 44.3462 11.712C43.5605 11.5794 42.6974 11.6842 42.0043 12.0884C41.3607 12.4648 40.9303 13.1064 40.8872 13.8529C40.8485 14.5544 41.152 15.2323 41.8192 15.5318C42.5338 15.8547 43.412 15.6473 44.0857 15.3222C44.8218 14.9671 45.5106 14.4111 45.954 13.7202C46.3759 13.0594 46.5524 12.2488 46.1671 11.5302C45.8421 10.9227 45.2071 10.4907 44.5033 10.7088C43.3517 11.066 43.3883 12.8134 43.5347 13.7438C43.5842 14.0561 43.6574 14.3661 43.7543 14.6677C43.6509 14.5886 43.5476 14.5116 43.4421 14.4325C44.9208 14.3918 46.5653 13.4315 47.0625 11.9878C47.1787 11.6499 47.2024 11.2435 46.7827 11.1387C46.4103 11.0446 45.9734 11.1559 45.6075 11.2329C44.6884 11.4232 43.8124 11.7569 42.9988 12.2188C42.9729 12.0242 42.9471 11.8274 42.9212 11.6328C44.6798 11.8788 46.477 11.6628 48.1387 11.0468C48.1129 11.2414 48.0871 11.4382 48.0612 11.6328C46.2683 10.4415 43.8898 10.2148 41.9139 11.1024C41.83 10.9078 41.7482 10.711 41.6642 10.5164C43.4313 10.2469 45.1985 9.97527 46.9635 9.70578C46.9377 9.90041 46.9118 10.0972 46.886 10.2918C45.1081 9.48549 43.214 8.95079 41.279 8.68559C41.1197 8.6642 41.0293 8.47387 41.0486 8.33271C41.0723 8.16375 41.2036 8.07391 41.365 8.05466C42.9385 7.87073 44.514 7.68678 46.0874 7.50284C46.0874 7.71672 46.0874 7.9306 46.0874 8.14447C44.613 8.02684 43.1257 8.25141 41.7654 8.83315C41.7654 8.64922 41.7654 8.46318 41.7654 8.27924C43.0612 9.04706 44.5269 9.47482 46.0358 9.52188C46.3802 9.53257 46.4964 10.0972 46.1219 10.1528C45.2071 10.2854 44.2902 10.4201 43.3754 10.5527C43.3754 10.3474 43.3754 10.14 43.3754 9.93464C44.2256 10.1229 44.7551 11.0147 44.5571 11.8467C44.4452 12.2552 43.8231 12.0841 43.9199 11.682Z" fill="#7EAF15"/>
</svg>
